<svg width="49" height="49" viewBox="0 0 49 49" fill="none" xmlns="http://www.w3.org/2000/svg">
<path d="M13.8132 37.3667H35.2071C37.0873 37.3667 38.3069 35.3859 37.4938 33.7098L26.7715 12.2761C25.8568 10.3969 23.1635 10.3969 22.2488 12.2761L11.5265 33.7098C10.6626 35.3859 11.933 37.3667 13.8132 37.3667Z" fill="#FFA54B"/>
<path fill-rule="evenodd" clip-rule="evenodd" d="M27.3988 11.9659L38.1234 33.404C39.1595 35.54 37.6093 38.0665 35.2068 38.0665H13.8129C11.4379 38.0665 9.78939 35.5584 10.9019 33.3929L21.6208 11.966C22.7921 9.56672 26.2275 9.56666 27.3988 11.9659ZM26.1418 12.5823C25.4826 11.2279 23.5371 11.2279 22.8779 12.5823L22.8746 12.5891L12.1484 34.0303C11.5373 35.2161 12.4291 36.6665 13.8129 36.6665H35.2068C36.5634 36.6665 37.452 35.2341 36.8654 34.0186L26.1418 12.5823Z" fill="#FFA54B"/>
<path fill-rule="evenodd" clip-rule="evenodd" d="M24.4998 18.2012C24.8864 18.2012 25.1998 18.5146 25.1998 18.9012V27.9012C25.1998 28.2878 24.8864 28.6012 24.4998 28.6012C24.1132 28.6012 23.7998 28.2878 23.7998 27.9012V18.9012C23.7998 18.5146 24.1132 18.2012 24.4998 18.2012Z" fill="#213363"/>
<path d="M23.625 32.5825C23.625 33.1348 24.0727 33.5825 24.625 33.5825C25.1773 33.5825 25.625 33.1348 25.625 32.5825C25.625 32.0302 25.1773 31.5825 24.625 31.5825C24.0727 31.5825 23.625 32.0302 23.625 32.5825Z" fill="#213363"/>
</svg>
