<svg width="754" height="142" viewBox="0 0 754 142" fill="none" xmlns="http://www.w3.org/2000/svg">
<g clip-path="url(#clip0_2847_4270)">
<path d="M732.062 1.32373L752.117 20.8215L700.518 71.0137L752.117 121.178L732.062 140.704L660.379 71.0137L732.062 1.32373Z" stroke="url(#paint0_linear_2847_4270)" stroke-width="0.67" stroke-miterlimit="10"/>
<path opacity="0.94" d="M659.358 71.0137L710.957 121.178L690.902 140.704L619.218 71.0137L690.902 1.32373L710.957 20.8215L659.358 71.0137Z" stroke="url(#paint1_linear_2847_4270)" stroke-width="0.67" stroke-miterlimit="10"/>
<path opacity="0.88" d="M618.197 71.0137L669.797 121.178L649.741 140.704L578.058 71.0137L649.741 1.32373L669.797 20.8215L618.197 71.0137Z" stroke="url(#paint2_linear_2847_4270)" stroke-width="0.67" stroke-miterlimit="10"/>
<path opacity="0.81" d="M577.037 71.0137L628.637 121.178L608.581 140.704L536.898 71.0137L608.581 1.32373L628.637 20.8215L577.037 71.0137Z" stroke="url(#paint3_linear_2847_4270)" stroke-width="0.67" stroke-miterlimit="10"/>
<path opacity="0.75" d="M535.877 71.0137L587.477 121.178L567.421 140.704L495.738 71.0137L567.421 1.32373L587.477 20.8215L535.877 71.0137Z" stroke="url(#paint4_linear_2847_4270)" stroke-width="0.67" stroke-miterlimit="10"/>
<path opacity="0.69" d="M494.716 71.0137L546.315 121.178L526.26 140.704L454.577 71.0137L526.26 1.32373L546.315 20.8215L494.716 71.0137Z" stroke="url(#paint5_linear_2847_4270)" stroke-width="0.67" stroke-miterlimit="10"/>
<path opacity="0.63" d="M453.556 71.0137L505.184 121.178L485.1 140.704L413.417 71.0137L485.1 1.32373L505.184 20.8215L453.556 71.0137Z" stroke="url(#paint6_linear_2847_4270)" stroke-width="0.67" stroke-miterlimit="10"/>
<path opacity="0.56" d="M412.396 71.0137L463.995 121.178L443.94 140.704L372.256 71.0137L443.94 1.32373L463.995 20.8215L412.396 71.0137Z" stroke="url(#paint7_linear_2847_4270)" stroke-width="0.67" stroke-miterlimit="10"/>
<path opacity="0.5" d="M371.235 71.0137L422.863 121.178L402.78 140.704L331.096 71.0137L402.78 1.32373L422.863 20.8215L371.235 71.0137Z" stroke="url(#paint8_linear_2847_4270)" stroke-width="0.67" stroke-miterlimit="10"/>
<path opacity="0.44" d="M330.075 71.0137L381.703 121.178L361.619 140.704L289.936 71.0137L361.619 1.32373L381.703 20.8215L330.075 71.0137Z" stroke="url(#paint9_linear_2847_4270)" stroke-width="0.67" stroke-miterlimit="10"/>
<path opacity="0.38" d="M288.914 71.0137L340.542 121.178L320.458 140.704L248.775 71.0137L320.458 1.32373L340.542 20.8215L288.914 71.0137Z" stroke="url(#paint10_linear_2847_4270)" stroke-width="0.67" stroke-miterlimit="10"/>
<path opacity="0.31" d="M247.754 71.0137L299.382 121.178L279.298 140.704L207.615 71.0137L279.298 1.32373L299.382 20.8215L247.754 71.0137Z" stroke="url(#paint11_linear_2847_4270)" stroke-width="0.67" stroke-miterlimit="10"/>
<path opacity="0.25" d="M206.594 71.0137L258.222 121.178L238.138 140.704L166.455 71.0137L238.138 1.32373L258.222 20.8215L206.594 71.0137Z" stroke="url(#paint12_linear_2847_4270)" stroke-width="0.67" stroke-miterlimit="10"/>
<path opacity="0.19" d="M165.434 71.0137L217.062 121.178L196.978 140.704L125.323 71.0137L196.978 1.32373L217.062 20.8215L165.434 71.0137Z" stroke="url(#paint13_linear_2847_4270)" stroke-width="0.67" stroke-miterlimit="10"/>
<path opacity="0.13" d="M124.273 71.0137L175.9 121.178L155.817 140.704L84.1618 71.0137L155.817 1.32373L175.9 20.8215L124.273 71.0137Z" stroke="url(#paint14_linear_2847_4270)" stroke-width="0.67" stroke-miterlimit="10"/>
<path opacity="0.06" d="M83.1124 71.0137L134.74 121.178L114.685 140.704L43.0016 71.0137L114.685 1.32373L134.74 20.8215L83.1124 71.0137Z" stroke="url(#paint15_linear_2847_4270)" stroke-width="0.67" stroke-miterlimit="10"/>
</g>
<defs>
<linearGradient id="paint0_linear_2847_4270" x1="735.498" y1="32.1287" x2="654.071" y2="82.1241" gradientUnits="userSpaceOnUse">
<stop stop-color="#5ED9D1"/>
<stop offset="1" stop-color="#376D8B"/>
</linearGradient>
<linearGradient id="paint1_linear_2847_4270" x1="694.338" y1="32.1287" x2="612.911" y2="82.1241" gradientUnits="userSpaceOnUse">
<stop stop-color="#5ED9D1"/>
<stop offset="1" stop-color="#376D8B"/>
</linearGradient>
<linearGradient id="paint2_linear_2847_4270" x1="653.178" y1="32.1287" x2="571.75" y2="82.1241" gradientUnits="userSpaceOnUse">
<stop stop-color="#5ED9D1"/>
<stop offset="1" stop-color="#376D8B"/>
</linearGradient>
<linearGradient id="paint3_linear_2847_4270" x1="612.017" y1="32.1287" x2="530.59" y2="82.1241" gradientUnits="userSpaceOnUse">
<stop stop-color="#5ED9D1"/>
<stop offset="1" stop-color="#376D8B"/>
</linearGradient>
<linearGradient id="paint4_linear_2847_4270" x1="570.857" y1="32.1287" x2="489.43" y2="82.1241" gradientUnits="userSpaceOnUse">
<stop stop-color="#5ED9D1"/>
<stop offset="1" stop-color="#376D8B"/>
</linearGradient>
<linearGradient id="paint5_linear_2847_4270" x1="529.696" y1="32.1287" x2="448.269" y2="82.1242" gradientUnits="userSpaceOnUse">
<stop stop-color="#5ED9D1"/>
<stop offset="1" stop-color="#376D8B"/>
</linearGradient>
<linearGradient id="paint6_linear_2847_4270" x1="488.559" y1="32.1287" x2="407.121" y2="82.1466" gradientUnits="userSpaceOnUse">
<stop stop-color="#5ED9D1"/>
<stop offset="1" stop-color="#376D8B"/>
</linearGradient>
<linearGradient id="paint7_linear_2847_4270" x1="447.376" y1="32.1287" x2="365.949" y2="82.1242" gradientUnits="userSpaceOnUse">
<stop stop-color="#5ED9D1"/>
<stop offset="1" stop-color="#376D8B"/>
</linearGradient>
<linearGradient id="paint8_linear_2847_4270" x1="406.239" y1="32.1287" x2="324.8" y2="82.1466" gradientUnits="userSpaceOnUse">
<stop stop-color="#5ED9D1"/>
<stop offset="1" stop-color="#376D8B"/>
</linearGradient>
<linearGradient id="paint9_linear_2847_4270" x1="365.079" y1="32.1287" x2="283.64" y2="82.1466" gradientUnits="userSpaceOnUse">
<stop stop-color="#5ED9D1"/>
<stop offset="1" stop-color="#376D8B"/>
</linearGradient>
<linearGradient id="paint10_linear_2847_4270" x1="323.918" y1="32.1287" x2="242.479" y2="82.1466" gradientUnits="userSpaceOnUse">
<stop stop-color="#5ED9D1"/>
<stop offset="1" stop-color="#376D8B"/>
</linearGradient>
<linearGradient id="paint11_linear_2847_4270" x1="282.757" y1="32.1287" x2="201.319" y2="82.1465" gradientUnits="userSpaceOnUse">
<stop stop-color="#5ED9D1"/>
<stop offset="1" stop-color="#376D8B"/>
</linearGradient>
<linearGradient id="paint12_linear_2847_4270" x1="241.597" y1="32.1287" x2="160.159" y2="82.1467" gradientUnits="userSpaceOnUse">
<stop stop-color="#5ED9D1"/>
<stop offset="1" stop-color="#376D8B"/>
</linearGradient>
<linearGradient id="paint13_linear_2847_4270" x1="200.442" y1="32.1287" x2="119.015" y2="82.1241" gradientUnits="userSpaceOnUse">
<stop stop-color="#5ED9D1"/>
<stop offset="1" stop-color="#376D8B"/>
</linearGradient>
<linearGradient id="paint14_linear_2847_4270" x1="159.281" y1="32.1287" x2="77.854" y2="82.1241" gradientUnits="userSpaceOnUse">
<stop stop-color="#5ED9D1"/>
<stop offset="1" stop-color="#376D8B"/>
</linearGradient>
<linearGradient id="paint15_linear_2847_4270" x1="118.121" y1="32.1287" x2="36.6938" y2="82.1241" gradientUnits="userSpaceOnUse">
<stop stop-color="#5ED9D1"/>
<stop offset="1" stop-color="#376D8B"/>
</linearGradient>
<clipPath id="clip0_2847_4270">
<rect width="753" height="142" fill="white" transform="matrix(-1 8.74228e-08 8.74228e-08 1 753.479 0)"/>
</clipPath>
</defs>
</svg>
