<svg width="855" height="162" viewBox="0 0 855 162" fill="none" xmlns="http://www.w3.org/2000/svg">
<path d="M24.7694 1.51026L2.02392 23.7542L60.5444 81.0158L2.02391 138.246L24.7694 160.521L106.067 81.0158L24.7694 1.51026Z" stroke="url(#paint0_linear_2847_4252)" stroke-width="0.67" stroke-miterlimit="10"/>
<path opacity="0.94" d="M107.226 81.0158L48.7051 138.246L71.4505 160.521L152.749 81.0158L71.4505 1.51026L48.7051 23.7542L107.226 81.0158Z" stroke="url(#paint1_linear_2847_4252)" stroke-width="0.67" stroke-miterlimit="10"/>
<path opacity="0.88" d="M153.907 81.0158L95.3862 138.246L118.132 160.521L199.43 81.0158L118.132 1.51026L95.3862 23.7542L153.907 81.0158Z" stroke="url(#paint2_linear_2847_4252)" stroke-width="0.67" stroke-miterlimit="10"/>
<path opacity="0.81" d="M200.588 81.0158L142.067 138.246L164.813 160.521L246.111 81.0158L164.813 1.51026L142.067 23.7542L200.588 81.0158Z" stroke="url(#paint3_linear_2847_4252)" stroke-width="0.67" stroke-miterlimit="10"/>
<path opacity="0.75" d="M247.269 81.0158L188.749 138.246L211.494 160.521L292.792 81.0158L211.494 1.51026L188.749 23.7542L247.269 81.0158Z" stroke="url(#paint4_linear_2847_4252)" stroke-width="0.67" stroke-miterlimit="10"/>
<path opacity="0.69" d="M293.951 81.0158L235.43 138.246L258.176 160.521L339.474 81.0158L258.176 1.51026L235.43 23.7542L293.951 81.0158Z" stroke="url(#paint5_linear_2847_4252)" stroke-width="0.67" stroke-miterlimit="10"/>
<path opacity="0.63" d="M340.632 81.0158L282.079 138.246L304.857 160.521L386.155 81.0158L304.857 1.51026L282.079 23.7542L340.632 81.0158Z" stroke="url(#paint6_linear_2847_4252)" stroke-width="0.67" stroke-miterlimit="10"/>
<path opacity="0.56" d="M387.313 81.0158L328.792 138.246L351.538 160.521L432.836 81.0158L351.538 1.51026L328.792 23.7542L387.313 81.0158Z" stroke="url(#paint7_linear_2847_4252)" stroke-width="0.67" stroke-miterlimit="10"/>
<path opacity="0.5" d="M433.994 81.0158L375.441 138.246L398.219 160.521L479.517 81.0158L398.219 1.51026L375.441 23.7542L433.994 81.0158Z" stroke="url(#paint8_linear_2847_4252)" stroke-width="0.67" stroke-miterlimit="10"/>
<path opacity="0.44" d="M480.675 81.0158L422.123 138.246L444.9 160.521L526.198 81.0158L444.9 1.51026L422.123 23.7542L480.675 81.0158Z" stroke="url(#paint9_linear_2847_4252)" stroke-width="0.67" stroke-miterlimit="10"/>
<path opacity="0.38" d="M527.357 81.0158L468.804 138.246L491.582 160.521L572.88 81.0158L491.582 1.51026L468.804 23.7542L527.357 81.0158Z" stroke="url(#paint10_linear_2847_4252)" stroke-width="0.67" stroke-miterlimit="10"/>
<path opacity="0.31" d="M574.038 81.0158L515.485 138.246L538.263 160.521L619.561 81.0158L538.263 1.51026L515.485 23.7542L574.038 81.0158Z" stroke="url(#paint11_linear_2847_4252)" stroke-width="0.67" stroke-miterlimit="10"/>
<path opacity="0.25" d="M620.719 81.0158L562.166 138.246L584.944 160.521L666.242 81.0158L584.944 1.51026L562.167 23.7542L620.719 81.0158Z" stroke="url(#paint12_linear_2847_4252)" stroke-width="0.67" stroke-miterlimit="10"/>
<path opacity="0.19" d="M667.4 81.0158L608.848 138.246L631.625 160.521L712.891 81.0158L631.625 1.51026L608.848 23.7542L667.4 81.0158Z" stroke="url(#paint13_linear_2847_4252)" stroke-width="0.67" stroke-miterlimit="10"/>
<path opacity="0.13" d="M714.082 81.0158L655.529 138.246L678.307 160.521L759.573 81.0158L678.307 1.51026L655.529 23.7542L714.082 81.0158Z" stroke="url(#paint14_linear_2847_4252)" stroke-width="0.67" stroke-miterlimit="10"/>
<path opacity="0.06" d="M760.763 81.0158L702.21 138.246L724.956 160.521L806.254 81.0158L724.956 1.51026L702.21 23.7542L760.763 81.0158Z" stroke="url(#paint15_linear_2847_4252)" stroke-width="0.67" stroke-miterlimit="10"/>
<defs>
<linearGradient id="paint0_linear_2847_4252" x1="20.8724" y1="36.654" x2="113.519" y2="93.2032" gradientUnits="userSpaceOnUse">
<stop stop-color="#5ED9D1"/>
<stop offset="1" stop-color="#376D8B"/>
</linearGradient>
<linearGradient id="paint1_linear_2847_4252" x1="67.5535" y1="36.654" x2="160.2" y2="93.2033" gradientUnits="userSpaceOnUse">
<stop stop-color="#5ED9D1"/>
<stop offset="1" stop-color="#376D8B"/>
</linearGradient>
<linearGradient id="paint2_linear_2847_4252" x1="114.235" y1="36.654" x2="206.881" y2="93.2032" gradientUnits="userSpaceOnUse">
<stop stop-color="#5ED9D1"/>
<stop offset="1" stop-color="#376D8B"/>
</linearGradient>
<linearGradient id="paint3_linear_2847_4252" x1="160.916" y1="36.654" x2="253.562" y2="93.2032" gradientUnits="userSpaceOnUse">
<stop stop-color="#5ED9D1"/>
<stop offset="1" stop-color="#376D8B"/>
</linearGradient>
<linearGradient id="paint4_linear_2847_4252" x1="207.597" y1="36.654" x2="300.244" y2="93.2032" gradientUnits="userSpaceOnUse">
<stop stop-color="#5ED9D1"/>
<stop offset="1" stop-color="#376D8B"/>
</linearGradient>
<linearGradient id="paint5_linear_2847_4252" x1="254.279" y1="36.654" x2="346.925" y2="93.2033" gradientUnits="userSpaceOnUse">
<stop stop-color="#5ED9D1"/>
<stop offset="1" stop-color="#376D8B"/>
</linearGradient>
<linearGradient id="paint6_linear_2847_4252" x1="300.933" y1="36.654" x2="393.593" y2="93.2287" gradientUnits="userSpaceOnUse">
<stop stop-color="#5ED9D1"/>
<stop offset="1" stop-color="#376D8B"/>
</linearGradient>
<linearGradient id="paint7_linear_2847_4252" x1="347.641" y1="36.654" x2="440.288" y2="93.2033" gradientUnits="userSpaceOnUse">
<stop stop-color="#5ED9D1"/>
<stop offset="1" stop-color="#376D8B"/>
</linearGradient>
<linearGradient id="paint8_linear_2847_4252" x1="394.296" y1="36.654" x2="486.955" y2="93.2287" gradientUnits="userSpaceOnUse">
<stop stop-color="#5ED9D1"/>
<stop offset="1" stop-color="#376D8B"/>
</linearGradient>
<linearGradient id="paint9_linear_2847_4252" x1="440.977" y1="36.654" x2="533.637" y2="93.2287" gradientUnits="userSpaceOnUse">
<stop stop-color="#5ED9D1"/>
<stop offset="1" stop-color="#376D8B"/>
</linearGradient>
<linearGradient id="paint10_linear_2847_4252" x1="487.658" y1="36.654" x2="580.318" y2="93.2287" gradientUnits="userSpaceOnUse">
<stop stop-color="#5ED9D1"/>
<stop offset="1" stop-color="#376D8B"/>
</linearGradient>
<linearGradient id="paint11_linear_2847_4252" x1="534.34" y1="36.654" x2="626.999" y2="93.2287" gradientUnits="userSpaceOnUse">
<stop stop-color="#5ED9D1"/>
<stop offset="1" stop-color="#376D8B"/>
</linearGradient>
<linearGradient id="paint12_linear_2847_4252" x1="581.021" y1="36.654" x2="673.681" y2="93.2289" gradientUnits="userSpaceOnUse">
<stop stop-color="#5ED9D1"/>
<stop offset="1" stop-color="#376D8B"/>
</linearGradient>
<linearGradient id="paint13_linear_2847_4252" x1="627.696" y1="36.654" x2="720.343" y2="93.2033" gradientUnits="userSpaceOnUse">
<stop stop-color="#5ED9D1"/>
<stop offset="1" stop-color="#376D8B"/>
</linearGradient>
<linearGradient id="paint14_linear_2847_4252" x1="674.378" y1="36.654" x2="767.024" y2="93.2033" gradientUnits="userSpaceOnUse">
<stop stop-color="#5ED9D1"/>
<stop offset="1" stop-color="#376D8B"/>
</linearGradient>
<linearGradient id="paint15_linear_2847_4252" x1="721.059" y1="36.654" x2="813.706" y2="93.2033" gradientUnits="userSpaceOnUse">
<stop stop-color="#5ED9D1"/>
<stop offset="1" stop-color="#376D8B"/>
</linearGradient>
</defs>
</svg>
