<svg width="161" height="160" viewBox="0 0 161 160" fill="none" xmlns="http://www.w3.org/2000/svg">
<path d="M80.7703 0.277832C124.837 0.277832 160.559 35.9897 160.559 80.0367C160.559 124.084 124.837 159.796 80.7703 159.796C36.7036 159.796 0.988983 124.087 0.988983 80.0367C0.988983 35.9862 36.7071 0.277832 80.7703 0.277832ZM80.7703 119.719C91.2964 119.716 101.39 115.534 108.832 108.092C116.274 100.651 120.454 90.5589 120.453 80.0367C120.453 69.5147 116.273 59.4235 108.831 51.9821C101.39 44.5406 91.2962 40.3582 80.7703 40.3546C70.2424 40.3555 60.1459 44.5366 52.7015 51.9782C45.2571 59.4198 41.0745 69.5126 41.0736 80.0367C41.0736 90.561 45.2559 100.654 52.7005 108.096C60.1451 115.538 70.2421 119.719 80.7703 119.719Z" fill="#ECFFFE"/>
</svg>
