<svg width="394" height="548" viewBox="0 0 394 548" fill="none" xmlns="http://www.w3.org/2000/svg">
<g opacity="0.4" clip-path="url(#clip0_3048_3595)">
<path d="M274.033 188.766C354.121 188.766 419.048 253.736 419.048 333.879C419.048 414.022 354.121 478.996 274.033 478.996C193.945 478.996 129 414.025 129 333.879C129 253.733 193.942 188.766 274.033 188.766ZM274.033 433.243C328.872 433.243 373.33 388.758 373.33 333.879C373.33 279 328.872 234.515 274.033 234.515C219.195 234.515 174.737 279.003 174.737 333.879C174.737 388.755 219.192 433.243 274.033 433.243Z" fill="#5ED9D1"/>
<path d="M14.592 188.766L34.146 208.309L53.6966 188.766L68.2886 203.352L48.738 222.899L68.2886 242.442L53.6966 257.029L34.146 237.486L14.592 257.029L3.05176e-05 242.442L19.5506 222.899L3.05176e-05 203.352L14.592 188.766Z" fill="#BEF0ED"/>
</g>
<defs>
<clipPath id="clip0_3048_3595">
<rect width="394" height="547" fill="white" transform="matrix(-1 0 0 1 394 0.0366211)"/>
</clipPath>
</defs>
</svg>
