<svg width="110" height="82" viewBox="0 0 110 82" fill="none" xmlns="http://www.w3.org/2000/svg">
<g filter="url(#filter0_d_1084_20583)">
<path fill-rule="evenodd" clip-rule="evenodd" d="M81.6397 73.3694C80.3271 73.455 79.0675 72.8646 78.2254 71.854L76.1834 69.4033C75.1042 68.1081 77.931 65.2786 79.4392 64.5252C81.8178 63.3371 78.2885 62.5465 75.7505 63.339C63.4086 67.1932 47.3229 67.2278 34.9394 63.1884C32.2688 62.3173 28.4975 62.7333 30.9663 64.0735C32.5647 64.9412 35.6682 68.1728 34.4422 69.5161L32.2358 71.9339C31.3548 72.8992 30.0968 73.4552 28.7926 73.371C18.1866 72.6861 11.5272 68.0088 7.94109 64.4561C5.47425 62.0122 4.56076 58.5291 4.74576 55.0616C5.74949 36.2478 11.8147 20.5963 15.0387 13.4758C16.2875 10.7179 18.3054 8.38148 20.9181 6.85199C30.7856 1.07549 39.2789 0.427412 41.0605 0.354704C41.2796 0.345761 41.4807 0.449213 41.6116 0.625168C41.9025 1.01607 41.7055 1.57871 41.2378 1.71531C40.4555 1.94381 39.6964 2.17888 38.9602 2.41922C36.3035 3.28648 37.5055 5.71986 40.2561 5.22554C55.9154 2.41134 74.0085 4.10875 85.5021 9.62176C88.7733 11.1908 88.9529 11.0259 85.8532 9.14062C82.0417 6.8225 76.2529 3.90673 69.072 1.83124C68.4838 1.66124 68.3217 0.89558 68.7983 0.511235C68.9312 0.403998 69.0917 0.345495 69.2624 0.351494C70.8423 0.407009 79.4553 0.978054 89.4893 6.85199C92.102 8.38148 94.1198 10.7179 95.3686 13.4758C98.5926 20.5963 104.658 36.2478 105.662 55.0616C105.847 58.5291 104.933 62.0122 102.466 64.4561C98.883 68.006 92.2312 72.6787 81.6397 73.3694ZM38.9704 52.1773C43.9021 52.1773 47.8999 47.9026 47.8999 42.6293C47.8999 37.3561 43.9021 33.0814 38.9704 33.0814C34.0388 33.0814 30.041 37.3561 30.041 42.6293C30.041 47.9026 34.0388 52.1773 38.9704 52.1773ZM79.2924 42.6293C79.2924 47.9025 75.2946 52.1773 70.3629 52.1773C65.4313 52.1773 61.4335 47.9025 61.4335 42.6293C61.4335 37.3561 65.4313 33.0814 70.3629 33.0814C75.2946 33.0814 79.2924 37.3561 79.2924 42.6293Z" fill="#ECFFFE"/>
</g>
<defs>
<filter id="filter0_d_1084_20583" x="0.722656" y="0.351074" width="108.963" height="81.0283" filterUnits="userSpaceOnUse" color-interpolation-filters="sRGB">
<feFlood flood-opacity="0" result="BackgroundImageFix"/>
<feColorMatrix in="SourceAlpha" type="matrix" values="0 0 0 0 0 0 0 0 0 0 0 0 0 0 0 0 0 0 127 0" result="hardAlpha"/>
<feOffset dy="4"/>
<feGaussianBlur stdDeviation="2"/>
<feComposite in2="hardAlpha" operator="out"/>
<feColorMatrix type="matrix" values="0 0 0 0 0 0 0 0 0 0 0 0 0 0 0 0 0 0 0.25 0"/>
<feBlend mode="normal" in2="BackgroundImageFix" result="effect1_dropShadow_1084_20583"/>
<feBlend mode="normal" in="SourceGraphic" in2="effect1_dropShadow_1084_20583" result="shape"/>
</filter>
</defs>
</svg>
