<svg width="125" height="126" viewBox="0 0 125 126" fill="none" xmlns="http://www.w3.org/2000/svg">
<g opacity="0.9">
<g style="mix-blend-mode:multiply" filter="url(#filter0_d_1084_20596)">
<path d="M47.5429 107.651C44.3843 107.651 44.8352 111.4 44.8352 111.4H85.8995C85.8995 111.4 86.093 109.79 85.3393 108.681C84.9406 108.097 84.2802 107.651 83.1916 107.651C80.2585 107.651 79.5822 106.328 79.5822 105.005L79.8075 89.5701C79.8075 84.2774 78.0016 80.7492 75.7448 78.9851C88.6073 77.6618 102.143 72.8103 102.143 51.1985C102.143 45.026 99.8865 39.9539 96.2771 35.9845C96.9534 34.6613 98.7593 28.9277 95.6009 21.2092C95.6009 21.2092 94.3733 20.8101 91.7112 21.3746C89.1423 21.9215 85.2367 23.3682 79.8075 26.9429C70.3318 24.2966 60.4028 24.2966 50.927 26.9429C39.873 19.6656 35.1339 21.2092 35.1339 21.2092C31.9753 28.9277 33.7812 34.6613 34.4575 35.9845C30.848 39.9539 28.5912 45.026 28.5912 51.1985C28.5912 72.8103 41.9021 77.6618 54.7619 78.9851C53.1838 80.5288 51.6033 82.9545 51.1524 86.7031C47.7684 88.0264 39.4198 90.4499 34.4575 81.8516C34.4575 81.8516 31.299 76.5589 25.4326 76.1181C25.4326 76.1181 19.7917 76.1181 25.2072 79.6463C25.2072 79.6463 26.4187 80.1647 27.965 81.8868C29.0877 83.1374 30.3858 85.023 31.5244 87.806C31.5244 87.806 34.9084 97.5067 50.927 93.9785L51.1524 105.005C51.1524 106.328 50.4761 107.651 47.5429 107.651Z" fill="#ECFFFE"/>
</g>
</g>
<defs>
<filter id="filter0_d_1084_20596" x="18.8574" y="21.0723" width="87.2852" height="98.3276" filterUnits="userSpaceOnUse" color-interpolation-filters="sRGB">
<feFlood flood-opacity="0" result="BackgroundImageFix"/>
<feColorMatrix in="SourceAlpha" type="matrix" values="0 0 0 0 0 0 0 0 0 0 0 0 0 0 0 0 0 0 127 0" result="hardAlpha"/>
<feOffset dy="4"/>
<feGaussianBlur stdDeviation="2"/>
<feComposite in2="hardAlpha" operator="out"/>
<feColorMatrix type="matrix" values="0 0 0 0 0 0 0 0 0 0 0 0 0 0 0 0 0 0 0.25 0"/>
<feBlend mode="normal" in2="BackgroundImageFix" result="effect1_dropShadow_1084_20596"/>
<feBlend mode="normal" in="SourceGraphic" in2="effect1_dropShadow_1084_20596" result="shape"/>
</filter>
</defs>
</svg>
