<svg width="399" height="373" viewBox="0 0 399 373" fill="none" xmlns="http://www.w3.org/2000/svg">
<path d="M157.443 152.814C157.443 151.262 158.685 150.02 160.238 150.02C161.79 150.02 163.032 151.262 163.032 152.814C163.032 154.367 161.79 155.609 160.238 155.609C158.685 155.609 157.443 154.315 157.443 152.814Z" fill="#171753"/>
<path d="M174.314 159.594C174.211 160.474 174.107 161.354 173.849 162.182C173.072 165.132 171.365 167.823 168.57 169.324C164.741 171.29 160.187 170.566 156.357 169.065C153.2 171.29 153.2 171.29 153.2 171.29C152.476 171.756 151.544 170.98 151.958 170.204C151.079 170.359 150.82 169.531 151.079 168.858C150.354 169.427 149.733 168.392 150.147 167.771C150.406 167.357 150.82 166.891 151.13 166.529C146.68 163.993 142.643 160.888 138.555 157.835C140.884 159.284 150.199 164.045 152.476 165.028C154.856 166.063 157.237 167.098 159.721 167.668C161.791 168.134 164.43 168.392 166.345 167.202C168.104 166.167 168.777 164.045 169.036 162.13C169.657 157.99 168.208 153.332 166.034 149.813C163.757 146.139 160.031 142.827 155.788 141.74C154.235 141.326 152.683 141.326 151.234 141.585C147.87 142.154 144.817 144.224 142.488 146.812C139.124 150.538 136.795 155.144 134.674 159.698C133.225 162.751 131.206 170.204 126.445 167.254C124.324 165.908 122.978 163.579 122.047 161.302C121.012 158.87 120.287 155.61 120.96 152.97C122.409 147.433 130.171 152.349 132.811 154.109C132.655 154.057 126.445 151.211 124.168 153.436C123.133 154.471 123.185 156.334 123.34 157.68C123.651 160.112 124.841 163.735 127.118 165.08C130.068 166.788 131.569 161.458 132.345 159.594C133.639 156.438 134.881 153.281 136.33 150.176C137.934 146.76 139.849 143.396 142.488 140.653C141.919 139.98 141.091 139.152 141.039 138.273C140.936 137.289 141.919 136.202 142.954 136.72C141.764 135.374 143.368 133.356 144.92 134.132C144.196 132.994 145.334 131.545 146.525 131.597C147.197 131.597 147.87 132.166 148.388 132.528C149.733 133.408 151.079 134.339 152.476 135.219C165.362 133.201 175.453 147.847 174.314 159.594Z" fill="#171753"/>
<path opacity="0.2" d="M318.919 123.023L301.79 103.647C301.645 103.483 301.435 103.388 301.215 103.388H98.2172C97.9929 103.388 97.7799 103.487 97.6342 103.657L81.0731 123.025C80.9543 123.164 80.8891 123.341 80.8891 123.524V250.706C80.8891 250.885 80.9517 251.058 81.0662 251.196L97.6338 271.133C97.7796 271.308 97.9957 271.41 98.2238 271.41H301.209C301.432 271.41 301.645 271.312 301.791 271.143L318.926 251.198C319.046 251.059 319.111 250.882 319.111 250.698V123.531C319.111 123.344 319.043 123.163 318.919 123.023Z" fill="#F5F5F5"/>
<path d="M320.264 122.862L320.264 251.208L302.476 272.273L97.3557 272.273L79.5678 251.208L79.5678 122.862L95.8819 103.573L97.3049 101.858L105.513 92.1677L215.213 92.1677L223.396 101.858L302.527 101.858L320.264 122.862ZM318.358 123.795L301.739 104.114L98.1943 104.114L81.5753 123.795L81.5753 250.185L98.1943 270.046L301.739 270.046L318.358 250.365L318.358 123.795Z" fill="#373765"/>
<path d="M304.152 130.827L304.152 241.951L288.759 260.189L111.246 260.189L95.8518 241.951L95.8518 130.827L109.97 114.126L111.202 112.641L149.653 112.641L194.536 112.641L220.322 112.641L288.802 112.641L304.152 130.827ZM302.503 131.635L288.121 114.595L111.971 114.595L97.5891 131.635L97.5891 241.065L111.971 258.261L288.121 258.261L302.503 241.221L302.503 131.635Z" fill="#373765"/>
<path d="M320.487 140.078L324.676 144.166V167.672L320.008 172.227V139.611L320.487 140.078Z" fill="#373765"/>
<path d="M81.0095 246.355L77.4691 242.523L77.4691 217.812L81.2031 213.738L81.0095 246.355Z" fill="#373765"/>
<path d="M81.2827 213.738L84.9395 209.456L84.9395 187.472L81.2055 183.099L81.2827 213.738Z" fill="#373765"/>
<g filter="url(#filter0_d_1009_6368)">
<path fill-rule="evenodd" clip-rule="evenodd" d="M249.245 186.302C264.968 186.302 277.745 199.148 277.745 215.006V220.246C277.745 222.09 276.578 223.817 275.04 224.482C268.849 227.131 255.61 232.085 239.623 232.432C223.507 232.086 210.441 227.147 204.236 224.494C202.499 223.666 201.503 222.071 201.503 220.246V215.006C201.503 199.148 214.28 186.302 230.002 186.302H249.245ZM239.466 235.999C222.703 235.623 209.167 230.487 202.801 227.763L202.773 227.75L202.745 227.737C199.766 226.338 197.933 223.494 197.933 220.246V215.006C197.933 197.199 212.286 182.733 230.002 182.733H249.245C266.962 182.733 281.314 197.199 281.314 215.006V220.246C281.314 223.483 279.328 226.519 276.451 227.761L276.446 227.763C270.078 230.487 256.388 235.623 239.782 235.999L239.782 236.005H239.466L239.466 235.999Z" fill="#FFA54B"/>
<path fill-rule="evenodd" clip-rule="evenodd" d="M239.145 135.165C251.497 135.165 261.495 145.163 261.495 157.515C261.495 169.867 251.497 179.865 239.145 179.865C226.793 179.865 216.795 169.867 216.795 157.515C216.795 145.163 226.793 135.165 239.145 135.165ZM265.064 157.515C265.064 143.191 253.468 131.595 239.145 131.595C224.822 131.595 213.226 143.191 213.226 157.515C213.226 171.838 224.822 183.434 239.145 183.434C253.468 183.434 265.064 171.838 265.064 157.515Z" fill="#FFA54B"/>
</g>
<path d="M174.332 182.311H120.638V184.893H174.332V182.311Z" fill="#373765"/>
<path d="M174.332 194.186H120.638V196.767H174.332V194.186Z" fill="#373765"/>
<path d="M174.332 206.06H120.638V208.641H174.332V206.06Z" fill="#373765"/>
<path d="M173.816 236.005L173.816 220.517L171.751 220.517L171.751 236.005L173.816 236.005Z" fill="#373765"/>
<path d="M143.355 236.005L143.355 220.517L140.774 220.517L140.774 236.005L143.355 236.005Z" fill="#373765"/>
<path d="M163.49 236.005L163.49 220.517L161.425 220.517L161.425 236.005L163.49 236.005Z" fill="#373765"/>
<path d="M133.029 236.005L133.029 220.517L130.964 220.517L130.964 236.005L133.029 236.005Z" fill="#373765"/>
<path d="M153.682 236.005L153.682 220.517L151.1 220.517L151.1 236.005L153.682 236.005Z" fill="#373765"/>
<path d="M122.699 236.005L122.699 220.517L120.634 220.517L120.634 236.005L122.699 236.005Z" fill="#373765"/>
<g clip-path="url(#clip0_1009_6368)">
<g style="mix-blend-mode:color-dodge">
<g style="mix-blend-mode:color-dodge">
<path d="M65.1055 44.9425L109.318 44.9425L109.318 0.472309L65.1055 0.472305L65.1055 44.9425ZM106.24 41.9245L68.1844 41.9245L68.1844 3.79838L106.24 3.79839L106.24 41.9245Z" fill="#373765"/>
</g>
<g style="mix-blend-mode:color-dodge">
<path d="M65.1055 37.305L68.1228 37.305L68.1228 41.9244L71.2017 41.9244L71.2017 44.9425L65.1055 44.9425L65.1055 37.305Z" fill="#373765"/>
</g>
<g style="mix-blend-mode:color-dodge">
<path d="M65.1055 0.78022L72.7411 0.780221L72.7411 3.79828L68.1228 3.79828L68.1228 6.87793L65.1055 6.87793L65.1055 0.78022Z" fill="#373765"/>
</g>
<g style="mix-blend-mode:color-dodge">
<path d="M354.584 44.9425L398.797 44.9425L398.797 0.472309L354.584 0.472305L354.584 44.9425ZM395.718 41.9245L357.663 41.9245L357.663 3.79838L395.657 3.79839L395.718 41.9245Z" fill="#373765"/>
</g>
<g style="mix-blend-mode:color-dodge">
<path d="M395.717 38.8448L398.796 38.8448L398.796 44.9425L391.16 44.9425L391.16 41.9244L395.717 41.9244L395.717 38.8448Z" fill="#373765"/>
</g>
<g style="mix-blend-mode:color-dodge">
<path d="M392.701 0.780266L398.797 0.780266L398.797 8.3562L395.718 8.3562L395.718 3.79832L392.701 3.79832L392.701 0.780266Z" fill="#373765"/>
</g>
<g style="mix-blend-mode:color-dodge">
<path d="M354.584 37.305L357.663 37.305L357.663 41.9244L360.68 41.9244L360.68 44.9425L354.584 44.9425L354.584 37.305Z" fill="#373765"/>
</g>
<g style="mix-blend-mode:color-dodge">
<path d="M354.584 0.78022L362.22 0.780221L362.22 3.79828L357.663 3.79828L357.663 6.87793L354.584 6.87793L354.584 0.78022Z" fill="#373765"/>
</g>
<g style="mix-blend-mode:color-dodge">
<path d="M257.133 44.9423L301.284 44.9423L301.284 0.472057L257.133 0.472054L257.133 44.9423ZM298.267 41.9243L260.15 41.9243L260.15 3.79813L298.267 3.79813L298.267 41.9243Z" fill="#373765"/>
</g>
<g style="mix-blend-mode:color-dodge">
<path d="M159.619 44.9423L203.771 44.9423L203.771 0.472057L159.619 0.472054L159.619 44.9423ZM200.753 41.9243L162.637 41.9243L162.637 3.79813L200.753 3.79813L200.753 41.9243Z" fill="#373765"/>
</g>
<g style="mix-blend-mode:color-dodge">
<path d="M106.24 38.8448L109.258 38.8448L109.258 44.9425L101.684 44.9425L101.684 41.9244L106.24 41.9244L106.24 38.8448Z" fill="#373765"/>
</g>
<g style="mix-blend-mode:color-dodge">
<path d="M103.223 0.780266L109.257 0.780266L109.257 8.3562L106.24 8.3562L106.24 3.79832L103.223 3.79832L103.223 0.780266Z" fill="#373765"/>
</g>
<g style="mix-blend-mode:color-dodge">
<path d="M258.442 63.6556L256.309 61.521L275.383 42.4481L277.517 44.5827L258.442 63.6556Z" fill="#373765"/>
</g>
<g style="mix-blend-mode:color-dodge">
<path d="M375.213 42.3556L377.368 44.5113L358.156 63.7284L142.694 63.7284L103.161 103.271L101.006 101.115L141.401 60.6487L356.924 60.6487L375.213 42.3556Z" fill="#373765"/>
</g>
<g style="mix-blend-mode:color-dodge">
<path d="M160.93 63.6556L158.797 61.521L177.872 42.4481L180.005 44.5827L160.93 63.6556Z" fill="#373765"/>
</g>
<g style="mix-blend-mode:color-dodge">
<path d="M123.682 80.5307L87.6289 44.4689L89.7624 42.3348L125.815 78.3966L123.682 80.5307Z" fill="#373765"/>
</g>
</g>
<g clip-path="url(#clip1_1009_6368)">
<path d="M86.9828 14.6702C79.3623 14.6702 73.3555 22.2935 73.0866 22.6473C72.8774 22.9046 72.8774 23.2906 73.0866 23.5801C73.3555 23.9018 79.3623 31.525 86.9828 31.525C94.6034 31.525 100.61 23.9018 100.879 23.5479C101.088 23.2906 101.088 22.9046 100.879 22.6151C100.61 22.3256 94.5735 14.6702 86.9828 14.6702ZM74.4911 23.0976C75.9256 21.4893 81.0358 16.1177 86.9828 16.1177C92.9298 16.1177 98.0401 21.4893 99.4446 23.0976C98.0401 24.7381 92.9298 30.0776 86.9828 30.0776C81.0358 30.0776 75.9256 24.7381 74.4911 23.0976Z" fill="#373765"/>
<path d="M86.983 15.4744C83.0681 15.4744 79.9004 18.8839 79.9004 23.0976C79.9004 27.3113 83.0681 30.7531 86.983 30.7531C90.8979 30.7531 94.0656 27.3113 94.0656 23.1298C94.0656 18.9483 90.8979 15.4744 86.983 15.4744ZM86.983 29.3056C83.8153 29.3056 81.2153 26.5393 81.2153 23.0976C81.2153 19.6881 83.7854 16.8896 86.983 16.8897C90.1508 16.8897 92.7507 19.6559 92.7507 23.0976C92.7208 26.5072 90.1508 29.3056 86.983 29.3056Z" fill="#373765"/>
<path d="M86.9835 21.6824C86.8042 21.6824 86.6249 21.7145 86.4754 21.7789C86.326 21.8754 86.1467 21.9718 86.0571 22.1005C85.9375 22.2292 85.818 22.39 85.7582 22.583C85.6686 22.7438 85.6387 22.9368 85.6387 23.1298C85.6387 23.5158 85.7582 23.8696 86.0272 24.127C86.1467 24.2556 86.2961 24.3521 86.4456 24.4486C86.9237 24.6416 87.5214 24.5451 87.88 24.127C87.9995 23.9983 88.1191 23.8375 88.1789 23.6766C88.2685 23.5158 88.2984 23.2906 88.2984 23.1298C88.2984 22.7438 88.149 22.39 87.9099 22.1005C87.6708 21.811 87.3122 21.6824 86.9835 21.6824Z" fill="#373765"/>
</g>
<g clip-path="url(#clip2_1009_6368)">
<path d="M181.694 14.6702C174.073 14.6702 168.066 22.2935 167.798 22.6473C167.588 22.9046 167.588 23.2906 167.798 23.5801C168.066 23.9018 174.073 31.525 181.694 31.525C189.314 31.525 195.321 23.9018 195.59 23.5479C195.799 23.2906 195.799 22.9046 195.59 22.6151C195.321 22.3256 189.284 14.6702 181.694 14.6702ZM169.202 23.0976C170.637 21.4893 175.747 16.1177 181.694 16.1177C187.641 16.1177 192.751 21.4893 194.156 23.0976C192.751 24.7381 187.641 30.0776 181.694 30.0776C175.747 30.0776 170.637 24.7381 169.202 23.0976Z" fill="#373765"/>
<path d="M181.694 15.4744C177.779 15.4744 174.611 18.8839 174.611 23.0976C174.611 27.3113 177.779 30.7531 181.694 30.7531C185.609 30.7531 188.777 27.3113 188.777 23.1298C188.777 18.9483 185.609 15.4744 181.694 15.4744ZM181.694 29.3056C178.526 29.3056 175.926 26.5393 175.926 23.0976C175.926 19.6881 178.496 16.8897 181.694 16.8897C184.862 16.8897 187.462 19.6559 187.462 23.0976C187.432 26.5072 184.862 29.3056 181.694 29.3056Z" fill="#373765"/>
<path d="M181.694 21.6824C181.515 21.6824 181.336 21.7145 181.186 21.7789C181.037 21.8754 180.858 21.9718 180.768 22.1005C180.648 22.2292 180.529 22.39 180.469 22.583C180.379 22.7438 180.35 22.9368 180.35 23.1298C180.35 23.5158 180.469 23.8696 180.738 24.127C180.858 24.2556 181.007 24.3521 181.156 24.4486C181.635 24.6416 182.232 24.5451 182.591 24.127C182.71 23.9983 182.83 23.8375 182.89 23.6766C182.979 23.5158 183.009 23.2906 183.009 23.1298C183.009 22.7438 182.86 22.39 182.621 22.1005C182.382 21.811 182.023 21.6824 181.694 21.6824Z" fill="#373765"/>
</g>
<g clip-path="url(#clip3_1009_6368)">
<path d="M279.209 14.6702C271.589 14.6702 265.582 22.2935 265.313 22.6473C265.104 22.9046 265.104 23.2906 265.313 23.5801C265.582 23.9018 271.589 31.525 279.209 31.525C286.83 31.525 292.837 23.9018 293.106 23.5479C293.315 23.2906 293.315 22.9046 293.106 22.6151C292.837 22.3256 286.8 14.6702 279.209 14.6702ZM266.718 23.0976C268.152 21.4893 273.262 16.1177 279.209 16.1177C285.156 16.1177 290.267 21.4893 291.671 23.0976C290.267 24.7381 285.156 30.0776 279.209 30.0776C273.262 30.0776 268.152 24.7381 266.718 23.0976Z" fill="#373765"/>
<path d="M279.21 15.4743C275.295 15.4743 272.127 18.8839 272.127 23.0976C272.127 27.3113 275.295 30.7531 279.21 30.7531C283.124 30.7531 286.292 27.3113 286.292 23.1298C286.292 18.9482 283.124 15.4743 279.21 15.4743ZM279.21 29.3056C276.042 29.3056 273.442 26.5393 273.442 23.0976C273.442 19.6881 276.012 16.8896 279.21 16.8896C282.377 16.8896 284.977 19.6559 284.977 23.0976C284.947 26.5072 282.377 29.3056 279.21 29.3056Z" fill="#373765"/>
<path d="M279.21 21.6824C279.031 21.6824 278.851 21.7145 278.702 21.7789C278.553 21.8754 278.373 21.9718 278.284 22.1005C278.164 22.2292 278.045 22.39 277.985 22.583C277.895 22.7438 277.865 22.9368 277.865 23.1298C277.865 23.5158 277.985 23.8696 278.254 24.127C278.373 24.2556 278.523 24.3521 278.672 24.4486C279.15 24.6416 279.748 24.5451 280.107 24.127C280.226 23.9983 280.346 23.8375 280.405 23.6766C280.495 23.5158 280.525 23.2906 280.525 23.1298C280.525 22.7438 280.376 22.39 280.136 22.1005C279.897 21.811 279.539 21.6824 279.21 21.6824Z" fill="#373765"/>
</g>
<g clip-path="url(#clip4_1009_6368)">
<path d="M377.37 14.6702C369.749 14.6702 363.742 22.2935 363.473 22.6473C363.264 22.9046 363.264 23.2906 363.473 23.5801C363.742 23.9018 369.749 31.525 377.37 31.525C384.99 31.525 390.997 23.9018 391.266 23.5479C391.475 23.2906 391.475 22.9046 391.266 22.6151C390.997 22.3256 384.96 14.6702 377.37 14.6702ZM364.878 23.0976C366.312 21.4893 371.423 16.1177 377.37 16.1177C383.317 16.1177 388.427 21.4893 389.831 23.0976C388.427 24.7381 383.317 30.0776 377.37 30.0776C371.423 30.0776 366.312 24.7381 364.878 23.0976Z" fill="#373765"/>
<path d="M377.37 15.4744C373.455 15.4744 370.287 18.8839 370.287 23.0976C370.287 27.3113 373.455 30.7531 377.37 30.7531C381.285 30.7531 384.452 27.3113 384.452 23.1298C384.452 18.9483 381.285 15.4744 377.37 15.4744ZM377.37 29.3056C374.202 29.3056 371.602 26.5393 371.602 23.0976C371.602 19.6881 374.172 16.8896 377.37 16.8897C380.537 16.8897 383.137 19.6559 383.137 23.0976C383.108 26.5072 380.537 29.3056 377.37 29.3056Z" fill="#373765"/>
<path d="M377.37 21.6824C377.191 21.6824 377.012 21.7145 376.862 21.7789C376.713 21.8754 376.533 21.9719 376.444 22.1005C376.324 22.2292 376.205 22.39 376.145 22.583C376.055 22.7438 376.025 22.9368 376.025 23.1298C376.025 23.5158 376.145 23.8696 376.414 24.127C376.533 24.2556 376.683 24.3521 376.832 24.4486C377.31 24.6416 377.908 24.5451 378.267 24.127C378.386 23.9983 378.506 23.8375 378.566 23.6766C378.655 23.5158 378.685 23.2906 378.685 23.1298C378.685 22.7438 378.536 22.39 378.297 22.1005C378.058 21.811 377.699 21.6824 377.37 21.6824Z" fill="#373765"/>
</g>
</g>
<g clip-path="url(#clip5_1009_6368)">
<g style="mix-blend-mode:color-dodge">
<g style="mix-blend-mode:color-dodge">
<path d="M334.609 328.552L290.396 328.552L290.396 373.022L334.609 373.022L334.609 328.552ZM293.475 331.57L331.53 331.57L331.53 369.696L293.475 369.696L293.475 331.57Z" fill="#373765"/>
</g>
<g style="mix-blend-mode:color-dodge">
<path d="M334.609 336.19L331.592 336.19L331.592 331.57L328.513 331.57L328.513 328.552L334.609 328.552L334.609 336.19Z" fill="#373765"/>
</g>
<g style="mix-blend-mode:color-dodge">
<path d="M334.609 372.714L326.974 372.714L326.974 369.696L331.592 369.696L331.592 366.616L334.609 366.616L334.609 372.714Z" fill="#373765"/>
</g>
<g style="mix-blend-mode:color-dodge">
<path d="M45.1309 328.552L0.917664 328.552L0.91766 373.022L45.1309 373.022L45.1309 328.552ZM3.99657 331.57L42.052 331.57L42.052 369.696L4.0582 369.696L3.99657 331.57Z" fill="#373765"/>
</g>
<g style="mix-blend-mode:color-dodge">
<path d="M3.99793 334.65L0.919036 334.65L0.919037 328.552L8.55469 328.552L8.55469 331.57L3.99793 331.57L3.99793 334.65Z" fill="#373765"/>
</g>
<g style="mix-blend-mode:color-dodge">
<path d="M7.01367 372.714L0.917449 372.714L0.91745 365.138L3.99636 365.138L3.99636 369.696L7.01367 369.696L7.01367 372.714Z" fill="#373765"/>
</g>
<g style="mix-blend-mode:color-dodge">
<path d="M45.1309 336.19L42.052 336.19L42.052 331.57L39.0346 331.57L39.0346 328.552L45.1309 328.552L45.1309 336.19Z" fill="#373765"/>
</g>
<g style="mix-blend-mode:color-dodge">
<path d="M45.1309 372.714L37.4952 372.714L37.4952 369.696L42.052 369.696L42.052 366.616L45.1309 366.616L45.1309 372.714Z" fill="#373765"/>
</g>
<g style="mix-blend-mode:color-dodge">
<path d="M142.582 328.552L98.4305 328.552L98.4305 373.022L142.582 373.022L142.582 328.552ZM101.448 331.57L139.565 331.57L139.565 369.696L101.448 369.696L101.448 331.57Z" fill="#373765"/>
</g>
<g style="mix-blend-mode:color-dodge">
<path d="M240.096 328.552L195.944 328.552L195.944 373.022L240.096 373.022L240.096 328.552ZM198.961 331.57L237.078 331.57L237.078 369.696L198.961 369.696L198.961 331.57Z" fill="#373765"/>
</g>
<g style="mix-blend-mode:color-dodge">
<path d="M293.474 334.65L290.457 334.65L290.457 328.552L298.031 328.552L298.031 331.57L293.474 331.57L293.474 334.65Z" fill="#373765"/>
</g>
<g style="mix-blend-mode:color-dodge">
<path d="M296.492 372.714L290.458 372.714L290.458 365.138L293.475 365.138L293.475 369.696L296.492 369.696L296.492 372.714Z" fill="#373765"/>
</g>
<g style="mix-blend-mode:color-dodge">
<path d="M141.273 309.839L143.406 311.973L124.331 331.046L122.198 328.912L141.273 309.839Z" fill="#373765"/>
</g>
<g style="mix-blend-mode:color-dodge">
<path d="M24.5021 331.139L22.3469 328.983L41.5592 309.766L257.021 309.766L296.554 270.223L298.709 272.379L258.314 312.846L42.7908 312.846L24.5021 331.139Z" fill="#373765"/>
</g>
<g style="mix-blend-mode:color-dodge">
<path d="M238.785 309.839L240.918 311.973L221.843 331.046L219.71 328.912L238.785 309.839Z" fill="#373765"/>
</g>
<g style="mix-blend-mode:color-dodge">
<path d="M276.033 292.964L312.086 329.025L309.952 331.159L273.899 295.098L276.033 292.964Z" fill="#373765"/>
</g>
</g>
<path d="M312.915 340.838L308.063 339.515V338.457L304.827 338.457L300.514 340.838L298.088 344.276L298.088 349.037L299.705 351.418L303.21 355.385L308.063 356.972L312.915 355.385L316.689 350.095L316.15 345.07L312.915 340.838Z" fill="#FFA54B"/>
<path d="M301.197 343.581L301.198 343.581C302.777 341.25 305.283 339.913 307.893 339.742L307.893 339.742C309.783 339.616 311.715 340.084 313.396 341.225C313.553 341.334 313.701 341.436 313.837 341.537C314.763 342.245 315.517 343.112 316.076 344.081L316.078 344.085L316.078 344.085C316.159 344.223 316.235 344.361 316.306 344.5C316.238 344.496 316.171 344.492 316.103 344.49C315.928 344.155 315.73 343.835 315.51 343.525C314.931 342.703 314.184 341.958 313.296 341.367C311.819 340.38 310.147 339.905 308.489 339.905C307.101 339.905 305.739 340.238 304.508 340.866L304.504 340.868L304.504 340.868C303.271 341.509 302.178 342.446 301.342 343.678L301.197 343.581ZM301.197 343.581C300.18 345.076 299.7 346.787 299.711 348.477V348.48C299.711 349.396 299.849 350.31 300.134 351.187L300.135 351.191C300.707 352.993 301.872 354.614 303.567 355.757L303.567 355.757L303.572 355.761C303.715 355.86 303.86 355.949 304.017 356.046C305.191 356.739 306.492 357.127 307.796 357.231C307.961 357.239 308.125 357.248 308.283 357.251M301.197 343.581L308.283 357.251M308.283 357.251C308.251 357.194 308.218 357.135 308.185 357.074C307.808 357.061 307.436 357.025 307.065 356.965L307.063 356.964C305.906 356.772 304.799 356.348 303.795 355.693L303.795 355.693L303.792 355.69L303.61 355.57L303.61 355.57L303.605 355.566C299.721 352.909 298.692 347.583 301.342 343.678L308.283 357.251ZM309.572 357.192C309.551 357.134 309.532 357.076 309.513 357.018C309.443 357.026 309.373 357.034 309.304 357.041L308.855 357.25C308.904 357.248 308.953 357.246 309.002 357.243L309.018 357.242H309.033C309.034 357.242 309.034 357.242 309.036 357.242C309.039 357.241 309.045 357.241 309.058 357.239C309.062 357.239 309.069 357.238 309.077 357.237C309.086 357.236 309.097 357.235 309.108 357.234C309.125 357.232 309.146 357.231 309.17 357.23C309.304 357.221 309.438 357.208 309.572 357.192ZM316.844 345.805C316.823 345.742 316.802 345.679 316.78 345.616C316.717 345.623 316.653 345.631 316.589 345.64C316.611 345.702 316.631 345.764 316.652 345.826C316.716 345.818 316.78 345.811 316.844 345.805Z" fill="#060637" stroke="#373765" stroke-width="1.01006"/>
<path d="M304.035 355.987L304.037 355.985C304.053 355.96 304.058 355.931 304.053 355.902C304.047 355.874 304.033 355.855 304.019 355.845C304.018 355.845 304.018 355.845 304.018 355.845L301.793 354.348L301.793 354.348C297.858 351.691 296.829 346.351 299.478 342.423L299.478 342.422C300.764 340.523 302.72 339.239 304.969 338.803C307.217 338.367 309.52 338.828 311.423 340.112C311.423 340.112 311.423 340.112 311.423 340.112L313.645 341.607C313.669 341.622 313.698 341.627 313.727 341.622C313.754 341.617 313.772 341.604 313.783 341.591C313.796 341.567 313.801 341.54 313.796 341.513C313.79 341.485 313.776 341.466 313.762 341.456L311.536 339.959L311.536 339.959C309.589 338.644 307.244 338.165 304.943 338.61C302.64 339.056 300.639 340.37 299.322 342.312C296.61 346.322 297.664 351.794 301.691 354.501L301.693 354.502L303.904 355.998C303.905 355.998 303.905 355.998 303.905 355.998C303.92 356.008 303.934 356.014 303.946 356.018C303.957 356.021 303.963 356.022 303.963 356.022C303.977 356.022 303.993 356.018 304.008 356.01C304.023 356.003 304.031 355.994 304.035 355.987Z" fill="#060637" stroke="#373765" stroke-width="1.01006"/>
<path d="M322.801 347.458L318.018 346.172V345.143H314.829L310.577 347.458L308.185 350.801L308.185 355.43L309.78 357.744L313.235 361.601L318.018 363.144L322.801 361.601L326.521 356.458L325.99 351.572L322.801 347.458Z" fill="#FFA54B"/>
<path d="M311.036 349.987L311.037 349.985C312.251 348.188 314.053 347.006 316.01 346.53C316.023 346.566 316.036 346.602 316.049 346.638C315.41 346.795 314.794 347.025 314.202 347.321L314.195 347.324L314.195 347.324C313.005 347.943 311.95 348.847 311.144 350.035L311.144 350.035C310.181 351.457 309.721 353.077 309.725 354.678C309.724 355.228 309.778 355.776 309.885 356.312C309.84 356.317 309.796 356.321 309.751 356.324C309.643 355.782 309.587 355.236 309.587 354.692C309.596 353.268 309.952 351.832 310.694 350.534L311.036 349.987ZM311.036 349.987C310.914 350.166 310.8 350.349 310.694 350.534L311.036 349.987ZM310.161 357.298C310.111 357.304 310.062 357.31 310.012 357.315C310.067 357.488 310.119 357.642 310.179 357.793L310.179 357.793L310.181 357.797C310.773 359.318 311.826 360.677 313.277 361.666L313.34 361.708C313.378 361.732 313.414 361.755 313.45 361.778C313.545 361.839 313.634 361.897 313.727 361.951L313.729 361.952C315.071 362.743 316.543 363.126 318.015 363.126C320.732 363.126 323.402 361.819 325.027 359.419C327.532 355.7 326.686 350.699 323.173 348.012C323.031 347.907 322.904 347.811 322.778 347.728L322.767 347.72L322.755 347.712L322.719 347.685C321.157 346.638 319.349 346.188 317.589 346.285C317.523 346.3 317.469 346.301 317.445 346.301C317.304 346.311 317.161 346.325 317.017 346.344C317.029 346.38 317.041 346.417 317.053 346.453C317.318 346.421 317.582 346.404 317.849 346.396L317.856 346.395H317.863H317.864H317.864H317.864H317.865H317.865H317.865H317.866H317.866H317.867H317.867H317.867H317.868H317.868H317.868H317.869H317.869H317.869H317.87H317.87H317.87H317.871H317.871H317.871H317.872H317.872H317.872H317.873H317.873H317.873H317.874H317.874H317.874H317.875H317.875H317.875H317.876H317.876H317.876H317.877H317.877H317.877H317.878H317.878H317.878H317.879H317.879H317.879H317.88H317.88H317.88H317.881H317.881H317.882H317.882H317.882H317.883H317.883H317.883H317.884H317.884H317.884H317.885H317.885H317.885H317.886H317.886H317.886H317.887H317.887H317.887H317.888H317.888H317.888H317.889H317.889H317.889H317.89H317.89H317.89H317.891H317.891H317.891H317.892H317.892H317.892H317.893H317.893H317.893H317.894H317.894H317.894H317.895H317.895H317.896H317.896H317.896H317.897H317.897H317.897H317.898H317.898H317.898H317.899H317.899H317.899H317.9H317.9H317.9H317.901H317.901H317.901H317.902H317.902H317.902H317.903H317.903H317.903H317.904H317.904H317.904H317.905H317.905H317.905H317.906H317.906H317.906H317.907H317.907H317.907H317.908H317.908H317.908H317.909H317.909H317.909H317.91H317.91H317.911H317.911H317.911H317.912H317.912H317.912H317.913H317.913H317.913H317.914H317.914H317.914H317.915H317.915H317.915H317.916H317.916H317.916H317.917H317.917H317.917H317.918H317.918H317.918H317.919H317.919H317.919H317.92H317.92H317.92H317.921H317.921H317.921H317.922H317.922H317.922H317.923L317.923 346.395H317.923H317.924H317.924H317.925H317.925H317.925H317.926H317.926H317.926H317.927H317.927H317.927H317.928H317.928H317.928H317.929H317.929H317.929H317.93H317.93H317.93H317.931H317.931H317.931H317.932H317.932H317.932H317.933H317.933H317.933H317.934H317.934H317.934H317.935H317.935H317.935H317.936H317.936H317.936H317.937H317.937H317.937H317.938H317.938H317.939H317.939H317.939H317.94H317.94H317.94H317.941H317.941H317.941H317.942H317.942H317.942H317.943H317.943H317.943H317.944H317.944H317.944H317.945H317.945H317.945H317.946H317.946H317.946H317.947H317.947H317.947H317.948H317.948H317.948H317.949H317.949H317.949H317.95H317.95H317.95H317.951H317.951H317.951H317.952H317.952H317.952H317.953H317.953H317.954H317.954H317.954H317.955H317.955H317.955H317.956H317.956H317.956H317.957H317.957H317.957H317.958H317.958H317.958H317.959H317.959H317.959H317.96H317.96H317.96H317.961H317.961H317.961H317.962H317.962H317.962H317.963H317.963H317.963H317.964H317.964H317.964H317.965H317.965H317.965H317.966H317.966H317.966H317.967H317.967H317.968H317.968H317.968H317.969H317.969H317.969H317.97H317.97H317.97H317.971H317.971H317.971H317.972H317.972H317.972H317.973H317.973H317.973H317.974H317.974H317.974H317.975H317.975H317.975H317.976H317.976H317.976H317.977H317.977H317.977H317.978H317.978H317.978H317.979H317.979H317.979H317.98H317.98H317.98H317.981H317.981H317.981H317.982H317.982H317.983H317.983H317.983H317.984H317.984H317.984H317.985H317.985H317.985H317.986H317.986H317.986H317.987H317.987H317.987H317.988H317.988H317.988H317.989H317.989H317.989H317.99H317.99H317.99H317.991H317.991H317.991H317.992H317.992H317.992H317.993H317.993H317.993H317.994H317.994H317.994H317.995H317.995H317.995H317.996H317.996H317.997H317.997H317.997H317.998H317.998H317.998H317.999H317.999H317.999H318H318H318H318.001H318.001H318.001H318.002H318.002H318.002H318.003H318.003H318.003H318.004H318.004H318.004H318.005H318.005H318.005H318.006H318.006H318.006H318.007H318.007H318.007H318.008H318.008H318.008H318.009H318.009H318.009H318.01H318.01H318.01H318.011H318.011H318.012H318.012H318.012H318.013H318.013H318.013H318.014H318.014H318.014H318.015H318.015H318.015H318.016H318.016H318.016H318.017H318.017H318.017H318.018H318.018H318.018H318.019H318.019H318.019H318.02H318.02H318.02H318.021H318.021H318.021H318.022H318.022H318.022H318.023H318.023H318.023H318.024H318.024H318.024H318.025H318.025H318.026H318.026H318.026H318.027H318.027H318.027H318.028H318.028H318.028H318.029H318.029H318.029H318.03H318.03H318.03H318.031H318.031H318.031H318.032H318.032H318.032H318.033H318.033H318.033H318.034H318.034H318.034H318.035H318.035H318.035H318.036H318.036H318.036H318.037H318.037H318.037H318.038H318.038C319.639 346.395 321.264 346.866 322.677 347.819L322.677 347.819C326.472 350.382 327.464 355.532 324.909 359.321L324.909 359.322C323.669 361.154 321.783 362.392 319.615 362.813C317.495 363.233 315.338 362.813 313.529 361.64L313.383 361.55L313.374 361.544L313.365 361.538C312.023 360.633 311.043 359.394 310.437 358.022L310.435 358.019C310.334 357.786 310.244 357.546 310.161 357.298Z" fill="#060637" stroke="#373765" stroke-width="1.01006"/>
<path d="M308.376 356.552L308.376 356.553C308.531 356.95 308.717 357.341 308.932 357.695L308.932 357.695L308.937 357.704C309.552 358.767 310.42 359.722 311.508 360.457L311.51 360.458L313.278 361.666L313.345 361.711L313.345 361.711L313.349 361.713L313.636 361.908L313.638 361.909L313.638 361.909C313.657 361.915 313.671 361.917 313.683 361.917C313.693 361.917 313.706 361.914 313.717 361.908C313.728 361.902 313.734 361.896 313.736 361.892L313.738 361.89C313.75 361.871 313.755 361.847 313.75 361.824C313.746 361.802 313.735 361.789 313.726 361.782C313.725 361.782 313.725 361.781 313.725 361.781L313.527 361.65L313.384 361.562L313.375 361.556L313.366 361.55L311.584 360.353L311.582 360.351C310.73 359.772 310.009 359.066 309.448 358.257L309.448 358.257L309.443 358.249L309.439 358.244C309.325 358.073 309.203 357.891 309.092 357.706L309.092 357.706L309.09 357.702C308.966 357.492 308.855 357.283 308.747 357.067L308.747 357.067L308.743 357.059C307.516 354.498 307.639 351.365 309.351 348.838C310.591 347.006 312.478 345.767 314.647 345.347L314.648 345.346C315.168 345.247 315.688 345.198 316.199 345.198C316.628 345.198 317.054 345.234 317.473 345.293C317.476 345.293 317.478 345.294 317.48 345.294C317.496 345.295 317.509 345.297 317.519 345.299C317.527 345.3 317.534 345.301 317.541 345.302H317.546L317.588 345.31C318.751 345.507 319.855 345.94 320.859 346.621L322.673 347.827L323.008 348.047C323.008 348.047 323.008 348.047 323.008 348.047C323.028 348.059 323.052 348.064 323.075 348.059C323.099 348.055 323.113 348.043 323.119 348.034L323.12 348.033C323.128 348.022 323.133 348.005 323.131 347.986C323.131 347.973 323.127 347.965 323.125 347.96C323.122 347.958 323.119 347.955 323.114 347.951C323.113 347.951 323.113 347.95 323.112 347.949C323.101 347.94 323.085 347.927 323.065 347.909L322.78 347.709L322.774 347.705L322.768 347.7L322.731 347.673L320.96 346.482L320.96 346.482L320.959 346.481C319.727 345.647 318.321 345.165 316.882 345.055L316.882 345.055C316.454 345.022 316.025 345.022 315.584 345.055L315.584 345.055L315.581 345.056C315.267 345.077 314.951 345.121 314.621 345.186C312.408 345.637 310.497 346.899 309.232 348.765L309.232 348.765C307.618 351.143 307.397 354.06 308.376 356.552Z" fill="#060637" stroke="#373765" stroke-width="1.01006"/>
<path d="M218.79 340.838L213.938 339.515L213.938 338.457L210.702 338.457L206.389 340.838L203.963 344.276L203.963 349.037L205.58 351.418L209.085 355.385L213.938 356.972L218.79 355.385L222.564 350.095L222.025 345.07L218.79 340.838Z" fill="#FFA54B"/>
<path d="M207.072 343.581L207.073 343.581C208.652 341.25 211.158 339.913 213.768 339.742L213.768 339.742C215.658 339.616 217.59 340.084 219.271 341.225C219.428 341.334 219.576 341.436 219.712 341.537C220.638 342.245 221.392 343.112 221.951 344.081L221.953 344.085L221.953 344.085C222.034 344.223 222.11 344.361 222.181 344.5C222.113 344.496 222.046 344.492 221.978 344.49C221.803 344.155 221.605 343.835 221.385 343.525C220.806 342.703 220.059 341.958 219.171 341.367C217.694 340.38 216.022 339.905 214.364 339.905C212.976 339.905 211.614 340.238 210.383 340.866L210.379 340.868L210.379 340.868C209.146 341.509 208.053 342.446 207.217 343.678L207.072 343.581ZM207.072 343.581C206.055 345.076 205.575 346.787 205.586 348.477L205.586 348.48C205.586 349.396 205.724 350.31 206.009 351.187L206.01 351.191C206.582 352.993 207.747 354.614 209.442 355.757L209.442 355.757L209.447 355.761C209.59 355.86 209.735 355.949 209.892 356.046C211.066 356.739 212.367 357.127 213.671 357.231C213.836 357.239 214 357.248 214.158 357.251M207.072 343.581L214.158 357.251M214.158 357.251C214.126 357.194 214.093 357.135 214.06 357.074C213.683 357.061 213.311 357.025 212.94 356.965L212.938 356.964C211.781 356.772 210.674 356.348 209.67 355.693L209.67 355.693L209.667 355.691L209.485 355.57L209.485 355.57L209.48 355.566C205.596 352.909 204.567 347.583 207.217 343.678L214.158 357.251ZM215.447 357.192C215.426 357.134 215.407 357.076 215.388 357.018C215.318 357.026 215.248 357.034 215.179 357.041L214.73 357.25C214.779 357.248 214.828 357.246 214.877 357.243L214.893 357.242H214.908C214.909 357.242 214.915 357.241 214.933 357.239L214.937 357.239C214.947 357.237 214.965 357.235 214.983 357.234C215 357.232 215.021 357.231 215.045 357.23C215.179 357.221 215.313 357.208 215.447 357.192ZM222.719 345.805C222.698 345.742 222.677 345.679 222.655 345.616C222.592 345.623 222.528 345.631 222.464 345.64C222.486 345.702 222.506 345.764 222.527 345.826C222.591 345.818 222.655 345.811 222.719 345.805Z" fill="#060637" stroke="#373765" stroke-width="1.01006"/>
<path d="M209.91 355.987L209.912 355.985C209.928 355.96 209.933 355.931 209.928 355.902C209.922 355.874 209.908 355.855 209.894 355.845C209.893 355.845 209.893 355.845 209.893 355.845L207.668 354.348L207.668 354.348C203.733 351.691 202.704 346.351 205.353 342.423L205.353 342.422C206.639 340.523 208.595 339.239 210.844 338.803C213.092 338.367 215.395 338.828 217.298 340.112C217.298 340.112 217.298 340.112 217.298 340.112L219.52 341.607C219.544 341.622 219.573 341.627 219.602 341.622C219.629 341.617 219.647 341.604 219.658 341.591C219.671 341.567 219.676 341.54 219.671 341.513C219.665 341.485 219.651 341.466 219.637 341.456L217.411 339.959L217.411 339.959C215.464 338.644 213.119 338.165 210.818 338.61C208.516 339.056 206.514 340.37 205.198 342.312C202.485 346.322 203.539 351.794 207.566 354.501L207.568 354.502L209.779 355.998C209.78 355.998 209.78 355.998 209.78 355.998C209.795 356.008 209.809 356.014 209.821 356.018C209.833 356.022 209.839 356.022 209.838 356.022C209.852 356.022 209.868 356.018 209.883 356.01C209.898 356.003 209.906 355.994 209.91 355.987Z" fill="#060637" stroke="#373765" stroke-width="1.01006"/>
<path d="M228.676 347.458L223.893 346.172L223.893 345.143L220.704 345.143L216.452 347.458L214.06 350.801L214.06 355.43L215.655 357.744L219.11 361.601L223.893 363.144L228.676 361.601L232.396 356.458L231.865 351.572L228.676 347.458Z" fill="#FFA54B"/>
<path d="M216.911 349.987L216.912 349.985C218.126 348.188 219.928 347.006 221.885 346.53C221.898 346.566 221.911 346.602 221.924 346.638C221.285 346.795 220.669 347.025 220.077 347.321L220.07 347.324L220.07 347.324C218.88 347.943 217.825 348.847 217.019 350.035L217.019 350.035C216.056 351.457 215.596 353.077 215.6 354.678C215.599 355.228 215.653 355.776 215.76 356.312C215.715 356.317 215.671 356.321 215.626 356.324C215.518 355.782 215.462 355.236 215.462 354.692C215.471 353.268 215.827 351.832 216.569 350.534L216.911 349.987ZM216.911 349.987C216.789 350.166 216.675 350.349 216.569 350.534L216.911 349.987ZM216.036 357.298C215.986 357.304 215.937 357.31 215.887 357.315C215.942 357.488 215.994 357.642 216.054 357.793L216.054 357.793L216.056 357.797C216.648 359.318 217.701 360.677 219.152 361.666L219.215 361.708C219.253 361.732 219.289 361.755 219.325 361.778C219.42 361.839 219.509 361.897 219.602 361.951L219.604 361.952C220.946 362.743 222.418 363.126 223.89 363.126C226.607 363.126 229.277 361.819 230.902 359.419C233.407 355.7 232.561 350.699 229.048 348.012C228.906 347.907 228.779 347.811 228.653 347.728L228.642 347.72L228.63 347.712L228.594 347.685C227.032 346.638 225.224 346.188 223.464 346.285C223.398 346.3 223.344 346.301 223.32 346.301C223.179 346.311 223.036 346.325 222.892 346.344C222.904 346.38 222.916 346.417 222.928 346.453C223.193 346.421 223.457 346.404 223.724 346.396L223.731 346.395H223.738H223.739H223.739H223.739H223.74H223.74H223.74H223.741H223.741H223.742H223.742H223.742H223.743H223.743H223.743H223.744H223.744H223.744H223.745H223.745H223.745H223.746H223.746H223.746H223.747H223.747H223.747H223.748H223.748H223.748H223.749H223.749H223.749H223.75H223.75H223.75H223.751H223.751H223.751H223.752H223.752H223.752H223.753H223.753H223.753H223.754H223.754H223.754H223.755H223.755H223.755H223.756H223.756H223.757H223.757H223.757H223.758H223.758H223.758H223.759H223.759H223.759H223.76H223.76H223.76H223.761H223.761H223.761H223.762H223.762H223.762H223.763H223.763H223.763H223.764H223.764H223.764H223.765H223.765H223.765H223.766H223.766H223.766H223.767H223.767H223.767H223.768H223.768H223.768H223.769H223.769H223.769H223.77H223.77H223.771H223.771H223.771H223.772H223.772H223.772H223.773H223.773H223.773H223.774H223.774H223.774H223.775H223.775H223.775H223.776H223.776H223.776H223.777H223.777H223.777H223.778H223.778H223.778H223.779H223.779H223.779H223.78H223.78H223.78H223.781H223.781H223.781H223.782H223.782H223.782H223.783H223.783H223.783H223.784H223.784H223.784H223.785H223.785H223.786H223.786H223.786H223.787H223.787H223.787H223.788H223.788H223.788H223.789H223.789H223.789H223.79H223.79H223.79H223.791H223.791H223.791H223.792H223.792H223.792H223.793H223.793H223.793H223.794H223.794H223.794H223.795H223.795H223.795H223.796H223.796H223.796H223.797H223.797H223.797H223.798H223.798H223.798H223.799H223.799H223.8H223.8H223.8H223.801H223.801H223.801H223.802H223.802H223.802H223.803H223.803H223.803H223.804H223.804H223.804H223.805H223.805H223.805H223.806H223.806H223.806H223.807H223.807H223.807H223.808H223.808H223.808H223.809H223.809H223.809H223.81H223.81H223.81H223.811H223.811H223.811H223.812H223.812H223.812H223.813H223.813H223.814H223.814H223.814H223.815H223.815H223.815H223.816H223.816H223.816H223.817H223.817H223.817H223.818H223.818H223.818H223.819H223.819H223.819H223.82H223.82H223.82H223.821H223.821H223.821H223.822H223.822H223.822H223.823H223.823H223.823H223.824H223.824H223.824H223.825H223.825H223.825H223.826H223.826H223.826H223.827H223.827H223.827H223.828H223.828H223.829H223.829H223.829H223.83H223.83H223.83H223.831H223.831H223.831H223.832H223.832H223.832H223.833H223.833H223.833H223.834H223.834H223.834H223.835H223.835H223.835H223.836H223.836H223.836H223.837H223.837H223.837H223.838H223.838H223.838H223.839H223.839H223.839H223.84H223.84H223.84H223.841H223.841H223.841H223.842H223.842H223.843H223.843H223.843H223.844H223.844H223.844H223.845H223.845H223.845H223.846H223.846H223.846H223.847H223.847H223.847H223.848H223.848H223.848H223.849H223.849H223.849H223.85H223.85H223.85H223.851H223.851H223.851H223.852H223.852H223.852H223.853H223.853H223.853H223.854H223.854H223.854H223.855H223.855H223.855H223.856H223.856H223.856H223.857H223.857H223.858H223.858H223.858H223.859H223.859H223.859H223.86H223.86H223.86H223.861H223.861H223.861H223.862H223.862H223.862H223.863H223.863H223.863H223.864H223.864H223.864H223.865H223.865H223.865H223.866H223.866H223.866H223.867H223.867H223.867H223.868H223.868H223.868H223.869H223.869H223.869H223.87H223.87H223.87H223.871H223.871H223.872H223.872H223.872H223.873H223.873H223.873H223.874H223.874H223.874H223.875H223.875H223.875H223.876H223.876H223.876H223.877H223.877H223.877H223.878H223.878H223.878H223.879H223.879H223.879H223.88H223.88H223.88H223.881H223.881H223.881H223.882H223.882H223.882H223.883H223.883H223.883H223.884H223.884H223.884H223.885H223.885H223.886H223.886H223.886H223.887H223.887H223.887H223.888H223.888H223.888H223.889H223.889H223.889H223.89H223.89H223.89H223.891H223.891H223.891H223.892H223.892H223.892H223.893H223.893H223.893H223.894H223.894H223.894H223.895H223.895H223.895H223.896H223.896H223.896H223.897H223.897H223.897H223.898H223.898H223.898H223.899H223.899H223.899H223.9H223.9H223.901H223.901H223.901H223.902H223.902H223.902H223.903H223.903H223.903H223.904H223.904H223.904H223.905H223.905H223.905H223.906H223.906H223.906H223.907H223.907H223.907H223.908H223.908H223.908H223.909H223.909H223.909H223.91H223.91H223.91H223.911H223.911H223.911H223.912H223.912H223.912H223.913H223.913C225.514 346.395 227.139 346.866 228.552 347.819L228.552 347.819C232.347 350.382 233.339 355.532 230.784 359.321L230.784 359.322C229.544 361.154 227.658 362.392 225.49 362.813C223.37 363.233 221.213 362.813 219.404 361.64L219.258 361.55L219.249 361.544L219.24 361.538C217.898 360.633 216.918 359.394 216.312 358.022L216.31 358.019C216.209 357.786 216.119 357.546 216.036 357.298Z" fill="#060637" stroke="#373765" stroke-width="1.01006"/>
<path d="M214.251 356.552L214.251 356.553C214.406 356.95 214.592 357.341 214.807 357.695L214.807 357.695L214.812 357.704C215.427 358.767 216.295 359.722 217.383 360.457L217.385 360.458L219.153 361.666L219.22 361.711L219.22 361.711L219.224 361.713L219.512 361.908L219.513 361.909L219.513 361.909C219.532 361.915 219.546 361.917 219.558 361.917C219.568 361.917 219.581 361.914 219.592 361.908C219.603 361.902 219.609 361.896 219.611 361.892L219.613 361.89C219.625 361.87 219.63 361.847 219.625 361.824C219.621 361.802 219.61 361.789 219.601 361.782C219.6 361.782 219.6 361.781 219.6 361.781L219.402 361.65L219.259 361.561L219.25 361.556L219.241 361.55L217.459 360.353L217.459 360.353L217.457 360.351C216.605 359.772 215.884 359.066 215.323 358.257L215.323 358.257L215.318 358.249L215.314 358.245C215.2 358.073 215.078 357.891 214.967 357.706L214.967 357.706L214.965 357.702C214.841 357.492 214.73 357.283 214.622 357.067L214.622 357.067L214.618 357.059C213.391 354.498 213.514 351.365 215.226 348.838C216.467 347.006 218.353 345.767 220.522 345.347L220.523 345.346C221.043 345.247 221.563 345.198 222.074 345.198C222.503 345.198 222.929 345.234 223.348 345.293C223.351 345.293 223.353 345.294 223.355 345.294C223.371 345.295 223.384 345.297 223.394 345.299C223.402 345.3 223.409 345.301 223.416 345.302H223.421L223.463 345.31C224.626 345.507 225.73 345.94 226.734 346.621L228.548 347.827L228.883 348.047C228.883 348.047 228.883 348.047 228.883 348.047C228.903 348.059 228.927 348.064 228.95 348.059C228.974 348.055 228.988 348.043 228.994 348.034L228.995 348.033C229.003 348.022 229.008 348.005 229.006 347.986C229.006 347.973 229.002 347.965 229 347.96C228.997 347.958 228.994 347.955 228.989 347.951C228.988 347.951 228.988 347.95 228.987 347.949C228.976 347.94 228.96 347.927 228.94 347.909L228.655 347.709L228.649 347.705L228.643 347.7L228.606 347.673L226.835 346.482L226.835 346.482L226.834 346.481C225.602 345.647 224.196 345.165 222.757 345.055L222.757 345.055C222.329 345.022 221.9 345.022 221.459 345.055L221.459 345.055L221.456 345.056C221.142 345.077 220.826 345.121 220.496 345.186C218.283 345.637 216.372 346.899 215.107 348.765L215.107 348.765C213.493 351.143 213.272 354.06 214.251 356.552Z" fill="#060637" stroke="#373765" stroke-width="1.01006"/>
<path d="M121.277 340.838L116.424 339.515L116.424 338.457L113.189 338.457L108.875 340.838L106.449 344.276L106.449 349.037L108.067 351.418L111.571 355.385L116.424 356.972L121.277 355.385L125.051 350.095L124.512 345.07L121.277 340.838Z" fill="#FFA54B"/>
<path d="M109.558 343.581L109.559 343.581C111.138 341.25 113.644 339.913 116.254 339.742L116.255 339.742C118.144 339.616 120.076 340.084 121.757 341.225C121.915 341.334 122.063 341.436 122.198 341.537C123.124 342.245 123.878 343.112 124.437 344.081L124.44 344.085L124.44 344.085C124.521 344.223 124.596 344.361 124.667 344.5C124.6 344.496 124.532 344.492 124.465 344.49C124.289 344.155 124.091 343.835 123.871 343.525C123.292 342.703 122.546 341.958 121.657 341.367C120.18 340.38 118.509 339.905 116.85 339.905C115.462 339.905 114.101 340.238 112.869 340.866L112.865 340.868L112.865 340.868C111.632 341.509 110.539 342.446 109.703 343.678L109.558 343.581ZM109.558 343.581C108.541 345.076 108.061 346.787 108.072 348.477V348.48C108.072 349.396 108.21 350.31 108.495 351.187L108.497 351.191C109.068 352.993 110.234 354.614 111.928 355.757L111.929 355.757L111.933 355.761C112.076 355.86 112.221 355.949 112.379 356.046C113.553 356.739 114.854 357.127 116.157 357.231C116.322 357.239 116.486 357.248 116.645 357.251M109.558 343.581L116.645 357.251M116.645 357.251C116.612 357.194 116.579 357.135 116.546 357.074C116.169 357.061 115.798 357.025 115.426 356.965L115.424 356.964C114.267 356.772 113.16 356.348 112.157 355.693L112.157 355.693L112.153 355.691L111.971 355.57L111.971 355.57L111.966 355.566C108.083 352.909 107.053 347.583 109.703 343.678L116.645 357.251ZM117.933 357.192C117.913 357.134 117.893 357.076 117.874 357.018C117.804 357.026 117.735 357.034 117.665 357.041L117.217 357.25C117.265 357.248 117.314 357.246 117.364 357.243L117.379 357.242H117.395C117.396 357.242 117.401 357.241 117.419 357.239L117.423 357.239C117.434 357.237 117.452 357.235 117.47 357.234C117.486 357.232 117.507 357.231 117.531 357.23C117.666 357.221 117.8 357.208 117.933 357.192ZM125.206 345.805C125.185 345.742 125.163 345.679 125.141 345.616C125.078 345.623 125.014 345.631 124.95 345.64C124.972 345.702 124.993 345.764 125.013 345.826C125.077 345.818 125.141 345.811 125.206 345.805Z" fill="#060637" stroke="#373765" stroke-width="1.01006"/>
<path d="M112.396 355.988L112.398 355.985C112.414 355.96 112.42 355.931 112.414 355.902C112.409 355.874 112.395 355.855 112.38 355.845C112.38 355.845 112.38 355.845 112.379 355.845L110.155 354.348L110.154 354.348C106.219 351.691 105.19 346.351 107.839 342.423L107.84 342.422C109.126 340.523 111.081 339.239 113.33 338.803C115.578 338.367 117.881 338.828 119.784 340.112C119.784 340.112 119.784 340.112 119.784 340.112L122.006 341.607C122.031 341.622 122.06 341.627 122.089 341.622C122.116 341.617 122.134 341.604 122.144 341.591C122.158 341.567 122.162 341.54 122.157 341.513C122.152 341.485 122.138 341.466 122.123 341.456L119.898 339.959L119.897 339.959C117.95 338.644 115.605 338.165 113.304 338.61C111.002 339.056 109 340.37 107.684 342.312C104.972 346.322 106.025 351.794 110.053 354.501L110.054 354.502L112.266 355.998C112.266 355.998 112.266 355.998 112.267 355.998C112.281 356.008 112.296 356.014 112.307 356.018C112.319 356.022 112.326 356.022 112.325 356.022C112.338 356.022 112.355 356.018 112.37 356.01C112.384 356.003 112.392 355.994 112.396 355.988Z" fill="#060637" stroke="#373765" stroke-width="1.01006"/>
<path d="M131.162 347.458L126.379 346.172L126.379 345.143L123.19 345.143L118.938 347.458L116.547 350.801L116.547 355.43L118.141 357.744L121.596 361.601L126.379 363.144L131.162 361.601L134.883 356.458L134.351 351.572L131.162 347.458Z" fill="#FFA54B"/>
<path d="M119.398 349.986L119.399 349.985C120.612 348.188 122.414 347.006 124.371 346.53C124.385 346.566 124.398 346.602 124.411 346.638C123.771 346.795 123.155 347.025 122.563 347.32L122.556 347.324L122.556 347.324C121.367 347.943 120.312 348.847 119.506 350.035L119.506 350.035C118.542 351.457 118.083 353.077 118.087 354.678C118.086 355.228 118.139 355.775 118.246 356.312C118.202 356.317 118.157 356.321 118.113 356.324C118.005 355.782 117.948 355.236 117.948 354.692C117.958 353.268 118.313 351.832 119.056 350.534L119.398 349.986ZM119.398 349.986C119.276 350.166 119.162 350.348 119.056 350.534L119.398 349.986ZM118.522 357.298C118.472 357.304 118.423 357.31 118.374 357.315C118.428 357.487 118.48 357.642 118.541 357.792L118.541 357.792L118.542 357.797C119.134 359.318 120.187 360.677 121.638 361.666L121.702 361.708C121.739 361.732 121.775 361.755 121.811 361.778C121.906 361.839 121.995 361.896 122.088 361.95L122.09 361.952C123.432 362.742 124.904 363.126 126.376 363.126C129.093 363.126 131.763 361.819 133.389 359.418C135.894 355.7 135.047 350.699 131.534 348.012C131.393 347.907 131.265 347.811 131.14 347.728L131.128 347.72L131.117 347.711L131.081 347.684C129.519 346.638 127.71 346.188 125.95 346.285C125.884 346.3 125.831 346.301 125.807 346.301C125.665 346.31 125.522 346.325 125.378 346.344C125.39 346.38 125.403 346.416 125.414 346.453C125.679 346.421 125.943 346.403 126.21 346.395L126.217 346.395H126.225H126.225H126.225H126.226H126.226H126.226H126.227H126.227H126.227H126.228H126.228H126.229H126.229H126.229H126.23H126.23H126.23H126.231H126.231H126.231H126.232H126.232H126.232H126.233H126.233H126.233H126.234H126.234H126.234H126.235H126.235H126.235H126.236H126.236H126.236H126.237H126.237H126.237H126.238H126.238H126.238H126.239H126.239H126.239H126.24H126.24H126.24H126.241H126.241H126.241H126.242H126.242H126.242H126.243H126.243H126.244H126.244H126.244H126.245H126.245H126.245H126.246H126.246H126.246H126.247H126.247H126.247H126.248H126.248H126.248H126.249H126.249H126.249H126.25H126.25H126.25H126.251H126.251H126.251H126.252H126.252H126.252H126.253H126.253H126.253H126.254H126.254H126.254H126.255H126.255H126.255H126.256H126.256H126.256H126.257H126.257H126.258H126.258H126.258H126.259H126.259H126.259H126.26H126.26H126.26H126.261H126.261H126.261H126.262H126.262H126.262H126.263H126.263H126.263H126.264H126.264H126.264H126.265H126.265H126.265H126.266H126.266H126.266H126.267H126.267H126.267H126.268H126.268H126.268H126.269H126.269H126.269H126.27H126.27H126.27H126.271H126.271H126.272H126.272H126.272H126.273H126.273H126.273H126.274H126.274H126.274H126.275H126.275H126.275H126.276H126.276H126.276H126.277H126.277H126.277H126.278H126.278H126.278H126.279H126.279H126.279H126.28H126.28H126.28H126.281H126.281H126.281H126.282H126.282H126.282H126.283H126.283H126.283H126.284H126.284H126.284H126.285H126.285H126.285H126.286H126.286H126.287H126.287H126.287H126.288H126.288H126.288H126.289H126.289H126.289H126.29H126.29H126.29H126.291H126.291H126.291H126.292H126.292H126.292H126.293H126.293H126.293H126.294H126.294H126.294H126.295H126.295H126.295H126.296H126.296H126.296H126.297H126.297H126.297H126.298H126.298H126.298H126.299H126.299H126.299H126.3H126.3H126.301H126.301H126.301H126.302H126.302H126.302H126.303H126.303H126.303H126.304H126.304H126.304H126.305H126.305H126.305H126.306H126.306H126.306H126.307H126.307H126.307H126.308H126.308H126.308H126.309H126.309H126.309H126.31H126.31H126.31H126.311H126.311H126.311H126.312H126.312H126.312H126.313H126.313H126.313H126.314H126.314H126.314H126.315H126.315H126.316H126.316H126.316H126.317H126.317H126.317H126.318H126.318H126.318H126.319H126.319H126.319H126.32H126.32H126.32H126.321H126.321H126.321H126.322H126.322H126.322H126.323H126.323H126.323H126.324H126.324H126.324H126.325H126.325H126.325H126.326H126.326H126.326H126.327H126.327H126.327H126.328H126.328H126.328H126.329H126.329H126.33H126.33H126.33H126.331H126.331H126.331H126.332H126.332H126.332H126.333H126.333H126.333H126.334H126.334H126.334H126.335H126.335H126.335H126.336H126.336H126.336H126.337H126.337H126.337H126.338H126.338H126.338H126.339H126.339H126.339H126.34H126.34H126.34H126.341H126.341H126.341H126.342H126.342H126.342H126.343H126.343H126.344H126.344H126.344H126.345H126.345H126.345H126.346H126.346H126.346H126.347H126.347H126.347H126.348H126.348H126.348H126.349H126.349H126.349H126.35H126.35H126.35H126.351H126.351H126.351H126.352H126.352H126.352H126.353H126.353H126.353H126.354H126.354H126.354H126.355H126.355H126.355H126.356H126.356H126.356H126.357H126.357H126.357H126.358H126.358H126.359H126.359H126.359H126.36H126.36H126.36H126.361H126.361H126.361H126.362H126.362H126.362H126.363H126.363H126.363H126.364H126.364H126.364H126.365H126.365H126.365H126.366H126.366H126.366H126.367H126.367H126.367H126.368H126.368H126.368H126.369H126.369H126.369H126.37H126.37H126.37H126.371H126.371H126.371H126.372H126.372H126.373H126.373H126.373H126.374H126.374H126.374H126.375H126.375H126.375H126.376H126.376H126.376H126.377H126.377H126.377H126.378H126.378H126.378H126.379H126.379H126.379H126.38H126.38H126.38H126.381H126.381H126.381H126.382H126.382H126.382H126.383H126.383H126.383H126.384H126.384H126.384H126.385H126.385H126.385H126.386H126.386H126.386H126.387H126.387H126.388H126.388H126.388H126.389H126.389H126.389H126.39H126.39H126.39H126.391H126.391H126.391H126.392H126.392H126.392H126.393H126.393H126.393H126.394H126.394H126.394H126.395H126.395H126.395H126.396H126.396H126.396H126.397H126.397H126.397H126.398H126.398H126.398H126.399H126.399H126.399C128 346.395 129.625 346.866 131.038 347.819L131.038 347.819C134.834 350.382 135.826 355.532 133.271 359.321L133.27 359.321C132.03 361.153 130.144 362.392 127.976 362.813C125.857 363.233 123.699 362.812 121.89 361.64L121.744 361.55L121.735 361.544L121.726 361.538C120.384 360.633 119.404 359.393 118.798 358.022L118.796 358.019C118.695 357.786 118.605 357.545 118.522 357.298Z" fill="#060637" stroke="#373765" stroke-width="1.01006"/>
<path d="M116.737 356.552L116.738 356.553C116.892 356.95 117.078 357.341 117.293 357.695L117.293 357.695L117.298 357.704C117.913 358.767 118.781 359.722 119.869 360.457L119.871 360.458L121.639 361.666L121.707 361.71L121.707 361.71L121.71 361.713L121.998 361.908L121.999 361.909L122 361.909C122.018 361.915 122.032 361.916 122.044 361.916C122.054 361.916 122.067 361.914 122.079 361.908C122.09 361.902 122.095 361.896 122.097 361.892L122.099 361.889C122.111 361.87 122.116 361.847 122.111 361.824C122.107 361.802 122.097 361.789 122.087 361.782C122.087 361.781 122.086 361.781 122.086 361.781L121.888 361.649L121.745 361.561L121.736 361.556L121.728 361.55L119.946 360.353L119.943 360.351C119.091 359.772 118.37 359.066 117.809 358.256L117.809 358.256L117.804 358.249L117.801 358.244C117.686 358.073 117.564 357.89 117.453 357.706L117.453 357.706L117.451 357.702C117.327 357.491 117.217 357.283 117.108 357.067L117.108 357.067L117.105 357.059C115.877 354.497 116 351.364 117.713 348.837C118.953 347.005 120.839 345.767 123.008 345.346L123.01 345.346C123.529 345.247 124.05 345.198 124.56 345.198C124.99 345.198 125.415 345.234 125.835 345.293C125.837 345.293 125.839 345.293 125.842 345.293C125.857 345.295 125.871 345.297 125.881 345.299C125.888 345.3 125.896 345.301 125.902 345.302H125.907L125.949 345.309C127.113 345.507 128.217 345.94 129.221 346.62L131.034 347.827L131.37 348.046C131.37 348.046 131.37 348.047 131.37 348.047C131.389 348.059 131.413 348.064 131.437 348.059C131.461 348.055 131.474 348.043 131.481 348.034L131.481 348.033C131.489 348.022 131.494 348.005 131.493 347.986C131.492 347.973 131.489 347.965 131.486 347.96C131.483 347.958 131.48 347.955 131.476 347.951C131.475 347.95 131.474 347.95 131.473 347.949C131.463 347.94 131.446 347.926 131.427 347.909L131.141 347.709L131.135 347.704L131.129 347.7L131.093 347.673L129.321 346.482L129.321 346.482L129.32 346.481C128.089 345.647 126.682 345.165 125.244 345.055L125.243 345.055C124.815 345.022 124.387 345.022 123.945 345.055L123.945 345.055L123.942 345.055C123.628 345.077 123.312 345.12 122.983 345.186C120.769 345.637 118.858 346.899 117.594 348.765L117.594 348.765C115.98 351.143 115.759 354.06 116.737 356.552Z" fill="#060637" stroke="#373765" stroke-width="1.01006"/>
<path d="M23.7941 340.838L18.9415 339.515L18.9415 338.457L15.7064 338.457L11.393 340.838L8.96665 344.276L8.96665 349.037L10.5842 351.418L14.0889 355.385L18.9415 356.972L23.7941 355.385L27.5684 350.095L27.0292 345.07L23.7941 340.838Z" fill="#FFA54B"/>
<path d="M18.7387 339.238C15.9792 339.419 13.3286 340.833 11.6584 343.297C10.5812 344.88 10.0729 346.692 10.085 348.48C10.085 349.447 10.2302 350.413 10.5328 351.344C11.138 353.252 12.3725 354.968 14.1637 356.176C14.3211 356.285 14.4784 356.382 14.6357 356.478L18.7387 339.238ZM18.7387 339.238C20.7357 339.105 22.7811 339.6 24.5602 340.808C24.7175 340.917 24.8749 341.026 25.0201 341.135L18.7387 339.238ZM12.0765 343.581L12.0759 343.581C11.0588 345.076 10.5786 346.787 10.59 348.477V348.48C10.59 349.396 10.7276 350.31 11.0131 351.187L11.0142 351.191C11.5856 352.993 12.7512 354.614 14.4461 355.757L14.4461 355.757L14.4508 355.761C14.5941 355.86 14.7388 355.949 14.8964 356.046C16.0703 356.739 17.3713 357.127 18.6751 357.231C18.84 357.239 19.004 357.248 19.1624 357.251C19.1296 357.194 19.0965 357.135 19.064 357.074C18.6867 357.061 18.3152 357.025 17.9439 356.965L17.9417 356.964C16.7848 356.772 15.678 356.348 14.6744 355.693L14.6744 355.693L14.6706 355.691L14.4891 355.57L14.489 355.57L14.4837 355.566C10.6004 352.909 9.57046 347.582 12.2209 343.678C13.0566 342.446 14.1501 341.509 15.3831 340.868L15.3831 340.868L15.3868 340.866C16.6184 340.238 17.9797 339.905 19.368 339.905C21.0262 339.905 22.6976 340.38 24.1747 341.367C25.0633 341.958 25.8095 342.703 26.3885 343.525C26.6089 343.835 26.807 344.155 26.9821 344.49C27.0497 344.492 27.1172 344.496 27.1846 344.5C27.1138 344.361 27.0383 344.223 26.9572 344.085L26.9572 344.085L26.955 344.081C26.3954 343.112 25.6416 342.245 24.7155 341.537C24.5803 341.436 24.4324 341.334 24.2748 341.225C22.594 340.084 20.6621 339.616 18.7722 339.742L18.7717 339.742C16.1617 339.913 13.6559 341.25 12.0765 343.581ZM27.7231 345.805C27.7023 345.742 27.6809 345.679 27.6588 345.616C27.5955 345.623 27.5319 345.631 27.4679 345.64C27.4894 345.702 27.5103 345.764 27.5306 345.826C27.5948 345.818 27.6589 345.811 27.7231 345.805ZM20.4506 357.192C20.4304 357.134 20.4108 357.076 20.3917 357.018C20.3219 357.026 20.2522 357.034 20.1826 357.041L19.7341 357.25C19.783 357.248 19.8317 357.246 19.8812 357.243L19.8969 357.242H19.9122C19.9133 357.242 19.9191 357.241 19.9369 357.239C19.9468 357.238 19.967 357.236 19.9871 357.234C20.0039 357.232 20.025 357.231 20.0489 357.23C20.1832 357.221 20.3174 357.208 20.4506 357.192Z" fill="#060637" stroke="#373765" stroke-width="1.01006"/>
<path d="M14.9138 355.988L14.9157 355.985C14.9316 355.96 14.9371 355.931 14.9316 355.902C14.9262 355.874 14.9121 355.855 14.8976 355.845C14.8974 355.845 14.8972 355.845 14.897 355.845L12.6723 354.348L12.6715 354.348C8.73655 351.691 7.70802 346.351 10.3569 342.423L10.3574 342.422C11.6432 340.523 13.599 339.239 15.8475 338.803C18.0958 338.367 20.3984 338.828 22.3014 340.112C22.3015 340.112 22.3016 340.112 22.3018 340.112L24.5238 341.607C24.5482 341.622 24.5774 341.627 24.6061 341.622C24.6332 341.617 24.6512 341.604 24.6617 341.591C24.6753 341.567 24.6797 341.54 24.6746 341.513C24.6691 341.485 24.6551 341.466 24.6405 341.456L22.4152 339.959L22.4145 339.959C20.4677 338.644 18.1227 338.165 15.8218 338.61C13.5194 339.056 11.5175 340.37 10.2012 342.312C7.48927 346.322 8.54263 351.794 12.5702 354.501L12.5714 354.502L14.7831 355.998C14.7835 355.998 14.7839 355.998 14.7842 355.998C14.799 356.008 14.8131 356.014 14.8246 356.018C14.836 356.021 14.8423 356.022 14.8423 356.022C14.8561 356.022 14.8724 356.018 14.8872 356.01C14.9016 356.003 14.9097 355.994 14.9138 355.988Z" fill="#060637" stroke="#373765" stroke-width="1.01006"/>
<path d="M33.68 347.458L28.8967 346.172L28.8967 345.143L25.7079 345.143L21.456 347.458L19.0644 350.801L19.0644 355.43L20.6588 357.744L24.1134 361.601L28.8967 363.144L33.68 361.601L37.4004 356.458L36.8689 351.572L33.68 347.458Z" fill="#FFA54B"/>
<path d="M21.9153 349.986L21.9163 349.985C23.1301 348.188 24.9315 347.006 26.8887 346.53C26.9022 346.566 26.9153 346.602 26.9281 346.638C26.2886 346.795 25.6727 347.025 25.0809 347.32L25.0734 347.324L25.0735 347.324C23.8842 347.943 22.8294 348.847 22.0233 350.035L22.0232 350.035C21.0596 351.457 20.6003 353.077 20.6042 354.678C20.6032 355.228 20.6568 355.775 20.7634 356.312C20.7191 356.317 20.6748 356.321 20.6304 356.324C20.5221 355.782 20.4655 355.236 20.4654 354.692C20.4753 353.268 20.8306 351.832 21.5731 350.534L21.9153 349.986ZM21.9153 349.986C21.7933 350.166 21.6793 350.348 21.5731 350.534L21.9153 349.986ZM21.0395 357.298C20.99 357.304 20.9406 357.31 20.8912 357.315C20.9456 357.487 20.9976 357.642 21.0581 357.792L21.0581 357.792L21.06 357.797C21.6519 359.318 22.7046 360.677 24.1558 361.666L24.2191 361.708C24.2567 361.732 24.293 361.755 24.3285 361.778C24.4237 361.839 24.5128 361.896 24.6055 361.95L24.6077 361.952C25.9498 362.742 27.4218 363.126 28.8937 363.126C31.6106 363.126 34.2805 361.819 35.9061 359.418C38.4112 355.7 37.565 350.699 34.0516 348.012C33.9104 347.907 33.7826 347.811 33.6572 347.728L33.6455 347.72L33.6343 347.711L33.5981 347.684C32.0362 346.638 30.2279 346.188 28.4679 346.285C28.402 346.3 28.3484 346.301 28.3244 346.301C28.1828 346.31 28.04 346.325 27.8955 346.344C27.908 346.38 27.9202 346.416 27.9321 346.453C28.1964 346.421 28.4607 346.403 28.7275 346.395L28.7349 346.395H28.7423H28.7427H28.743H28.7434H28.7437H28.744H28.7444H28.7447H28.7451H28.7454H28.7457H28.7461H28.7464H28.7468H28.7471H28.7474H28.7478H28.7481H28.7485H28.7488H28.7492H28.7495H28.7498H28.7502H28.7505H28.7509H28.7512H28.7515H28.7519H28.7522H28.7526H28.7529H28.7533H28.7536H28.7539H28.7543H28.7546H28.755H28.7553H28.7556H28.756H28.7563H28.7567H28.757H28.7573H28.7577H28.758H28.7584H28.7587H28.7591H28.7594H28.7597H28.7601H28.7604H28.7608H28.7611H28.7614H28.7618H28.7621H28.7625H28.7628H28.7631H28.7635H28.7638H28.7642H28.7645H28.7649H28.7652H28.7655H28.7659H28.7662H28.7666H28.7669H28.7672H28.7676H28.7679H28.7683H28.7686H28.7689H28.7693H28.7696H28.77H28.7703H28.7707H28.771H28.7713H28.7717H28.772H28.7724H28.7727H28.773H28.7734H28.7737H28.7741H28.7744H28.7747H28.7751H28.7754H28.7758H28.7761H28.7765H28.7768H28.7771H28.7775H28.7778H28.7782H28.7785H28.7788H28.7792H28.7795H28.7799H28.7802H28.7805H28.7809H28.7812H28.7816H28.7819H28.7823H28.7826H28.7829H28.7833H28.7836H28.784H28.7843H28.7846H28.785H28.7853H28.7857H28.786H28.7863H28.7867H28.787H28.7874H28.7877H28.7881H28.7884H28.7887H28.7891H28.7894H28.7898H28.7901H28.7904H28.7908H28.7911H28.7915H28.7918H28.7922H28.7925H28.7928H28.7932H28.7935H28.7939H28.7942H28.7945H28.7949H28.7952H28.7956H28.7959H28.7962H28.7966H28.7969H28.7973H28.7976H28.798H28.7983H28.7986H28.799H28.7993H28.7997H28.8H28.8003H28.8007H28.801H28.8014H28.8017H28.802H28.8024H28.8027H28.8031H28.8034H28.8038H28.8041H28.8044H28.8048H28.8051H28.8055H28.8058H28.8061H28.8065H28.8068H28.8072H28.8075H28.8078H28.8082H28.8085H28.8089H28.8092H28.8096H28.8099H28.8102H28.8106H28.8109H28.8113H28.8116H28.8119H28.8123H28.8126H28.813H28.8133H28.8136H28.814H28.8143H28.8147H28.815H28.8154H28.8157H28.816H28.8164H28.8167H28.8171H28.8174H28.8177H28.8181H28.8184H28.8188H28.8191H28.8194H28.8198H28.8201H28.8205H28.8208H28.8212H28.8215H28.8218H28.8222H28.8225H28.8229H28.8232H28.8235H28.8239H28.8242H28.8246H28.8249H28.8252H28.8256H28.8259H28.8263H28.8266H28.827H28.8273H28.8276H28.828H28.8283H28.8287H28.829H28.8293H28.8297H28.83H28.8304H28.8307H28.831H28.8314H28.8317H28.8321H28.8324H28.8328H28.8331H28.8334H28.8338H28.8341H28.8345H28.8348H28.8351H28.8355H28.8358H28.8362H28.8365H28.8369H28.8372H28.8375H28.8379H28.8382H28.8386H28.8389H28.8392H28.8396H28.8399H28.8403H28.8406H28.8409H28.8413H28.8416H28.842H28.8423H28.8427H28.843H28.8433H28.8437H28.844H28.8444H28.8447H28.845H28.8454H28.8457H28.8461H28.8464H28.8467H28.8471H28.8474H28.8478H28.8481H28.8485H28.8488H28.8491H28.8495H28.8498H28.8502H28.8505H28.8508H28.8512H28.8515H28.8519H28.8522H28.8525H28.8529H28.8532H28.8536H28.8539H28.8543H28.8546H28.8549H28.8553H28.8556H28.856H28.8563H28.8566H28.857H28.8573H28.8577H28.858H28.8583H28.8587H28.859H28.8594H28.8597H28.8601H28.8604H28.8607H28.8611H28.8614H28.8618H28.8621H28.8624H28.8628H28.8631H28.8635H28.8638H28.8641H28.8645H28.8648H28.8652H28.8655H28.8659H28.8662H28.8665H28.8669H28.8672H28.8676H28.8679H28.8682H28.8686H28.8689H28.8693H28.8696H28.8699H28.8703H28.8706H28.871H28.8713H28.8717H28.872H28.8723H28.8727H28.873H28.8734H28.8737H28.874H28.8744H28.8747H28.8751H28.8754H28.8758H28.8761H28.8764H28.8768L28.8771 346.395H28.8775H28.8778H28.8781H28.8785H28.8788H28.8792H28.8795H28.8798H28.8802H28.8805H28.8809H28.8812H28.8816H28.8819H28.8822H28.8826H28.8829H28.8833H28.8836H28.8839H28.8843H28.8846H28.885H28.8853H28.8856H28.886H28.8863H28.8867H28.887H28.8874H28.8877H28.888H28.8884H28.8887H28.8891H28.8894H28.8897H28.8901H28.8904H28.8908H28.8911H28.8914H28.8918H28.8921H28.8925H28.8928H28.8932H28.8935H28.8938H28.8942H28.8945H28.8949H28.8952H28.8955H28.8959H28.8962H28.8966H28.8969H28.8972H28.8976H28.8979H28.8983H28.8986H28.899H28.8993H28.8996H28.9H28.9003H28.9007H28.901H28.9013H28.9017H28.902H28.9024H28.9027H28.903H28.9034H28.9037H28.9041H28.9044H28.9048H28.9051H28.9054H28.9058H28.9061H28.9065H28.9068H28.9071H28.9075H28.9078H28.9082H28.9085H28.9088H28.9092H28.9095H28.9099H28.9102H28.9106H28.9109H28.9112H28.9116H28.9119H28.9123H28.9126H28.9129H28.9133H28.9136H28.914H28.9143H28.9146H28.915H28.9153H28.9157H28.916H28.9164H28.9167H28.917C30.5181 346.395 32.1425 346.866 33.5554 347.819L33.5557 347.819C37.3512 350.382 38.3432 355.532 35.7883 359.321L35.7878 359.321C34.5478 361.153 32.6616 362.392 30.4935 362.813C28.3743 363.233 26.2165 362.812 24.4078 361.64L24.2617 361.55L24.2525 361.544L24.2436 361.538C22.9018 360.633 21.922 359.393 21.3154 358.022L21.3141 358.019C21.213 357.786 21.1225 357.545 21.0395 357.298Z" fill="#060637" stroke="#373765" stroke-width="1.01006"/>
<path d="M19.2548 356.551L19.2553 356.553C19.4099 356.95 19.5955 357.341 19.8104 357.695L19.8105 357.695L19.8159 357.704C20.4307 358.767 21.2986 359.722 22.3869 360.457L22.389 360.458L24.1569 361.666L24.2242 361.71L24.2242 361.71L24.228 361.713L24.5154 361.908L24.5166 361.909L24.5172 361.909C24.5356 361.915 24.55 361.916 24.5617 361.916C24.5718 361.916 24.5845 361.914 24.5962 361.908C24.6072 361.902 24.6125 361.896 24.6146 361.892L24.6164 361.889C24.629 361.87 24.6334 361.847 24.629 361.824C24.6247 361.802 24.6142 361.789 24.6046 361.782C24.6043 361.781 24.604 361.781 24.6037 361.781L24.406 361.649L24.2624 361.561L24.2536 361.556L24.2451 361.55L22.463 360.353L22.4608 360.351C21.6087 359.772 20.8878 359.066 20.3264 358.256L20.3264 358.256L20.3214 358.249L20.3182 358.244C20.2039 358.073 20.0819 357.89 19.9708 357.706L19.9708 357.706L19.9686 357.702C19.8445 357.491 19.7342 357.283 19.626 357.067L19.6259 357.067L19.6221 357.059C18.3949 354.498 18.5178 351.364 20.23 348.838C21.4702 347.005 23.3568 345.767 25.5254 345.346L25.5273 345.346C26.0466 345.247 26.5674 345.198 27.0775 345.198C27.5071 345.198 27.9324 345.234 28.3521 345.293C28.3545 345.293 28.3569 345.293 28.3591 345.293C28.3746 345.295 28.3881 345.297 28.3984 345.299C28.4059 345.3 28.4132 345.301 28.4196 345.302H28.4246L28.4666 345.309C29.6302 345.507 30.7342 345.94 31.7384 346.62L33.5519 347.827L33.8871 348.046C33.8872 348.046 33.8873 348.047 33.8874 348.047C33.9069 348.059 33.9305 348.064 33.9542 348.059C33.9782 348.055 33.9917 348.043 33.9982 348.034L33.9987 348.033C34.0065 348.022 34.0117 348.005 34.0104 347.986C34.0095 347.973 34.0062 347.965 34.0037 347.96C34.001 347.958 33.9976 347.955 33.9932 347.951C33.9924 347.95 33.9915 347.95 33.9905 347.949C33.9802 347.94 33.9636 347.926 33.9443 347.909L33.659 347.709L33.6528 347.704L33.6467 347.7L33.6104 347.673L31.839 346.482L31.839 346.482L31.8375 346.481C30.6062 345.647 29.1999 345.165 27.7612 345.055L27.761 345.055C27.3328 345.022 26.9041 345.022 26.463 345.055L26.463 345.055L26.4599 345.055C26.1459 345.077 25.8299 345.12 25.5001 345.186C23.2869 345.637 21.3754 346.899 20.1112 348.765L20.1111 348.765C18.4971 351.143 18.2761 354.06 19.2548 356.551Z" fill="#060637" stroke="#373765" stroke-width="1.01006"/>
</g>
<defs>
<filter id="filter0_d_1009_6368" x="193.934" y="128.595" width="91.3809" height="112.41" filterUnits="userSpaceOnUse" color-interpolation-filters="sRGB">
<feFlood flood-opacity="0" result="BackgroundImageFix"/>
<feColorMatrix in="SourceAlpha" type="matrix" values="0 0 0 0 0 0 0 0 0 0 0 0 0 0 0 0 0 0 127 0" result="hardAlpha"/>
<feOffset dy="1"/>
<feGaussianBlur stdDeviation="2"/>
<feComposite in2="hardAlpha" operator="out"/>
<feColorMatrix type="matrix" values="0 0 0 0 0 0 0 0 0 0 0 0 0 0 0 0 0 0 0.25 0"/>
<feBlend mode="normal" in2="BackgroundImageFix" result="effect1_dropShadow_1009_6368"/>
<feBlend mode="normal" in="SourceGraphic" in2="effect1_dropShadow_1009_6368" result="shape"/>
</filter>
<clipPath id="clip0_1009_6368">
<rect width="333.691" height="102.491" fill="white" transform="matrix(1 8.74228e-08 8.74228e-08 -1 65.1055 103.271)"/>
</clipPath>
<clipPath id="clip1_1009_6368">
<rect width="28.0914" height="16.8548" fill="white" transform="matrix(1 8.74228e-08 8.74228e-08 -1 72.9375 31.525)"/>
</clipPath>
<clipPath id="clip2_1009_6368">
<rect width="28.0913" height="16.8548" fill="white" transform="matrix(1 8.74228e-08 8.74228e-08 -1 167.648 31.525)"/>
</clipPath>
<clipPath id="clip3_1009_6368">
<rect width="28.0913" height="16.8548" fill="white" transform="matrix(1 8.74228e-08 8.74228e-08 -1 265.164 31.525)"/>
</clipPath>
<clipPath id="clip4_1009_6368">
<rect width="28.0913" height="16.8548" fill="white" transform="matrix(1 8.74228e-08 8.74228e-08 -1 363.324 31.525)"/>
</clipPath>
<clipPath id="clip5_1009_6368">
<rect width="333.691" height="102.491" fill="white" transform="matrix(-1 -8.74228e-08 -8.74228e-08 1 334.609 270.223)"/>
</clipPath>
</defs>
</svg>
