<svg width="1440" height="864" viewBox="0 0 1440 864" fill="none" xmlns="http://www.w3.org/2000/svg">
<g filter="url(#filter0_d_2985_3554)">
<path d="M1440.34 7.78613L1439.34 585.403C907.629 486.275 257.339 713.831 -1.34302 840V142.461C-2.87891 139.706 -2.89246 137.374 -1.34302 135.568V142.461C17.4312 176.128 263.662 272.894 662.971 242.867C1217.88 201.139 1428.81 37.473 1440.34 7.78613Z" fill="url(#paint0_linear_2985_3554)"/>
</g>
<g style="mix-blend-mode:color-dodge" clip-path="url(#clip0_2985_3554)">
<path d="M1310.73 133.934L1321.44 122.961L1349.01 151.193L1376.56 122.961L1387.29 133.934L1349.01 173.155L1310.73 133.934Z" stroke="url(#paint1_linear_2985_3554)" stroke-width="0.67" stroke-miterlimit="10"/>
<path opacity="0.94" d="M1349.01 173.714L1376.56 145.482L1387.29 156.455L1349.01 195.676L1310.73 156.455L1321.44 145.482L1349.01 173.714Z" stroke="url(#paint2_linear_2985_3554)" stroke-width="0.67" stroke-miterlimit="10"/>
<path opacity="0.88" d="M1349.01 196.235L1376.56 168.002L1387.29 178.975L1349.01 218.197L1310.73 178.975L1321.44 168.002L1349.01 196.235Z" stroke="url(#paint3_linear_2985_3554)" stroke-width="0.67" stroke-miterlimit="10"/>
<path opacity="0.81" d="M1349.01 218.755L1376.56 190.523L1387.29 201.496L1349.01 240.717L1310.73 201.496L1321.44 190.523L1349.01 218.755Z" stroke="url(#paint4_linear_2985_3554)" stroke-width="0.67" stroke-miterlimit="10"/>
<path opacity="0.75" d="M1349.01 241.276L1376.56 213.043L1387.29 224.017L1349.01 263.238L1310.73 224.017L1321.44 213.043L1349.01 241.276Z" stroke="url(#paint5_linear_2985_3554)" stroke-width="0.67" stroke-miterlimit="10"/>
<path opacity="0.69" d="M1349.01 263.797L1376.56 235.564L1387.29 246.538L1349.01 285.759L1310.73 246.538L1321.44 235.564L1349.01 263.797Z" stroke="url(#paint6_linear_2985_3554)" stroke-width="0.67" stroke-miterlimit="10"/>
<path opacity="0.63" d="M1349.01 286.317L1376.56 258.07L1387.29 269.058L1349.01 308.279L1310.73 269.058L1321.44 258.07L1349.01 286.317Z" stroke="url(#paint7_linear_2985_3554)" stroke-width="0.67" stroke-miterlimit="10"/>
<path opacity="0.56" d="M1349.01 308.838L1376.56 280.606L1387.29 291.579L1349.01 330.8L1310.73 291.579L1321.44 280.606L1349.01 308.838Z" stroke="url(#paint8_linear_2985_3554)" stroke-width="0.67" stroke-miterlimit="10"/>
<path opacity="0.5" d="M1349.01 331.359L1376.56 303.111L1387.29 314.1L1349.01 353.321L1310.73 314.1L1321.44 303.111L1349.01 331.359Z" stroke="url(#paint9_linear_2985_3554)" stroke-width="0.67" stroke-miterlimit="10"/>
<path opacity="0.44" d="M1349.01 353.879L1376.56 325.631L1387.29 336.62L1349.01 375.841L1310.73 336.62L1321.44 325.631L1349.01 353.879Z" stroke="url(#paint10_linear_2985_3554)" stroke-width="0.67" stroke-miterlimit="10"/>
<path opacity="0.38" d="M1349.01 376.4L1376.56 348.152L1387.29 359.141L1349.01 398.362L1310.73 359.141L1321.44 348.152L1349.01 376.4Z" stroke="url(#paint11_linear_2985_3554)" stroke-width="0.67" stroke-miterlimit="10"/>
<path opacity="0.31" d="M1349.01 398.921L1376.56 370.673L1387.29 381.662L1349.01 420.883L1310.73 381.662L1321.44 370.673L1349.01 398.921Z" stroke="url(#paint12_linear_2985_3554)" stroke-width="0.67" stroke-miterlimit="10"/>
<path opacity="0.25" d="M1349.01 421.442L1376.56 393.194L1387.29 404.182L1349.01 443.404L1310.73 404.182L1321.44 393.194L1349.01 421.442Z" stroke="url(#paint13_linear_2985_3554)" stroke-width="0.67" stroke-miterlimit="10"/>
<path opacity="0.19" d="M1349.01 443.962L1376.56 415.714L1387.29 426.703L1349.01 465.909L1310.73 426.703L1321.44 415.714L1349.01 443.962Z" stroke="url(#paint14_linear_2985_3554)" stroke-width="0.67" stroke-miterlimit="10"/>
<path opacity="0.13" d="M1349.01 466.483L1376.56 438.235L1387.29 449.224L1349.01 488.43L1310.73 449.224L1321.44 438.235L1349.01 466.483Z" stroke="url(#paint15_linear_2985_3554)" stroke-width="0.67" stroke-miterlimit="10"/>
<path opacity="0.06" d="M1349.01 489.004L1376.56 460.756L1387.29 471.729L1349.01 510.95L1310.73 471.729L1321.44 460.756L1349.01 489.004Z" stroke="url(#paint16_linear_2985_3554)" stroke-width="0.67" stroke-miterlimit="10"/>
</g>
<g style="mix-blend-mode:overlay" clip-path="url(#clip1_2985_3554)">
<path d="M71.9414 340.934L85.8095 326.604L121.51 363.471L157.19 326.604L171.078 340.934L121.51 392.149L71.9414 340.934Z" stroke="url(#paint17_linear_2985_3554)" stroke-width="0.67" stroke-miterlimit="10"/>
<path opacity="0.94" d="M121.51 392.879L157.19 356.012L171.078 370.342L121.51 421.557L71.9414 370.342L85.8095 356.012L121.51 392.879Z" stroke="url(#paint18_linear_2985_3554)" stroke-width="0.67" stroke-miterlimit="10"/>
<path opacity="0.88" d="M121.51 422.287L157.19 385.42L171.078 399.75L121.51 450.965L71.9414 399.75L85.8095 385.42L121.51 422.287Z" stroke="url(#paint19_linear_2985_3554)" stroke-width="0.67" stroke-miterlimit="10"/>
<path opacity="0.81" d="M121.51 451.695L157.19 414.828L171.078 429.157L121.51 480.373L71.9414 429.157L85.8095 414.828L121.51 451.695Z" stroke="url(#paint20_linear_2985_3554)" stroke-width="0.67" stroke-miterlimit="10"/>
<path opacity="0.75" d="M121.51 481.103L157.19 444.236L171.078 458.565L121.51 509.781L71.9414 458.565L85.8095 444.236L121.51 481.103Z" stroke="url(#paint21_linear_2985_3554)" stroke-width="0.67" stroke-miterlimit="10"/>
<path opacity="0.69" d="M121.51 510.511L157.19 473.645L171.078 487.974L121.51 539.19L71.9414 487.974L85.8095 473.645L121.51 510.511Z" stroke="url(#paint22_linear_2985_3554)" stroke-width="0.67" stroke-miterlimit="10"/>
<path opacity="0.63" d="M121.51 539.92L157.19 503.033L171.078 517.382L121.51 568.598L71.9414 517.382L85.8095 503.033L121.51 539.92Z" stroke="url(#paint23_linear_2985_3554)" stroke-width="0.67" stroke-miterlimit="10"/>
<path opacity="0.56" d="M121.51 569.327L157.19 532.461L171.078 546.79L121.51 598.006L71.9414 546.79L85.8095 532.461L121.51 569.327Z" stroke="url(#paint24_linear_2985_3554)" stroke-width="0.67" stroke-miterlimit="10"/>
<path opacity="0.5" d="M121.51 598.735L157.19 561.849L171.078 576.198L121.51 627.414L71.9414 576.198L85.8095 561.849L121.51 598.735Z" stroke="url(#paint25_linear_2985_3554)" stroke-width="0.67" stroke-miterlimit="10"/>
<path opacity="0.44" d="M121.51 628.143L157.19 591.257L171.078 605.606L121.51 656.822L71.9414 605.606L85.8095 591.257L121.51 628.143Z" stroke="url(#paint26_linear_2985_3554)" stroke-width="0.67" stroke-miterlimit="10"/>
<path opacity="0.38" d="M121.51 657.552L157.19 620.665L171.078 635.014L121.51 686.23L71.9414 635.014L85.8095 620.665L121.51 657.552Z" stroke="url(#paint27_linear_2985_3554)" stroke-width="0.67" stroke-miterlimit="10"/>
<path opacity="0.31" d="M121.51 686.96L157.19 650.073L171.078 664.422L121.51 715.638L71.9414 664.422L85.8095 650.073L121.51 686.96Z" stroke="url(#paint28_linear_2985_3554)" stroke-width="0.67" stroke-miterlimit="10"/>
<path opacity="0.25" d="M121.51 716.368L157.19 679.481L171.078 693.83L121.51 745.046L71.9414 693.83L85.8095 679.481L121.51 716.368Z" stroke="url(#paint29_linear_2985_3554)" stroke-width="0.67" stroke-miterlimit="10"/>
<path opacity="0.19" d="M121.51 745.776L157.19 708.889L171.078 723.238L121.51 774.434L71.9414 723.238L85.8095 708.889L121.51 745.776Z" stroke="url(#paint30_linear_2985_3554)" stroke-width="0.67" stroke-miterlimit="10"/>
<path opacity="0.13" d="M121.51 775.184L157.19 738.298L171.078 752.647L121.51 803.843L71.9414 752.647L85.8095 738.298L121.51 775.184Z" stroke="url(#paint31_linear_2985_3554)" stroke-width="0.67" stroke-miterlimit="10"/>
<path opacity="0.06" d="M121.51 804.592L157.19 767.705L171.078 782.034L121.51 833.25L71.9414 782.034L85.8095 767.705L121.51 804.592Z" stroke="url(#paint32_linear_2985_3554)" stroke-width="0.67" stroke-miterlimit="10"/>
</g>
<defs>
<filter id="filter0_d_2985_3554" x="-13.5" y="0.786133" width="1464.84" height="854.214" filterUnits="userSpaceOnUse" color-interpolation-filters="sRGB">
<feFlood flood-opacity="0" result="BackgroundImageFix"/>
<feColorMatrix in="SourceAlpha" type="matrix" values="0 0 0 0 0 0 0 0 0 0 0 0 0 0 0 0 0 0 127 0" result="hardAlpha"/>
<feOffset dy="4"/>
<feGaussianBlur stdDeviation="5.5"/>
<feComposite in2="hardAlpha" operator="out"/>
<feColorMatrix type="matrix" values="0 0 0 0 0 0 0 0 0 0 0 0 0 0 0 0 0 0 0.25 0"/>
<feBlend mode="normal" in2="BackgroundImageFix" result="effect1_dropShadow_2985_3554"/>
<feBlend mode="normal" in="SourceGraphic" in2="effect1_dropShadow_2985_3554" result="shape"/>
</filter>
<linearGradient id="paint0_linear_2985_3554" x1="-2.50287" y1="840" x2="53.7899" y2="-30.3471" gradientUnits="userSpaceOnUse">
<stop offset="0.00310139" stop-color="#171753"/>
<stop offset="1" stop-color="#4A9EA1"/>
</linearGradient>
<linearGradient id="paint1_linear_2985_3554" x1="1327.65" y1="132.054" x2="1354.95" y2="176.702" gradientUnits="userSpaceOnUse">
<stop stop-color="#5ED9D1"/>
<stop offset="1" stop-color="#376D8B"/>
</linearGradient>
<linearGradient id="paint2_linear_2985_3554" x1="1327.65" y1="154.575" x2="1354.95" y2="199.223" gradientUnits="userSpaceOnUse">
<stop stop-color="#5ED9D1"/>
<stop offset="1" stop-color="#376D8B"/>
</linearGradient>
<linearGradient id="paint3_linear_2985_3554" x1="1327.65" y1="177.095" x2="1354.95" y2="221.743" gradientUnits="userSpaceOnUse">
<stop stop-color="#5ED9D1"/>
<stop offset="1" stop-color="#376D8B"/>
</linearGradient>
<linearGradient id="paint4_linear_2985_3554" x1="1327.65" y1="199.616" x2="1354.95" y2="244.264" gradientUnits="userSpaceOnUse">
<stop stop-color="#5ED9D1"/>
<stop offset="1" stop-color="#376D8B"/>
</linearGradient>
<linearGradient id="paint5_linear_2985_3554" x1="1327.65" y1="222.137" x2="1354.95" y2="266.785" gradientUnits="userSpaceOnUse">
<stop stop-color="#5ED9D1"/>
<stop offset="1" stop-color="#376D8B"/>
</linearGradient>
<linearGradient id="paint6_linear_2985_3554" x1="1327.65" y1="244.658" x2="1354.95" y2="289.306" gradientUnits="userSpaceOnUse">
<stop stop-color="#5ED9D1"/>
<stop offset="1" stop-color="#376D8B"/>
</linearGradient>
<linearGradient id="paint7_linear_2985_3554" x1="1327.65" y1="267.166" x2="1354.97" y2="311.82" gradientUnits="userSpaceOnUse">
<stop stop-color="#5ED9D1"/>
<stop offset="1" stop-color="#376D8B"/>
</linearGradient>
<linearGradient id="paint8_linear_2985_3554" x1="1327.65" y1="289.699" x2="1354.95" y2="334.347" gradientUnits="userSpaceOnUse">
<stop stop-color="#5ED9D1"/>
<stop offset="1" stop-color="#376D8B"/>
</linearGradient>
<linearGradient id="paint9_linear_2985_3554" x1="1327.65" y1="312.207" x2="1354.97" y2="356.861" gradientUnits="userSpaceOnUse">
<stop stop-color="#5ED9D1"/>
<stop offset="1" stop-color="#376D8B"/>
</linearGradient>
<linearGradient id="paint10_linear_2985_3554" x1="1327.65" y1="334.727" x2="1354.97" y2="379.382" gradientUnits="userSpaceOnUse">
<stop stop-color="#5ED9D1"/>
<stop offset="1" stop-color="#376D8B"/>
</linearGradient>
<linearGradient id="paint11_linear_2985_3554" x1="1327.65" y1="357.248" x2="1354.97" y2="401.903" gradientUnits="userSpaceOnUse">
<stop stop-color="#5ED9D1"/>
<stop offset="1" stop-color="#376D8B"/>
</linearGradient>
<linearGradient id="paint12_linear_2985_3554" x1="1327.65" y1="379.769" x2="1354.97" y2="424.423" gradientUnits="userSpaceOnUse">
<stop stop-color="#5ED9D1"/>
<stop offset="1" stop-color="#376D8B"/>
</linearGradient>
<linearGradient id="paint13_linear_2985_3554" x1="1327.65" y1="402.29" x2="1354.97" y2="446.944" gradientUnits="userSpaceOnUse">
<stop stop-color="#5ED9D1"/>
<stop offset="1" stop-color="#376D8B"/>
</linearGradient>
<linearGradient id="paint14_linear_2985_3554" x1="1327.65" y1="424.808" x2="1354.95" y2="469.456" gradientUnits="userSpaceOnUse">
<stop stop-color="#5ED9D1"/>
<stop offset="1" stop-color="#376D8B"/>
</linearGradient>
<linearGradient id="paint15_linear_2985_3554" x1="1327.65" y1="447.329" x2="1354.95" y2="491.976" gradientUnits="userSpaceOnUse">
<stop stop-color="#5ED9D1"/>
<stop offset="1" stop-color="#376D8B"/>
</linearGradient>
<linearGradient id="paint16_linear_2985_3554" x1="1327.65" y1="469.849" x2="1354.95" y2="514.497" gradientUnits="userSpaceOnUse">
<stop stop-color="#5ED9D1"/>
<stop offset="1" stop-color="#376D8B"/>
</linearGradient>
<linearGradient id="paint17_linear_2985_3554" x1="121.51" y1="326.604" x2="121.51" y2="392.149" gradientUnits="userSpaceOnUse">
<stop stop-color="#C5F7D0"/>
<stop offset="0.511466" stop-color="#BEF0ED"/>
<stop offset="1" stop-color="#BECCF1"/>
</linearGradient>
<linearGradient id="paint18_linear_2985_3554" x1="121.51" y1="356.012" x2="121.51" y2="421.557" gradientUnits="userSpaceOnUse">
<stop stop-color="#C5F7D0"/>
<stop offset="0.511466" stop-color="#BEF0ED"/>
<stop offset="1" stop-color="#BECCF1"/>
</linearGradient>
<linearGradient id="paint19_linear_2985_3554" x1="121.51" y1="385.42" x2="121.51" y2="450.965" gradientUnits="userSpaceOnUse">
<stop stop-color="#C5F7D0"/>
<stop offset="0.511466" stop-color="#BEF0ED"/>
<stop offset="1" stop-color="#BECCF1"/>
</linearGradient>
<linearGradient id="paint20_linear_2985_3554" x1="121.51" y1="414.828" x2="121.51" y2="480.373" gradientUnits="userSpaceOnUse">
<stop stop-color="#C5F7D0"/>
<stop offset="0.511466" stop-color="#BEF0ED"/>
<stop offset="1" stop-color="#BECCF1"/>
</linearGradient>
<linearGradient id="paint21_linear_2985_3554" x1="121.51" y1="444.236" x2="121.51" y2="509.781" gradientUnits="userSpaceOnUse">
<stop stop-color="#C5F7D0"/>
<stop offset="0.511466" stop-color="#BEF0ED"/>
<stop offset="1" stop-color="#BECCF1"/>
</linearGradient>
<linearGradient id="paint22_linear_2985_3554" x1="121.51" y1="473.645" x2="121.51" y2="539.19" gradientUnits="userSpaceOnUse">
<stop stop-color="#C5F7D0"/>
<stop offset="0.511466" stop-color="#BEF0ED"/>
<stop offset="1" stop-color="#BECCF1"/>
</linearGradient>
<linearGradient id="paint23_linear_2985_3554" x1="121.51" y1="503.033" x2="121.51" y2="568.598" gradientUnits="userSpaceOnUse">
<stop stop-color="#C5F7D0"/>
<stop offset="0.511466" stop-color="#BEF0ED"/>
<stop offset="1" stop-color="#BECCF1"/>
</linearGradient>
<linearGradient id="paint24_linear_2985_3554" x1="121.51" y1="532.461" x2="121.51" y2="598.006" gradientUnits="userSpaceOnUse">
<stop stop-color="#C5F7D0"/>
<stop offset="0.511466" stop-color="#BEF0ED"/>
<stop offset="1" stop-color="#BECCF1"/>
</linearGradient>
<linearGradient id="paint25_linear_2985_3554" x1="121.51" y1="561.849" x2="121.51" y2="627.414" gradientUnits="userSpaceOnUse">
<stop stop-color="#C5F7D0"/>
<stop offset="0.511466" stop-color="#BEF0ED"/>
<stop offset="1" stop-color="#BECCF1"/>
</linearGradient>
<linearGradient id="paint26_linear_2985_3554" x1="121.51" y1="591.257" x2="121.51" y2="656.822" gradientUnits="userSpaceOnUse">
<stop stop-color="#C5F7D0"/>
<stop offset="0.511466" stop-color="#BEF0ED"/>
<stop offset="1" stop-color="#BECCF1"/>
</linearGradient>
<linearGradient id="paint27_linear_2985_3554" x1="121.51" y1="620.665" x2="121.51" y2="686.23" gradientUnits="userSpaceOnUse">
<stop stop-color="#C5F7D0"/>
<stop offset="0.511466" stop-color="#BEF0ED"/>
<stop offset="1" stop-color="#BECCF1"/>
</linearGradient>
<linearGradient id="paint28_linear_2985_3554" x1="121.51" y1="650.073" x2="121.51" y2="715.638" gradientUnits="userSpaceOnUse">
<stop stop-color="#C5F7D0"/>
<stop offset="0.511466" stop-color="#BEF0ED"/>
<stop offset="1" stop-color="#BECCF1"/>
</linearGradient>
<linearGradient id="paint29_linear_2985_3554" x1="121.51" y1="679.481" x2="121.51" y2="745.046" gradientUnits="userSpaceOnUse">
<stop stop-color="#C5F7D0"/>
<stop offset="0.511466" stop-color="#BEF0ED"/>
<stop offset="1" stop-color="#BECCF1"/>
</linearGradient>
<linearGradient id="paint30_linear_2985_3554" x1="121.51" y1="708.889" x2="121.51" y2="774.434" gradientUnits="userSpaceOnUse">
<stop stop-color="#C5F7D0"/>
<stop offset="0.511466" stop-color="#BEF0ED"/>
<stop offset="1" stop-color="#BECCF1"/>
</linearGradient>
<linearGradient id="paint31_linear_2985_3554" x1="121.51" y1="738.298" x2="121.51" y2="803.843" gradientUnits="userSpaceOnUse">
<stop stop-color="#C5F7D0"/>
<stop offset="0.511466" stop-color="#BEF0ED"/>
<stop offset="1" stop-color="#BECCF1"/>
</linearGradient>
<linearGradient id="paint32_linear_2985_3554" x1="121.51" y1="767.705" x2="121.51" y2="833.25" gradientUnits="userSpaceOnUse">
<stop stop-color="#C5F7D0"/>
<stop offset="0.511466" stop-color="#BEF0ED"/>
<stop offset="1" stop-color="#BECCF1"/>
</linearGradient>
<clipPath id="clip0_2985_3554">
<rect width="412" height="78" fill="white" transform="matrix(-4.37114e-08 1 1 4.37114e-08 1310 122.216)"/>
</clipPath>
<clipPath id="clip1_2985_3554">
<rect width="538" height="101" fill="white" transform="matrix(-4.37114e-08 1 1 4.37114e-08 71 325.631)"/>
</clipPath>
</defs>
</svg>
