<svg width="375" height="740" viewBox="0 0 375 740" fill="none" xmlns="http://www.w3.org/2000/svg">
<g filter="url(#filter0_d_2985_3555)">
<path d="M375.303 7.2002V438.487C236.646 327.243 67.0659 582.611 -0.392212 724.2V162.68C-1.24716 158.564 -1.15674 154.434 -0.392212 150.6V162.68C4.72784 187.332 43.753 211.518 174.932 169.068C328.015 119.53 372.297 40.5153 375.303 7.2002Z" fill="url(#paint0_linear_2985_3555)"/>
</g>
<g style="mix-blend-mode:color-dodge" clip-path="url(#clip0_2985_3555)">
<path d="M335.457 105.136L342.185 98.2373L359.505 115.985L376.815 98.2373L383.553 105.136L359.505 129.791L335.457 105.136Z" stroke="url(#paint1_linear_2985_3555)" stroke-width="0.67" stroke-miterlimit="10"/>
<path opacity="0.94" d="M359.505 130.143L376.815 112.395L383.553 119.293L359.505 143.949L335.457 119.293L342.185 112.395L359.505 130.143Z" stroke="url(#paint2_linear_2985_3555)" stroke-width="0.67" stroke-miterlimit="10"/>
<path opacity="0.88" d="M359.505 144.3L376.815 126.552L383.553 133.45L359.505 158.106L335.457 133.45L342.185 126.552L359.505 144.3Z" stroke="url(#paint3_linear_2985_3555)" stroke-width="0.67" stroke-miterlimit="10"/>
<path opacity="0.81" d="M359.505 158.457L376.815 140.709L383.553 147.607L359.505 172.263L335.457 147.607L342.185 140.709L359.505 158.457Z" stroke="url(#paint4_linear_2985_3555)" stroke-width="0.67" stroke-miterlimit="10"/>
<path opacity="0.75" d="M359.505 172.614L376.815 154.866L383.553 161.764L359.505 186.42L335.457 161.764L342.185 154.866L359.505 172.614Z" stroke="url(#paint5_linear_2985_3555)" stroke-width="0.67" stroke-miterlimit="10"/>
<path opacity="0.69" d="M359.505 186.772L376.815 169.024L383.553 175.923L359.505 200.579L335.457 175.923L342.185 169.024L359.505 186.772Z" stroke="url(#paint6_linear_2985_3555)" stroke-width="0.67" stroke-miterlimit="10"/>
<path opacity="0.63" d="M359.505 200.93L376.815 183.172L383.553 190.08L359.505 214.736L335.457 190.08L342.185 183.172L359.505 200.93Z" stroke="url(#paint7_linear_2985_3555)" stroke-width="0.67" stroke-miterlimit="10"/>
<path opacity="0.56" d="M359.505 215.087L376.815 197.339L383.553 204.237L359.505 228.893L335.457 204.237L342.185 197.339L359.505 215.087Z" stroke="url(#paint8_linear_2985_3555)" stroke-width="0.67" stroke-miterlimit="10"/>
<path opacity="0.5" d="M359.505 229.244L376.815 211.486L383.553 218.394L359.505 243.05L335.457 218.394L342.185 211.486L359.505 229.244Z" stroke="url(#paint9_linear_2985_3555)" stroke-width="0.67" stroke-miterlimit="10"/>
<path opacity="0.44" d="M359.505 243.401L376.815 225.644L383.553 232.552L359.505 257.208L335.457 232.552L342.185 225.644L359.505 243.401Z" stroke="url(#paint10_linear_2985_3555)" stroke-width="0.67" stroke-miterlimit="10"/>
<path opacity="0.38" d="M359.505 257.56L376.815 239.802L383.553 246.71L359.505 271.366L335.457 246.71L342.185 239.802L359.505 257.56Z" stroke="url(#paint11_linear_2985_3555)" stroke-width="0.67" stroke-miterlimit="10"/>
<path opacity="0.31" d="M359.505 271.717L376.815 253.959L383.553 260.867L359.505 285.523L335.457 260.867L342.185 253.959L359.505 271.717Z" stroke="url(#paint12_linear_2985_3555)" stroke-width="0.67" stroke-miterlimit="10"/>
<path opacity="0.25" d="M359.505 285.874L376.815 268.116L383.553 275.024L359.505 299.68L335.457 275.024L342.185 268.116L359.505 285.874Z" stroke="url(#paint13_linear_2985_3555)" stroke-width="0.67" stroke-miterlimit="10"/>
<path opacity="0.19" d="M359.505 300.031L376.815 282.273L383.553 289.181L359.505 313.828L335.457 289.181L342.185 282.273L359.505 300.031Z" stroke="url(#paint14_linear_2985_3555)" stroke-width="0.67" stroke-miterlimit="10"/>
<path opacity="0.13" d="M359.505 314.189L376.815 296.432L383.553 303.34L359.505 327.986L335.457 303.34L342.185 296.432L359.505 314.189Z" stroke="url(#paint15_linear_2985_3555)" stroke-width="0.67" stroke-miterlimit="10"/>
<path opacity="0.06" d="M359.505 328.347L376.815 310.589L383.553 317.487L359.505 342.143L335.457 317.487L342.185 310.589L359.505 328.347Z" stroke="url(#paint16_linear_2985_3555)" stroke-width="0.67" stroke-miterlimit="10"/>
</g>
<g style="mix-blend-mode:overlay" clip-path="url(#clip1_2985_3555)">
<path d="M-10.5391 397.439L-3.26173 389.928L15.472 409.252L34.1955 389.928L41.4831 397.439L15.472 424.284L-10.5391 397.439Z" stroke="url(#paint17_linear_2985_3555)" stroke-width="0.67" stroke-miterlimit="10"/>
<path opacity="0.94" d="M15.472 424.667L34.1955 405.343L41.4831 412.854L15.472 439.699L-10.5391 412.854L-3.26173 405.343L15.472 424.667Z" stroke="url(#paint18_linear_2985_3555)" stroke-width="0.67" stroke-miterlimit="10"/>
<path opacity="0.88" d="M15.472 440.081L34.1955 420.757L41.4831 428.268L15.472 455.113L-10.5391 428.268L-3.26173 420.757L15.472 440.081Z" stroke="url(#paint19_linear_2985_3555)" stroke-width="0.67" stroke-miterlimit="10"/>
<path opacity="0.81" d="M15.472 455.496L34.1955 436.172L41.4831 443.683L15.472 470.528L-10.5391 443.683L-3.26173 436.172L15.472 455.496Z" stroke="url(#paint20_linear_2985_3555)" stroke-width="0.67" stroke-miterlimit="10"/>
<path opacity="0.75" d="M15.472 470.91L34.1955 451.586L41.4831 459.097L15.472 485.942L-10.5391 459.097L-3.26173 451.586L15.472 470.91Z" stroke="url(#paint21_linear_2985_3555)" stroke-width="0.67" stroke-miterlimit="10"/>
<path opacity="0.69" d="M15.472 486.325L34.1955 467.001L41.4831 474.512L15.472 501.357L-10.5391 474.512L-3.26173 467.001L15.472 486.325Z" stroke="url(#paint22_linear_2985_3555)" stroke-width="0.67" stroke-miterlimit="10"/>
<path opacity="0.63" d="M15.472 501.74L34.1955 482.405L41.4831 489.927L15.472 516.772L-10.5391 489.927L-3.26173 482.405L15.472 501.74Z" stroke="url(#paint23_linear_2985_3555)" stroke-width="0.67" stroke-miterlimit="10"/>
<path opacity="0.56" d="M15.472 517.154L34.1955 497.83L41.4831 505.341L15.472 532.186L-10.5391 505.341L-3.26173 497.83L15.472 517.154Z" stroke="url(#paint24_linear_2985_3555)" stroke-width="0.67" stroke-miterlimit="10"/>
<path opacity="0.5" d="M15.472 532.569L34.1955 513.234L41.4831 520.756L15.472 547.601L-10.5391 520.756L-3.26173 513.234L15.472 532.569Z" stroke="url(#paint25_linear_2985_3555)" stroke-width="0.67" stroke-miterlimit="10"/>
<path opacity="0.44" d="M15.472 547.984L34.1955 528.649L41.4831 536.171L15.472 563.016L-10.5391 536.171L-3.26173 528.649L15.472 547.984Z" stroke="url(#paint26_linear_2985_3555)" stroke-width="0.67" stroke-miterlimit="10"/>
<path opacity="0.38" d="M15.472 563.398L34.1955 544.063L41.4831 551.585L15.472 578.43L-10.5391 551.585L-3.26173 544.063L15.472 563.398Z" stroke="url(#paint27_linear_2985_3555)" stroke-width="0.67" stroke-miterlimit="10"/>
<path opacity="0.31" d="M15.472 578.813L34.1955 559.479L41.4831 567L15.472 593.845L-10.5391 567L-3.26173 559.479L15.472 578.813Z" stroke="url(#paint28_linear_2985_3555)" stroke-width="0.67" stroke-miterlimit="10"/>
<path opacity="0.25" d="M15.472 594.227L34.1955 574.893L41.4831 582.414L15.472 609.26L-10.5391 582.414L-3.26173 574.893L15.472 594.227Z" stroke="url(#paint29_linear_2985_3555)" stroke-width="0.67" stroke-miterlimit="10"/>
<path opacity="0.19" d="M15.472 609.642L34.1955 590.308L41.4831 597.829L15.472 624.664L-10.5391 597.829L-3.26173 590.308L15.472 609.642Z" stroke="url(#paint30_linear_2985_3555)" stroke-width="0.67" stroke-miterlimit="10"/>
<path opacity="0.13" d="M15.472 625.057L34.1955 605.723L41.4831 613.244L15.472 640.079L-10.5391 613.244L-3.26173 605.723L15.472 625.057Z" stroke="url(#paint31_linear_2985_3555)" stroke-width="0.67" stroke-miterlimit="10"/>
<path opacity="0.06" d="M15.472 640.471L34.1955 621.137L41.4831 628.648L15.472 655.493L-10.5391 628.648L-3.26173 621.137L15.472 640.471Z" stroke="url(#paint32_linear_2985_3555)" stroke-width="0.67" stroke-miterlimit="10"/>
</g>
<defs>
<filter id="filter0_d_2985_3555" x="-12" y="0.200195" width="398.303" height="739" filterUnits="userSpaceOnUse" color-interpolation-filters="sRGB">
<feFlood flood-opacity="0" result="BackgroundImageFix"/>
<feColorMatrix in="SourceAlpha" type="matrix" values="0 0 0 0 0 0 0 0 0 0 0 0 0 0 0 0 0 0 127 0" result="hardAlpha"/>
<feOffset dy="4"/>
<feGaussianBlur stdDeviation="5.5"/>
<feComposite in2="hardAlpha" operator="out"/>
<feColorMatrix type="matrix" values="0 0 0 0 0 0 0 0 0 0 0 0 0 0 0 0 0 0 0.25 0"/>
<feBlend mode="normal" in2="BackgroundImageFix" result="effect1_dropShadow_2985_3555"/>
<feBlend mode="normal" in="SourceGraphic" in2="effect1_dropShadow_2985_3555" result="shape"/>
</filter>
<linearGradient id="paint0_linear_2985_3555" x1="-1.00075" y1="724.2" x2="152.86" y2="4.08318" gradientUnits="userSpaceOnUse">
<stop offset="0.00310139" stop-color="#171753"/>
<stop offset="1" stop-color="#4A9EA1"/>
</linearGradient>
<linearGradient id="paint1_linear_2985_3555" x1="346.087" y1="103.954" x2="363.258" y2="132.011" gradientUnits="userSpaceOnUse">
<stop stop-color="#5ED9D1"/>
<stop offset="1" stop-color="#376D8B"/>
</linearGradient>
<linearGradient id="paint2_linear_2985_3555" x1="346.087" y1="118.111" x2="363.258" y2="146.168" gradientUnits="userSpaceOnUse">
<stop stop-color="#5ED9D1"/>
<stop offset="1" stop-color="#376D8B"/>
</linearGradient>
<linearGradient id="paint3_linear_2985_3555" x1="346.087" y1="132.268" x2="363.258" y2="160.325" gradientUnits="userSpaceOnUse">
<stop stop-color="#5ED9D1"/>
<stop offset="1" stop-color="#376D8B"/>
</linearGradient>
<linearGradient id="paint4_linear_2985_3555" x1="346.087" y1="146.425" x2="363.258" y2="174.482" gradientUnits="userSpaceOnUse">
<stop stop-color="#5ED9D1"/>
<stop offset="1" stop-color="#376D8B"/>
</linearGradient>
<linearGradient id="paint5_linear_2985_3555" x1="346.087" y1="160.583" x2="363.258" y2="188.639" gradientUnits="userSpaceOnUse">
<stop stop-color="#5ED9D1"/>
<stop offset="1" stop-color="#376D8B"/>
</linearGradient>
<linearGradient id="paint6_linear_2985_3555" x1="346.087" y1="174.741" x2="363.258" y2="202.798" gradientUnits="userSpaceOnUse">
<stop stop-color="#5ED9D1"/>
<stop offset="1" stop-color="#376D8B"/>
</linearGradient>
<linearGradient id="paint7_linear_2985_3555" x1="346.087" y1="188.89" x2="363.266" y2="216.951" gradientUnits="userSpaceOnUse">
<stop stop-color="#5ED9D1"/>
<stop offset="1" stop-color="#376D8B"/>
</linearGradient>
<linearGradient id="paint8_linear_2985_3555" x1="346.087" y1="203.055" x2="363.258" y2="231.112" gradientUnits="userSpaceOnUse">
<stop stop-color="#5ED9D1"/>
<stop offset="1" stop-color="#376D8B"/>
</linearGradient>
<linearGradient id="paint9_linear_2985_3555" x1="346.087" y1="217.204" x2="363.266" y2="245.265" gradientUnits="userSpaceOnUse">
<stop stop-color="#5ED9D1"/>
<stop offset="1" stop-color="#376D8B"/>
</linearGradient>
<linearGradient id="paint10_linear_2985_3555" x1="346.087" y1="231.362" x2="363.266" y2="259.423" gradientUnits="userSpaceOnUse">
<stop stop-color="#5ED9D1"/>
<stop offset="1" stop-color="#376D8B"/>
</linearGradient>
<linearGradient id="paint11_linear_2985_3555" x1="346.087" y1="245.52" x2="363.266" y2="273.581" gradientUnits="userSpaceOnUse">
<stop stop-color="#5ED9D1"/>
<stop offset="1" stop-color="#376D8B"/>
</linearGradient>
<linearGradient id="paint12_linear_2985_3555" x1="346.087" y1="259.677" x2="363.266" y2="287.738" gradientUnits="userSpaceOnUse">
<stop stop-color="#5ED9D1"/>
<stop offset="1" stop-color="#376D8B"/>
</linearGradient>
<linearGradient id="paint13_linear_2985_3555" x1="346.087" y1="273.834" x2="363.266" y2="301.895" gradientUnits="userSpaceOnUse">
<stop stop-color="#5ED9D1"/>
<stop offset="1" stop-color="#376D8B"/>
</linearGradient>
<linearGradient id="paint14_linear_2985_3555" x1="346.087" y1="287.99" x2="363.258" y2="316.047" gradientUnits="userSpaceOnUse">
<stop stop-color="#5ED9D1"/>
<stop offset="1" stop-color="#376D8B"/>
</linearGradient>
<linearGradient id="paint15_linear_2985_3555" x1="346.087" y1="302.148" x2="363.258" y2="330.205" gradientUnits="userSpaceOnUse">
<stop stop-color="#5ED9D1"/>
<stop offset="1" stop-color="#376D8B"/>
</linearGradient>
<linearGradient id="paint16_linear_2985_3555" x1="346.087" y1="316.305" x2="363.258" y2="344.362" gradientUnits="userSpaceOnUse">
<stop stop-color="#5ED9D1"/>
<stop offset="1" stop-color="#376D8B"/>
</linearGradient>
<linearGradient id="paint17_linear_2985_3555" x1="15.472" y1="389.928" x2="15.472" y2="424.284" gradientUnits="userSpaceOnUse">
<stop stop-color="#C5F7D0"/>
<stop offset="0.511466" stop-color="#BEF0ED"/>
<stop offset="1" stop-color="#BECCF1"/>
</linearGradient>
<linearGradient id="paint18_linear_2985_3555" x1="15.472" y1="405.343" x2="15.472" y2="439.699" gradientUnits="userSpaceOnUse">
<stop stop-color="#C5F7D0"/>
<stop offset="0.511466" stop-color="#BEF0ED"/>
<stop offset="1" stop-color="#BECCF1"/>
</linearGradient>
<linearGradient id="paint19_linear_2985_3555" x1="15.472" y1="420.757" x2="15.472" y2="455.113" gradientUnits="userSpaceOnUse">
<stop stop-color="#C5F7D0"/>
<stop offset="0.511466" stop-color="#BEF0ED"/>
<stop offset="1" stop-color="#BECCF1"/>
</linearGradient>
<linearGradient id="paint20_linear_2985_3555" x1="15.472" y1="436.172" x2="15.472" y2="470.528" gradientUnits="userSpaceOnUse">
<stop stop-color="#C5F7D0"/>
<stop offset="0.511466" stop-color="#BEF0ED"/>
<stop offset="1" stop-color="#BECCF1"/>
</linearGradient>
<linearGradient id="paint21_linear_2985_3555" x1="15.472" y1="451.586" x2="15.472" y2="485.942" gradientUnits="userSpaceOnUse">
<stop stop-color="#C5F7D0"/>
<stop offset="0.511466" stop-color="#BEF0ED"/>
<stop offset="1" stop-color="#BECCF1"/>
</linearGradient>
<linearGradient id="paint22_linear_2985_3555" x1="15.472" y1="467.001" x2="15.472" y2="501.357" gradientUnits="userSpaceOnUse">
<stop stop-color="#C5F7D0"/>
<stop offset="0.511466" stop-color="#BEF0ED"/>
<stop offset="1" stop-color="#BECCF1"/>
</linearGradient>
<linearGradient id="paint23_linear_2985_3555" x1="15.472" y1="482.405" x2="15.472" y2="516.772" gradientUnits="userSpaceOnUse">
<stop stop-color="#C5F7D0"/>
<stop offset="0.511466" stop-color="#BEF0ED"/>
<stop offset="1" stop-color="#BECCF1"/>
</linearGradient>
<linearGradient id="paint24_linear_2985_3555" x1="15.472" y1="497.83" x2="15.472" y2="532.186" gradientUnits="userSpaceOnUse">
<stop stop-color="#C5F7D0"/>
<stop offset="0.511466" stop-color="#BEF0ED"/>
<stop offset="1" stop-color="#BECCF1"/>
</linearGradient>
<linearGradient id="paint25_linear_2985_3555" x1="15.472" y1="513.234" x2="15.472" y2="547.601" gradientUnits="userSpaceOnUse">
<stop stop-color="#C5F7D0"/>
<stop offset="0.511466" stop-color="#BEF0ED"/>
<stop offset="1" stop-color="#BECCF1"/>
</linearGradient>
<linearGradient id="paint26_linear_2985_3555" x1="15.472" y1="528.649" x2="15.472" y2="563.016" gradientUnits="userSpaceOnUse">
<stop stop-color="#C5F7D0"/>
<stop offset="0.511466" stop-color="#BEF0ED"/>
<stop offset="1" stop-color="#BECCF1"/>
</linearGradient>
<linearGradient id="paint27_linear_2985_3555" x1="15.472" y1="544.063" x2="15.472" y2="578.43" gradientUnits="userSpaceOnUse">
<stop stop-color="#C5F7D0"/>
<stop offset="0.511466" stop-color="#BEF0ED"/>
<stop offset="1" stop-color="#BECCF1"/>
</linearGradient>
<linearGradient id="paint28_linear_2985_3555" x1="15.472" y1="559.479" x2="15.472" y2="593.845" gradientUnits="userSpaceOnUse">
<stop stop-color="#C5F7D0"/>
<stop offset="0.511466" stop-color="#BEF0ED"/>
<stop offset="1" stop-color="#BECCF1"/>
</linearGradient>
<linearGradient id="paint29_linear_2985_3555" x1="15.472" y1="574.893" x2="15.472" y2="609.26" gradientUnits="userSpaceOnUse">
<stop stop-color="#C5F7D0"/>
<stop offset="0.511466" stop-color="#BEF0ED"/>
<stop offset="1" stop-color="#BECCF1"/>
</linearGradient>
<linearGradient id="paint30_linear_2985_3555" x1="15.472" y1="590.308" x2="15.472" y2="624.664" gradientUnits="userSpaceOnUse">
<stop stop-color="#C5F7D0"/>
<stop offset="0.511466" stop-color="#BEF0ED"/>
<stop offset="1" stop-color="#BECCF1"/>
</linearGradient>
<linearGradient id="paint31_linear_2985_3555" x1="15.472" y1="605.723" x2="15.472" y2="640.079" gradientUnits="userSpaceOnUse">
<stop stop-color="#C5F7D0"/>
<stop offset="0.511466" stop-color="#BEF0ED"/>
<stop offset="1" stop-color="#BECCF1"/>
</linearGradient>
<linearGradient id="paint32_linear_2985_3555" x1="15.472" y1="621.137" x2="15.472" y2="655.493" gradientUnits="userSpaceOnUse">
<stop stop-color="#C5F7D0"/>
<stop offset="0.511466" stop-color="#BEF0ED"/>
<stop offset="1" stop-color="#BECCF1"/>
</linearGradient>
<clipPath id="clip0_2985_3555">
<rect width="259" height="49" fill="white" transform="matrix(-4.37114e-08 1 1 4.37114e-08 335 97.7686)"/>
</clipPath>
<clipPath id="clip1_2985_3555">
<rect width="282" height="53" fill="white" transform="matrix(-4.37114e-08 1 1 4.37114e-08 -11.0332 389.418)"/>
</clipPath>
</defs>
</svg>
