<svg width="110" height="75" viewBox="0 0 110 75" fill="none" xmlns="http://www.w3.org/2000/svg">
<g filter="url(#filter0_d_3052_3560)">
<path fill-rule="evenodd" clip-rule="evenodd" d="M43.9907 44.0492L43.9637 44.0338L87.0083 13.921C88.6745 12.4046 86.4529 11.9713 83.9535 13.0545L31.1892 39.2677L8.13946 33.6351C3.41844 32.5519 3.41844 29.7356 9.25029 28.0025L98.3943 1.13936C102.56 -0.377104 106.448 1.78928 105.059 6.55532L89.7854 62.448C88.6745 66.3475 85.342 67.4307 81.4541 65.481L58.3675 52.2738L47.0468 60.7122C46.8906 60.8097 46.7379 60.9072 46.5871 61.0034C45.3978 61.7627 44.3287 62.4452 42.6035 62.4452L43.9907 44.0492Z" fill="#ECFFFE"/>
</g>
<defs>
<filter id="filter0_d_3052_3560" x="0.726562" y="0.661133" width="108.619" height="73.7671" filterUnits="userSpaceOnUse" color-interpolation-filters="sRGB">
<feFlood flood-opacity="0" result="BackgroundImageFix"/>
<feColorMatrix in="SourceAlpha" type="matrix" values="0 0 0 0 0 0 0 0 0 0 0 0 0 0 0 0 0 0 127 0" result="hardAlpha"/>
<feOffset dy="4"/>
<feGaussianBlur stdDeviation="2"/>
<feComposite in2="hardAlpha" operator="out"/>
<feColorMatrix type="matrix" values="0 0 0 0 0 0 0 0 0 0 0 0 0 0 0 0 0 0 0.25 0"/>
<feBlend mode="normal" in2="BackgroundImageFix" result="effect1_dropShadow_3052_3560"/>
<feBlend mode="normal" in="SourceGraphic" in2="effect1_dropShadow_3052_3560" result="shape"/>
</filter>
</defs>
</svg>
