<svg width="112" height="90" viewBox="0 0 112 90" fill="none" xmlns="http://www.w3.org/2000/svg">
<g opacity="0.9" filter="url(#filter0_d_2560_3419)">
<path d="M107.708 10.2023C103.835 11.8481 99.7268 12.929 95.5209 13.4092C99.9541 10.8624 103.272 6.85425 104.857 2.13165C100.696 4.50997 96.1348 6.17674 91.3806 7.07836C88.1872 3.79637 83.9544 1.61975 79.3403 0.886861C74.7262 0.153976 69.9893 0.905899 65.8659 3.02573C61.7426 5.14556 58.4639 8.51453 56.5395 12.6089C54.6152 16.7033 54.153 21.2936 55.2248 25.6663C46.7877 25.2601 38.5337 23.1541 30.9989 19.4849C23.4641 15.8158 16.8169 10.6656 11.4888 4.36864C9.60279 7.48019 8.6117 11.0173 8.617 14.6178C8.617 21.6846 12.3615 27.9276 18.0543 31.5828C14.6853 31.481 11.3905 30.6071 8.4445 29.034V29.2874C8.44551 33.9938 10.141 38.5551 13.2435 42.1978C16.346 45.8406 20.6646 48.3406 25.4671 49.274C22.3396 50.0881 19.0604 50.2081 15.8776 49.6249C17.2316 53.676 19.8707 57.219 23.4253 59.7577C26.9799 62.2964 31.2721 63.7038 35.7009 63.7828C31.2993 67.1033 26.2595 69.5579 20.8696 71.0063C15.4797 72.4547 9.84551 72.8684 4.28906 72.2238C13.9886 78.2156 25.2798 81.3966 36.812 81.3862C75.8447 81.3862 97.1901 50.3267 97.1901 23.3903C97.1901 22.5131 97.1648 21.6261 97.1242 20.7586C101.279 17.8742 104.865 14.3011 107.713 10.2072L107.708 10.2023Z" fill="#ECFFFE"/>
</g>
<defs>
<filter id="filter0_d_2560_3419" x="0.289062" y="0.61377" width="111.424" height="88.7725" filterUnits="userSpaceOnUse" color-interpolation-filters="sRGB">
<feFlood flood-opacity="0" result="BackgroundImageFix"/>
<feColorMatrix in="SourceAlpha" type="matrix" values="0 0 0 0 0 0 0 0 0 0 0 0 0 0 0 0 0 0 127 0" result="hardAlpha"/>
<feOffset dy="4"/>
<feGaussianBlur stdDeviation="2"/>
<feComposite in2="hardAlpha" operator="out"/>
<feColorMatrix type="matrix" values="0 0 0 0 0 0 0 0 0 0 0 0 0 0 0 0 0 0 0.25 0"/>
<feBlend mode="normal" in2="BackgroundImageFix" result="effect1_dropShadow_2560_3419"/>
<feBlend mode="normal" in="SourceGraphic" in2="effect1_dropShadow_2560_3419" result="shape"/>
</filter>
</defs>
</svg>
