<svg width="1280" height="1525" viewBox="0 0 1280 1525" fill="none" xmlns="http://www.w3.org/2000/svg">
<path d="M1586 322C1763.59 471.042 1567.79 1110.7 1524 1188C1236 1154 -322 1424 103.242 883.289C267.868 673.96 528.778 779.219 569.242 591.288C609.707 403.358 905.776 370.738 993.525 363.192C1081.28 355.646 1169.77 212.788 1252 152C1334.23 91.2119 1452.98 210.362 1586 322Z" fill="url(#paint0_linear_1553_4074)"/>
<g style="mix-blend-mode:multiply">
<path d="M1198.95 400.809C1199.91 403.814 1200.19 407.055 1199.75 410.296C1198.61 420.608 1193.41 430.257 1185.44 436.939C1185.18 433.165 1183.35 429.82 1180.42 427.786C1177.13 431.448 1175.32 436.242 1175.38 441.064C1175.38 441.402 1175.39 441.74 1175.4 442.07C1164.9 446.637 1149.01 456.768 1156.1 469.733C1161.91 480.363 1180.9 473.821 1189.56 469.344C1190.64 468.782 1191.69 468.192 1192.71 467.563C1194.98 468.463 1197.46 468.758 1199.94 468.413C1204.58 467.878 1208.96 465.419 1212.07 461.607C1210.17 459.292 1207.43 457.884 1204.43 457.666C1210.94 450.124 1215.09 440.763 1216.25 430.984C1218.35 417.376 1213.6 404.113 1203.69 395.958C1204.24 393.617 1204.27 391.219 1203.8 388.948C1202.91 384.18 1200.56 379.937 1197.11 376.834C1194.83 379.031 1193.82 383.147 1194.72 388.039C1194.91 389.104 1195.18 390.141 1195.53 391.15C1194.73 390.503 1193.88 389.923 1192.99 389.414C1188.86 387.074 1184.87 386.908 1182.24 388.591C1184.02 393.025 1187.14 396.651 1191.15 398.944C1193.44 400.389 1196.17 401.042 1198.95 400.809ZM1204.14 416.155C1207.16 424.208 1206.37 433.529 1201.98 441.456C1197.01 451.076 1187.83 457.721 1177.68 459.073C1186.28 455.808 1193.74 449.576 1198.76 441.471C1203.28 433.718 1205.18 424.775 1204.14 416.155Z" fill="#BEF0ED"/>
</g>
<g style="mix-blend-mode:multiply">
<path d="M666.354 762.281C668.255 762.405 670.142 762.959 671.87 763.918C677.424 766.825 681.715 771.867 683.725 777.825C681.545 777.139 679.259 777.437 677.47 778.64C678.81 781.295 681.111 783.369 683.838 784.394C684.03 784.465 684.221 784.537 684.41 784.599C684.674 791.517 686.889 802.684 695.744 801.541C703.003 800.605 703.492 788.476 702.872 782.622C702.792 781.891 702.691 781.169 702.562 780.453C703.567 779.375 704.277 778.044 704.628 776.571C705.346 773.841 704.922 770.839 703.461 768.246C701.741 768.808 700.346 770.042 699.564 771.684C696.748 766.363 692.39 761.97 687.139 759.17C679.94 755 671.431 754.762 664.665 758.548C663.467 757.726 662.123 757.183 660.741 756.949C657.861 756.405 654.957 756.794 652.453 758.055C653.189 759.821 655.283 761.295 658.235 761.864C658.877 761.988 659.52 762.064 660.166 762.087C659.625 762.397 659.111 762.75 658.629 763.139C656.406 764.946 655.437 767.157 655.807 769.007C658.692 768.981 661.419 768.02 663.591 766.266C664.908 765.292 665.874 763.9 666.354 762.281ZM676.131 762.733C681.328 762.801 686.402 765.293 689.901 769.504C694.224 774.416 695.95 781.039 694.482 787.051C694.533 781.492 692.663 775.923 689.201 771.321C685.83 767.074 681.212 764.041 676.131 762.733Z" fill="#BEF0ED"/>
</g>
<g style="mix-blend-mode:multiply" filter="url(#filter0_d_1553_4074)">
<path fill-rule="evenodd" clip-rule="evenodd" d="M956.748 663.593C944.024 692.926 925.961 715.823 902.539 732.266C909.323 722.604 904.865 712.995 889.184 703.419C880.209 715.635 877.281 729.973 880.379 746.437C865.772 754.184 854.037 761.822 845.215 769.368C846.031 764.085 847.774 759.875 850.426 756.782C851.771 755.203 853.382 753.937 855.236 752.965C856.693 752.241 857.799 751.477 858.552 750.653C859.269 749.932 859.715 749.126 859.868 748.254C859.873 747.987 859.899 747.739 859.904 747.472C859.831 746.245 859.262 744.986 858.196 743.653C858.038 743.416 857.781 743.247 857.446 743.144C857.239 743.115 857.071 743.063 856.923 742.99C856.657 743.006 856.432 743.019 856.269 743.049C855.899 743.051 855.575 743.132 855.317 743.291C855.223 743.44 855.255 743.623 855.413 743.86C857.06 746.328 856.48 748.313 853.691 749.813C853.374 750.017 852.996 750.224 852.577 750.434C852.355 750.509 852.135 750.604 851.936 750.718C846.796 753.118 842.893 756.964 840.228 762.275C839.461 763.881 838.763 765.626 838.133 767.47C836.933 770.806 835.956 774.764 835.199 779.305C835.046 779.499 834.892 779.672 834.739 779.866C825.829 790.764 824.449 802.095 830.596 813.841C836.675 825.467 844.785 832.189 854.946 834.006C858.245 834.528 861.923 834.493 865.98 833.923C866.256 834.071 866.635 834.213 867.094 834.329C871.499 835.811 875.463 836.786 878.985 837.233C880.936 837.548 882.794 837.684 884.517 837.622C890.485 837.718 895.71 836.052 900.149 832.585C900.361 832.347 900.577 832.17 900.755 832.056C901.107 831.748 901.401 831.505 901.657 831.325C904.347 829.543 906.404 829.913 907.81 832.457C907.909 832.739 908.058 832.832 908.302 832.777C908.523 832.702 908.758 832.503 909.006 832.181C909.055 831.972 909.127 831.804 909.221 831.655C909.271 831.446 909.321 831.259 909.37 831.05C909.41 830.679 909.371 830.373 909.293 830.09C908.602 828.51 907.717 827.454 906.615 826.904C906.398 826.711 906.186 826.601 905.979 826.572C905.139 826.273 904.235 826.286 903.247 826.612C902.154 826.903 900.958 827.528 899.638 828.49C897.942 829.699 896.1 830.527 894.115 831.015C890.166 832.03 885.683 831.661 880.645 829.909C886.136 827.878 892.102 825.182 898.563 821.841C905.039 818.396 911.6 813.961 918.246 808.536C929.2 816.423 944.988 815.729 965.61 806.453C961.129 796.805 952.425 791.843 939.476 791.526C971.429 761.971 985.628 721.834 982.033 671.16C995.296 664.314 1005.33 652.241 1012.13 634.961C1001.33 634.414 989.591 637.577 976.907 644.471C969.926 635.649 959.308 631.334 945.055 631.568L956.748 663.593ZM932.274 759.665C917.708 776.729 897.174 787.478 877.826 788.117C895.401 783.601 912.591 773.318 926.38 759.092C939.052 745.425 947.614 729.026 950.65 712.71C951.581 728.338 944.8 745.637 932.274 759.665Z" fill="#5ED9D1"/>
</g>
<g style="mix-blend-mode:multiply">
<path fill-rule="evenodd" clip-rule="evenodd" d="M1090.97 487.187C1075.27 495.954 1063.46 507.348 1055.57 521.379C1060.6 517.041 1066.23 518.997 1072.47 527.237C1066.13 532.946 1058.27 535.388 1048.88 534.577C1045.37 543.187 1041.75 550.184 1038.02 555.545C1040.93 554.792 1043.19 553.58 1044.77 551.922C1045.58 551.081 1046.2 550.109 1046.64 549.016C1046.96 548.16 1047.33 547.498 1047.75 547.031C1048.11 546.589 1048.54 546.294 1049.02 546.159C1049.16 546.142 1049.3 546.113 1049.45 546.096C1050.14 546.068 1050.88 546.315 1051.68 546.837C1051.83 546.912 1051.94 547.047 1052.01 547.228C1052.04 547.343 1052.08 547.434 1052.13 547.513C1052.13 547.663 1052.14 547.789 1052.13 547.882C1052.15 548.089 1052.12 548.275 1052.05 548.428C1051.97 548.489 1051.87 548.482 1051.73 548.407C1050.25 547.623 1049.17 548.059 1048.49 549.704C1048.39 549.893 1048.3 550.116 1048.2 550.363C1048.18 550.491 1048.13 550.62 1048.08 550.737C1047.03 553.749 1045.09 556.149 1042.27 557.938C1041.41 558.458 1040.48 558.946 1039.48 559.403C1037.68 560.261 1035.52 561.029 1033.02 561.708C1032.92 561.804 1032.83 561.9 1032.73 561.997C1027.13 567.595 1020.87 569.003 1013.95 566.22C1007.1 563.47 1002.88 559.307 1001.29 553.722C1000.82 551.904 1000.63 549.844 1000.72 547.541C1000.62 547.395 1000.52 547.191 1000.43 546.941C999.356 544.558 998.588 542.394 998.141 540.448C997.855 539.373 997.675 538.341 997.613 537.373C997.225 534.038 997.864 531.02 999.556 528.341C999.677 528.209 999.764 528.078 999.818 527.972C999.971 527.758 1000.09 527.58 1000.18 527.426C1001.02 525.821 1000.7 524.69 999.198 524.046C999.035 524.007 998.974 523.928 998.992 523.789C999.021 523.661 999.119 523.518 999.286 523.361C999.4 523.322 999.49 523.272 999.568 523.211C999.682 523.172 999.784 523.133 999.898 523.094C1000.1 523.051 1000.28 523.055 1000.44 523.083C1001.36 523.381 1002 523.818 1002.37 524.403C1002.49 524.514 1002.57 524.627 1002.59 524.741C1002.81 525.194 1002.85 525.701 1002.73 526.272C1002.62 526.9 1002.34 527.605 1001.88 528.398C1001.3 529.415 1000.93 530.492 1000.77 531.631C1000.43 533.898 1000.88 536.386 1002.15 539.108C1002.98 535.92 1004.15 532.43 1005.66 528.626C1007.22 524.808 1009.34 520.888 1012 516.864C1006.97 511.175 1006.48 502.299 1010.51 490.236C1016.16 492.204 1019.43 496.797 1020.33 504.027C1035.08 484.485 1056.75 474.288 1085.32 473.459C1088.41 465.652 1094.6 459.36 1103.89 454.584C1104.8 460.601 1103.69 467.346 1100.54 474.832C1105.87 478.245 1108.88 483.946 1109.55 491.937L1090.97 487.187ZM1038.57 506.272C1029.84 515.382 1024.97 527.478 1025.7 538.343C1027.24 528.253 1032.03 518.054 1039.22 509.539C1046.16 501.68 1054.86 495.969 1063.82 493.354C1055.02 493.709 1045.72 498.475 1038.57 506.272Z" fill="#BEF0ED"/>
</g>
<g style="mix-blend-mode:multiply">
<path fill-rule="evenodd" clip-rule="evenodd" d="M1106.91 769.371C1095.63 768.861 1085.57 771.041 1076.72 775.923C1080.84 775.268 1083.2 778.172 1083.8 784.631C1078.54 785.584 1073.54 784.291 1068.79 780.756C1064.07 784.189 1059.83 786.728 1056.07 788.356C1057.87 788.916 1059.48 789.016 1060.87 788.654C1061.58 788.472 1062.23 788.157 1062.82 787.72C1063.28 787.37 1063.69 787.137 1064.07 787.027C1064.41 786.911 1064.74 786.894 1065.04 786.981C1065.12 787.021 1065.21 787.051 1065.29 787.091C1065.67 787.304 1065.98 787.68 1066.24 788.224C1066.29 788.311 1066.3 788.419 1066.28 788.541C1066.26 788.611 1066.25 788.673 1066.25 788.731C1066.2 788.813 1066.17 788.882 1066.13 788.929C1066.07 789.046 1066 789.137 1065.91 789.194C1065.84 789.2 1065.79 789.162 1065.74 789.075C1065.21 788.17 1064.49 788.047 1063.59 788.699C1063.47 788.768 1063.35 788.855 1063.22 788.956C1063.16 789.015 1063.09 789.07 1063.03 789.115C1061.47 790.374 1059.64 791.016 1057.54 791.038C1056.92 791.032 1056.25 790.983 1055.57 790.897C1054.33 790.761 1052.92 790.457 1051.36 789.993C1051.28 790.012 1051.2 790.034 1051.11 790.052C1046.28 791.189 1042.47 789.871 1039.69 786.1C1036.95 782.369 1036.07 778.755 1037.07 775.25C1037.42 774.122 1038 772.961 1038.81 771.762C1038.8 771.652 1038.82 771.51 1038.85 771.346C1039.06 769.719 1039.37 768.31 1039.77 767.124C1039.98 766.456 1040.22 765.845 1040.51 765.308C1041.4 763.4 1042.74 762.001 1044.53 761.13C1044.64 761.1 1044.73 761.059 1044.79 761.02C1044.94 760.956 1045.07 760.901 1045.16 760.847C1046.14 760.27 1046.35 759.56 1045.76 758.72C1045.68 758.645 1045.68 758.583 1045.73 758.514C1045.79 758.456 1045.89 758.412 1046.03 758.383C1046.1 758.4 1046.17 758.403 1046.23 758.396C1046.3 758.413 1046.37 758.426 1046.45 758.443C1046.57 758.488 1046.66 758.548 1046.74 758.616C1047.13 759.08 1047.33 759.525 1047.33 759.96C1047.36 760.058 1047.36 760.143 1047.34 760.213C1047.3 760.526 1047.16 760.81 1046.9 761.073C1046.64 761.375 1046.26 761.657 1045.75 761.927C1045.1 762.278 1044.55 762.734 1044.09 763.288C1043.16 764.383 1042.58 765.862 1042.35 767.732C1043.85 766.305 1045.63 764.831 1047.69 763.299C1049.79 761.778 1052.21 760.384 1054.96 759.117C1054.16 754.42 1056.83 749.519 1062.97 744.415C1065.33 747.332 1065.56 750.862 1063.65 755.019C1077.98 749.464 1092.91 751.182 1108.43 760.177C1112.66 757.031 1118.04 755.72 1124.58 756.24C1123.08 759.753 1120.26 762.985 1116.1 765.94C1117.82 769.522 1117.54 773.56 1115.26 778.045L1106.91 769.371ZM1072.64 762.243C1064.97 764.218 1058.38 769.066 1055.18 775.105C1059.33 770.23 1065.26 766.37 1071.91 764.201C1078.21 762.3 1084.74 762.126 1090.39 763.692C1085.57 760.974 1079.03 760.444 1072.64 762.243Z" fill="#BEF0ED"/>
</g>
<g style="mix-blend-mode:multiply">
<path fill-rule="evenodd" clip-rule="evenodd" d="M908.128 544.31C900.216 547.338 893.946 551.853 889.323 557.862C891.959 556.179 894.45 557.47 896.803 561.731C893.466 563.965 889.637 564.574 885.315 563.563C883.095 567.339 880.937 570.357 878.838 572.604C880.246 572.45 881.38 572.037 882.23 571.371C882.663 571.033 883.017 570.622 883.296 570.142C883.504 569.765 883.719 569.481 883.946 569.291C884.145 569.11 884.364 569.001 884.596 568.971C884.667 568.973 884.733 568.969 884.804 568.97C885.128 569.004 885.454 569.169 885.795 569.467C885.855 569.511 885.897 569.581 885.921 569.671C885.926 569.726 885.938 569.771 885.955 569.811C885.948 569.882 885.942 569.941 885.932 569.984C885.927 570.082 885.902 570.167 885.857 570.233C885.816 570.256 885.768 570.246 885.708 570.201C885.073 569.736 884.541 569.867 884.112 570.588C884.054 570.669 883.995 570.767 883.935 570.875C883.912 570.933 883.885 570.99 883.852 571.042C883.157 572.374 882.094 573.363 880.657 574.007C880.223 574.191 879.753 574.356 879.258 574.501C878.361 574.78 877.302 574.992 876.092 575.14C876.038 575.178 875.991 575.217 875.938 575.255C872.95 577.487 869.935 577.721 866.897 575.958C863.891 574.214 862.205 571.99 861.842 569.279C861.742 568.4 861.794 567.427 861.992 566.36C861.956 566.285 861.923 566.183 861.898 566.06C861.556 564.877 861.344 563.817 861.267 562.879C861.206 562.359 861.192 561.866 861.228 561.41C861.272 559.83 861.773 558.466 862.742 557.331C862.808 557.278 862.857 557.223 862.889 557.177C862.975 557.088 863.043 557.013 863.093 556.947C863.596 556.256 863.522 555.707 862.865 555.305C862.792 555.276 862.769 555.235 862.786 555.171C862.809 555.114 862.864 555.054 862.952 554.992C863.008 554.981 863.053 554.964 863.094 554.941C863.15 554.93 863.2 554.919 863.256 554.909C863.354 554.902 863.435 554.916 863.509 554.94C863.919 555.141 864.188 555.388 864.321 555.686C864.37 555.746 864.396 555.803 864.402 555.858C864.471 556.084 864.457 556.323 864.359 556.581C864.27 556.867 864.09 557.176 863.821 557.514C863.481 557.949 863.24 558.427 863.088 558.947C862.773 559.98 862.819 561.171 863.225 562.525C863.826 561.095 864.609 559.547 865.568 557.876C866.555 556.202 867.805 554.516 869.318 552.82C867.357 549.83 867.724 545.659 870.418 540.308C872.92 541.606 874.132 543.967 874.066 547.399C882.259 539.284 893.047 535.991 906.418 537.53C908.384 534.099 911.696 531.584 916.348 529.983C916.367 532.85 915.394 535.919 913.423 539.196C915.677 541.146 916.695 544.007 916.468 547.776L908.128 544.31ZM882.415 549.674C877.73 553.332 874.647 558.642 874.253 563.755C875.653 559.156 878.573 554.725 882.499 551.241C886.263 548.045 890.703 545.969 895.056 545.355C890.931 544.927 886.274 546.521 882.415 549.674Z" fill="#BEF0ED"/>
</g>
<g style="mix-blend-mode:multiply">
<path fill-rule="evenodd" clip-rule="evenodd" d="M1158.22 638.272C1150.92 642.566 1145.48 648.055 1141.92 654.746C1144.24 652.649 1146.91 653.511 1149.93 657.325C1147.01 660.08 1143.34 661.313 1138.91 661.03C1137.34 665.122 1135.71 668.455 1134.01 671.018C1135.38 670.633 1136.43 670.038 1137.15 669.241C1137.53 668.836 1137.81 668.372 1138 667.853C1138.14 667.446 1138.31 667.131 1138.5 666.906C1138.67 666.694 1138.87 666.551 1139.09 666.483C1139.16 666.473 1139.23 666.458 1139.3 666.448C1139.62 666.428 1139.97 666.536 1140.35 666.774C1140.42 666.808 1140.47 666.87 1140.51 666.954C1140.53 667.008 1140.55 667.05 1140.57 667.087C1140.57 667.158 1140.58 667.217 1140.58 667.261C1140.59 667.358 1140.58 667.446 1140.54 667.519C1140.51 667.549 1140.46 667.546 1140.39 667.512C1139.69 667.159 1139.18 667.376 1138.88 668.157C1138.84 668.247 1138.79 668.353 1138.75 668.47C1138.74 668.531 1138.72 668.592 1138.7 668.648C1138.23 670.077 1137.35 671.228 1136.04 672.1C1135.64 672.354 1135.2 672.594 1134.74 672.819C1133.9 673.242 1132.89 673.627 1131.72 673.973C1131.68 674.019 1131.64 674.065 1131.59 674.112C1129.01 676.807 1126.08 677.536 1122.79 676.299C1119.54 675.076 1117.51 673.161 1116.7 670.548C1116.46 669.697 1116.35 668.729 1116.37 667.644C1116.32 667.576 1116.27 667.481 1116.22 667.364C1115.69 666.253 1115.31 665.243 1115.08 664.331C1114.93 663.828 1114.83 663.344 1114.79 662.889C1114.58 661.323 1114.85 659.895 1115.61 658.615C1115.67 658.552 1115.71 658.49 1115.73 658.439C1115.8 658.337 1115.86 658.251 1115.9 658.178C1116.28 657.413 1116.11 656.884 1115.4 656.597C1115.32 656.58 1115.29 656.544 1115.3 656.478C1115.31 656.417 1115.36 656.349 1115.43 656.273C1115.49 656.254 1115.53 656.229 1115.57 656.2C1115.62 656.18 1115.67 656.161 1115.72 656.141C1115.82 656.119 1115.9 656.119 1115.97 656.131C1116.41 656.261 1116.72 656.46 1116.9 656.732C1116.96 656.782 1116.99 656.835 1117.01 656.888C1117.11 657.099 1117.14 657.338 1117.08 657.608C1117.04 657.905 1116.92 658.239 1116.71 658.618C1116.44 659.103 1116.29 659.614 1116.22 660.152C1116.08 661.223 1116.32 662.389 1116.95 663.658C1117.3 662.148 1117.82 660.492 1118.49 658.685C1119.19 656.871 1120.14 655.003 1121.35 653.08C1118.93 650.454 1118.6 646.28 1120.37 640.558C1123.05 641.424 1124.64 643.553 1125.14 646.948C1131.88 637.59 1141.97 632.56 1155.42 631.868C1156.79 628.159 1159.64 625.131 1163.96 622.784C1164.45 625.607 1164 628.795 1162.6 632.353C1165.14 633.904 1166.62 636.556 1167.02 640.312L1158.22 638.272ZM1133.75 647.812C1129.73 652.194 1127.57 657.94 1128.03 663.049C1128.65 658.281 1130.8 653.429 1134.09 649.343C1137.28 645.569 1141.31 642.788 1145.5 641.462C1141.36 641.723 1137.03 644.065 1133.75 647.812Z" fill="#BEF0ED"/>
</g>
<g style="mix-blend-mode:multiply">
<path fill-rule="evenodd" clip-rule="evenodd" d="M765.95 621.003C760.863 637.582 760.244 653.387 764.11 668.419C764.716 662.044 769.94 659.653 779.779 661.228C779.177 669.427 775.332 676.371 768.255 682.069C771.549 690.409 773.697 697.693 774.676 703.913C776.201 701.447 776.965 699.097 776.961 696.887C776.963 695.762 776.745 694.672 776.323 693.618C775.977 692.807 775.79 692.102 775.77 691.497C775.728 690.947 775.829 690.457 776.072 690.044C776.164 689.932 776.241 689.821 776.333 689.709C776.796 689.229 777.474 688.91 778.383 688.736C778.531 688.694 778.697 688.714 778.871 688.79C778.967 688.851 779.054 688.889 779.141 688.911C779.245 689.011 779.334 689.096 779.39 689.166C779.542 689.297 779.647 689.444 779.697 689.601C779.684 689.695 779.606 689.76 779.458 689.802C777.909 690.239 777.449 691.262 778.07 692.863C778.129 693.058 778.212 693.277 778.311 693.511C778.376 693.62 778.433 693.737 778.475 693.854C779.749 696.655 780.004 699.616 779.231 702.745C778.982 703.677 778.655 704.643 778.265 705.625C777.585 707.423 776.593 709.399 775.305 711.539C775.3 711.672 775.303 711.798 775.297 711.932C775.132 719.565 771.709 724.724 765.037 727.401C758.434 730.053 752.722 729.968 747.892 727.138C746.348 726.191 744.843 724.881 743.371 723.216C743.205 723.18 742.999 723.105 742.769 722.991C740.43 722.051 738.452 721.056 736.843 720C735.927 719.442 735.113 718.843 734.424 718.211C731.93 716.148 730.362 713.62 729.753 710.627C729.749 710.454 729.723 710.305 729.689 710.195C729.653 709.944 729.617 709.741 729.575 709.576C729.094 707.894 728.115 707.322 726.639 707.875C726.499 707.957 726.405 707.943 726.324 707.834C726.259 707.725 726.232 707.56 726.243 707.34C726.296 707.237 726.326 707.142 726.34 707.047C726.393 706.944 726.438 706.849 726.491 706.745C726.606 706.578 726.73 706.466 726.862 706.377C727.703 705.968 728.44 705.845 729.088 706.006C729.245 706.003 729.372 706.032 729.467 706.094C729.919 706.266 730.287 706.59 730.58 707.072C730.928 707.577 731.201 708.257 731.407 709.118C731.68 710.214 732.147 711.205 732.794 712.105C734.065 713.915 736.043 715.342 738.738 716.394C737.19 713.622 735.679 710.409 734.192 706.755C732.735 703.053 731.592 698.913 730.763 694.335C723.468 693.728 717.202 687.879 711.966 676.79C717.213 674.39 722.55 675.41 728.002 679.842C725.238 656.397 733.523 634.845 752.858 615.216C749.801 607.72 749.917 599.208 753.2 589.686C757.848 593.267 761.572 598.705 764.374 606.017C770.36 604.838 776.259 606.8 782.054 611.917L765.95 621.003ZM742.196 669.241C742.191 681.409 746.871 693.075 754.624 700.155C748.968 692.101 745.502 681.805 744.828 671.081C744.418 660.981 746.665 651.203 751.16 643.405C745.271 649.521 741.973 659.043 742.196 669.241Z" fill="#BEF0ED"/>
</g>
<defs>
<filter id="filter0_d_1553_4074" x="822.831" y="631.559" width="193.3" height="214.078" filterUnits="userSpaceOnUse" color-interpolation-filters="sRGB">
<feFlood flood-opacity="0" result="BackgroundImageFix"/>
<feColorMatrix in="SourceAlpha" type="matrix" values="0 0 0 0 0 0 0 0 0 0 0 0 0 0 0 0 0 0 127 0" result="hardAlpha"/>
<feOffset dy="4"/>
<feGaussianBlur stdDeviation="2"/>
<feComposite in2="hardAlpha" operator="out"/>
<feColorMatrix type="matrix" values="0 0 0 0 1 0 0 0 0 1 0 0 0 0 1 0 0 0 1 0"/>
<feBlend mode="normal" in2="BackgroundImageFix" result="effect1_dropShadow_1553_4074"/>
<feBlend mode="normal" in="SourceGraphic" in2="effect1_dropShadow_1553_4074" result="shape"/>
</filter>
<linearGradient id="paint0_linear_1553_4074" x1="1448.31" y1="1524.96" x2="3.80452" y2="931.794" gradientUnits="userSpaceOnUse">
<stop offset="0.00310139" stop-color="#171753"/>
<stop offset="1" stop-color="#4A9EA1"/>
</linearGradient>
</defs>
</svg>
