<svg width="89" height="119" viewBox="0 0 89 119" fill="none" xmlns="http://www.w3.org/2000/svg">
<path d="M74.042 92.4138C78.436 87.2009 82.7435 82.0908 87.1236 76.9038C87.8409 78.5698 88.1196 80.2233 88.2993 81.8926C88.7693 86.3519 88.391 90.741 87.4507 95.1136C86.9795 97.3125 86.3179 99.4503 85.5716 101.766L82.922 97.4285C81.8113 99.1387 80.7386 100.763 79.583 102.333C73.4419 110.625 65.1143 115.193 54.8763 116.62C48.5444 117.505 42.1631 117.657 35.7952 118.026C34.7157 118.088 33.6366 118.148 32.5585 118.215C32.2451 118.235 31.9832 118.224 31.712 117.979C27.4357 114.118 22.9761 110.459 18.7768 106.513C15.0509 103.01 11.5881 99.2911 8.99758 94.854C5.74862 89.2914 4.45427 83.2667 4.47987 76.9264C4.4875 74.7824 4.67371 72.6533 4.89506 70.4132L0.107142 72.1928C3.07653 64.0596 6.99851 56.8087 14.058 51.6959L14.2852 51.8118L14.9617 71.9733C13.8543 71.5898 12.8433 71.2834 11.8683 70.8874C11.2007 70.6173 11.0875 70.8778 11.0496 71.456C10.8692 74.3202 11.3809 77.1909 12.5423 79.8305C14.1363 83.5595 16.4424 86.7576 19.8595 89.0687C24.9304 92.4968 30.2532 91.8583 34.3526 87.3728C36.9468 84.5337 38.5876 81.1603 39.8876 77.5959C43.0182 69.0179 46.15 60.4408 49.2832 51.8647C51.644 45.4033 54.0019 38.9408 56.3916 32.4909C56.5952 31.9409 56.3628 31.8637 55.9551 31.7241C50.8783 29.9659 45.8051 28.1975 40.7144 26.4701C40.0172 26.2286 39.9194 25.9663 40.1809 25.3391C40.5357 24.49 40.807 23.6119 41.093 22.7388C41.2092 22.4032 41.3626 22.3251 41.7173 22.414C46.1968 23.5441 50.6782 24.6642 55.1615 25.7741C56.0874 26.004 57.0224 26.2031 57.9443 26.4495C58.3072 26.5476 58.4986 26.4973 58.6523 26.1293C59.4716 24.1773 60.3089 22.2332 61.1643 20.2969C61.3124 19.9594 61.2351 19.7657 60.9909 19.5046C57.5597 15.8132 56.7428 11.574 58.765 7.09C60.8917 2.37009 65.5172 0.0222495 70.4861 0.808345C76.9742 1.83546 81.0026 7.57737 79.8691 13.9763C79.0841 18.4027 75.186 22.0749 70.5757 22.6832C70.0033 22.7587 69.7536 22.9444 69.615 23.5104C69.1515 25.4172 68.6376 27.3129 68.1018 29.2011C67.9629 29.6876 68.0419 29.9045 68.5283 30.1199C73.1489 32.1771 77.7534 34.2708 82.37 36.3346C84.1029 37.1097 84.1124 37.0871 83.5057 38.8341C83.3303 39.3404 83.1228 39.8355 82.9899 40.3565C82.857 40.8775 82.637 40.9682 82.1204 40.7828C79.739 39.9289 77.3421 39.115 74.9473 38.2856C72.1878 37.3299 69.4267 36.3833 66.6741 35.4122C66.2567 35.2676 66.0682 35.2671 65.9141 35.75C63.1565 44.2142 60.3872 52.6744 57.6062 61.1305C55.2714 68.2603 52.9128 75.3738 50.6322 82.5176C49.5238 85.9831 48.8945 89.5432 49.3522 93.2141C49.805 96.8185 51.3708 99.7715 54.7292 101.523C57.0086 102.709 59.4802 103.056 62.017 102.827C67.7736 102.309 72.6632 100.061 76.4615 95.6965C76.8291 95.2746 77.1417 94.8077 77.4762 94.3582C77.781 93.9518 77.7963 93.6801 77.1975 93.5002C76.1748 93.1946 75.1684 92.8039 74.042 92.4138ZM70.8574 6.35295C67.9655 5.30599 64.6706 6.61121 63.51 9.49806C63.2129 10.2174 63.0666 10.99 63.0798 11.7693C63.0931 12.5485 63.2656 13.3183 63.587 14.032C63.9084 14.7458 64.372 15.3888 64.9499 15.9222C65.5278 16.4556 66.2079 16.8683 66.9492 17.1355C69.8946 18.2366 73.2221 16.7046 74.3688 13.7109C75.4779 10.8353 73.8737 7.47211 70.8574 6.35295Z" fill="#171753"/>
</svg>
