<svg width="1584" height="480" viewBox="0 0 1584 480" fill="none" xmlns="http://www.w3.org/2000/svg">
<mask id="mask0_2209_3497" style="mask-type:alpha" maskUnits="userSpaceOnUse" x="-76" y="-55" width="1563" height="535">
<rect x="-76" y="-55" width="1563" height="535" fill="#D9D9D9"/>
</mask>
<g mask="url(#mask0_2209_3497)">
<path d="M253.333 205.5C216 153.5 68.8891 102.167 0.000236511 83L0 1282.11H1446.67L1446.67 333C1193.33 308 1080 388 826.667 395.5C573.333 403 493.333 325.5 386.667 308C280 290.5 300 270.5 253.333 205.5Z" fill="#171753"/>
<path d="M916.042 375.414C920.436 370.201 924.743 365.091 929.124 359.904C929.841 361.57 930.12 363.223 930.299 364.893C930.769 369.352 930.391 373.741 929.451 378.114C928.98 380.313 928.318 382.45 927.572 384.766L924.922 380.429C923.811 382.139 922.739 383.763 921.583 385.333C915.442 393.625 907.114 398.193 896.876 399.62C890.544 400.505 884.163 400.657 877.795 401.026C876.716 401.088 875.637 401.148 874.559 401.215C874.245 401.235 873.983 401.224 873.712 400.979C869.436 397.118 864.976 393.459 860.777 389.513C857.051 386.01 853.588 382.291 850.998 377.854C847.749 372.291 846.454 366.267 846.48 359.926C846.487 357.782 846.674 355.653 846.895 353.413L842.107 355.193C845.077 347.06 848.999 339.809 856.058 334.696L856.285 334.812L856.962 354.973C855.854 354.59 854.843 354.283 853.868 353.887C853.201 353.617 853.087 353.878 853.05 354.456C852.869 357.32 853.381 360.191 854.542 362.83C856.136 366.56 858.442 369.758 861.859 372.069C866.93 375.497 872.253 374.858 876.353 370.373C878.947 367.534 880.588 364.16 881.888 360.596C885.018 352.018 888.15 343.441 891.283 334.865C893.644 328.403 896.002 321.941 898.392 315.491C898.595 314.941 898.363 314.864 897.955 314.724C892.878 312.966 887.805 311.197 882.714 309.47C882.017 309.229 881.919 308.966 882.181 308.339C882.536 307.49 882.807 306.612 883.093 305.739C883.209 305.403 883.363 305.325 883.717 305.414C888.197 306.544 892.678 307.664 897.161 308.774C898.087 309.004 899.022 309.203 899.944 309.449C900.307 309.548 900.499 309.497 900.652 309.129C901.472 307.177 902.309 305.233 903.164 303.297C903.312 302.959 903.235 302.766 902.991 302.505C899.56 298.813 898.743 294.574 900.765 290.09C902.892 285.37 907.517 283.022 912.486 283.808C918.974 284.835 923.003 290.577 921.869 296.976C921.084 301.403 917.186 305.075 912.576 305.683C912.003 305.759 911.754 305.944 911.615 306.51C911.151 308.417 910.638 310.313 910.102 312.201C909.963 312.688 910.042 312.905 910.528 313.12C915.149 315.177 919.753 317.271 924.37 319.335C926.103 320.11 926.112 320.087 925.506 321.834C925.33 322.34 925.123 322.836 924.99 323.357C924.857 323.878 924.637 323.968 924.12 323.783C921.739 322.929 919.342 322.115 916.947 321.286C914.188 320.33 911.427 319.383 908.674 318.412C908.257 318.268 908.068 318.267 907.914 318.75C905.157 327.214 902.387 335.674 899.606 344.13C897.271 351.26 894.913 358.374 892.632 365.518C891.524 368.983 890.895 372.543 891.352 376.214C891.805 379.818 893.371 382.771 896.729 384.523C899.009 385.709 901.48 386.056 904.017 385.827C909.774 385.309 914.663 383.061 918.461 378.697C918.829 378.275 919.142 377.808 919.476 377.358C919.781 376.952 919.796 376.68 919.198 376.5C918.175 376.195 917.168 375.804 916.042 375.414ZM912.857 289.353C909.965 288.306 906.671 289.611 905.51 292.498C905.213 293.217 905.067 293.99 905.08 294.769C905.093 295.549 905.266 296.318 905.587 297.032C905.908 297.746 906.372 298.389 906.95 298.922C907.528 299.456 908.208 299.868 908.949 300.136C911.895 301.237 915.222 299.705 916.369 296.711C917.478 293.835 915.874 290.472 912.857 289.353Z" fill="#171753"/>
</g>
</svg>
