<svg width="537" height="742" viewBox="0 0 537 742" fill="none" xmlns="http://www.w3.org/2000/svg">
<g clip-path="url(#clip0_566_1939)">
<path d="M333.803 251.709C333.503 251.709 333.209 251.62 332.959 251.453C332.709 251.287 332.514 251.05 332.399 250.773C332.284 250.496 332.254 250.191 332.313 249.896C332.371 249.602 332.516 249.332 332.729 249.12C332.941 248.908 333.212 248.763 333.507 248.705C333.802 248.646 334.107 248.676 334.385 248.791C334.663 248.906 334.9 249.1 335.067 249.35C335.234 249.599 335.323 249.892 335.323 250.192C335.323 250.595 335.163 250.98 334.878 251.265C334.593 251.549 334.206 251.709 333.803 251.709Z" fill="#5ED9D1"/>
<path d="M59.7966 542.407C59.496 542.407 59.2021 542.318 58.9522 542.151C58.7022 541.985 58.5074 541.748 58.3924 541.471C58.2774 541.194 58.2473 540.889 58.3059 540.594C58.3645 540.3 58.5093 540.03 58.7219 539.818C58.9344 539.606 59.2052 539.461 59.5 539.403C59.7948 539.344 60.1004 539.374 60.3782 539.489C60.6559 539.604 60.8932 539.798 61.0602 540.048C61.2272 540.297 61.3164 540.59 61.3164 540.89C61.3164 541.089 61.2771 541.287 61.2007 541.471C61.1243 541.655 61.0124 541.822 60.8713 541.963C60.7301 542.104 60.5626 542.215 60.3782 542.291C60.1938 542.368 59.9961 542.407 59.7966 542.407Z" fill="#5ED9D1"/>
<path d="M519.908 3.94746C519.607 3.94746 519.313 3.85851 519.064 3.69187C518.814 3.52522 518.619 3.28837 518.504 3.01125C518.389 2.73413 518.359 2.4292 518.417 2.13501C518.476 1.84082 518.621 1.5706 518.833 1.3585C519.046 1.1464 519.317 1.00197 519.611 0.94345C519.906 0.884932 520.212 0.914959 520.49 1.02975C520.767 1.14453 521.005 1.33892 521.172 1.58832C521.339 1.83772 521.428 2.13093 521.428 2.43088C521.428 2.8331 521.268 3.21885 520.983 3.50327C520.698 3.78768 520.311 3.94746 519.908 3.94746Z" fill="#5ED9D1"/>
<path d="M535.48 189.616C535.179 189.619 534.884 189.532 534.632 189.367C534.381 189.202 534.184 188.966 534.067 188.689C533.95 188.412 533.918 188.107 533.975 187.812C534.033 187.517 534.176 187.245 534.388 187.032C534.6 186.819 534.871 186.673 535.166 186.613C535.462 186.554 535.768 186.583 536.046 186.697C536.325 186.812 536.563 187.006 536.73 187.256C536.898 187.506 536.987 187.799 536.987 188.1C536.987 188.5 536.829 188.884 536.547 189.168C536.264 189.452 535.881 189.613 535.48 189.616Z" fill="#5ED9D1"/>
<path d="M177.734 11.6794C177.734 12.517 178.414 13.196 179.254 13.196C180.093 13.196 180.773 12.517 180.773 11.6794C180.773 10.8418 180.093 10.1628 179.254 10.1628C178.414 10.1628 177.734 10.8418 177.734 11.6794Z" fill="#5ED9D1"/>
<path d="M340.157 642.712C339.856 642.712 339.562 642.623 339.313 642.457C339.063 642.29 338.868 642.053 338.753 641.776C338.638 641.499 338.608 641.194 338.666 640.9C338.725 640.606 338.87 640.335 339.082 640.123C339.295 639.911 339.566 639.767 339.86 639.708C340.155 639.65 340.461 639.68 340.739 639.795C341.016 639.909 341.254 640.104 341.421 640.353C341.588 640.603 341.677 640.896 341.677 641.196C341.677 641.598 341.517 641.984 341.232 642.268C340.947 642.553 340.56 642.712 340.157 642.712Z" fill="white"/>
<path d="M87.0043 316.027C87.0043 316.864 87.6848 317.543 88.5241 317.543C89.3635 317.543 90.0439 316.864 90.0439 316.027C90.0439 315.189 89.3635 314.51 88.5241 314.51C87.6848 314.51 87.0043 315.189 87.0043 316.027Z" fill="white"/>
<path d="M190.041 490.682C190.041 491.519 190.722 492.198 191.561 492.198C192.401 492.198 193.081 491.519 193.081 490.682C193.081 489.844 192.401 489.165 191.561 489.165C190.722 489.165 190.041 489.844 190.041 490.682Z" fill="white"/>
<path d="M0.000305109 647.411C0.000305073 648.249 0.680774 648.928 1.52017 648.928C2.35957 648.928 3.04004 648.249 3.04004 647.411C3.04004 646.574 2.35957 645.895 1.52017 645.895C0.680774 645.895 0.000305146 646.574 0.000305109 647.411Z" fill="white"/>
<path d="M468.981 414.443C468.681 414.443 468.387 414.354 468.137 414.187C467.887 414.02 467.692 413.783 467.577 413.506C467.462 413.229 467.432 412.924 467.491 412.63C467.549 412.336 467.694 412.066 467.906 411.854C468.119 411.642 468.39 411.497 468.685 411.439C468.979 411.38 469.285 411.41 469.563 411.525C469.84 411.64 470.078 411.834 470.245 412.083C470.412 412.333 470.501 412.626 470.501 412.926C470.501 413.328 470.341 413.714 470.056 413.998C469.771 414.283 469.384 414.443 468.981 414.443Z" fill="white"/>
<g clip-path="url(#clip1_566_1939)">
<path d="M318.041 41.2752L304.726 31.2576L280.127 50.3981L304.726 40.8278L318.041 41.2752Z" fill="url(#paint0_linear_566_1939)"/>
<path d="M246.335 48.6782L265.294 31.2576L283.674 40.8278L289.614 43.0149L280.127 50.3981L269.362 39.8469L246.335 48.6782Z" fill="url(#paint1_linear_566_1939)"/>
<path d="M280.127 50.3981L286.022 48.1049L269.362 39.8469L280.127 50.3981Z" fill="#66A0B0"/>
</g>
<g clip-path="url(#clip2_566_1939)">
<path d="M246.041 121.327L235.642 114L216.432 128L235.642 121L246.041 121.327Z" fill="url(#paint2_linear_566_1939)"/>
<path d="M190.041 126.742L204.847 114L219.202 121L223.84 122.6L216.431 128L208.024 120.283L190.041 126.742Z" fill="url(#paint3_linear_566_1939)"/>
<path d="M216.432 128L221.035 126.323L208.024 120.282L216.432 128Z" fill="#66A0B0"/>
</g>
</g>
<defs>
<linearGradient id="paint0_linear_566_1939" x1="280.127" y1="40.8278" x2="318.041" y2="40.8278" gradientUnits="userSpaceOnUse">
<stop stop-color="#F5FFFD"/>
<stop offset="1" stop-color="#F6FFFF"/>
</linearGradient>
<linearGradient id="paint1_linear_566_1939" x1="246.335" y1="40.8278" x2="289.614" y2="40.8278" gradientUnits="userSpaceOnUse">
<stop stop-color="#F5FFFD"/>
<stop offset="1" stop-color="#F6FFFF"/>
</linearGradient>
<linearGradient id="paint2_linear_566_1939" x1="216.432" y1="121" x2="246.041" y2="121" gradientUnits="userSpaceOnUse">
<stop stop-color="#F5FFFD"/>
<stop offset="1" stop-color="#F6FFFF"/>
</linearGradient>
<linearGradient id="paint3_linear_566_1939" x1="190.041" y1="121" x2="223.84" y2="121" gradientUnits="userSpaceOnUse">
<stop stop-color="#F5FFFD"/>
<stop offset="1" stop-color="#F6FFFF"/>
</linearGradient>
<clipPath id="clip0_566_1939">
<rect width="772" height="537" fill="white" transform="translate(537 0.914307) rotate(90)"/>
</clipPath>
<clipPath id="clip1_566_1939">
<rect width="71.7063" height="19.1405" fill="white" transform="translate(246.335 31.2576)"/>
</clipPath>
<clipPath id="clip2_566_1939">
<rect width="56" height="14" fill="white" transform="translate(190.041 114)"/>
</clipPath>
</defs>
</svg>
