<svg width="402" height="368" viewBox="0 0 402 368" fill="none" xmlns="http://www.w3.org/2000/svg">
<g opacity="0.96">
<path d="M269.285 59.575C269.285 59.575 202.179 87.0717 186.216 94.6801C170.253 102.289 192.405 105.865 189.545 110.247C186.685 114.629 150.447 115.74 136.481 118.54C122.515 121.34 121.183 139.205 117.098 143.435C113.013 147.665 14.5408 234.736 0 251.307L92.2985 196.77C92.2985 196.77 149.66 132.737 269.285 59.575Z" fill="url(#paint0_linear_2455_4230)" style="mix-blend-mode:screen"/>
</g>
<g opacity="0.96">
<path d="M196.809 250.089C196.809 250.089 250.841 217.601 295.159 177.581C295.159 177.581 261.766 209.537 242.988 226.351C228.251 239.544 228.977 245.098 225.345 252.052C224.269 254.068 222.685 255.764 220.752 256.971C218.818 258.178 216.604 258.854 214.33 258.93L196.809 250.089Z" fill="url(#paint1_linear_2455_4230)" style="mix-blend-mode:screen"/>
</g>
<g opacity="0.96">
<path d="M218.778 94.665C218.778 94.665 173.098 137.272 164.186 144.424C155.273 151.576 158.799 147.467 150.386 165.941C141.973 184.414 122.318 194.974 122.318 194.974L129.566 198.459C136.007 188.803 143.084 179.591 150.749 170.886C162.854 157.282 167.015 147.254 178.288 135.507C189.56 123.76 218.778 94.665 218.778 94.665Z" fill="url(#paint2_linear_2455_4230)" style="mix-blend-mode:screen"/>
</g>
<g opacity="0.96">
<path d="M255.833 127.031C255.833 127.031 217.234 173.321 208.322 180.549C199.41 187.777 202.936 183.683 194.523 202.065C186.11 220.447 166.455 231.114 166.455 231.114L173.688 234.599C180.135 224.947 187.211 215.736 194.871 207.026C206.976 193.407 212.377 179.636 223.62 167.843C234.862 156.05 255.833 127.031 255.833 127.031Z" fill="url(#paint3_linear_2455_4230)" style="mix-blend-mode:screen"/>
</g>
<g opacity="0.96">
<path d="M249.191 276.81C249.191 276.81 290.968 222.654 303.829 197.85C313.619 178.966 328.326 149.719 328.326 149.719C328.326 149.719 312 190.12 309.261 200.072C306.522 210.024 306.068 217.023 299.986 221.862C293.903 226.701 296.581 220.569 294.07 221.041C291.558 221.512 285.975 225.256 284.189 238.023C282.404 250.79 260.842 282.775 260.842 282.775L249.191 276.81Z" fill="url(#paint4_linear_2455_4230)" style="mix-blend-mode:screen"/>
</g>
<path opacity="0.44" fill-rule="evenodd" clip-rule="evenodd" d="M187.26 196.694L188.501 193.118C188.985 191.702 200.696 158.119 215.963 135.75C231.23 113.382 286.473 57.0337 308.065 46.3819C320.518 40.2952 347.178 34.528 368.589 29.9325C377.455 28.0304 385.127 26.387 389.272 25.2153L392.768 24.2415L401.438 33.2346L400.863 36.278C400.394 38.7735 389.257 97.693 378.408 118.449C371.448 131.703 353.851 157.419 341.141 169.486C321.774 187.898 300.787 209.202 289.59 216.536C266.894 231.205 229.566 233.701 228.143 234.142L224.542 235.283L187.26 196.694Z" fill="#100023"/>
<path fill-rule="evenodd" clip-rule="evenodd" d="M172.25 179.833L173.536 176.121C174.035 174.599 186.186 139.828 202.043 116.562C217.9 93.2955 275.261 34.8173 297.67 23.7394C310.607 17.3788 338.297 11.4442 360.539 6.66617C369.754 4.68798 377.713 2.9837 382.025 1.76636L385.641 0.746826L394.644 10.09L393.993 13.3159C393.509 15.918 381.889 77.0896 370.677 98.53C363.459 112.225 340.233 135.4 327.024 147.939C306.9 167.051 286.337 184.292 274.626 191.84C251.021 207.056 216.039 218.21 214.556 218.682L210.909 219.854L172.25 179.833Z" fill="url(#paint5_linear_2455_4230)"/>
<path fill-rule="evenodd" clip-rule="evenodd" d="M365.048 96.0192C375.942 75.2483 384.294 16.0396 384.294 16.0396L379.755 11.3833C365.124 15.4918 317.567 20.9699 300 29.6435C279.029 39.9605 222.742 97.1757 207.248 119.894C191.754 142.613 179.604 177.718 179.604 177.718L196.399 195.142L213.209 212.55C213.209 212.55 248.479 201.411 271.539 186.544C294.598 171.677 354.154 116.79 365.048 96.0192Z" fill="url(#paint6_linear_2455_4230)"/>
<path fill-rule="evenodd" clip-rule="evenodd" d="M341.762 104.525C350.417 88.1369 355.743 40.0061 355.743 40.0061C355.743 40.0061 304.797 45.7428 290.937 52.6056C274.46 60.8075 229.884 106.047 217.598 123.988C205.312 141.928 195.598 169.638 195.598 169.638L208.731 183.333L221.865 196.952C221.865 196.952 249.66 188.02 267.848 176.227C286.035 164.434 333.092 120.944 341.762 104.525Z" fill="url(#paint7_linear_2455_4230)"/>
<path opacity="0.2" fill-rule="evenodd" clip-rule="evenodd" d="M216.643 190.12L209.789 182.359L325.767 67.0769L338.114 79.8895L216.643 190.12Z" fill="#570E23"/>
<path opacity="0.2" fill-rule="evenodd" clip-rule="evenodd" d="M225.179 156.658L213.438 147.087L308.808 55.5425L322.607 58.4641L225.179 156.658Z" fill="#B7592F"/>
<path opacity="0.2" fill-rule="evenodd" clip-rule="evenodd" d="M323.727 92.9456L332.487 100.524L303.028 127.381L290.771 122.892L323.727 92.9456Z" fill="#B7592F"/>
<path opacity="0.2" fill-rule="evenodd" clip-rule="evenodd" d="M279.06 133.483L291.816 137.409L287.715 141.335L275.641 136.831L279.06 133.483Z" fill="#8B0E23"/>
<path opacity="0.2" fill-rule="evenodd" clip-rule="evenodd" d="M303.162 78.0635L309.335 82.7198L294.583 97.4954L287.607 94.239L303.162 78.0635Z" fill="#8B0E23"/>
<path opacity="0.2" fill-rule="evenodd" clip-rule="evenodd" d="M253.867 98.0432L257.65 104.693L317.689 46.8843L303.3 49.8363L253.867 98.0432Z" fill="#7B3723"/>
<path opacity="0.2" fill-rule="evenodd" clip-rule="evenodd" d="M217.869 190.561L246.89 164.86L256.574 169.729L227.568 194.837L223.241 196.115L217.869 190.561Z" fill="#7B3723"/>
<g style="mix-blend-mode:soft-light" opacity="0.2">
<path fill-rule="evenodd" clip-rule="evenodd" d="M259.299 103.673L273.703 107.751L278.727 102.441L266.047 97.2517L259.299 103.673Z" fill="#B30E23"/>
</g>
<g style="mix-blend-mode:soft-light" opacity="0.2">
<path fill-rule="evenodd" clip-rule="evenodd" d="M269.24 93.402L280.619 100.691L271.011 91.8955L269.24 93.402Z" fill="#B30E23"/>
</g>
<path d="M304.807 47.9919L205.967 144.791L206.188 145.02L305.029 48.2208L304.807 47.9919Z" fill="#7D2B3D"/>
<path d="M319.357 45.3194L198.518 161.33L198.737 161.561L319.577 45.5505L319.357 45.3194Z" fill="#7D2B3D"/>
<path d="M204.584 177.627L204.357 177.399L338.629 42.0908L338.856 42.3191L204.584 177.627Z" fill="#7D2B3D"/>
<path d="M348.163 44.864L208.613 183.067L208.836 183.294L348.386 45.0917L348.163 44.864Z" fill="#7D2B3D"/>
<path d="M351.486 67.2061L217.453 189.258L217.666 189.495L351.699 67.4429L351.486 67.2061Z" fill="#7D2B3D"/>
<path d="M347.728 86.3519L229.85 193.769L230.063 194.005L347.941 86.5887L347.728 86.3519Z" fill="#7D2B3D"/>
<path d="M342.647 102.397L303.682 146.457L303.919 146.669L342.885 102.609L342.647 102.397Z" fill="#7D2B3D"/>
<path d="M324.527 123.09L316.674 114.949L316.901 114.721L324.754 122.862L324.527 123.09Z" fill="#7D2B3D"/>
<path d="M325.898 66.9823L325.67 67.2048L338.026 80.0186L338.254 79.7961L325.898 66.9823Z" fill="#7D2B3D"/>
<path d="M213.579 147.002L213.379 147.251L225.109 156.814L225.309 156.566L213.579 147.002Z" fill="#7D2B3D"/>
<path fill-rule="evenodd" clip-rule="evenodd" d="M325.527 106.854L313.195 116.562L290.514 138.778L325.527 106.854Z" fill="#71203D"/>
<path fill-rule="evenodd" clip-rule="evenodd" d="M275.413 77.0439L273.991 77.3331L257.256 94.7411L275.413 77.0439Z" fill="#71203D"/>
<path fill-rule="evenodd" clip-rule="evenodd" d="M303.541 48.5277L287.033 65.6922L306.567 47.8125L303.541 48.5277Z" fill="#71203D"/>
<path fill-rule="evenodd" clip-rule="evenodd" d="M212.543 148.122L225.041 156.795L213.617 147.087L212.543 148.122Z" fill="#71203D"/>
<path fill-rule="evenodd" clip-rule="evenodd" d="M216.25 175.558L217.763 172.042L216.976 174.995L216.25 175.558Z" fill="#71203D"/>
<path fill-rule="evenodd" clip-rule="evenodd" d="M291.512 122.162L289.121 123.029L287.336 125.951L291.512 122.162Z" fill="#71203D"/>
<path fill-rule="evenodd" clip-rule="evenodd" d="M327.434 23.3741L372.418 68.355L383.07 17.1352L378.349 13.1028L327.434 23.3741Z" fill="#F57729"/>
<path fill-rule="evenodd" clip-rule="evenodd" d="M327.434 23.3743L327.948 25.5351L369.997 68.3247L372.418 68.3552L327.434 23.3743Z" fill="#662F3D"/>
<path fill-rule="evenodd" clip-rule="evenodd" d="M188.304 160.736L180.799 177.384L213.361 211.134L230.11 204.089L188.304 160.736Z" fill="#BA5D3D"/>
<path fill-rule="evenodd" clip-rule="evenodd" d="M230.111 204.089L229.279 202.385L189.772 161.786L188.305 160.736L230.111 204.089Z" fill="#9C2F3D"/>
<path fill-rule="evenodd" clip-rule="evenodd" d="M311.303 155.73L325.995 141.396L330.973 144.272L314.813 159.367L311.303 155.73Z" fill="#664351"/>
<path fill-rule="evenodd" clip-rule="evenodd" d="M252.61 68.0204L249.674 63.364L234.619 78.5656L238.129 82.1568L252.61 68.0204Z" fill="#664351"/>
<path opacity="0.66" fill-rule="evenodd" clip-rule="evenodd" d="M327.432 23.3743L324.391 44.4039L350.96 71.9463L372.416 68.3551L327.432 23.3743Z" fill="#570E23"/>
<path opacity="0.2" fill-rule="evenodd" clip-rule="evenodd" d="M293.449 33.5696L290.952 52.6058L287.033 54.8883L288.062 37.4499L293.449 33.5696Z" fill="#570E23"/>
<path opacity="0.2" fill-rule="evenodd" clip-rule="evenodd" d="M337.147 111.419L350.159 115.619L321.168 145.291L311.016 139.585C311.016 139.585 334.242 115.466 337.147 111.419Z" fill="#570E23"/>
<path opacity="0.2" fill-rule="evenodd" clip-rule="evenodd" d="M340.143 107.219L356.953 107.675L357.906 106.458L341.762 104.525L340.143 107.219Z" fill="#570E23"/>
<g style="mix-blend-mode:soft-light" opacity="0.35">
<path fill-rule="evenodd" clip-rule="evenodd" d="M205.447 122.664L215.509 127.229L204.025 149.004L192.404 146.798C192.404 146.798 201.407 128.553 205.447 122.664Z" fill="#7CA2D4"/>
</g>
<path opacity="0.39" fill-rule="evenodd" clip-rule="evenodd" d="M190.453 150.967L201.348 155.015L200.288 157.541L189.561 152.976L190.453 150.967Z" fill="#944D2F"/>
<g style="mix-blend-mode:soft-light" opacity="0.35">
<path fill-rule="evenodd" clip-rule="evenodd" d="M240.656 199.463L237.373 191.124L252.186 184.672L261.976 188.979C261.976 188.979 248.827 199.402 240.656 199.463Z" fill="#7CA2D4"/>
</g>
<path opacity="0.2" fill-rule="evenodd" clip-rule="evenodd" d="M265.079 190.439L258.285 181.72L259.829 180.838L269.21 188.005L265.079 190.439Z" fill="#570E23"/>
<path opacity="0.66" fill-rule="evenodd" clip-rule="evenodd" d="M216.176 111.404L217.613 123.973L266.259 177.094L278.5 180.001L216.176 111.404Z" fill="#570E23"/>
<path fill-rule="evenodd" clip-rule="evenodd" d="M229.688 95.8367L216.176 111.403L278.5 180.001L297.61 164.312L229.688 95.8367Z" fill="#CF5E3D"/>
<path d="M289.075 171.343L222.363 104.267L222.59 104.039L289.302 171.099L289.075 171.343Z" fill="#88353D"/>
<path d="M224.935 121.005L224.693 120.792L231.381 113.123L231.623 113.336L224.935 121.005Z" fill="#88353D"/>
<path opacity="0.2" fill-rule="evenodd" clip-rule="evenodd" d="M229.687 95.8367L286.624 153.234L280.405 157.876L223.438 103.034L229.687 95.8367Z" fill="#FF974F"/>
<path opacity="0.2" fill-rule="evenodd" clip-rule="evenodd" d="M243.275 125.053L237.146 134.472L272.81 173.747L283.931 165.925L243.275 125.053Z" fill="#8B2C39"/>
<path opacity="0.2" fill-rule="evenodd" clip-rule="evenodd" d="M234.241 131.292L239.522 121.294L238.765 120.518L232.955 129.953L234.241 131.292Z" fill="#8B2C39"/>
<path fill-rule="evenodd" clip-rule="evenodd" d="M234.303 116.045L240.612 121.005L257.922 139.844L234.303 116.045Z" fill="#6F2B3D"/>
<path fill-rule="evenodd" clip-rule="evenodd" d="M290.106 170.475L279.469 161.619L288.623 171.692L290.106 170.475Z" fill="#6F2B3D"/>
<path opacity="0.2" fill-rule="evenodd" clip-rule="evenodd" d="M272.811 173.747L276.79 178.129L286.701 169.577L283.599 166.169L272.811 173.747Z" fill="#FF974F"/>
<path fill-rule="evenodd" clip-rule="evenodd" d="M278.5 180.001L216.176 111.404L250.659 148.776L278.5 180.001Z" fill="#6F2B3D"/>
<path opacity="0.3" fill-rule="evenodd" clip-rule="evenodd" d="M296.142 162.791L277.652 179.027L278.5 180.001L297.61 164.312L296.142 162.791Z" fill="#570E23"/>
<path opacity="0.3" fill-rule="evenodd" clip-rule="evenodd" d="M229.688 95.8367L230.338 96.491L217.25 112.514L216.176 111.403L229.688 95.8367Z" fill="#570E23"/>
<path d="M348.531 19.0483L348.303 19.2708L376.47 48.4813L376.698 48.2588L348.531 19.0483Z" fill="#BD353D"/>
<path d="M380.223 30.5716L365.895 15.7048L366.137 15.4766L380.466 30.3434L380.223 30.5716Z" fill="#BD353D"/>
<path d="M222.485 207.376L183.795 170.642L184.007 170.399L222.712 207.132L222.485 207.376Z" fill="#88353D"/>
<path fill-rule="evenodd" clip-rule="evenodd" d="M224.648 206.387L219.428 204.256L221.728 207.619L224.648 206.387Z" fill="#6F2B3D"/>
<path fill-rule="evenodd" clip-rule="evenodd" d="M348.404 19.144L352.837 23.7395L346.846 19.4636L348.404 19.144Z" fill="#6F2B3D"/>
<path opacity="0.2" fill-rule="evenodd" clip-rule="evenodd" d="M346.847 19.4634L327.434 23.3741L372.418 68.355L376.246 49.9426L346.847 19.4634Z" fill="#8B2C39"/>
<path opacity="0.3" fill-rule="evenodd" clip-rule="evenodd" d="M370.087 66.0268L381.481 19.1439L376.851 14.3506L329.249 25.1697L327.176 23.1002L378.348 13.1028L383.069 17.1352L372.417 68.355L370.087 66.0268Z" fill="#570E23"/>
<path d="M385.518 0.74268L379.666 11.312L379.944 11.4675L385.796 0.898141L385.518 0.74268Z" fill="#88353D"/>
<path d="M384.37 16.1767L384.219 15.9028L394.568 10.0139L394.735 10.2878L384.37 16.1767Z" fill="#88353D"/>
<path d="M179.634 177.56L172.221 179.715L172.309 180.022L179.722 177.867L179.634 177.56Z" fill="#88353D"/>
<path d="M210.729 219.854L213.104 212.473L213.407 212.58L211.046 219.96L210.729 219.854Z" fill="#88353D"/>
<g style="mix-blend-mode:soft-light" opacity="0.2">
<path fill-rule="evenodd" clip-rule="evenodd" d="M260.16 53.336L269.496 52.6056L286.125 38.9561L278.62 37.0845L260.16 53.336Z" fill="#B30E23"/>
</g>
<g style="mix-blend-mode:soft-light" opacity="0.2">
<path fill-rule="evenodd" clip-rule="evenodd" d="M257.301 56.1208L263.595 58.5402L272.386 50.5057L264.412 49.1819L257.301 56.1208Z" fill="#B30E23"/>
</g>
<g style="mix-blend-mode:soft-light" opacity="0.35">
<path fill-rule="evenodd" clip-rule="evenodd" d="M361.915 101.086L365.562 106.625L356.105 118.251L340.596 134.776L332.531 134.137L350.885 114.629L361.915 101.086Z" fill="#B30E23"/>
</g>
<g style="mix-blend-mode:soft-light" opacity="0.35">
<path fill-rule="evenodd" clip-rule="evenodd" d="M258.845 200.817L254.048 196.024L230.943 206.204L235.316 210.739L258.845 200.817Z" fill="#B30E23"/>
</g>
<g style="mix-blend-mode:soft-light" opacity="0.35">
<path fill-rule="evenodd" clip-rule="evenodd" d="M260.282 193.057L263.127 198.611L255.425 202.507L250.855 197.424L260.282 193.057Z" fill="#B30E23"/>
</g>
<g style="mix-blend-mode:soft-light" opacity="0.35">
<path fill-rule="evenodd" clip-rule="evenodd" d="M358.814 31.8652L345.998 41.9235L359.707 55.6491L369.905 43.3691L358.814 31.8652Z" fill="#B30E23"/>
</g>
<path opacity="0.35" fill-rule="evenodd" clip-rule="evenodd" d="M361.992 57.536L371.071 44.5713L372.644 46.2147L364.504 60.1381L361.992 57.536Z" fill="#408145"/>
<path opacity="0.5" fill-rule="evenodd" clip-rule="evenodd" d="M193.54 131.094L198.851 133.909L196.309 139.037L189.682 138.048L193.54 131.094Z" fill="#B76F2F"/>
<path opacity="0.5" fill-rule="evenodd" clip-rule="evenodd" d="M186.458 144.667L193.358 144.546L190.453 150.967L184.279 149.415L186.458 144.667Z" fill="#B76F2F"/>
<path opacity="0.5" fill-rule="evenodd" clip-rule="evenodd" d="M271.585 186.514L273.597 192.54L271.585 193.833L269.209 188.005L271.585 186.514Z" fill="#B76F2F"/>
<path fill-rule="evenodd" clip-rule="evenodd" d="M196.611 166.823L200.046 156.217L210.138 135.218L217.613 123.973L210.138 136.511L200.182 158.317L196.611 166.823Z" fill="#71203D"/>
<path fill-rule="evenodd" clip-rule="evenodd" d="M225.707 195.492L244.469 188.035L232.228 193.483L225.707 195.492Z" fill="#71203D"/>
<path fill-rule="evenodd" clip-rule="evenodd" d="M268.406 69.7855L283.053 58.2055L292.616 51.8601L287.759 53.7622C287.759 53.7622 276.864 61.9641 268.406 69.7855Z" fill="#6C1A2D"/>
<path opacity="0.2" fill-rule="evenodd" clip-rule="evenodd" d="M195.068 181.127L200.576 173.458L216.645 190.12L210.003 195.309L195.068 181.127Z" fill="#8B2C39"/>
<path opacity="0.2" fill-rule="evenodd" clip-rule="evenodd" d="M210.684 195.933L220.746 194.365L221.653 195.324L211.153 196.389L210.684 195.933Z" fill="#8B2C39"/>
<path opacity="0.2" fill-rule="evenodd" clip-rule="evenodd" d="M203.934 201.365L214.162 199.25L215.448 200.467L204.509 201.959L203.934 201.365Z" fill="#8B2C39"/>
<path fill-rule="evenodd" clip-rule="evenodd" d="M335.134 144.667C335.134 144.667 321.138 164.662 308.262 182.71C300.697 193.209 293.646 203.039 289.893 207.878C282.328 217.632 259.419 261.32 259.419 261.32C256.648 259.373 254.109 257.111 251.854 254.579C247.315 249.831 242.775 244.505 242.775 244.505L251.975 230.688L249.478 228.238C249.963 227.675 265.366 209.354 272.054 201.563L273.219 200.178C280.784 191.231 298.185 170.277 298.185 170.277L307.036 163.734L335.134 144.667Z" fill="#6186B2"/>
<path fill-rule="evenodd" clip-rule="evenodd" d="M311.62 166.047L311.076 165.484L305.628 168.984L299.576 163.156L293.524 155.547L281.162 147.726L238.447 104.678L244.091 104.13C246.164 97.1452 252.958 90.5259 252.958 90.5259L282.841 105.271L288.198 103.323L326.721 123.562L340.021 124.185L346.436 129.192L343.592 134.974H342.533L335.134 144.591L331.775 147.391L328.007 153.478C322.878 158.849 311.62 166.047 311.62 166.047Z" fill="#8BC9B8"/>
<path opacity="0.66" fill-rule="evenodd" clip-rule="evenodd" d="M340.007 124.185L337.298 128.751L343.593 134.974H342.533L337.026 129.268L328.507 137.713C329.998 140.61 332.302 143.002 335.134 144.591L331.791 147.391L325.905 138.991L318.854 144.835L306.552 158.53L311.091 165.514L305.523 158.621L301.12 163.293L305.659 169.029L299.607 163.186L293.555 155.578L281.178 147.741L292.617 154.421C294.763 153.225 296.79 151.824 298.669 150.237L283.432 136.709L268.604 127.031L244.092 104.206L270.193 126.361L299.516 148.198C305.237 144.132 310.576 139.548 315.464 134.502L290.12 114.31L282.842 105.317L284.461 104.738L302.421 123.364L314.072 131.885L326.722 123.607L340.007 124.185Z" fill="#59549E"/>
<path opacity="0.36" fill-rule="evenodd" clip-rule="evenodd" d="M301.104 163.262L305.644 168.984L299.591 163.156L293.539 155.547L281.177 147.726L238.447 104.678L244.091 104.13C246.164 97.1452 252.958 90.5259 252.958 90.5259L282.841 105.271L288.198 103.323L326.721 123.562L340.021 124.185L337.297 128.751L339.385 131.794L337.025 129.344L331.76 133.346L328.506 137.789L325.874 138.991L320.003 146.341L306.536 158.515L310.349 164.388L305.507 158.606L301.104 163.277V163.262Z" fill="#6568A9"/>
<path fill-rule="evenodd" clip-rule="evenodd" d="M337.026 129.344L333.213 129.085L314.088 131.84L302.422 123.318L315.465 134.457L332.623 129.664L337.026 129.344Z" fill="#60538E"/>
<path fill-rule="evenodd" clip-rule="evenodd" d="M306.537 158.499L301.121 149.765L299.517 148.122L283.1 135.887L298.594 150.252L305.509 158.591L307.899 160.599L306.537 158.499Z" fill="#60538E"/>
<path fill-rule="evenodd" clip-rule="evenodd" d="M314.088 131.84L315.465 134.457L302.422 123.318L314.088 131.84Z" fill="#604172"/>
<path style="mix-blend-mode:multiply" opacity="0.5" fill-rule="evenodd" clip-rule="evenodd" d="M270.208 126.286L288.35 115.999L244.092 104.13L270.208 126.286Z" fill="url(#paint8_linear_2455_4230)"/>
<path fill-rule="evenodd" clip-rule="evenodd" d="M270.208 126.286L259.026 115.969L244.092 104.13L270.208 126.286Z" fill="#6C5392"/>
<g style="mix-blend-mode:soft-light" opacity="0.35">
<path fill-rule="evenodd" clip-rule="evenodd" d="M317.143 144.759L306.885 156.491L301.316 148.73L311.984 139.417L317.143 144.759Z" fill="#A9B6F9"/>
</g>
<g style="mix-blend-mode:soft-light" opacity="0.35">
<path fill-rule="evenodd" clip-rule="evenodd" d="M316.266 131.353L328.582 124.551L338.992 124.125L336.723 127.396L316.266 131.353Z" fill="#A9B6F9"/>
</g>
<g style="mix-blend-mode:soft-light" opacity="0.35">
<path fill-rule="evenodd" clip-rule="evenodd" d="M286.277 137.485L294.372 119.758L309.7 129.527L294.539 142.933L286.277 137.485Z" fill="#C7DBF9"/>
</g>
<g style="mix-blend-mode:soft-light" opacity="0.35">
<path fill-rule="evenodd" clip-rule="evenodd" d="M283.098 135.887L293.735 117.384L290.134 114.264L274.504 129.496L283.098 135.887Z" fill="#C7DBF9"/>
</g>
<g style="mix-blend-mode:soft-light" opacity="0.35">
<path fill-rule="evenodd" clip-rule="evenodd" d="M291.967 112.469L299.532 109.273L310.775 115.177L302.422 123.318L291.967 112.469Z" fill="#C7DBF9"/>
</g>
<g style="mix-blend-mode:soft-light" opacity="0.35">
<path fill-rule="evenodd" clip-rule="evenodd" d="M284.627 138.048L281.283 147.696L291.557 153.813L296.066 148.015L284.627 138.048Z" fill="#C7DBF9"/>
</g>
<g style="mix-blend-mode:soft-light" opacity="0.35">
<path fill-rule="evenodd" clip-rule="evenodd" d="M268.603 127.001L263.655 130.074L245.498 111.753L256.574 115.771L268.603 127.001Z" fill="#C7DBF9"/>
</g>
<g style="mix-blend-mode:soft-light" opacity="0.62">
<path fill-rule="evenodd" clip-rule="evenodd" d="M284.461 104.693L292.632 111.83L302.421 123.318L291.966 112.469L284.461 104.693Z" fill="#C7DBF9"/>
</g>
<g opacity="0.5">
<path fill-rule="evenodd" clip-rule="evenodd" d="M290.135 114.264L278.832 113.64L266.152 103.962L282.857 105.271L290.135 114.264Z" fill="url(#paint9_linear_2455_4230)" style="mix-blend-mode:multiply"/>
</g>
<path opacity="0.35" fill-rule="evenodd" clip-rule="evenodd" d="M344.531 10.0139L347.073 17.6984L364.519 14.7615L362.764 6.49878L344.531 10.0139Z" fill="#408145"/>
<path opacity="0.35" fill-rule="evenodd" clip-rule="evenodd" d="M369.285 13.7115L370.662 4.58137L373.991 4.4292L372.417 13.0876L369.285 13.7115Z" fill="#408145"/>
<path opacity="0.35" fill-rule="evenodd" clip-rule="evenodd" d="M391.482 26.2046L383.039 26.6154L378.969 47.1734L386.67 47.9038L391.482 26.2046Z" fill="#408145"/>
<path opacity="0.36" fill-rule="evenodd" clip-rule="evenodd" d="M244.197 243.911L251.762 254.563C247.223 249.815 242.684 244.49 242.684 244.49L251.883 230.673L249.387 228.223L253.275 226.808L301.361 173.184L244.197 243.911Z" fill="#6568A9"/>
<path opacity="0.36" fill-rule="evenodd" clip-rule="evenodd" d="M259.329 261.335C256.558 259.388 254.019 257.126 251.764 254.594L303.3 175.999C301.696 178.677 255.788 254.791 255.788 256.648C255.788 258.504 259.329 261.335 259.329 261.335Z" fill="#6568A9"/>
<path opacity="0.7" fill-rule="evenodd" clip-rule="evenodd" d="M308.231 182.725C300.665 193.224 293.614 203.054 289.862 207.893C282.296 217.647 259.388 261.335 259.388 261.335C256.617 259.388 254.078 257.126 251.823 254.594C247.283 249.846 242.744 244.52 242.744 244.52L251.944 230.703L249.447 228.253C249.931 227.69 265.335 209.369 272.023 201.578L273.188 200.194C278.317 200.711 282.387 196.237 282.387 196.237C287.668 196.907 293.145 191.946 293.145 191.946C299.546 192.372 307.747 183.333 308.231 182.725Z" fill="#153A4D"/>
<path fill-rule="evenodd" clip-rule="evenodd" d="M310.607 179.407C310.463 181.18 309.624 182.821 308.277 183.972C306.038 185.768 300.485 190.166 297.564 191.003C297.564 191.033 308.08 184.749 310.607 179.407Z" fill="#8CE3FF"/>
<path fill-rule="evenodd" clip-rule="evenodd" d="M290.076 194.183C290.076 194.183 285.915 197.302 282.51 196.222C282.465 196.222 287.413 196.191 290.076 194.183Z" fill="#8CE3FF"/>
<path opacity="0.66" fill-rule="evenodd" clip-rule="evenodd" d="M267.755 134.092L252.852 151.241L256.317 155.121L272.749 139.235L267.755 134.092Z" fill="#570E23"/>
<path opacity="0.66" fill-rule="evenodd" clip-rule="evenodd" d="M312.362 36.3845L301.513 49.0297L290.437 66.4377L291.36 70.881L253.639 119.986L256.574 122.862L293.917 73.7114L302.754 76.0243L324.391 44.4038L312.362 36.3845Z" fill="#570E23"/>
<path fill-rule="evenodd" clip-rule="evenodd" d="M316.493 69.9072C314.114 70.3123 311.704 70.5058 309.291 70.4854L304.888 79.4177L249.524 191.429C247.946 191.283 246.408 190.85 244.984 190.15C243.933 189.608 242.965 188.916 242.11 188.096C241.817 187.807 241.539 187.502 241.277 187.183L295.93 83.861L304.328 68.0051C304.328 68.0051 300.046 62.7553 299.637 61.2945C299.229 59.8337 312.952 35.7302 312.952 35.7302C316.045 36.0428 319.044 36.9741 321.774 38.4692C323.891 39.4324 325.83 40.7495 327.508 42.3648L327.902 42.7452C328.025 42.8489 328.141 42.9607 328.25 43.0799C328.583 43.3995 328.825 43.6734 328.976 43.8408L329.112 43.9777C329.112 43.9777 317.915 69.3594 316.493 69.9072Z" fill="#E6773D"/>
<path fill-rule="evenodd" clip-rule="evenodd" d="M241.172 187.183C241.172 187.183 245.802 185.418 249.448 191.429C247.847 191.359 246.279 190.944 244.851 190.211C243.423 189.479 242.168 188.446 241.172 187.183Z" fill="url(#paint10_linear_2455_4230)"/>
<path fill-rule="evenodd" clip-rule="evenodd" d="M245.998 178.281C247.547 177.958 249.15 178.018 250.671 178.455C252.192 178.893 253.584 179.695 254.729 180.792L271.373 147.209C270.46 146.026 269.197 145.166 267.765 144.756C266.334 144.345 264.809 144.405 263.414 144.926L245.998 178.281Z" fill="#664351"/>
<path fill-rule="evenodd" clip-rule="evenodd" d="M304.298 67.9595C305.286 67.8275 306.291 67.9978 307.182 68.4484C308.072 68.8989 308.807 69.6088 309.291 70.4855L308.429 72.2506C308.429 72.2506 305.403 69.5573 303.436 69.6942L304.298 67.9595Z" fill="#664351"/>
<path opacity="0.57" fill-rule="evenodd" clip-rule="evenodd" d="M316.494 69.9072C314.115 70.3123 311.705 70.5058 309.292 70.4854L304.889 79.4177H304.722C303.823 78.9626 302.836 78.7105 301.83 78.679C300.823 78.6475 299.822 78.8372 298.897 79.2351L244.713 187.533L303.391 69.6333L243.654 186.985L242.02 188.081C241.717 187.801 241.439 187.495 241.188 187.168L304.253 67.9442C304.253 67.9442 299.971 62.6944 299.563 61.2336C299.154 59.7728 312.953 35.7302 312.953 35.7302C319.18 36.5311 324.935 39.4845 329.234 44.0843C329.234 44.0843 317.916 69.3594 316.494 69.9072Z" fill="#570E23"/>
<path opacity="0.57" fill-rule="evenodd" clip-rule="evenodd" d="M329.158 43.9322C328.326 43.1105 321.865 36.5824 312.998 35.6694C312.998 35.6694 300.379 59.3316 300.546 61.2641C300.712 63.1966 305.327 67.9291 305.327 67.9291L295.9 83.8154L304.298 67.9595C304.298 67.9595 300.016 62.7097 299.607 61.2489C299.199 59.7881 312.953 35.7303 312.953 35.7303C318.006 36.1275 322.789 38.1802 326.571 41.5736L327.464 42.3648C327.602 42.4838 327.733 42.6108 327.857 42.7453C327.98 42.8489 328.096 42.9608 328.205 43.08L328.931 43.8409L329.158 43.9322Z" fill="#570E23"/>
<path fill-rule="evenodd" clip-rule="evenodd" d="M319.913 37.4346L315.449 45.9864L320.246 37.7085L319.913 37.4346Z" fill="#570E23"/>
<g opacity="0.96">
<path fill-rule="evenodd" clip-rule="evenodd" d="M48.0859 252.57C48.0859 252.57 197.988 101.162 227.554 86.2043C227.554 86.2043 156.635 134.244 105.689 192.129L48.0859 252.57Z" fill="url(#paint11_linear_2455_4230)" style="mix-blend-mode:screen"/>
</g>
<g opacity="0.96">
<path fill-rule="evenodd" clip-rule="evenodd" d="M65.2285 270.069C65.2285 270.069 200.408 106.367 222.711 90.9065L65.2285 270.069Z" fill="url(#paint12_linear_2455_4230)" style="mix-blend-mode:screen"/>
</g>
<g opacity="0.96">
<path fill-rule="evenodd" clip-rule="evenodd" d="M175.941 367.959C175.941 367.959 296.489 211.363 320.729 168.619C320.729 168.619 280.329 242.268 248.706 277.358L175.941 367.959Z" fill="url(#paint13_linear_2455_4230)" style="mix-blend-mode:screen"/>
</g>
<g opacity="0.96">
<path fill-rule="evenodd" clip-rule="evenodd" d="M196.808 250.089L139.311 277.677C139.311 277.677 241.353 219.945 288.259 182.314C288.244 182.314 235.513 228.36 196.808 250.089Z" fill="url(#paint14_linear_2455_4230)" style="mix-blend-mode:screen"/>
</g>
<defs>
<linearGradient id="paint0_linear_2455_4230" x1="41.6133" y1="282.195" x2="228.951" y2="29.6235" gradientUnits="userSpaceOnUse">
<stop stop-color="white" stop-opacity="0"/>
<stop offset="1" stop-color="#73649E" stop-opacity="0.5"/>
</linearGradient>
<linearGradient id="paint1_linear_2455_4230" x1="221.299" y1="262.585" x2="271.214" y2="165.216" gradientUnits="userSpaceOnUse">
<stop stop-color="white" stop-opacity="0"/>
<stop offset="1" stop-color="#73649E" stop-opacity="0.5"/>
</linearGradient>
<linearGradient id="paint2_linear_2455_4230" x1="140.457" y1="204.217" x2="201.258" y2="85.6134" gradientUnits="userSpaceOnUse">
<stop stop-color="white" stop-opacity="0"/>
<stop offset="1" stop-color="#73649E" stop-opacity="0.7"/>
</linearGradient>
<linearGradient id="paint3_linear_2455_4230" x1="181.011" y1="238.499" x2="241.867" y2="119.788" gradientUnits="userSpaceOnUse">
<stop stop-color="white" stop-opacity="0"/>
<stop offset="1" stop-color="#73649E" stop-opacity="0.8"/>
</linearGradient>
<linearGradient id="paint4_linear_2455_4230" x1="258.977" y1="281.764" x2="327.045" y2="148.986" gradientUnits="userSpaceOnUse">
<stop stop-color="white" stop-opacity="0"/>
<stop offset="1" stop-color="#73649E" stop-opacity="0.8"/>
</linearGradient>
<linearGradient id="paint5_linear_2455_4230" x1="194.761" y1="201.936" x2="395.387" y2="7.98451" gradientUnits="userSpaceOnUse">
<stop stop-color="#905948"/>
<stop offset="0.06" stop-color="#975B46"/>
<stop offset="0.49" stop-color="#C66737"/>
<stop offset="0.81" stop-color="#E36F2E"/>
<stop offset="1" stop-color="#EE722B"/>
</linearGradient>
<linearGradient id="paint6_linear_2455_4230" x1="199.664" y1="197.121" x2="387.013" y2="16.0044" gradientUnits="userSpaceOnUse">
<stop offset="0.02" stop-color="#751F13"/>
<stop offset="0.6" stop-color="#63132A"/>
<stop offset="1" stop-color="#5A0E35"/>
</linearGradient>
<linearGradient id="paint7_linear_2455_4230" x1="211.953" y1="185.106" x2="360.098" y2="41.89" gradientUnits="userSpaceOnUse">
<stop offset="0.01" stop-color="#AC493D"/>
<stop offset="0.03" stop-color="#AB483D"/>
<stop offset="0.65" stop-color="#8E3042"/>
<stop offset="1" stop-color="#832744"/>
</linearGradient>
<linearGradient id="paint8_linear_2455_4230" x1="261.031" y1="119.808" x2="278.076" y2="103.331" gradientUnits="userSpaceOnUse">
<stop offset="0.01" stop-color="#B686C7"/>
<stop offset="0.12" stop-color="#C8A3D4"/>
<stop offset="0.28" stop-color="#DBC4E4"/>
<stop offset="0.45" stop-color="#EBDEF0"/>
<stop offset="0.62" stop-color="#F6F0F8"/>
<stop offset="0.79" stop-color="#FDFBFD"/>
<stop offset="0.99" stop-color="white"/>
</linearGradient>
<linearGradient id="paint9_linear_2455_4230" x1="277.83" y1="114.103" x2="285.859" y2="106.341" gradientUnits="userSpaceOnUse">
<stop offset="0.01" stop-color="white"/>
<stop offset="0.21" stop-color="#FDFBFD"/>
<stop offset="0.38" stop-color="#F6F0F8"/>
<stop offset="0.55" stop-color="#EBDEF0"/>
<stop offset="0.72" stop-color="#DBC4E4"/>
<stop offset="0.88" stop-color="#C8A3D4"/>
<stop offset="0.99" stop-color="#B686C7"/>
</linearGradient>
<linearGradient id="paint10_linear_2455_4230" x1="241.419" y1="186.835" x2="249.716" y2="191.04" gradientUnits="userSpaceOnUse">
<stop offset="0.02" stop-color="#893338"/>
<stop offset="0.14" stop-color="#822D38"/>
<stop offset="0.69" stop-color="#651736"/>
<stop offset="1" stop-color="#5A0E35"/>
</linearGradient>
<linearGradient id="paint11_linear_2455_4230" x1="85.8666" y1="271.878" x2="184.45" y2="110.211" gradientUnits="userSpaceOnUse">
<stop stop-color="white" stop-opacity="0"/>
<stop offset="1" stop-color="#73649E" stop-opacity="0.8"/>
</linearGradient>
<linearGradient id="paint12_linear_2455_4230" x1="116.053" y1="180.488" x2="203.042" y2="140.586" gradientUnits="userSpaceOnUse">
<stop stop-color="white" stop-opacity="0"/>
<stop offset="1" stop-color="#73649E"/>
</linearGradient>
<linearGradient id="paint13_linear_2455_4230" x1="193.34" y1="376.812" x2="304.403" y2="160.164" gradientUnits="userSpaceOnUse">
<stop stop-color="white" stop-opacity="0"/>
<stop offset="1" stop-color="#73649E"/>
</linearGradient>
<linearGradient id="paint14_linear_2455_4230" x1="179.265" y1="298.1" x2="248.982" y2="162.103" gradientUnits="userSpaceOnUse">
<stop stop-color="white" stop-opacity="0"/>
<stop offset="1" stop-color="#73649E"/>
</linearGradient>
</defs>
</svg>
