<svg width="64" height="64" viewBox="0 0 64 64" fill="none" xmlns="http://www.w3.org/2000/svg">
<path fill-rule="evenodd" clip-rule="evenodd" d="M43.7331 50.2763L40.908 46.9131C46.4237 45.4332 48.5761 41.6665 48.5761 41.6665C41.5807 48.2583 22.4776 48.5274 15.0786 41.6665C15.0786 41.6665 16.962 45.1642 22.6122 46.9131L19.518 50.2763C10.101 50.1417 6.46875 43.8189 6.46875 43.8189C6.46875 29.828 12.6571 18.6621 12.6571 18.6621C18.9799 14.2227 24.7646 14.2227 24.7646 14.2227L25.1682 14.7608C17.3656 16.9132 14.0023 20.411 14.0023 20.411C23.1503 14.2227 41.9843 14.7608 49.3833 20.411C49.5178 20.2764 44.9439 16.6442 37.8139 14.7608L38.4865 14.2227C38.4865 14.2227 44.2712 14.2227 50.5941 18.6621C50.5941 18.6621 56.7824 29.828 56.7824 43.8189C56.7824 43.8189 53.1501 50.1417 43.7331 50.2763ZM23.554 39.7829C26.0059 39.7829 27.9935 37.6748 27.9935 35.0744C27.9935 32.4739 26.0059 30.3659 23.554 30.3659C21.1022 30.3659 19.1146 32.4739 19.1146 35.0744C19.1146 37.6748 21.1022 39.7829 23.554 39.7829ZM43.5976 35.0744C43.5976 37.6748 41.61 39.7829 39.1582 39.7829C36.7064 39.7829 34.7188 37.6748 34.7188 35.0744C34.7188 32.4739 36.7064 30.3659 39.1582 30.3659C41.61 30.3659 43.5976 32.4739 43.5976 35.0744Z" fill="#171753"/>
</svg>
