<svg width="1440" height="995" viewBox="0 0 1440 995" fill="none" xmlns="http://www.w3.org/2000/svg">
<g style="mix-blend-mode:color-dodge" opacity="0.3">
<path opacity="0.9" d="M-80.9964 497.536C-80.9964 556.934 277.622 605.086 720.001 605.086C1162.38 605.086 1521 556.934 1521 497.536C1521 438.137 1162.38 389.985 720.001 389.985C277.622 389.985 -80.9964 438.137 -80.9964 497.536Z" stroke="url(#paint0_linear_494_62715)" stroke-miterlimit="10"/>
<path opacity="0.9" d="M-35.1625 497.537C-35.1625 570.381 302.936 629.433 720.001 629.433C1137.07 629.433 1475.16 570.381 1475.16 497.537C1475.16 424.692 1137.07 365.64 720.001 365.64C302.936 365.64 -35.1625 424.692 -35.1625 497.537Z" stroke="url(#paint1_linear_494_62715)" stroke-miterlimit="10"/>
<path opacity="0.9" d="M10.7272 497.535C10.7272 583.795 328.28 653.723 720.001 653.723C1111.72 653.723 1429.28 583.795 1429.28 497.535C1429.28 411.275 1111.72 341.348 720.001 341.348C328.28 341.348 10.7272 411.275 10.7272 497.535Z" stroke="url(#paint2_linear_494_62715)" stroke-miterlimit="10"/>
<path opacity="0.9" d="M56.5612 497.538C56.5612 597.214 353.593 678.017 720.001 678.017C1086.41 678.017 1383.44 597.214 1383.44 497.538C1383.44 397.863 1086.41 317.06 720.001 317.06C353.593 317.06 56.5612 397.863 56.5612 497.538Z" stroke="url(#paint3_linear_494_62715)" stroke-miterlimit="10"/>
<path opacity="0.9" d="M102.45 497.536C102.45 610.658 378.937 702.361 720.002 702.361C1061.07 702.361 1337.55 610.658 1337.55 497.536C1337.55 384.415 1061.07 292.712 720.002 292.712C378.937 292.712 102.45 384.415 102.45 497.536Z" stroke="url(#paint4_linear_494_62715)" stroke-miterlimit="10"/>
<path opacity="0.9" d="M148.285 497.535C148.285 624.072 404.251 726.651 720.002 726.651C1035.75 726.651 1291.72 624.072 1291.72 497.535C1291.72 370.998 1035.75 268.42 720.002 268.42C404.251 268.42 148.285 370.998 148.285 497.535Z" stroke="url(#paint5_linear_494_62715)" stroke-miterlimit="10"/>
<path opacity="0.9" d="M194.117 497.534C194.117 637.486 429.563 750.94 720 750.94C1010.44 750.94 1245.88 637.486 1245.88 497.534C1245.88 357.581 1010.44 244.127 720 244.127C429.563 244.127 194.117 357.581 194.117 497.534Z" stroke="url(#paint6_linear_494_62715)" stroke-miterlimit="10"/>
<path opacity="0.9" d="M240.009 497.534C240.009 650.933 454.909 775.287 720.002 775.287C985.096 775.287 1200 650.933 1200 497.534C1200 344.136 985.096 219.782 720.002 219.782C454.909 219.782 240.009 344.136 240.009 497.534Z" stroke="url(#paint7_linear_494_62715)" stroke-miterlimit="10"/>
<path opacity="0.9" d="M285.842 497.534C285.842 664.347 480.222 799.577 720.002 799.577C959.782 799.577 1154.16 664.348 1154.16 497.534C1154.16 330.72 959.782 195.49 720.002 195.49C480.222 195.49 285.843 330.72 285.842 497.534Z" stroke="url(#paint8_linear_494_62715)" stroke-miterlimit="10"/>
<path opacity="0.9" d="M331.673 497.533C331.673 677.763 505.532 823.868 719.999 823.868C934.465 823.868 1108.32 677.763 1108.32 497.533C1108.32 317.304 934.465 171.199 719.999 171.199C505.532 171.199 331.673 317.304 331.673 497.533Z" stroke="url(#paint9_linear_494_62715)" stroke-miterlimit="10"/>
<path opacity="0.9" d="M377.562 497.531C377.562 691.207 530.876 848.212 719.999 848.212C909.121 848.212 1062.44 691.207 1062.44 497.531C1062.44 303.856 909.121 146.851 719.999 146.851C530.876 146.851 377.562 303.856 377.562 497.531Z" stroke="url(#paint10_linear_494_62715)" stroke-miterlimit="10"/>
<path opacity="0.9" d="M423.398 497.536C423.398 704.627 556.192 872.507 720.001 872.507C883.81 872.507 1016.6 704.627 1016.6 497.536C1016.6 290.445 883.81 122.565 720.001 122.565C556.192 122.565 423.398 290.445 423.398 497.536Z" stroke="url(#paint11_linear_494_62715)" stroke-miterlimit="10"/>
<path opacity="0.9" d="M469.286 497.537C469.286 718.044 581.534 896.8 719.999 896.8C858.465 896.8 970.713 718.044 970.713 497.538C970.713 277.031 858.465 98.2754 719.999 98.2754C581.534 98.2754 469.286 277.031 469.286 497.537Z" stroke="url(#paint12_linear_494_62715)" stroke-miterlimit="10"/>
<path opacity="0.9" d="M515.124 497.536C515.124 731.488 606.852 921.144 720.003 921.144C833.155 921.144 924.883 731.488 924.883 497.536C924.883 263.584 833.155 73.9277 720.003 73.9277C606.852 73.9277 515.124 263.584 515.124 497.536Z" stroke="url(#paint13_linear_494_62715)" stroke-miterlimit="10"/>
<path opacity="0.9" d="M560.956 497.535C560.956 744.903 632.163 945.434 720.001 945.434C807.84 945.434 879.047 744.903 879.047 497.535C879.047 250.167 807.84 49.6357 720.002 49.6357C632.163 49.6357 560.956 250.167 560.956 497.535Z" stroke="url(#paint14_linear_494_62715)" stroke-miterlimit="10"/>
<path opacity="0.9" d="M606.846 497.533C606.846 758.317 657.507 969.723 720.002 969.723C782.496 969.723 833.158 758.317 833.158 497.533C833.158 236.75 782.496 25.3433 720.002 25.3433C657.507 25.3433 606.846 236.75 606.846 497.533Z" stroke="url(#paint15_linear_494_62715)" stroke-miterlimit="10"/>
<path opacity="0.9" d="M652.678 497.535C652.678 771.765 682.819 994.071 720 994.071C757.181 994.071 787.322 771.765 787.322 497.535C787.322 223.306 757.181 0.99951 720 0.999509C682.819 0.999507 652.678 223.306 652.678 497.535Z" stroke="url(#paint16_linear_494_62715)" stroke-miterlimit="10"/>
</g>
<defs>
<linearGradient id="paint0_linear_494_62715" x1="1521" y1="605.087" x2="529.865" y2="-222.649" gradientUnits="userSpaceOnUse">
<stop offset="0.00310139" stop-color="#9D89B8"/>
<stop offset="1" stop-color="#23ABA2"/>
</linearGradient>
<linearGradient id="paint1_linear_494_62715" x1="1475.16" y1="629.434" x2="351.987" y2="-91.6687" gradientUnits="userSpaceOnUse">
<stop offset="0.00310139" stop-color="#9D89B8"/>
<stop offset="1" stop-color="#23ABA2"/>
</linearGradient>
<linearGradient id="paint2_linear_494_62715" x1="1429.28" y1="653.723" x2="246.283" y2="51.3145" gradientUnits="userSpaceOnUse">
<stop offset="0.00310139" stop-color="#9D89B8"/>
<stop offset="1" stop-color="#23ABA2"/>
</linearGradient>
<linearGradient id="paint3_linear_494_62715" x1="1383.44" y1="678.017" x2="192.344" y2="187.036" gradientUnits="userSpaceOnUse">
<stop offset="0.00310139" stop-color="#9D89B8"/>
<stop offset="1" stop-color="#23ABA2"/>
</linearGradient>
<linearGradient id="paint4_linear_494_62715" x1="1337.55" y1="702.362" x2="173.509" y2="308.81" gradientUnits="userSpaceOnUse">
<stop offset="0.00310139" stop-color="#9D89B8"/>
<stop offset="1" stop-color="#23ABA2"/>
</linearGradient>
<linearGradient id="paint5_linear_494_62715" x1="1291.72" y1="726.652" x2="178.081" y2="415.041" gradientUnits="userSpaceOnUse">
<stop offset="0.00310139" stop-color="#9D89B8"/>
<stop offset="1" stop-color="#23ABA2"/>
</linearGradient>
<linearGradient id="paint6_linear_494_62715" x1="1245.88" y1="750.941" x2="198.065" y2="507.104" gradientUnits="userSpaceOnUse">
<stop offset="0.00310139" stop-color="#9D89B8"/>
<stop offset="1" stop-color="#23ABA2"/>
</linearGradient>
<linearGradient id="paint7_linear_494_62715" x1="1200" y1="775.288" x2="228.31" y2="586.99" gradientUnits="userSpaceOnUse">
<stop offset="0.00310139" stop-color="#9D89B8"/>
<stop offset="1" stop-color="#23ABA2"/>
</linearGradient>
<linearGradient id="paint8_linear_494_62715" x1="1154.16" y1="799.578" x2="265.348" y2="656.315" gradientUnits="userSpaceOnUse">
<stop offset="0.00310139" stop-color="#9D89B8"/>
<stop offset="1" stop-color="#23ABA2"/>
</linearGradient>
<linearGradient id="paint9_linear_494_62715" x1="1108.32" y1="823.869" x2="306.956" y2="716.937" gradientUnits="userSpaceOnUse">
<stop offset="0.00310139" stop-color="#9D89B8"/>
<stop offset="1" stop-color="#23ABA2"/>
</linearGradient>
<linearGradient id="paint10_linear_494_62715" x1="1062.44" y1="848.213" x2="351.706" y2="770.389" gradientUnits="userSpaceOnUse">
<stop offset="0.00310139" stop-color="#9D89B8"/>
<stop offset="1" stop-color="#23ABA2"/>
</linearGradient>
<linearGradient id="paint11_linear_494_62715" x1="1016.6" y1="872.509" x2="398.484" y2="817.682" gradientUnits="userSpaceOnUse">
<stop offset="0.00310139" stop-color="#9D89B8"/>
<stop offset="1" stop-color="#23ABA2"/>
</linearGradient>
<linearGradient id="paint12_linear_494_62715" x1="970.713" y1="896.801" x2="446.714" y2="859.904" gradientUnits="userSpaceOnUse">
<stop offset="0.00310139" stop-color="#9D89B8"/>
<stop offset="1" stop-color="#23ABA2"/>
</linearGradient>
<linearGradient id="paint13_linear_494_62715" x1="924.883" y1="921.145" x2="495.818" y2="897.875" gradientUnits="userSpaceOnUse">
<stop offset="0.00310139" stop-color="#9D89B8"/>
<stop offset="1" stop-color="#23ABA2"/>
</linearGradient>
<linearGradient id="paint14_linear_494_62715" x1="879.047" y1="945.436" x2="545.518" y2="932.155" gradientUnits="userSpaceOnUse">
<stop offset="0.00310139" stop-color="#9D89B8"/>
<stop offset="1" stop-color="#23ABA2"/>
</linearGradient>
<linearGradient id="paint15_linear_494_62715" x1="833.158" y1="969.725" x2="595.657" y2="963.343" gradientUnits="userSpaceOnUse">
<stop offset="0.00310139" stop-color="#9D89B8"/>
<stop offset="1" stop-color="#23ABA2"/>
</linearGradient>
<linearGradient id="paint16_linear_494_62715" x1="787.322" y1="994.073" x2="645.952" y2="991.924" gradientUnits="userSpaceOnUse">
<stop offset="0.00310139" stop-color="#9D89B8"/>
<stop offset="1" stop-color="#23ABA2"/>
</linearGradient>
</defs>
</svg>
