<svg width="390" height="1096" viewBox="0 0 390 1096" fill="none" xmlns="http://www.w3.org/2000/svg">
<g opacity="0.3">
<path opacity="0.9" d="M195.357 1095.44C235.953 1095.44 268.863 850.344 268.863 548C268.863 245.656 235.953 0.557617 195.357 0.557617C154.761 0.557617 121.852 245.656 121.852 548C121.852 850.344 154.761 1095.44 195.357 1095.44Z" stroke="url(#paint0_linear_293_10318)" stroke-miterlimit="10"/>
<path opacity="0.9" d="M195.36 1064.12C245.145 1064.12 285.505 833.044 285.505 548C285.505 262.956 245.145 31.8828 195.36 31.8828C145.574 31.8828 105.215 262.956 105.215 548C105.215 833.044 145.574 1064.12 195.36 1064.12Z" stroke="url(#paint1_linear_293_10318)" stroke-miterlimit="10"/>
<path opacity="0.9" d="M195.358 1032.75C254.312 1032.75 302.105 815.723 302.105 548C302.105 280.278 254.312 63.2461 195.358 63.2461C136.403 63.2461 88.6113 280.278 88.6113 548C88.6113 815.723 136.403 1032.75 195.358 1032.75Z" stroke="url(#paint2_linear_293_10318)" stroke-miterlimit="10"/>
<path opacity="0.9" d="M195.36 1001.43C263.483 1001.43 318.708 798.422 318.708 548C318.708 297.578 263.483 94.5713 195.36 94.5713C127.237 94.5713 72.0117 297.578 72.0117 548C72.0117 798.422 127.237 1001.43 195.36 1001.43Z" stroke="url(#paint3_linear_293_10318)" stroke-miterlimit="10"/>
<path opacity="0.9" d="M195.359 970.066C272.672 970.066 335.346 781.1 335.346 548C335.346 314.899 272.672 125.934 195.359 125.934C118.046 125.934 55.3711 314.899 55.3711 548C55.3711 781.1 118.046 970.066 195.359 970.066Z" stroke="url(#paint4_linear_293_10318)" stroke-miterlimit="10"/>
<path opacity="0.9" d="M195.359 938.739C281.841 938.739 351.948 763.798 351.948 547.998C351.948 332.198 281.841 157.258 195.359 157.258C108.877 157.258 38.7695 332.198 38.7695 547.998C38.7695 763.798 108.877 938.739 195.359 938.739Z" stroke="url(#paint5_linear_293_10318)" stroke-miterlimit="10"/>
<path opacity="0.9" d="M195.357 907.417C291.008 907.417 368.548 746.501 368.548 548.001C368.548 349.502 291.008 188.586 195.357 188.586C99.7062 188.586 22.166 349.502 22.166 548.001C22.166 746.501 99.7062 907.417 195.357 907.417Z" stroke="url(#paint6_linear_293_10318)" stroke-miterlimit="10"/>
<path opacity="0.9" d="M195.357 876.052C300.198 876.052 385.188 729.178 385.188 548C385.188 366.821 300.198 219.947 195.357 219.947C90.5172 219.947 5.52734 366.821 5.52734 548C5.52734 729.178 90.5172 876.052 195.357 876.052Z" stroke="url(#paint7_linear_293_10318)" stroke-miterlimit="10"/>
<path opacity="0.9" d="M195.358 844.726C309.367 844.726 401.789 711.877 401.789 547.999C401.789 384.122 309.367 251.272 195.358 251.272C81.3485 251.272 -11.0742 384.122 -11.0742 547.999C-11.0742 711.877 81.3485 844.726 195.358 844.726Z" stroke="url(#paint8_linear_293_10318)" stroke-miterlimit="10"/>
<path opacity="0.9" d="M195.358 813.403C318.536 813.403 418.391 694.578 418.391 548.001C418.391 401.424 318.536 282.6 195.358 282.6C72.1797 282.6 -27.6758 401.424 -27.6758 548.001C-27.6758 694.578 72.1797 813.403 195.358 813.403Z" stroke="url(#paint9_linear_293_10318)" stroke-miterlimit="10"/>
<path opacity="0.9" d="M195.356 782.04C327.724 782.04 435.029 677.258 435.029 548.002C435.029 418.746 327.724 313.963 195.356 313.963C62.9887 313.963 -44.3164 418.746 -44.3164 548.002C-44.3164 677.258 62.9887 782.04 195.356 782.04Z" stroke="url(#paint10_linear_293_10318)" stroke-miterlimit="10"/>
<path opacity="0.9" d="M195.358 750.714C336.895 750.714 451.633 659.956 451.633 548.001C451.633 436.045 336.895 345.287 195.358 345.287C53.8219 345.287 -60.916 436.045 -60.916 548.001C-60.916 659.956 53.8219 750.714 195.358 750.714Z" stroke="url(#paint11_linear_293_10318)" stroke-miterlimit="10"/>
<path opacity="0.9" d="M195.361 719.352C346.066 719.352 468.237 642.636 468.237 548.002C468.237 453.368 346.066 376.651 195.361 376.651C44.6552 376.651 -77.5156 453.368 -77.5156 548.002C-77.5156 642.636 44.6552 719.352 195.361 719.352Z" stroke="url(#paint12_linear_293_10318)" stroke-miterlimit="10"/>
<path opacity="0.9" d="M195.359 688.023C355.254 688.023 484.875 625.331 484.875 547.998C484.875 470.664 355.254 407.973 195.359 407.973C35.4642 407.973 -94.1562 470.664 -94.1563 547.998C-94.1563 625.331 35.4642 688.023 195.359 688.023Z" stroke="url(#paint13_linear_293_10318)" stroke-miterlimit="10"/>
<path opacity="0.9" d="M195.357 656.699C364.421 656.699 501.474 608.033 501.474 548C501.474 487.966 364.421 439.3 195.357 439.3C26.2935 439.3 -110.76 487.966 -110.76 548C-110.76 608.033 26.2935 656.699 195.357 656.699Z" stroke="url(#paint14_linear_293_10318)" stroke-miterlimit="10"/>
<path opacity="0.9" d="M195.357 625.337C373.59 625.337 518.076 590.712 518.076 548C518.076 505.288 373.59 470.663 195.357 470.663C17.1248 470.663 -127.361 505.288 -127.361 548C-127.361 590.712 17.1248 625.337 195.357 625.337Z" stroke="url(#paint15_linear_293_10318)" stroke-miterlimit="10"/>
<path opacity="0.9" d="M195.358 594.012C382.78 594.012 534.716 573.412 534.716 548.001C534.716 522.589 382.78 501.989 195.358 501.989C7.93576 501.989 -144 522.589 -144 548.001C-144 573.412 7.93576 594.012 195.358 594.012Z" stroke="url(#paint16_linear_293_10318)" stroke-miterlimit="10"/>
</g>
<defs>
<linearGradient id="paint0_linear_293_10318" x1="268.863" y1="0.557896" x2="-296.854" y2="677.949" gradientUnits="userSpaceOnUse">
<stop offset="0.00310139" stop-color="#8585BC"/>
<stop offset="1" stop-color="#5ED9D1"/>
</linearGradient>
<linearGradient id="paint1_linear_293_10318" x1="285.505" y1="31.8831" x2="-207.333" y2="799.519" gradientUnits="userSpaceOnUse">
<stop offset="0.00310139" stop-color="#8585BC"/>
<stop offset="1" stop-color="#5ED9D1"/>
</linearGradient>
<linearGradient id="paint2_linear_293_10318" x1="302.105" y1="63.2463" x2="-109.612" y2="871.764" gradientUnits="userSpaceOnUse">
<stop offset="0.00310139" stop-color="#8585BC"/>
<stop offset="1" stop-color="#5ED9D1"/>
</linearGradient>
<linearGradient id="paint3_linear_293_10318" x1="318.709" y1="94.5715" x2="-16.8532" y2="908.628" gradientUnits="userSpaceOnUse">
<stop offset="0.00310139" stop-color="#8585BC"/>
<stop offset="1" stop-color="#5ED9D1"/>
</linearGradient>
<linearGradient id="paint4_linear_293_10318" x1="335.347" y1="125.934" x2="66.3732" y2="921.501" gradientUnits="userSpaceOnUse">
<stop offset="0.00310139" stop-color="#8585BC"/>
<stop offset="1" stop-color="#5ED9D1"/>
</linearGradient>
<linearGradient id="paint5_linear_293_10318" x1="351.949" y1="157.258" x2="138.978" y2="918.375" gradientUnits="userSpaceOnUse">
<stop offset="0.00310139" stop-color="#8585BC"/>
<stop offset="1" stop-color="#5ED9D1"/>
</linearGradient>
<linearGradient id="paint6_linear_293_10318" x1="368.548" y1="188.586" x2="201.898" y2="904.718" gradientUnits="userSpaceOnUse">
<stop offset="0.00310139" stop-color="#8585BC"/>
<stop offset="1" stop-color="#5ED9D1"/>
</linearGradient>
<linearGradient id="paint7_linear_293_10318" x1="385.188" y1="219.947" x2="256.496" y2="884.047" gradientUnits="userSpaceOnUse">
<stop offset="0.00310139" stop-color="#8585BC"/>
<stop offset="1" stop-color="#5ED9D1"/>
</linearGradient>
<linearGradient id="paint8_linear_293_10318" x1="401.79" y1="251.273" x2="303.877" y2="858.734" gradientUnits="userSpaceOnUse">
<stop offset="0.00310139" stop-color="#8585BC"/>
<stop offset="1" stop-color="#5ED9D1"/>
</linearGradient>
<linearGradient id="paint9_linear_293_10318" x1="418.392" y1="282.6" x2="345.309" y2="830.295" gradientUnits="userSpaceOnUse">
<stop offset="0.00310139" stop-color="#8585BC"/>
<stop offset="1" stop-color="#5ED9D1"/>
</linearGradient>
<linearGradient id="paint10_linear_293_10318" x1="435.03" y1="313.963" x2="381.841" y2="799.712" gradientUnits="userSpaceOnUse">
<stop offset="0.00310139" stop-color="#8585BC"/>
<stop offset="1" stop-color="#5ED9D1"/>
</linearGradient>
<linearGradient id="paint11_linear_293_10318" x1="451.634" y1="345.287" x2="414.163" y2="767.741" gradientUnits="userSpaceOnUse">
<stop offset="0.00310139" stop-color="#8585BC"/>
<stop offset="1" stop-color="#5ED9D1"/>
</linearGradient>
<linearGradient id="paint12_linear_293_10318" x1="468.238" y1="376.651" x2="443.02" y2="734.779" gradientUnits="userSpaceOnUse">
<stop offset="0.00310139" stop-color="#8585BC"/>
<stop offset="1" stop-color="#5ED9D1"/>
</linearGradient>
<linearGradient id="paint13_linear_293_10318" x1="484.876" y1="407.973" x2="468.972" y2="701.218" gradientUnits="userSpaceOnUse">
<stop offset="0.00310139" stop-color="#8585BC"/>
<stop offset="1" stop-color="#5ED9D1"/>
</linearGradient>
<linearGradient id="paint14_linear_293_10318" x1="501.476" y1="439.3" x2="492.399" y2="667.251" gradientUnits="userSpaceOnUse">
<stop offset="0.00310139" stop-color="#8585BC"/>
<stop offset="1" stop-color="#5ED9D1"/>
</linearGradient>
<linearGradient id="paint15_linear_293_10318" x1="518.078" y1="470.663" x2="513.716" y2="632.984" gradientUnits="userSpaceOnUse">
<stop offset="0.00310139" stop-color="#8585BC"/>
<stop offset="1" stop-color="#5ED9D1"/>
</linearGradient>
<linearGradient id="paint16_linear_293_10318" x1="534.717" y1="501.989" x2="533.248" y2="598.609" gradientUnits="userSpaceOnUse">
<stop offset="0.00310139" stop-color="#8585BC"/>
<stop offset="1" stop-color="#5ED9D1"/>
</linearGradient>
</defs>
</svg>
