<svg width="64" height="64" viewBox="0 0 64 64" fill="none" xmlns="http://www.w3.org/2000/svg">
<path d="M23.3967 54.9703C21.7677 54.9703 22.0003 56.8887 22.0003 56.8887H43.1777C43.1777 56.8887 43.2775 56.0651 42.8888 55.4972C42.6832 55.1984 42.3426 54.9703 41.7812 54.9703C40.2686 54.9703 39.9198 54.2934 39.9198 53.6162L40.036 45.718C40.036 43.0096 39.1047 41.2042 37.9408 40.3015C44.5742 39.6243 51.5549 37.1417 51.5549 26.0826C51.5549 22.9241 50.391 20.3286 48.5296 18.2973C48.8784 17.6203 49.8097 14.6862 48.1808 10.7366C48.1808 10.7366 47.5478 10.5323 46.1749 10.8212C44.8501 11.1011 42.8359 11.8414 40.036 13.6706C35.1492 12.3165 30.0287 12.3165 25.1419 13.6706C19.4412 9.94668 16.9972 10.7366 16.9972 10.7366C15.3682 14.6862 16.2996 17.6203 16.6484 18.2973C14.7869 20.3286 13.623 22.9241 13.623 26.0826C13.623 37.1417 20.4876 39.6243 27.1196 40.3015C26.3057 41.0914 25.4907 42.3327 25.2581 44.2509C23.5129 44.9281 19.2075 46.1682 16.6484 41.7683C16.6484 41.7683 15.0194 39.0599 11.9941 38.8344C11.9941 38.8344 9.085 38.8344 11.8778 40.6398C11.8778 40.6398 12.5026 40.9051 13.3 41.7864C13.8791 42.4263 14.5485 43.3912 15.1357 44.8153C15.1357 44.8153 16.8809 49.7793 25.1419 47.9739L25.2581 53.6162C25.2581 54.2934 24.9094 54.9703 23.3967 54.9703Z" fill="#171753"/>
</svg>
