<svg width="562" height="1035" viewBox="0 0 562 1035" fill="none" xmlns="http://www.w3.org/2000/svg">
<g opacity="0.9" clip-path="url(#clip0_2170_3717)">
<path d="M422.228 730.44V730.445L422.223 730.44H422.228Z" fill="url(#paint0_radial_2170_3717)"/>
<path d="M545.833 440.141L506.536 381.724H506.521L506.498 381.618L506.403 381.179H530.824L530.968 381.618H531.002L531.025 381.724L545.833 440.141Z" fill="url(#paint1_linear_2170_3717)"/>
<g style="mix-blend-mode:hard-light">
<g style="mix-blend-mode:overlay">
<path d="M417.505 373.441L413.131 619.522L413.138 619.532L413.128 619.525L412.381 703.631L324.937 867.293L365.726 922.368L419.387 803.755L458.58 723.654V723.65L458.584 723.654L487.187 469.279L417.505 373.441Z" fill="url(#paint2_linear_2170_3717)"/>
</g>
<g style="mix-blend-mode:overlay">
<path d="M487.187 469.279L417.589 373.54L417.504 373.441H417.989L417.914 373.031H478.316L478.38 373.441H478.394L478.412 373.54L487.187 469.279Z" fill="url(#paint3_linear_2170_3717)"/>
</g>
<g style="mix-blend-mode:overlay">
<path d="M338.149 379.107L338.1 379.206L299.165 454.851L298.616 455.912V379.107H299.073L299.108 378.895L299.143 378.697H338.227L338.025 379.107H338.149Z" fill="url(#paint4_linear_2170_3717)"/>
</g>
<g style="mix-blend-mode:overlay">
<path d="M300.587 651.928L286.016 842.719L285.998 842.641L216.075 656.727L242.124 379.206L242.127 379.107H243.504L243.592 378.697H299.062L299.108 378.895L299.111 378.898L299.189 379.206H298.616L299.164 454.851L300.587 651.928Z" fill="url(#paint5_linear_2170_3717)"/>
</g>
<g style="mix-blend-mode:overlay">
<path d="M539.805 379.206L539.784 379.107H539.752L539.618 378.697H516.785L478.317 373.031L478.381 373.441L478.395 373.54H478.413L487.188 469.278L458.581 723.654L461.578 782.074L464.685 842.722L464.688 842.718V842.715L546.227 559.446L553.651 433.824L539.805 379.206Z" fill="url(#paint6_linear_2170_3717)"/>
</g>
<g style="mix-blend-mode:overlay">
<path d="M152.63 611.514L52.349 471.881L43.3193 419.22L94.5888 377.505H94.3163L94.5852 376.999L175.873 378.697L175.806 379.107L175.799 379.163L152.63 611.514Z" fill="url(#paint7_linear_2170_3717)"/>
</g>
<g style="mix-blend-mode:overlay">
<path d="M43.3193 419.217L94.5852 377.505H94.3163L94.5852 376.996L144.538 378.697C144.59 378.696 144.641 378.707 144.688 378.728C144.735 378.749 144.777 378.781 144.811 378.82C144.845 378.859 144.869 378.905 144.883 378.955C144.897 379.004 144.9 379.056 144.892 379.107L43.3193 419.217Z" fill="url(#paint8_linear_2170_3717)"/>
</g>
<g style="mix-blend-mode:overlay">
<path d="M286.015 842.722L216.075 656.724L152.63 611.514L215.643 744.327L285.792 946.26L286.015 842.722Z" fill="url(#paint9_linear_2170_3717)"/>
</g>
<g style="mix-blend-mode:overlay">
<path d="M413.128 619.525L417.515 373.54H418.011L417.989 373.441L417.919 373.031L338.23 378.697L338.028 379.107H338.025L337.979 379.206H338.099L299.164 454.851L298.616 455.912L300.586 651.927L286.016 842.722L285.793 946.26L324.937 867.293L412.381 703.631L413.128 619.525Z" fill="url(#paint10_linear_2170_3717)"/>
</g>
<g style="mix-blend-mode:overlay">
<path d="M365.726 922.368L419.387 803.755L421.818 989.991L365.726 922.368Z" fill="url(#paint11_linear_2170_3717)"/>
</g>
<g style="mix-blend-mode:overlay">
<path d="M458.58 723.654L419.387 803.755L421.818 989.991L464.687 842.722L458.58 723.654Z" fill="url(#paint12_linear_2170_3717)"/>
</g>
<g style="mix-blend-mode:overlay">
<path d="M611.844 546.25L617.643 447.296L595.228 381.233L594.895 380.242H594.375L594.181 379.832L539.617 378.697L539.752 379.107L539.784 379.206H539.808L553.65 433.824L546.227 559.446L464.688 842.715L597.963 631.307L611.844 546.25Z" fill="url(#paint13_linear_2170_3717)"/>
</g>
<g style="mix-blend-mode:overlay">
<path d="M242.191 378.697L242.138 379.107L242.128 379.206H242.121L216.075 656.727L152.631 611.514L131.288 467.743L175.792 379.107H175.807L175.874 378.697H242.191Z" fill="url(#paint14_linear_2170_3717)"/>
</g>
</g>
<path d="M273.753 379.817L273.719 380.024L273.715 380.017L273.666 379.817H273.753Z" fill="url(#paint15_linear_2170_3717)"/>
<path d="M273.677 380.243L273.719 380.025L273.8 380.346H273.658L273.677 380.243Z" fill="url(#paint16_linear_2170_3717)"/>
<path d="M216.283 385.878L216.189 386.305L216.166 386.404H214.766L214.777 386.305L214.834 385.878H216.283Z" fill="url(#paint17_linear_2170_3717)"/>
<path d="M592.965 383.755L558.118 379.813C547.442 354.032 536.494 327.649 536.002 326.473L535.983 326.431C535.964 326.38 535.964 326.323 535.983 326.272L552.449 261.34C552.463 261.291 552.493 261.247 552.535 261.216C552.576 261.185 552.626 261.168 552.678 261.168C552.729 261.168 552.78 261.185 552.821 261.216C552.862 261.247 552.892 261.291 552.907 261.34L592.76 380.657L592.946 377.631L592.965 383.755Z" fill="url(#paint18_linear_2170_3717)"/>
<path d="M388.527 376.787L310.038 379.818L310.083 379.719H310.087L367.591 262.691L388.508 376.689L388.527 376.787Z" fill="url(#paint19_linear_2170_3717)"/>
<path d="M388.119 376.789H388.012L388.035 376.689L388.119 376.789Z" fill="url(#paint20_linear_2170_3717)"/>
<path d="M447.767 376.787L420.675 373.753L388.117 376.787L388.034 376.689H388.507L367.591 262.691L412.974 229.824V229.828H412.977L429.905 260.849L447.733 376.689H447.749L447.767 376.787Z" fill="url(#paint21_linear_2170_3717)"/>
<path d="M310.205 379.719L310.16 379.817H271.438V379.719H271.88L271.918 379.511L294.159 257.406L367.592 262.691L310.084 379.719H310.205Z" fill="url(#paint22_linear_2170_3717)"/>
<path d="M367.592 262.687L336.575 236.721L327.484 166.288L357.779 150.778L411.937 218.63L412.974 229.828L367.592 262.687Z" fill="url(#paint23_linear_2170_3717)"/>
<path d="M271.997 379.817L216.029 385.877L216.033 385.783H217.384L242.959 263.931L271.918 379.51L271.921 379.514L271.997 379.817Z" fill="url(#paint24_linear_2170_3717)"/>
<path d="M271.998 379.82H271.864L271.88 379.721L271.922 379.515L271.998 379.82Z" fill="url(#paint25_linear_2170_3717)"/>
<path d="M294.158 176.865V257.406L271.921 379.515L271.917 379.511L242.959 263.932L256.288 253.956L294.158 176.865Z" fill="url(#paint26_linear_2170_3717)"/>
<path d="M294.159 176.865L256.288 253.956L242.959 263.932L217.384 385.783L217.362 385.878H216.033L216.045 385.783L231.171 257.035H231.175L294.159 176.865Z" fill="url(#paint27_linear_2170_3717)"/>
<path d="M485.525 376.787H447.749L447.733 376.689L429.905 260.849L412.977 229.828H412.974V229.824L458.326 222.337L463.953 281.534L485.487 376.689H485.51L485.525 376.787Z" fill="url(#paint28_linear_2170_3717)"/>
<path d="M507.978 376.787H485.51L485.487 376.689L463.954 281.534L492.663 332.219L507.925 376.689H507.955L507.978 376.787Z" fill="url(#paint29_linear_2170_3717)"/>
<path d="M562.038 379.817L507.955 376.787L507.925 376.689L492.662 332.219L463.954 281.534L458.326 222.337L552.634 260.546L552.437 261.329L535.967 326.257L535.948 326.34L535.986 326.42L536.001 326.462L561.497 379.719H562.008L562.038 379.817Z" fill="url(#paint30_linear_2170_3717)"/>
<path d="M294.159 176.865L231.175 257.039L175.404 223.408L228.291 207.818L315.329 60L294.159 176.865Z" fill="url(#paint31_linear_2170_3717)"/>
<path d="M294.158 257.402V176.865L315.328 60L327.484 166.288L336.574 236.72L367.591 262.687L294.158 257.402Z" fill="url(#paint32_linear_2170_3717)"/>
<path d="M327.485 166.288L357.779 150.778L315.329 60L327.485 166.288Z" fill="url(#paint33_linear_2170_3717)"/>
<path d="M357.778 150.778L411.937 218.63L417.591 138.487L357.778 150.778Z" fill="url(#paint34_linear_2170_3717)"/>
<path d="M412.974 229.828L411.938 218.63L417.591 138.487L458.327 222.337L412.974 229.828Z" fill="url(#paint35_linear_2170_3717)"/>
<path d="M150.991 379.719L150.983 379.776L150.987 379.817L69.4023 376.787L82.6667 354.649L158.117 334.099L150.991 379.719Z" fill="url(#paint36_linear_2170_3717)"/>
<path d="M562.039 379.818H561.985L562.008 379.719L562.039 379.818Z" fill="url(#paint37_linear_2170_3717)"/>
<path d="M525.152 326.416L525.114 326.34L525.133 326.257C525.12 326.311 525.127 326.367 525.152 326.416Z" fill="url(#paint38_linear_2170_3717)"/>
<path d="M231.171 257.035L216.045 385.783L216.033 385.877L153.988 382.847L150.976 382.753L132.47 379.719L158.117 334.099L175.4 223.408L231.171 257.035Z" fill="url(#paint39_linear_2170_3717)"/>
<path d="M163.564 203L168.181 217.21L183.122 217.21L171.035 225.992L175.652 240.201L163.564 231.419L151.477 240.201L156.094 225.992L144.006 217.21L158.947 217.21L163.564 203Z" fill="#FE7F00"/>
<g clip-path="url(#clip1_2170_3717)">
<path d="M337.204 51.9081C337.251 52.2006 337.666 54.0715 340.66 52.9934C340.766 52.9543 340.857 52.881 340.918 52.7849C340.979 52.6889 341.007 52.5754 340.997 52.4621L339.53 37.242C339.518 37.1156 339.459 36.9983 339.365 36.913C339.271 36.8278 339.148 36.7807 339.021 36.781H337.293C337.225 36.781 337.157 36.7947 337.094 36.8212C337.032 36.8478 336.975 36.8867 336.927 36.9356C336.879 36.9846 336.842 37.0426 336.817 37.1062C336.792 37.1699 336.78 37.2378 336.782 37.3061L337.196 51.844C337.199 51.8657 337.201 51.8864 337.204 51.9081Z" fill="#D77107"/>
<path d="M340.745 50.5798C338.056 48.8733 333.047 48.8733 326.077 51.4449C319.107 54.0166 315.372 50.5798 315.372 50.5798L313.851 34.1886C313.851 34.1886 317.586 37.6254 324.555 35.0547C330.555 32.8397 335.106 32.5327 337.97 33.5797C338.342 33.7172 338.667 33.957 338.908 34.2715C339.149 34.5859 339.296 34.9621 339.332 35.3565L340.745 50.5798Z" fill="#F68816"/>
<path d="M335.177 48.3225C332.487 48.1788 329.847 48.736 327.197 49.074C324.967 49.3613 322.256 49.6797 320.353 48.2026C319.456 47.506 318.758 46.5116 318.15 45.5648C317.456 44.46 316.881 43.2852 316.435 42.0598C315.504 39.5656 314.219 37.0653 313.941 34.3861C313.936 34.3463 313.936 34.3061 313.941 34.2662C313.881 34.2166 313.85 34.1887 313.85 34.1887L315.372 50.58C315.372 50.58 319.108 54.0168 326.077 51.4451C333.046 48.8734 338.058 48.8734 340.745 50.58L340.699 50.0838C339.112 48.9541 337.15 48.4279 335.177 48.3225Z" fill="#D77107"/>
<path d="M313.002 33.7577L313.079 34.5846C313.148 35.3322 313.217 36.0799 313.286 36.8276L313.596 40.1651L313.972 44.2087L314.386 48.6533C314.524 50.1493 314.662 51.6446 314.799 53.1392C314.93 54.5325 315.059 55.9265 315.188 57.3213L315.517 60.8552L315.753 63.3959C315.79 63.7959 315.816 64.199 315.865 64.598C315.865 64.6156 315.865 64.6321 315.87 64.6497C315.891 64.8771 316.18 65.028 316.412 64.9918C316.469 64.9841 316.523 64.9652 316.572 64.9364C316.621 64.9076 316.664 64.8694 316.698 64.8239C316.732 64.7784 316.757 64.7267 316.771 64.6715C316.785 64.6164 316.788 64.5591 316.779 64.5029L316.702 63.6708C316.633 62.9232 316.564 62.1758 316.495 61.4289L316.185 58.0913L315.809 54.0467L315.395 49.6021C315.257 48.1075 315.119 46.6125 314.982 45.1172L314.594 40.9352L314.265 37.4012L314.027 34.8647C313.99 34.4637 313.964 34.0616 313.915 33.6616C313.915 33.645 313.915 33.6274 313.915 33.6109C313.894 33.3835 313.605 33.2326 313.373 33.2688C313.317 33.2764 313.262 33.2951 313.213 33.3239C313.164 33.3527 313.121 33.3909 313.087 33.4364C313.053 33.4819 313.028 33.5337 313.014 33.5889C313 33.6441 312.997 33.7014 313.006 33.7577H313.002Z" fill="#4F2655"/>
</g>
</g>
<defs>
<radialGradient id="paint0_radial_2170_3717" cx="0" cy="0" r="1" gradientUnits="userSpaceOnUse" gradientTransform="translate(422.228 730.44) scale(0.00549316)">
<stop stop-color="#40FFFF"/>
<stop offset="0.13" stop-color="#34DDDD"/>
<stop offset="0.34" stop-color="#22A8AA"/>
<stop offset="0.55" stop-color="#137E81"/>
<stop offset="0.73" stop-color="#096063"/>
<stop offset="0.89" stop-color="#024E51"/>
<stop offset="1" stop-color="#00474B"/>
</radialGradient>
<linearGradient id="paint1_linear_2170_3717" x1="503.41" y1="358.931" x2="571.257" y2="459.514" gradientUnits="userSpaceOnUse">
<stop stop-color="#05A6DA"/>
<stop offset="1" stop-color="#002D47"/>
</linearGradient>
<linearGradient id="paint2_linear_2170_3717" x1="444.307" y1="881.424" x2="388.661" y2="571.108" gradientUnits="userSpaceOnUse">
<stop stop-color="#005976"/>
<stop offset="1" stop-color="#004365"/>
</linearGradient>
<linearGradient id="paint3_linear_2170_3717" x1="449.706" y1="379.595" x2="484.039" y2="501.235" gradientUnits="userSpaceOnUse">
<stop stop-color="#05A6DA"/>
<stop offset="1" stop-color="#002D47"/>
</linearGradient>
<linearGradient id="paint4_linear_2170_3717" x1="320.553" y1="372.065" x2="279.36" y2="505.99" gradientUnits="userSpaceOnUse">
<stop stop-color="#05A6DA"/>
<stop offset="1" stop-color="#002D47"/>
</linearGradient>
<linearGradient id="paint5_linear_2170_3717" x1="248.815" y1="396.636" x2="291.897" y2="989.905" gradientUnits="userSpaceOnUse">
<stop stop-color="#003B5B"/>
<stop offset="1" stop-color="#00CEFF"/>
</linearGradient>
<linearGradient id="paint6_linear_2170_3717" x1="458.581" y1="607.878" x2="553.651" y2="607.878" gradientUnits="userSpaceOnUse">
<stop stop-color="#002540"/>
<stop offset="1" stop-color="#006DA0"/>
</linearGradient>
<linearGradient id="paint7_linear_2170_3717" x1="109.595" y1="373.398" x2="109.595" y2="604.797" gradientUnits="userSpaceOnUse">
<stop stop-color="#003565"/>
<stop offset="1" stop-color="#00ABC9"/>
</linearGradient>
<linearGradient id="paint8_linear_2170_3717" x1="121.614" y1="360.489" x2="57.5319" y2="450.636" gradientUnits="userSpaceOnUse">
<stop stop-color="#05D8DA"/>
<stop offset="1" stop-color="#002D47"/>
</linearGradient>
<linearGradient id="paint9_linear_2170_3717" x1="273.823" y1="951.848" x2="167.366" y2="512.56" gradientUnits="userSpaceOnUse">
<stop stop-color="#004D78"/>
<stop offset="1" stop-color="#0399D3"/>
</linearGradient>
<linearGradient id="paint10_linear_2170_3717" x1="328.871" y1="842.315" x2="400.886" y2="131.737" gradientUnits="userSpaceOnUse">
<stop stop-color="#0081B3"/>
<stop offset="1" stop-color="#002D47"/>
</linearGradient>
<linearGradient id="paint11_linear_2170_3717" x1="386.265" y1="852.325" x2="446.001" y2="954.329" gradientUnits="userSpaceOnUse">
<stop stop-color="#002440"/>
<stop offset="1" stop-color="#033058"/>
</linearGradient>
<linearGradient id="paint12_linear_2170_3717" x1="444.349" y1="789.632" x2="425.423" y2="1065.03" gradientUnits="userSpaceOnUse">
<stop stop-color="#001F35"/>
<stop offset="1" stop-color="#007094"/>
</linearGradient>
<linearGradient id="paint13_linear_2170_3717" x1="439.488" y1="504.408" x2="626.766" y2="726.621" gradientUnits="userSpaceOnUse">
<stop stop-color="#002635"/>
<stop offset="1" stop-color="#005B87"/>
</linearGradient>
<linearGradient id="paint14_linear_2170_3717" x1="157.811" y1="633.627" x2="222.58" y2="342.065" gradientUnits="userSpaceOnUse">
<stop stop-color="#05A6DA"/>
<stop offset="1" stop-color="#002D47"/>
</linearGradient>
<linearGradient id="paint15_linear_2170_3717" x1="273.704" y1="379.791" x2="273.768" y2="380.205" gradientUnits="userSpaceOnUse">
<stop stop-color="#83E8F5"/>
<stop offset="1" stop-color="#009DD2"/>
</linearGradient>
<linearGradient id="paint16_linear_2170_3717" x1="273.674" y1="379.999" x2="273.773" y2="380.644" gradientUnits="userSpaceOnUse">
<stop stop-color="#83E8F5"/>
<stop offset="1" stop-color="#009DD2"/>
</linearGradient>
<linearGradient id="paint17_linear_2170_3717" x1="215.379" y1="386.528" x2="215.628" y2="385.734" gradientUnits="userSpaceOnUse">
<stop stop-color="#007DA5"/>
<stop offset="1" stop-color="#1AB8D7"/>
</linearGradient>
<linearGradient id="paint18_linear_2170_3717" x1="564.461" y1="384.342" x2="564.461" y2="272.784" gradientUnits="userSpaceOnUse">
<stop stop-color="#007DA5"/>
<stop offset="1" stop-color="#48E4FF"/>
</linearGradient>
<linearGradient id="paint19_linear_2170_3717" x1="356.53" y1="273.083" x2="347.828" y2="399.516" gradientUnits="userSpaceOnUse">
<stop stop-color="#13DBFF"/>
<stop offset="1" stop-color="#0064A5"/>
</linearGradient>
<linearGradient id="paint20_linear_2170_3717" x1="388.085" y1="376.704" x2="388.062" y2="376.796" gradientUnits="userSpaceOnUse">
<stop stop-color="#2B84AE"/>
<stop offset="1" stop-color="#11688B"/>
</linearGradient>
<linearGradient id="paint21_linear_2170_3717" x1="427.195" y1="239.259" x2="394.468" y2="374.307" gradientUnits="userSpaceOnUse">
<stop stop-color="#85E3F5"/>
<stop offset="1" stop-color="#32C8EF"/>
</linearGradient>
<linearGradient id="paint22_linear_2170_3717" x1="316.922" y1="329.079" x2="380.543" y2="14.0873" gradientUnits="userSpaceOnUse">
<stop stop-color="#84F0FF"/>
<stop offset="1" stop-color="#EFEFEF"/>
</linearGradient>
<linearGradient id="paint23_linear_2170_3717" x1="294.84" y1="141.434" x2="426.24" y2="272.881" gradientUnits="userSpaceOnUse">
<stop stop-color="#98E5EF"/>
<stop offset="1" stop-color="#58DCF5"/>
</linearGradient>
<linearGradient id="paint24_linear_2170_3717" x1="243.966" y1="391.211" x2="244.65" y2="264.612" gradientUnits="userSpaceOnUse">
<stop stop-color="#30D9FB"/>
<stop offset="1" stop-color="#B2F0F6"/>
</linearGradient>
<linearGradient id="paint25_linear_2170_3717" x1="271.88" y1="379.492" x2="271.975" y2="380.103" gradientUnits="userSpaceOnUse">
<stop stop-color="#83E8F5"/>
<stop offset="1" stop-color="#009DD2"/>
</linearGradient>
<linearGradient id="paint26_linear_2170_3717" x1="259.667" y1="162.271" x2="318.775" y2="548.895" gradientUnits="userSpaceOnUse">
<stop stop-color="#83E8F5"/>
<stop offset="1" stop-color="#009DD2"/>
</linearGradient>
<linearGradient id="paint27_linear_2170_3717" x1="214.947" y1="369.959" x2="272.916" y2="183.95" gradientUnits="userSpaceOnUse">
<stop stop-color="#007DA5"/>
<stop offset="1" stop-color="#48E4FF"/>
</linearGradient>
<linearGradient id="paint28_linear_2170_3717" x1="449.251" y1="385.182" x2="449.251" y2="250.188" gradientUnits="userSpaceOnUse">
<stop stop-color="#0064A5"/>
<stop offset="1" stop-color="#13DBFF"/>
</linearGradient>
<linearGradient id="paint29_linear_2170_3717" x1="485.964" y1="378.368" x2="485.964" y2="283.925" gradientUnits="userSpaceOnUse">
<stop stop-color="#007DA5"/>
<stop offset="1" stop-color="#48E4FF"/>
</linearGradient>
<linearGradient id="paint30_linear_2170_3717" x1="539.475" y1="379.742" x2="497.928" y2="234.802" gradientUnits="userSpaceOnUse">
<stop stop-color="#0064A5"/>
<stop offset="1" stop-color="#13DBFF"/>
</linearGradient>
<linearGradient id="paint31_linear_2170_3717" x1="239.478" y1="135.823" x2="295.936" y2="192.302" gradientUnits="userSpaceOnUse">
<stop stop-color="#D1F7FF"/>
<stop offset="1" stop-color="#ECFAFF"/>
</linearGradient>
<linearGradient id="paint32_linear_2170_3717" x1="330.909" y1="261.11" x2="322.668" y2="27.5225" gradientUnits="userSpaceOnUse">
<stop stop-color="#D1F7FF"/>
<stop offset="1" stop-color="#ECFAFF"/>
</linearGradient>
<linearGradient id="paint33_linear_2170_3717" x1="363.596" y1="209.335" x2="275.773" y2="-3.64946" gradientUnits="userSpaceOnUse">
<stop stop-color="#98E5EF"/>
<stop offset="1" stop-color="#58DCF5"/>
</linearGradient>
<linearGradient id="paint34_linear_2170_3717" x1="341.793" y1="206.922" x2="385.477" y2="121.99" gradientUnits="userSpaceOnUse">
<stop stop-color="#D1F7FF"/>
<stop offset="1" stop-color="#ECFAFF"/>
</linearGradient>
<linearGradient id="paint35_linear_2170_3717" x1="435.132" y1="247.173" x2="435.132" y2="128.288" gradientUnits="userSpaceOnUse">
<stop stop-color="#27D9FF"/>
<stop offset="1" stop-color="#2799A0"/>
</linearGradient>
<linearGradient id="paint36_linear_2170_3717" x1="112.791" y1="337.141" x2="115.12" y2="381.27" gradientUnits="userSpaceOnUse">
<stop stop-color="#D1F7FF"/>
<stop offset="1" stop-color="#ECFAFF"/>
</linearGradient>
<linearGradient id="paint37_linear_2170_3717" x1="562.012" y1="379.73" x2="562.012" y2="379.81" gradientUnits="userSpaceOnUse">
<stop stop-color="#189DCC"/>
<stop offset="1" stop-color="#006F83"/>
</linearGradient>
<linearGradient id="paint38_linear_2170_3717" x1="525.16" y1="326.268" x2="525.126" y2="326.405" gradientUnits="userSpaceOnUse">
<stop stop-color="#85E3F5"/>
<stop offset="1" stop-color="#32C8EF"/>
</linearGradient>
<linearGradient id="paint39_linear_2170_3717" x1="181.822" y1="378.47" x2="181.822" y2="219.908" gradientUnits="userSpaceOnUse">
<stop stop-color="#30D9FB"/>
<stop offset="1" stop-color="#B2F0F6"/>
</linearGradient>
<clipPath id="clip0_2170_3717">
<rect width="562" height="1035" fill="white"/>
</clipPath>
<clipPath id="clip1_2170_3717">
<rect width="30" height="32" fill="white" transform="translate(311 35)"/>
</clipPath>
</defs>
</svg>
