<svg width="504" height="355" viewBox="0 0 504 355" fill="none" xmlns="http://www.w3.org/2000/svg">
<path d="M534.568 361.064L498.989 357.046C488.089 330.762 476.91 303.865 476.408 302.665L476.388 302.623C476.369 302.571 476.369 302.513 476.388 302.461L493.201 236.264C493.215 236.213 493.246 236.169 493.288 236.137C493.33 236.106 493.382 236.089 493.434 236.089C493.487 236.089 493.538 236.106 493.581 236.137C493.623 236.169 493.653 236.213 493.668 236.264L534.36 357.906L534.549 354.82L534.568 361.064Z" fill="url(#paint0_linear_2152_3716)"/>
<path d="M325.833 353.96L245.694 357.05L245.741 356.949H245.745L304.457 237.641L325.814 353.86L325.833 353.96Z" fill="url(#paint1_linear_2152_3716)"/>
<path d="M325.415 353.96H325.308L325.331 353.86L325.415 353.96Z" fill="url(#paint2_linear_2152_3716)"/>
<path d="M386.319 353.96L358.657 350.867L325.415 353.96L325.33 353.86H325.813L304.457 237.641L350.794 204.133V204.137H350.798L368.081 235.762L386.284 353.86H386.3L386.319 353.96Z" fill="url(#paint3_linear_2152_3716)"/>
<path d="M245.864 356.949L245.817 357.049H206.281V356.949H206.733L206.772 356.737L229.48 232.253L304.457 237.641L245.74 356.949H245.864Z" fill="url(#paint4_linear_2152_3716)"/>
<path d="M304.457 237.637L272.788 211.165L263.507 139.36L294.438 123.547L349.735 192.722L350.794 204.138L304.457 237.637Z" fill="url(#paint5_linear_2152_3716)"/>
<path d="M206.853 357.049L149.709 363.228L149.713 363.131H151.092L177.205 238.906L206.772 356.737L206.776 356.741L206.853 357.049Z" fill="url(#paint6_linear_2152_3716)"/>
<path d="M229.481 150.143V232.253L206.776 356.741L206.772 356.737L177.205 238.906L190.814 228.736L229.481 150.143Z" fill="url(#paint7_linear_2152_3716)"/>
<path d="M229.481 150.143L190.814 228.736L177.205 238.906L151.092 363.132L151.069 363.228H149.713L149.724 363.132L165.169 231.875H165.173L229.481 150.143Z" fill="url(#paint8_linear_2152_3716)"/>
<path d="M424.87 353.961H386.3L386.284 353.86L368.081 235.763L350.798 204.137H350.794V204.133L397.1 196.501L402.845 256.851L424.831 353.86H424.855L424.87 353.961Z" fill="url(#paint9_linear_2152_3716)"/>
<path d="M447.795 353.96H424.855L424.832 353.86L402.846 256.851L432.158 308.524L447.741 353.86H447.772L447.795 353.96Z" fill="url(#paint10_linear_2152_3716)"/>
<path d="M502.992 357.05L447.772 353.961L447.741 353.86L432.157 308.524L402.845 256.851L397.1 196.501L493.39 235.454L493.189 236.252L476.373 302.446L476.353 302.531L476.392 302.612L476.408 302.654L502.439 356.949H502.961L502.992 357.05Z" fill="url(#paint11_linear_2152_3716)"/>
<path d="M229.481 150.143L165.173 231.879L108.229 197.592L162.228 181.699L251.096 31L229.481 150.143Z" fill="url(#paint12_linear_2152_3716)"/>
<path d="M229.48 232.249V150.143L251.096 31L263.507 139.359L272.788 211.164L304.457 237.637L229.48 232.249Z" fill="url(#paint13_linear_2152_3716)"/>
<path d="M263.507 139.359L294.438 123.547L251.096 31L263.507 139.359Z" fill="url(#paint14_linear_2152_3716)"/>
<path d="M294.438 123.547L349.736 192.721L355.508 111.016L294.438 123.547Z" fill="url(#paint15_linear_2152_3716)"/>
<path d="M350.794 204.137L349.735 192.721L355.508 111.016L397.1 196.501L350.794 204.137Z" fill="url(#paint16_linear_2152_3716)"/>
<path d="M83.3033 356.949L83.2955 357.007L83.2994 357.05L0 353.96L13.5432 331.391L90.5791 310.441L83.3033 356.949Z" fill="url(#paint17_linear_2152_3716)"/>
<path d="M465.33 302.607L465.291 302.53L465.31 302.446C465.297 302.5 465.304 302.557 465.33 302.607Z" fill="url(#paint18_linear_2152_3716)"/>
<path d="M165.169 231.875L149.724 363.131L149.713 363.228L86.3631 360.139L83.2874 360.042L64.3926 356.949L90.5787 310.441L108.225 197.592L165.169 231.875Z" fill="url(#paint19_linear_2152_3716)"/>
<path d="M106.326 177.028L110.943 191.237L125.884 191.237L113.797 200.019L118.414 214.229L106.326 205.447L94.2387 214.229L98.8557 200.019L86.7682 191.237L101.709 191.237L106.326 177.028Z" fill="#FE7F00"/>
<g clip-path="url(#clip0_2152_3716)">
<path d="M274.211 16.9081C274.258 17.2006 274.673 19.0715 277.666 17.9934C277.773 17.9543 277.864 17.881 277.925 17.7849C277.986 17.6889 278.014 17.5754 278.004 17.4621L276.537 2.242C276.525 2.11562 276.466 1.99831 276.372 1.91304C276.277 1.82777 276.155 1.78069 276.028 1.78101H274.3C274.232 1.78098 274.164 1.79465 274.101 1.82121C274.038 1.84777 273.981 1.88668 273.934 1.93564C273.886 1.9846 273.849 2.04261 273.824 2.10624C273.799 2.16987 273.787 2.23783 273.789 2.30609L274.203 16.844C274.206 16.8657 274.208 16.8864 274.211 16.9081Z" fill="#D77107"/>
<path d="M275.752 17.5798C273.062 15.8733 268.054 15.8733 261.084 18.4449C254.113 21.0166 250.379 17.5798 250.379 17.5798L248.857 1.18855C248.857 1.18855 252.593 4.62536 259.562 2.05473C265.562 -0.160331 270.113 -0.467317 272.977 0.579746C273.348 0.717224 273.674 0.957043 273.915 1.27147C274.156 1.5859 274.303 1.96209 274.339 2.35655L275.752 17.5798Z" fill="#F68816"/>
<path d="M270.184 15.3225C267.494 15.1788 264.854 15.736 262.204 16.074C259.974 16.3613 257.262 16.6797 255.36 15.2026C254.463 14.506 253.765 13.5116 253.157 12.5648C252.463 11.46 251.888 10.2852 251.442 9.05978C250.511 6.56564 249.226 4.0653 248.947 1.38614C248.943 1.34628 248.943 1.3061 248.947 1.26624C248.887 1.21663 248.856 1.18872 248.856 1.18872L250.379 17.58C250.379 17.58 254.115 21.0168 261.084 18.4451C268.053 15.8734 273.065 15.8734 275.752 17.58L275.706 17.0838C274.119 15.9541 272.156 15.4279 270.184 15.3225Z" fill="#D77107"/>
<path d="M248.008 0.757683L248.086 1.58458C248.155 2.33224 248.224 3.0799 248.293 3.82755L248.603 7.16513L248.979 11.2087L249.393 15.6533C249.53 17.1493 249.668 18.6446 249.806 20.1392C249.937 21.5325 250.066 22.9265 250.195 24.3213L250.524 27.8552L250.76 30.3959C250.797 30.7959 250.823 31.199 250.872 31.598C250.872 31.6156 250.872 31.6321 250.877 31.6497C250.898 31.8771 251.187 32.028 251.419 31.9918C251.475 31.9841 251.53 31.9653 251.579 31.9364C251.628 31.9076 251.671 31.8694 251.705 31.8239C251.739 31.7784 251.764 31.7267 251.778 31.6715C251.792 31.6164 251.795 31.5591 251.786 31.5029L251.709 30.6708C251.64 29.9232 251.571 29.1758 251.502 28.4289L251.191 25.0913L250.816 21.0467L250.402 16.6021C250.264 15.1075 250.126 13.6125 249.988 12.1172L249.6 7.93518L249.272 4.40121L249.034 1.8647C248.996 1.46365 248.97 1.06157 248.922 0.661556C248.922 0.645018 248.922 0.627447 248.922 0.610909C248.901 0.383511 248.612 0.232602 248.38 0.268779C248.323 0.276371 248.269 0.295101 248.22 0.32388C248.171 0.352658 248.128 0.390909 248.094 0.436407C248.06 0.481905 248.035 0.533741 248.021 0.588898C248.007 0.644054 248.004 0.701429 248.013 0.757683H248.008Z" fill="#4F2655"/>
</g>
<defs>
<linearGradient id="paint0_linear_2152_3716" x1="505.465" y1="361.662" x2="505.465" y2="247.931" gradientUnits="userSpaceOnUse">
<stop stop-color="#007DA5"/>
<stop offset="1" stop-color="#48E4FF"/>
</linearGradient>
<linearGradient id="paint1_linear_2152_3716" x1="293.163" y1="248.235" x2="284.305" y2="377.134" gradientUnits="userSpaceOnUse">
<stop stop-color="#13DBFF"/>
<stop offset="1" stop-color="#0064A5"/>
</linearGradient>
<linearGradient id="paint2_linear_2152_3716" x1="325.381" y1="353.876" x2="325.358" y2="353.968" gradientUnits="userSpaceOnUse">
<stop stop-color="#2B84AE"/>
<stop offset="1" stop-color="#11688B"/>
</linearGradient>
<linearGradient id="paint3_linear_2152_3716" x1="365.314" y1="213.752" x2="331.994" y2="351.455" gradientUnits="userSpaceOnUse">
<stop stop-color="#85E3F5"/>
<stop offset="1" stop-color="#32C8EF"/>
</linearGradient>
<linearGradient id="paint4_linear_2152_3716" x1="252.722" y1="305.323" x2="317.493" y2="-15.8451" gradientUnits="userSpaceOnUse">
<stop stop-color="#84F0FF"/>
<stop offset="1" stop-color="#EFEFEF"/>
</linearGradient>
<linearGradient id="paint5_linear_2152_3716" x1="230.176" y1="114.021" x2="364.136" y2="248.231" gradientUnits="userSpaceOnUse">
<stop stop-color="#98E5EF"/>
<stop offset="1" stop-color="#58DCF5"/>
</linearGradient>
<linearGradient id="paint6_linear_2152_3716" x1="178.233" y1="368.666" x2="178.93" y2="239.6" gradientUnits="userSpaceOnUse">
<stop stop-color="#30D9FB"/>
<stop offset="1" stop-color="#B2F0F6"/>
</linearGradient>
<linearGradient id="paint7_linear_2152_3716" x1="194.264" y1="135.263" x2="254.438" y2="529.449" gradientUnits="userSpaceOnUse">
<stop stop-color="#83E8F5"/>
<stop offset="1" stop-color="#009DD2"/>
</linearGradient>
<linearGradient id="paint8_linear_2152_3716" x1="148.604" y1="346.999" x2="207.629" y2="157.315" gradientUnits="userSpaceOnUse">
<stop stop-color="#007DA5"/>
<stop offset="1" stop-color="#48E4FF"/>
</linearGradient>
<linearGradient id="paint9_linear_2152_3716" x1="387.834" y1="362.519" x2="387.834" y2="224.894" gradientUnits="userSpaceOnUse">
<stop stop-color="#0064A5"/>
<stop offset="1" stop-color="#13DBFF"/>
</linearGradient>
<linearGradient id="paint10_linear_2152_3716" x1="425.319" y1="355.572" x2="425.319" y2="259.289" gradientUnits="userSpaceOnUse">
<stop stop-color="#007DA5"/>
<stop offset="1" stop-color="#48E4FF"/>
</linearGradient>
<linearGradient id="paint11_linear_2152_3716" x1="479.955" y1="356.973" x2="437.652" y2="209.175" gradientUnits="userSpaceOnUse">
<stop stop-color="#0064A5"/>
<stop offset="1" stop-color="#13DBFF"/>
</linearGradient>
<linearGradient id="paint12_linear_2152_3716" x1="173.65" y1="108.301" x2="231.208" y2="165.967" gradientUnits="userSpaceOnUse">
<stop stop-color="#D1F7FF"/>
<stop offset="1" stop-color="#ECFAFF"/>
</linearGradient>
<linearGradient id="paint13_linear_2152_3716" x1="267.003" y1="236.029" x2="258.615" y2="-2.1113" gradientUnits="userSpaceOnUse">
<stop stop-color="#D1F7FF"/>
<stop offset="1" stop-color="#ECFAFF"/>
</linearGradient>
<linearGradient id="paint14_linear_2152_3716" x1="300.377" y1="183.245" x2="210.938" y2="-33.9846" gradientUnits="userSpaceOnUse">
<stop stop-color="#98E5EF"/>
<stop offset="1" stop-color="#58DCF5"/>
</linearGradient>
<linearGradient id="paint15_linear_2152_3716" x1="278.117" y1="180.785" x2="322.614" y2="94.1438" gradientUnits="userSpaceOnUse">
<stop stop-color="#D1F7FF"/>
<stop offset="1" stop-color="#ECFAFF"/>
</linearGradient>
<linearGradient id="paint16_linear_2152_3716" x1="373.418" y1="221.82" x2="373.418" y2="100.618" gradientUnits="userSpaceOnUse">
<stop stop-color="#27D9FF"/>
<stop offset="1" stop-color="#2799A0"/>
</linearGradient>
<linearGradient id="paint17_linear_2152_3716" x1="44.3004" y1="313.542" x2="46.6717" y2="358.531" gradientUnits="userSpaceOnUse">
<stop stop-color="#D1F7FF"/>
<stop offset="1" stop-color="#ECFAFF"/>
</linearGradient>
<linearGradient id="paint18_linear_2152_3716" x1="465.337" y1="302.457" x2="465.303" y2="302.596" gradientUnits="userSpaceOnUse">
<stop stop-color="#85E3F5"/>
<stop offset="1" stop-color="#32C8EF"/>
</linearGradient>
<linearGradient id="paint19_linear_2152_3716" x1="114.783" y1="355.676" x2="114.783" y2="194.025" gradientUnits="userSpaceOnUse">
<stop stop-color="#30D9FB"/>
<stop offset="1" stop-color="#B2F0F6"/>
</linearGradient>
<clipPath id="clip0_2152_3716">
<rect width="30" height="32" fill="white" transform="translate(248.007)"/>
</clipPath>
</defs>
</svg>
