<svg width="519" height="617" viewBox="0 0 519 617" fill="none" xmlns="http://www.w3.org/2000/svg">
<g style="mix-blend-mode:hard-light">
<g style="mix-blend-mode:overlay">
<path d="M374.505 0.440918L370.131 246.522L370.138 246.532L370.128 246.525L369.381 330.631L281.937 494.293L322.726 549.368L376.387 430.755L415.58 350.654V350.65L415.584 350.654L444.187 96.2786L374.505 0.440918Z" fill="url(#paint0_linear_2170_3720)"/>
</g>
<g style="mix-blend-mode:overlay">
<path d="M444.187 96.2785L374.589 0.539842L374.504 0.440818H374.989L374.914 0.0305176H435.316L435.38 0.440818H435.394L435.412 0.539842L444.187 96.2785Z" fill="url(#paint1_linear_2170_3720)"/>
</g>
<g style="mix-blend-mode:overlay">
<path d="M295.149 6.10706L295.1 6.2061L256.165 81.8512L255.616 82.9123V6.10706H256.073L256.108 5.89485L256.143 5.69678H295.227L295.025 6.10706H295.149Z" fill="url(#paint2_linear_2170_3720)"/>
</g>
<g style="mix-blend-mode:overlay">
<path d="M257.587 278.928L243.016 469.719L242.998 469.641L173.075 283.727L199.124 6.2061L199.127 6.10706H200.504L200.592 5.69678H256.062L256.108 5.89485L256.111 5.89839L256.189 6.2061H255.616L256.164 81.8513L257.587 278.928Z" fill="url(#paint3_linear_2170_3720)"/>
</g>
<g style="mix-blend-mode:overlay">
<path d="M496.805 6.20607L496.784 6.10702H496.752L496.618 5.69675H473.785L435.317 0.0305176L435.381 0.440818L435.395 0.539842H435.413L444.188 96.2785L415.581 350.654L418.578 409.074L421.685 469.722L421.688 469.718V469.715L503.227 186.446L510.651 60.8239L496.805 6.20607Z" fill="url(#paint4_linear_2170_3720)"/>
</g>
<g style="mix-blend-mode:overlay">
<path d="M109.63 238.514L9.34898 98.8814L0.319336 46.2196L51.5888 4.50456H51.3163L51.5852 3.99878L132.873 5.69652L132.806 6.1068L132.799 6.1634L109.63 238.514Z" fill="url(#paint5_linear_2170_3720)"/>
</g>
<g style="mix-blend-mode:overlay">
<path d="M0.319336 46.2166L51.5852 4.50515H51.3163L51.5852 3.99585L101.538 5.69711C101.59 5.69644 101.641 5.70708 101.688 5.72828C101.735 5.74948 101.777 5.78076 101.811 5.81986C101.845 5.85896 101.869 5.90493 101.883 5.95461C101.897 6.00429 101.9 6.05645 101.892 6.10741L0.319336 46.2166Z" fill="url(#paint6_linear_2170_3720)"/>
</g>
<g style="mix-blend-mode:overlay">
<path d="M243.015 469.722L173.075 283.724L109.63 238.514L172.643 371.327L242.792 573.26L243.015 469.722Z" fill="url(#paint7_linear_2170_3720)"/>
</g>
<g style="mix-blend-mode:overlay">
<path d="M370.128 246.525L374.515 0.539842H375.011L374.989 0.440818L374.919 0.0305176L295.23 5.69674L295.028 6.10702H295.025L294.979 6.20607H295.099L256.164 81.8512L255.616 82.9123L257.586 278.927L243.016 469.722L242.793 573.26L281.937 494.293L369.381 330.631L370.128 246.525Z" fill="url(#paint8_linear_2170_3720)"/>
</g>
<g style="mix-blend-mode:overlay">
<path d="M322.726 549.368L376.387 430.755L378.818 616.991L322.726 549.368Z" fill="url(#paint9_linear_2170_3720)"/>
</g>
<g style="mix-blend-mode:overlay">
<path d="M415.58 350.654L376.387 430.755L378.818 616.991L421.687 469.722L415.58 350.654Z" fill="url(#paint10_linear_2170_3720)"/>
</g>
<g style="mix-blend-mode:overlay">
<path d="M568.844 173.25L574.643 74.2962L552.228 8.23278L551.895 7.24243H551.375L551.181 6.83215L496.617 5.69678L496.752 6.10706L496.784 6.2061H496.808L510.65 60.8239L503.227 186.446L421.688 469.715L554.963 258.307L568.844 173.25Z" fill="url(#paint11_linear_2170_3720)"/>
</g>
<g style="mix-blend-mode:overlay">
<path d="M199.191 5.69678L199.138 6.10706L199.128 6.2061H199.121L173.075 283.727L109.631 238.514L88.2881 94.7435L132.792 6.10706H132.807L132.874 5.69678H199.191Z" fill="url(#paint12_linear_2170_3720)"/>
</g>
</g>
<defs>
<linearGradient id="paint0_linear_2170_3720" x1="401.307" y1="508.424" x2="345.661" y2="198.108" gradientUnits="userSpaceOnUse">
<stop stop-color="#005976"/>
<stop offset="1" stop-color="#004365"/>
</linearGradient>
<linearGradient id="paint1_linear_2170_3720" x1="406.706" y1="6.59513" x2="441.039" y2="128.235" gradientUnits="userSpaceOnUse">
<stop stop-color="#05A6DA"/>
<stop offset="1" stop-color="#002D47"/>
</linearGradient>
<linearGradient id="paint2_linear_2170_3720" x1="277.553" y1="-0.935035" x2="236.36" y2="132.99" gradientUnits="userSpaceOnUse">
<stop stop-color="#05A6DA"/>
<stop offset="1" stop-color="#002D47"/>
</linearGradient>
<linearGradient id="paint3_linear_2170_3720" x1="205.815" y1="23.6363" x2="248.897" y2="616.905" gradientUnits="userSpaceOnUse">
<stop stop-color="#003B5B"/>
<stop offset="1" stop-color="#00CEFF"/>
</linearGradient>
<linearGradient id="paint4_linear_2170_3720" x1="415.581" y1="234.878" x2="510.651" y2="234.878" gradientUnits="userSpaceOnUse">
<stop stop-color="#002540"/>
<stop offset="1" stop-color="#006DA0"/>
</linearGradient>
<linearGradient id="paint5_linear_2170_3720" x1="66.5945" y1="0.398147" x2="66.5945" y2="231.797" gradientUnits="userSpaceOnUse">
<stop stop-color="#003565"/>
<stop offset="1" stop-color="#00ABC9"/>
</linearGradient>
<linearGradient id="paint6_linear_2170_3720" x1="78.614" y1="-12.5112" x2="14.5319" y2="77.6364" gradientUnits="userSpaceOnUse">
<stop stop-color="#05D8DA"/>
<stop offset="1" stop-color="#002D47"/>
</linearGradient>
<linearGradient id="paint7_linear_2170_3720" x1="230.823" y1="578.848" x2="124.366" y2="139.56" gradientUnits="userSpaceOnUse">
<stop stop-color="#004D78"/>
<stop offset="1" stop-color="#0399D3"/>
</linearGradient>
<linearGradient id="paint8_linear_2170_3720" x1="285.871" y1="469.315" x2="357.886" y2="-241.263" gradientUnits="userSpaceOnUse">
<stop stop-color="#0081B3"/>
<stop offset="1" stop-color="#002D47"/>
</linearGradient>
<linearGradient id="paint9_linear_2170_3720" x1="343.265" y1="479.325" x2="403.001" y2="581.329" gradientUnits="userSpaceOnUse">
<stop stop-color="#002440"/>
<stop offset="1" stop-color="#033058"/>
</linearGradient>
<linearGradient id="paint10_linear_2170_3720" x1="401.349" y1="416.632" x2="382.423" y2="692.029" gradientUnits="userSpaceOnUse">
<stop stop-color="#001F35"/>
<stop offset="1" stop-color="#007094"/>
</linearGradient>
<linearGradient id="paint11_linear_2170_3720" x1="396.488" y1="131.408" x2="583.766" y2="353.621" gradientUnits="userSpaceOnUse">
<stop stop-color="#002635"/>
<stop offset="1" stop-color="#005B87"/>
</linearGradient>
<linearGradient id="paint12_linear_2170_3720" x1="114.811" y1="260.627" x2="179.58" y2="-30.935" gradientUnits="userSpaceOnUse">
<stop stop-color="#05A6DA"/>
<stop offset="1" stop-color="#002D47"/>
</linearGradient>
</defs>
</svg>
