<svg width="68" height="101" viewBox="0 0 68 101" fill="none" xmlns="http://www.w3.org/2000/svg">
<g clip-path="url(#clip0_448_870)">
<path d="M47.7 45.0991C47.7 49.0361 45.3757 53.3369 43.6803 58.8289C43.2326 60.2891 42.4678 61.6354 41.4393 62.7736C40.4109 63.9118 39.1434 64.8147 37.7255 65.4192C34.5778 66.8162 30.2836 67.1011 24.8708 65.4535C16.7689 62.9719 18.1065 44.0213 19.9235 39.8405C19.9996 39.6579 20.0939 39.4831 20.2049 39.3188C20.9171 38.3131 22.0949 38.6014 23.3039 39.36C25.3398 40.6437 27.473 43.2833 27.5355 43.3897C26.8392 41.6024 26.4017 39.7269 26.2362 37.8188C26.1148 36.5961 26.088 35.366 26.1563 34.1392C26.1563 34.1392 31.1279 32.9413 35.1406 34.0912C36.4567 34.5037 37.7213 35.0622 38.9102 35.7559C39.8045 36.2606 40.6719 36.8105 41.5089 37.4035C44.7955 39.7238 47.7069 42.7478 47.7 45.0991Z" fill="#416614"/>
<path d="M27.4209 43.5818L29.7625 33.741L29.905 33.7719L27.6571 43.2008L37.378 35.1586L37.4719 35.265L27.4209 43.5818Z" fill="#40611F"/>
<path d="M46.6299 50.3301L27.5146 43.4583L27.5529 43.321L47.4498 46.8908L47.4255 47.0315L28.3554 43.6094L46.6785 50.1963L46.6299 50.3301Z" fill="#40611F"/>
<path d="M32.4377 66.6617L27.4036 43.0945L42.0231 62.3059L41.9085 62.3917L27.6746 43.6883L32.5802 66.6308L32.4377 66.6617Z" fill="#40611F"/>
<path d="M19.2044 56.7761L19.0828 56.704L27.3966 43.4857L18.8326 44.893L18.8118 44.7522L27.685 43.2969L19.2044 56.7761Z" fill="#40611F"/>
<path opacity="0.2" d="M27.1465 42.2982C27.1465 42.2982 29.5194 41.3028 30.3185 41.5946C31.1176 41.8863 32.2189 47.7352 32.0556 48.8027C31.8923 49.8702 25.8715 49.7604 24.9821 49.0396C24.0927 48.3187 25.1002 41.677 25.1002 41.677L26.9207 42.6483L27.1465 42.2982Z" fill="#363D23"/>
<path d="M24.8952 65.4535C16.359 62.8483 18.2698 42.051 20.205 39.3188C20.9207 38.3165 22.095 38.598 23.304 39.36C22.5554 39.2055 21.7851 39.1823 21.0284 39.2913C20.0869 39.5076 17.6688 50.6528 20.403 59.5428C23.1372 68.4329 37.3955 68.3265 41.8703 61.1801C46.3451 54.0337 47.3248 45.5968 46.6057 43.3004C45.8865 41.0041 36.8778 34.9939 33.685 34.1186C30.4922 33.2434 27.3793 34.2491 26.9033 34.8051C26.4273 35.3612 26.2501 37.7158 26.2397 37.8222C26.1167 36.5985 26.09 35.3671 26.1598 34.1392C26.1598 34.1392 31.128 32.9413 35.1477 34.0912C39.5704 35.3577 47.7105 41.1689 47.7001 45.1059C47.6896 49.0429 45.3758 53.3438 43.6804 58.8357C41.9849 64.3277 35.6202 68.7281 24.8952 65.4535Z" fill="#445314"/>
<path opacity="0.44" d="M39.4799 39.1266C40.0601 45.9915 36.096 49.6642 30.0995 49.3896C21.0665 48.9743 19.4163 41.5945 19.4163 41.5945L19.9304 39.8405C20.0066 39.6579 20.1008 39.4831 20.2119 39.3188C20.9241 38.3131 22.1018 38.6014 23.3109 39.36C25.3468 40.6437 27.48 43.2833 27.5425 43.3897C26.8461 41.6024 26.4087 39.7269 26.2431 37.8188C26.1217 36.5961 26.095 35.366 26.1632 34.1392C26.1632 34.1392 31.1348 32.9413 35.1476 34.0912C36.4637 34.5037 37.7283 35.0622 38.9171 35.7559C39.7753 36.2365 38.6288 38.519 39.4799 39.1266Z" fill="#102223"/>
<path opacity="0.6" d="M-5.7926 47.9067C-9.38148 43.0327 -11.2194 35.9721 -9.0966 33.2639C-6.97384 30.5557 2.95899 29.1724 4.30352 29.7216C4.37465 29.7513 4.44422 29.7845 4.51197 29.8211C5.78007 30.5076 7.29136 32.519 7.37822 32.6323C7.34117 32.4429 7.31565 32.2515 7.30178 32.0591C7.30178 32.0591 7.30178 32.0351 7.30178 32.0179C7.27778 31.7404 7.27778 31.4613 7.30178 31.1838C7.31126 31.06 7.33102 30.9372 7.36084 30.8166C7.43724 30.2715 7.72811 29.7781 8.17034 29.4436C9.4697 28.5443 17.6689 28.1358 21.7198 37.3622C25.7708 46.5887 23.1095 54.9501 16.1819 56.8929C9.2543 58.8357 -0.0149527 55.7636 -5.7926 47.9067Z" fill="#122200"/>
<path d="M-5.3549 48.3324C-8.94726 43.4583 -10.7851 36.3977 -8.65889 33.6895C-6.53266 30.9813 3.3967 29.598 4.74123 30.1507C4.81332 30.1782 4.88303 30.2115 4.94968 30.2502C6.2143 30.9367 7.72907 32.9481 7.81245 33.0614C7.77541 32.872 7.74988 32.6806 7.73602 32.4882C7.73233 32.4747 7.73233 32.4605 7.73602 32.447C7.71362 32.1694 7.71362 31.8905 7.73602 31.6129C7.74577 31.4891 7.76552 31.3663 7.79508 31.2456C7.87291 30.701 8.16348 30.2082 8.60457 29.8726C9.90741 28.9699 18.1031 28.5614 22.1541 37.7879C26.205 47.0143 23.5438 55.3758 16.6162 57.3186C9.68853 59.2613 0.426228 56.1858 -5.3549 48.3324Z" fill="#677B00"/>
<path d="M7.64209 33.1988L10.2721 29.4231L10.3937 29.5055L8.00341 32.9311L15.5633 30.47L15.6085 30.6039L7.64209 33.1988Z" fill="#40611F"/>
<path d="M22.1749 38.0901L7.79855 33.1302L-4.00342 31.3487L-3.9791 31.208L7.83329 32.9963L22.2201 37.9562L22.1749 38.0901Z" fill="#40611F"/>
<path d="M2.14949 55.0187L2.01052 54.9844L7.71521 33.1883L-9.02712 40.6299L-9.08618 40.5029L7.93061 32.9412L7.8924 33.0819L2.14949 55.0187Z" fill="#40611F"/>
<path d="M7.88752 33.0321L7.75684 33.0881L18.1399 56.7368L18.2706 56.6808L7.88752 33.0321Z" fill="#40611F"/>
<path d="M-5.3549 48.3324C-8.94726 43.4583 -10.7851 36.3977 -8.65889 33.6895C-6.53266 30.9813 3.3967 29.598 4.74122 30.1507C4.81332 30.1782 4.88303 30.2115 4.94968 30.2502C4.30347 30.2502 -5.47302 30.1678 -8.54424 34.6781C-11.7336 39.3394 -4.2362 50.9307 3.67811 55.108C11.5924 59.2853 19.2045 55.7636 21.8484 52.6744C24.4922 49.5852 23.3527 38.3474 20.1112 34.5854C16.8698 30.8234 10.4216 29.2479 8.9381 29.8143C8.64278 29.9382 8.38455 30.1348 8.18809 30.3854C7.99162 30.636 7.86349 30.9322 7.81592 31.2456C7.89375 30.701 8.18433 30.2082 8.62542 29.8726C9.92826 28.9699 18.124 28.5614 22.1749 37.7879C26.2259 47.0143 23.5646 55.3758 16.637 57.3186C9.70938 59.2613 0.426227 56.1858 -5.3549 48.3324Z" fill="#567723"/>
<path d="M11.5923 29.9104C11.5923 29.9104 9.85519 29.8143 8.88588 30.336C7.91656 30.8577 7.76022 32.6186 7.76022 32.6186C7.76022 32.6186 7.5483 30.4665 8.61836 29.8726C9.68842 29.2788 11.5923 29.9104 11.5923 29.9104Z" fill="#98AE00"/>
<path opacity="0.4" d="M7.86456 32.0454C7.86456 32.0454 9.44881 32.4436 10.0151 33.5557C10.5814 34.6678 6.75628 39.2879 6.06838 38.7524C5.38049 38.217 4.89409 32.9001 5.64453 32.5431C6.39496 32.1861 7.50671 32.653 7.50671 32.653L7.7916 32.8761L7.86456 32.0454Z" fill="#363D23"/>
<path opacity="0.2" d="M3.42438 33.8956C4.50487 34.7811 3.30973 37.3589 1.85056 39.0992C0.39138 40.8394 -3.82634 36.6106 -3.1037 34.8979C-2.38106 33.1851 2.53846 33.1645 3.42438 33.8956Z" fill="#363D23"/>
<path d="M46.352 25.2147C45.9143 28.0705 42.8778 33.6208 40.3833 33.9434C37.8888 34.2661 34.9461 33.1814 31.2878 32.591C27.6294 32.0007 24.3185 28.4 25.5101 21.4562C26.4586 15.9299 39.8691 15.3807 41.773 16.359C43.6769 17.3372 39.7892 21.2605 39.7892 21.2605C41.5773 20.3148 43.5498 19.7589 45.5738 19.6301C45.5738 19.6301 46.7585 22.6335 46.352 25.2147Z" fill="#415C14"/>
<path opacity="0.6" d="M37.1975 16.7436C33.091 38.1586 14.0556 27.4734 13.2253 24.7103C12.9821 23.9037 19.3886 20.9552 19.3886 20.9552C19.3886 20.9552 12.8084 23.6016 11.6688 22.5444C11.5886 22.458 11.5292 22.3547 11.4951 22.2423C10.835 20.1829 13.1906 10.7814 18.9091 7.68187C27.3272 3.11327 38.7018 8.90726 37.1975 16.7436Z" fill="#122200"/>
<path d="M37.0968 16.5411C32.9902 37.9562 13.9549 27.271 13.1245 24.5078C12.8779 23.6978 19.2844 20.7527 19.2844 20.7527C19.2844 20.7527 12.7111 23.3992 11.5785 22.342C11.4965 22.2568 11.4369 22.1531 11.4048 22.0399C10.7447 19.9804 13.1002 10.5789 18.8153 7.47942C27.2265 2.90396 38.6011 8.70481 37.0968 16.5411Z" fill="#677B00"/>
<path d="M19.3712 20.8591L19.26 20.7836L12.2942 16.2527L12.3394 16.1875L19.1905 20.6428L14.9555 11.0079L15.0284 10.9771L19.3712 20.8591Z" fill="#567400"/>
<path d="M19.2217 20.8866L21.1811 6.45654L21.2645 6.46684L19.3398 20.6154L30.6276 6.8753L30.6936 6.92679L19.2217 20.8866Z" fill="#567400"/>
<path d="M27.7163 29.296L19.333 20.9174L18.0163 28.0947L17.8564 28.0672L19.2288 20.5845L27.831 29.1828L27.7163 29.296Z" fill="#567400"/>
<path d="M19.062 20.8212L36.3811 11.6978L36.4193 11.7698L19.4998 20.6839L24.7841 19.9768L36.0093 20.5912L36.0058 20.6702L24.7875 20.0558L19.062 20.8212Z" fill="#567400"/>
<path d="M37.0968 16.5411C32.9902 37.9562 13.9549 27.271 13.1245 24.5079C13.1245 24.5079 19.6561 30.0719 26.139 29.0902C32.6219 28.1085 37.7047 19.802 36.7459 13.2769C35.787 6.75176 24.4922 5.24148 19.8333 7.13619C15.1743 9.03091 11.0921 18.1818 11.4048 22.0365C10.7447 19.977 13.1002 10.5755 18.8153 7.47601C27.2265 2.90398 38.6011 8.70483 37.0968 16.5411Z" fill="#565E23"/>
<path opacity="0.2" d="M19.2807 20.7525C19.2807 20.7525 14.323 22.7022 13.7532 22.0431C13.1834 21.3841 14.4828 17.0077 17.2066 15.645C19.9304 14.2823 23.8076 17.4883 24.3079 19.5855C24.8082 21.6827 15.7023 23.0351 15.6606 22.6472L19.2807 20.7525Z" fill="#363D23"/>
<path opacity="0.6" d="M32.9137 24.6245C48.2247 36.5488 31.9757 46.9355 29.4395 46.4412C28.6995 46.3004 28.9774 40.1358 28.9774 40.1358C28.9774 40.1358 28.3937 46.3142 27.0909 46.7501C26.9894 46.7751 26.8832 46.7751 26.7817 46.7501C24.8917 46.4275 18.3845 40.757 18.2594 35.0626C18.0718 26.6977 27.3028 20.2618 32.9137 24.6245Z" fill="#122200"/>
<path d="M32.7121 24.6175C48.0231 36.5419 31.7741 46.9285 29.2379 46.4376C28.5013 46.2935 28.7793 40.1322 28.7793 40.1322C28.7793 40.1322 28.1921 46.3106 26.8928 46.7466C26.7912 46.7713 26.6851 46.7713 26.5836 46.7466C24.6936 46.4239 18.1863 40.7569 18.0613 35.0762C17.8702 26.6942 27.1116 20.2549 32.7121 24.6175Z" fill="url(#paint0_radial_448_870)"/>
<path d="M22.3589 43.7021L22.3207 43.6403L28.6542 40.1564L19.2808 39.5008L19.2877 39.4321L28.9009 40.1049L28.7967 40.1598L22.3589 43.7021Z" fill="#567400"/>
<path d="M28.8629 40.2317L28.7587 40.1596L18.2144 32.821L18.256 32.7627L28.6961 40.0292L22.4043 25.6781L22.4703 25.6472L28.8629 40.2317Z" fill="#567400"/>
<path d="M33.9976 44.2204L28.6265 40.1014L38.9588 36.9539L39.0005 37.0877L28.9322 40.1563L34.0845 44.1071L33.9976 44.2204Z" fill="#567400"/>
<path d="M28.7446 40.3279L28.5813 23.1931H28.6508L28.8106 39.9332L30.4087 35.5534L35.4811 27.113L35.5437 27.1473L30.4748 35.5809L28.7446 40.3279Z" fill="#567400"/>
<path d="M32.7123 24.6175C48.0233 36.5418 31.7743 46.9284 29.2381 46.4376C29.2381 46.4376 36.322 43.6504 38.1912 38.2306C40.0603 32.8108 35.5473 25.4825 29.9781 23.5603C24.4089 21.6381 18.6173 29.7627 18.2039 34.1391C17.7905 38.5155 23.3944 45.4182 26.5803 46.75C24.6903 46.4273 18.1831 40.7603 18.058 35.0796C17.8704 26.6941 27.1118 20.2548 32.7123 24.6175Z" fill="#565E23"/>
<path d="M28.7307 42.9777C28.7307 42.9777 28.8975 45.8094 29.6097 45.8746C30.3219 45.9399 37.6282 42.8678 38.4447 36.4079C39.2611 29.9481 33.0805 25.249 33.0805 25.249C33.0805 25.249 40.3485 30.4938 38.3404 37.7466C36.3323 44.9994 29.6757 46.5028 29.238 46.4376C28.8002 46.3724 28.7307 43.568 28.7307 42.9777Z" fill="#98AE00"/>
<path opacity="0.6" d="M33.6259 33.9022C33.5287 34.7878 34.0324 35.3473 34.5953 34.6162C35.1581 33.8851 34.0012 32.5087 33.48 32.6357C32.9589 32.7627 33.6259 33.9022 33.6259 33.9022Z" fill="#B3BD23"/>
<path opacity="0.6" d="M-4.66022 55.7912C-1.36317 36.8062 15.6224 45.9606 16.4041 48.3908C16.6299 49.1013 11.0155 51.7992 11.0155 51.7992C11.0155 51.7992 16.7827 49.3656 17.7972 50.2821C17.8706 50.3561 17.9243 50.4469 17.9536 50.5464C18.5685 52.3415 16.6299 60.6961 11.627 63.521C4.27203 67.6846 -5.86578 62.735 -4.66022 55.7912Z" fill="#122200"/>
<path d="M-4.56626 55.9696C-1.26921 36.9847 15.7163 46.1528 16.4945 48.5555C16.7238 49.266 11.106 51.9639 11.106 51.9639C11.106 51.9639 16.8767 49.5303 17.8912 50.4468C17.9635 50.5216 18.017 50.6121 18.0475 50.7111C18.6625 52.5063 16.7273 60.8609 11.7244 63.6858C4.37294 67.8631 -5.77529 62.9135 -4.56626 55.9696Z" fill="url(#paint1_radial_448_870)"/>
<path d="M15.0144 60.552L11.0225 51.885L17.349 55.8461L17.3108 55.9044L11.1892 52.0704L15.0804 60.5211L15.0144 60.552Z" fill="#567400"/>
<path d="M9.64671 64.6365L9.57375 64.6296L11.0573 52.0977L1.29466 64.4099L1.2356 64.3653L11.158 51.8574L9.64671 64.6365Z" fill="#567400"/>
<path d="M11.1545 52.1218L3.4209 44.6562L3.52165 44.5532L11.0573 51.83L12.11 45.4697L12.2524 45.4937L11.1545 52.1218Z" fill="#567400"/>
<path d="M-3.86443 60.2326L-3.89917 60.1708L10.915 52.0428L6.25601 52.7464L-3.67334 52.3689L-3.66987 52.3002L6.24906 52.6744L11.2971 51.9124L-3.86443 60.2326Z" fill="#567400"/>
<path d="M-4.56626 55.9696C-1.26921 36.9847 15.7163 46.1528 16.4945 48.5555C16.4945 48.5555 10.6405 43.7501 4.92187 44.7009C-0.796718 45.6517 -5.15341 53.0795 -4.20494 58.8323C-3.25648 64.5851 6.74584 65.7487 10.8315 64.005C14.9172 62.2613 18.3845 54.1161 18.0475 50.7145C18.6625 52.5097 16.7273 60.8643 11.7244 63.6892C4.37294 67.8631 -5.77529 62.9135 -4.56626 55.9696Z" fill="#565E23"/>
<path d="M13.663 50.6631C13.663 50.6631 16.095 49.1666 15.8205 48.5144C15.546 47.8622 9.31673 42.9881 3.18124 45.3668C-2.95426 47.7455 -4.18066 55.3484 -4.18066 55.3484C-4.18066 55.3484 -2.98553 46.5339 4.42154 44.8176C11.8286 43.1014 16.3451 48.1574 16.4945 48.5556C16.6439 48.9537 14.1876 50.3816 13.663 50.6631Z" fill="#98AE00"/>
<path opacity="0.6" d="M0.964725 63.8711C0.964725 63.8711 2.3023 61.4341 1.8576 57.7304C1.4129 54.0268 -1.55409 54.0989 -1.55409 54.0989C-1.55409 54.0989 -0.640369 52.5509 -0.810606 51.4902C-0.980844 50.4296 -2.39138 50.3335 -2.39138 50.3335C-2.39138 50.3335 -5.09086 55.7808 -4.09723 59.33C-3.1036 62.8791 0.964725 63.8711 0.964725 63.8711Z" fill="#B3BD23"/>
<path opacity="0.6" d="M3.25423 50.7419C4.08804 50.3986 4.34513 49.7121 3.42794 49.5611C2.51074 49.4101 1.83674 51.0851 2.19458 51.473C2.55243 51.8609 3.25423 50.7419 3.25423 50.7419Z" fill="#B3BD23"/>
<path opacity="0.6" d="M8.92056 49.0909C9.7509 48.7477 7.55519 45.6036 6.64146 45.4628C5.72774 45.3221 3.93156 48.1607 4.17476 48.631C4.93909 50.1069 8.92056 49.0909 8.92056 49.0909Z" fill="#B3BD23"/>
<path opacity="0.6" d="M54.1031 27.6621C57.8309 28.1804 61.7916 30.408 62.0938 32.495C62.3961 34.5819 58.762 39.5349 57.9247 39.8885C57.8812 39.9086 57.8358 39.9247 57.7893 39.9365C56.9415 40.2043 55.3851 40.0017 55.2982 39.988C55.3225 39.988 55.4372 40.0807 55.5866 40.2008H55.6074C55.7408 40.3123 55.8651 40.434 55.9792 40.5647C56.0302 40.6217 56.0766 40.6825 56.1182 40.7466C56.3287 41.0147 56.4259 41.3531 56.3891 41.6905C56.2363 42.6482 52.9149 46.417 47.0087 44.2374C41.1025 42.0578 38.542 37.3313 40.6474 33.4526C42.7528 29.5739 48.0961 26.828 54.1031 27.6621Z" fill="#122200"/>
<path d="M53.707 27.6724C57.4384 28.1873 61.399 30.4184 61.6978 32.5053C61.9965 34.5922 58.366 39.5453 57.5287 39.8988C57.4847 39.9179 57.4394 39.934 57.3932 39.9469C56.549 40.2146 54.989 40.0087 54.9022 39.9984C55.0033 40.0641 55.1007 40.1351 55.194 40.2112H55.2148C55.347 40.3216 55.4701 40.4421 55.5831 40.5716C55.6352 40.6297 55.6829 40.6917 55.7256 40.7569C55.9366 41.0247 56.0326 41.3637 55.9931 41.7009C55.8402 42.6585 52.5188 46.4274 46.6126 44.2443C40.7064 42.0613 38.1633 37.3416 40.2687 33.4527C42.3741 29.5637 47.7174 26.8383 53.707 27.6724Z" fill="#7F9800"/>
<path d="M52.7689 44.5019L52.7029 44.471L54.9438 39.8887L55.5031 42.6346L55.4336 42.6484L54.916 40.1083L52.7689 44.5019Z" fill="#567400"/>
<path d="M46.5535 44.2067L46.5188 44.1415L54.9125 39.9676L60.777 35.5535L60.8187 35.6118L54.9508 40.026L46.5535 44.2067Z" fill="#567400"/>
<path d="M54.9472 40.1598L54.8673 40.0362L47.4741 28.1085L47.5957 28.0364L54.9125 39.8337L58.7306 29.3544L58.8661 29.4025L54.9472 40.1598Z" fill="#567400"/>
<path d="M54.916 40.0327L39.8413 34.4412L39.8656 34.376L54.9403 39.964L54.916 40.0327Z" fill="#567400"/>
<path d="M53.7071 27.6724C57.4384 28.1873 61.399 30.4184 61.6978 32.5053C61.9966 34.5923 58.366 39.5453 57.5287 39.8988C57.4847 39.9179 57.4395 39.934 57.3932 39.9469C57.6746 39.6689 61.8924 35.4195 61.1906 32.1312C60.4644 28.733 52.0429 27.0477 46.7725 28.7262C41.5021 30.4047 39.824 35.2478 40.0776 37.7467C40.3313 40.2455 45.8727 44.5498 48.9543 44.742C52.036 44.9342 55.5067 42.7787 55.9028 41.8862C55.9737 41.7038 55.9962 41.5065 55.9683 41.3131C55.9403 41.1196 55.8627 40.9365 55.743 40.781C55.954 41.0488 56.05 41.3878 56.0105 41.7249C55.8576 42.6826 52.5362 46.4514 46.63 44.2683C40.7239 42.0853 38.1633 37.3417 40.2687 33.4527C42.3741 29.5637 47.7175 26.8383 53.7071 27.6724Z" fill="#567723"/>
<path d="M57.8761 39.4596C57.8761 39.4596 61.6978 35.2583 60.9682 32.176C60.11 28.6337 52.1992 28.0845 52.1992 28.0845C52.1992 28.0845 60.2594 28.1428 61.2322 32.1313C62.0452 35.4677 57.8761 39.4596 57.8761 39.4596Z" fill="#98AE00"/>
<path d="M54.7493 43.0052C55.1712 42.624 55.5023 42.1551 55.7186 41.6322C55.9062 40.98 55.1766 40.1597 55.1766 40.1597C55.1766 40.1597 56.2189 40.9903 56.0486 41.7214C55.8784 42.4526 54.7493 43.0052 54.7493 43.0052Z" fill="#98AE00"/>
<path opacity="0.6" d="M68.0001 61.4992C68.0001 67.4065 63.3654 73.125 55.5623 69.9911C47.7592 66.8573 48.3637 57.1023 50.8373 56.9203C52.7169 56.7865 54.9543 57.902 55.9167 58.4478H55.9375C56.1911 58.5919 56.3509 58.6915 56.3822 58.7086C56.2745 58.5473 54.117 55.3551 55.128 53.6561C56.139 51.957 68.0035 54.2087 68.0001 61.4992Z" fill="#122200"/>
<path d="M68.0001 61.1252C68.0001 67.0325 63.3654 72.7509 55.5623 69.6171C47.7592 66.4833 48.3637 56.7282 50.8373 56.5463C52.7169 56.409 54.9543 57.528 55.9167 58.0703H55.9375L56.3822 58.3346C56.2745 58.1733 54.117 54.9811 55.128 53.282C56.139 51.583 68.0035 53.8347 68.0001 61.1252Z" fill="url(#paint2_radial_448_870)"/>
<path d="M49.6318 63.1846L49.5867 63.1262L56.2954 58.3791L49.6075 57.7544L49.6145 57.6858L56.4934 58.3277L49.6318 63.1846Z" fill="#567400"/>
<path d="M55.1316 69.4214L55.0586 69.4145L56.3684 58.259L56.4205 58.3311L64.4147 68.9237L64.3591 68.9649L56.417 58.4444L55.1316 69.4214Z" fill="#567400"/>
<path d="M67.8784 62.6388L56.1494 58.3379L65.6862 56.021L65.7175 56.1583L56.6358 58.3654L67.9271 62.5049L67.8784 62.6388Z" fill="#567400"/>
<path d="M56.4274 58.3552L56.3579 58.3518L56.8374 52.6951L56.9068 52.7019L56.4274 58.3552Z" fill="#567400"/>
<path d="M68.0001 61.125C68.0001 67.0323 63.3654 72.7508 55.5623 69.6169C47.7592 66.4831 48.3637 56.7281 50.8373 56.5461C52.7169 56.4088 54.9543 57.5278 55.9167 58.0702C55.5345 57.902 51.5113 56.1445 50.2537 57.3425C48.9335 58.5988 49.1315 66.7886 55.7603 69.3115C62.3892 71.8343 66.7806 67.9591 67.7186 62.2097C68.8721 55.1251 57.8171 51.3494 55.135 53.2853C56.1703 51.5485 68.0035 53.8345 68.0001 61.125Z" fill="#567723"/>
<path opacity="0.4" d="M55.6631 58.2864C55.6631 58.2864 55.6874 59.4946 56.6359 59.7074C57.5843 59.9203 57.9769 58.7086 57.5982 58.2864C57.2195 57.8642 56.0557 57.8162 56.0557 57.8162L56.1877 58.2281L55.6631 58.2864Z" fill="#363D23"/>
<path d="M49.6108 60.1194C49.6108 60.1194 49.7949 64.4099 53.4151 67.1971C57.0353 69.9843 63.3618 70.1044 65.5749 67.2761C66.8935 65.532 67.6403 63.4311 67.715 61.2555C67.8126 63.5864 67.0062 65.8662 65.4603 67.6296C62.8581 70.6227 57.2194 71.2062 53.1545 67.8252C49.0897 64.4443 49.6108 60.1194 49.6108 60.1194Z" fill="#98AE00"/>
<path opacity="0.6" d="M62.1494 62.9717C62.2467 62.3573 62.41 62.0518 62.8165 62.1239C63.223 62.196 63.223 62.9923 62.8165 63.1536C62.7009 63.2029 62.5718 63.2117 62.4505 63.1787C62.3292 63.1456 62.223 63.0726 62.1494 62.9717Z" fill="#B3BD23"/>
<path opacity="0.44" d="M27.3029 6.88887C31.5832 9.46321 33.7129 15.2297 28.0429 19.3864C22.373 23.5431 15.5739 18.8647 16.5328 17.0352C17.252 15.6622 19.0343 14.5535 19.8472 14.1073C20.0626 13.9906 20.1946 13.922 20.2329 13.9082C20.0661 13.9082 16.8142 14.049 16.0221 12.5936C15.23 11.1382 22.029 3.71041 27.3029 6.88887Z" fill="#102223"/>
<path opacity="0.6" d="M28.1018 1.87406C33.2054 4.96327 35.7451 11.8282 28.9842 16.7881C22.2234 21.748 14.1006 16.1634 15.2228 13.9838C16.081 12.3259 18.2107 11.0181 19.1834 10.4895H19.2008C19.4579 10.3522 19.6281 10.2664 19.6594 10.2527C19.4649 10.2527 15.5841 10.4209 14.6357 8.68405C13.6872 6.94723 21.7995 -1.90164 28.1018 1.87406Z" fill="#122200"/>
<path d="M27.7788 1.67849C32.8825 4.7677 35.4221 11.6326 28.6578 16.5925C21.8935 21.5524 13.7707 15.9712 14.8998 13.7882C15.758 12.1338 17.8877 10.826 18.857 10.294H18.8778C19.1349 10.1567 19.3017 10.0743 19.3364 10.0571C19.1384 10.0571 15.2577 10.2253 14.3127 8.48848C13.3677 6.75166 21.4731 -2.11094 27.7788 1.67849Z" fill="url(#paint3_radial_448_870)"/>
<path d="M19.941 18.2607L19.3191 10.1327L15.3064 15.453L15.2473 15.4118L19.3782 9.93701L19.3851 10.0331L20.014 18.2538L19.941 18.2607Z" fill="#567400"/>
<path d="M28.2236 16.9082L19.2566 10.0089L32.6567 8.7561L32.6671 8.82475L19.4442 10.0639L28.2653 16.8533L28.2236 16.9082Z" fill="#567400"/>
<path d="M19.2114 10.2356L22.161 0.981689L22.2965 1.02288L19.4894 9.83742L28.9358 2.45765L29.0227 2.56748L19.2114 10.2356Z" fill="#567400"/>
<path d="M19.3296 10.0639L14.688 6.72069L14.7297 6.66577L19.3713 10.009L19.3296 10.0639Z" fill="#567400"/>
<path d="M27.7789 1.67836C32.8826 4.76757 35.4222 11.6325 28.6579 16.5924C21.8936 21.5523 13.7708 15.9711 14.8999 13.7881C15.7581 12.1336 17.8878 10.8259 18.8571 10.2938C18.5097 10.5272 14.9034 13.0123 15.2821 14.6942C15.6851 16.4619 22.8698 20.55 28.4842 16.2663C34.0985 11.9826 33.0389 6.26069 28.5537 2.48155C23.0296 -2.17286 14.0209 5.19663 14.3093 8.47119C13.3504 6.67945 21.4732 -2.11107 27.7789 1.67836Z" fill="#567723"/>
<path opacity="0.4" d="M18.9124 10.62C18.9124 10.62 19.9547 11.2241 20.6496 10.5376C21.3444 9.85108 20.4828 8.88313 19.92 8.9861C19.3571 9.08907 18.7109 10.0433 18.7109 10.0433L19.1383 10.1463L18.9124 10.62Z" fill="#363D23"/>
<path d="M17.3525 16.6817C17.3525 16.6817 21.1742 18.7411 25.451 17.1485C29.7278 15.5558 33.1325 10.263 31.8192 6.93693C30.9999 4.91031 29.5715 3.18048 27.7266 1.98047C29.792 3.11106 31.3437 4.97675 32.0659 7.1978C33.3027 10.9529 30.8777 16.0123 25.8401 17.6874C20.8025 19.3624 17.3525 16.6817 17.3525 16.6817Z" fill="#98AE00"/>
<path d="M36.7493 66.8472C36.6364 67.2571 36.4531 67.6449 36.2074 67.9936C35.4743 68.7316 33.428 69.2396 33.428 69.2396C33.6655 69.2868 33.8982 69.3558 34.1228 69.4455C34.6196 69.6446 35.2276 70.005 35.3735 70.6263C35.6306 71.7212 33.7094 77.2269 26.4031 77.4191C19.0968 77.6113 14.1633 73.6434 14.7123 68.5428C15.2612 63.4422 19.809 58.1768 26.6532 56.4709C30.9022 55.4171 36.1587 56.1001 37.4233 58.2214C38.3996 59.917 37.5241 64.6092 36.7493 66.8472Z" fill="url(#paint4_radial_448_870)"/>
<path d="M19.3122 75.8711L19.2809 75.8093L33.0563 69.3769L16.6336 73.5405L16.6162 73.4718L33.4002 69.2156L33.4245 69.2808L19.3122 75.8711Z" fill="#567400"/>
<path d="M33.5112 69.315L15.949 64.5508L15.9698 64.4821L33.3062 69.1846L23.3421 57.6584L23.3977 57.6138L33.5112 69.315Z" fill="#567400"/>
<path d="M29.4639 77.0038L29.4014 76.9729L33.3724 69.2396L33.6955 56.2649L33.765 56.2683L33.4419 69.2636L29.4639 77.0038Z" fill="#567400"/>
<path d="M33.0944 75.0129L33.0215 75.0094L33.3724 69.2463L33.4453 69.2498L33.0944 75.0129Z" fill="#567400"/>
<path d="M36.7493 66.8471C36.8187 66.5588 38.1389 61.0119 37.3051 59.2099C36.4713 57.4078 30.2142 55.6058 24.4053 57.6378C18.5964 59.6698 14.9345 66.14 14.9068 68.529C14.879 70.918 17.0782 77.6181 25.5935 77.2337C34.1088 76.8492 35.3213 71.4294 35.1893 70.736C35.0573 70.0427 34.0776 69.466 34.0776 69.466H34.1123C34.6091 69.6651 35.2171 70.0255 35.363 70.6468C35.6201 71.7418 33.6989 77.2474 26.3926 77.4396C19.0863 77.6318 14.1528 73.6639 14.7018 68.5633C15.2507 63.4627 19.7985 58.1973 26.6427 56.4914C30.8917 55.4376 36.1482 56.1207 37.4128 58.2419C38.3995 59.917 37.524 64.6091 36.7493 66.8471Z" fill="#567723"/>
<path d="M15.3689 66.6274C15.2979 67.8949 15.4079 69.1659 15.6955 70.4031C16.168 72.3871 18.322 75.8951 22.7481 76.8871C27.1743 77.879 31.6596 75.6342 32.7505 74.7418C33.5466 74.0235 34.2397 73.2013 34.8107 72.2979C34.8107 72.2979 33.7232 76.5747 26.2537 77.1891C18.7841 77.8035 16.9497 74.1514 15.9595 72.7475C14.9693 71.3436 14.5073 67.7396 15.3689 66.6274Z" fill="#98AE00"/>
<path opacity="0.6" d="M54.3081 13.3315C53.867 13.4517 53.4012 13.4517 52.9601 13.3315C52.4336 13.1974 51.9382 12.9643 51.5009 12.6451C51.9148 12.971 52.3027 13.3279 52.6613 13.7125C53.1929 14.2995 53.6584 15.01 53.4916 15.5798C53.1442 16.7812 48.6451 21.0717 44.8512 20.5088C40.5049 19.8635 38.674 15.1645 38.5455 13.3007C38.3683 10.8053 39.817 2.13144 44.5107 0.693241C51.7858 -1.50353 56.8338 4.87054 57.1813 6.95747C57.5287 9.0444 55.7916 12.9059 54.3081 13.3315Z" fill="#122200"/>
<path d="M54.3081 13.0777C53.8665 13.1944 53.4017 13.1944 52.9601 13.0777C52.4341 12.9423 51.9389 12.7093 51.5009 12.3912C51.9148 12.7172 52.3027 13.0741 52.6613 13.4587C53.1929 14.0491 53.6584 14.7562 53.4916 15.326C53.1442 16.5273 48.6451 20.8179 44.8512 20.2584C40.5049 19.6097 38.674 14.9106 38.5455 13.0502C38.3683 10.5514 39.817 1.87761 44.5107 0.439407C51.7858 -1.75736 56.8338 4.62014 57.1813 6.7002C57.5287 8.78027 55.7916 12.6521 54.3081 13.0777Z" fill="url(#paint5_linear_448_870)"/>
<path d="M52.2269 16.97L51.3445 12.2744H55.3225V12.3602H51.4487L52.3103 16.9528L52.2269 16.97Z" fill="#567400"/>
<path d="M51.3098 12.5251L53.4847 2.06982L53.5715 2.08699L51.4835 12.1098L56.3127 4.9016L56.3822 4.94965L51.3098 12.5251Z" fill="#567400"/>
<path d="M39.5009 15.9094L39.4766 15.8271L51.3237 12.2951L42.857 1.14988L42.9265 1.09839L51.4696 12.3397L51.4106 12.3603L39.5009 15.9094Z" fill="#567400"/>
<path d="M51.381 12.284L40.4958 17.6155L40.5344 17.6924L51.4196 12.3609L51.381 12.284Z" fill="#567400"/>
<path d="M54.3081 13.0778C53.8665 13.1944 53.4017 13.1944 52.9601 13.0778C55.392 13.3867 57.9908 9.23685 56.5976 5.98288C55.2044 2.72891 48.7111 -0.195539 44.8582 0.738088C41.0052 1.67172 39.1535 7.23229 38.9832 11.3547C38.813 15.4771 41.0261 19.3386 45.289 19.8054C49.5519 20.2722 53.2276 15.8409 53.3596 15.223C53.4916 14.6052 52.637 13.4416 52.637 13.4416H52.6613C53.1929 14.032 53.6584 14.7391 53.4916 15.3089C53.1442 16.5102 48.6451 20.8008 44.8512 20.2413C40.5049 19.5926 38.674 14.8935 38.5455 13.0331C38.3683 10.5343 39.817 1.8605 44.5107 0.422301C51.7858 -1.75731 56.8338 4.62019 57.1813 6.70026C57.5287 8.78033 55.7916 12.6521 54.3081 13.0778Z" fill="#565E23"/>
<path d="M39.546 7.63379C39.546 7.63379 38.4446 12.1921 40.1574 15.6039C40.7427 16.8526 41.702 17.8936 42.9056 18.586C44.1092 19.2785 45.499 19.5891 46.887 19.4758C50.0486 19.2286 52.9079 15.5078 53.1615 15.0616C53.4151 14.6154 52.484 13.2939 52.484 13.2939C52.484 13.2939 53.5263 14.5365 53.3456 15.2298C53.165 15.9232 49.4545 20.1966 45.5807 19.9391C41.7069 19.6817 37.3781 15.7962 39.546 7.63379Z" fill="#98AE00"/>
<path d="M29.3282 94.4645C28.147 94.9794 26.0729 95.0652 24.1968 95.0103H24.176C22.0532 94.9485 20.1945 94.7082 20.1945 94.7082C20.2361 95.6434 20.2129 96.5804 20.125 97.5125C19.9478 99.2528 19.451 101.137 18.1169 100.993C16.689 100.835 11.0538 100.454 8.21533 95.381C4.29639 88.3925 10.4493 80.0653 16.5257 80.6214C33.6815 82.1935 30.0231 94.1624 29.3282 94.4645Z" fill="url(#paint6_linear_448_870)"/>
<path d="M20.052 94.7804L28.9773 86.6387L29.0259 86.6936L20.316 94.6363L30.0682 91.983L30.0891 92.0516L20.052 94.7804Z" fill="#567400"/>
<path d="M20.1494 94.7119L18.3845 80.8482L18.454 80.8413L20.1703 94.3103L20.8547 81.3287L20.9242 81.3321L20.2189 94.7119H20.1494Z" fill="#567400"/>
<path d="M20.2605 94.7702L20.1736 94.7427L6.9646 90.8297L6.98197 90.7611L20.1076 94.65L12.3288 81.5758L12.3913 81.5415L20.2605 94.7702Z" fill="#567400"/>
<path d="M13.9583 100.149L13.9097 100.094L20.1598 94.6843L20.2085 94.7358L13.9583 100.149Z" fill="#567400"/>
<path d="M29.3284 94.4647C28.1472 94.9796 26.073 95.0654 24.197 95.0105C24.5722 94.9899 28.1541 94.7736 28.6857 94.2279C29.2172 93.6821 30.0233 92.4704 28.6857 87.6684C27.3481 82.8664 18.4263 80.2063 14.9242 80.8481C11.4222 81.49 6.67641 86.371 7.59708 92.5185C8.51776 98.666 15.5878 100.616 17.2589 100.372C18.93 100.128 20.1147 97.5196 20.1147 97.5196C19.9376 99.2598 19.4407 101.144 18.1066 101C16.6787 100.842 11.0435 100.461 8.20507 95.388C4.28614 88.3996 10.439 80.0724 16.5154 80.6285C33.6816 82.1937 30.0233 94.1626 29.3284 94.4647Z" fill="#566B23"/>
<path d="M11.7036 82.427C11.7036 82.427 7.55191 86.0139 7.84722 91.8765C8.14253 97.7392 15.8032 100.252 15.8032 100.252C15.8032 100.252 10.3139 99.5412 8.03482 94.2072C5.75573 88.8731 9.73025 83.8789 11.7036 82.427Z" fill="#98AE00"/>
</g>
<defs>
<radialGradient id="paint0_radial_448_870" cx="0" cy="0" r="1" gradientUnits="userSpaceOnUse" gradientTransform="translate(28.7155 39.6176) rotate(-87.5303) scale(11.1523 11.2875)">
<stop offset="0.01" stop-color="#687C06"/>
<stop offset="0.07" stop-color="#6D8105"/>
<stop offset="0.36" stop-color="#7F9302"/>
<stop offset="0.66" stop-color="#8A9E01"/>
<stop offset="0.99" stop-color="#8EA100"/>
</radialGradient>
<radialGradient id="paint1_radial_448_870" cx="0" cy="0" r="1" gradientUnits="userSpaceOnUse" gradientTransform="translate(10.6755 52.2831) rotate(154.193) scale(11.2617 11.1779)">
<stop offset="0.01" stop-color="#687C06"/>
<stop offset="0.07" stop-color="#6D8105"/>
<stop offset="0.36" stop-color="#7F9302"/>
<stop offset="0.66" stop-color="#8A9E01"/>
<stop offset="0.99" stop-color="#8EA100"/>
</radialGradient>
<radialGradient id="paint2_radial_448_870" cx="0" cy="0" r="1" gradientUnits="userSpaceOnUse" gradientTransform="translate(56.6949 58.5097) scale(9.20324 9.09257)">
<stop offset="0.01" stop-color="#687C06"/>
<stop offset="0.07" stop-color="#6D8105"/>
<stop offset="0.36" stop-color="#7F9302"/>
<stop offset="0.66" stop-color="#8A9E01"/>
<stop offset="0.99" stop-color="#8EA100"/>
</radialGradient>
<radialGradient id="paint3_radial_448_870" cx="0" cy="0" r="1" gradientUnits="userSpaceOnUse" gradientTransform="translate(19.5337 9.93362) rotate(-58.2338) scale(9.0904 9.14008)">
<stop offset="0.01" stop-color="#687C06"/>
<stop offset="0.07" stop-color="#6D8105"/>
<stop offset="0.36" stop-color="#7F9302"/>
<stop offset="0.66" stop-color="#8A9E01"/>
<stop offset="0.99" stop-color="#8EA100"/>
</radialGradient>
<radialGradient id="paint4_radial_448_870" cx="0" cy="0" r="1" gradientUnits="userSpaceOnUse" gradientTransform="translate(32.9485 69.1469) scale(11.2287 11.0937)">
<stop offset="0.01" stop-color="#687C06"/>
<stop offset="0.07" stop-color="#6D8105"/>
<stop offset="0.36" stop-color="#7F9302"/>
<stop offset="0.66" stop-color="#8A9E01"/>
<stop offset="0.99" stop-color="#8EA100"/>
</radialGradient>
<linearGradient id="paint5_linear_448_870" x1="38.5351" y1="10.1601" x2="57.2195" y2="10.1601" gradientUnits="userSpaceOnUse">
<stop offset="0.01" stop-color="#7E911F"/>
<stop offset="0.99" stop-color="#729700"/>
</linearGradient>
<linearGradient id="paint6_linear_448_870" x1="6.97503" y1="90.7952" x2="30.1308" y2="90.7952" gradientUnits="userSpaceOnUse">
<stop offset="0.01" stop-color="#7E911F"/>
<stop offset="0.99" stop-color="#729700"/>
</linearGradient>
<clipPath id="clip0_448_870">
<rect width="78" height="101" fill="white" transform="translate(-10)"/>
</clipPath>
</defs>
</svg>
