<svg width="64" height="64" viewBox="0 0 64 64" fill="none" xmlns="http://www.w3.org/2000/svg">
<path d="M20.1798 15.4094C20.1792 16.6666 19.6774 17.8721 18.7849 18.7607C17.8923 19.6492 16.6822 20.1481 15.4205 20.1475C14.1589 20.1468 12.9492 19.6468 12.0576 18.7573C11.166 17.8679 10.6654 16.6619 10.666 15.4046C10.6666 14.1474 11.1684 12.9418 12.061 12.0533C12.9535 11.1647 14.1637 10.6659 15.4253 10.6665C16.6869 10.6671 17.8966 11.1672 18.7882 12.0566C19.6799 12.9461 20.1805 14.1521 20.1798 15.4094V15.4094ZM20.3225 23.6578H10.8087V53.3332H20.3225V23.6578ZM35.3544 23.6578H25.8881V53.3332H35.2592V37.7607C35.2592 29.0856 46.6045 28.2797 46.6045 37.7607V53.3332H55.9993V34.5372C55.9993 19.9128 39.2075 20.458 35.2592 27.6398L35.3544 23.6578V23.6578Z" fill="#171753"/>
</svg>
