<svg width="858" height="1085" viewBox="0 0 858 1085" fill="none" xmlns="http://www.w3.org/2000/svg">
<circle opacity="0.67" cx="270.234" cy="270.233" r="197.824" transform="rotate(30 270.234 270.233)" fill="url(#paint0_linear_2122_4010)"/>
<g style="mix-blend-mode:exclusion" opacity="0.35">
<circle cx="316.557" cy="153.147" r="42.7853" transform="rotate(30 316.557 153.147)" fill="url(#paint1_linear_2122_4010)"/>
</g>
<g style="mix-blend-mode:difference" opacity="0.35">
<circle cx="393.746" cy="188.739" r="22.0088" transform="rotate(-22.6012 393.746 188.739)" fill="url(#paint2_linear_2122_4010)"/>
</g>
<g clip-path="url(#clip0_2122_4010)">
<path d="M654.803 563.763C654.503 563.763 654.209 563.674 653.959 563.507C653.709 563.34 653.514 563.104 653.399 562.826C653.284 562.549 653.254 562.244 653.313 561.95C653.371 561.656 653.516 561.386 653.729 561.174C653.941 560.962 654.212 560.817 654.507 560.759C654.802 560.7 655.107 560.73 655.385 560.845C655.663 560.96 655.9 561.154 656.067 561.404C656.234 561.653 656.323 561.946 656.323 562.246C656.323 562.648 656.163 563.034 655.878 563.318C655.593 563.603 655.206 563.763 654.803 563.763Z" fill="#5ED9D1"/>
<path d="M380.797 854.46C380.496 854.46 380.202 854.371 379.952 854.205C379.702 854.038 379.507 853.801 379.392 853.524C379.277 853.247 379.247 852.942 379.306 852.648C379.365 852.354 379.509 852.084 379.722 851.871C379.934 851.659 380.205 851.515 380.5 851.456C380.795 851.398 381.1 851.428 381.378 851.543C381.656 851.657 381.893 851.852 382.06 852.101C382.227 852.351 382.316 852.644 382.316 852.944C382.316 853.143 382.277 853.34 382.201 853.524C382.124 853.708 382.012 853.875 381.871 854.016C381.73 854.157 381.563 854.269 381.378 854.345C381.194 854.421 380.996 854.46 380.797 854.46Z" fill="#5ED9D1"/>
<path d="M840.908 316.001C840.607 316.001 840.313 315.912 840.064 315.745C839.814 315.579 839.619 315.342 839.504 315.065C839.389 314.788 839.359 314.483 839.417 314.188C839.476 313.894 839.621 313.624 839.833 313.412C840.046 313.2 840.317 313.055 840.611 312.997C840.906 312.938 841.212 312.968 841.49 313.083C841.767 313.198 842.005 313.392 842.172 313.642C842.339 313.891 842.428 314.184 842.428 314.484C842.428 314.887 842.268 315.272 841.983 315.557C841.698 315.841 841.311 316.001 840.908 316.001Z" fill="#5ED9D1"/>
<path d="M856.48 501.67C856.179 501.672 855.884 501.585 855.632 501.42C855.381 501.255 855.184 501.019 855.067 500.742C854.95 500.465 854.918 500.16 854.975 499.865C855.033 499.57 855.176 499.299 855.388 499.085C855.6 498.872 855.871 498.726 856.166 498.667C856.462 498.607 856.768 498.637 857.046 498.751C857.325 498.865 857.563 499.06 857.73 499.309C857.898 499.559 857.987 499.853 857.987 500.153C857.987 500.553 857.829 500.937 857.547 501.221C857.264 501.505 856.881 501.667 856.48 501.67Z" fill="#5ED9D1"/>
<path d="M498.734 323.733C498.734 324.57 499.414 325.249 500.254 325.249C501.093 325.249 501.773 324.57 501.773 323.733C501.773 322.895 501.093 322.216 500.254 322.216C499.414 322.216 498.734 322.895 498.734 323.733Z" fill="#5ED9D1"/>
<path d="M604.823 1083.45C604.823 1084.29 605.503 1084.97 606.342 1084.97C607.182 1084.97 607.862 1084.29 607.862 1083.45C607.862 1082.61 607.182 1081.93 606.342 1081.93C605.503 1081.93 604.823 1082.61 604.823 1083.45Z" fill="#5ED9D1"/>
<path d="M661.157 954.766C660.856 954.766 660.562 954.677 660.313 954.51C660.063 954.344 659.868 954.107 659.753 953.83C659.638 953.552 659.608 953.248 659.666 952.953C659.725 952.659 659.87 952.389 660.082 952.177C660.295 951.965 660.566 951.82 660.86 951.762C661.155 951.703 661.461 951.733 661.739 951.848C662.016 951.963 662.254 952.157 662.421 952.407C662.588 952.656 662.677 952.949 662.677 953.249C662.677 953.651 662.517 954.037 662.232 954.322C661.947 954.606 661.56 954.766 661.157 954.766Z" fill="white"/>
<path d="M408.004 628.08C408.004 628.918 408.685 629.597 409.524 629.597C410.363 629.597 411.044 628.918 411.044 628.08C411.044 627.242 410.363 626.563 409.524 626.563C408.685 626.563 408.004 627.242 408.004 628.08Z" fill="white"/>
<path d="M511.041 802.735C511.041 803.573 511.722 804.252 512.561 804.252C513.401 804.252 514.081 803.573 514.081 802.735C514.081 801.898 513.401 801.219 512.561 801.219C511.722 801.219 511.041 801.898 511.041 802.735Z" fill="white"/>
<path d="M321 959.465C321 960.302 321.681 960.981 322.52 960.981C323.36 960.981 324.04 960.302 324.04 959.465C324.04 958.627 323.36 957.948 322.52 957.948C321.681 957.948 321 958.627 321 959.465Z" fill="white"/>
<path d="M789.981 726.496C789.681 726.496 789.387 726.407 789.137 726.24C788.887 726.074 788.692 725.837 788.577 725.56C788.462 725.283 788.432 724.978 788.491 724.684C788.549 724.389 788.694 724.119 788.906 723.907C789.119 723.695 789.39 723.551 789.685 723.492C789.979 723.434 790.285 723.464 790.563 723.578C790.84 723.693 791.078 723.888 791.245 724.137C791.412 724.386 791.501 724.68 791.501 724.979C791.501 725.382 791.341 725.767 791.056 726.052C790.771 726.336 790.384 726.496 789.981 726.496Z" fill="white"/>
<g clip-path="url(#clip1_2122_4010)">
<path d="M639.041 353.329L625.726 343.311L601.127 362.452L625.726 352.881L639.041 353.329Z" fill="url(#paint3_linear_2122_4010)"/>
<path d="M567.335 360.732L586.294 343.311L604.674 352.881L610.614 355.068L601.127 362.452L590.362 351.9L567.335 360.732Z" fill="url(#paint4_linear_2122_4010)"/>
<path d="M601.127 362.452L607.022 360.158L590.362 351.9L601.127 362.452Z" fill="#66A0B0"/>
</g>
<g clip-path="url(#clip2_2122_4010)">
<path d="M567.041 433.381L556.642 426.054L537.432 440.054L556.642 433.054L567.041 433.381Z" fill="url(#paint5_linear_2122_4010)"/>
<path d="M511.041 438.796L525.847 426.054L540.202 433.054L544.84 434.653L537.431 440.054L529.024 432.336L511.041 438.796Z" fill="url(#paint6_linear_2122_4010)"/>
<path d="M537.432 440.054L542.035 438.377L529.024 432.336L537.432 440.054Z" fill="#66A0B0"/>
</g>
</g>
<defs>
<linearGradient id="paint0_linear_2122_4010" x1="270.234" y1="72.4086" x2="270.234" y2="468.057" gradientUnits="userSpaceOnUse">
<stop stop-color="white"/>
<stop offset="0.714041" stop-color="#D5D3C3" stop-opacity="0"/>
</linearGradient>
<linearGradient id="paint1_linear_2122_4010" x1="316.557" y1="110.362" x2="316.557" y2="195.933" gradientUnits="userSpaceOnUse">
<stop stop-color="white" stop-opacity="0.65"/>
<stop offset="0.479719" stop-color="#D5D3C3" stop-opacity="0"/>
</linearGradient>
<linearGradient id="paint2_linear_2122_4010" x1="393.746" y1="166.73" x2="393.746" y2="210.748" gradientUnits="userSpaceOnUse">
<stop stop-color="white" stop-opacity="0.45"/>
<stop offset="0.620344" stop-color="#D5D3C3" stop-opacity="0"/>
</linearGradient>
<linearGradient id="paint3_linear_2122_4010" x1="601.127" y1="352.881" x2="639.041" y2="352.881" gradientUnits="userSpaceOnUse">
<stop stop-color="#F5FFFD"/>
<stop offset="1" stop-color="#F6FFFF"/>
</linearGradient>
<linearGradient id="paint4_linear_2122_4010" x1="567.335" y1="352.881" x2="610.614" y2="352.881" gradientUnits="userSpaceOnUse">
<stop stop-color="#F5FFFD"/>
<stop offset="1" stop-color="#F6FFFF"/>
</linearGradient>
<linearGradient id="paint5_linear_2122_4010" x1="537.432" y1="433.054" x2="567.041" y2="433.054" gradientUnits="userSpaceOnUse">
<stop stop-color="#F5FFFD"/>
<stop offset="1" stop-color="#F6FFFF"/>
</linearGradient>
<linearGradient id="paint6_linear_2122_4010" x1="511.041" y1="433.054" x2="544.84" y2="433.054" gradientUnits="userSpaceOnUse">
<stop stop-color="#F5FFFD"/>
<stop offset="1" stop-color="#F6FFFF"/>
</linearGradient>
<clipPath id="clip0_2122_4010">
<rect width="772" height="537" fill="white" transform="translate(858 312.968) rotate(90)"/>
</clipPath>
<clipPath id="clip1_2122_4010">
<rect width="71.7063" height="19.1405" fill="white" transform="translate(567.335 343.311)"/>
</clipPath>
<clipPath id="clip2_2122_4010">
<rect width="56" height="14" fill="white" transform="translate(511.041 426.054)"/>
</clipPath>
</defs>
</svg>
