<svg width="1440" height="957" viewBox="0 0 1440 957" fill="none" xmlns="http://www.w3.org/2000/svg">
<path fill-rule="evenodd" clip-rule="evenodd" d="M1521.68 296.907C1484.51 410.687 1432.3 560.944 1445.9 646.744C1476.4 839.351 1447.4 2172.04 1445.9 2337.91C1465.61 2605.15 173.719 2405.54 160.842 2414.12C147.965 2422.7 -58.6339 944.552 -56.5229 938.127C-54.4119 931.703 -76.894 264.235 0.706272 297.372C78.3066 330.508 250.965 205.337 413.955 192.974C547.539 182.83 781.467 283.583 903.475 254.937C1061.8 217.764 1202.81 117.572 1305.77 66.1547C1405.72 16.175 1535.76 -4.72564 1552.54 10.2577C1568.95 24.9241 1556.01 192.023 1521.68 296.907ZM1536.82 552.617C1515.01 429.918 1528.18 434.462 1514.12 434.526C1491.45 434.652 1435.57 791.041 1632.72 738.842C1745.72 709.023 1553.83 648.308 1536.82 552.66V552.617ZM590.794 140.522C575.531 187.966 776.942 227.041 857.709 221.567C1016.03 210.853 1185.78 93.9236 1168.62 40.2878C1144.02 -36.5309 1030.51 13.9349 956.63 49.9457C734.975 157.936 601.159 108.294 590.794 140.522ZM507.979 156.858C515.706 150.898 554.041 107.85 599.132 88.8305C677.07 56.3067 633.098 20.5495 551.234 25.8962C517.12 28.1363 459.363 51.2559 453.642 79.532C447.921 107.808 487.587 172.581 507.979 156.858ZM1546.13 411.089C1551.34 414.259 1613.32 362.8 1613.68 350.648C1614.04 338.497 1574.71 310.96 1564.34 324.549C1553.98 338.138 1536.1 405.003 1546.13 411.089ZM97.0523 217.256C117.993 241.454 279.337 136.76 364.009 143.946C471.987 153.117 395.421 8.48254 330.634 7.82741C265.848 7.17229 75.499 192.383 97.0523 217.256Z" fill="url(#paint0_linear_568_5499)"/>
<defs>
<linearGradient id="paint0_linear_568_5499" x1="1668.16" y1="0.0738017" x2="1564.17" y2="1292.45" gradientUnits="userSpaceOnUse">
<stop offset="0.1875" stop-color="#8D8DE3"/>
<stop offset="0.71875" stop-color="#79DDD7"/>
<stop offset="1" stop-color="#BAFFFB"/>
</linearGradient>
</defs>
</svg>
