<svg width="1440" height="797" viewBox="0 0 1440 797" fill="none" xmlns="http://www.w3.org/2000/svg">
<path fill-rule="evenodd" clip-rule="evenodd" d="M1521.85 296.615C1484.72 410.264 1432.57 560.346 1446.15 646.047C1476.62 838.431 1447.65 2169.57 1446.15 2335.25C1465.85 2602.18 175.45 2402.8 162.588 2411.37C149.726 2419.94 -56.6332 943.51 -54.5246 937.093C-52.4161 930.676 -74.8722 263.982 2.63825 297.08C80.1487 330.178 252.607 205.152 415.409 192.803C548.838 182.671 782.494 283.307 904.361 254.694C1062.5 217.564 1203.35 117.488 1306.19 66.1307C1406.03 16.2088 1535.91 -4.66759 1552.68 10.2984C1569.06 24.9478 1556.14 191.854 1521.85 296.615ZM1536.97 552.029C1515.19 429.473 1528.35 434.011 1514.3 434.075C1491.66 434.201 1435.84 790.177 1632.76 738.039C1745.63 708.254 1553.96 647.609 1536.97 552.072V552.029ZM592.042 140.412C576.797 187.801 777.974 226.83 858.648 221.363C1016.79 210.661 1186.34 93.8674 1169.2 40.2937C1144.63 -36.436 1031.25 13.9713 957.454 49.9404C736.056 157.805 602.395 108.221 592.042 140.412ZM509.324 156.729C517.041 150.776 555.332 107.778 600.371 88.7802C678.219 56.2941 634.298 20.5783 552.528 25.9188C518.454 28.1563 460.764 51.2491 455.049 79.4924C449.335 107.736 488.955 172.434 509.324 156.729ZM1546.27 410.665C1551.48 413.832 1613.38 362.432 1613.74 350.295C1614.1 338.157 1574.82 310.653 1564.46 324.225C1554.11 337.798 1536.25 404.586 1546.27 410.665ZM98.8726 217.057C119.789 241.227 280.946 136.654 365.52 143.831C473.373 152.993 396.896 8.52529 332.184 7.87092C267.473 7.21655 77.3443 192.212 98.8726 217.057Z" fill="url(#paint0_linear_567_2923)"/>
<defs>
<linearGradient id="paint0_linear_567_2923" x1="1668.16" y1="0.126292" x2="1564.29" y2="1291.01" gradientUnits="userSpaceOnUse">
<stop offset="0.1875" stop-color="#8D8DE3"/>
<stop offset="0.71875" stop-color="#79DDD7"/>
<stop offset="1" stop-color="#BAFFFB"/>
</linearGradient>
</defs>
</svg>
