<svg width="375" height="802" viewBox="0 0 375 802" fill="none" xmlns="http://www.w3.org/2000/svg">
<path fill-rule="evenodd" clip-rule="evenodd" d="M418.878 102.101C406.902 141.237 390.084 192.92 394.464 222.432C404.291 288.683 394.947 747.081 394.464 804.134C400.815 896.056 -15.3659 827.397 -19.5142 830.349C-23.6625 833.3 -90.2179 324.868 -89.5378 322.658C-88.8578 320.448 -96.1004 90.8626 -71.1016 102.26C-46.1028 113.658 9.51889 70.6037 62.0259 66.3513C105.06 62.8621 188.618 95.4711 219.724 87.6642C270.728 74.8779 316.155 40.4153 349.322 22.7297C381.522 5.53836 423.414 -1.65074 428.82 3.50303C434.104 8.54775 429.935 66.0242 418.878 102.101ZM423.754 190.056C416.729 147.852 420.972 149.415 416.443 149.437C409.139 149.48 391.138 272.066 454.648 254.111C491.052 243.854 429.235 222.97 423.754 190.071V190.056ZM118.994 48.3095C114.077 64.6285 178.961 78.069 204.98 76.1863C255.984 72.5009 310.667 32.2812 305.139 13.8324C297.216 -12.5907 260.649 4.76784 236.848 17.1543C165.442 54.2992 122.333 37.2242 118.994 48.3095ZM92.3155 53.9285C94.8045 51.8786 107.154 37.0715 121.68 30.5294C146.788 19.3423 132.622 7.04306 106.25 8.88213C95.2602 9.65265 76.6539 17.605 74.8109 27.331C72.968 37.057 85.7462 59.3367 92.3155 53.9285ZM426.753 141.375C428.432 142.466 448.399 124.765 448.514 120.586C448.63 116.406 435.961 106.934 432.622 111.608C429.283 116.282 423.522 139.282 426.753 141.375ZM-40.0639 74.7034C-33.3177 83.0265 18.6588 47.0156 45.9358 49.4871C80.7206 52.6419 56.055 2.89243 35.1842 2.66709C14.3133 2.44174 -47.0072 66.1478 -40.0639 74.7034Z" fill="url(#paint0_linear_448_739)"/>
<defs>
<linearGradient id="paint0_linear_448_739" x1="466.065" y1="0.000108464" x2="427.91" y2="444.135" gradientUnits="userSpaceOnUse">
<stop offset="0.1875" stop-color="#8D8DE3"/>
<stop offset="0.71875" stop-color="#79DDD7"/>
<stop offset="1" stop-color="#BAFFFB"/>
</linearGradient>
</defs>
</svg>
