<svg width="2500" height="1096" viewBox="0 0 2500 1096" fill="none" xmlns="http://www.w3.org/2000/svg">
<g clip-path="url(#clip0_2655_4521)">
<path d="M780.001 259.358C742.668 207.358 595.557 156.025 526.668 136.858L526.668 1335.97H1973.33L1973.33 386.858C1720 361.858 1606.67 441.858 1353.33 449.358C1100 456.858 1020 379.358 913.335 361.858C806.668 344.358 826.668 324.358 780.001 259.358Z" fill="#171753"/>
<path d="M459.5 111C468.7 114.6 512.667 131.833 533.5 140L551 1128H67C55.8333 1116.67 37.0001 1087.2 51.0004 1060C68.5007 1026 87 1036 51.0004 980C15.0007 924 25.5 691.5 33.5 689.5C41.5 687.5 60.5004 633.5 51.0004 602.5C41.5004 571.5 73.0004 576.5 137 528C201 479.5 266 270 284 238.5C302 207 212 191.5 251.5 132C291 72.5 448 106.5 459.5 111Z" fill="#171753"/>
<path d="M2047.5 384C2035.9 382.8 1988 386.167 1965.5 388V1152H2225C2262.33 1144 2339 1117.6 2347 1076C2357 1024 2293 1026 2337 938C2381 850 2167.62 596.339 2151 577.5C2143.5 569 2135 572.5 2127 565C2119 557.5 2095 531 2087.5 523C2080 515 2098 508.5 2108 507C2118 505.5 2130.75 490.5 2123.75 479C2116.75 467.5 2103 453.5 2095.5 436C2088 418.5 2076 400 2076 400C2076 400 2062 385.5 2047.5 384Z" fill="#171753"/>
</g>
<defs>
<clipPath id="clip0_2655_4521">
<rect width="2500" height="1096" fill="white"/>
</clipPath>
</defs>
</svg>
