<svg width="229" height="81" viewBox="0 0 229 81" fill="none" xmlns="http://www.w3.org/2000/svg">
<path d="M118.596 12.4548L111.845 13.7577L110.542 7.00645L117.293 5.70363L118.596 12.4548ZM114.097 10.4281C110.03 7.67709 103.346 5.40336 96.5041 7.42918C89.7054 9.44213 82.501 15.7777 77.5144 30.7557L75.9164 30.2237C81.0091 14.9272 88.5224 8.0359 96.026 5.81427C103.486 3.6055 110.689 6.0895 115.041 9.03314L114.097 10.4281Z" fill="#FFA54B"/>
<path d="M36.3944 44.6736L43.1456 43.3708L44.4484 50.122L37.6972 51.4248L36.3944 44.6736ZM40.8932 46.7003C44.9599 49.4513 51.6439 51.7251 58.4861 49.6992C65.2849 47.6863 72.4892 41.3507 77.4758 26.3727L79.0738 26.9047C73.9812 42.2012 66.4678 49.0925 58.9642 51.3142C51.5041 53.5229 44.3009 51.0389 39.9495 48.0953L40.8932 46.7003Z" fill="#FFA54B"/>
<path d="M30.1431 10.2573H6.66422C4.83145 10.2573 3.3457 11.7186 3.3457 13.5212V67.2252C3.3457 69.0278 4.83145 70.4891 6.66422 70.4891H30.1431C31.9758 70.4891 33.4616 69.0278 33.4616 67.2252V13.5212C33.4616 11.7186 31.9758 10.2573 30.1431 10.2573Z" fill="#ECFFFE"/>
<path fill-rule="evenodd" clip-rule="evenodd" d="M6.66573 11.4618C5.47935 11.4618 4.55185 12.4025 4.55185 13.521V67.225C4.55185 68.3435 5.47934 69.2843 6.66573 69.2843H30.1446C31.331 69.2843 32.2585 68.3435 32.2585 67.225V13.521C32.2585 12.4025 31.331 11.4618 30.1446 11.4618H6.66573ZM2.14258 13.521C2.14258 11.0344 4.18658 9.05249 6.66573 9.05249H30.1446C32.6237 9.05249 34.6677 11.0344 34.6677 13.521V67.225C34.6677 69.7117 32.6237 71.6935 30.1446 71.6935H6.66573C4.18658 71.6935 2.14258 69.7117 2.14258 67.225V13.521Z" fill="#171753"/>
<path fill-rule="evenodd" clip-rule="evenodd" d="M32.257 67.4518V18.6893H4.55034V67.4518C4.55034 68.3653 5.39394 69.2839 6.66422 69.2839H30.1431C31.4134 69.2839 32.257 68.3653 32.257 67.4518ZM3.3457 67.4518C3.3457 69.129 4.83145 70.4886 6.66422 70.4886H30.1431C31.9758 70.4886 33.4616 69.129 33.4616 67.4518V17.4846H3.3457V67.4518Z" fill="#171753"/>
<path d="M17.8193 67.5742C19.1607 67.5742 20.248 66.4868 20.248 65.1455C20.248 63.8042 19.1607 62.7168 17.8193 62.7168C16.478 62.7168 15.3906 63.8042 15.3906 65.1455C15.3906 66.4868 16.478 67.5742 17.8193 67.5742Z" fill="#171753"/>
<path d="M26.1199 39.4014H10.5762V40.3728H26.1199V39.4014Z" fill="#171753"/>
<path d="M26.1199 43.2871H10.5762V44.2586H26.1199V43.2871Z" fill="#171753"/>
<path d="M26.1199 47.1733H10.5762V48.1448H26.1199V47.1733Z" fill="#171753"/>
<path d="M26.1199 51.0588H10.5762V52.0303H26.1199V51.0588Z" fill="#171753"/>
<path d="M3.3457 11.4619H33.4616V17.4851H3.3457V11.4619Z" fill="#171753"/>
<path d="M23.6707 13.1714H12.9844V14.1429H23.6707V13.1714Z" fill="#9BE7C4"/>
<path d="M26.2358 34.165H24.4902V35.0868H26.2358V34.165Z" fill="#FFC78F"/>
<path d="M19.2768 34.165H17.5312V35.0868H19.2768V34.165Z" fill="#FFC78F"/>
<path d="M26.2358 30.4685H24.4902V31.3903H26.2358V30.4685Z" fill="#FFC78F"/>
<path d="M19.2768 30.4685H17.5312V31.3903H19.2768V30.4685Z" fill="#FFC78F"/>
<path d="M12.3198 34.165H10.5742V35.0868H12.3198V34.165Z" fill="#FFC78F"/>
<path d="M12.3198 30.4685H10.5742V31.3903H12.3198V30.4685Z" fill="#FFC78F"/>
<path d="M26.2358 26.7722H24.4902V27.694H26.2358V26.7722Z" fill="#FFC78F"/>
<path d="M19.2768 26.7722H17.5312V27.694H19.2768V26.7722Z" fill="#FFC78F"/>
<path d="M12.3198 26.7722H10.5742V27.694H12.3198V26.7722Z" fill="#FFC78F"/>
<path d="M2.14258 25.2182H1.59126C1.50572 25.2189 1.42089 25.2046 1.34166 25.1762C1.26243 25.1479 1.19037 25.106 1.12963 25.0529C1.06889 24.9999 1.02068 24.9368 0.987778 24.8673C0.954879 24.7978 0.93794 24.7233 0.937943 24.648L0.937943 22.8741C0.937943 22.7228 1.00619 22.5778 1.12768 22.4709C1.24916 22.3639 1.41393 22.3038 1.58574 22.3038H2.13706L2.13706 25.2158L2.14258 25.2182Z" fill="#171753"/>
<path d="M2.14258 30.0754H1.58872C1.41612 30.0754 1.2506 30.0154 1.12855 29.9084C1.00651 29.8015 0.937943 29.6564 0.937943 29.5052L0.937943 27.7313C0.937943 27.58 1.00651 27.435 1.12855 27.328C1.2506 27.2211 1.41612 27.161 1.58872 27.161H2.14258L2.14258 30.073V30.0754Z" fill="#171753"/>
<path d="M34.668 22.3035H35.1146C35.2538 22.3035 35.3873 22.3635 35.4857 22.4705C35.5842 22.5774 35.6394 22.7225 35.6394 22.8737V24.6476C35.6394 24.7989 35.5842 24.9439 35.4857 25.0509C35.3873 25.1578 35.2538 25.2179 35.1146 25.2179H34.668V22.3059V22.3035Z" fill="#171753"/>
<path d="M212.482 1.09961H134.855C132.786 1.09961 130.802 1.92145 129.339 3.38433C127.877 4.84722 127.055 6.83132 127.055 8.90015V71.8839H164.921V74.7813H182.394V71.8839H220.182V8.85557C220.17 6.81173 219.357 4.85405 217.917 3.40361C216.477 1.95317 214.525 1.12586 212.482 1.09961V1.09961Z" fill="#5ED9D1"/>
<path fill-rule="evenodd" clip-rule="evenodd" d="M128.907 2.95237C130.485 1.3748 132.624 0.488525 134.855 0.488525H212.482V1.10007L212.49 0.488576C214.694 0.516879 216.799 1.40906 218.351 2.9732C219.904 4.53735 220.781 6.64851 220.794 8.85259L220.794 8.85603L220.794 72.4959H183.006V75.3933H164.309V72.4959H126.443V8.90061C126.443 6.66958 127.33 4.52994 128.907 2.95237ZM212.478 1.71161H134.855C132.949 1.71161 131.12 2.46902 129.772 3.81722C128.424 5.16542 127.666 6.99397 127.666 8.90061V71.2729H165.532V74.1702H181.783V71.2729H219.571L219.571 8.85948C219.571 8.85888 219.571 8.85828 219.571 8.85768C219.56 6.97472 218.81 5.17123 217.483 3.83493C216.157 2.49911 214.36 1.73678 212.478 1.71161Z" fill="#171753"/>
<path fill-rule="evenodd" clip-rule="evenodd" d="M212.767 0.210253V0.202328H212.481L212.206 0.19873L212.206 0.202328H134.854C132.547 0.202328 130.335 1.11872 128.704 2.74991C127.073 4.38111 126.156 6.59348 126.156 8.90033V72.7816H164.022V75.6789H183.29V72.7816H221.078L221.078 8.85576L221.078 8.85145C221.066 6.57246 220.159 4.3888 218.553 2.77148C217.012 1.21921 214.945 0.306986 212.767 0.210253ZM212.195 0.774174V1.09979L212.767 1.10346L212.767 1.09979L212.771 0.782898C214.795 0.880154 216.714 1.73116 218.147 3.17438C219.647 4.68536 220.495 6.72477 220.507 8.85393L220.507 8.85576L220.507 72.2098H182.719V75.1071H164.594V72.2098H126.728V8.90033C126.728 6.74514 127.584 4.67822 129.108 3.15427C130.632 1.63032 132.699 0.774174 134.854 0.774174H212.195ZM134.854 1.99726C133.023 1.99726 131.268 2.72454 129.973 4.01912C128.678 5.3137 127.951 7.06952 127.951 8.90033V70.9867H165.817V73.884H181.496V70.9867H219.284L219.284 8.86077L219.284 8.8592C219.273 7.05113 218.553 5.31926 217.279 4.0361C216.006 2.75386 214.281 2.02191 212.475 1.99726H134.854ZM129.569 3.61476C130.971 2.21294 132.872 1.42541 134.854 1.42541H212.481C214.438 1.45159 216.306 2.24426 217.685 3.63321C219.065 5.02266 219.844 6.89787 219.855 8.85572L219.855 8.8574L219.855 71.5585H182.067V74.4559H165.245V71.5585H127.379V8.90033C127.379 6.91786 128.167 5.01658 129.569 3.61476Z" fill="#171753"/>
<path d="M212.485 7.92017H134.859C134.731 7.92162 134.606 7.94814 134.489 7.99821C134.372 8.04828 134.266 8.12092 134.177 8.21199C134.088 8.30305 134.017 8.41075 133.97 8.52894C133.923 8.64713 133.899 8.77349 133.9 8.9008V64.1286C133.899 64.2554 133.923 64.3812 133.97 64.4988C134.018 64.6164 134.088 64.7233 134.177 64.8135C134.266 64.9037 134.372 64.9753 134.489 65.0241C134.606 65.073 134.732 65.0981 134.859 65.0981H212.485C212.743 65.0981 212.991 64.9964 213.175 64.8149C213.358 64.6334 213.463 64.3868 213.466 64.1286V8.86737C213.455 8.61405 213.347 8.37472 213.164 8.19855C212.982 8.02238 212.739 7.92276 212.485 7.92017V7.92017ZM211.516 63.1926H135.839V9.82573H211.46L211.516 63.1926Z" fill="#171753"/>
<path fill-rule="evenodd" clip-rule="evenodd" d="M211.46 9.82573H135.839V63.1926H211.516L211.46 9.82573ZM134.859 7.92017H212.485C212.739 7.92276 212.982 8.02238 213.164 8.19855C213.347 8.37472 213.455 8.61405 213.466 8.86737V64.1286C213.463 64.3868 213.358 64.6334 213.175 64.8149C212.991 64.9964 212.743 65.0981 212.485 65.0981H134.859C134.732 65.0981 134.606 65.073 134.489 65.0241C134.372 64.9753 134.266 64.9037 134.177 64.8135C134.088 64.7233 134.018 64.6164 133.97 64.4988C133.923 64.3812 133.899 64.2554 133.9 64.1286V8.9008C133.899 8.77349 133.923 8.64713 133.97 8.52894C134.017 8.41075 134.088 8.30305 134.177 8.21199C134.266 8.12092 134.372 8.04828 134.489 7.99821C134.606 7.94814 134.731 7.92162 134.859 7.92017Z" fill="#171753"/>
<path d="M227.936 71.884H182.392V74.7814H164.919V71.884H119.342C119.342 73.9529 120.164 75.937 121.627 77.3999C123.089 78.8627 125.074 79.6846 127.142 79.6846H220.18C222.249 79.6846 224.233 78.8627 225.696 77.3999C227.159 75.937 227.981 73.9529 227.981 71.884H227.936Z" fill="#388B9A"/>
<path fill-rule="evenodd" clip-rule="evenodd" d="M118.766 71.3066H165.498V74.204H181.816V71.3066H228.56V71.8842C228.56 74.1062 227.677 76.2372 226.106 77.8084C224.535 79.3796 222.404 80.2623 220.182 80.2623H127.144C124.922 80.2623 122.791 79.3796 121.22 77.8084C119.648 76.2372 118.766 74.1062 118.766 71.8842V71.3066ZM119.944 72.4618C120.081 74.166 120.819 75.7739 122.036 76.9916C123.391 78.3462 125.228 79.1072 127.144 79.1072H220.182C222.098 79.1072 223.935 78.3462 225.289 76.9916C226.507 75.7739 227.245 74.166 227.382 72.4618H182.971V75.3591H164.343V72.4618H119.944Z" fill="#171753"/>
<path fill-rule="evenodd" clip-rule="evenodd" d="M118.48 71.0208H165.785V73.9181H181.531V71.0208H228.847V71.8842C228.847 74.1821 227.934 76.3858 226.309 78.0107C224.684 79.6355 222.481 80.5483 220.183 80.5483H127.144C124.847 80.5483 122.643 79.6355 121.018 78.0107C119.393 76.3858 118.48 74.1821 118.48 71.8842V71.0208ZM119.052 71.5926V71.8842C119.052 74.0304 119.905 76.0887 121.422 77.6063C122.94 79.1239 124.998 79.9765 127.144 79.9765H220.183C222.329 79.9765 224.387 79.1239 225.905 77.6063C227.422 76.0887 228.275 74.0304 228.275 71.8842V71.5926H182.103V74.4899H165.213V71.5926H119.052ZM119.635 72.1759H164.63V75.0732H182.686V72.1759H227.692L227.668 72.4847C227.525 74.2564 226.758 75.9279 225.492 77.1938C224.084 78.602 222.174 79.3932 220.183 79.3932H127.144C125.153 79.3932 123.243 78.602 121.835 77.1938C120.569 75.9279 119.802 74.2564 119.66 72.4847L119.635 72.1759ZM120.261 72.7477C120.452 74.2692 121.144 75.6938 122.239 76.7895C123.54 78.0904 125.305 78.8213 127.144 78.8213H220.183C222.022 78.8213 223.787 78.0904 225.088 76.7895C226.184 75.6938 226.875 74.2692 227.066 72.7477H183.258V75.6451H164.058V72.7477H120.261Z" fill="#171753"/>
<path opacity="0.9" d="M210.814 11.062H136.025V62.839H210.814V11.062Z" fill="#ECFFFE"/>
<path d="M211.625 13.4641H192.826V62.828H211.625V13.4641Z" fill="#9BE7C4"/>
<path d="M140.275 13.0989H135.795V62.8392H140.275V13.0989Z" fill="#9BE7C4"/>
<path d="M212.25 9.11206H134.668V13.4638H212.25V9.11206Z" fill="#171753"/>
<path d="M140.275 18.5129H135.795V19.5981H140.275V18.5129Z" fill="#171753"/>
<path d="M140.275 22.865H135.795V23.9502H140.275V22.865Z" fill="#171753"/>
<path d="M140.275 27.2275H135.795V28.3127H140.275V27.2275Z" fill="#171753"/>
<path d="M140.275 31.5798H135.795V32.665H140.275V31.5798Z" fill="#171753"/>
<path d="M140.275 35.9314H135.795V37.0166H140.275V35.9314Z" fill="#171753"/>
<path d="M140.275 40.2832H135.795V41.3684H140.275V40.2832Z" fill="#171753"/>
<path d="M140.275 44.6345H135.795V45.7197H140.275V44.6345Z" fill="#171753"/>
<path d="M140.275 48.9866H135.795V50.0717H140.275V48.9866Z" fill="#171753"/>
<path d="M211.627 40.2832H192.861V41.3684H211.627V40.2832Z" fill="#171753"/>
<path d="M211.627 44.6345H192.861V45.7197H211.627V44.6345Z" fill="#171753"/>
<path d="M211.627 48.9866H192.861V50.0717H211.627V48.9866Z" fill="#171753"/>
<path d="M207.079 31.5798H196.113V32.665H207.079V31.5798Z" fill="#171753"/>
<path d="M207.079 35.9314H196.113V37.0166H207.079V35.9314Z" fill="#171753"/>
<path d="M211.627 53.3379H192.861V54.4231H211.627V53.3379Z" fill="#171753"/>
<path d="M211.627 57.6897H192.861V58.7749H211.627V57.6897Z" fill="#171753"/>
<path d="M150.133 10.751H138.979V11.8361H150.133V10.751Z" fill="#FFC78F"/>
<path d="M208.649 25.0461H207.078V26.1313H208.649V25.0461Z" fill="#FFC78F"/>
<path d="M202.388 25.0461H200.816V26.1313H202.388V25.0461Z" fill="#FFC78F"/>
<path d="M208.649 20.6946H207.078V21.7797H208.649V20.6946Z" fill="#FFC78F"/>
<path d="M202.388 20.6946H200.816V21.7797H202.388V20.6946Z" fill="#FFC78F"/>
<path d="M196.126 25.0461H194.555V26.1313H196.126V25.0461Z" fill="#FFC78F"/>
<path d="M196.126 20.6946H194.555V21.7797H196.126V20.6946Z" fill="#FFC78F"/>
<path d="M208.649 16.343H207.078V17.4282H208.649V16.343Z" fill="#FFC78F"/>
<path d="M202.388 16.343H200.816V17.4282H202.388V16.343Z" fill="#FFC78F"/>
<path d="M196.126 16.343H194.555V17.4282H196.126V16.343Z" fill="#FFC78F"/>
<path d="M163.26 58.7747H162.135V59.8598H163.26V58.7747Z" fill="#171753"/>
<path d="M158.784 58.7747H157.658V59.8598H158.784V58.7747Z" fill="#171753"/>
<path d="M154.292 58.7747H153.166V59.8598H154.292V58.7747Z" fill="#171753"/>
<path fill-rule="evenodd" clip-rule="evenodd" d="M139.771 64.2771V13.2192H140.915V64.2771H139.771ZM191.548 64.2771V13.2192H192.692V64.2771H191.548Z" fill="#171753"/>
<circle cx="80.5898" cy="26.5661" r="23.8211" fill="#ECFFFE" stroke="#FFA54B" stroke-width="2.6"/>
<path fill-rule="evenodd" clip-rule="evenodd" d="M97.938 26.9944V27.9984C97.938 28.7156 97.3643 29.2893 96.6471 29.2893H96.5395C96.0016 29.2893 95.4996 29.6121 95.3203 30.1499C95.2128 30.5085 95.0693 30.8671 94.89 31.2257C94.639 31.7277 94.7466 32.3015 95.141 32.6959L95.2128 32.7677C95.7148 33.2697 95.7148 34.0944 95.2128 34.5965L94.4956 35.3136C93.9935 35.8157 93.1688 35.8157 92.6668 35.3136L92.6309 35.2778C92.2723 34.8833 91.6627 34.7758 91.1607 35.0268C90.8021 35.2061 90.4435 35.3495 90.0491 35.4929C89.5112 35.6722 89.1884 36.1743 89.1884 36.7122V36.8197C89.1884 37.5369 88.6147 38.1106 87.8975 38.1106H86.8935C86.1763 38.1106 85.6026 37.5369 85.6026 36.8197V36.7839C85.6026 36.246 85.2798 35.744 84.7419 35.5647L84.7418 35.5646C84.3474 35.4212 83.953 35.2778 83.5945 35.0985C83.0924 34.8475 82.5187 34.955 82.1242 35.3495L82.0884 35.3854C81.5863 35.8874 80.7616 35.8874 80.2596 35.3854L79.5424 34.6682C79.0404 34.1662 79.0404 33.3414 79.5424 32.8394C79.9368 32.4808 80.0444 31.8712 79.7934 31.3692C79.6141 31.0106 79.4707 30.6162 79.3273 30.2217L79.3272 30.2217C79.1479 29.6838 78.6459 29.3611 78.108 29.3611H78.0722C77.355 29.3611 76.7812 28.7873 76.7812 28.0701V27.0661C76.7812 26.3489 77.355 25.7752 78.0722 25.7752C78.6101 25.7752 79.1121 25.4524 79.2914 24.9145C79.399 24.5201 79.5782 24.1256 79.7575 23.7671C80.0086 23.265 79.901 22.6913 79.5065 22.2969L79.4707 22.261C78.9686 21.759 78.9686 20.9342 79.4707 20.4322L80.1879 19.715C80.6899 19.213 81.5146 19.213 82.0167 19.715L82.0525 19.7509C82.447 20.1453 83.0207 20.2529 83.5227 20.0019C83.9172 19.8226 84.2758 19.6791 84.6702 19.5357C85.2081 19.3564 85.5308 18.8544 85.5308 18.3165V18.2448C85.5308 17.5276 86.1046 16.9539 86.8218 16.9539H87.8258C88.543 16.9539 89.1167 17.5276 89.1167 18.2448V18.3165C89.1167 18.8544 89.4395 19.3564 89.9773 19.5357C90.3718 19.6791 90.7304 19.8226 91.089 20.0019C91.591 20.2529 92.1647 20.1453 92.5592 19.7509L92.6309 19.6792C93.1329 19.1771 93.9577 19.1771 94.4597 19.6792L95.1769 20.3963C95.6789 20.8984 95.6789 21.7231 95.1769 22.2251L95.1052 22.2969C94.7107 22.6913 94.6032 23.265 94.8542 23.7671C95.0011 24.0316 95.124 24.3443 95.2425 24.646C95.2686 24.7123 95.2945 24.7782 95.3203 24.8428C95.4996 25.3807 96.0016 25.7035 96.5395 25.7035H96.6471C97.3643 25.7035 97.938 26.2772 97.938 26.9944ZM92.0011 27.6671C92.0011 30.1959 89.9511 32.2458 87.4224 32.2458C84.8936 32.2458 82.8437 30.1959 82.8437 27.6671C82.8437 25.1384 84.8936 23.0884 87.4224 23.0884C89.9511 23.0884 92.0011 25.1384 92.0011 27.6671Z" fill="#111149"/>
<path fill-rule="evenodd" clip-rule="evenodd" d="M85.1051 18.2448C85.1051 17.2922 85.8696 16.5276 86.8223 16.5276H87.8263C88.7789 16.5276 89.5435 17.2922 89.5435 18.2448V18.3165C89.5435 18.6867 89.7634 19.0149 90.1127 19.1313L90.1181 19.1331L90.1235 19.1351C90.5255 19.2813 90.901 19.431 91.2801 19.6206C91.6101 19.7856 91.9872 19.7205 92.2583 19.4494L92.33 19.3777C92.9985 18.7092 94.0932 18.7092 94.7617 19.3777L95.4788 20.0949C96.1473 20.7634 96.1473 21.8581 95.4788 22.5266L95.4071 22.5983C95.138 22.8674 95.0719 23.241 95.2324 23.5692C95.3909 23.8565 95.5208 24.1873 95.6344 24.4764L95.6398 24.4901C95.666 24.5567 95.6913 24.6213 95.7166 24.6845L95.7213 24.6962L95.7253 24.708C95.8417 25.0573 96.1698 25.2772 96.54 25.2772H96.6476C97.6002 25.2772 98.3648 26.0418 98.3648 26.9944V27.9984C98.3648 28.951 97.6002 29.7157 96.6476 29.7157H96.54C96.1717 29.7157 95.845 29.9333 95.7271 30.2794C95.6122 30.6607 95.4602 31.0397 95.2718 31.4164C95.1068 31.7463 95.1719 32.1234 95.443 32.3945L95.5147 32.4663C96.1832 33.1348 96.1832 34.2294 95.5147 34.8979L94.7975 35.6151C94.129 36.2836 93.0344 36.2836 92.3659 35.6151C92.3659 35.6151 92.3659 35.6152 92.3659 35.6151L92.3228 35.5721L92.316 35.5646C92.0925 35.3187 91.692 35.238 91.3518 35.4081C90.9727 35.5977 90.5972 35.7474 90.1953 35.8936L90.1898 35.8956L90.1844 35.8974C89.8351 36.0138 89.6153 36.342 89.6153 36.7122V36.8198C89.6153 37.7724 88.8507 38.537 87.898 38.537H86.894C85.9414 38.537 85.1768 37.7724 85.1768 36.8198V36.7839C85.1768 36.4137 84.9569 36.0855 84.6076 35.9691L84.6041 35.9679L84.5967 35.9653L84.5851 35.9611C84.1986 35.8205 83.7849 35.6701 83.4043 35.4798C83.0744 35.3148 82.6973 35.3799 82.4262 35.6509C82.4262 35.6509 82.4263 35.6509 82.4262 35.6509L82.3904 35.6868C81.7219 36.3553 80.6271 36.3553 79.9586 35.6868L79.2415 34.9696C78.573 34.3011 78.573 33.2065 79.2415 32.538L79.2486 32.5308L79.2561 32.524C79.502 32.3005 79.5827 31.9 79.4126 31.5598C79.2223 31.1793 79.0719 30.7655 78.9314 30.3791L78.9274 30.368L78.9253 30.3623L78.9233 30.3565C78.8069 30.0072 78.4788 29.7874 78.1085 29.7874H78.0727C77.1201 29.7874 76.3555 29.0228 76.3555 28.0702V27.0661C76.3555 26.1135 77.1201 25.3489 78.0727 25.3489C78.4394 25.3489 78.7649 25.1331 78.8842 24.7895C79.0034 24.3579 79.196 23.9379 79.3768 23.5764C79.5417 23.2465 79.4767 22.8694 79.2056 22.5983L79.1697 22.5624C79.1697 22.5624 79.1698 22.5625 79.1697 22.5624C78.5013 21.8939 78.5013 20.7993 79.1697 20.1308L79.8869 19.4136C80.5554 18.7451 81.6501 18.7451 82.3186 19.4136C82.3186 19.4136 82.3186 19.4135 82.3186 19.4136L82.3544 19.4494C82.6255 19.7205 83.0026 19.7856 83.3326 19.6206L83.3397 19.6171L83.3468 19.6138C83.7529 19.4292 84.1219 19.2817 84.525 19.1351L84.5305 19.1331L84.5359 19.1313C84.8852 19.0149 85.1051 18.6867 85.1051 18.3165V18.2448ZM86.8223 17.3802C86.3405 17.3802 85.9576 17.7631 85.9576 18.2448V18.3165C85.9576 19.0202 85.5343 19.6943 84.8114 19.9382C84.4299 20.077 84.0849 20.2151 83.7063 20.387C83.034 20.7191 82.2674 20.5682 81.7516 20.0523L81.7158 20.0165C81.3802 19.681 80.8253 19.6809 80.4898 20.0165L79.7726 20.7336C79.4371 21.0692 79.4371 21.624 79.7726 21.9596L79.8085 21.9954C80.3263 22.5132 80.4764 23.2836 80.1393 23.9577C79.9633 24.3099 79.7994 24.674 79.7032 25.0267L79.7 25.0382L79.6963 25.0494C79.4541 25.7759 78.7782 26.2015 78.0727 26.2015C77.5909 26.2015 77.2081 26.5844 77.2081 27.0661V28.0702C77.2081 28.5519 77.5909 28.9348 78.0727 28.9348H78.1085C78.8122 28.9348 79.4864 29.3581 79.7302 30.081C79.8746 30.4782 80.0095 30.8472 80.1752 31.1785C80.5053 31.8388 80.3742 32.6523 79.8385 33.1468C79.5088 33.4829 79.5108 34.0332 79.8443 34.3668L80.5615 35.084C80.897 35.4195 81.4518 35.4195 81.7874 35.084C81.7874 35.084 81.7874 35.084 81.7874 35.084L81.8233 35.0481C82.3411 34.5303 83.1115 34.3802 83.7856 34.7172C84.117 34.8829 84.4859 35.0178 84.8831 35.1622C85.606 35.406 86.0294 36.0802 86.0294 36.7839V36.8198C86.0294 37.3015 86.4122 37.6844 86.894 37.6844H87.898C88.3798 37.6844 88.7627 37.3015 88.7627 36.8198V36.7122C88.7627 36.0085 89.186 35.3344 89.9089 35.0905C90.2938 34.9504 90.634 34.8138 90.9706 34.6455C91.6311 34.3152 92.445 34.4467 92.9394 34.983L92.9687 35.0122C93.3042 35.3477 93.8591 35.3478 94.1947 35.0122L94.9118 34.2951C95.2474 33.9595 95.2474 33.4047 94.9118 33.0691L94.8401 32.9974C94.3223 32.4796 94.1722 31.7092 94.5092 31.0351C94.6784 30.6969 94.8125 30.361 94.9125 30.0275L94.9144 30.0213L94.9164 30.0152C95.1586 29.2887 95.8345 28.8631 96.54 28.8631H96.6476C97.1294 28.8631 97.5123 28.4802 97.5123 27.9984V26.9944C97.5123 26.5126 97.1294 26.1298 96.6476 26.1298H96.54C95.8386 26.1298 95.1664 25.7091 94.9207 24.9903C94.8958 24.9279 94.871 24.8648 94.8465 24.8024L94.8463 24.8019C94.7253 24.494 94.6126 24.2092 94.482 23.9741L94.4775 23.966L94.4734 23.9577C94.1363 23.2836 94.2865 22.5132 94.8042 21.9954L94.876 21.9237C95.2115 21.5882 95.2115 21.0333 94.876 20.6978L94.1588 19.9806C93.8232 19.6451 93.2684 19.6451 92.9329 19.9806L92.8611 20.0523C92.8611 20.0523 92.8611 20.0523 92.8611 20.0523C92.3433 20.5701 91.5729 20.7202 90.8988 20.3832C90.5622 20.2149 90.2221 20.0782 89.8372 19.9382C89.1142 19.6943 88.691 19.0202 88.691 18.3165V18.2448C88.691 17.7631 88.3081 17.3802 87.8263 17.3802H86.8223ZM82.4179 27.6671C82.4179 24.903 84.6587 22.6621 87.4229 22.6621C90.1871 22.6621 92.4279 24.903 92.4279 27.6671C92.4279 30.4313 90.1871 32.6721 87.4229 32.6721C84.6587 32.6721 82.4179 30.4313 82.4179 27.6671ZM87.4229 23.5147C85.1296 23.5147 83.2705 25.3738 83.2705 27.6671C83.2705 29.9605 85.1296 31.8196 87.4229 31.8196C89.7162 31.8196 91.5753 29.9605 91.5753 27.6671C91.5753 25.3738 89.7162 23.5147 87.4229 23.5147Z" fill="#111149"/>
<path d="M66.2078 40.7361V24.5817C66.2078 23.3679 65.6915 22.2165 64.7855 21.3954C63.4267 20.1816 62.711 18.4234 62.8288 16.6116C62.9465 14.8087 63.8887 13.1576 65.3925 12.1223C65.628 11.9527 65.9361 11.9438 66.1806 12.0955C66.4252 12.2472 66.5521 12.5239 66.5068 12.8095L65.9995 15.9065C65.9179 16.4331 66.1897 16.9597 66.6698 17.1917L66.7333 17.2274C67.8022 17.7362 69.0071 17.9147 70.1848 17.7272H70.212C70.7464 17.6469 71.1722 17.2274 71.2538 16.7008L71.7611 13.6038C71.8064 13.3272 72.0057 13.104 72.2865 13.0326C72.5583 12.9612 72.8482 13.0594 73.0203 13.2736C73.9443 14.4517 74.3882 15.9244 74.2704 17.4059C74.1436 18.8875 73.4642 20.2709 72.359 21.2794C71.444 22.1094 70.9276 23.2697 70.9276 24.4924V40.745C70.9276 41.575 70.4747 42.3426 69.7499 42.762C69.0252 43.1815 68.1193 43.1815 67.3855 42.762C66.6517 42.3426 66.2078 41.575 66.2078 40.745V40.7361Z" fill="#111149"/>
</svg>
