<svg width="94" height="72" viewBox="0 0 94 72" fill="none" xmlns="http://www.w3.org/2000/svg">
<path d="M77.727 22.4449V9.47691C77.727 5.44242 74.7013 2.27246 70.8504 2.27246H8.96062C5.1097 2.27246 2.08398 5.44242 2.08398 9.47691V62.7898C2.08398 66.8243 5.1097 69.9942 8.96062 69.9942H70.8504C74.7013 69.9942 77.727 66.8243 77.727 62.7898V47.6605" fill="#373765"/>
<path fill-rule="evenodd" clip-rule="evenodd" d="M0.722656 9.4772C0.722656 4.65538 4.35759 0.847168 8.96001 0.847168H70.8497C75.4522 0.847168 79.0871 4.65538 79.0871 9.4772V22.4452C79.0871 23.2325 78.4779 23.8708 77.7264 23.8708C76.9749 23.8708 76.3657 23.2325 76.3657 22.4452V9.4772C76.3657 6.23004 73.9492 3.69834 70.8497 3.69834H8.96001C5.8606 3.69834 3.44409 6.23004 3.44409 9.4772V62.7901C3.44409 66.0373 5.8606 68.569 8.96001 68.569H70.8497C73.9492 68.569 76.3657 66.0373 76.3657 62.7901V47.6608C76.3657 46.8735 76.9749 46.2352 77.7264 46.2352C78.4779 46.2352 79.0871 46.8735 79.0871 47.6608V62.7901C79.0871 67.612 75.4522 71.4202 70.8497 71.4202H8.96001C4.35759 71.4202 0.722656 67.612 0.722656 62.7901V9.4772Z" fill="#171753"/>
<path fill-rule="evenodd" clip-rule="evenodd" d="M83.5879 2.27275C83.5879 1.48542 84.1971 0.847168 84.9486 0.847168C89.551 0.847168 93.186 4.65538 93.186 9.4772V62.7901C93.186 67.612 89.551 71.4202 84.9486 71.4202C84.1971 71.4202 83.5879 70.7819 83.5879 69.9946C83.5879 69.2073 84.1971 68.569 84.9486 68.569C88.048 68.569 90.4645 66.0373 90.4645 62.7901V9.4772C90.4645 6.23004 88.048 3.69834 84.9486 3.69834C84.1971 3.69834 83.5879 3.06008 83.5879 2.27275Z" fill="#171753"/>
<path d="M84.8383 47.6606H65.5837C61.7328 47.6606 58.707 44.4907 58.707 40.4562V31.8109C58.707 27.7764 61.7328 24.6064 65.5837 24.6064H84.8383C88.6892 24.6064 91.7149 27.7764 91.7149 31.8109V40.4562C91.7149 44.3466 88.6892 47.6606 84.8383 47.6606Z" fill="#373765"/>
<path fill-rule="evenodd" clip-rule="evenodd" d="M65.585 26.0318C62.4856 26.0318 60.0691 28.5635 60.0691 31.8107V40.456C60.0691 43.7032 62.4856 46.2349 65.585 46.2349H84.8396C87.9214 46.2349 90.3555 43.5777 90.3555 40.456V31.8107C90.3555 28.5635 87.939 26.0318 84.8396 26.0318H65.585ZM57.3477 31.8107C57.3477 26.9889 60.9826 23.1807 65.585 23.1807H84.8396C89.442 23.1807 93.0769 26.9889 93.0769 31.8107V40.456C93.0769 45.1151 89.4596 49.0861 84.8396 49.0861H65.585C60.9826 49.0861 57.3477 45.2778 57.3477 40.456V31.8107Z" fill="#171753"/>
<path d="M73.8763 41.8974C76.9146 41.8974 79.3776 39.3169 79.3776 36.1338C79.3776 32.9506 76.9146 30.3701 73.8763 30.3701C70.838 30.3701 68.375 32.9506 68.375 36.1338C68.375 39.3169 70.838 41.8974 73.8763 41.8974Z" fill="#FFA54B"/>
<path fill-rule="evenodd" clip-rule="evenodd" d="M73.8764 31.4262C71.3948 31.4262 69.3831 33.5338 69.3831 36.1337C69.3831 38.7337 71.3948 40.8413 73.8764 40.8413C76.3581 40.8413 78.3698 38.7337 78.3698 36.1337C78.3698 33.5338 76.3581 31.4262 73.8764 31.4262ZM67.3672 36.1337C67.3672 32.3674 70.2815 29.3142 73.8764 29.3142C77.4714 29.3142 80.3857 32.3674 80.3857 36.1337C80.3857 39.9001 77.4714 42.9533 73.8764 42.9533C70.2815 42.9533 67.3672 39.9001 67.3672 36.1337Z" fill="#171753"/>
<path d="M37.4121 35.6855C37.4121 34.368 38.4181 33.314 39.6756 33.314C40.9332 33.314 41.9392 34.368 41.9392 35.6855C41.9392 37.0029 40.9332 38.0569 39.6756 38.0569C38.4181 38.0569 37.4121 36.959 37.4121 35.6855Z" fill="white"/>
<path d="M51.0764 41.4391C50.9926 42.1856 50.9087 42.9322 50.6991 43.6349C50.0704 46.1382 48.6871 48.4219 46.4236 49.6955C43.3217 51.3643 39.633 50.7495 36.5311 49.4759C33.9741 51.3643 33.9741 51.3643 33.9741 51.3643C33.3873 51.7596 32.6328 51.1008 32.9681 50.4421C32.2555 50.5738 32.0459 49.8711 32.2555 49.3002C31.6687 49.7833 31.1657 48.905 31.501 48.378C31.7106 48.0266 32.0459 47.6314 32.2974 47.3239C28.6925 45.172 25.423 42.537 22.1115 39.9459C23.9978 41.1756 31.5429 45.2159 33.3873 46.0504C35.3155 46.9287 37.2437 47.807 39.2557 48.2901C40.9324 48.6854 43.0702 48.905 44.6211 47.8949C46.0463 47.0165 46.5912 45.2159 46.8008 43.591C47.3038 40.0776 46.1302 36.1251 44.3696 33.1387C42.5253 30.0206 39.5072 27.2099 36.07 26.2876C34.8125 25.9363 33.555 25.9363 32.3813 26.1559C29.6566 26.639 27.1835 28.3956 25.2972 30.5915C22.5726 33.7535 20.6863 37.6622 18.9677 41.5269C17.794 44.118 16.1593 50.4421 12.3029 47.9388C10.5843 46.7969 9.49442 44.8207 8.7399 42.8883C7.90156 40.8242 7.31471 38.0574 7.85964 35.8177C9.03332 31.1185 15.3209 35.2906 17.4587 36.7838C17.333 36.7399 12.3029 34.3245 10.4585 36.2129C9.62017 37.0913 9.66208 38.6723 9.78784 39.8141C10.0393 41.8782 11.0034 44.9524 12.8478 46.0943C15.2371 47.5435 16.4527 43.0201 17.0814 41.4391C18.1294 38.7601 19.1354 36.0812 20.3091 33.4461C21.6085 30.5476 23.1595 27.693 25.2972 25.3654C24.8362 24.7944 24.1655 24.0918 24.1236 23.3452C24.0397 22.5107 24.8362 21.5885 25.6745 22.0277C24.7104 20.8858 26.0098 19.173 27.2674 19.8318C26.6805 18.8656 27.6027 17.6359 28.5668 17.6799C29.1117 17.6799 29.6566 18.1629 30.0758 18.4704C31.1657 19.217 32.2555 20.0075 33.3873 20.7541C43.8247 19.0413 51.9986 31.4698 51.0764 41.4391Z" fill="white"/>
</svg>
