<svg width="131" height="120" viewBox="0 0 131 120" fill="none" xmlns="http://www.w3.org/2000/svg">
<path d="M90.9699 60.8707C90.9699 74.7051 79.7549 85.9201 65.9205 85.9201C52.0861 85.9201 40.8711 74.7051 40.8711 60.8707C40.8711 47.0363 52.0861 35.8213 65.9205 35.8213C79.7549 35.8213 90.9699 47.0363 90.9699 60.8707Z" fill="#BEF0ED"/>
<path fill-rule="evenodd" clip-rule="evenodd" d="M65.9205 84.4028C78.9169 84.4028 89.4526 73.8671 89.4526 60.8707C89.4526 47.8743 78.9169 37.3386 65.9205 37.3386C52.9241 37.3386 42.3884 47.8743 42.3884 60.8707C42.3884 73.8671 52.9241 84.4028 65.9205 84.4028ZM65.9205 85.9201C79.7549 85.9201 90.9699 74.7051 90.9699 60.8707C90.9699 47.0363 79.7549 35.8213 65.9205 35.8213C52.0861 35.8213 40.8711 47.0363 40.8711 60.8707C40.8711 74.7051 52.0861 85.9201 65.9205 85.9201Z" fill="#5ED9D1"/>
<path d="M72.0426 70.0792L63.8789 60.706H60.9377L70.256 50.0134H73.3346L64.8684 59.689L64.621 57.7924L75.3961 70.0792H72.0426ZM59.3984 70.0792V50.0134H62.0922V70.0792H59.3984Z" fill="#171753"/>
<path d="M65.121 104.807L68.1442 103.983V103.324H70.1597L72.8471 104.807L74.3587 106.949V109.916L73.351 111.399L71.1675 113.871L68.1442 114.859L65.121 113.871L62.7695 110.575L63.1054 107.444L65.121 104.807Z" fill="#FFA54B"/>
<path d="M72.6825 106.34C71.642 104.804 69.9906 103.923 68.2714 103.81C67.0272 103.728 65.7529 104.036 64.6445 104.789C64.5465 104.857 64.4484 104.924 64.3579 104.992C63.7472 105.459 63.2495 106.031 62.88 106.671C62.7292 106.927 62.6086 107.183 62.503 107.454C62.503 107.461 62.4955 107.461 62.4955 107.469C62.405 107.702 62.322 107.95 62.2617 108.191C62.5181 108.199 62.7669 108.221 63.0158 108.266C63.0836 108.026 63.1666 107.785 63.2646 107.551C63.0233 107.506 62.782 107.469 62.5407 107.454C62.8046 107.416 63.0685 107.393 63.3325 107.393C63.4531 107.137 63.5964 106.897 63.7623 106.663C64.1016 106.181 64.5389 105.745 65.0592 105.399C65.9264 104.819 66.9066 104.541 67.8793 104.541C68.6937 104.541 69.493 104.736 70.2168 105.105C70.9407 105.481 71.5816 106.031 72.0718 106.754C73.6251 109.042 73.0219 112.165 70.7447 113.724L70.6316 113.799C70.0434 114.183 69.3949 114.431 68.7163 114.544C68.4373 114.589 68.1583 114.612 67.8718 114.612C67.8115 114.747 67.736 114.875 67.6606 115.003C67.7059 114.875 67.7436 114.747 67.7737 114.612C67.5249 114.604 67.2685 114.582 67.0197 114.536C66.9518 114.777 66.8689 115.018 66.7709 115.244C66.9895 115.289 67.2158 115.319 67.442 115.334C67.4721 115.334 67.5023 115.342 67.54 115.342C67.6606 115.349 67.7737 115.349 67.8944 115.349C68.0377 115.349 68.1885 115.342 68.3317 115.334C69.1913 115.267 70.0509 115.011 70.8276 114.552C70.9256 114.491 71.0237 114.431 71.1217 114.363C72.2377 113.611 73.0068 112.542 73.3838 111.353C73.5723 110.773 73.6628 110.171 73.6628 109.569C73.6703 108.455 73.3536 107.326 72.6825 106.34Z" fill="#060637"/>
<path d="M70.6994 114.582C70.5788 114.582 70.4581 114.521 70.3903 114.416C70.2772 114.243 70.3224 114.01 70.4883 113.897L71.8757 112.963C74.1831 111.405 74.7863 108.274 73.233 105.971C72.479 104.857 71.3328 104.104 70.0132 103.848C68.6937 103.592 67.3439 103.863 66.228 104.616L64.8405 105.549C64.6671 105.662 64.4333 105.617 64.3202 105.451C64.2071 105.278 64.2524 105.045 64.4183 104.932L65.8057 103.999C67.0876 103.133 68.6334 102.817 70.149 103.111C71.6646 103.404 72.9842 104.27 73.8513 105.549C75.6384 108.191 74.9447 111.797 72.2904 113.581L70.9106 114.514C70.8427 114.559 70.7673 114.582 70.6994 114.582Z" fill="#060637"/>
<path d="M58.9604 108.931L61.9405 108.13V107.489H63.9272L66.5762 108.931L68.0662 111.014V113.898L67.0728 115.34L64.9206 117.743L61.9405 118.704L58.9604 117.743L56.6426 114.539L56.9737 111.495L58.9604 108.931Z" fill="#FFA54B"/>
<path d="M66.5512 110.33C65.6949 109.062 64.3961 108.258 63.0028 107.99C62.9012 108.215 62.8214 108.439 62.7634 108.678C63.2568 108.765 63.7285 108.925 64.1784 109.149C64.875 109.511 65.4918 110.04 65.9634 110.735C66.7834 111.945 66.9793 113.401 66.6238 114.712C66.8632 114.756 67.1099 114.777 67.3494 114.785C67.4582 114.343 67.5163 113.894 67.5163 113.445C67.5018 112.365 67.197 111.279 66.5512 110.33ZM66.5512 110.33C65.6949 109.062 64.3961 108.258 63.0028 107.99C62.7706 107.947 62.5384 107.911 62.3062 107.896C62.2917 107.896 62.2772 107.896 62.2627 107.889C61.0872 107.816 59.8753 108.113 58.8304 108.816L58.8014 108.838C58.7143 108.896 58.6272 108.961 58.5402 109.026C56.2181 110.801 55.6594 114.104 57.3138 116.559C58.3878 118.146 60.1511 119.008 61.9434 119.008C62.9158 119.008 63.8881 118.754 64.7734 118.232C64.8605 118.182 64.9475 118.124 65.0274 118.073L65.0709 118.044C66.0287 117.392 66.7253 116.494 67.1172 115.487C67.1607 115.379 67.197 115.27 67.2333 115.154C67.2768 115.031 67.3131 114.908 67.3421 114.777C67.451 114.335 67.509 113.886 67.509 113.437C67.5018 112.365 67.197 111.279 66.5512 110.33ZM66.377 115.386C66.0215 116.19 65.4482 116.914 64.6645 117.443L64.5702 117.501C63.5108 118.189 62.2482 118.435 61.0073 118.189C59.7375 117.943 58.6345 117.218 57.9089 116.146C56.4141 113.93 56.9946 110.917 59.215 109.417C60.0422 108.859 60.9928 108.584 61.9289 108.584C61.9652 108.584 62.0015 108.584 62.0377 108.584C62.2845 108.591 62.5239 108.613 62.7634 108.657C63.2568 108.744 63.7285 108.903 64.1784 109.127C64.875 109.49 65.4918 110.018 65.9634 110.714C66.7834 111.923 66.9793 113.379 66.6238 114.69C66.5512 114.937 66.4714 115.169 66.377 115.386ZM66.5512 110.33C65.6949 109.062 64.3961 108.258 63.0028 107.99C62.9012 108.215 62.8214 108.439 62.7634 108.678C63.2568 108.765 63.7285 108.925 64.1784 109.149C64.875 109.511 65.4918 110.04 65.9634 110.735C66.7834 111.945 66.9793 113.401 66.6238 114.712C66.8632 114.756 67.1099 114.777 67.3494 114.785C67.4582 114.343 67.5163 113.894 67.5163 113.445C67.5018 112.365 67.197 111.279 66.5512 110.33Z" fill="#060637"/>
<path d="M68.24 114.712C68.1385 114.973 68.0151 115.234 67.87 115.473C67.4636 116.175 66.8904 116.805 66.172 117.291L65.069 118.044L65.0255 118.073L64.8441 118.196C64.8223 118.211 64.8005 118.225 64.7715 118.232C64.728 118.247 64.6844 118.254 64.6409 118.254C64.5248 118.254 64.4087 118.196 64.3434 118.095C64.2345 117.928 64.2781 117.704 64.4377 117.595L64.5683 117.508L64.6627 117.45L65.7729 116.704C66.2736 116.363 66.6944 115.951 67.021 115.48C67.0935 115.371 67.1661 115.262 67.2314 115.154C67.304 115.031 67.3693 114.908 67.4346 114.777C68.153 113.278 68.0804 111.445 67.079 109.967C66.3534 108.895 65.2504 108.171 63.9806 107.925C63.6758 107.867 63.371 107.838 63.0735 107.838C62.8195 107.838 62.5656 107.86 62.3116 107.896C62.2971 107.896 62.2753 107.903 62.2608 107.903C61.5787 108.019 60.9329 108.273 60.3451 108.671L59.2131 109.424L59.0027 109.562C58.8358 109.671 58.6109 109.627 58.502 109.468C58.4077 109.33 58.4222 109.142 58.531 109.026C58.5528 109.004 58.5746 108.99 58.5963 108.968L58.7923 108.83L58.8213 108.809L59.9315 108.062C60.7442 107.512 61.673 107.193 62.6236 107.121C62.9066 107.099 63.1896 107.099 63.4799 107.121C63.6903 107.135 63.9007 107.164 64.1184 107.208C65.577 107.505 66.8396 108.338 67.674 109.569C68.7407 111.141 68.8859 113.068 68.24 114.712Z" fill="#060637"/>
<path d="M66.0783 14.722L63.055 15.5459V16.2051H61.0395L58.3521 14.722L56.8405 12.5797V9.61348L57.8483 8.13036L60.0317 5.65851L63.055 4.66977L66.0783 5.65851L68.4297 8.95432L68.0938 12.0853L66.0783 14.722Z" fill="#FFA54B"/>
<path d="M58.5167 13.1898C59.5572 14.7253 61.2086 15.606 62.9278 15.7189C64.172 15.8017 65.4463 15.493 66.5547 14.7403C66.6528 14.6726 66.7508 14.6049 66.8413 14.5371C67.452 14.0704 67.9497 13.4984 68.3192 12.8586C68.47 12.6027 68.5906 12.3468 68.6962 12.0758C68.6962 12.0682 68.7037 12.0683 68.7037 12.0607C68.7942 11.8274 68.8772 11.579 68.9375 11.3381C68.6811 11.3306 68.4323 11.308 68.1835 11.2629C68.1156 11.5037 68.0327 11.7446 67.9346 11.9779C68.1759 12.0231 68.4172 12.0607 68.6585 12.0758C68.3946 12.1134 68.1307 12.136 67.8668 12.136C67.7461 12.3919 67.6029 12.6328 67.437 12.8661C67.0976 13.3478 66.6603 13.7844 66.14 14.1307C65.2729 14.7102 64.2926 14.9887 63.3199 14.9887C62.5055 14.9887 61.7063 14.793 60.9824 14.4242C60.2585 14.0479 59.6176 13.4984 59.1274 12.7758C57.5741 10.4876 58.1774 7.36386 60.4546 5.80576L60.5677 5.73049C61.1558 5.34661 61.8043 5.09822 62.4829 4.98532C62.7619 4.94015 63.0409 4.91757 63.3274 4.91757C63.3878 4.78209 63.4632 4.65413 63.5386 4.52617C63.4933 4.65413 63.4556 4.78209 63.4255 4.91757C63.6743 4.9251 63.9307 4.94768 64.1795 4.99284C64.2474 4.75198 64.3303 4.51111 64.4283 4.2853C64.2097 4.24014 63.9835 4.21003 63.7572 4.19498C63.7271 4.19498 63.6969 4.18745 63.6592 4.18745C63.5386 4.17992 63.4255 4.17992 63.3048 4.17992C63.1616 4.17992 63.0108 4.18745 62.8675 4.19498C62.0079 4.26272 61.1483 4.51864 60.3716 4.97779C60.2736 5.038 60.1756 5.09822 60.0775 5.16596C58.9616 5.91867 58.1924 6.9875 57.8154 8.17677C57.6269 8.75636 57.5364 9.35852 57.5364 9.96068C57.5289 11.0747 57.8456 12.2037 58.5167 13.1898Z" fill="#060637"/>
<path d="M60.4998 4.94709C60.6204 4.94709 60.7411 5.00731 60.809 5.11269C60.9221 5.28581 60.8768 5.51915 60.7109 5.63205L59.3235 6.5654C57.0161 8.1235 56.4129 11.2547 57.9662 13.558C58.7203 14.672 59.8664 15.4247 61.186 15.6806C62.5055 15.9366 63.8553 15.6656 64.9713 14.9129L66.3587 13.9795C66.5321 13.8666 66.7659 13.9118 66.879 14.0774C66.9921 14.2505 66.9468 14.4838 66.781 14.5967L65.3935 15.5301C64.1116 16.3957 62.5659 16.7118 61.0502 16.4183C59.5346 16.1247 58.2151 15.2591 57.3479 13.9795C55.5608 11.3375 56.2545 7.73209 58.9088 5.94819L60.2887 5.01484C60.3565 4.96967 60.4319 4.94709 60.4998 4.94709Z" fill="#060637"/>
<path d="M72.2369 10.5974L69.2568 11.3985V12.0393H67.2701L64.6211 10.5974L63.1311 8.51463V5.6308L64.1244 4.18889L66.2767 1.7857L69.2568 0.824429L72.2369 1.7857L74.5547 4.98995L74.2236 8.03399L72.2369 10.5974Z" fill="#FFA54B"/>
<path d="M64.648 9.19945C65.5043 10.4671 66.8032 11.2711 68.1964 11.5391C68.298 11.3145 68.3778 11.09 68.4358 10.851C67.9424 10.764 67.4707 10.6047 67.0209 10.3801C66.3242 10.018 65.7075 9.48919 65.2358 8.79381C64.4158 7.58415 64.2199 6.12821 64.5755 4.81714C64.336 4.77368 64.0893 4.75195 63.8498 4.7447C63.741 5.18655 63.6829 5.63565 63.6829 6.08475C63.6974 7.16403 64.0022 8.25055 64.648 9.19945ZM64.648 9.19945C65.5043 10.4671 66.8032 11.2711 68.1964 11.5391C68.4286 11.5826 68.6608 11.6188 68.893 11.6333C68.9075 11.6333 68.922 11.6333 68.9365 11.6405C70.1121 11.7129 71.3239 11.416 72.3688 10.7133L72.3978 10.6916C72.4849 10.6337 72.572 10.5685 72.659 10.5033C74.9811 8.72862 75.5398 5.42559 73.8854 2.97005C72.8114 1.38372 71.0481 0.521746 69.2558 0.521746C68.2835 0.521746 67.3111 0.775269 66.4258 1.2968C66.3388 1.3475 66.2517 1.40545 66.1719 1.45616L66.1283 1.48513C65.1705 2.13704 64.4739 3.03524 64.082 4.04208C64.0385 4.15073 64.0022 4.25939 63.9659 4.37528C63.9224 4.49842 63.8861 4.62156 63.8571 4.75195C63.7482 5.1938 63.6902 5.64289 63.6902 6.09199C63.6974 7.16403 64.0022 8.25055 64.648 9.19945ZM64.8222 4.14349C65.1777 3.33946 65.751 2.61512 66.5347 2.08634L66.629 2.02839C67.6884 1.34026 68.951 1.09398 70.1919 1.34026C71.4617 1.58654 72.5647 2.31089 73.2903 3.38293C74.7852 5.59943 74.2047 8.61273 71.9842 10.1121C71.157 10.6699 70.2064 10.9451 69.2703 10.9451C69.234 10.9451 69.1978 10.9451 69.1615 10.9451C68.9148 10.9379 68.6753 10.9162 68.4358 10.8727C67.9424 10.7858 67.4707 10.6264 67.0209 10.4019C66.3242 10.0397 65.7075 9.51092 65.2358 8.81554C64.4158 7.60588 64.2199 6.14994 64.5755 4.83887C64.648 4.59259 64.7278 4.3608 64.8222 4.14349ZM64.648 9.19945C65.5043 10.4671 66.8032 11.2711 68.1964 11.5391C68.298 11.3145 68.3778 11.09 68.4358 10.851C67.9424 10.764 67.4707 10.6047 67.0209 10.3801C66.3242 10.018 65.7075 9.48919 65.2358 8.79381C64.4158 7.58415 64.2199 6.12821 64.5755 4.81714C64.336 4.77368 64.0893 4.75195 63.8498 4.7447C63.741 5.18655 63.6829 5.63565 63.6829 6.08475C63.6974 7.16403 64.0022 8.25055 64.648 9.19945Z" fill="#060637"/>
<path d="M62.9592 4.81683C63.0608 4.55607 63.1841 4.2953 63.3293 4.05627C63.7356 3.35365 64.3089 2.72346 65.0272 2.23815L66.1302 1.48482L66.1737 1.45585L66.3552 1.33271C66.3769 1.31822 66.3987 1.30374 66.4277 1.29649C66.4713 1.28201 66.5148 1.27476 66.5583 1.27476C66.6744 1.27476 66.7905 1.33271 66.8558 1.43412C66.9647 1.60072 66.9212 1.82527 66.7615 1.93392L66.6309 2.02084L66.5366 2.07879L65.4263 2.82487C64.9257 3.16532 64.5048 3.5782 64.1782 4.04902C64.1057 4.15767 64.0331 4.26633 63.9678 4.37498C63.8952 4.49812 63.8299 4.62126 63.7646 4.75164C63.0463 6.25105 63.1188 8.08365 64.1202 9.56132C64.8458 10.6334 65.9488 11.3577 67.2187 11.604C67.5234 11.6619 67.8282 11.6909 68.1257 11.6909C68.3797 11.6909 68.6337 11.6692 68.8876 11.633C68.9021 11.633 68.9239 11.6257 68.9384 11.6257C69.6205 11.5098 70.2663 11.2563 70.8541 10.8579L71.9861 10.1046L72.1965 9.96696C72.3634 9.85831 72.5884 9.90177 72.6972 10.0611C72.7915 10.1988 72.777 10.3871 72.6682 10.503C72.6464 10.5247 72.6247 10.5392 72.6029 10.5609L72.407 10.6986L72.3779 10.7203L71.2677 11.4664C70.455 12.0169 69.5262 12.3356 68.5756 12.408C68.2926 12.4297 68.0096 12.4297 67.7194 12.408C67.5089 12.3935 67.2985 12.3646 67.0808 12.3211C65.6223 12.0241 64.3597 11.1911 63.5252 9.95972C62.4585 8.38788 62.3134 6.46111 62.9592 4.81683Z" fill="#060637"/>
<path d="M15.341 58.0979H3.83026C2.57278 58.0979 1.54102 59.1301 1.54102 60.3881V69.1618C1.54102 70.4198 2.57278 71.452 3.83026 71.452H15.341C16.5985 71.452 17.6303 70.4198 17.6303 69.1618V60.3881C17.6303 59.1301 16.5985 58.0979 15.341 58.0979Z" fill="#ECFFFE"/>
<path fill-rule="evenodd" clip-rule="evenodd" d="M4.29207 55.0068C4.29207 52.027 6.78114 49.6071 9.79845 49.7473C11.3461 49.8176 12.6814 50.5575 13.5909 51.6766C13.7422 51.8628 13.7139 52.1364 13.5278 52.2877C13.3416 52.439 13.068 52.4107 12.9167 52.2246C12.1529 51.2848 11.0428 50.6735 9.75878 50.6152L9.75832 50.6151C7.24103 50.4981 5.16089 52.5176 5.16089 55.0068V57.7894H15.989C17.1298 57.7894 18.0323 58.6915 18.0323 59.8323V69.4834C18.0323 70.6242 17.1298 71.5263 15.989 71.5263H3.11755C1.97674 71.5263 1.07422 70.6242 1.07422 69.4834V59.8323C1.07422 58.6915 1.97674 57.7894 3.11755 57.7894C3.1744 57.7894 3.22869 57.8003 3.27845 57.8201C3.32821 57.8003 3.3825 57.7894 3.43934 57.7894H4.29207V55.0068ZM3.27845 58.6274C3.22869 58.6473 3.1744 58.6582 3.11755 58.6582C2.45637 58.6582 1.94304 59.1716 1.94304 59.8323V69.4834C1.94304 70.1441 2.45637 70.6575 3.11755 70.6575H15.989C16.6501 70.6575 17.1635 70.1441 17.1635 69.4834V59.8323C17.1635 59.1716 16.6501 58.6582 15.989 58.6582H3.43934C3.3825 58.6582 3.32821 58.6473 3.27845 58.6274Z" fill="#171753"/>
<path fill-rule="evenodd" clip-rule="evenodd" d="M4.13973 55.0066C4.13973 51.9413 6.70017 49.4514 9.80481 49.5956C11.3985 49.6681 12.7731 50.4304 13.708 51.5808C13.9122 51.832 13.8741 52.2012 13.6229 52.4053C13.3716 52.6095 13.0025 52.5713 12.7983 52.3201C12.06 51.4117 10.9892 50.8229 9.75128 50.7666L9.75075 50.7666C7.32078 50.6536 5.31201 52.6032 5.31201 55.0066V57.6375H15.9883C17.2129 57.6375 18.1834 58.6076 18.1834 59.8322V69.4833C18.1834 70.7079 17.2129 71.6779 15.9883 71.6779H3.11694C1.89237 71.6779 0.921875 70.7079 0.921875 69.4833V59.8322C0.921875 58.6076 1.89237 57.6375 3.11694 57.6375C3.17258 57.6375 3.22659 57.6453 3.27784 57.6599C3.32909 57.6453 3.3831 57.6375 3.43873 57.6375H4.13973V55.0066ZM9.7908 49.8987C6.86085 49.7626 4.44319 52.1126 4.44319 55.0066V57.7893C4.44319 57.8731 4.37526 57.941 4.29146 57.941H3.43873C3.40146 57.941 3.36623 57.9481 3.33406 57.961C3.29796 57.9754 3.25771 57.9754 3.22161 57.961C3.18944 57.9481 3.15421 57.941 3.11694 57.941C2.05989 57.941 1.22534 58.7752 1.22534 59.8322V69.4833C1.22534 70.5402 2.05989 71.3745 3.11694 71.3745H15.9883C17.0454 71.3745 17.88 70.5402 17.88 69.4833V59.8322C17.88 58.7752 17.0454 57.941 15.9883 57.941H5.16028C5.07648 57.941 5.00855 57.8731 5.00855 57.7893V55.0066C5.00855 52.4318 7.16011 50.3424 9.76467 50.4635C9.7647 50.4635 9.76464 50.4635 9.76467 50.4635C11.0947 50.5239 12.2446 51.1576 13.0338 52.1287C13.1323 52.2499 13.3103 52.2683 13.4315 52.1698C13.5526 52.0714 13.571 51.8933 13.4725 51.7722C12.5885 50.6844 11.2924 49.967 9.7908 49.8987ZM3.27784 58.7874C3.22659 58.802 3.17258 58.8098 3.11694 58.8098C2.53953 58.8098 2.09416 59.2553 2.09416 59.8322V69.4833C2.09416 70.0602 2.53953 70.5057 3.11694 70.5057H15.9883C16.5658 70.5057 17.0111 70.0602 17.0111 69.4833V59.8322C17.0111 59.2553 16.5658 58.8098 15.9883 58.8098H3.43873C3.3831 58.8098 3.32909 58.802 3.27784 58.7874ZM3.22161 58.4864C3.25771 58.472 3.29796 58.472 3.33406 58.4864C3.36623 58.4992 3.40146 58.5063 3.43873 58.5063H15.9883C16.7333 58.5063 17.3146 59.0876 17.3146 59.8322V69.4833C17.3146 70.2279 16.7333 70.8091 15.9883 70.8091H3.11694C2.37199 70.8091 1.7907 70.2279 1.7907 69.4833V59.8322C1.7907 59.0876 2.37199 58.5063 3.11694 58.5063C3.15421 58.5063 3.18944 58.4992 3.22161 58.4864Z" fill="#171753"/>
<path d="M128.075 58.0981H116.565C115.307 58.0981 114.275 59.1304 114.275 60.3883V69.162C114.275 70.42 115.307 71.4522 116.565 71.4522H128.075C129.333 71.4522 130.365 70.42 130.365 69.162V60.3883C130.365 59.1304 129.333 58.0981 128.075 58.0981Z" fill="#ECFFFE"/>
<path fill-rule="evenodd" clip-rule="evenodd" d="M116.874 55.0069C116.874 51.9414 119.435 49.4514 122.539 49.5958L122.541 49.5959C125.478 49.7409 127.7 52.2362 127.7 55.1356V57.6378H128.723C129.947 57.6378 130.918 58.6078 130.918 59.8324V69.4835C130.918 70.7082 129.947 71.6782 128.723 71.6782H115.851C114.627 71.6782 113.656 70.7082 113.656 69.4835V59.8324C113.656 58.6078 114.627 57.6378 115.851 57.6378H116.874V55.0069ZM122.525 49.899C119.595 49.7627 117.178 52.1127 117.178 55.0069V57.7895C117.178 57.8733 117.11 57.9412 117.026 57.9412H115.851C114.794 57.9412 113.96 58.7755 113.96 59.8324V69.4835C113.96 70.5405 114.794 71.3747 115.851 71.3747H128.723C129.78 71.3747 130.614 70.5405 130.614 69.4835V59.8324C130.614 58.7755 129.78 57.9412 128.723 57.9412H127.548C127.464 57.9412 127.396 57.8733 127.396 57.7895V55.1356C127.396 52.3881 125.292 50.0357 122.526 49.899C122.526 49.899 122.526 49.899 122.526 49.899L122.525 49.899ZM122.484 50.7668C120.055 50.6543 118.046 52.6037 118.046 55.0069V57.6378H126.528V55.1356C126.528 52.8239 124.76 50.8796 122.484 50.7668ZM117.743 55.0069C117.743 52.4322 119.894 50.3429 122.499 50.4637L122.499 50.4637C124.946 50.5848 126.831 52.6715 126.831 55.1356V57.7895C126.831 57.8733 126.763 57.9412 126.679 57.9412H117.895C117.811 57.9412 117.743 57.8733 117.743 57.7895V55.0069ZM115.851 58.8101C115.274 58.8101 114.829 59.2555 114.829 59.8324V69.4835C114.829 70.0604 115.274 70.5059 115.851 70.5059H128.723C129.3 70.5059 129.746 70.0604 129.746 69.4835V59.8324C129.746 59.2555 129.3 58.8101 128.723 58.8101H115.851ZM114.525 59.8324C114.525 59.0878 115.106 58.5066 115.851 58.5066H128.723C129.468 58.5066 130.049 59.0878 130.049 59.8324V69.4835C130.049 70.2281 129.468 70.8094 128.723 70.8094H115.851C115.106 70.8094 114.525 70.2281 114.525 69.4835V59.8324Z" fill="#171753"/>
<path fill-rule="evenodd" clip-rule="evenodd" d="M117.026 55.0068C117.026 52.0269 119.516 49.607 122.533 49.7473L122.534 49.7473C125.386 49.8881 127.549 52.312 127.549 55.1354V57.7894H128.723C129.864 57.7894 130.767 58.6915 130.767 59.8323V69.4834C130.767 70.6242 129.864 71.5263 128.723 71.5263H115.852C114.711 71.5263 113.809 70.6242 113.809 69.4834V59.8323C113.809 58.6915 114.711 57.7894 115.852 57.7894H117.026V55.0068ZM117.895 57.7894H126.68V55.1354C126.68 52.7475 124.853 50.732 122.492 50.6151C119.975 50.4984 117.895 52.5178 117.895 55.0068V57.7894ZM115.852 58.6582C115.191 58.6582 114.677 59.1716 114.677 59.8323V69.4834C114.677 70.1441 115.191 70.6575 115.852 70.6575H128.723C129.385 70.6575 129.898 70.1441 129.898 69.4834V59.8323C129.898 59.1716 129.385 58.6582 128.723 58.6582H115.852Z" fill="#171753"/>
<path fill-rule="evenodd" clip-rule="evenodd" d="M9.53489 61.9123C8.90137 61.9123 8.37663 62.436 8.37663 63.0868C8.37663 63.7319 8.89564 64.2613 9.5674 64.2613C10.2009 64.2613 10.7257 63.7376 10.7257 63.0868C10.7257 62.436 10.2009 61.9123 9.5674 61.9123H9.53489ZM7.50781 63.0868C7.50781 61.9645 8.41323 61.0435 9.53489 61.0435H9.5674C10.6891 61.0435 11.5945 61.9645 11.5945 63.0868C11.5945 64.2091 10.6891 65.1301 9.5674 65.1301C8.41896 65.1301 7.50781 64.2148 7.50781 63.0868Z" fill="#171753"/>
<path fill-rule="evenodd" clip-rule="evenodd" d="M9.52554 64.3479C9.76546 64.3479 9.95995 64.5423 9.95995 64.7823V68.0711C9.95995 68.3111 9.76546 68.5056 9.52554 68.5056C9.28562 68.5056 9.09113 68.3111 9.09113 68.0711V64.7823C9.09113 64.5423 9.28562 64.3479 9.52554 64.3479Z" fill="#171753"/>
<path fill-rule="evenodd" clip-rule="evenodd" d="M122.302 61.819C121.669 61.819 121.144 62.3427 121.144 62.9935C121.144 63.6443 121.669 64.168 122.302 64.168H122.335C122.969 64.168 123.493 63.6443 123.493 62.9935C123.493 62.3427 122.969 61.819 122.335 61.819H122.302ZM120.275 62.9935C120.275 61.8712 121.181 60.9502 122.302 60.9502H122.335C123.457 60.9502 124.362 61.8712 124.362 62.9935C124.362 64.1158 123.457 65.0369 122.335 65.0369H122.302C121.181 65.0369 120.275 64.1158 120.275 62.9935Z" fill="#171753"/>
<path fill-rule="evenodd" clip-rule="evenodd" d="M122.294 64.2966C122.534 64.2966 122.728 64.4911 122.728 64.731V67.9779C122.728 68.2178 122.534 68.4123 122.294 68.4123C122.054 68.4123 121.859 68.2178 121.859 67.9779V64.731C121.859 64.4911 122.054 64.2966 122.294 64.2966Z" fill="#171753"/>
</svg>
