<svg width="60" height="81" viewBox="0 0 60 81" fill="none" xmlns="http://www.w3.org/2000/svg">
<path fill-rule="evenodd" clip-rule="evenodd" d="M1.23462 80.5781V62.2785C1.23462 58.8082 1.81305 55.6722 3.03546 52.9218L3.04613 52.8978C4.34356 50.0739 6.31567 47.6272 8.90718 45.554L8.92973 45.536C11.5454 43.5016 14.8573 41.6625 18.8167 39.9953C18.8169 39.9952 18.8165 39.9954 18.8167 39.9953L30.0541 35.2371C32.7671 34.1015 34.4894 32.8369 35.4638 31.5548L35.4797 31.5339L35.4961 31.5134C36.4929 30.2674 37.058 28.6331 37.058 26.4551C37.058 24.6335 36.457 23.1855 35.2468 21.9753L35.2157 21.9443L35.186 21.9119C34.1518 20.7878 32.5033 20.0629 29.8562 20.0629C27.1494 20.0629 25.4848 20.8159 24.4528 21.9826L24.4391 21.998L24.4252 22.0131C23.3195 23.215 22.6544 24.9489 22.6544 27.4671V29.5753H0.222656V27.4671C0.222656 22.2978 1.33839 17.6208 3.62349 13.4929C5.92453 9.33619 9.30117 6.08639 13.6847 3.74851L13.6974 3.74173C18.1902 1.38488 23.6074 0.262207 29.8562 0.262207C36.0226 0.262207 41.3622 1.34586 45.7823 3.62491C50.2109 5.80673 53.6322 8.86695 55.9511 12.8219C58.3227 16.6842 59.4898 21.0463 59.4898 25.8479V27.0623C59.4898 33.1952 57.8209 38.4248 54.3437 42.5823C50.9442 46.6469 45.6182 50.1498 38.5846 53.1839L38.5715 53.1895L27.3276 57.9504C25.8733 58.5564 24.9446 59.1555 24.3998 59.6865C24.2863 59.8162 24.1817 59.9736 24.0959 60.1702H59.2874V80.5781H1.23462ZM21.7605 62.2785V61.4689C21.7605 61.004 21.8046 60.5711 21.8927 60.1702C22.0603 59.4078 22.3873 58.7612 22.8737 58.2306C23.6833 57.4211 24.8976 56.679 26.5167 56.0043L37.7495 51.2481C44.6308 48.2797 49.6232 44.9402 52.7265 41.2297C55.8298 37.5192 57.3815 32.7967 57.3815 27.0623V25.8479C57.3815 21.3953 56.3021 17.4149 54.1433 13.9068C52.0519 10.3312 48.9485 7.53145 44.8332 5.50753C40.7854 3.41615 35.793 2.37046 29.8562 2.37046C23.8519 2.37046 18.7921 3.44988 14.6768 5.60873C10.629 7.76758 7.55936 10.736 5.46798 14.514C3.6842 17.7363 2.66113 21.3512 2.39877 25.3588C2.35353 26.0499 2.33091 26.7526 2.33091 27.4671H20.5462C20.5462 24.5661 21.322 22.2723 22.8737 20.5857C24.4254 18.8317 26.7529 17.9546 29.8562 17.9546C32.8921 17.9546 35.1859 18.7979 36.7375 20.4845C38.3567 22.1037 39.1662 24.0939 39.1662 26.4551C39.1662 29.0187 38.4916 31.1438 37.1423 32.8304C35.8605 34.517 33.7691 35.9675 30.8682 37.1819L19.6354 41.9381C15.79 43.5572 12.6529 45.3113 10.2242 47.2003C7.86295 49.0893 6.10889 51.2818 4.962 53.778C3.88258 56.2067 3.34286 59.0402 3.34286 62.2785V78.4698H57.1791V62.2785H21.7605Z" fill="url(#paint0_linear_566_2170)"/>
<defs>
<linearGradient id="paint0_linear_566_2170" x1="62.213" y1="78.4702" x2="20.6673" y2="-78.2604" gradientUnits="userSpaceOnUse">
<stop stop-color="#5ED9D1"/>
<stop offset="1" stop-color="#171753"/>
</linearGradient>
</defs>
</svg>
