<svg width="62" height="81" viewBox="0 0 62 81" fill="none" xmlns="http://www.w3.org/2000/svg">
<path fill-rule="evenodd" clip-rule="evenodd" d="M14.6264 76.9975C10.0109 74.6897 6.36982 71.5487 3.78172 67.5556L3.76946 67.5367L3.7576 67.5175C1.24094 63.4464 0.00195312 58.84 0.00195312 53.7594V51.6512H22.4337V53.7594C22.4337 55.8346 23.1223 57.4151 24.4742 58.6742C25.7906 59.8361 27.7854 60.5564 30.7487 60.5564C32.7082 60.5564 34.2339 60.203 35.4095 59.5972C36.6386 58.8963 37.518 58.0219 38.1167 56.9816C38.7379 55.8354 39.0636 54.5399 39.0636 53.0511C39.0636 50.7986 38.3438 49.0555 36.9488 47.6605L36.9347 47.6464L36.9209 47.6321C35.6838 46.3474 33.7477 45.5457 30.7487 45.5457C29.0169 45.5457 27.5346 45.8132 26.2696 46.3057C24.9824 46.834 23.9107 47.4911 23.0293 48.2624L21.133 49.9216L10.3583 32.007L28.8567 20.6515H3.13903V0.243652H58.7631V19.6272L42.4402 29.5575C43.9831 29.9696 45.4568 30.4752 46.8597 31.0765C51.4319 33.036 55.04 35.9078 57.5862 39.7182C60.2213 43.492 61.4954 47.9706 61.4954 53.0511V54.2654C61.4954 59.295 60.214 63.8467 57.617 67.8552C55.0874 71.7965 51.4664 74.8729 46.8471 77.1104L46.8345 77.1165C42.2401 79.3043 36.8562 80.3571 30.7487 80.3571C24.6941 80.3571 19.3082 79.2654 14.6502 77.0092L14.6264 76.9975ZM55.8453 66.7125C58.2065 63.0695 59.3871 58.9204 59.3871 54.2654V53.0511C59.3871 48.3286 58.2065 44.2808 55.8453 40.9076C53.5515 37.4669 50.2795 34.8358 46.0293 33.0143C44.1318 32.2011 42.0797 31.5694 39.873 31.1193C38.8367 30.9079 37.7663 30.7365 36.6618 30.6051L56.6548 18.4421V2.3519H5.24728V18.5433H32.7726L33.6833 20.1624L13.2419 32.7106L21.641 46.6757C22.1629 46.2191 22.732 45.8019 23.3485 45.4242C24.0071 45.0205 24.7198 44.6619 25.4865 44.3482C27.0381 43.7411 28.7922 43.4375 30.7487 43.4375C34.1219 43.4375 36.6855 44.3482 38.4396 46.1698C40.2611 47.9913 41.1718 50.2851 41.1718 53.0511C41.1718 54.8726 40.7671 56.5255 39.9575 58.0097C39.1479 59.4264 37.9673 60.5733 36.4156 61.4503C34.864 62.2599 32.975 62.6647 30.7487 62.6647C27.4429 62.6647 24.8793 61.8551 23.0578 60.236C21.2362 58.5494 20.3255 56.3905 20.3255 53.7594H2.1102C2.1102 54.4738 2.13644 55.1765 2.18892 55.8677C2.4834 59.7459 3.60405 63.2597 5.55087 66.409C7.91211 70.052 11.2516 72.9529 15.5693 75.1118C19.887 77.2032 24.9468 78.2489 30.7487 78.2489C36.618 78.2489 41.6778 77.2369 45.9281 75.213C50.2458 73.1216 53.5515 70.2881 55.8453 66.7125Z" fill="url(#paint0_linear_566_2171)"/>
<defs>
<linearGradient id="paint0_linear_566_2171" x1="63.6066" y1="76.225" x2="22.0609" y2="-80.5055" gradientUnits="userSpaceOnUse">
<stop stop-color="#5ED9D1"/>
<stop offset="1" stop-color="#171753"/>
</linearGradient>
</defs>
</svg>
