<svg width="231" height="286" viewBox="0 0 231 286" fill="none" xmlns="http://www.w3.org/2000/svg">
<g opacity="0.6">
<path opacity="0.0909091" d="M133.952 131.807C153.114 142.879 153.23 160.802 134.184 171.873C115.138 182.945 84.208 182.945 65.0459 171.873C45.8839 160.802 45.7678 142.879 64.8137 131.807C83.8596 120.775 114.79 120.775 133.952 131.807Z" fill="#49CE8B"/>
<path opacity="0.1818" d="M133.413 141.291C152.265 152.169 152.381 169.821 133.645 180.699C114.909 191.577 84.4433 191.577 65.591 180.699C46.7387 169.821 46.6226 152.169 65.3588 141.291C84.0949 130.413 114.561 130.413 133.413 141.291Z" fill="#49CE8B"/>
<path opacity="0.2727" d="M132.87 150.775C151.413 161.498 151.529 178.841 133.102 189.564C114.676 200.287 84.6748 200.287 66.1322 189.564C47.5896 178.841 47.4734 161.498 65.8999 150.775C84.3264 140.052 114.328 140.052 132.87 150.775Z" fill="#49CE8B"/>
<path opacity="0.3636" d="M132.328 160.259C150.6 170.789 150.677 187.899 132.561 198.429C114.405 208.958 84.9071 208.958 66.6742 198.429C48.4025 187.899 48.3251 170.789 66.4419 160.259C84.5974 149.73 114.095 149.73 132.328 160.259Z" fill="#49CE8B"/>
<path opacity="0.4545" d="M131.786 169.743C149.748 180.118 149.825 196.919 131.98 207.293C114.134 217.668 85.1392 217.668 67.1772 207.293C49.2153 196.919 49.1379 180.118 66.9837 169.743C84.8295 159.369 113.863 159.369 131.786 169.743Z" fill="#49CE8B"/>
<path opacity="0.5455" d="M131.243 179.19C148.896 189.371 148.973 205.901 131.437 216.121C113.901 226.302 85.3707 226.302 67.7184 216.121C50.0661 205.94 49.9887 189.41 67.5249 179.19C85.061 169.009 113.591 169.009 131.243 179.19Z" fill="#49CE8B"/>
<path opacity="0.6364" d="M130.703 188.671C148.045 198.698 148.161 214.918 130.896 224.944C113.67 234.97 85.6041 234.97 68.2615 224.944C50.919 214.956 50.8415 198.698 68.068 188.671C85.3331 178.645 113.36 178.645 130.703 188.671Z" fill="#49CE8B"/>
<path opacity="0.7273" d="M130.16 198.156C147.231 207.989 147.309 223.977 130.353 233.809C113.398 243.642 85.8356 243.642 68.8027 233.809C51.7698 223.977 51.6924 207.989 68.6092 198.156C85.5646 188.324 113.127 188.324 130.16 198.156Z" fill="#49CE8B"/>
<path opacity="0.8182" d="M129.617 207.642C146.379 217.319 146.456 232.997 129.81 242.675C113.165 252.353 86.1055 252.353 69.3436 242.675C52.5817 232.997 52.5043 217.319 69.1501 207.642C85.7958 197.964 112.894 197.964 129.617 207.642Z" fill="#49CE8B"/>
<path opacity="0.9091" d="M129.115 217.088C145.567 226.572 145.645 241.979 129.309 251.502C112.973 260.986 86.378 260.986 69.9258 251.502C53.4736 242.018 53.3962 226.611 69.7323 217.088C86.0683 207.604 112.663 207.604 129.115 217.088Z" fill="#49CE8B"/>
<path opacity="0.7" d="M128.572 226.571C144.715 235.901 144.792 250.998 128.766 260.327C112.701 269.657 86.6095 269.657 70.467 260.327C54.3244 250.998 54.247 235.901 70.2734 226.571C86.2998 217.242 112.391 217.242 128.572 226.571Z" fill="#49CE8B"/>
</g>
<path d="M143.347 246.358L141.481 245.256L117.643 231.513L115.692 230.41L114.25 229.562L112.299 228.459L108.057 225.999L106.106 224.896L99.2349 220.909L97.8776 221.673L95.9265 222.775L94.145 223.793L92.1939 224.896L89.649 226.338L87.7827 227.441L84.3895 229.392L82.4384 230.495L79.13 232.361L77.1788 233.464L75.3974 234.482L73.4463 235.585L67.7626 238.893L65.8963 239.996L63.9452 241.099L61.9941 242.202L55.7166 245.849L53.7655 246.952L52.4082 247.716L57.8374 250.854L59.7885 251.957L64.3694 254.587L66.3205 255.69L71.6648 258.829L73.6159 259.931L77.8575 262.392L79.8086 263.494L92.0243 270.535L93.8905 271.638L99.1501 274.692L101.61 273.25L103.561 272.147L109.754 268.584L111.705 267.481L115.098 265.53L116.965 264.427L119.764 262.816L121.63 261.713L123.581 260.61L125.532 259.507L132.828 255.266L134.694 254.163L138.257 252.127L140.208 251.024L145.722 247.801L143.347 246.358ZM99.3197 271.723L58.007 247.885L99.3197 224.048L140.632 247.885L99.3197 271.723Z" fill="#171753"/>
<path d="M51.3054 233.888L65.3873 242.032L63.521 243.135L50.2026 235.415H32.6426L35.3572 233.888H51.3054Z" fill="#171753"/>
<path d="M53.4272 230.582L68.5271 239.319L66.6608 240.422L52.3244 232.109H38.4121L41.0419 230.582H53.4272Z" fill="#171753"/>
<path d="M57.4956 224.133L76.4977 235.077L74.5466 236.179L56.308 225.66H49.5215L52.2361 224.133H57.4956Z" fill="#171753"/>
<path d="M60.2992 221.418L80.489 233.125L78.5379 234.228L59.1964 223.03H54.1914L56.906 221.418H60.2992Z" fill="#171753"/>
<path d="M71.9218 212.766L74.6364 214.377V223.709L85.8341 230.241L83.9678 231.344L71.9218 224.387V215.056L69.9707 213.868L71.9218 212.766Z" fill="#171753"/>
<path d="M77.2675 209.711L79.9821 211.323V220.655L91.1798 227.102L89.2287 228.205L77.2675 221.333V211.917L75.3164 210.814L77.2675 209.711Z" fill="#171753"/>
<path d="M99.3181 196.903L100.166 197.412V200.805L84.6423 209.797V218.28L95.5855 224.558L93.7192 225.661L81.9277 218.874V209.118L97.4518 200.211V198.006L99.3181 196.903Z" fill="#171753"/>
<path d="M106.447 201.06L108.398 202.162L88.8025 213.445V216.414L99.2367 222.437L97.3704 223.54L86.0879 217.008V212.766L106.447 201.06Z" fill="#171753"/>
<path d="M56.4823 246.358L54.5312 247.461L54.0222 247.121L45.3695 242.116H37.1409L19.496 252.381L17.5449 251.278L36.0381 240.589H46.4723L55.9733 246.019L56.4823 246.358Z" fill="#171753"/>
<path d="M120.275 260.865L137.496 270.79V276.983L134.781 278.51V271.469L118.324 261.968L120.275 260.865Z" fill="#171753"/>
<path d="M124.093 258.576L143.18 269.604V273.676L140.465 275.203V270.282L122.227 259.763L124.093 258.576Z" fill="#171753"/>
<path d="M115.1 263.326L127.061 270.282V279.613L129.945 281.31L128.079 282.413L124.346 280.292V270.876L113.148 264.428L115.1 263.326Z" fill="#171753"/>
<path d="M109.757 266.379L121.803 273.335V282.666L124.687 284.363L122.821 285.466L119.088 283.345V274.014L107.891 267.482L109.757 266.379Z" fill="#171753"/>
<path d="M120.443 209.118L122.394 210.221L117.049 213.275V220.825L106.021 227.272L104.07 226.169L114.335 220.231V212.681L120.443 209.118Z" fill="#171753"/>
<path d="M123.922 224.049L112.81 230.411L110.943 229.308L121.208 223.37V214.887L125.874 212.172L127.825 213.275L123.922 215.566V224.049Z" fill="#171753"/>
<path d="M144.281 222.862L146.147 223.965L139.276 227.952H130.793L121.122 233.551L119.256 232.448L129.69 226.34H138.173L144.281 222.862Z" fill="#171753"/>
<path d="M138.43 219.468L116.289 232.277L114.338 231.174L136.564 218.365L138.43 219.468Z" fill="#171753"/>
<path d="M150.222 226.254L152.089 227.442L144.708 231.684H136.31L127.148 236.943L125.197 235.84L135.207 230.157H143.606L150.222 226.254Z" fill="#171753"/>
<path d="M157.769 230.666L159.72 231.769L154.63 234.653H142.16L132.659 240.167L130.793 239.064L141.058 233.126H153.528L157.769 230.666Z" fill="#171753"/>
<path d="M160.993 235.924L184.661 249.582L182.795 250.685L159.89 237.451H148.353L138.174 243.389L136.223 242.287L147.251 235.924H160.993Z" fill="#171753"/>
<path d="M160.059 239.657L181.013 251.703L179.061 252.806L158.872 241.184H152.34L142.754 246.783L140.803 245.68L151.237 239.657H160.059Z" fill="#171753"/>
<path d="M154.287 258.235L162.006 262.646L160.055 263.834L153.184 259.762H140.798L131.637 254.503L133.503 253.4L141.986 258.235H154.287Z" fill="#171753"/>
<path d="M159.124 254.759L167.438 259.509L165.572 260.612L158.022 256.286L145.721 256.37L136.475 251.026L138.341 249.923L146.824 254.759H159.124Z" fill="#171753"/>
<path d="M94.486 271.64L94.1467 271.81L84.0518 277.663H75.5687L69.4609 281.226L67.5098 280.123L74.4659 276.051H82.949L92.1956 270.707L92.6197 270.537L94.486 271.64Z" fill="#171753"/>
<path d="M67.678 255.182L66.4904 255.86L57.3286 261.205H44.8585L39.8535 264.089L37.9023 262.986L43.7557 259.593H56.2258L64.6241 254.757L65.8117 254.164L67.678 255.182Z" fill="#171753"/>
<path d="M61.058 251.534L60.04 252.128L49.0968 258.49H32.6396L31.3671 259.169L29.416 258.066L31.452 256.878H47.994L58.1737 251.025L59.1917 250.431L61.058 251.534Z" fill="#171753"/>
<path d="M9.08024 63.9811L9.08025 63.9811L9.08446 63.9786L112.841 3.68331C112.841 3.6833 112.841 3.68328 112.841 3.68327C114.185 2.90294 115.341 2.85916 116.138 3.30084C116.931 3.74053 117.49 4.72967 117.49 6.28646L117.49 6.28816L117.853 80.9292C117.853 80.9298 117.853 80.9304 117.853 80.9309C117.852 82.4901 117.309 84.2461 116.412 85.8183C115.515 87.3913 114.284 88.7469 112.944 89.5256L112.943 89.5256L9.18663 149.821C7.84316 150.601 6.68649 150.645 5.8898 150.203C5.09671 149.764 4.53825 148.775 4.53826 147.218L4.53825 147.216L4.08437 72.5751C4.08437 72.5747 4.08438 72.5743 4.08438 72.574C4.08462 71.0148 4.62814 69.259 5.5353 67.6876C6.44265 66.1158 7.69534 64.7603 9.08024 63.9811Z" fill="url(#paint0_linear_1280_24877)" stroke="#171753" stroke-width="0.7"/>
<path d="M103.901 99.2002H106.896V95.1139H103.901V99.2002Z" fill="#D4D0C8"/>
<path d="M8.80406 152.835H10.7366V155.482V156.09L11.2623 155.785L114.474 95.8525L114.299 95.5499L114.474 95.8525C115.815 95.0739 117.611 94.674 119.428 94.674C121.244 94.674 123.04 95.0739 124.381 95.8525L124.388 95.8571L124.397 95.8613L197.644 133.448V139.847C197.561 140.7 197.013 141.605 195.728 142.377C195.728 142.377 195.727 142.378 195.726 142.378L91.8829 202.671L92.0586 202.974L91.8828 202.671C90.5422 203.45 88.7455 203.85 86.9276 203.861C85.1115 203.872 83.3144 203.494 81.9726 202.759C81.9715 202.759 81.9704 202.758 81.9693 202.758L10.722 161.629C10.7211 161.629 10.7202 161.628 10.7193 161.628C9.4347 160.856 8.88708 159.951 8.80406 159.098V152.835Z" fill="#171753" stroke="#171753" stroke-width="0.7"/>
<path d="M104.575 95.1746L106.027 95.9671L106.574 96.2656L106.035 96.5774L30.6001 140.164L30.4248 140.266L30.2496 140.164L28.7007 139.267L10.6304 149.789L10.6227 149.794L10.6226 149.794C9.28683 150.526 8.69375 151.494 8.69375 152.404C8.69375 153.316 9.28976 154.308 10.6293 155.086L104.575 95.1746ZM104.575 95.1746L114.478 89.4033L104.575 95.1746ZM81.8883 196.221L10.6301 155.087L114.478 89.403C115.819 88.6246 117.615 88.2248 119.431 88.2248C121.247 88.2248 123.043 88.6246 124.384 89.4033L124.385 89.4038L195.644 130.539L195.65 130.543C196.986 131.276 197.579 132.243 197.579 133.153C197.579 134.066 196.983 135.057 195.643 135.836L91.7953 196.131L91.7952 196.131L91.7881 196.135C90.4489 196.956 88.6549 197.378 86.84 197.389C85.0253 197.4 83.2296 197 81.8891 196.222L81.8883 196.221Z" fill="url(#paint1_linear_1280_24877)" stroke="#171753" stroke-width="0.7"/>
<path d="M114.21 1.74685C113.756 1.47443 113.211 1.20201 112.757 0.929596C111.85 0.384758 110.488 0.475564 109.126 1.29282L5.27876 61.5882C2.46471 63.2227 0.195312 67.2182 0.195312 70.4872L0.558416 145.039C0.558416 146.674 1.10307 147.763 2.10161 148.308C3.37247 149.035 4.55255 149.761 5.73264 150.397C4.82488 149.852 4.28023 148.762 4.28023 147.128L3.82635 72.6666C3.82635 69.3975 6.09575 65.4021 8.9098 63.7675L112.757 3.38137C114.21 2.56411 115.481 2.4733 116.388 3.01814C116.298 2.92733 114.754 2.01927 114.21 1.74685Z" fill="#171753"/>
<path d="M115.571 109.444L122.833 113.621L115.389 117.98L108.127 113.803L115.571 109.444Z" fill="#171753"/>
<path d="M127.096 112.986L134.267 117.072L126.824 121.431L119.652 117.345L127.096 112.986Z" fill="#171753"/>
<path d="M137.444 107.447L145.795 112.26L150.607 114.984L153.057 116.437L140.44 123.701L133.268 119.615L137.081 117.345L128.82 112.532L137.444 107.447Z" fill="#171753"/>
<path d="M118.75 117.888L125.922 121.974L118.478 126.333L111.307 122.246L118.75 117.888Z" fill="#171753"/>
<path d="M154.695 117.346L161.866 121.523L146.525 130.513L139.354 126.336L154.695 117.346Z" fill="#171753"/>
<path d="M138.624 126.79L145.795 130.876L134.176 137.687L126.914 133.51L138.624 126.79Z" fill="#171753"/>
<path d="M115.658 129.875L122.83 134.052L115.386 138.411L108.215 134.234L115.658 129.875Z" fill="#171753"/>
<path d="M119.38 97.0039L126.551 101.181L119.108 105.54L111.846 101.363L119.38 97.0039Z" fill="#171753"/>
<path d="M110.487 102.18L117.658 106.357L110.214 110.715L103.043 106.538L110.487 102.18Z" fill="#171753"/>
<path d="M128.189 102.089L135.36 106.266L123.831 112.986L116.66 108.9L128.189 102.089Z" fill="#171753"/>
<path d="M101.588 107.357L108.85 111.534L101.407 115.893L94.1445 111.716L101.588 107.357Z" fill="#171753"/>
<path d="M92.7893 112.625L99.9606 116.711L92.517 121.069L85.3457 116.983L92.7893 112.625Z" fill="#171753"/>
<path d="M107.125 114.439L114.297 118.525L106.853 122.884L99.6816 118.707L107.125 114.439Z" fill="#171753"/>
<path d="M83.8948 117.796L91.1569 121.883L83.6225 126.241L76.4512 122.064L83.8948 117.796Z" fill="#171753"/>
<path d="M98.6878 119.341L105.859 123.518L98.4154 127.877L91.2441 123.7L98.6878 119.341Z" fill="#171753"/>
<path d="M132.272 120.159L139.534 124.336L132.09 128.694L124.828 124.517L132.272 120.159Z" fill="#171753"/>
<path d="M74.9944 122.885L82.2565 127.062L74.8128 131.421L67.5508 127.334L74.9944 122.885Z" fill="#171753"/>
<path d="M110.306 122.793L117.568 126.88L110.124 131.238L102.953 127.061L110.306 122.793Z" fill="#171753"/>
<path d="M90.1585 124.338L97.4205 128.425L89.9769 132.783L82.7148 128.697L90.1585 124.338Z" fill="#171753"/>
<path d="M123.914 125.065L131.086 129.242L123.733 133.51L116.471 129.424L123.914 125.065Z" fill="#171753"/>
<path d="M101.951 127.604L109.213 131.782L101.77 136.14L94.5078 131.963L101.951 127.604Z" fill="#171753"/>
<path d="M66.1839 128.149L73.3551 132.236L65.9115 136.594L58.7402 132.508L66.1839 128.149Z" fill="#171753"/>
<path d="M81.7112 129.241L88.8825 133.418L81.4389 137.777L74.2676 133.6L81.7112 129.241Z" fill="#171753"/>
<path d="M93.5999 132.509L100.771 136.686L93.3275 141.045L86.1562 136.867L93.5999 132.509Z" fill="#171753"/>
<path d="M57.2952 133.327L64.4665 137.413L57.0229 141.772L49.8516 137.686L57.2952 133.327Z" fill="#171753"/>
<path d="M73.2688 134.234L80.4401 138.32L72.9964 142.679L65.7344 138.593L73.2688 134.234Z" fill="#171753"/>
<path d="M106.948 134.962L114.21 139.048L106.766 143.407L99.5039 139.321L106.948 134.962Z" fill="#171753"/>
<path d="M85.2453 137.414L92.4166 141.591L84.973 145.949L77.7109 141.772L85.2453 137.414Z" fill="#171753"/>
<path d="M48.3967 138.503L55.6588 142.589L48.2152 146.948L40.9531 142.862L48.3967 138.503Z" fill="#171753"/>
<path d="M64.7327 139.137L71.9947 143.314L64.5511 147.673L57.2891 143.495L64.7327 139.137Z" fill="#171753"/>
<path d="M98.6878 139.773L105.95 143.951L98.5062 148.309L91.2441 144.132L98.6878 139.773Z" fill="#171753"/>
<path d="M76.8089 142.315L84.0709 146.492L76.6273 150.851L69.3652 146.674L76.8089 142.315Z" fill="#171753"/>
<path d="M90.3362 144.676L97.5075 148.853L90.0639 153.121L82.8926 149.034L90.3362 144.676Z" fill="#171753"/>
<path d="M36.2346 145.584L43.4059 149.761L35.9623 154.12L28.791 149.943L36.2346 145.584Z" fill="#171753"/>
<path d="M68.4573 147.22L75.7194 151.397L68.2757 155.756L61.0137 151.579L68.4573 147.22Z" fill="#171753"/>
<path d="M126.191 133.963L133.453 138.14L100.683 157.209L93.5117 153.123L126.191 133.963Z" fill="#171753"/>
<path d="M82.0735 149.49L89.2447 153.667L81.8011 158.026L74.5391 153.848L82.0735 149.49Z" fill="#171753"/>
<path d="M55.9285 144.312L63.0998 148.49L44.7631 159.205L37.5918 155.028L55.9285 144.312Z" fill="#171753"/>
<path d="M60.1036 152.124L67.2749 156.301L53.6586 164.292L46.3965 160.114L60.1036 152.124Z" fill="#171753"/>
<path d="M92.424 153.758L99.6861 157.845L87.976 164.655L80.8047 160.478L92.424 153.758Z" fill="#171753"/>
<path d="M73.5418 154.484L80.8039 158.57L62.4671 169.285L55.2051 165.199L73.5418 154.484Z" fill="#171753"/>
<path d="M79.8927 161.115L87.0639 165.201L71.269 174.463L64.0977 170.286L79.8927 161.115Z" fill="#171753"/>
<path d="M115.387 160.839C115.75 161.566 116.385 162.201 117.384 162.837L123.829 166.651C126.643 168.285 130.909 168.467 133.36 167.014L150.154 157.298C150.789 156.934 151.243 156.48 151.516 156.026C152.242 154.664 151.516 153.03 149.519 151.849L143.073 148.035C140.259 146.401 135.993 146.219 133.542 147.672L116.748 157.298C115.114 158.206 114.751 159.568 115.387 160.839Z" fill="#171753"/>
<path d="M115.387 160.839C115.75 161.565 116.385 162.201 117.384 162.837L123.829 166.651C126.643 168.285 130.909 168.467 133.36 167.014L150.154 157.297C150.789 156.934 151.243 156.48 151.516 156.026C151.152 155.3 150.517 154.664 149.518 154.028L143.073 150.215C140.259 148.58 135.993 148.398 133.542 149.851L116.748 159.477C116.113 159.931 115.659 160.385 115.387 160.839Z" fill="#BEF0ED"/>
<path d="M112.758 83.4734L10.8164 143.406V73.9387L112.758 14.0066V83.4734Z" fill="#ECFFFE"/>
<g style="mix-blend-mode:multiply">
<path d="M111.033 15.0055V82.4745L10.8164 141.408V143.406L112.758 83.4734V14.0066L111.033 15.0055Z" fill="#5ED9D1"/>
</g>
<g style="mix-blend-mode:multiply" opacity="0.3">
<path opacity="0.0909091" d="M218.689 137.959L88.1531 214.781C86.973 215.417 85.6113 214.599 85.6113 213.328V125.972C85.6113 125.337 85.9744 124.792 86.4283 124.52L216.964 47.6975C218.144 47.0618 219.506 47.8791 219.506 49.1504V136.506C219.506 137.142 219.233 137.687 218.689 137.959Z" fill="#48D093"/>
<path opacity="0.1818" d="M207.888 132.511L80.5291 207.426C79.4398 208.062 78.0781 207.244 78.0781 206.064V120.797C78.0781 120.252 78.3504 119.707 78.8951 119.435L206.254 44.4287C207.343 43.7931 208.705 44.6103 208.705 45.7908V131.058C208.705 131.694 208.432 132.238 207.888 132.511Z" fill="#48D39A"/>
<path opacity="0.2727" d="M197.086 126.973L72.9042 200.072C71.9056 200.707 70.6348 199.981 70.6348 198.8V115.622C70.6348 115.077 70.9071 114.623 71.361 114.351L195.633 41.2515C196.632 40.6158 197.903 41.3423 197.903 42.5228V125.701C197.903 126.246 197.63 126.7 197.086 126.973Z" fill="#47D5A2"/>
<path opacity="0.3636" d="M186.377 121.524L65.2821 192.807C64.3744 193.352 63.1035 192.716 63.1035 191.536V110.355C63.1035 109.81 63.3758 109.356 63.8297 109.084L184.925 37.8916C185.923 37.3467 187.103 37.9824 187.103 39.1629V120.344C187.103 120.798 186.831 121.252 186.377 121.524Z" fill="#46D7AA"/>
<path opacity="0.4545" d="M175.571 116.074L57.6533 185.45C56.7456 185.995 55.6562 185.36 55.6562 184.27V105.178C55.6562 104.724 55.9286 104.27 56.2917 103.997L174.21 34.6212C175.117 34.0764 176.207 34.7121 176.207 35.8017V114.894C176.207 115.348 176.025 115.802 175.571 116.074Z" fill="#46DAB2"/>
<path opacity="0.5455" d="M164.768 110.536L50.0274 178.095C49.2104 178.55 48.1211 178.005 48.1211 177.006V100.002C48.1211 99.548 48.3934 99.1848 48.7565 98.9124L163.588 31.3525C164.405 30.8985 165.494 31.4433 165.494 32.4422V109.537C165.404 109.991 165.222 110.354 164.768 110.536Z" fill="#45DCB9"/>
<path opacity="0.6364" d="M154.059 105.086L42.4044 170.739C41.6782 171.193 40.6797 170.648 40.6797 169.74V94.7344C40.6797 94.2804 40.8612 93.9172 41.2243 93.7356L152.879 28.0826C153.605 27.6286 154.603 28.1734 154.603 29.0815V104.087C154.603 104.542 154.422 104.905 154.059 105.086Z" fill="#45DFC1"/>
<path opacity="0.7273" d="M143.256 99.6389L34.7785 163.476C34.0523 163.93 33.1445 163.385 33.1445 162.568V89.6502C33.1445 89.2869 33.3261 88.9237 33.6892 88.7421L142.166 24.9053C142.893 24.4513 143.8 24.9961 143.8 25.8134V98.7308C143.8 99.094 143.619 99.4573 143.256 99.6389Z" fill="#44E1C9"/>
<path opacity="0.8182" d="M132.452 94.1913L27.1516 156.121C26.5162 156.484 25.6992 156.03 25.6992 155.304V84.4751C25.6992 84.1118 25.8808 83.8394 26.1531 83.6578L131.544 21.7279C132.179 21.3647 132.996 21.8187 132.996 22.5452V93.3741C132.996 93.6465 132.815 94.0097 132.452 94.1913Z" fill="#43E3D1"/>
<path opacity="0.9091" d="M121.739 88.6512L19.5257 148.765C18.981 149.128 18.1641 148.674 18.1641 148.039V79.2074C18.1641 78.935 18.3456 78.5718 18.6179 78.4809L120.832 18.3672C121.376 18.004 122.193 18.458 122.193 19.0936V87.9248C122.193 88.1972 122.012 88.4696 121.739 88.6512Z" fill="#43E6D8"/>
<path opacity="0.8" d="M110.939 83.2027L11.9027 141.41C11.3581 141.682 10.7227 141.319 10.7227 140.683V74.0313C10.7227 73.7589 10.9042 73.4864 11.0858 73.3048L110.122 15.098C110.667 14.8256 111.302 15.1888 111.302 15.7337V82.4763C111.302 82.7487 111.212 83.0211 110.939 83.2027Z" fill="#42E8E0"/>
</g>
<path d="M74.5381 73.3051C74.9012 71.489 76.1721 69.5821 77.3522 69.0372C78.5323 68.4924 79.1677 69.5821 78.7138 71.3074C78.3507 73.1235 77.0798 75.0304 75.8998 75.5753C74.8104 76.2109 74.175 75.1212 74.5381 73.3051Z" fill="#171753"/>
<path d="M85.1574 75.1207C84.8851 76.1196 84.6128 77.1184 84.2497 78.1173C82.9788 81.6587 81.1633 85.291 78.8031 88.0152C75.5352 91.829 72.2673 92.9187 69.6348 92.9187C66.5484 97.005 66.5484 97.005 66.5484 97.005C65.8222 97.9131 65.2775 97.459 65.8222 96.2785C65.096 96.9142 65.0052 96.0061 65.4591 95.0981C64.7329 96.0969 64.4605 95.1889 64.9144 94.19C65.2775 93.5544 65.7314 92.8279 66.0037 92.2831C62.9173 91.2842 60.1941 89.2865 57.2892 87.2887C59.014 88.106 65.9129 89.7405 67.5469 89.9221C69.1809 90.1037 70.8148 90.2853 72.6304 89.9221C74.0828 89.5589 75.9891 88.7416 77.7138 86.6531C79.257 84.837 80.2555 82.1128 80.891 79.9334C82.3434 75.0299 82.4342 70.308 81.7987 66.9481C81.0725 63.4067 79.1662 60.6825 76.1706 60.6825C75.0813 60.6825 73.8104 61.1365 72.5396 61.9538C69.6348 63.7699 66.4576 67.493 63.7343 71.5792C59.7402 77.6633 56.3815 84.6553 53.2043 91.5566C51.0257 96.2785 47.1223 106.994 43.0374 105.813C41.1311 105.268 40.3142 102.817 39.9511 100.274C39.4972 97.459 39.588 93.3727 41.0404 89.3773C44.1267 80.9323 50.7534 84.0197 52.932 85.2002C52.7504 85.2002 47.3947 84.2921 44.3991 88.4692C43.0374 90.3761 42.5836 92.9187 42.402 94.7348C42.0389 97.9131 42.402 102.09 44.3991 102.635C46.9408 103.271 49.8456 95.4613 51.1165 92.6463C53.2043 87.9244 55.2014 83.2024 57.38 78.4805C59.7402 73.3954 62.3727 68.2194 65.4591 63.7699C65.096 63.1343 64.6421 62.317 64.8236 61.2273C65.0052 59.956 66.1853 58.2307 66.9115 58.594C66.1853 57.2319 68.1823 54.1444 69.2717 54.5985C68.9993 53.3272 70.361 51.1478 71.2687 50.8754C71.8134 50.6938 72.2673 51.2386 72.5396 51.5111C73.4473 52.2375 74.2643 53.0548 75.1721 53.6904C85.4298 47.6972 88.7885 61.6814 85.1574 75.1207Z" fill="#171753"/>
<defs>
<linearGradient id="paint0_linear_1280_24877" x1="4.99816" y1="148.783" x2="129.519" y2="-11.3079" gradientUnits="userSpaceOnUse">
<stop stop-color="#C9D6E2"/>
<stop offset="0.2743" stop-color="#CDD9E4"/>
<stop offset="0.5421" stop-color="#D9E2EA"/>
<stop offset="0.8065" stop-color="#ECF1F5"/>
<stop offset="0.9949" stop-color="white"/>
</linearGradient>
<linearGradient id="paint1_linear_1280_24877" x1="8.33277" y1="142.789" x2="197.967" y2="142.789" gradientUnits="userSpaceOnUse">
<stop stop-color="#C9D6E2"/>
<stop offset="0.1148" stop-color="#D3DEE8"/>
<stop offset="0.4411" stop-color="#EBF0F4"/>
<stop offset="0.7429" stop-color="#FAFBFC"/>
<stop offset="0.9949" stop-color="white"/>
</linearGradient>
</defs>
</svg>
