<svg width="263" height="332" viewBox="0 0 263 332" fill="none" xmlns="http://www.w3.org/2000/svg">
<path d="M132.36 327.882C132.36 327.756 132.293 327.641 132.185 327.578L1.76865 252.338C1.66036 252.276 1.52696 252.276 1.4187 252.339C1.31044 252.401 1.24375 252.517 1.24375 252.642V256.027C1.24375 256.152 1.3105 256.268 1.41885 256.331L131.835 331.571C131.943 331.633 132.076 331.633 132.185 331.57C132.293 331.508 132.36 331.392 132.36 331.267V327.882Z" fill="#171753" stroke="#171753" stroke-width="0.7" stroke-linejoin="round"/>
<path d="M261.725 252.943C261.833 252.88 261.898 252.765 261.898 252.64C261.897 252.516 261.831 252.401 261.723 252.338L220.469 228.514L220.466 228.512L217.711 226.884L217.705 226.881L209.309 222.119L209.303 222.116L206.55 220.489L206.548 220.488L200.531 216.977L200.529 216.976L197.772 215.347L197.769 215.346L189.117 210.33L189.113 210.328L186.231 208.699L186.229 208.698L173.319 201.302L173.315 201.3L170.56 199.672L170.559 199.671L165.417 196.662L165.413 196.659L162.531 195.03L162.529 195.029L144.602 184.75L144.598 184.747L141.844 183.119L141.841 183.118L132.562 177.726C132.555 177.722 132.549 177.719 132.542 177.715L131.468 177.178C131.443 177.093 131.386 177.018 131.306 176.973C131.198 176.91 131.064 176.911 130.956 176.973L98.3521 195.909L98.3498 195.91L95.591 197.54L95.589 197.542L90.5768 200.549L90.573 200.551L87.6967 202.177L87.6936 202.179L68.6327 213.214L68.6294 213.216L64.6173 215.598L64.6166 215.598L61.8617 217.226L57.8521 219.482L57.8521 219.482L57.8481 219.484L45.3081 226.757L45.308 226.757L41.4206 229.014L41.4206 229.014L41.4163 229.017L37.0315 231.648L33.0229 233.903L33.0229 233.903L33.0182 233.905L1.4174 252.339C1.30972 252.402 1.24358 252.517 1.24375 252.642C1.24392 252.767 1.31037 252.882 1.41821 252.944L10.0708 257.96L10.0741 257.962L12.9566 259.591L12.9583 259.592L27.6284 267.993L27.6301 267.994L30.5099 269.622L30.5143 269.624L40.1657 275.265L40.1701 275.267L43.0513 276.896L43.0543 276.898L71.0127 293.071L71.0155 293.072L73.7714 294.701L73.7759 294.704L79.0383 297.711L79.0427 297.713L81.7971 299.341L81.7976 299.341L83.9294 300.595L83.9347 300.598L86.8157 302.227L86.8189 302.228L116.912 319.657L116.915 319.659L119.797 321.288L119.799 321.289L131.836 328.185C131.944 328.247 132.078 328.247 132.186 328.184L223.978 274.764L223.979 274.763L229.116 271.756L229.121 271.754L232 270.126L232.004 270.124L249.055 260.219L249.058 260.217L251.939 258.589L251.94 258.588L254.572 257.084L254.574 257.084L257.456 255.454L257.462 255.451L261.725 252.943Z" fill="#BEF0ED" stroke="#171753" stroke-width="0.7" stroke-linejoin="round"/>
<path d="M261.898 252.642C261.898 252.516 261.831 252.401 261.723 252.338C261.614 252.276 261.48 252.276 261.372 252.339L131.834 327.579C131.726 327.642 131.66 327.757 131.66 327.882V331.267C131.66 331.393 131.727 331.508 131.835 331.571C131.944 331.633 132.077 331.633 132.186 331.57L261.724 256.33C261.832 256.267 261.898 256.152 261.898 256.027V252.642Z" fill="#171753" stroke="#171753" stroke-width="0.7" stroke-linejoin="round"/>
<path d="M194.731 250.353L192.037 248.762L157.635 228.928L154.819 227.336L152.737 226.112L149.921 224.52L143.8 220.97L140.984 219.378L131.067 213.624L129.108 214.726L126.293 216.318L123.722 217.787L120.906 219.378L117.233 221.46L114.539 223.051L109.642 225.867L106.826 227.459L102.052 230.152L99.2357 231.744L96.6647 233.213L93.8488 234.805L85.646 239.579L82.9526 241.171L80.1367 242.762L77.3208 244.354L68.2611 249.619L65.4452 251.21L63.4863 252.312L71.3218 256.842L74.1377 258.433L80.7489 262.229L83.5648 263.82L91.2778 268.35L94.0937 269.942L100.215 273.492L103.031 275.084L120.661 285.245L123.354 286.837L130.945 291.244L134.495 289.163L137.311 287.572L146.249 282.43L149.064 280.838L153.962 278.022L156.655 276.431L160.695 274.104L163.389 272.513L166.205 270.921L169.02 269.33L179.549 263.208L182.243 261.617L187.385 258.678L190.201 257.087L198.159 252.434L194.731 250.353ZM131.19 286.959L71.5667 252.557L131.19 218.154L190.813 252.557L131.19 286.959Z" fill="#171753"/>
<path d="M61.8993 232.356L82.2226 244.109L79.5291 245.701L60.3077 234.56H34.9648L38.8826 232.356H61.8993Z" fill="#171753"/>
<path d="M64.961 227.582L86.7534 240.192L84.06 241.784L63.3694 229.786H43.291L47.0863 227.582H64.961Z" fill="#171753"/>
<path d="M70.8384 218.277L98.2626 234.071L95.4467 235.662L69.1244 220.481H59.3301L63.2478 218.277H70.8384Z" fill="#171753"/>
<path d="M74.8755 214.36L104.014 231.255L101.198 232.847L73.2839 216.686H66.0605L69.9783 214.36H74.8755Z" fill="#171753"/>
<path d="M91.6479 201.872L95.5656 204.198V217.665L111.726 227.092L109.033 228.684L91.6479 218.645V205.177L88.832 203.463L91.6479 201.872Z" fill="#171753"/>
<path d="M99.3647 197.463L103.282 199.79V213.257L119.443 222.561L116.627 224.153L99.3647 214.236V200.647L96.5488 199.055L99.3647 197.463Z" fill="#171753"/>
<path d="M131.192 178.977L132.416 179.712V184.609L110.011 197.586V209.829L125.805 218.889L123.111 220.481L106.094 210.686V196.607L128.498 183.752V180.569L131.192 178.977Z" fill="#171753"/>
<path d="M141.477 184.977L144.293 186.568L116.011 202.851V207.137L131.07 215.829L128.377 217.421L112.094 207.994V201.872L141.477 184.977Z" fill="#171753"/>
<path d="M69.367 250.353L66.5511 251.945L65.8165 251.455L53.3287 244.232H41.4531L15.9878 259.046L13.1719 257.454L39.8615 242.028H54.9203L68.6324 249.863L69.367 250.353Z" fill="#171753"/>
<path d="M161.435 271.289L186.288 285.613V294.551L182.37 296.754V286.593L158.619 272.881L161.435 271.289Z" fill="#171753"/>
<path d="M166.941 267.984L194.488 283.899V289.776L190.57 291.98V284.879L164.248 269.698L166.941 267.984Z" fill="#171753"/>
<path d="M153.966 274.84L171.229 284.879V298.346L175.391 300.795L172.698 302.386L167.311 299.326V285.736L151.15 276.431L153.966 274.84Z" fill="#171753"/>
<path d="M146.252 279.247L163.637 289.286V302.754L167.8 305.202L165.106 306.794L159.719 303.733V290.266L143.559 280.839L146.252 279.247Z" fill="#171753"/>
<path d="M150.783 295.407V301.529L120.298 319.281L117.482 317.689L146.988 300.672V296.386L134.867 289.408L131.807 287.572L134.623 285.98L137.561 287.816L150.783 295.407Z" fill="#171753"/>
<path d="M161.678 196.607L164.494 198.198L156.781 202.606V213.502L140.865 222.807L138.049 221.215L152.863 212.645V201.749L161.678 196.607Z" fill="#171753"/>
<path d="M166.697 218.155L150.658 227.337L147.965 225.745L162.779 217.175V204.932L169.512 201.014L172.328 202.606L166.697 205.912V218.155Z" fill="#171753"/>
<path d="M196.083 216.441L198.777 218.033L188.86 223.787H176.617L162.66 231.867L159.967 230.276L175.026 221.461H187.269L196.083 216.441Z" fill="#171753"/>
<path d="M187.633 211.544L155.679 230.031L152.863 228.439L184.94 209.952L187.633 211.544Z" fill="#171753"/>
<path d="M204.652 221.337L207.345 223.051L196.694 229.173H184.573L171.351 236.764L168.535 235.172L182.982 226.969H195.102L204.652 221.337Z" fill="#171753"/>
<path d="M215.55 227.705L218.366 229.297L211.02 233.459H193.023L179.311 241.417L176.617 239.826L191.431 231.256H209.428L215.55 227.705Z" fill="#171753"/>
<path d="M220.201 235.294L254.358 255.005L251.665 256.597L218.609 237.498H201.959L187.267 246.068L184.451 244.476L200.367 235.294H220.201Z" fill="#171753"/>
<path d="M218.856 240.681L249.096 258.066L246.28 259.658L217.142 242.885H207.715L193.88 250.965L191.064 249.374L206.123 240.681H218.856Z" fill="#171753"/>
<path d="M210.529 267.494L221.67 273.86L218.854 275.574L208.937 269.697H191.062L177.84 262.107L180.533 260.515L192.776 267.494H210.529Z" fill="#171753"/>
<path d="M217.507 262.475L229.505 269.331L226.812 270.923L215.915 264.679L198.163 264.801L184.818 257.088L187.512 255.497L199.755 262.475H217.507Z" fill="#171753"/>
<path d="M104.747 274.472L103.278 275.329L89.9329 283.043V293.939L83.1993 297.856L80.5059 296.265L86.0152 292.959V282.063L100.462 273.738L102.053 272.881L104.747 274.472Z" fill="#171753"/>
<path d="M95.9335 269.331L94.3419 270.188L81.1195 277.901V290.021L75.3653 293.327L72.6719 291.735L77.2018 289.164V276.921L91.6484 268.596L93.1176 267.739L95.9335 269.331Z" fill="#171753"/>
<path d="M124.214 286.839L123.724 287.084L109.155 295.531H96.912L88.0971 300.673L85.2812 299.082L95.3205 293.205H107.563L120.908 285.492L121.52 285.247L124.214 286.839Z" fill="#171753"/>
<path d="M85.5274 263.087L83.8134 264.066L70.591 271.779H52.5939L45.3706 275.942L42.5547 274.35L51.0023 269.453H68.9994L81.12 262.475L82.834 261.618L85.5274 263.087Z" fill="#171753"/>
<path d="M75.9767 257.822L74.5076 258.679L58.7142 267.861H34.9629L33.1264 268.84L30.3105 267.249L33.2489 265.535H57.1226L71.8141 257.087L73.2833 256.23L75.9767 257.822Z" fill="#171753"/>
<path d="M166.116 249.382V253.771C166.116 254.523 165.615 255.276 164.611 255.903V251.514C165.615 250.887 166.116 250.134 166.116 249.382Z" fill="#49CE8B"/>
<path d="M166.116 249.383V253.772C166.116 254.524 165.615 255.276 164.611 255.903V251.514C165.615 250.887 166.116 250.135 166.116 249.383Z" fill="#49CE8B"/>
<path d="M97.0195 253.771V249.382C97.0195 250.134 97.5211 250.887 98.5243 251.514V255.903C97.5211 255.276 97.0195 254.523 97.0195 253.771Z" fill="#49CE8B"/>
<path d="M98.6516 251.514V255.903C97.6484 255.276 97.1468 254.524 97.1468 253.772V249.383C97.0214 250.135 97.6484 250.887 98.6516 251.514Z" fill="#49CE8B"/>
<path d="M164.611 251.514V255.903L135.393 272.832V268.569L164.611 251.514Z" fill="#49CE8B"/>
<path d="M127.996 268.569V272.832L98.6523 255.903V251.514L127.996 268.569Z" fill="#49CE8B"/>
<path d="M135.387 268.568V272.957C133.38 274.085 130.12 274.085 127.988 272.957V268.568C130.12 269.696 133.38 269.696 135.387 268.568Z" fill="#49CE8B"/>
<path d="M164.61 247.25C166.617 248.379 166.617 250.385 164.61 251.514L135.392 268.568C133.386 269.697 130.125 269.697 127.993 268.568L98.5243 251.514C96.5179 250.385 96.5179 248.379 98.5243 247.25L127.743 230.196C129.749 229.067 133.009 229.067 135.141 230.196L164.61 247.25Z" fill="#171753"/>
<path d="M166.114 245.368V247.876C166.114 248.629 165.613 249.381 164.609 250.008V247.5C165.613 246.873 166.114 246.121 166.114 245.368Z" fill="#171753"/>
<path d="M166.114 245.368V247.876C166.114 248.628 165.613 249.381 164.609 250.008V247.5C165.613 246.873 166.114 246.12 166.114 245.368Z" fill="#171753"/>
<path d="M97.0234 247.876V245.368C97.0234 246.121 97.525 246.873 98.5282 247.5V250.008C97.525 249.381 97.0234 248.629 97.0234 247.876Z" fill="#171753"/>
<path d="M98.6564 247.5V250.008C97.6532 249.381 97.1516 248.628 97.1516 247.876V245.368C97.0262 246.12 97.5278 246.873 98.6564 247.5Z" fill="#171753"/>
<path d="M164.613 247.5V250.008L135.395 266.937V264.554L164.613 247.5Z" fill="#171753"/>
<path d="M127.992 264.554V266.937L98.6484 250.008V247.5L127.992 264.554Z" fill="#171753"/>
<path d="M135.393 264.555V267.063C133.386 268.191 130.126 268.191 127.994 267.063V264.555C130.126 265.683 133.386 265.683 135.393 264.555Z" fill="#171753"/>
<path d="M164.614 243.236C166.62 244.365 166.62 246.371 164.614 247.5L135.396 264.554C133.389 265.683 130.129 265.683 127.997 264.554L98.5282 247.5C96.5218 246.371 96.5218 244.365 98.5282 243.236L127.746 226.182C129.753 225.053 133.013 225.053 135.145 226.182L164.614 243.236Z" fill="#49CE8B"/>
<path d="M190.654 96.3633C190.654 96.3633 195.869 97.3166 195.869 104.351V120.24H189.295L190.654 96.3633Z" fill="#171753" stroke="#171753" stroke-width="0.25" stroke-miterlimit="10"/>
<path d="M193.963 100.723C193.361 100.03 192.641 99.4475 191.837 99.0031L168.826 85.7007L170.481 82.8188L193.492 96.1322C194.637 96.7688 195.661 97.6036 196.516 98.5977L193.963 100.723Z" fill="#BEF0ED"/>
<path d="M182.054 57.3546L96.3112 7.83766C91.8418 5.52411 86.7739 4.62595 81.7816 5.26264C79.1714 5.50502 76.6238 6.2022 74.2539 7.32266C71.7556 8.56085 70.0681 10.1825 69.5202 11.8919C68.797 14.1601 70.2761 16.6146 73.4647 18.4664L159.262 67.9834C161.564 69.3214 163.475 71.2398 164.803 73.5471C166.132 75.8544 166.832 78.4699 166.834 81.1324V151.206L164.248 149.54L162.352 157.594L183.226 169.647L183.785 169.965C184.154 170.174 184.571 170.283 184.996 170.28C185.42 170.277 185.836 170.163 186.202 169.949C186.568 169.735 186.872 169.428 187.082 169.06C187.292 168.691 187.402 168.274 187.401 167.85V66.6575C187.4 64.7748 186.907 62.9251 185.968 61.2929C185.03 59.6606 183.68 58.3027 182.054 57.3546Z" fill="#171753" stroke="#171753" stroke-width="0.25" stroke-miterlimit="10"/>
<path d="M176.234 166.885V65.3744L82.2954 14.1919L79.8848 15.8026L167.895 165.296L173.451 168.495L176.234 166.885Z" fill="#171753" stroke="#171753" stroke-width="0.7" stroke-miterlimit="10"/>
<path d="M170.877 68.4661V169.987L168.082 171.598L76.7188 118.849V15.0044L170.877 68.4661Z" fill="#171753" stroke="#171753" stroke-width="0.25" stroke-miterlimit="10"/>
<path d="M74.856 113.061C76.1159 112.363 77.4763 111.864 78.8886 111.582C79.3378 112.283 79.7651 113.006 80.1486 113.773C79.266 113.948 78.4157 114.258 77.6283 114.694C76.1491 115.559 75.437 116.743 75.6123 117.981C75.7474 118.506 75.9946 118.995 76.337 119.415C76.6794 119.835 77.1086 120.176 77.5954 120.414L167.228 172.155L164.445 173.766L74.8122 122.024C74.048 121.655 73.3738 121.124 72.8363 120.467C72.2988 119.81 71.9111 119.044 71.7004 118.222C71.3826 116.261 72.533 114.409 74.856 113.061Z" fill="#42E8E0" stroke="#171753" stroke-width="0.25" stroke-miterlimit="10"/>
<path d="M72.0043 116.997V15.7457L79.4747 21.893L79.4989 21.9129L79.5263 21.9282L166.887 70.7752V171.889L164.447 173.295L72.0043 116.997Z" fill="#42E8E0" stroke="#171753" stroke-width="0.7" stroke-miterlimit="10"/>
<path d="M164.444 72.1792L167.227 70.5684L77.5945 18.8161C77.1089 18.5793 76.6803 18.2402 76.338 17.8223C75.9957 17.4043 75.7479 16.9172 75.6114 16.3945C75.4142 15.1892 76.1481 14.0058 77.6274 13.1072C79.354 12.1966 81.3021 11.7903 83.2488 11.9348C84.7159 12.001 86.1495 12.3941 87.4453 13.0853L177.078 64.8376L179.872 63.2269L90.2395 11.4745C88.213 10.3837 85.9646 9.76918 83.665 9.67753C80.6291 9.45147 77.5909 10.0857 74.899 11.5074C72.576 12.8442 71.4256 14.6961 71.7434 16.5807C71.954 17.4028 72.3415 18.169 72.879 18.8258C73.4165 19.4825 74.0909 20.014 74.8551 20.383L164.444 72.1792Z" fill="#BEF0ED" stroke="#171753" stroke-width="0.7" stroke-miterlimit="10"/>
<path d="M168.08 70.0757L170.863 68.4649L81.1757 16.6797C81.0467 16.6206 80.9331 16.5326 80.8437 16.4223C80.7544 16.3121 80.6918 16.1827 80.6608 16.0442C80.6511 15.8666 80.6964 15.6903 80.7905 15.5393C80.8846 15.3883 81.0229 15.27 81.1867 15.2005C81.6357 14.9572 82.1462 14.8506 82.6551 14.8937C83.0395 14.9075 83.4151 15.0126 83.7508 15.2005L173.438 66.9747L176.232 65.3639L86.5451 13.5897C85.4706 13.0125 84.279 12.6866 83.0604 12.6364C81.4517 12.5123 79.8408 12.8466 78.4144 13.6007C77.8896 13.817 77.4457 14.1922 77.145 14.6737C76.8444 15.1552 76.7019 15.7187 76.7379 16.2853C76.8516 16.718 77.0575 17.1211 77.3411 17.4672C77.6248 17.8132 77.9795 18.094 78.3815 18.2905L168.08 70.0757Z" fill="#BEF0ED" stroke="#171753" stroke-width="0.7" stroke-miterlimit="10"/>
<path d="M191.848 66.6463V165.779C191.848 167.839 190.752 168.606 188.977 169.625C188.112 170.135 187.126 170.404 186.123 170.404C185.119 170.404 184.133 170.135 183.268 169.625L173.778 164.59L173.756 159.495L185.492 165.812C185.684 165.932 185.907 165.996 186.133 165.996C186.36 165.996 186.582 165.932 186.774 165.812C186.97 165.702 187.133 165.543 187.248 165.351C187.363 165.159 187.426 164.94 187.432 164.716V66.6463C187.428 64.7657 186.932 62.9189 185.992 61.2904C185.051 59.6618 183.701 58.3083 182.074 57.3652L96.3092 7.8373C91.8372 5.53148 86.7707 4.63739 81.7796 5.27324C79.1624 5.49648 76.6079 6.19451 74.2409 7.33323H74.1974C71.6676 8.61328 70.0317 10.187 69.4854 11.8915C68.7622 14.1597 70.2416 16.6142 73.4302 18.466L159.227 67.983C161.528 69.32 163.437 71.2367 164.766 73.5419C166.094 75.8472 166.795 78.4604 166.799 81.121V179.103C166.799 182.494 165.934 182.968 164.445 183.785C164.284 183.873 164.115 183.966 163.939 184.067C163.068 184.576 162.077 184.845 161.068 184.845C160.059 184.845 159.068 184.576 158.197 184.067L116.8 160.169C117.019 158.58 117.205 156.98 117.381 155.38L160.422 180.232C160.618 180.353 160.843 180.417 161.074 180.417C161.304 180.417 161.53 180.353 161.726 180.232C161.921 180.123 162.084 179.964 162.197 179.771C162.311 179.579 162.371 179.36 162.372 179.136V81.121C162.372 79.2372 161.875 77.3865 160.933 75.7554C159.99 74.1242 158.635 72.7701 157.003 71.8291L71.2277 22.2902C69.6451 21.411 68.2403 20.2441 67.0857 18.8495C66.0973 17.7364 65.4118 16.3877 65.0952 14.9332C64.7785 13.4786 64.8413 11.967 65.2776 10.5438C66.2021 7.6614 68.5844 5.20009 72.1776 3.40637L72.2027 3.36661C75.0452 2.02427 78.0942 1.1722 81.2207 0.8464C87.1698 0.125791 93.1972 1.23419 98.5007 4.02407L184.309 53.552C186.595 54.8919 188.492 56.804 189.814 59.1001C191.136 61.3961 191.836 63.9969 191.848 66.6463Z" fill="#BEF0ED" stroke="#171753" stroke-width="0.7" stroke-miterlimit="10"/>
<path d="M177.088 64.8822V166.404L179.871 164.793V63.2715L177.088 64.8822Z" fill="#42E8E0" stroke="#171753" stroke-width="0.7" stroke-miterlimit="10"/>
<path d="M173.801 67.0744V168.596L176.584 166.985V65.4636L173.801 67.0744Z" fill="#42E8E0" stroke="#171753" stroke-width="0.7" stroke-miterlimit="10"/>
<path d="M168.322 70.2843V171.882L171.105 170.272V68.6736L168.322 70.2843Z" fill="#42E8E0" stroke="#171753" stroke-width="0.7" stroke-miterlimit="10"/>
<path d="M157.003 71.8288L71.228 22.2899C70.5134 21.8798 69.8319 21.4145 69.1898 20.8983C68.872 20.6463 68.5761 20.3833 68.2912 20.1203L68.0502 19.9012C67.7073 19.5553 67.3855 19.1894 67.086 18.8054C65.8061 17.3096 65.0382 15.4436 64.8945 13.4801V13.4253V124.973C65.0479 128.337 67.2943 131.547 71.228 133.848L158.263 184.089C161.211 185.699 162.372 183.628 162.372 181.513V81.1208C162.372 79.2369 161.876 77.3863 160.933 75.7551C159.991 74.124 158.635 72.7698 157.003 71.8288Z" fill="#171753" stroke="#171753" stroke-width="0.7" stroke-miterlimit="10"/>
<path d="M159.214 183.463C158.824 183.42 158.449 183.289 158.118 183.08L71.1044 132.851C67.7075 130.878 65.6803 128.106 65.5488 125.246V124.698V20.7554L66.0857 21.3142C66.6665 21.8511 66.9954 22.147 67.346 22.41C68.0363 22.9732 68.769 23.4824 69.5375 23.9331L155.313 73.461C156.706 74.2679 157.863 75.4262 158.669 76.8202C159.475 78.2142 159.9 79.7951 159.904 81.4052V181.864C159.922 182.334 159.821 182.802 159.608 183.222C159.477 183.441 159.367 183.463 159.225 183.463H159.214Z" fill="#171753" stroke="#171753" stroke-width="0.25" stroke-miterlimit="10"/>
<path d="M196.554 104.737L194.928 108.467C194.501 108.781 194.058 109.073 193.602 109.341L178.119 118.367C172.465 121.685 163.567 121.685 157.869 118.367L117.447 94.8182L115.102 93.4245C114.28 92.9378 113.327 92.783 112.735 93.8338C112.735 93.8891 112.669 93.9776 112.637 94.0439C112.568 94.2137 112.51 94.3872 112.461 94.5638C112.321 94.9998 112.247 95.4548 112.242 95.9132V96.6543V116.564C112.245 118.212 112.675 119.831 113.49 121.26C114.305 122.688 115.477 123.876 116.888 124.705L157.869 148.597C160.997 150.288 164.501 151.145 168.049 151.085C171.558 151.148 175.024 150.302 178.119 148.63L193.602 139.604C194.752 139.031 195.761 138.205 196.554 137.187C197.347 136.169 197.903 134.984 198.182 133.72C198.226 133.397 198.248 133.072 198.248 132.746V102.882L196.554 104.737ZM112.33 95.2275C112.33 95.3602 112.33 95.515 112.33 95.6699C112.253 95.5482 112.264 95.3602 112.286 95.2275H112.33ZM112.461 94.5195C112.461 94.6744 112.384 94.8403 112.363 95.0173C112.341 94.8403 112.385 94.6744 112.417 94.5195H112.461Z" fill="#171753"/>
<path d="M112.242 96.6543V95.9132C112.247 95.4548 112.321 94.9998 112.461 94.5638C112.51 94.3872 112.568 94.2137 112.637 94.0439C112.669 93.9776 112.735 93.8891 112.735 93.8338C113.327 92.783 114.28 92.9378 115.102 93.4245L117.447 94.8182L157.869 118.367C163.567 121.685 172.465 121.685 178.119 118.367L193.602 109.341C194.058 109.073 194.501 108.781 194.928 108.467L196.554 104.737L198.248 102.882V132.746C198.248 133.072 198.226 133.397 198.182 133.72C197.903 134.984 197.347 136.169 196.554 137.187C195.761 138.205 194.752 139.031 193.602 139.604L178.119 148.63C175.024 150.302 171.558 151.148 168.049 151.085C164.501 151.145 160.997 150.288 157.869 148.597L116.888 124.705C115.477 123.876 114.305 122.688 113.49 121.26C112.675 119.831 112.245 118.212 112.242 116.564V96.6543ZM112.242 96.6543C112.242 96.3778 112.242 96.1344 112.242 95.8911M112.33 95.2275C112.33 95.3602 112.33 95.515 112.33 95.6699C112.253 95.5482 112.264 95.3602 112.286 95.2275H112.33ZM112.461 94.5195C112.461 94.6744 112.384 94.8403 112.363 95.0173C112.341 94.8403 112.385 94.6744 112.417 94.5195H112.461Z" stroke="#BEF0ED" stroke-width="0.7" stroke-miterlimit="10"/>
<path d="M198.212 103.254C198.204 103.515 198.178 103.775 198.136 104.032C197.698 105.99 196.546 107.713 194.903 108.865C194.476 109.176 194.034 109.465 193.577 109.73L178.094 118.672C172.44 121.959 163.543 121.959 157.845 118.672L117.423 95.3431L115.078 93.9624C114.256 93.4803 113.303 93.3269 112.711 94.3678C113.103 93.568 113.73 92.9067 114.508 92.4721C115.202 92.0636 115.993 91.8481 116.798 91.8481C117.603 91.8481 118.394 92.0636 119.088 92.4721L159.488 115.79C164.091 118.452 171.849 118.463 176.407 115.79L191.89 106.859C192.595 106.533 193.222 106.06 193.73 105.473C194.238 104.885 194.616 104.196 194.837 103.452C194.904 102.959 194.861 102.457 194.709 101.983C194.557 101.509 194.302 101.075 193.961 100.712L196.514 98.5974C197.649 99.8787 198.256 101.543 198.212 103.254Z" fill="#BEF0ED"/>
<path d="M130.004 116.963C129.881 114.975 129.288 113.045 128.275 111.331C127.261 109.617 125.856 108.167 124.174 107.101C123.604 106.7 122.939 106.456 122.245 106.393C121.551 106.329 120.852 106.449 120.219 106.739H120.142L118.356 107.769L118.455 107.923C117.788 108.83 117.466 109.944 117.545 111.067C117.671 113.054 118.265 114.983 119.278 116.697C120.291 118.411 121.695 119.861 123.375 120.929C124.319 121.527 125.448 121.761 126.552 121.587L126.629 121.696L128.174 120.809C128.295 120.746 128.412 120.676 128.525 120.6C129.046 120.158 129.453 119.596 129.711 118.963C129.968 118.33 130.069 117.643 130.004 116.963Z" fill="#BEF0ED"/>
<path d="M128.328 117.917C128.328 121.599 125.841 123.144 122.663 121.379C120.984 120.311 119.58 118.861 118.567 117.147C117.554 115.433 116.96 113.505 116.834 111.518C116.834 107.836 119.321 106.28 122.499 108.055C124.181 109.121 125.586 110.571 126.599 112.285C127.612 113.999 128.205 115.929 128.328 117.917Z" fill="#42E8E0" stroke="#171753" stroke-width="0.7" stroke-miterlimit="10"/>
<g style="mix-blend-mode:overlay" opacity="0.6">
<path opacity="0.0909091" d="M184.803 61.1887C214.409 78.2945 214.588 105.987 185.162 123.092C155.735 140.198 107.947 140.198 78.3406 123.092C48.7345 105.987 48.5551 78.2945 77.9817 61.1887C107.408 44.1428 155.197 44.1428 184.803 61.1887Z" fill="#BEF0ED"/>
<path opacity="0.1818" d="M183.965 75.8423C213.092 92.649 213.272 119.922 184.323 136.729C155.375 153.536 108.305 153.536 79.177 136.729C50.0495 119.922 49.87 92.649 78.8182 75.8423C107.766 59.0356 154.837 59.0356 183.965 75.8423Z" fill="#BEF0ED"/>
<path opacity="0.2727" d="M183.126 90.4961C211.775 107.064 211.955 133.859 183.485 150.426C155.016 166.993 108.663 166.993 80.0135 150.426C51.3644 133.859 51.185 107.064 79.6546 90.4961C108.124 73.9287 154.477 73.9287 183.126 90.4961Z" fill="#BEF0ED"/>
<path opacity="0.3636" d="M182.289 105.149C210.519 121.417 210.639 147.854 182.648 164.122C154.597 180.39 109.021 180.39 80.8508 164.122C52.6204 147.854 52.5008 121.417 80.4919 105.149C108.543 88.8807 154.118 88.8807 182.289 105.149Z" fill="#BEF0ED"/>
<path opacity="0.4545" d="M181.45 119.803C209.202 135.832 209.322 161.79 181.749 177.819C154.177 193.848 109.379 193.848 81.627 177.819C53.875 161.79 53.7554 135.832 81.3279 119.803C108.9 103.774 153.758 103.774 181.45 119.803Z" fill="#BEF0ED"/>
<path opacity="0.5455" d="M180.614 134.396C207.887 150.127 208.007 175.665 180.913 191.455C153.819 207.185 109.739 207.185 82.4654 191.455C55.1919 175.725 55.0723 150.186 82.1663 134.396C109.26 118.666 153.34 118.666 180.614 134.396Z" fill="#BEF0ED"/>
<path opacity="0.6364" d="M179.778 149.049C206.573 164.54 206.752 189.601 180.077 205.091C153.461 220.582 110.099 220.582 83.3038 205.091C56.5088 189.66 56.3892 164.54 83.0047 149.049C109.68 133.558 152.983 133.558 179.778 149.049Z" fill="#BEF0ED"/>
<path opacity="0.7273" d="M178.937 163.703C205.314 178.895 205.433 203.597 179.237 218.789C153.04 233.98 110.455 233.98 84.1383 218.789C57.8218 203.597 57.7022 178.895 83.8392 163.703C110.036 148.512 152.621 148.512 178.937 163.703Z" fill="#BEF0ED"/>
<path opacity="0.8182" d="M178.103 178.357C204.001 193.31 204.121 217.533 178.402 232.486C152.684 247.438 110.876 247.438 84.9786 232.486C59.0808 217.533 58.9611 193.31 84.6795 178.357C110.398 163.405 152.265 163.405 178.103 178.357Z" fill="#BEF0ED"/>
<path opacity="0.9091" d="M177.323 192.951C202.743 207.604 202.862 231.409 177.622 246.122C152.383 260.775 111.293 260.775 85.8736 246.122C60.4543 231.468 60.3347 207.664 85.5746 192.951C110.814 178.297 151.904 178.297 177.323 192.951Z" fill="#BEF0ED"/>
<path opacity="0.7" d="M176.485 207.605C201.426 222.019 201.546 245.345 176.784 259.759C151.963 274.174 111.651 274.174 86.7101 259.759C61.7692 245.345 61.6496 222.019 86.411 207.605C111.172 193.191 151.485 193.191 176.485 207.605Z" fill="#BEF0ED"/>
</g>
</svg>
