<svg width="39" height="53" viewBox="0 0 39 53" fill="none" xmlns="http://www.w3.org/2000/svg">
<path fill-rule="evenodd" clip-rule="evenodd" d="M0.665908 53V40.9242C0.665908 38.6342 1.04654 36.5647 1.85093 34.7498L1.85796 34.7339C2.71171 32.8705 4.00943 31.2559 5.71475 29.8878L5.72958 29.8759C7.4508 28.5334 9.63015 27.3198 12.2356 26.2196C12.2357 26.2196 12.2354 26.2197 12.2356 26.2196L19.6302 23.0797C21.4155 22.3303 22.5488 21.4959 23.19 20.6498L23.2005 20.636L23.2112 20.6225C23.8672 19.8003 24.239 18.7218 24.239 17.2845C24.239 16.0825 23.8435 15.1269 23.0472 14.3283L23.0268 14.3079L23.0072 14.2865C22.3267 13.5447 21.2419 13.0664 19.5 13.0664C17.7188 13.0664 16.6234 13.5633 15.9443 14.3332L15.9354 14.3433L15.9262 14.3533C15.1986 15.1465 14.761 16.2906 14.761 17.9523V19.3436H0V17.9523C0 14.5412 0.734196 11.4549 2.23788 8.73087C3.75205 5.98787 5.974 3.84335 8.85853 2.30059L8.8669 2.29612C11.8233 0.740846 15.388 0 19.5 0C23.5577 0 27.0714 0.715097 29.98 2.21903C32.8941 3.6588 35.1455 5.67823 36.6714 8.28809C38.232 10.8368 39 13.7153 39 16.8839V17.6852C39 21.7323 37.9018 25.1833 35.6137 27.9268C33.3767 30.609 29.872 32.9206 25.2436 34.9228L25.235 34.9265L17.8361 38.0681C16.8791 38.468 16.268 38.8634 15.9095 39.2137C15.8348 39.2994 15.766 39.4032 15.7095 39.533H38.8668V53H0.665908ZM14.1727 40.9242V40.39C14.1727 40.0832 14.2017 39.7975 14.2597 39.533C14.37 39.0298 14.5852 38.6032 14.9052 38.253C15.438 37.7188 16.2371 37.2291 17.3025 36.7839L24.6941 33.6453C29.2223 31.6865 32.5074 29.4828 34.5495 27.0342C36.5916 24.5857 37.6127 21.4693 37.6127 17.6852V16.8839C37.6127 13.9456 36.9024 11.319 35.4818 9.00399C34.1056 6.64448 32.0635 4.79693 29.3554 3.46136C26.6918 2.08127 23.4067 1.39122 19.5 1.39122C15.5489 1.39122 12.2194 2.10353 9.51138 3.52814C6.84775 4.95275 4.82783 6.91159 3.45162 9.40466C2.27782 11.531 1.60461 13.9165 1.43196 16.5611C1.40219 17.0171 1.38731 17.4809 1.38731 17.9523H13.3736C13.3736 16.038 13.8842 14.5244 14.9052 13.4114C15.9263 12.2539 17.4579 11.6751 19.5 11.6751C21.4977 11.6751 23.0071 12.2316 24.0282 13.3446C25.0936 14.4131 25.6264 15.7264 25.6264 17.2845C25.6264 18.9763 25.1824 20.3786 24.2945 21.4916C23.4511 22.6046 22.0748 23.5617 20.1659 24.3631L12.7743 27.5017C10.2439 28.5701 8.17957 29.7276 6.58139 30.9742C5.0276 32.2207 3.87336 33.6676 3.11867 35.3148C2.40837 36.9175 2.05322 38.7873 2.05322 40.9242V51.6088H37.4795V40.9242H14.1727Z" fill="#BEF0ED"/>
</svg>
