<svg width="41" height="54" viewBox="0 0 41 54" fill="none" xmlns="http://www.w3.org/2000/svg">
<path fill-rule="evenodd" clip-rule="evenodd" d="M9.75069 51.7355C6.67337 50.1799 4.2457 48.0627 2.52012 45.3712L2.51194 45.3585L2.50403 45.3455C0.826082 42.6015 0 39.4965 0 36.072V34.6509H14.9561V36.072C14.9561 37.4708 15.4152 38.5361 16.3165 39.3848C17.1943 40.1679 18.5243 40.6535 20.5 40.6535C21.8065 40.6535 22.8237 40.4152 23.6076 40.0069C24.427 39.5344 25.0134 38.945 25.4126 38.2439C25.8267 37.4713 26.0439 36.5981 26.0439 35.5945C26.0439 34.0762 25.564 32.9014 24.6339 31.961L24.6245 31.9516L24.6153 31.9419C23.7904 31.0759 22.4996 30.5356 20.5 30.5356C19.3454 30.5356 18.3571 30.7158 17.5137 31.0478C16.6554 31.4039 15.9409 31.8469 15.3532 32.3667L14.0889 33.4851L6.90497 21.4099L19.2386 13.7558H2.09161V0H39.1783V13.0654L28.2952 19.7588C29.3239 20.0366 30.3065 20.3774 31.2419 20.7827C34.2903 22.1035 36.696 24.0392 38.3936 26.6076C40.1506 29.1513 41 32.1701 41 35.5945V36.4131C41 39.8032 40.1457 42.8713 38.4141 45.5732C36.7276 48.2298 34.3133 50.3034 31.2334 51.8116L31.225 51.8157C28.1618 53.2903 24.5721 54 20.5 54C16.4632 54 12.8722 53.2641 9.76656 51.7433L9.75069 51.7355ZM37.2329 44.8029C38.8072 42.3474 39.5944 39.5507 39.5944 36.4131V35.5945C39.5944 32.4114 38.8072 29.6829 37.2329 27.4093C35.7035 25.0901 33.5219 23.3166 30.6882 22.0888C29.4231 21.5407 28.0549 21.1149 26.5836 20.8115C25.8926 20.669 25.1789 20.5535 24.4425 20.465L37.7726 12.2665V1.42105H3.49726V12.3347H21.8494L22.4567 13.4261L8.82761 21.8841L14.4276 31.2973C14.7755 30.9895 15.155 30.7083 15.566 30.4536C16.0052 30.1816 16.4803 29.9398 16.9915 29.7284C18.0261 29.3192 19.1956 29.1145 20.5 29.1145C22.749 29.1145 24.4583 29.7284 25.6278 30.9562C26.8423 32.184 27.4495 33.7301 27.4495 35.5945C27.4495 36.8223 27.1796 37.9364 26.6399 38.9368C26.1001 39.8918 25.3129 40.6648 24.2784 41.256C23.2438 41.8017 21.9844 42.0745 20.5 42.0745C18.2959 42.0745 16.5867 41.5288 15.3722 40.4375C14.1577 39.3006 13.5505 37.8455 13.5505 36.072H1.40565C1.40565 36.5535 1.42315 37.0272 1.45814 37.493C1.65448 40.1072 2.40165 42.4756 3.69967 44.5983C5.274 47.0539 7.50055 49.0093 10.3793 50.4644C13.2581 51.8741 16.6317 52.5789 20.5 52.5789C24.4133 52.5789 27.7869 51.8968 30.6207 50.5326C33.4995 49.1229 35.7035 47.2131 37.2329 44.8029Z" fill="#BEF0ED"/>
</svg>
