<svg width="55" height="90" viewBox="0 0 55 90" fill="none" xmlns="http://www.w3.org/2000/svg">
<g clip-path="url(#clip0_942_25014)">
<mask id="mask0_942_25014" style="mask-type:luminance" maskUnits="userSpaceOnUse" x="0" y="0" width="55" height="90">
<path d="M55 0H0V90H55V0Z" fill="white"/>
</mask>
<g mask="url(#mask0_942_25014)">
<g opacity="0.8">
<path d="M27.5258 88.0742L30.7046 86.235C29.5344 86.9117 29.0628 88.0742 29.0279 88.1609L25.8491 90.0001C25.8841 89.896 26.3556 88.7509 27.5258 88.0742Z" fill="#171753"/>
<path d="M5.18738 50.6306L8.36616 48.7914C8.05178 48.9649 8.05178 49.711 8.66308 51.4808C10.3747 56.3564 17.7453 65.0667 21.221 67.062C21.8847 67.4438 22.3912 67.5826 22.7056 67.3917L19.5268 69.2309C19.2125 69.4044 18.706 69.283 18.0422 68.9012C14.584 66.9059 7.19595 58.1956 5.4843 53.32C4.87299 51.5675 4.87299 50.8214 5.18738 50.6306Z" fill="#171753"/>
<path d="M1 40.5L4.12202 37.2701C5.01278 40.6883 11.2132 50.5611 11.5974 51.1857L8.41863 53.0249C8.03438 52.4003 1 41 1 40.5Z" fill="#171753"/>
<path d="M11.4051 18.4964L8.22632 20.3356C8.22632 20.3356 8.31365 20.2835 8.34858 20.2662L11.5274 18.427C11.5274 18.427 11.44 18.479 11.4051 18.4964Z" fill="#171753"/>
<path d="M47.8217 79.6414L51.0005 77.8022C49.3937 78.7218 46.1275 81.2898 42.6169 83.3199L39.4381 85.1591C42.9487 83.129 46.2149 80.5784 47.8217 79.6414Z" fill="#171753"/>
<path d="M2.95166 9.09189L6.13045 7.25268C6.84655 6.83625 7.77224 6.87095 8.78526 7.46089C10.1301 8.24169 11.3353 9.80328 12.0688 11.5731L8.89005 13.4123C8.15649 11.6425 6.96881 10.0809 5.60647 9.3001C4.59345 8.71017 3.65029 8.67546 2.95166 9.09189Z" fill="#171753"/>
<path d="M25.6571 19.9539L22.4783 21.7931C22.1639 21.984 21.7448 22.036 21.2033 21.8972C20.6968 21.7584 20.0156 21.4461 19.2297 20.995C16.3129 19.3293 11.894 15.8764 8.88989 13.4299L12.0687 11.5907C15.0728 14.0198 19.5091 17.4727 22.4085 19.1557C23.1944 19.6069 23.8756 19.9192 24.3821 20.058C24.9236 20.1968 25.3427 20.1448 25.6571 19.9539Z" fill="#171753"/>
<path d="M31.1593 34.2336L34.338 32.3944C34.1983 32.4638 34.111 32.5853 34.0411 32.7241C32.6788 35.5697 33.849 70.7403 35.2987 74.384C35.5781 75.0607 36 75.5 36.9405 76.0671C39.8049 77.7154 45.3415 77.8369 48.1535 76.2059L44.9748 78.0451C42.1453 79.6761 36.6261 79.5546 33.7617 77.9063C32.9757 77.4551 32.3993 76.8999 32.1199 76.2232C30.6702 72.5795 29.4825 37.4089 30.8623 34.5633C30.9322 34.4245 31.037 34.303 31.1593 34.2336Z" fill="#171753"/>
<path d="M51 68.0001L54.1268 65.9515C54.1093 66.5241 53.7426 77.4726 55.0001 80.5958L51.8213 82.435C50.5463 79.3118 50 69.0001 51 68.0001Z" fill="#171753"/>
<path d="M22.8452 6.38523L26.024 4.54602C25.2031 5.0145 24.6966 6.02086 24.6966 7.44365C24.6966 10.2892 26.7052 13.7941 29.2203 15.2343L26.0415 17.0735C23.5264 15.6334 21.5003 12.1458 21.5178 9.28286C21.5178 7.86007 22.0243 6.85371 22.8452 6.38523Z" fill="#171753"/>
<path d="M32.4518 15.5467L29.2731 17.3859C28.4522 17.8717 27.2994 17.8023 26.0419 17.0736L29.2207 15.2344C30.4782 15.9631 31.6309 16.0325 32.4518 15.5467Z" fill="#171753"/>
<path d="M28.6443 21.8624L31.8231 20.0232C31.8056 21.7756 32.2423 23.9619 34.0587 25.5755C34.5652 26.0266 35.2464 26.4778 36.0324 26.9289C38.9492 28.5946 43.368 30.2256 46.3721 31.232L43.1934 33.0712C40.1892 32.0475 35.7529 30.4338 32.8536 28.7681C32.0676 28.317 31.3864 27.8659 30.8799 27.4147C29.0635 25.7837 28.6268 23.5975 28.6443 21.8624Z" fill="#171753"/>
<path d="M20.4874 2.35974L23.6662 0.520532C25.0984 -0.312319 27.0721 -0.190862 29.2553 1.05841C33.6218 3.55697 37.1149 9.59514 37.0975 14.5575C37.0975 17.0214 36.2242 18.7565 34.8094 19.572L31.6306 21.4112C33.0454 20.5957 33.9187 18.8606 33.9187 16.3968C33.9187 11.4344 30.4255 5.39618 26.0765 2.89763C23.8933 1.64835 21.9196 1.52689 20.4874 2.35974Z" fill="#171753"/>
<path d="M43.8046 32.5507L46.9834 30.7115C47.6995 30.2951 48.6426 30.3298 49.6556 30.9197C51.8913 32.2037 53.7077 35.6739 53.7077 38.6583C53.7077 40.2893 53.1488 41.4518 52.293 41.955L49.1142 43.7942C49.9875 43.291 50.5289 42.1285 50.5289 40.4975C50.5289 37.5131 48.7299 34.0603 46.4768 32.7589C45.4464 32.169 44.5207 32.1343 43.8046 32.5507Z" fill="#171753"/>
<path d="M46.5865 76.8892C47.0943 76.0422 47.2346 75.3351 47.088 74.7524C46.9411 74.1687 46.5215 73.7699 46.0402 73.5067C45.5241 73.2091 44.9076 73.0468 44.4116 72.958C44.3892 72.954 44.367 72.9501 44.345 72.9464C45.0353 72.6184 46.0699 72.1043 47.1266 71.4875C47.9927 70.982 48.8812 70.4032 49.6121 69.7958C50.0175 69.4588 50.384 69.1054 50.6713 68.7433C50.6445 69.9072 50.6137 71.9507 50.6586 74.144C50.6914 75.7467 50.7647 77.4331 50.9102 78.9167C51.0093 79.927 51.143 80.8561 51.3246 81.6041C51.1272 81.4185 50.9016 81.2036 50.6681 80.9762C49.9912 80.3167 49.2777 79.5801 48.989 79.1541L48.9576 79.1078L48.9095 79.0793C48.8214 79.0271 48.726 79.0172 48.6472 79.021C48.5673 79.0249 48.4846 79.0437 48.4039 79.0694C48.2427 79.1206 48.0518 79.2111 47.8403 79.3272C47.4153 79.5604 46.8638 79.9213 46.222 80.3587C45.8465 80.6146 45.4388 80.8977 45.0041 81.1994C43.9443 81.9351 42.7245 82.7818 41.4228 83.6169C39.5882 84.7936 37.6066 85.9365 35.7134 86.6946C33.813 87.4554 32.0403 87.8124 30.6063 87.4666L30.6053 87.4663C28.7986 87.0381 27.5554 87.5951 26.7626 88.2942C26.3732 88.6376 26.0948 89.0126 25.9092 89.3153C25.4601 87.9672 24.1412 84.6929 21.354 82.163C19.8698 80.8164 18.0588 78.3614 16.1548 75.4044C14.2548 72.4536 12.2754 69.024 10.4534 65.7453C9.10531 63.3194 7.84477 60.9787 6.76666 58.9768C6.38763 58.273 6.03115 57.611 5.70134 57.002C5.068 55.8324 4.53215 54.8563 4.1247 54.1552C3.92121 53.805 3.74764 53.5198 3.60871 53.3122C3.53942 53.2086 3.47622 53.1205 3.42034 53.052C3.37135 52.9919 3.30659 52.9192 3.23272 52.8771L3.14199 52.8253L3.04142 52.8535C2.91848 52.888 2.68689 52.8938 2.37338 52.8681C2.07037 52.8433 1.72292 52.7921 1.38822 52.7331C0.997563 52.6642 0.631655 52.5861 0.384033 52.5299C0.488766 52.3033 0.575458 52.0246 0.649629 51.7157C0.765917 51.2314 0.858944 50.6387 0.933613 49.9808C1.08303 48.6643 1.16131 47.0649 1.19958 45.5049C1.24503 43.6526 1.23418 41.8435 1.21789 40.6208C1.48723 41.2607 1.82856 41.9807 2.21247 42.7407C2.92958 44.1604 3.80485 45.7378 4.66288 47.2264C5.57069 48.8015 6.46218 50.2823 7.12799 51.3736C6.77326 51.0603 6.39873 50.7639 6.06345 50.5701C5.83654 50.4394 5.59212 50.3346 5.36687 50.3319C5.24785 50.3304 5.1243 50.3574 5.01507 50.4332C4.90575 50.5091 4.83269 50.6186 4.78808 50.7438C4.70324 50.9819 4.70846 51.3116 4.78086 51.7251C4.85483 52.1476 5.00586 52.6933 5.2483 53.3851C6.11928 55.866 8.41352 59.295 10.9061 62.3381C12.1554 63.8634 13.4608 65.2993 14.6726 66.4794C15.8801 67.6554 17.0066 68.589 17.8987 69.0997C18.3026 69.3402 18.6804 69.502 19.0075 69.5477C19.3409 69.5943 19.6635 69.5219 19.8675 69.2405C19.9945 69.0717 20.0967 68.7791 20.1877 68.4267C20.2825 68.0593 20.3748 67.5851 20.4643 67.0218C20.6435 65.8944 20.8146 64.3923 20.973 62.637C21.2898 59.1254 21.5569 54.5857 21.7349 49.972C21.9129 45.3582 22.002 40.667 21.9624 36.8521C21.9426 34.9449 21.8906 33.2543 21.8012 31.9009C21.7123 30.5559 21.5853 29.5201 21.4076 28.938L21.4071 28.9363C21.1053 27.9713 20.2544 26.9957 19.1415 26.0627C18.021 25.1233 16.6011 24.1998 15.1103 23.346C12.7939 22.0037 10.2871 20.8197 8.43014 20.0191L8.30591 19.9655L8.19312 20.0402C7.56116 20.4588 6.70575 20.4687 5.69504 19.9098C4.63125 19.2898 3.64773 18.14 2.92879 16.7625C2.21056 15.3865 1.76963 13.8082 1.76948 12.3547C1.77811 10.9049 2.22784 9.90785 2.8812 9.41771C3.51949 8.93886 4.42416 8.89222 5.48149 9.4993C6.76479 10.2446 7.93948 11.7545 8.65913 13.4907L8.68346 13.5494L8.73288 13.5894C11.7334 16.0157 16.1683 19.4996 19.1058 21.1771L19.111 21.18C19.919 21.6163 20.6162 21.9372 21.1274 22.1005L21.1355 22.103L21.1437 22.1051C21.6395 22.227 22.0664 22.2098 22.425 22.0609C22.7847 21.9117 23.0472 21.6419 23.2351 21.3113C23.6032 20.6636 23.7066 19.744 23.7066 18.8606V18.7544L23.6302 18.6807C20.5967 15.7528 18.4495 11.1998 18.4493 7.35719C18.458 4.97263 19.2931 3.35096 20.5744 2.58281C21.8546 1.81533 23.6624 1.8506 25.7264 2.95918C25.7667 2.98293 25.8079 3.00424 25.8405 3.02104C25.8483 3.02509 25.8557 3.02889 25.8624 3.03239C25.9026 3.05342 25.9267 3.06742 25.9445 3.08072L25.9565 3.08961L25.9694 3.09702C28.097 4.3194 30.029 6.4173 31.4296 8.83341C32.8301 11.2495 33.686 13.9609 33.6861 16.3964C33.6774 18.3052 33.1395 19.7298 32.2653 20.6104C31.397 21.4851 30.1647 21.8558 28.6868 21.5987L28.3998 21.5487L28.394 21.84C28.3582 23.6331 28.8045 25.9043 30.714 27.5846C31.2381 28.0513 31.9177 28.5121 32.7298 28.9681C35.6698 30.647 40.1089 32.2843 43.1136 33.2908L43.2757 33.3451L43.3851 33.2137C43.7227 32.8081 44.1551 32.5651 44.6504 32.506C45.1485 32.4466 45.7319 32.5707 46.3685 32.9403L46.3702 32.9413C47.4423 33.5522 48.4262 34.6975 49.1434 36.0714C49.8594 37.4431 50.2961 39.0173 50.2961 40.4627C50.2961 41.9127 49.8502 42.9186 49.1964 43.4149C48.5582 43.8993 47.6499 43.9502 46.5841 43.3346L46.5817 43.3333C45.586 42.7728 44.6205 41.7034 43.9379 40.415L43.9104 40.3633L43.8629 40.3291C42.0252 39.0077 39.5024 37.3019 37.1866 35.9773L37.1857 35.9768C35.698 35.1335 34.2725 34.4281 33.1385 34.0793C32.5735 33.9055 32.0587 33.8129 31.6351 33.8492C31.2029 33.8863 30.8339 34.0631 30.6388 34.4509L30.6366 34.4553C30.5345 34.6687 30.455 35.0044 30.3889 35.4208C30.3215 35.8449 30.2643 36.3777 30.2163 37.0017C30.1201 38.2502 30.0596 39.8774 30.03 41.7568C29.9707 45.5164 30.0347 50.2975 30.1865 55.1018C30.3383 59.9063 30.5781 64.7369 30.8707 68.5957C31.017 70.5248 31.1767 72.2134 31.3455 73.5354C31.5129 74.8457 31.6925 75.8258 31.8873 76.3156L31.8885 76.3186C32.1965 77.0643 32.823 77.6559 33.6369 78.1231C35.4319 79.1536 38.2067 79.5979 40.7386 79.4245C42.0084 79.3375 43.232 79.0944 44.2542 78.6822C45.2731 78.2714 46.1155 77.6827 46.5865 76.8892ZM30.8501 14.489C30.859 12.9936 30.3346 11.3582 29.4975 9.92044C28.6629 8.48716 27.5037 7.22678 26.2129 6.48754C26.1735 6.4589 26.1258 6.42769 26.0741 6.40201C26.0359 6.38301 25.984 6.36117 25.9241 6.35029C24.6937 5.71188 23.5284 5.67031 22.655 6.20928C21.7729 6.75362 21.2678 7.8414 21.2678 9.28279C21.2678 10.7243 21.765 12.3107 22.5621 13.7218C23.3552 15.1259 24.4576 16.3785 25.6985 17.1525C25.7476 17.1945 25.8068 17.2296 25.8404 17.2489C25.8646 17.2628 25.8866 17.2747 25.9025 17.283L25.9219 17.2931L25.9276 17.296L25.9293 17.2968L25.9302 17.2973L26.2915 17.4767V17.4717C27.4488 18.0333 28.5397 18.0706 29.3801 17.597C30.3121 17.0718 30.8499 15.9671 30.8501 14.489Z" fill="#8989C7"/>
<path d="M21.354 82.163C24.1412 84.6929 25.4601 87.9672 25.9092 89.3153C26.0948 89.0126 26.3732 88.6376 26.7626 88.2942C27.5554 87.5951 28.7986 87.0381 30.6053 87.4663L30.6063 87.4666C32.0403 87.8124 33.813 87.4554 35.7134 86.6946C37.6066 85.9365 39.5882 84.7936 41.4228 83.6169C42.7245 82.7818 43.9443 81.9351 45.0041 81.1994C45.4388 80.8977 45.8465 80.6146 46.222 80.3587C46.8638 79.9213 47.4153 79.5604 47.8403 79.3272C48.0518 79.2111 48.2427 79.1206 48.4039 79.0694C48.4846 79.0437 48.5673 79.0249 48.6472 79.021C48.726 79.0172 48.8214 79.0271 48.9095 79.0793L48.9576 79.1078L48.989 79.1541C49.2777 79.5801 49.9912 80.3167 50.6681 80.9762C50.9016 81.2036 51.1272 81.4185 51.3246 81.6041C51.143 80.8561 51.0093 79.927 50.9102 78.9167C50.7647 77.4331 50.6914 75.7467 50.6586 74.144C50.6137 71.9507 50.6445 69.9072 50.6713 68.7433C50.384 69.1054 50.0175 69.4588 49.6121 69.7958C48.8812 70.4032 47.9927 70.982 47.1266 71.4875C46.0699 72.1043 45.0353 72.6184 44.345 72.9464C44.367 72.9501 44.3892 72.954 44.4116 72.958C44.9076 73.0468 45.5241 73.2091 46.0402 73.5067C46.5215 73.7699 46.9411 74.1687 47.088 74.7524C47.2346 75.3351 47.0943 76.0422 46.5865 76.8892C46.1155 77.6827 45.2731 78.2714 44.2542 78.6822C43.232 79.0944 42.0084 79.3375 40.7386 79.4245C38.2067 79.5979 35.4319 79.1536 33.6369 78.1231C32.823 77.6559 32.1965 77.0643 31.8885 76.3186L31.8873 76.3156C31.6925 75.8258 31.5129 74.8457 31.3455 73.5354C31.1767 72.2134 31.017 70.5248 30.8707 68.5957C30.5781 64.7369 30.3383 59.9063 30.1865 55.1018C30.0347 50.2975 29.9707 45.5164 30.03 41.7568C30.0596 39.8774 30.1201 38.2502 30.2163 37.0017C30.2643 36.3777 30.3215 35.8449 30.3889 35.4208C30.455 35.0044 30.5345 34.6687 30.6366 34.4553L30.6388 34.4509C30.8339 34.0631 31.2029 33.8863 31.6351 33.8492C32.0587 33.8129 32.5735 33.9055 33.1385 34.0793C34.2725 34.4281 35.698 35.1335 37.1857 35.9768L37.1866 35.9773C39.5024 37.3019 42.0252 39.0077 43.8629 40.3291L43.9104 40.3633L43.9379 40.415C44.6205 41.7034 45.586 42.7728 46.5817 43.3333L46.5841 43.3346C47.6499 43.9502 48.5582 43.8993 49.1964 43.4149C49.8502 42.9186 50.2961 41.9127 50.2961 40.4627C50.2961 39.0173 49.8594 37.4431 49.1434 36.0714C48.4262 34.6975 47.4423 33.5522 46.3702 32.9413L46.3685 32.9403C45.7319 32.5707 45.1485 32.4466 44.6504 32.506C44.1551 32.5651 43.7227 32.8081 43.3851 33.2137L43.2757 33.3451L43.1136 33.2908C40.1089 32.2843 35.6698 30.647 32.7298 28.9681C31.9177 28.5121 31.2381 28.0513 30.714 27.5846C28.8045 25.9043 28.3582 23.6331 28.394 21.84L28.3998 21.5487L28.6868 21.5987C30.1647 21.8558 31.397 21.4851 32.2653 20.6104C33.1395 19.7298 33.6774 18.3052 33.6861 16.3964C33.686 13.9609 32.8301 11.2495 31.4296 8.83341C30.029 6.4173 28.097 4.3194 25.9694 3.09702L25.9565 3.08961L25.9445 3.08072C25.9267 3.06742 25.9026 3.05342 25.8624 3.03239C25.8557 3.02889 25.8483 3.02509 25.8405 3.02104C25.8079 3.00424 25.7667 2.98293 25.7264 2.95918C23.6624 1.8506 21.8546 1.81533 20.5744 2.58281C19.2931 3.35096 18.458 4.97263 18.4493 7.35719C18.4495 11.1998 20.5967 15.7528 23.6302 18.6807L23.7066 18.7544V18.8606C23.7066 19.744 23.6032 20.6636 23.2351 21.3113C23.0472 21.6419 22.7847 21.9117 22.425 22.0609C22.0664 22.2098 21.6395 22.227 21.1437 22.1051L21.1355 22.103L21.1274 22.1005C20.6162 21.9372 19.919 21.6163 19.111 21.18L19.1058 21.1771C16.1683 19.4996 11.7334 16.0157 8.73288 13.5894L8.68346 13.5494L8.65913 13.4907C7.93948 11.7545 6.76479 10.2446 5.48149 9.4993C4.42416 8.89222 3.51949 8.93886 2.8812 9.41771C2.22784 9.90785 1.77811 10.9049 1.76948 12.3547C1.76963 13.8082 2.21056 15.3865 2.92879 16.7625C3.64773 18.14 4.63125 19.2898 5.69504 19.9098C6.70575 20.4687 7.56116 20.4588 8.19312 20.0402L8.30591 19.9655L8.43014 20.0191C10.2871 20.8197 12.7939 22.0037 15.1103 23.346C16.6011 24.1998 18.021 25.1233 19.1415 26.0627C20.2544 26.9957 21.1053 27.9713 21.4071 28.9363L21.4076 28.938C21.5853 29.5201 21.7123 30.5559 21.8012 31.9009C21.8906 33.2543 21.9426 34.9449 21.9624 36.8521C22.002 40.667 21.9129 45.3582 21.7349 49.972C21.5569 54.5857 21.2898 59.1254 20.973 62.637C20.8146 64.3923 20.6435 65.8944 20.4643 67.0218C20.3748 67.5851 20.2825 68.0593 20.1877 68.4267C20.0967 68.7791 19.9945 69.0717 19.8675 69.2405C19.6635 69.5219 19.3409 69.5943 19.0075 69.5477C18.6804 69.502 18.3026 69.3402 17.8987 69.0997C17.0066 68.589 15.8801 67.6554 14.6726 66.4794C13.4608 65.2993 12.1554 63.8634 10.9061 62.3381C8.41352 59.295 6.11928 55.866 5.2483 53.3851C5.00586 52.6933 4.85483 52.1476 4.78086 51.7251C4.70846 51.3116 4.70324 50.9819 4.78808 50.7438C4.83269 50.6186 4.90575 50.5091 5.01507 50.4332C5.1243 50.3574 5.24785 50.3304 5.36687 50.3319C5.59212 50.3346 5.83654 50.4394 6.06345 50.5701C6.39873 50.7639 6.77326 51.0603 7.12799 51.3736C6.46218 50.2823 5.57069 48.8015 4.66288 47.2264C3.80485 45.7378 2.92958 44.1604 2.21247 42.7407C1.82856 41.9807 1.48723 41.2607 1.21789 40.6208C1.23418 41.8435 1.24503 43.6526 1.19958 45.5049C1.16131 47.0649 1.08303 48.6643 0.933613 49.9808C0.858944 50.6387 0.765917 51.2314 0.649629 51.7157C0.575458 52.0246 0.488766 52.3033 0.384033 52.5299C0.631655 52.5861 0.997563 52.6642 1.38822 52.7331C1.72292 52.7921 2.07037 52.8433 2.37338 52.8681C2.68689 52.8938 2.91848 52.888 3.04142 52.8535L3.14199 52.8253L3.23272 52.8771C3.30659 52.9192 3.37135 52.9919 3.42034 53.052C3.47622 53.1205 3.53942 53.2086 3.60871 53.3122C3.74764 53.5198 3.92121 53.805 4.1247 54.1552C4.53215 54.8563 5.068 55.8324 5.70134 57.002C6.03115 57.611 6.38763 58.273 6.76666 58.9768C7.84477 60.9787 9.10531 63.3194 10.4534 65.7453C12.2754 69.024 14.2548 72.4536 16.1548 75.4044C18.0588 78.3614 19.8698 80.8164 21.354 82.163ZM21.354 82.163L21.186 82.3481M33.7614 77.9063C32.9754 77.4551 32.3991 76.8999 32.1196 76.2232M30.8501 14.489C30.859 12.9936 30.3346 11.3582 29.4975 9.92044C28.6629 8.48716 27.5037 7.22678 26.2129 6.48754C26.1735 6.4589 26.1258 6.42769 26.0741 6.40201C26.0359 6.38301 25.984 6.36117 25.9241 6.35029C24.6937 5.71188 23.5284 5.67031 22.655 6.20928C21.7729 6.75362 21.2678 7.8414 21.2678 9.28279C21.2678 10.7243 21.765 12.3107 22.5621 13.7218C23.3552 15.1259 24.4576 16.3785 25.6985 17.1525C25.7476 17.1945 25.8068 17.2296 25.8404 17.2489C25.8646 17.2628 25.8866 17.2747 25.9025 17.283L25.9219 17.2931L25.9276 17.296L25.9293 17.2968L25.9302 17.2973M30.8501 14.489C30.8499 15.9671 30.3121 17.0718 29.3801 17.597C28.5397 18.0706 27.4488 18.0333 26.2915 17.4717V17.4767L25.9302 17.2973M30.8501 14.489L30.6001 14.4881M25.9302 17.2973L25.9368 17.2842" stroke="#171753" stroke-width="0.5"/>
</g>
</g>
</g>
<defs>
<clipPath id="clip0_942_25014">
<rect width="55" height="90" fill="white"/>
</clipPath>
</defs>
</svg>
