<svg width="32" height="52" viewBox="0 0 32 52" fill="none" xmlns="http://www.w3.org/2000/svg">
<g opacity="0.8" clip-path="url(#clip0_289_16442)">
<path d="M25.7147 42.0014C26.087 41.8175 26.558 41.573 27.0366 41.2918C27.5351 40.9989 28.0494 40.6619 28.4742 40.3066C28.6255 40.1799 28.7695 40.0478 28.8987 39.9113C28.8856 40.6043 28.8752 41.6365 28.8976 42.7338C28.9164 43.6588 28.9584 44.6337 29.0421 45.4925C29.0849 45.9317 29.1392 46.3478 29.2088 46.7146C29.1682 46.6753 29.1268 46.6349 29.085 46.594C28.6955 46.2121 28.2955 45.7952 28.1374 45.5604L28.1061 45.5139L28.0581 45.4853C27.9831 45.4405 27.9049 45.4338 27.8475 45.4366C27.7891 45.4395 27.7319 45.4531 27.6807 45.4695C27.5784 45.5022 27.4619 45.5583 27.3388 45.6264C27.0904 45.7636 26.7708 45.9743 26.4034 46.2263C26.1872 46.3747 25.9529 46.5384 25.7035 46.7126C25.0973 47.1362 24.4017 47.6223 23.6581 48.1024C22.6099 48.7793 21.4819 49.4337 20.4073 49.8668C19.3255 50.3028 18.3367 50.4982 17.549 50.307L17.548 50.3068C16.4759 50.051 15.7289 50.3843 15.2515 50.808C15.093 50.9487 14.9653 51.0981 14.8649 51.2369C14.5496 50.3569 13.7849 48.6334 12.2986 47.2754L12.2986 47.2754C11.4602 46.5096 10.4296 45.1054 9.33966 43.4013C8.25364 41.7035 7.12165 39.7293 6.07886 37.8404C5.30734 36.4429 4.58613 35.0948 3.96892 33.9411C3.75183 33.5354 3.54762 33.1537 3.3586 32.8023C2.99602 32.1283 2.68853 31.5644 2.45436 31.1588C2.33751 30.9564 2.23682 30.7898 2.15542 30.6673C2.1149 30.6063 2.07664 30.5525 2.04166 30.5093C2.0136 30.4747 1.96574 30.4183 1.90447 30.3832L1.8133 30.3308L1.71213 30.3594C1.66227 30.3734 1.54712 30.3789 1.36777 30.3641C1.19898 30.3502 1.00371 30.3213 0.813673 30.2876C0.6507 30.2586 0.494543 30.2267 0.366694 30.1989C0.409018 30.0858 0.44479 29.9606 0.47597 29.8298C0.543937 29.5449 0.597779 29.1986 0.64077 28.8174C0.726824 28.0541 0.771734 27.1288 0.793676 26.2286C0.813884 25.3994 0.81467 24.5842 0.809652 23.9309C0.919668 24.1702 1.04137 24.4216 1.17109 24.6801C1.58289 25.5007 2.08507 26.4116 2.5768 27.2704C2.96743 27.9527 3.35312 28.6048 3.68263 29.154C3.62937 29.1173 3.57687 29.0836 3.52572 29.0539L3.52543 29.0537C3.39189 28.9763 3.232 28.9039 3.07411 28.902C2.98865 28.901 2.89456 28.9206 2.80983 28.9798C2.72513 29.0389 2.67172 29.1223 2.64058 29.2103C2.58262 29.374 2.58981 29.5865 2.63198 29.8289C2.6757 30.0802 2.76414 30.4007 2.9039 30.8022L2.90394 30.8023C3.40894 32.2503 4.73237 34.2382 6.16109 35.994C6.87851 36.8757 7.62853 37.7062 8.32562 38.3896C9.01841 39.0687 9.67069 39.6142 10.1933 39.9155C10.4292 40.0569 10.6598 40.1583 10.8677 40.1875C11.0825 40.2177 11.3138 40.1724 11.4616 39.9678C11.548 39.8517 11.6103 39.6642 11.662 39.4627C11.7175 39.2464 11.7709 38.9694 11.8224 38.6432C11.9255 37.9901 12.0237 37.1217 12.1145 36.1092C12.2961 34.0829 12.4491 31.4647 12.5511 28.8045C12.653 26.1443 12.7041 23.4388 12.6814 21.238C12.67 20.1378 12.6402 19.1614 12.5889 18.3787C12.538 17.6044 12.4649 16.996 12.3593 16.6474L12.3587 16.6458C12.1766 16.0596 11.6695 15.4809 11.0287 14.9402C10.3804 14.3931 9.56154 13.8573 8.70535 13.3637C7.37441 12.5873 5.93522 11.9031 4.86952 11.4406L4.74462 11.3864L4.63133 11.462C4.31327 11.674 3.86911 11.6915 3.31407 11.3829C2.72811 11.0387 2.17746 10.3945 1.77194 9.61238C1.36715 8.83171 1.12015 7.93875 1.12 7.1207C1.1249 6.30261 1.37711 5.76668 1.71441 5.51197C2.03601 5.2691 2.50508 5.23141 3.0843 5.56606C3.79276 5.98029 4.45255 6.82847 4.85883 7.81515L4.88298 7.87381L4.93218 7.91385C6.64861 9.31095 9.19462 11.3248 10.8854 12.2967L10.8854 12.2968L10.8906 12.2996C11.3552 12.5521 11.7613 12.7408 12.0635 12.838L12.0716 12.8406L12.0799 12.8426C12.38 12.9169 12.649 12.9089 12.8809 12.812C13.1137 12.7148 13.2802 12.54 13.3965 12.3341C13.6214 11.9357 13.68 11.3821 13.68 10.87V10.7643L13.6042 10.6907C11.8847 9.01998 10.6701 6.42221 10.67 4.24032C10.6749 2.88791 11.1447 1.99583 11.8354 1.57901C12.5245 1.16317 13.5161 1.17058 14.6766 1.79746C14.7022 1.81251 14.7284 1.82616 14.7464 1.83551C14.7505 1.83764 14.7542 1.83954 14.7573 1.84119C14.7798 1.85303 14.7871 1.85778 14.79 1.85996L14.8019 1.86891L14.8148 1.87638C16.013 2.56929 17.107 3.76284 17.9021 5.14347C18.697 6.52388 19.1798 8.06834 19.18 9.44929C19.1751 10.5316 18.8722 11.3226 18.397 11.8044C17.928 12.28 17.2598 12.4867 16.4431 12.3437L16.1558 12.2934L16.15 12.585C16.1293 13.6351 16.3886 14.9798 17.5137 15.9766C17.5139 15.9768 17.514 15.9769 17.5142 15.9771L17.68 15.79C17.97 16.05 18.35 16.31 18.81 16.57M25.7147 42.0014L24.73 19.05C23.01 18.47 20.48 17.53 18.81 16.57M25.7147 42.0014C25.9437 42.0589 26.1924 42.1444 26.413 42.2723L25.7147 42.0014ZM18.81 16.57L18.6854 16.7867C18.6857 16.7869 18.6859 16.787 18.6862 16.7872M18.81 16.57L18.687 16.7876C18.6867 16.7875 18.6865 16.7873 18.6862 16.7872M18.6862 16.7872C20.3795 17.7604 22.9296 18.7067 24.6501 19.2869L24.8131 19.3418L24.9227 19.2093C25.1 18.9949 25.3233 18.87 25.5773 18.8394C25.8341 18.8086 26.1447 18.8718 26.4939 19.0758L26.4956 19.0768C27.0861 19.4155 27.6371 20.0571 28.0418 20.8376C28.4453 21.6157 28.69 22.5065 28.69 23.32C28.69 24.1383 28.4398 24.6795 28.102 24.9376C27.7804 25.1832 27.3096 25.2233 26.7257 24.8838L26.7233 24.8825C26.1755 24.5721 25.6354 23.9734 25.2512 23.2435L25.224 23.1918L25.1766 23.1574C24.1228 22.3947 22.6751 21.4093 21.3447 20.6433L21.3439 20.6428C20.4907 20.156 19.6662 19.7446 19.0052 19.5399C18.6768 19.4382 18.3664 19.3802 18.1033 19.4029C17.8312 19.4264 17.5796 19.5418 17.4464 19.8082L17.4464 19.8081L17.4442 19.8126C17.3787 19.9504 17.3315 20.1572 17.2935 20.3978C17.2543 20.6461 17.2213 20.9563 17.1937 21.3173C17.1384 22.0399 17.1037 22.9801 17.0868 24.0642C17.0528 26.2331 17.0894 28.9904 17.1764 31.7603C17.2633 34.5303 17.4007 37.316 17.5684 39.5419C17.6522 40.6545 17.7438 41.6297 17.8408 42.3941C17.9363 43.1469 18.0402 43.7252 18.1575 44.0219L18.1587 44.0249C18.3469 44.4837 18.7268 44.8402 19.2049 45.1164C20.2572 45.7245 21.8694 45.9815 23.3322 45.8806C24.0673 45.8299 24.7797 45.6881 25.3781 45.4452C25.9733 45.2036 26.4792 44.8522 26.7651 44.3674C26.7652 44.3672 26.7653 44.3671 26.7654 44.3669L18.6862 16.7872ZM14.7982 10.0636L14.8019 10.0562C14.8019 10.0562 14.8019 10.0562 14.8018 10.0562L14.7982 10.0636L14.7981 10.0635L14.798 10.0635L14.7979 10.0634L14.7974 10.0632L14.7962 10.0626L14.7924 10.0606L14.7801 10.0542C14.7701 10.0489 14.7563 10.0414 14.741 10.0326C14.7236 10.0225 14.6857 10.0003 14.6503 9.97117C13.9239 9.51316 13.2838 8.77829 12.8245 7.9598C12.3616 7.13497 12.07 6.20301 12.07 5.34996C12.07 4.49734 12.3674 3.82859 12.9143 3.48885C13.4536 3.15388 14.158 3.18659 14.8793 3.55927C14.9202 3.56873 14.9538 3.58359 14.9768 3.59511C15.0111 3.61227 15.0419 3.63233 15.0668 3.65024C15.8239 4.08821 16.4978 4.82872 16.9814 5.66478C17.4676 6.50521 17.7752 7.46594 17.77 8.35085C17.77 8.35105 17.77 8.35126 17.77 8.35147L17.52 8.34996C17.52 9.89332 16.475 10.5776 15.16 9.96117L14.7982 10.0636ZM14.7982 10.0636L15.16 10.2445V10.2347L14.7982 10.0636Z" fill="#8989C7" stroke="#171753" stroke-width="0.5"/>
<path d="M15.0498 10.1956V51.0128C15.1113 50.9442 15.1795 50.8753 15.2548 50.8082C15.731 50.3844 16.4757 50.051 17.5478 50.3068L17.5493 50.3071C18.3395 50.5007 19.3296 50.307 20.4116 49.8724C21.4866 49.4405 22.6141 48.7868 23.6616 48.11C24.4135 47.6242 25.1163 47.1319 25.727 46.7041C25.968 46.5353 26.1946 46.3765 26.4043 46.2322C26.7712 45.9795 27.0904 45.7681 27.3382 45.6301C27.4612 45.5616 27.5773 45.505 27.6791 45.4718C27.73 45.4551 27.7868 45.4411 27.8448 45.4377C27.9016 45.4343 27.9797 45.44 28.0551 45.4836L28.106 45.5131L28.1384 45.5622C28.2959 45.8007 28.695 46.2167 29.0845 46.5974C29.1253 46.6372 29.1656 46.6764 29.2053 46.7146C29.1377 46.3526 29.0849 45.9436 29.0433 45.5123C28.9604 44.6535 28.9193 43.6786 28.9011 42.7536C28.8795 41.657 28.8902 40.6181 28.9025 39.9248C28.7736 40.062 28.6298 40.1947 28.4786 40.3218C28.0541 40.6786 27.5393 41.0164 27.0401 41.3093C26.5625 41.5896 26.0931 41.8323 25.7203 42.015C25.951 42.0725 26.1968 42.1571 26.4128 42.2823C26.7029 42.4422 26.9698 42.6895 27.0635 43.0628C27.1569 43.4345 27.0633 43.8712 26.7652 44.3769L26.7649 44.3775C26.4788 44.86 25.9721 45.2101 25.3762 45.4511C24.7772 45.6934 24.0641 45.8355 23.3284 45.8869C21.8649 45.9889 20.2521 45.7348 19.2042 45.1261L19.2026 45.1252C18.7385 44.8509 18.3474 44.4952 18.1585 44.0349L18.1571 44.0315C18.04 43.7338 17.9361 43.1548 17.8406 42.4012C17.7436 41.6361 17.652 40.6606 17.5682 39.5476C17.4005 37.3213 17.2631 34.5359 17.1762 31.7666C17.0892 28.9973 17.0526 26.2409 17.0866 24.0728C17.1035 22.9891 17.1382 22.0492 17.1935 21.3269C17.2211 20.966 17.2541 20.6559 17.2933 20.4077C17.3313 20.1671 17.3785 19.9604 17.444 19.8226L17.4455 19.8195L17.4455 19.8195C17.5777 19.5513 17.8282 19.4326 18.1017 19.4074C18.3654 19.3831 18.6763 19.4406 19.005 19.5424C19.6665 19.7472 20.4912 20.1614 21.3445 20.6533L15.0498 10.1956ZM15.0498 10.1956C15.7184 10.5097 16.3642 10.5331 16.8744 10.2437C17.4527 9.91558 17.7698 9.23496 17.7698 8.35997C17.7698 7.47595 17.4626 6.51563 16.9776 5.67503C16.4951 4.83872 15.8233 4.0977 15.0656 3.65966C15.0603 3.65601 15.0551 3.65247 15.0498 3.64904V2.02959C16.156 2.73727 17.1619 3.86389 17.9057 5.15362C18.702 6.53424 19.1846 8.0786 19.1798 9.45909V9.45997C19.1798 10.5417 18.877 11.3298 18.401 11.8103C17.9306 12.285 17.2592 12.4921 16.4416 12.3535L16.1556 12.305L16.1499 12.595C16.1291 13.6434 16.3876 14.9983 17.5124 15.9856C17.8129 16.2641 18.2211 16.5344 18.686 16.7972C20.3793 17.7704 22.9294 18.7167 24.6499 19.2969L24.8129 19.3518L24.9225 19.2193C25.0998 19.0049 25.3231 18.88 25.5771 18.8494C25.8339 18.8186 26.1446 18.8818 26.4937 19.0858L26.4954 19.0868C27.0862 19.4257 27.6397 20.0676 28.0455 20.8478C28.4502 21.6259 28.6945 22.516 28.6898 23.3285V23.33C28.6898 24.1483 28.4396 24.6895 28.1018 24.9476C27.7802 25.1932 27.3094 25.2333 26.7255 24.8938L26.7231 24.8925C26.1762 24.5826 25.6355 23.9744 25.2504 23.2523L25.2229 23.2008L25.1755 23.1668C24.1131 22.4051 22.6753 21.4195 21.3447 20.6534L15.0498 10.1956Z" fill="#FFC78F" stroke="#171753" stroke-width="0.5"/>
<path d="M15.7598 50.7599L17.5798 49.7C16.9098 50.09 16.6398 50.76 16.6198 50.81L14.7998 51.8699C14.8198 51.8099 15.0898 51.1499 15.7598 50.7599Z" fill="#171753"/>
<path d="M2.97052 29.18L4.79052 28.12C4.61052 28.22 4.61052 28.65 4.96052 29.67C5.94052 32.48 10.1605 37.5 12.1505 38.65C12.5305 38.87 12.8205 38.95 13.0005 38.84L11.1805 39.9C11.0005 40 10.7105 39.93 10.3305 39.71C8.35052 38.56 4.12052 33.54 3.14052 30.73C2.79052 29.72 2.79052 29.29 2.97052 29.18Z" fill="#171753"/>
<path d="M0.540039 22.54L2.36004 21.48C2.87004 23.45 6.42004 29.14 6.64004 29.5L4.82004 30.56C4.60004 30.2 1.04004 24.51 0.540039 22.54Z" fill="#171753"/>
<path d="M6.52996 10.66L4.70996 11.72C4.70996 11.72 4.75996 11.69 4.77996 11.68L6.59996 10.62C6.59996 10.62 6.54996 10.65 6.52996 10.66Z" fill="#171753"/>
<path d="M27.3801 45.9L29.2001 44.84C28.2801 45.37 26.4101 46.85 24.4001 48.02L22.5801 49.08C24.5901 47.91 26.4601 46.44 27.3801 45.9Z" fill="#171753"/>
<path d="M1.68945 5.23997L3.50945 4.17997C3.91945 3.93997 4.44945 3.95997 5.02945 4.29997C5.79945 4.74997 6.48945 5.64997 6.90945 6.66997L5.08945 7.72997C4.66945 6.70997 3.98945 5.80997 3.20945 5.35997C2.62945 5.01997 2.08945 4.99997 1.68945 5.23997Z" fill="#171753"/>
<path d="M28.6594 40.0601L26.8394 41.1201C25.8794 41.6801 24.9694 42.0801 24.8594 42.1301L26.6794 41.0701C26.7894 41.0201 27.6994 40.6201 28.6594 40.0601Z" fill="#171753"/>
<path d="M14.6898 11.4999L12.8698 12.5599C12.6898 12.6699 12.4498 12.6999 12.1398 12.6199C11.8498 12.5399 11.4598 12.3599 11.0098 12.0999C9.33984 11.1399 6.80984 9.14993 5.08984 7.73993L6.90984 6.67993C8.62984 8.07993 11.1698 10.0699 12.8298 11.0399C13.2798 11.2999 13.6698 11.4799 13.9598 11.5599C14.2698 11.6399 14.5098 11.6099 14.6898 11.4999Z" fill="#171753"/>
<path d="M17.8406 19.7299L19.6606 18.6699C19.5806 18.7099 19.5306 18.7799 19.4906 18.8599C18.7106 20.4999 19.3806 40.7699 20.2106 42.8699C20.3706 43.2599 20.7006 43.5799 21.1506 43.8399C22.7906 44.7899 25.9606 44.8599 27.5706 43.9199L25.7506 44.9799C24.1306 45.9199 20.9706 45.8499 19.3306 44.8999C18.8806 44.6399 18.5506 44.3199 18.3906 43.9299C17.5606 41.8299 16.8806 21.5599 17.6706 19.9199C17.7106 19.8399 17.7706 19.7699 17.8406 19.7299Z" fill="#171753"/>
<path d="M29.1696 39.07L30.9896 38.01C30.9796 38.34 30.7696 44.65 31.4896 46.45L29.6696 47.51C28.9396 45.71 29.1596 39.4 29.1696 39.07Z" fill="#171753"/>
<path d="M13.0804 3.68L14.9004 2.62C14.4304 2.89 14.1404 3.47 14.1404 4.29C14.1404 5.93 15.2904 7.95 16.7304 8.77999L14.9104 9.84C13.4704 9.01 12.3104 7 12.3204 5.35C12.3204 4.53 12.6104 3.95 13.0804 3.68Z" fill="#171753"/>
<path d="M18.5802 8.96003L16.7602 10.02C16.2902 10.3 15.6302 10.26 14.9102 9.84003L16.7302 8.78003C17.4502 9.20003 18.1102 9.24003 18.5802 8.96003Z" fill="#171753"/>
<path d="M16.4007 12.6L18.2207 11.54C18.2107 12.55 18.4607 13.81 19.5007 14.74C19.7907 15 20.1807 15.26 20.6307 15.52C22.3007 16.48 24.8307 17.42 26.5507 18L24.7307 19.06C23.0107 18.47 20.4707 17.54 18.8107 16.58C18.3607 16.32 17.9707 16.06 17.6807 15.8C16.6407 14.86 16.3907 13.6 16.4007 12.6Z" fill="#171753"/>
<path d="M11.7305 1.35998L13.5505 0.299984C14.3705 -0.180016 15.5005 -0.110016 16.7505 0.609984C19.2505 2.04998 21.2505 5.52998 21.2405 8.38998C21.2405 9.80998 20.7405 10.81 19.9305 11.28L18.1105 12.34C18.9205 11.87 19.4205 10.87 19.4205 9.44998C19.4205 6.58998 17.4205 3.10998 14.9305 1.66998C13.6805 0.949984 12.5505 0.879984 11.7305 1.35998Z" fill="#171753"/>
<path d="M25.0801 18.76L26.9001 17.7C27.3101 17.46 27.8501 17.48 28.4301 17.82C29.7101 18.56 30.7501 20.56 30.7501 22.28C30.7501 23.22 30.4301 23.89 29.9401 24.18L28.1201 25.24C28.6201 24.95 28.9301 24.28 28.9301 23.34C28.9301 21.62 27.9001 19.63 26.6101 18.88C26.0201 18.54 25.4901 18.52 25.0801 18.76Z" fill="#171753"/>
</g>
<defs>
<clipPath id="clip0_289_16442">
<rect width="31.49" height="51.87" fill="white"/>
</clipPath>
</defs>
</svg>
