<svg width="55" height="90" viewBox="0 0 55 90" fill="none" xmlns="http://www.w3.org/2000/svg">
<g opacity="0.8" clip-path="url(#clip0_907_25327)">
<path d="M25.9093 89.3153C26.0949 89.0126 26.3733 88.6376 26.7627 88.2942C27.5555 87.5951 28.7987 87.0381 30.6054 87.4663L30.6064 87.4666C32.0404 87.8124 33.8131 87.4554 35.7135 86.6946C37.6067 85.9365 39.5883 84.7936 41.4229 83.6169C42.7247 82.7818 43.9445 81.9351 45.0042 81.1994C45.4389 80.8977 45.8466 80.6146 46.2221 80.3587C46.8639 79.9213 47.4154 79.5604 47.8404 79.3272C48.0519 79.2111 48.2428 79.1206 48.404 79.0694C48.4847 79.0437 48.5674 79.0249 48.6473 79.021C48.7261 79.0172 48.8215 79.0271 48.9096 79.0793L48.9577 79.1078L48.9891 79.1541C49.2778 79.5801 49.9913 80.3168 50.6682 80.9762C50.9017 81.2036 51.1273 81.4185 51.3247 81.6041C51.1431 80.8561 51.0094 79.927 50.9103 78.9167C50.7648 77.4331 50.6915 75.7467 50.6587 74.144C50.6138 71.9507 50.6446 69.9072 50.6714 68.7433C50.3841 69.1054 50.0176 69.4588 49.6122 69.7958C48.8813 70.4032 47.9928 70.982 47.1267 71.4876C46.07 72.1043 45.0354 72.6184 44.3451 72.9464C44.3671 72.9501 44.3893 72.954 44.4117 72.958C44.9077 73.0468 45.5242 73.2091 46.0403 73.5068C46.5216 73.7699 46.9412 74.1688 47.0881 74.7524C47.2347 75.3349 47.0944 76.0419 46.5869 76.8886L25.9093 89.3153ZM25.9093 89.3153C25.4602 87.9672 24.1413 84.6929 21.3541 82.163L21.1861 82.3481L21.3541 82.163C19.8699 80.8164 18.0589 78.3614 16.1549 75.4044C14.2549 72.4536 12.2755 69.024 10.4535 65.7453C9.10536 63.3194 7.84481 60.9787 6.7667 58.9768C6.38767 58.273 6.0312 57.611 5.70139 57.002C5.06805 55.8324 4.5322 54.8563 4.12475 54.1552C3.92126 53.805 3.74769 53.5198 3.60876 53.3122C3.53947 53.2086 3.47627 53.1205 3.42039 53.052C3.3714 52.9919 3.30664 52.9192 3.23277 52.8771L3.14204 52.8253L3.04147 52.8535C2.91853 52.888 2.68694 52.8938 2.37343 52.8681C2.07042 52.8433 1.72297 52.7921 1.38827 52.7331C0.997617 52.6642 0.631709 52.5861 0.384087 52.5299C0.48882 52.3033 0.575512 52.0246 0.649683 51.7157C0.765971 51.2314 0.858998 50.6387 0.933667 49.9808C1.08308 48.6643 1.16136 47.0649 1.19963 45.5049C1.24508 43.6526 1.23423 41.8435 1.21794 40.6208C1.48728 41.2607 1.82861 41.9807 2.21252 42.7407C2.92963 44.1604 3.8049 45.7378 4.66293 47.2264C5.57074 48.8015 6.46223 50.2823 7.12804 51.3736C6.77331 51.0603 6.39878 50.7639 6.0635 50.5701L6.0632 50.5699C5.83629 50.4392 5.59217 50.3346 5.36692 50.3319C5.2479 50.3304 5.12435 50.3574 5.01512 50.4332C4.9058 50.5091 4.83274 50.6186 4.78813 50.7438C4.70329 50.9819 4.70851 51.3116 4.78091 51.7251C4.85488 52.1476 5.00591 52.6933 5.24835 53.3851L5.24839 53.3853C6.11937 55.8662 8.41357 59.295 10.9062 62.3381C12.1555 63.8634 13.4609 65.2993 14.6727 66.4794C15.8802 67.6554 17.0067 68.589 17.8988 69.0997C18.3027 69.3402 18.6805 69.502 19.0076 69.5477C19.341 69.5943 19.6636 69.5219 19.8676 69.2405C19.9946 69.0717 20.0968 68.7791 20.1878 68.4267C20.2826 68.0593 20.3749 67.5851 20.4644 67.0218C20.6436 65.8944 20.8147 64.3923 20.9731 62.637C21.2899 59.1254 21.557 54.5857 21.735 49.972C21.913 45.3582 22.0021 40.667 21.9625 36.8521C21.9427 34.9449 21.8907 33.2543 21.8013 31.9009C21.7124 30.5559 21.5854 29.5201 21.4077 28.938L21.4072 28.9363C21.1054 27.9713 20.2545 26.9957 19.1416 26.0627C18.0211 25.1233 16.6012 24.1998 15.1104 23.346C12.794 22.0037 10.2872 20.8197 8.43019 20.0191L8.30596 19.9655L8.19317 20.0402C7.56121 20.4588 6.7058 20.4687 5.69509 19.9098C4.6313 19.2898 3.64778 18.14 2.92884 16.7625C2.21061 15.3865 1.76968 13.8082 1.76953 12.3547C1.77816 10.9049 2.22789 9.90784 2.88125 9.4177C3.51954 8.93885 4.42421 8.89221 5.48154 9.49929C6.76484 10.2446 7.93953 11.7545 8.65918 13.4907L8.68351 13.5494L8.73293 13.5894C11.7335 16.0157 16.1684 19.4996 19.1059 21.1771L19.1059 21.1772L19.1111 21.18C19.9191 21.6163 20.6163 21.9372 21.1275 22.1005L21.1356 22.103L21.1438 22.1051C21.6396 22.227 22.0665 22.2098 22.4251 22.0609C22.7847 21.9117 23.0473 21.6419 23.2352 21.3113C23.6033 20.6636 23.7067 19.744 23.7067 18.8606V18.7544L23.6303 18.6807C20.5968 15.7528 18.4496 11.1998 18.4494 7.35718C18.4581 4.97262 19.2932 3.35095 20.5745 2.5828C21.8547 1.81532 23.6625 1.85059 25.7265 2.95917C25.7668 2.98291 25.808 3.00421 25.8405 3.02102C25.8484 3.02508 25.8557 3.02887 25.8624 3.03238C25.9027 3.05341 25.9268 3.06741 25.9446 3.08071L25.9566 3.0896L25.9695 3.09701C28.0971 4.31939 30.0291 6.41729 31.4297 8.8334C32.8302 11.2495 33.6861 13.9609 33.6862 16.3964C33.6775 18.3052 33.1396 19.7298 32.2654 20.6104C31.3971 21.4851 30.1648 21.8558 28.6869 21.5987L28.3999 21.5487L28.3941 21.84C28.3583 23.6331 28.8046 25.9043 30.7141 27.5846C31.2382 28.0513 31.9178 28.5121 32.7299 28.9681C35.6699 30.647 40.109 32.2843 43.1137 33.2908L43.2758 33.3451L43.3852 33.2137C43.7228 32.8081 44.1552 32.5651 44.6505 32.506C45.1486 32.4466 45.732 32.5707 46.3686 32.9403L46.3703 32.9413C47.4424 33.5522 48.4263 34.6975 49.1435 36.0714C49.8595 37.4431 50.2962 39.0173 50.2962 40.4627C50.2962 41.9127 49.8503 42.9186 49.1965 43.4149C48.5583 43.8993 47.65 43.9502 46.5842 43.3346L46.5818 43.3333C45.5861 42.7728 44.6206 41.7035 43.938 40.415L43.9105 40.3633L43.863 40.3291C42.0253 39.0077 39.5025 37.3019 37.1867 35.9773L37.1858 35.9768C35.6981 35.1335 34.2726 34.4281 33.1386 34.0793C32.5736 33.9055 32.0588 33.8129 31.6352 33.8493C31.203 33.8863 30.834 34.0631 30.6389 34.4509L30.6388 34.4509L30.6367 34.4553C30.5346 34.6687 30.4551 35.0044 30.389 35.4208C30.3216 35.8449 30.2644 36.3777 30.2164 37.0017C30.1202 38.2502 30.0597 39.8774 30.0301 41.7568C29.9708 45.5164 30.0348 50.2975 30.1866 55.1018C30.3384 59.9063 30.5782 64.7369 30.8708 68.5957C31.0171 70.5248 31.1768 72.2134 31.3456 73.5354C31.513 74.8457 31.6926 75.8258 31.8874 76.3156L31.8886 76.3186C32.1966 77.0643 32.8231 77.6559 33.637 78.1231C35.432 79.1536 38.2068 79.5979 40.7387 79.4245C42.0085 79.3375 43.2321 79.0944 44.2543 78.6822C45.273 78.2715 46.1153 77.6829 46.5863 76.8897L25.9093 89.3153ZM30.8502 14.489C30.8591 12.9936 30.3347 11.3582 29.4976 9.92043C28.663 8.48715 27.5038 7.22677 26.213 6.48753C26.1736 6.45889 26.1259 6.42768 26.0742 6.402C26.036 6.383 25.9841 6.36116 25.9242 6.35028C24.6938 5.71187 23.5285 5.6703 22.6551 6.20927C21.773 6.75361 21.2679 7.84139 21.2679 9.28278C21.2679 10.7243 21.7651 12.3107 22.5622 13.7218C23.3553 15.126 24.4577 16.3785 25.6986 17.1525C25.7477 17.1945 25.8069 17.2296 25.8405 17.2489C25.8647 17.2628 25.8867 17.2747 25.9026 17.283L25.922 17.2931L25.9277 17.296L25.9294 17.2968L25.93 17.2971L25.9302 17.2972L25.9303 17.2973L25.9303 17.2973L25.9369 17.2842C25.9369 17.2842 25.9369 17.2842 25.9369 17.2842L25.9304 17.2973L26.2916 17.4767V17.4717C27.4489 18.0333 28.5398 18.0706 29.3802 17.597C30.3122 17.0718 30.85 15.9671 30.8502 14.489ZM30.8502 14.489C30.8502 14.4887 30.8502 14.4884 30.8502 14.4881H30.6002L30.8502 14.4896C30.8502 14.4894 30.8502 14.4892 30.8502 14.489Z" fill="#8989C7" stroke="#171753" stroke-width="0.5"/>
<path d="M26.0977 3.19029V2.90075C30.4441 5.40122 33.9518 11.4364 33.9344 16.4141C33.9344 20.2123 31.8513 22.2696 28.8916 21.899C28.8917 21.8884 28.8919 21.8778 28.8921 21.8673L28.6422 21.8623L28.6007 22.1088C28.614 22.1111 28.6272 22.1133 28.6405 22.1154C28.652 23.8231 29.1312 25.8943 30.8778 27.4147C31.3669 27.8658 32.048 28.3169 32.8515 28.768C35.7683 30.4337 40.1871 32.0647 43.1913 33.0711C43.9423 32.1689 45.1474 31.9606 46.4923 32.7414L25.8477 17.2396C25.8477 17.2396 25.8477 17.2396 25.8477 17.2396C25.8599 17.2479 25.8648 17.252 25.8648 17.252L25.8867 17.2737L25.9149 17.29C25.976 17.3252 26.0369 17.359 26.0977 17.3913M26.0977 3.19029C26.0544 3.16462 26.0111 3.13931 25.9676 3.11437L25.9642 3.11237L25.9642 3.11234C25.9322 3.09327 25.889 3.06856 25.8477 3.04519V6.61073C25.9175 6.62808 26.0048 6.66278 26.0747 6.71483C28.5723 8.13762 30.5984 11.6252 30.5984 14.5055C30.5984 17.329 28.5692 18.4955 26.0977 17.1064V17.3913M26.0977 3.19029V6.43763C26.1359 6.45646 26.1741 6.47864 26.2105 6.50448C27.5018 7.24382 28.6569 8.50461 29.4893 9.93804C30.3244 11.3759 30.8484 13.0109 30.8484 14.5055C30.8484 15.984 30.3105 17.0891 29.3784 17.6144C28.4916 18.1141 27.326 18.045 26.0977 17.3913M26.0977 3.19029C28.1743 4.4226 30.0604 6.48416 31.4345 8.85091C32.8372 11.2671 33.6929 13.9782 33.6844 16.4132V16.4141C33.6844 18.3224 33.1466 19.7424 32.2706 20.6209C31.3999 21.4938 30.1626 21.8648 28.6837 21.6158L28.398 21.5677L28.3922 21.8573C28.3565 23.6487 28.802 25.9374 30.7109 27.6008C31.2206 28.0704 31.92 28.5317 32.7283 28.9856C35.6683 30.6644 40.1073 32.3016 43.1118 33.3082L43.274 33.3625L43.3834 33.231C43.721 32.8254 44.1534 32.5825 44.6487 32.5234C45.1467 32.4639 45.7302 32.5881 46.3668 32.9577L46.3685 32.9586C47.4409 33.5698 48.4291 34.7153 49.1483 36.089C49.8664 37.4606 50.3028 39.0342 50.2944 40.4785V40.48C50.2944 41.93 49.8485 42.936 49.1946 43.4323C48.5564 43.9167 47.6481 43.9676 46.5824 43.352L46.58 43.3507C45.5851 42.7906 44.6191 41.7044 43.9355 40.4312L43.9079 40.3797L43.8603 40.3458C42.0065 39.0254 39.501 37.3194 37.1849 35.9946L37.0607 36.2117L26.0977 89.0404M26.0977 17.3913V89.0404M26.0977 89.0404C26.2686 88.8016 26.4895 88.54 26.7671 88.2945C27.5578 87.5952 28.7968 87.0381 30.6036 87.4664L30.6051 87.4667C32.0435 87.8167 33.8183 87.4628 35.7193 86.7042C37.6132 85.9484 39.5942 84.8066 41.4275 83.63C42.7438 82.7851 43.9761 81.9276 45.0435 81.1847C45.4637 80.8924 45.8583 80.6178 46.2224 80.3687C46.8634 79.9303 47.4142 79.5681 47.8385 79.3333C48.0497 79.2165 48.2401 79.1251 48.4009 79.0729C48.4813 79.0468 48.5636 79.0274 48.643 79.0227C48.7211 79.0182 48.8165 79.0267 48.905 79.0777L48.956 79.107L48.9885 79.156C49.2766 79.5893 49.9891 80.3251 50.6661 80.9824C50.896 81.2056 51.1184 81.4165 51.3136 81.5992C51.1373 80.8581 51.0074 79.9437 50.911 78.9512C50.7668 77.4676 50.6951 75.7812 50.6634 74.1786C50.6199 71.981 50.6516 69.924 50.6757 68.7638C50.3897 69.1285 50.0236 69.484 49.6182 69.8225C48.8879 70.4323 47.9986 71.0124 47.1313 71.518C46.0752 72.1337 45.0417 72.6447 44.3485 72.9702C44.8631 73.0563 45.5066 73.2173 46.0384 73.5241" fill="#FFC78F" stroke="#171753" stroke-width="0.5"/>
<path d="M27.5244 88.0741L30.7032 86.2349C29.533 86.9116 29.0614 88.0741 29.0264 88.1608L25.8477 90C25.8826 89.8959 26.3542 88.7508 27.5244 88.0741Z" fill="#171753"/>
<path d="M5.18432 50.6305L8.36311 48.7913C8.04873 48.9648 8.04873 49.7109 8.66003 51.4807C10.3717 56.3563 17.7423 65.0666 21.218 67.0619C21.8817 67.4437 22.3882 67.5825 22.7026 67.3916L19.5238 69.2308C19.2094 69.4043 18.7029 69.2829 18.0392 68.9011C14.581 66.9058 7.1929 58.1955 5.48124 53.3199C4.86994 51.5674 4.86994 50.8213 5.18432 50.6305Z" fill="#171753"/>
<path d="M0.941406 39.1092L4.12019 37.27C5.01095 40.6882 11.2113 50.5609 11.5956 51.1856L8.4168 53.0248C8.03255 52.4002 1.8147 42.5274 0.941406 39.1092Z" fill="#171753"/>
<path d="M11.4014 18.4962L8.22266 20.3354C8.22266 20.3354 8.30999 20.2833 8.34492 20.266L11.5237 18.4268C11.5237 18.4268 11.4364 18.4788 11.4014 18.4962Z" fill="#171753"/>
<path d="M47.8211 79.6415L50.9999 77.8022C49.393 78.7219 46.1269 81.2898 42.6163 83.3199L39.4375 85.1591C42.9481 83.129 46.2143 80.5784 47.8211 79.6415Z" fill="#171753"/>
<path d="M2.94922 9.09189L6.12801 7.25268C6.84411 6.83625 7.7698 6.87095 8.78282 7.46089C10.1277 8.24169 11.3328 9.80328 12.0664 11.5731L8.88761 13.4123C8.15405 11.6425 6.96637 10.0809 5.60403 9.3001C4.59101 8.71017 3.64785 8.67546 2.94922 9.09189Z" fill="#171753"/>
<path d="M50.055 69.5083L46.8762 71.3475C45.1995 72.3192 43.6101 73.0132 43.418 73.1L46.5968 71.2608C46.7889 71.174 48.3783 70.48 50.055 69.5083Z" fill="#171753"/>
<path d="M25.6539 19.9538L22.4752 21.793C22.1608 21.9839 21.7416 22.0359 21.2002 21.8971C20.6936 21.7583 20.0125 21.446 19.2265 20.9949C16.3097 19.3292 11.8908 15.8763 8.88672 13.4298L12.0655 11.5906C15.0696 14.0197 19.506 17.4726 22.4053 19.1556C23.1913 19.6068 23.8724 19.9191 24.3789 20.0579C24.9204 20.1967 25.3396 20.1447 25.6539 19.9538Z" fill="#171753"/>
<path d="M31.1587 34.2337L34.3374 32.3945C34.1977 32.4639 34.1104 32.5854 34.0405 32.7242C32.6782 35.5698 33.8484 70.7404 35.2981 74.3841C35.5775 75.0608 36.1539 75.616 36.9399 76.0672C39.8043 77.7155 45.3409 77.837 48.1529 76.206L44.9741 78.0452C42.1447 79.6762 36.6255 79.5547 33.7611 77.9064C32.9751 77.4553 32.3987 76.9 32.1193 76.2233C30.6696 72.5796 29.4819 37.409 30.8617 34.5634C30.9316 34.4246 31.0364 34.3031 31.1587 34.2337Z" fill="#171753"/>
<path d="M50.9466 67.7906L54.1253 65.9514C54.1079 66.524 53.7411 77.4725 54.9986 80.5957L51.8199 82.4349C50.5448 79.3117 50.9291 68.3632 50.9466 67.7906Z" fill="#171753"/>
<path d="M22.8431 6.38511L26.0219 4.5459C25.201 5.01438 24.6945 6.02074 24.6945 7.44353C24.6945 10.2891 26.7031 13.794 29.2182 15.2342L26.0394 17.0734C23.5243 15.6332 21.4983 12.1457 21.5157 9.28274C21.5157 7.85995 22.0222 6.85359 22.8431 6.38511Z" fill="#171753"/>
<path d="M32.449 15.5465L29.2702 17.3857C28.4494 17.8715 27.2966 17.8021 26.0391 17.0733L29.2178 15.2341C30.4754 15.9629 31.6281 16.0323 32.449 15.5465Z" fill="#171753"/>
<path d="M28.6411 21.8624L31.8199 20.0232C31.8024 21.7757 32.2391 23.9619 34.0555 25.5755C34.5621 26.0267 35.2432 26.4778 36.0292 26.9289C38.946 28.5946 43.3648 30.2256 46.369 31.232L43.1902 33.0712C40.1861 32.0475 35.7497 30.4338 32.8504 28.7681C32.0644 28.317 31.3833 27.8659 30.8768 27.4147C29.0603 25.7837 28.6237 23.5975 28.6411 21.8624Z" fill="#171753"/>
<path d="M20.4844 2.35974L23.6632 0.520531C25.0954 -0.31232 27.069 -0.190863 29.2522 1.05841C33.6187 3.55697 37.1119 9.59514 37.0944 14.5575C37.0944 17.0214 36.2211 18.7565 34.8064 19.572L31.6276 21.4112C33.0423 20.5957 33.9156 18.8606 33.9156 16.3968C33.9156 11.4344 30.4225 5.39618 26.0735 2.89763C23.8902 1.64835 21.9166 1.52689 20.4844 2.35974Z" fill="#171753"/>
<path d="M43.8008 32.5506L46.9796 30.7114C47.6957 30.295 48.6388 30.3297 49.6518 30.9196C51.8875 32.2036 53.7039 35.6738 53.7039 38.6582C53.7039 40.2892 53.145 41.4517 52.2892 41.9549L49.1104 43.7941C49.9837 43.2909 50.5251 42.1284 50.5251 40.4974C50.5251 37.513 48.7262 34.0602 46.4731 32.7588C45.4426 32.1689 44.5169 32.1342 43.8008 32.5506Z" fill="#171753"/>
</g>
<defs>
<clipPath id="clip0_907_25327">
<rect width="55" height="90" fill="white"/>
</clipPath>
</defs>
</svg>
