<svg width="354" height="294" viewBox="0 0 354 294" fill="none" xmlns="http://www.w3.org/2000/svg">
<path d="M351.563 186.294L214.645 107.496C213.85 107.001 213.155 105.813 213.155 104.724V4.74193C213.155 3.65301 213.85 3.15805 214.645 3.65301L351.563 82.4511C352.357 82.9461 353.052 84.134 353.052 85.2229V185.205C353.052 186.294 352.357 186.789 351.563 186.294Z" fill="#9BE7C4"/>
<path d="M352.159 187.086C351.862 187.086 351.564 186.987 351.266 186.789L214.347 107.991C213.355 107.397 212.56 106.011 212.56 104.724V4.74183C212.56 3.94989 212.858 3.35593 213.355 3.05895C213.752 2.76197 214.347 2.86097 214.844 3.15795L351.762 81.9561C352.755 82.55 353.549 83.9359 353.549 85.2228V185.205C353.549 185.997 353.252 186.591 352.755 186.888C352.656 186.987 352.358 187.086 352.159 187.086ZM351.861 185.799C351.961 185.799 352.159 185.898 352.259 185.898C352.358 185.799 352.457 185.601 352.457 185.205V85.2228C352.457 84.3319 351.862 83.243 351.266 82.946L214.447 4.04888C214.347 4.04888 214.149 3.94989 214.05 3.94989C213.95 4.04888 213.851 4.24686 213.851 4.64283V104.625C213.851 105.516 214.447 106.605 215.043 106.902L351.861 185.799Z" fill="#171753"/>
<path d="M224.476 17.809L221.398 16.2251V15.1362L224.476 16.7201V17.809Z" fill="#171753"/>
<path d="M224.476 27.3125L221.398 25.7286V24.6396L224.476 26.2235V27.3125Z" fill="#171753"/>
<path d="M224.476 36.9145L221.398 35.3306V34.2417L224.476 35.8256V36.9145Z" fill="#171753"/>
<path d="M224.476 46.4177L221.398 44.8338V43.7449L224.476 45.3288V46.4177Z" fill="#171753"/>
<path d="M224.476 55.9207L221.398 54.3368V53.2479L224.476 54.8318V55.9207Z" fill="#171753"/>
<path d="M224.476 65.4244L221.398 63.8405V62.7516L224.476 64.3355V65.4244Z" fill="#171753"/>
<path d="M224.476 75.0268L221.398 73.4429V72.354L224.476 73.9379V75.0268Z" fill="#171753"/>
<path d="M224.476 84.53L221.398 82.9461V81.8572L224.476 83.4411V84.53Z" fill="#171753"/>
<path d="M224.476 94.0334L221.398 92.4495V91.3606L224.476 92.9445V94.0334Z" fill="#171753"/>
<path d="M224.476 103.636L221.398 101.953V100.864L224.476 102.547V103.636Z" fill="#171753"/>
<path d="M284.047 52.3573L227.254 19.4918V18.4028L284.047 51.2684V52.3573Z" fill="#171753"/>
<path d="M265.778 51.3676L227.254 28.9953V27.9064L265.778 50.2787V51.3676Z" fill="#171753"/>
<path d="M243.041 47.5067L227.254 38.5973V37.5084L243.041 46.4178V47.5067Z" fill="#171753"/>
<path d="M284.047 80.8674L227.254 48.1009V47.012L284.047 79.7785V80.8674Z" fill="#171753"/>
<path d="M260.416 76.7094L227.254 57.6038V56.5149L260.416 75.6205V76.7094Z" fill="#171753"/>
<path d="M260.416 86.2124L227.254 67.1069V66.0179L260.416 85.1235V86.2124Z" fill="#171753"/>
<path d="M267.168 99.7749L227.254 76.7096V75.6207L267.168 98.686V99.7749Z" fill="#171753"/>
<path d="M248.005 98.2899L227.254 86.2128V85.1239L248.005 97.201V98.2899Z" fill="#171753"/>
<path d="M284.047 128.582L227.254 95.7161V94.6272L284.047 127.493V128.582Z" fill="#171753"/>
<path d="M250.388 118.682L227.254 105.318V104.229L250.388 117.593V118.682Z" fill="#171753"/>
<path d="M322.667 74.7291L285.533 53.4457V52.3568L322.667 73.6402V74.7291Z" fill="#171753"/>
<path d="M304.898 73.7396L267.863 52.3572V51.2683L304.898 72.6507V73.7396Z" fill="#171753"/>
<path d="M282.358 69.9775L245.225 48.5951V47.5062L282.358 68.8886V69.9775Z" fill="#171753"/>
<path d="M321.082 91.7562L284.048 70.3738V69.2849L321.082 90.6673V91.7562Z" fill="#171753"/>
<path d="M322.667 103.338L285.533 81.9561V80.8672L322.667 102.25V103.338Z" fill="#171753"/>
<path d="M298.839 98.5872L261.705 77.2048V76.1158L298.839 97.4982V98.5872Z" fill="#171753"/>
<path d="M298.839 108.09L261.705 86.7078V85.7179L298.839 107.001V108.09Z" fill="#171753"/>
<path d="M306.288 122.642L269.154 101.359V100.27L306.288 121.553V122.642Z" fill="#171753"/>
<path d="M287.72 121.553L250.586 100.27V99.1807L287.72 120.464V121.553Z" fill="#171753"/>
<path d="M322.667 150.954L285.533 129.67V128.582L322.667 149.865V150.954Z" fill="#171753"/>
<path d="M290.401 141.847L253.267 120.464V119.375L290.401 140.758V141.847Z" fill="#171753"/>
<path d="M335.178 202.628L198.26 123.83C197.465 123.335 196.77 122.147 196.77 121.059V21.076C196.77 19.9871 197.465 19.4922 198.26 19.9871L335.178 98.7852C335.972 99.2802 336.667 100.468 336.667 101.557V201.54C336.667 202.628 335.972 203.123 335.178 202.628Z" fill="#ECFFFE"/>
<path d="M335.774 203.321C335.476 203.321 335.179 203.222 334.881 203.024L197.962 124.325C196.969 123.731 196.175 122.345 196.175 121.058V21.0759C196.175 20.284 196.473 19.69 196.969 19.3931C197.367 19.0961 197.962 19.1951 198.459 19.4921L335.377 98.2902C336.37 98.8841 337.164 100.27 337.164 101.557V201.539C337.164 202.331 336.866 202.925 336.37 203.222C336.171 203.321 335.973 203.321 335.774 203.321ZM335.476 202.133C335.576 202.133 335.774 202.232 335.874 202.232C335.973 202.133 336.072 201.935 336.072 201.539V101.557C336.072 100.666 335.476 99.5771 334.881 99.2801L197.962 20.383C197.863 20.383 197.664 20.284 197.565 20.284C197.466 20.383 197.367 20.581 197.367 20.9769V120.959C197.367 121.85 197.962 122.939 198.558 123.236L335.476 202.133Z" fill="#171753"/>
<path d="M207.988 34.1426L205.009 32.5588V31.4698L207.988 33.0537V34.1426Z" fill="#171753"/>
<path d="M207.988 43.6462L205.009 42.0623V40.9734L207.988 42.5573V43.6462Z" fill="#171753"/>
<path d="M207.988 53.1497L205.009 51.5658V50.4769L207.988 52.0608V53.1497Z" fill="#171753"/>
<path d="M207.988 62.6523L205.009 61.0684V59.9795L207.988 61.5634V62.6523Z" fill="#171753"/>
<path d="M207.988 72.2548L205.009 70.6709V69.582L207.988 71.1659V72.2548Z" fill="#171753"/>
<path d="M207.988 81.758L205.009 80.1741V79.0852L207.988 80.6691V81.758Z" fill="#171753"/>
<path d="M207.988 91.2617L205.009 89.6778V88.5889L207.988 90.1728V91.2617Z" fill="#171753"/>
<path d="M207.988 100.864L205.009 99.1807V98.0918L207.988 99.7747V100.864Z" fill="#171753"/>
<path d="M207.988 110.367L205.009 108.783V107.694L207.988 109.278V110.367Z" fill="#171753"/>
<path d="M207.988 119.87L205.009 118.286V117.198L207.988 118.781V119.87Z" fill="#171753"/>
<path d="M267.564 68.592L210.771 35.8255V34.7366L267.564 67.5031V68.592Z" fill="#171753"/>
<path d="M249.394 67.7014L210.771 45.329V44.2401L249.394 66.6124V67.7014Z" fill="#171753"/>
<path d="M226.558 63.8405L210.771 54.8322V53.7433L226.558 62.7516V63.8405Z" fill="#171753"/>
<path d="M267.564 97.2007L210.771 64.3351V63.2462L267.564 96.1117V97.2007Z" fill="#171753"/>
<path d="M243.933 92.9444L210.771 73.9378V72.8489L243.933 91.8555V92.9444Z" fill="#171753"/>
<path d="M243.933 102.547L210.771 83.441V82.3521L243.933 101.458V102.547Z" fill="#171753"/>
<path d="M250.784 116.01L210.771 92.9445V91.8556L250.784 115.02V116.01Z" fill="#171753"/>
<path d="M231.522 114.624L210.771 102.547V101.458L231.522 113.535V114.624Z" fill="#171753"/>
<path d="M267.564 144.816L210.771 112.05V110.961L267.564 143.727V144.816Z" fill="#171753"/>
<path d="M234.004 134.917L210.771 121.553V120.464L234.004 133.828V134.917Z" fill="#171753"/>
<path d="M306.188 91.0635L269.153 69.6811V68.5922L306.188 89.9746V91.0635Z" fill="#171753"/>
<path d="M288.513 89.9745L251.478 68.6911V67.6022L288.513 88.8856V89.9745Z" fill="#171753"/>
<path d="M265.877 86.3123L228.843 64.9299V63.8409L265.877 85.2233V86.3123Z" fill="#171753"/>
<path d="M304.698 107.991L267.564 86.6088V85.6189L304.698 106.902V107.991Z" fill="#171753"/>
<path d="M306.188 119.673L269.153 98.2903V97.2014L306.188 118.584V119.673Z" fill="#171753"/>
<path d="M282.357 114.822L245.323 93.5386V92.4497L282.357 113.733V114.822Z" fill="#171753"/>
<path d="M282.357 124.424L245.323 103.042V101.953L282.357 123.335V124.424Z" fill="#171753"/>
<path d="M289.803 138.976L252.768 117.594V116.505L289.803 137.887V138.976Z" fill="#171753"/>
<path d="M271.238 137.887L234.204 116.505V115.416L271.238 136.798V137.887Z" fill="#171753"/>
<path d="M306.188 167.288L269.153 145.906V144.817L306.188 166.199V167.288Z" fill="#171753"/>
<path d="M273.92 158.082L236.885 136.798V135.709L273.92 156.993V158.082Z" fill="#171753"/>
<path d="M316.413 216.586L179.495 137.788C178.701 137.293 178.005 136.105 178.005 135.016V35.0337C178.005 33.9448 178.701 33.4498 179.495 33.9448L316.413 112.743C317.207 113.238 317.902 114.426 317.902 115.515V215.497C317.902 216.586 317.207 217.081 316.413 216.586Z" fill="#9BE7C4"/>
<path d="M317.009 217.378C316.711 217.378 316.413 217.279 316.116 217.081L179.197 138.283C178.204 137.689 177.41 136.303 177.41 135.016V35.0336C177.41 34.2416 177.708 33.6477 178.204 33.3507C178.602 33.0537 179.197 33.1527 179.694 33.4497L316.612 112.248C317.605 112.842 318.399 114.228 318.399 115.515V215.497C318.399 216.289 318.101 216.883 317.605 217.18C317.506 217.279 317.208 217.378 317.009 217.378ZM316.711 216.091C316.811 216.091 317.009 216.19 317.109 216.19C317.208 216.091 317.307 215.893 317.307 215.497V115.515C317.307 114.624 316.711 113.535 316.116 113.238L179.197 34.3406C179.098 34.3406 178.899 34.2416 178.8 34.2416C178.701 34.3406 178.602 34.5386 178.602 34.9346V134.917C178.602 135.808 179.197 136.897 179.793 137.194L316.711 216.091Z" fill="#171753"/>
<path d="M189.23 48.1002L186.252 46.5163V45.4274L189.23 47.0112V48.1002Z" fill="#171753"/>
<path d="M189.23 57.6037L186.252 56.0198V54.9309L189.23 56.5148V57.6037Z" fill="#171753"/>
<path d="M189.23 67.2059L186.252 65.523V64.4341L189.23 66.117V67.2059Z" fill="#171753"/>
<path d="M189.23 76.7093L186.252 75.1254V74.0365L189.23 75.6204V76.7093Z" fill="#171753"/>
<path d="M189.23 86.2122L186.252 84.6283V83.5394L189.23 85.1233V86.2122Z" fill="#171753"/>
<path d="M189.23 95.7154L186.252 94.1315V93.0426L189.23 94.6265V95.7154Z" fill="#171753"/>
<path d="M189.23 105.318L186.252 103.734V102.645L189.23 104.229V105.318Z" fill="#171753"/>
<path d="M189.23 114.821L186.252 113.237V112.148L189.23 113.732V114.821Z" fill="#171753"/>
<path d="M189.23 124.325L186.252 122.741V121.652L189.23 123.236V124.325Z" fill="#171753"/>
<path d="M189.23 133.828L186.252 132.244V131.155L189.23 132.739V133.828Z" fill="#171753"/>
<path d="M248.799 82.5497L192.006 49.7831V48.6942L248.799 81.4608V82.5497Z" fill="#171753"/>
<path d="M230.63 81.6586L192.007 59.2863V58.1974L230.63 80.5697V81.6586Z" fill="#171753"/>
<path d="M207.793 77.7978L192.007 68.8885V67.7996L207.793 76.7089V77.7978Z" fill="#171753"/>
<path d="M248.799 111.159L192.007 78.392V77.3031L248.799 110.07V111.159Z" fill="#171753"/>
<path d="M225.268 107L192.007 87.8949V86.806L225.268 105.912V107Z" fill="#171753"/>
<path d="M225.268 116.504L192.007 97.3982V96.3093L225.268 115.415V116.504Z" fill="#171753"/>
<path d="M232.02 130.066L192.007 107.001V105.912L232.02 128.977V130.066Z" fill="#171753"/>
<path d="M212.758 128.581L192.007 116.504V115.415L212.758 127.492V128.581Z" fill="#171753"/>
<path d="M248.799 158.873L192.007 126.007V124.918L248.799 157.784V158.873Z" fill="#171753"/>
<path d="M215.24 148.874L192.007 135.51V134.421L215.24 147.785V148.874Z" fill="#171753"/>
<path d="M287.424 105.021L250.39 83.6385V82.5496L287.424 103.932V105.021Z" fill="#171753"/>
<path d="M269.75 104.031L232.716 82.6486V81.5597L269.75 102.942V104.031Z" fill="#171753"/>
<path d="M247.216 100.27L210.082 78.8873V77.7983L247.216 99.1807V100.27Z" fill="#171753"/>
<path d="M285.935 121.949L248.802 100.665V99.5763L285.935 120.86V121.949Z" fill="#171753"/>
<path d="M287.424 133.63L250.39 112.247V111.158L287.424 132.541V133.63Z" fill="#171753"/>
<path d="M263.696 128.878L226.562 107.496V106.407L263.696 127.789V128.878Z" fill="#171753"/>
<path d="M263.696 138.381L226.562 116.999V115.91L263.696 137.292V138.381Z" fill="#171753"/>
<path d="M271.043 152.933L234.008 131.65V130.561L271.043 151.845V152.933Z" fill="#171753"/>
<path d="M252.58 151.845L215.446 130.561V129.472L252.58 150.756V151.845Z" fill="#171753"/>
<path d="M287.424 181.245L250.39 159.962V158.873L287.424 180.156V181.245Z" fill="#171753"/>
<path d="M255.256 172.138L218.123 150.756V149.667L255.256 171.049V172.138Z" fill="#171753"/>
<path d="M293.076 122.33L155.264 42.938C154.073 42.245 152.882 42.1461 152.087 42.542C147.024 44.8189 143.548 47.4917 143.548 47.4917L150.201 53.9262V152.721C150.201 156.483 152.484 160.937 155.364 162.62L289.204 239.636L284.538 241.913L287.913 247.16C287.913 247.16 292.083 246.071 296.75 242.012C297.743 241.319 298.339 239.933 298.339 237.953V132.13C298.239 128.369 295.956 123.914 293.076 122.33Z" fill="#171753"/>
<path d="M287.616 247.853L283.645 241.715L287.914 239.636L154.968 163.115C151.989 161.432 149.507 156.78 149.507 152.721V54.3222L142.557 47.5907L143.053 47.1948C143.152 47.0958 146.627 44.423 151.691 42.1461C152.882 41.5522 154.173 41.7502 155.464 42.4431L293.276 121.736C296.255 123.518 298.737 128.072 298.737 132.13V237.954C298.737 240.032 298.042 241.616 296.95 242.408C292.283 246.467 288.113 247.655 287.914 247.655L287.616 247.853ZM285.333 242.111L288.113 246.467C289.205 246.071 292.581 244.784 296.354 241.517C297.247 240.923 297.744 239.537 297.744 237.954V132.13C297.744 128.567 295.56 124.31 292.879 122.726L154.968 43.433C153.975 42.8391 152.982 42.7401 152.287 43.1361H152.187C148.415 44.8189 145.436 46.7988 144.344 47.6897L150.698 53.8273V152.721C150.698 156.285 152.882 160.541 155.563 162.125L290.397 239.735L285.333 242.111Z" fill="#171753"/>
<path d="M148.512 49.966L150.2 100.056L238.169 150.74L289.898 120.449L157.944 44.5214L148.512 49.966Z" fill="#171753"/>
<path d="M238.17 151.334L149.605 100.452L147.917 49.6691L157.945 43.9275L291.09 120.449L238.17 151.334ZM150.697 99.7593L238.17 150.048L288.807 120.449L157.945 45.2144L149.108 50.263L150.697 99.7593Z" fill="#171753"/>
<path d="M257.335 241.319C257.037 240.032 256.143 238.943 255.051 238.25L249.689 235.181C244.229 232.013 239.761 224.292 239.761 218.056V182.616C239.761 182.616 239.761 182.517 239.661 182.517L234.3 179.448C234.2 179.349 234.101 179.448 234.101 179.547C234.498 180.933 234.796 182.319 234.796 183.705V209.344C234.796 210.928 234.498 212.215 233.903 213.205L233.307 209.047C233.307 208.948 233.208 208.948 233.208 208.948L221.988 210.235H221.889C219.506 207.166 217.917 203.207 217.917 199.742V174.103C217.917 172.717 218.215 171.529 218.612 170.638C218.612 170.539 218.612 170.539 218.612 170.44L213.151 167.272C213.052 167.272 212.953 167.272 212.953 167.371V202.514C212.953 208.849 208.386 211.522 202.925 208.255L197.365 205.087C196.769 204.791 196.372 204.692 195.974 204.89L195.875 204.989C195.875 204.989 190.812 206.968 185.45 211.027C185.351 211.027 185.351 211.126 185.45 211.225L189.62 214.987L241.151 243.497L246.214 249.436C246.214 249.436 246.314 249.535 246.314 249.436C247.108 249.139 253.264 246.763 256.937 243.2C257.335 242.903 257.533 242.21 257.335 241.319Z" fill="#9BE7C4"/>
<path d="M246.313 250.03C246.114 250.03 245.916 249.931 245.816 249.832L240.852 243.992L189.321 215.482L189.222 215.383L185.052 211.621C184.854 211.522 184.854 211.324 184.854 211.126C184.854 210.928 184.953 210.73 185.151 210.631C190.513 206.573 195.477 204.593 195.676 204.494H195.775C196.47 204.098 197.165 204.395 197.662 204.692L203.222 207.86C205.704 209.245 207.988 209.542 209.775 208.552C211.463 207.563 212.456 205.484 212.456 202.613V167.471C212.456 167.273 212.555 166.976 212.753 166.877C212.952 166.778 213.25 166.778 213.448 166.877L218.909 170.044C219.207 170.242 219.306 170.638 219.207 170.935C218.81 171.826 218.512 172.915 218.512 174.202V199.841C218.512 203.009 219.902 206.771 222.186 209.839L233.108 208.552C233.505 208.552 233.803 208.75 233.902 209.146L234.1 210.928C234.2 210.532 234.2 210.037 234.2 209.542V183.903C234.2 182.715 234.001 181.33 233.604 179.944C233.505 179.647 233.604 179.35 233.803 179.251C234.001 179.053 234.299 179.053 234.597 179.152L239.958 182.22C240.157 182.319 240.256 182.616 240.256 182.814V218.056C240.256 224.193 244.625 231.618 249.887 234.687L255.249 237.755C256.639 238.547 257.532 239.834 257.83 241.22C258.029 242.21 257.83 243.101 257.334 243.596C253.561 247.259 247.206 249.733 246.511 249.931C246.511 250.03 246.412 250.03 246.313 250.03ZM189.917 214.492L241.547 243.101L241.646 243.2L246.511 248.842C248.001 248.249 253.362 246.071 256.639 242.804C256.937 242.606 256.937 242.111 256.837 241.418C256.639 240.329 255.845 239.339 254.752 238.745L249.391 235.676C243.731 232.41 239.164 224.49 239.164 218.056V182.913L234.895 180.439C235.193 181.528 235.292 182.616 235.292 183.705V209.344C235.292 211.027 234.994 212.413 234.299 213.502L233.505 214.888L232.81 209.443L222.087 210.73C221.888 210.73 221.59 210.631 221.491 210.433C218.909 207.068 217.42 203.009 217.42 199.544V173.905C217.42 172.618 217.619 171.529 218.016 170.539L213.548 167.966V202.316C213.548 205.583 212.356 208.058 210.271 209.245C208.186 210.433 205.505 210.235 202.626 208.552L197.066 205.385C196.47 205.088 196.371 205.187 196.272 205.187L196.073 205.286C195.974 205.286 191.208 207.266 186.144 210.928L189.917 214.492Z" fill="#171753"/>
<path d="M246.313 250.13C246.115 250.13 245.916 250.031 245.817 249.932L242.54 246.071L246.115 245.576C246.81 245.279 252.866 242.705 256.54 239.735L257.036 239.339L257.433 239.834C257.831 240.329 257.831 240.527 257.93 240.923C257.93 241.022 257.93 241.121 258.029 241.319C258.228 242.309 258.029 243.2 257.533 243.695C253.76 247.358 247.405 249.833 246.71 250.031C246.512 250.13 246.412 250.13 246.313 250.13ZM244.725 246.863L246.512 248.942C248.001 248.348 253.363 246.17 256.639 242.903C256.937 242.705 256.937 242.21 256.838 241.517C256.838 241.319 256.738 241.22 256.738 241.022C252.668 243.992 246.71 246.467 246.512 246.566H246.412L244.725 246.863Z" fill="#171753"/>
<path d="M239.757 218.056V204.296C237.474 203.504 235.786 202.91 235.587 202.91C235.488 202.91 235.289 203.009 234.793 203.108V209.245C234.793 210.829 234.495 212.116 233.899 213.106L233.304 208.948C233.304 208.849 233.204 208.849 233.204 208.849L221.985 210.136H221.885C221.29 209.443 220.793 208.552 220.297 207.761C219.999 207.86 219.8 207.959 219.8 207.959L220.992 231.915L226.85 235.478L227.048 235.676L231.814 238.349L232.509 237.458C232.509 237.458 238.467 234.192 244.424 230.529C241.644 226.866 239.757 222.213 239.757 218.056Z" fill="#171753"/>
<path d="M244.825 244.586L239.066 241.22C233.605 238.052 229.236 230.43 229.236 224.193V188.655L223.478 185.388C223.974 186.873 224.272 188.358 224.272 189.843V215.482C224.272 220.827 220.499 223.005 215.833 220.333C211.166 217.66 207.393 211.126 207.393 205.781V180.142C207.393 178.756 207.691 177.568 208.187 176.578L202.429 173.311V208.849C202.429 215.086 198.06 217.66 192.599 214.492L186.84 211.126C185.748 210.433 184.755 211.027 184.755 212.314C184.755 213.601 185.649 215.185 186.84 215.878L244.924 249.337C246.016 250.03 247.009 249.436 247.009 248.149C246.91 246.863 246.016 245.279 244.825 244.586Z" fill="#49CE8B"/>
<path d="M245.818 250.129C245.421 250.129 245.024 250.03 244.627 249.733L186.543 216.373C185.252 215.581 184.16 213.799 184.16 212.314C184.16 211.423 184.458 210.829 185.054 210.532C185.649 210.235 186.344 210.235 187.04 210.631L192.798 213.997C195.28 215.383 197.564 215.68 199.153 214.69C200.841 213.7 201.734 211.621 201.734 208.849V172.321L208.784 176.38L208.585 176.875C208.089 177.766 207.89 178.855 207.89 180.142V205.781C207.89 210.928 211.564 217.264 216.032 219.838C218.117 221.026 220.003 221.224 221.393 220.432C222.783 219.64 223.578 217.858 223.578 215.482V189.843C223.578 188.556 223.379 187.071 222.883 185.586L222.386 184.2L229.634 188.358V224.292C229.634 230.331 233.903 237.755 239.166 240.824L244.924 244.19C246.215 244.982 247.307 246.764 247.307 248.249C247.307 249.139 247.01 249.733 246.414 250.03C246.315 250.129 246.116 250.129 245.818 250.129ZM185.848 211.423C185.749 211.423 185.649 211.423 185.55 211.522C185.352 211.621 185.252 211.918 185.252 212.314C185.252 213.403 186.047 214.789 187.04 215.383L245.123 248.842C245.52 249.04 245.818 249.139 246.017 248.941C246.215 248.842 246.315 248.545 246.315 248.15C246.315 247.061 245.52 245.675 244.527 245.081L238.769 241.715C233.208 238.448 228.641 230.628 228.641 224.193V188.952L224.372 186.477C224.67 187.566 224.769 188.655 224.769 189.744V215.383C224.769 218.155 223.776 220.333 221.989 221.323C220.202 222.312 217.918 222.114 215.436 220.729C210.571 217.957 206.699 211.225 206.699 205.682V180.043C206.699 178.756 206.897 177.667 207.294 176.677L202.826 174.103V208.651C202.826 211.918 201.734 214.294 199.649 215.482C197.564 216.67 194.883 216.373 192.103 214.789L186.344 211.423C186.245 211.522 186.047 211.423 185.848 211.423Z" fill="#171753"/>
<path d="M207.392 180.142V205.781C207.392 211.126 211.165 217.66 215.831 220.333C220.498 223.005 224.271 220.828 224.271 215.482V189.843C224.271 188.457 223.973 186.873 223.476 185.388L226.455 187.071V177.271H207.789C207.491 178.162 207.392 179.053 207.392 180.142Z" fill="#9BE7C4"/>
<path d="M219.605 222.115C218.314 222.115 216.924 221.719 215.534 220.927C210.669 218.155 206.797 211.423 206.797 205.88V180.241C206.797 179.152 206.995 178.162 207.293 177.271L207.392 176.875H227.051V188.259L224.37 186.774C224.668 187.863 224.768 188.952 224.768 190.041V215.68C224.768 218.452 223.775 220.63 221.988 221.62C221.293 221.917 220.498 222.115 219.605 222.115ZM208.187 177.964C207.988 178.657 207.889 179.35 207.889 180.241V205.88C207.889 211.027 211.562 217.363 216.03 219.937C218.115 221.125 220.002 221.323 221.392 220.531C222.782 219.739 223.576 217.957 223.576 215.581V189.942C223.576 188.655 223.378 187.17 222.881 185.685L222.385 184.299L225.761 186.279V177.964H208.187Z" fill="#171753"/>
<path d="M219.803 177.37H207.789C207.491 178.162 207.392 179.152 207.392 180.142V205.781C207.392 209.74 209.477 214.393 212.455 217.66C215.434 217.858 217.618 215.68 217.618 211.621V185.982C217.618 184.596 217.321 183.012 216.824 181.528L219.803 183.21V177.37Z" fill="#171753"/>
<path d="M212.851 218.254C212.652 218.254 212.553 218.254 212.354 218.254H212.156L211.957 218.056C208.78 214.591 206.695 209.839 206.695 205.88V180.241C206.695 179.152 206.894 178.162 207.191 177.271L207.291 176.875H220.297V184.398L217.617 182.913C217.915 184.002 218.014 185.091 218.014 186.18V211.819C218.014 214.195 217.319 215.977 216.127 217.165C215.333 217.858 214.142 218.254 212.851 218.254ZM212.652 217.066C213.744 217.066 214.638 216.769 215.333 216.175C216.326 215.185 216.922 213.7 216.922 211.72V186.081C216.922 184.794 216.723 183.309 216.227 181.825L215.73 180.439L219.106 182.418V178.063H208.085C207.886 178.756 207.787 179.449 207.787 180.34V205.979C207.886 209.542 209.773 213.898 212.652 217.066Z" fill="#171753"/>
<path d="M210.172 178.755V204.394C210.172 209.74 213.945 216.273 218.611 218.946C220.1 219.837 221.49 220.134 222.781 220.035C223.675 219.045 224.271 217.461 224.271 215.383V189.743C224.271 188.358 223.973 186.774 223.476 185.289L226.455 186.972V184.299C226.455 184.101 226.356 184.002 226.356 183.804L226.455 183.903V177.072H210.37C210.271 177.765 210.172 178.26 210.172 178.755Z" fill="#9BE7C4"/>
<path d="M222.484 220.728C221.193 220.728 219.803 220.333 218.413 219.541C213.548 216.769 209.676 210.037 209.676 204.494V178.855C209.676 178.36 209.676 177.865 209.775 177.37L209.874 176.875H227.15V188.259L224.47 186.774C224.767 187.863 224.867 188.952 224.867 190.041V215.68C224.867 217.759 224.271 219.442 223.278 220.63L223.08 220.827H222.881C222.682 220.729 222.583 220.728 222.484 220.728ZM210.867 177.964C210.867 178.261 210.867 178.558 210.867 178.855V204.494C210.867 209.641 214.541 215.977 219.009 218.551C220.299 219.244 221.491 219.64 222.583 219.64C223.377 218.65 223.775 217.264 223.775 215.581V189.942C223.775 188.655 223.576 187.17 223.08 185.685L222.583 184.299L225.959 186.279V184.596C225.959 184.497 225.959 184.398 225.86 184.299L225.363 182.913L225.959 183.21V177.964H210.867Z" fill="#171753"/>
<path d="M259.717 145.989L258.128 222.115L288.411 239.537L298.241 233.895V132.526C298.241 130.052 297.248 127.379 295.858 125.399L278.88 135.199L259.717 145.989Z" fill="#171753"/>
<path d="M288.412 240.23L257.533 222.411V222.115L259.122 145.692L278.582 134.605L296.057 124.607L296.355 125.003C297.943 127.181 298.837 130.051 298.837 132.526V234.291L288.412 240.23ZM258.725 221.818L288.412 238.943L297.645 233.697V132.526C297.645 130.447 296.95 128.072 295.66 126.092L279.079 135.595L260.214 146.286L258.725 221.818Z" fill="#171753"/>
<path d="M284.735 246.764L146.923 167.471C144.044 165.788 141.76 161.432 141.76 157.572V51.7485C141.76 47.9868 144.044 46.2049 146.923 47.8878L284.735 127.181C287.614 128.864 289.898 133.219 289.898 137.08V242.903C289.898 246.665 287.614 248.447 284.735 246.764Z" fill="#49CE8B"/>
<path d="M286.821 247.952C286.126 247.952 285.331 247.754 284.438 247.259L146.626 167.966C143.647 166.283 141.165 161.63 141.165 157.571V51.7483C141.165 49.5704 141.959 47.8876 143.25 47.0956C144.342 46.4027 145.732 46.5017 147.222 47.3926L285.033 126.686C288.012 128.369 290.494 133.021 290.494 137.08V242.903C290.494 245.081 289.7 246.764 288.409 247.556C287.913 247.853 287.317 247.952 286.821 247.952ZM285.033 246.368C286.126 246.962 287.119 247.061 287.814 246.665C288.806 246.071 289.303 244.784 289.303 243.002V137.08C289.303 133.516 287.119 129.259 284.438 127.676L146.626 48.3825C145.534 47.7886 144.541 47.6896 143.846 48.0855C142.853 48.6795 142.356 49.9664 142.356 51.7483V157.67C142.356 161.234 144.541 165.491 147.222 167.075L285.033 246.368Z" fill="#171753"/>
<path d="M284.243 235.578L147.424 156.78C146.63 156.285 145.935 155.097 145.935 154.008V54.0255C145.935 52.9366 146.63 52.4416 147.424 52.9366L284.342 131.735C285.137 132.23 285.832 133.418 285.832 134.506V234.489C285.732 235.578 285.037 236.073 284.243 235.578Z" fill="#ECFFFE"/>
<path d="M284.839 236.271C284.542 236.271 284.244 236.172 283.946 235.974L147.127 157.275C146.134 156.681 145.34 155.295 145.34 154.008V54.0254C145.34 53.2335 145.637 52.6395 146.134 52.3425C146.531 52.0455 147.127 52.1445 147.623 52.4415L284.542 131.24C285.534 131.834 286.329 133.219 286.329 134.506V234.489C286.329 235.281 286.031 235.875 285.534 236.172C285.336 236.271 285.137 236.271 284.839 236.271ZM284.542 235.083C284.641 235.083 284.839 235.182 284.939 235.182C285.038 235.083 285.137 234.885 285.137 234.489V134.506C285.137 133.615 284.542 132.527 283.946 132.23L147.127 53.3324C147.027 53.3324 146.829 53.2335 146.73 53.2335C146.63 53.3324 146.531 53.5304 146.531 53.9264V153.909C146.531 154.8 147.127 155.889 147.723 156.186L284.542 235.083Z" fill="#171753"/>
<path d="M285.534 234.785L148.715 155.987C147.921 155.492 147.226 154.304 147.226 153.215V53.2329C147.226 53.1339 147.226 52.9359 147.226 52.8369C146.531 52.54 145.935 53.0349 145.935 54.0248V154.007C145.935 155.096 146.63 156.383 147.424 156.779L284.342 235.577C285.037 235.973 285.633 235.676 285.832 234.884C285.633 234.785 285.633 234.785 285.534 234.785Z" fill="#171753"/>
<path d="M284.839 236.27C284.542 236.27 284.244 236.171 283.946 235.973L147.127 157.274C146.134 156.68 145.34 155.294 145.34 154.007V54.0247C145.34 53.3318 145.637 52.7378 146.035 52.4408C146.432 52.1439 146.928 52.1439 147.425 52.3418L147.822 52.5398V52.8368C147.822 52.9358 147.822 53.0348 147.822 53.1338V153.116C147.822 154.007 148.418 155.096 149.013 155.393L285.832 234.29L285.534 234.785L285.832 234.29L286.329 234.488V234.983C286.229 235.577 285.932 235.973 285.435 236.171C285.237 236.27 285.038 236.27 284.839 236.27ZM146.63 53.3318C146.531 53.4308 146.531 53.6287 146.531 53.9257V153.908C146.531 154.799 147.127 155.888 147.723 156.185L284.641 234.983C284.839 235.082 284.939 235.082 285.038 235.082C285.038 235.082 285.038 235.082 285.137 235.082L148.418 156.482C147.425 155.888 146.63 154.502 146.63 153.215V53.3318Z" fill="#171753"/>
<path d="M220.794 205.385L210.865 199.643C210.468 199.346 210.07 198.752 210.07 198.158C210.07 197.564 210.468 197.267 210.865 197.564L220.794 203.306C221.191 203.603 221.588 204.197 221.588 204.791C221.588 205.385 221.191 205.682 220.794 205.385Z" fill="#171753"/>
<path d="M221.092 206.078C220.893 206.078 220.695 205.979 220.496 205.88L210.568 200.138C209.972 199.742 209.475 198.95 209.475 198.158C209.475 197.663 209.674 197.267 210.071 197.069C210.369 196.871 210.766 196.871 211.163 197.069L221.092 202.811C221.688 203.207 222.184 203.999 222.184 204.791C222.184 205.286 221.986 205.682 221.588 205.88C221.39 205.979 221.291 206.078 221.092 206.078ZM210.667 198.059C210.667 198.158 210.667 198.158 210.667 198.059C210.667 198.554 210.965 199.049 211.163 199.148L220.993 204.791V204.692C220.993 204.296 220.695 203.801 220.496 203.702L210.667 198.059Z" fill="#171753"/>
<path d="M211.894 212.611L209.914 213.746L210.459 214.69L212.439 213.555L211.894 212.611Z" fill="#ECFFFE"/>
<path d="M295.26 211.126L292.877 212.512C292.48 212.71 292.083 212.512 292.083 211.918V205.484C292.083 204.89 292.381 204.296 292.877 203.999L295.26 202.613C295.657 202.415 296.055 202.613 296.055 203.207V209.641C296.055 210.235 295.657 210.928 295.26 211.126Z" fill="#171753"/>
<path d="M295.26 198.554L292.877 199.94C292.48 200.138 292.083 199.94 292.083 199.346V192.912C292.083 192.318 292.381 191.724 292.877 191.427L295.26 190.041C295.657 189.843 296.055 190.041 296.055 190.635V197.069C296.055 197.564 295.657 198.257 295.26 198.554Z" fill="#171753"/>
<path d="M152.336 151.4L146.404 154.815L146.95 155.758L152.883 152.343L152.336 151.4Z" fill="#ECFFFE"/>
<path d="M169.981 55.3566L169.434 56.2996L268.401 113.27L268.948 112.327L169.981 55.3566Z" fill="#171753"/>
<path d="M155.867 66.7952L152.789 65.2114V64.1224L155.867 65.7063V66.7952Z" fill="#171753"/>
<path d="M155.867 76.3974L152.789 74.7145V73.6256L155.867 75.3085V76.3974Z" fill="#171753"/>
<path d="M155.867 85.9008L152.789 84.3169V83.228L155.867 84.8119V85.9008Z" fill="#171753"/>
<path d="M155.867 95.4039L152.789 93.82V92.7311L155.867 94.315V95.4039Z" fill="#171753"/>
<path d="M155.867 104.907L152.789 103.323V102.234L155.867 103.818V104.907Z" fill="#171753"/>
<path d="M155.867 124.013L152.789 122.429V121.34L155.867 122.924V124.013Z" fill="#171753"/>
<path d="M155.867 133.516L152.789 131.932V130.843L155.867 132.427V133.516Z" fill="#171753"/>
<path d="M155.867 143.019L152.789 141.435V140.346L155.867 142.029V143.019Z" fill="#171753"/>
<path d="M215.439 101.343L158.647 68.4776V67.3887L215.439 100.254V101.343Z" fill="#171753"/>
<path d="M197.17 100.353L158.647 78.0801V76.9912L197.17 99.2645V100.353Z" fill="#171753"/>
<path d="M174.433 96.5916L158.647 87.5833V86.4944L174.433 95.5027V96.5916Z" fill="#171753"/>
<path d="M215.439 129.952L158.647 97.0867V95.9978L215.439 128.863V129.952Z" fill="#171753"/>
<path d="M191.809 125.695L158.647 106.59V105.501L191.809 124.606V125.695Z" fill="#171753"/>
<path d="M191.809 135.199L158.647 116.192V115.103L191.809 134.11V135.199Z" fill="#171753"/>
<path d="M198.66 148.761L158.647 125.695V124.607L198.66 147.672V148.761Z" fill="#171753"/>
<path d="M179.398 147.276L158.647 135.199V134.11L179.398 146.187V147.276Z" fill="#171753"/>
<path d="M215.439 177.567L158.647 144.702V143.712L215.439 176.478V177.567Z" fill="#171753"/>
<path d="M254.057 123.716L216.923 102.432V101.343L254.057 122.627V123.716Z" fill="#171753"/>
<path d="M236.387 122.726L199.254 101.343V100.254L236.387 121.637V122.726Z" fill="#171753"/>
<path d="M213.748 118.964L176.713 97.6802V96.5913L213.748 117.875V118.964Z" fill="#171753"/>
<path d="M252.47 140.742L215.436 119.36V118.271L252.47 139.653V140.742Z" fill="#171753"/>
<path d="M254.057 152.324L216.923 131.041V129.952L254.057 151.235V152.324Z" fill="#171753"/>
<path d="M230.232 147.573L193.197 126.191V125.102L230.232 146.484V147.573Z" fill="#171753"/>
<path d="M230.232 157.076L193.197 135.793V134.704L230.232 155.987V157.076Z" fill="#171753"/>
<path d="M237.678 171.727L200.544 150.345V149.256L237.678 170.638V171.727Z" fill="#171753"/>
<path d="M219.112 170.638L182.078 149.256V148.167L219.112 169.549V170.638Z" fill="#171753"/>
<path d="M254.057 200.039L216.923 178.656V177.567L254.057 198.95V200.039Z" fill="#171753"/>
<path d="M152.789 148.38V102.226C152.789 100.191 154.064 99.1742 155.594 100.064L190.664 120.281C192.194 121.171 193.469 123.586 193.469 125.621V171.775L152.789 148.38Z" fill="white"/>
<path d="M194.107 172.919L157.161 151.646C154.061 149.861 152.151 146.557 152.151 142.98V102.226C152.151 100.954 152.661 99.9371 153.426 99.4285C154.191 99.0471 154.956 99.0471 155.849 99.5557L190.919 119.772C192.704 120.789 193.979 123.332 193.979 125.621V172.919H194.107ZM153.426 147.999L192.832 170.758V125.748C192.832 123.968 191.684 121.679 190.281 120.916L155.212 100.7C154.829 100.446 154.446 100.319 153.936 100.573C153.554 100.827 153.299 101.463 153.299 102.353V147.871C153.299 147.941 153.356 147.999 153.426 147.999Z" fill="#171753"/>
<path d="M177.762 153.584L185.004 157.762V149.407L177.762 145.229V153.584Z" fill="#9BE7C4" stroke="#171753" stroke-miterlimit="10" stroke-linejoin="round"/>
<path d="M168.015 147.948L175.257 152.125V143.77L168.015 139.593V147.948Z" fill="#9BE7C4" stroke="#171753" stroke-miterlimit="10" stroke-linejoin="round"/>
<path d="M158.268 142.082L165.51 146.259V137.904L158.268 133.727V142.082Z" fill="#9BE7C4" stroke="#171753" stroke-miterlimit="10" stroke-linejoin="round"/>
<path d="M177.762 141.553L185.004 145.731V137.376L177.762 133.198V141.553Z" fill="#9BE7C4" stroke="#171753" stroke-miterlimit="10" stroke-linejoin="round"/>
<path d="M177.412 129.887L184.654 134.064V125.709L177.412 121.532V129.887Z" fill="#9BE7C4" stroke="#171753" stroke-miterlimit="10" stroke-linejoin="round"/>
<path d="M168.015 135.917L175.257 140.094V131.739L168.015 127.562V135.917Z" fill="#9BE7C4" stroke="#171753" stroke-miterlimit="10" stroke-linejoin="round"/>
<path d="M167.665 124.25L174.907 128.427V120.073L167.665 115.895V124.25Z" fill="#9BE7C4" stroke="#171753" stroke-miterlimit="10" stroke-linejoin="round"/>
<path d="M158.268 130.051L165.51 134.228V125.874L158.268 121.696V130.051Z" fill="#9BE7C4" stroke="#171753" stroke-miterlimit="10" stroke-linejoin="round"/>
<path d="M157.918 118.384L165.16 122.561V114.207L157.918 110.029V118.384Z" fill="#9BE7C4" stroke="#171753" stroke-miterlimit="10" stroke-linejoin="round"/>
<path d="M315.011 283.149H313.009V278.473H315.011V283.149ZM315.011 273.796H313.009V269.12H315.011V273.796Z" fill="#171753"/>
<path d="M331.864 263.442H329.862V258.765H331.864V263.442ZM331.864 254.089H329.862V249.412H331.864V254.089ZM331.864 244.569H329.862V239.892H331.864V244.569Z" fill="#171753"/>
<path d="M342.708 252.753H337.869V250.749H342.541V252.753H342.708ZM333.197 252.753H328.525V250.749H333.197V252.753ZM323.686 252.753H319.015V250.749H323.686V252.753Z" fill="#171753"/>
<path d="M329.858 14.1964H327.856V9.51991H329.858V14.1964ZM329.858 4.67645H327.856V0H329.858V4.67645Z" fill="#171753"/>
<path d="M342.704 46.7643H340.701V42.0878H342.704V46.7643ZM342.704 37.2443H340.701V32.5679H342.704V37.2443ZM342.704 27.7244H340.701V23.048H342.704V27.7244Z" fill="#171753"/>
<path d="M353.55 35.9082H348.878V33.9041H353.55V35.9082ZM344.039 35.9082H339.367V33.9041H344.039V35.9082ZM334.529 35.9082H329.857V33.9041H334.529V35.9082Z" fill="#171753"/>
<path d="M90.2575 70.1955H88.2552V65.5191H90.2575V70.1955ZM90.2575 60.6756H88.2552V55.9991H90.2575V60.6756ZM90.2575 51.3227H88.2552V46.6462H90.2575V51.3227Z" fill="#171753"/>
<path d="M101.104 59.3395H96.4318V57.3353H101.104V59.3395ZM91.593 59.3395H86.9211V57.3353H91.593V59.3395ZM82.0823 59.3395H77.4104V57.3353H82.0823V59.3395Z" fill="#171753"/>
<path d="M116.122 74.0368H111.45V72.0326H116.122V74.0368ZM106.612 74.0368H101.94V72.0326H106.612V74.0368Z" fill="#171753"/>
<path d="M212.246 255.176V245.253L201.297 245.424L100.697 187.938C96.2484 185.372 90.7736 185.372 86.3253 187.938L48.5148 210.18L30.0373 213.601V223.524C29.8662 225.577 30.7216 227.631 32.7747 228.828L141.587 291.104C146.035 293.671 151.51 293.671 155.958 291.104L209.338 259.795C211.22 258.94 212.075 257.058 212.246 255.176Z" fill="#49CE8B"/>
<path d="M148.77 293.842C146.204 293.842 143.637 293.157 141.242 291.789L32.43 229.513C30.3769 228.315 29.1793 225.92 29.3504 223.524V213.088L48.1701 209.495L85.8095 187.254C90.4289 184.516 96.2459 184.516 100.865 187.254L201.294 244.739L212.757 244.397V255.689C212.586 257.571 211.388 259.282 209.677 260.308L156.298 291.618C153.903 293.157 151.336 293.842 148.77 293.842ZM30.7191 214.286V223.696C30.548 225.749 31.4035 227.459 33.1143 228.315L141.926 290.591C146.204 292.986 151.336 292.986 155.442 290.591L208.822 259.282C210.362 258.426 211.217 256.887 211.217 255.176V255.005V246.108L200.781 246.279L100.01 188.622C95.7326 186.227 90.6 186.227 86.4939 188.622L48.6834 210.864L30.7191 214.286Z" fill="#171753"/>
<path d="M32.7724 219.075L141.585 281.352C146.033 283.918 151.508 283.918 155.956 281.352L209.336 250.042C213.099 247.818 213.099 242.515 209.336 240.461L100.523 178.185C96.0751 175.619 90.6002 175.619 86.152 178.185L32.7724 209.323C29.1795 211.548 29.1795 216.851 32.7724 219.075Z" fill="#ECFFFE"/>
<path d="M148.772 283.918C146.205 283.918 143.639 283.234 141.244 281.865L32.4318 219.589C30.5498 218.391 29.3522 216.338 29.3522 214.114C29.3522 211.89 30.5498 209.837 32.4318 208.639L85.8113 177.33C90.4307 174.593 96.2477 174.593 100.867 177.33L209.679 239.606C211.732 240.804 212.759 242.857 212.759 245.081C212.759 247.305 211.561 249.358 209.679 250.556L156.3 281.865C153.904 283.234 151.338 283.918 148.772 283.918ZM33.1161 218.391L141.928 280.667C146.205 283.063 151.338 283.063 155.444 280.667L208.824 249.358C210.364 248.503 211.219 246.963 211.219 245.081C211.219 243.37 210.364 241.659 208.824 240.804L100.183 178.699C95.9055 176.304 90.7729 176.304 86.6668 178.699L33.2872 210.008C31.7474 210.863 30.892 212.403 30.892 214.285C30.7209 215.996 31.7474 217.536 33.1161 218.391Z" fill="#171753"/>
<path d="M36.3639 220.616H34.9952V230.881H36.3639V220.616Z" fill="#171753"/>
<path d="M149.116 282.892H147.747V293.157H149.116V282.892Z" fill="#171753"/>
<path d="M155.442 281.523H154.073V291.788H155.442V281.523Z" fill="#171753"/>
<path d="M207.8 250.899H206.431V261.164H207.8V250.899Z" fill="#171753"/>
<path d="M157.16 280.497V290.42L205.065 262.361V252.438L157.16 280.497Z" fill="#171753"/>
<path d="M182.82 229.854L158.012 227.801L154.419 230.196C148.944 230.709 143.812 232.078 139.705 234.302C138.166 235.157 136.968 236.013 135.941 236.868L131.493 236.013V245.423C131.493 249.358 134.059 253.293 139.363 256.372C149.971 262.531 166.908 262.531 177.516 256.372C178.714 255.688 179.74 255.004 180.767 254.148V244.738L168.962 242.685L182.991 239.092L182.82 229.854Z" fill="#49CE8B"/>
<path d="M130.64 235.842L131.153 235.5H131.495L135.601 236.184C136.799 235.158 137.997 234.473 139.194 233.618C143.3 231.394 148.433 229.854 154.079 229.512L157.843 226.945H158.185L183.677 229.169V229.854V239.606L183.164 239.777L171.872 242.685L181.282 244.396V254.662L181.111 254.833C180.084 255.688 178.887 256.544 177.689 257.228C166.91 263.387 149.631 263.387 138.852 257.228C133.719 254.319 130.811 250.384 130.64 246.107V245.765V235.842ZM158.185 228.485L154.421 230.88C148.775 231.394 143.814 232.762 139.879 234.986C138.51 235.671 137.312 236.526 136.115 237.553L135.772 237.724L135.43 237.553L131.837 236.868V245.423C131.837 249.358 134.575 252.951 139.365 255.859C149.631 261.847 166.568 261.847 176.834 255.859C177.86 255.346 178.887 254.662 179.742 253.806V245.252L167.937 243.199V242.172L168.45 242.001L181.966 238.408V230.196L158.185 228.485Z" fill="#171753"/>
<path d="M158.36 236.184L182.825 229.854C181.114 227.63 178.548 225.748 174.955 224.037C164.519 219.246 149.121 219.588 139.54 224.892C128.59 230.88 128.419 240.974 139.198 247.134C149.805 253.293 166.743 253.293 177.351 247.134C178.548 246.449 179.575 245.765 180.601 244.909L158.36 236.184Z" fill="#ECFFFE"/>
<path d="M132.523 230.367C134.063 228.143 136.287 226.09 139.367 224.379C149.119 218.904 164.688 218.562 175.466 223.352C178.888 224.892 181.625 226.945 183.507 229.34L183.678 229.682L183.507 230.367L183.165 230.538L160.582 236.355L181.283 244.567L181.454 245.251L181.112 245.594C180.086 246.449 179.059 247.133 177.861 247.818C167.083 253.977 149.803 253.977 139.024 247.818C133.721 244.738 130.812 240.632 130.812 236.184C130.641 234.131 131.325 232.078 132.523 230.367ZM181.625 229.511C179.914 227.629 177.519 226.09 174.782 224.721C164.345 219.93 149.461 220.444 140.051 225.576C134.918 228.314 132.181 232.078 132.181 236.184C132.181 240.119 134.747 243.883 139.709 246.62C149.974 252.608 166.912 252.608 177.177 246.62C178.033 246.107 178.717 245.765 179.401 245.08L157.844 236.526V235.499L158.357 235.328L181.625 229.511Z" fill="#171753"/>
<path d="M180.603 245.08L158.361 236.355L166.06 251.239C170.166 250.555 174.101 249.186 177.523 247.304C178.55 246.62 179.576 245.936 180.603 245.08Z" fill="#ECFFFE"/>
<path d="M157.504 236.184L158.189 235.499L158.702 235.67L181.114 244.567L181.285 245.423L180.943 245.765C179.917 246.62 178.89 247.304 177.693 247.989C174.442 249.871 170.336 251.24 166.059 251.924H165.545L157.504 236.184ZM179.232 245.251L159.728 237.552L166.401 250.384C170.336 249.7 174.1 248.331 177.179 246.62C177.864 246.278 178.548 245.765 179.232 245.251Z" fill="#171753"/>
<path d="M158.362 236.356V251.925C160.928 251.925 163.495 251.754 166.061 251.24L158.362 236.356Z" fill="#171753"/>
<path d="M175.642 248.331V257.57C177.182 257.057 179.406 255.346 180.946 254.32L180.604 245.081L175.642 248.331Z" fill="#171753"/>
<path d="M157.675 235.842L158.702 235.5L158.873 236.013L166.914 251.753L166.059 251.924C163.492 252.438 160.926 252.609 158.36 252.609H157.675V235.842ZM165.032 250.727L159.044 239.093V251.24C160.926 251.069 162.979 250.898 165.032 250.727Z" fill="#171753"/>
<path d="M158.35 251.924V236.355L152.876 251.582C154.758 251.753 156.468 251.924 158.35 251.924Z" fill="#49CE8B"/>
<path d="M157.842 235.67L159.04 235.841V236.355V252.437H158.355C156.473 252.437 154.762 252.266 152.88 252.095L152.025 251.924L157.842 235.67ZM157.671 251.239V240.29L153.736 251.068C155.104 251.068 156.473 251.068 157.671 251.239Z" fill="#171753"/>
<path d="M165.274 251.188L165.257 260.598L166.626 260.6L166.642 251.19L165.274 251.188Z" fill="#171753"/>
<path d="M136.163 245.427L136.147 254.837L137.515 254.839L137.532 245.429L136.163 245.427Z" fill="#171753"/>
<path d="M139.208 247.76L139.193 257.17L140.561 257.173L140.577 247.763L139.208 247.76Z" fill="#171753"/>
<path d="M176.462 231.545L176.445 240.955L177.814 240.958L177.831 231.548L176.462 231.545Z" fill="#171753"/>
<g clip-path="url(#clip0_689_109721)">
<path d="M74.0621 173.198V98.7479C74.0621 95.4282 76.0909 93.8906 78.6139 95.2534L135.674 127.927C137.061 128.913 138.196 130.208 138.986 131.707C139.777 133.206 140.202 134.867 140.226 136.558V210.991L74.0621 173.198Z" fill="#ECFFFE"/>
<path d="M141.179 212.738L73.0384 173.775V98.7479C72.9541 97.8816 73.1023 97.0085 73.4679 96.217C73.8334 95.4254 74.4033 94.7435 75.1202 94.24C75.7465 93.9168 76.4496 93.7673 77.1547 93.8072C77.8597 93.8472 78.5405 94.0753 79.1254 94.4672L136.115 127.071C137.661 128.138 138.928 129.556 139.809 131.206C140.69 132.857 141.16 134.692 141.179 136.558V212.738ZM75.0673 172.552L139.167 209.244V136.558C139.138 135.043 138.757 133.555 138.053 132.21C137.35 130.864 136.342 129.698 135.109 128.801L78.1024 96.1969C77.8216 95.9988 77.4949 95.8741 77.1525 95.8344C76.8102 95.7947 76.4631 95.8412 76.1437 95.9698C75.7467 96.3089 75.4407 96.7401 75.2529 97.2249C75.0651 97.7096 75.0011 98.2329 75.0673 98.7479V172.552Z" fill="#171753"/>
<path d="M133.433 196.314L80.8012 166.227C80.2534 165.82 79.8088 165.292 79.5025 164.686C79.1963 164.079 79.0369 163.41 79.0369 162.732V103.57C79.0369 102.225 79.8661 101.613 80.8012 102.19L133.433 132.278C133.981 132.684 134.427 133.211 134.733 133.818C135.039 134.424 135.198 135.094 135.197 135.772V194.951C135.25 196.262 134.438 196.891 133.433 196.314Z" fill="#49CE8B"/>
<path d="M129.392 173.897L118.806 150.869C118.594 150.432 118.189 150.152 117.942 150.292L103.297 159.36C102.521 159.849 101.216 157.997 101.762 157.194L106.667 150.047C106.762 149.863 106.811 149.66 106.811 149.453C106.811 149.247 106.762 149.043 106.667 148.859L100.245 134.252C99.6803 132.942 98.4808 132.173 97.7926 132.75C94.9167 135.388 87.9298 141.765 84.9833 144.421C84.5053 144.923 84.1377 145.517 83.9038 146.167C83.67 146.817 83.5749 147.507 83.6247 148.195V160.216C83.6598 160.914 83.8603 161.594 84.2097 162.201C84.5591 162.808 85.0474 163.325 85.6359 163.711L128.51 188.172C129.639 188.801 130.539 188.277 130.539 187.002V178.842C130.505 177.133 130.114 175.45 129.392 173.897Z" fill="#ECFFFE"/>
<path d="M129.463 189.465C128.964 189.461 128.476 189.322 128.051 189.063L85.177 164.602C84.4304 164.138 83.8091 163.501 83.3665 162.746C82.9239 161.991 82.6732 161.141 82.6364 160.269V148.248C82.5881 147.415 82.7206 146.582 83.0249 145.804C83.3293 145.027 83.7985 144.323 84.4008 143.74C87.3649 141.066 94.3342 134.706 97.2101 132.068C97.4278 131.87 97.6923 131.73 97.979 131.66C98.2657 131.59 98.5652 131.592 98.8509 131.666C99.4008 131.833 99.9058 132.121 100.327 132.508C100.749 132.895 101.077 133.372 101.286 133.903L107.708 148.527C107.884 148.855 107.976 149.221 107.976 149.593C107.976 149.964 107.884 150.331 107.708 150.659L102.821 157.805C102.911 158.031 103.043 158.238 103.209 158.417L117.624 149.505C117.788 149.404 117.973 149.34 118.165 149.319C118.358 149.297 118.553 149.32 118.735 149.383C119.003 149.476 119.248 149.624 119.455 149.816C119.662 150.009 119.826 150.242 119.935 150.501L130.433 173.548C131.244 175.231 131.683 177.065 131.721 178.929V187.089C131.75 187.516 131.662 187.942 131.466 188.323C131.271 188.705 130.975 189.027 130.61 189.255C130.257 189.436 129.858 189.509 129.463 189.465ZM98.4098 133.553C95.4809 136.226 88.6176 142.499 85.6887 145.12C85.3219 145.533 85.0426 146.015 84.8668 146.537C84.6911 147.06 84.6227 147.611 84.6657 148.16V160.181C84.7071 160.7 84.8645 161.202 85.127 161.653C85.3895 162.103 85.7502 162.49 86.1828 162.785L129.057 187.246C129.183 187.329 129.329 187.378 129.481 187.386C129.554 187.252 129.585 187.1 129.569 186.949V178.789C129.523 177.211 129.151 175.659 128.475 174.229L118.03 151.462L103.915 160.199C103.54 160.412 103.1 160.481 102.678 160.394C102.255 160.307 101.879 160.07 101.621 159.727C101.192 159.344 100.901 158.833 100.793 158.272C100.685 157.71 100.765 157.129 101.021 156.617L105.908 149.471C105.908 149.471 105.909 149.471 105.785 149.243L99.3626 134.636C99.1848 134.184 98.8458 133.811 98.4098 133.588V133.553Z" fill="#171753"/>
<path d="M116.124 137.974C116.124 141.154 113.866 142.447 111.078 140.857C109.615 139.91 108.397 138.635 107.523 137.136C106.65 135.636 106.145 133.954 106.05 132.225C106.05 129.045 108.308 127.752 111.078 129.342C112.546 130.286 113.768 131.56 114.645 133.06C115.522 134.559 116.029 136.243 116.124 137.974Z" fill="#ECFFFE"/>
<path d="M113.336 142.534C112.361 142.511 111.41 142.227 110.583 141.713C108.962 140.685 107.612 139.287 106.649 137.636C105.685 135.985 105.134 134.13 105.043 132.225C104.917 131.425 105.038 130.605 105.391 129.874C105.743 129.143 106.31 128.535 107.018 128.129C107.726 127.722 108.541 127.538 109.357 127.598C110.172 127.659 110.951 127.962 111.589 128.469C113.21 129.502 114.558 130.903 115.522 132.556C116.486 134.21 117.037 136.067 117.129 137.974C117.203 138.768 117.058 139.568 116.711 140.288C116.363 141.008 115.825 141.621 115.153 142.062C114.602 142.379 113.974 142.542 113.336 142.534ZM108.837 129.657C108.552 129.652 108.271 129.724 108.025 129.866C107.673 130.144 107.399 130.507 107.229 130.92C107.059 131.333 106.999 131.783 107.055 132.225C107.155 133.777 107.617 135.285 108.403 136.631C109.19 137.976 110.281 139.124 111.589 139.983C111.945 140.256 112.367 140.432 112.813 140.493C113.258 140.554 113.712 140.499 114.13 140.332C114.482 140.054 114.756 139.692 114.926 139.279C115.096 138.866 115.156 138.416 115.1 137.974C115.003 136.423 114.545 134.916 113.761 133.57C112.978 132.224 111.89 131.076 110.583 130.216C110.061 129.88 109.459 129.687 108.837 129.657Z" fill="#171753"/>
</g>
<g clip-path="url(#clip1_689_109721)">
<path d="M53.0658 184.433V109.982C53.0658 106.663 55.0945 105.125 57.6176 106.488L114.677 139.161C116.065 140.147 117.199 141.442 117.99 142.941C118.781 144.44 119.205 146.102 119.23 147.793V222.226L53.0658 184.433Z" fill="#ECFFFE"/>
<path d="M120.183 223.973L52.0424 185.009V109.982C51.9581 109.116 52.1063 108.243 52.4719 107.451C52.8375 106.66 53.4073 105.978 54.1243 105.474C54.7505 105.151 55.4537 105.002 56.1587 105.042C56.8638 105.082 57.5445 105.31 58.1294 105.702L115.119 138.305C116.665 139.372 117.932 140.79 118.813 142.441C119.694 144.091 120.164 145.926 120.183 147.793V223.973ZM54.0713 183.786L118.171 220.478V147.793C118.142 146.278 117.761 144.79 117.058 143.444C116.354 142.099 115.346 140.932 114.113 140.035L57.1064 107.431C56.8257 107.233 56.4989 107.109 56.1566 107.069C55.8142 107.029 55.4671 107.076 55.1477 107.204C54.7507 107.543 54.4447 107.974 54.2569 108.459C54.0691 108.944 54.0052 109.467 54.0713 109.982V183.786Z" fill="#171753"/>
<path d="M112.436 207.549L59.8049 177.461C59.2571 177.054 58.8124 176.527 58.5062 175.92C58.1999 175.314 58.0405 174.645 58.0405 173.967V114.805C58.0405 113.459 58.8698 112.848 59.8049 113.424L112.436 143.512C112.985 143.918 113.43 144.445 113.737 145.052C114.043 145.659 114.202 146.328 114.201 147.007V206.186C114.254 207.496 113.442 208.125 112.436 207.549Z" fill="#9BE7C4"/>
<path d="M108.396 185.132L97.8096 162.103C97.5978 161.666 97.1921 161.386 96.945 161.526L82.3007 170.594C81.5244 171.084 80.2189 169.232 80.7659 168.428L85.6709 161.282C85.7654 161.098 85.8148 160.894 85.8148 160.688C85.8148 160.481 85.7654 160.278 85.6709 160.094L79.2484 145.487C78.6838 144.176 77.4842 143.407 76.7961 143.984C73.9201 146.622 66.9332 153 63.9867 155.656C63.5087 156.157 63.1411 156.752 62.9072 157.401C62.6734 158.051 62.5783 158.742 62.6281 159.43V171.451C62.6632 172.148 62.8637 172.828 63.2131 173.435C63.5625 174.043 64.0508 174.56 64.6393 174.945L107.514 199.407C108.643 200.036 109.543 199.511 109.543 198.236V190.076C109.508 188.367 109.117 186.684 108.396 185.132Z" fill="#ECFFFE"/>
<path d="M108.467 200.699C107.968 200.695 107.48 200.557 107.055 200.298L64.1806 175.836C63.434 175.372 62.8128 174.735 62.3702 173.98C61.9276 173.225 61.6769 172.375 61.6401 171.503V159.482C61.5918 158.649 61.7242 157.816 62.0286 157.038C62.3329 156.261 62.8021 155.557 63.4044 154.974C66.3686 152.301 73.3379 145.941 76.2138 143.302C76.4315 143.105 76.696 142.964 76.9827 142.894C77.2694 142.824 77.5689 142.826 77.8545 142.9C78.4045 143.067 78.9095 143.355 79.3311 143.742C79.7528 144.13 80.0804 144.606 80.2896 145.137L86.7117 159.761C86.8878 160.09 86.9801 160.456 86.9801 160.827C86.9801 161.199 86.8878 161.565 86.7117 161.893L81.8244 169.039C81.9147 169.265 82.0466 169.472 82.2129 169.651L96.6277 160.74C96.7917 160.638 96.9767 160.574 97.1691 160.553C97.3616 160.532 97.5564 160.554 97.739 160.618C98.0068 160.71 98.2521 160.858 98.4588 161.051C98.6655 161.243 98.8292 161.477 98.9391 161.736L109.437 184.782C110.248 186.465 110.687 188.3 110.725 190.164V198.323C110.754 198.75 110.666 199.176 110.47 199.558C110.274 199.939 109.978 200.261 109.613 200.49C109.26 200.67 108.861 200.743 108.467 200.699ZM77.4134 144.787C74.4846 147.461 67.6212 153.733 64.6924 156.354C64.3256 156.768 64.0463 157.25 63.8705 157.772C63.6947 158.294 63.6264 158.846 63.6693 159.394V171.416C63.7107 171.934 63.8682 172.437 64.1307 172.887C64.3932 173.338 64.7539 173.724 65.1865 174.019L108.061 198.481C108.187 198.564 108.333 198.612 108.484 198.62C108.558 198.487 108.588 198.334 108.572 198.183V190.024C108.527 188.446 108.154 186.893 107.478 185.463L97.0334 162.697L82.9185 171.433C82.5441 171.646 82.104 171.715 81.6813 171.629C81.2586 171.542 80.8825 171.304 80.6247 170.961C80.1959 170.579 79.9051 170.068 79.7968 169.506C79.6885 168.945 79.7689 168.363 80.0251 167.851L84.912 160.705C84.912 160.705 84.9123 160.705 84.7888 160.478L78.3663 145.871C78.1884 145.418 77.8495 145.045 77.4134 144.822V144.787Z" fill="#171753"/>
<path d="M95.1286 149.208C95.1286 152.388 92.8704 153.681 90.0827 152.091C88.6191 151.144 87.4013 149.87 86.5277 148.37C85.6541 146.87 85.1491 145.188 85.0541 143.46C85.0541 140.28 87.3126 138.987 90.0827 140.577C91.5506 141.52 92.7725 142.794 93.6494 144.294C94.5262 145.794 95.033 147.478 95.1286 149.208Z" fill="#ECFFFE"/>
<path d="M92.3403 153.768C91.3649 153.745 90.4138 153.461 89.5877 152.947C87.966 151.919 86.6167 150.521 85.6528 148.87C84.6889 147.22 84.1382 145.364 84.0474 143.46C83.9213 142.659 84.0426 141.84 84.395 141.109C84.7474 140.378 85.3146 139.769 86.0224 139.363C86.7301 138.957 87.5453 138.772 88.361 138.833C89.1767 138.893 89.955 139.197 90.5936 139.703C92.2146 140.736 93.5627 142.137 94.5263 143.791C95.49 145.444 96.0411 147.301 96.1335 149.208C96.2075 150.003 96.0627 150.802 95.7148 151.522C95.3669 152.242 94.829 152.855 94.1576 153.297C93.606 153.614 92.978 153.777 92.3403 153.768ZM87.841 140.891C87.5562 140.886 87.2755 140.958 87.0295 141.101C86.6773 141.379 86.4029 141.742 86.233 142.155C86.0631 142.568 86.0032 143.017 86.059 143.46C86.1595 145.011 86.6211 146.519 87.4077 147.865C88.1943 149.211 89.2848 150.358 90.5936 151.217C90.9493 151.49 91.3711 151.666 91.8169 151.728C92.2627 151.789 92.7167 151.733 93.1341 151.567C93.4864 151.289 93.7607 150.926 93.9306 150.513C94.1005 150.1 94.1605 149.651 94.1046 149.208C94.0075 147.657 93.549 146.15 92.7654 144.804C91.9818 143.458 90.8942 142.31 89.5877 141.45C89.0655 141.115 88.4629 140.922 87.841 140.891Z" fill="#171753"/>
</g>
<g clip-path="url(#clip2_689_109721)">
<path d="M29.9491 202.569V128.119C29.9491 124.799 31.9778 123.262 34.5009 124.624L91.5608 157.298C92.9481 158.284 94.0827 159.579 94.8733 161.078C95.6638 162.577 96.0885 164.238 96.113 165.929V240.362L29.9491 202.569Z" fill="#ECFFFE"/>
<path d="M97.0653 242.109L28.9251 203.146V128.119C28.8408 127.253 28.989 126.379 29.3546 125.588C29.7201 124.796 30.29 124.114 31.007 123.611C31.6332 123.288 32.3364 123.138 33.0414 123.178C33.7465 123.218 34.4272 123.446 35.0121 123.838L92.0014 156.442C93.5481 157.509 94.8147 158.927 95.6955 160.577C96.5764 162.228 97.0463 164.063 97.0653 165.929V242.109ZM30.954 201.923L95.0537 238.615V165.929C95.0251 164.414 94.644 162.926 93.9402 161.581C93.2364 160.235 92.2287 159.069 90.9956 158.172L33.9891 125.568C33.7084 125.37 33.3816 125.245 33.0393 125.205C32.6969 125.166 32.3498 125.212 32.0304 125.341C31.6334 125.68 31.3274 126.111 31.1396 126.596C30.9518 127.081 30.8879 127.604 30.954 128.119V201.923Z" fill="#171753"/>
<path d="M89.3195 225.685L36.6882 195.598C36.1404 195.191 35.6957 194.663 35.3895 194.057C35.0832 193.45 34.9238 192.781 34.9238 192.103V132.941C34.9238 131.596 35.7531 130.984 36.6882 131.561L89.3195 161.649C89.8684 162.055 90.3136 162.582 90.62 163.189C90.9263 163.795 91.0853 164.465 91.0839 165.143V224.322C91.1368 225.633 90.3252 226.262 89.3195 225.685Z" fill="#49CE8B"/>
<path d="M85.2791 203.268L74.6929 180.239C74.4811 179.803 74.0754 179.523 73.8283 179.663L59.184 188.731C58.4077 189.22 57.1022 187.368 57.6492 186.565L62.5542 179.418C62.6487 179.234 62.6981 179.031 62.6981 178.824C62.6981 178.618 62.6487 178.414 62.5542 178.23L56.1317 163.623C55.5671 162.313 54.3675 161.544 53.6794 162.121C50.8034 164.759 43.8165 171.136 40.87 173.792C40.392 174.294 40.0244 174.888 39.7905 175.538C39.5567 176.188 39.4616 176.878 39.5114 177.566V189.587C39.5465 190.285 39.747 190.965 40.0964 191.572C40.4458 192.179 40.9341 192.696 41.5226 193.082L84.3969 217.543C85.5261 218.172 86.4262 217.648 86.4262 216.373V208.213C86.3915 206.504 86.0008 204.821 85.2791 203.268Z" fill="#ECFFFE"/>
<path d="M85.3498 218.836C84.8511 218.832 84.3629 218.693 83.9382 218.434L41.0639 193.973C40.3173 193.509 39.6961 192.872 39.2535 192.117C38.8109 191.362 38.5602 190.512 38.5234 189.64V177.619C38.4751 176.786 38.6075 175.953 38.9119 175.175C39.2162 174.397 39.6854 173.693 40.2877 173.111C43.2519 170.437 50.2212 164.077 53.0971 161.439C53.3148 161.241 53.5793 161.101 53.866 161.031C54.1527 160.961 54.4522 160.963 54.7378 161.037C55.2878 161.204 55.7928 161.492 56.2144 161.879C56.6361 162.266 56.9637 162.743 57.1729 163.274L63.595 177.898C63.7711 178.226 63.8634 178.592 63.8634 178.964C63.8634 179.335 63.7711 179.702 63.595 180.03L58.7077 187.176C58.798 187.402 58.9299 187.609 59.0962 187.788L73.511 178.876C73.675 178.775 73.86 178.711 74.0524 178.69C74.2449 178.668 74.4397 178.69 74.6223 178.754C74.8901 178.847 75.1354 178.995 75.3421 179.187C75.5488 179.38 75.7125 179.613 75.8224 179.872L86.3203 202.919C87.1308 204.601 87.5699 206.436 87.6083 208.3V216.46C87.6371 216.887 87.5489 217.313 87.3533 217.694C87.1576 218.076 86.8615 218.398 86.4965 218.626C86.1435 218.807 85.7446 218.88 85.3498 218.836ZM54.2967 162.924C51.3679 165.597 44.5045 171.87 41.5757 174.491C41.2089 174.904 40.9296 175.386 40.7538 175.908C40.5781 176.431 40.5097 176.982 40.5526 177.531V189.552C40.594 190.071 40.7515 190.573 41.014 191.024C41.2765 191.474 41.6372 191.861 42.0698 192.156L84.9441 216.617C85.07 216.7 85.2163 216.749 85.3675 216.757C85.4408 216.623 85.4717 216.471 85.4558 216.32V208.16C85.4102 206.582 85.0377 205.03 84.3617 203.6L73.9167 180.833L59.8018 189.57C59.4274 189.783 58.9873 189.852 58.5646 189.765C58.1419 189.678 57.7658 189.441 57.508 189.098C57.0792 188.715 56.7884 188.204 56.6801 187.643C56.5718 187.081 56.6522 186.5 56.9084 185.988L61.7953 178.841C61.7953 178.841 61.7956 178.842 61.6721 178.614L55.2496 164.007C55.0717 163.555 54.7328 163.182 54.2967 162.959V162.924Z" fill="#171753"/>
<path d="M72.0115 167.345C72.0115 170.525 69.7534 171.818 66.9656 170.228C65.502 169.281 64.2842 168.006 63.4106 166.507C62.537 165.007 62.032 163.325 61.937 161.596C61.937 158.416 64.1956 157.123 66.9656 158.713C68.4335 159.657 69.6554 160.931 70.5323 162.431C71.4092 163.93 71.9159 165.614 72.0115 167.345Z" fill="#ECFFFE"/>
<path d="M69.2233 171.905C68.2479 171.882 67.2968 171.598 66.4708 171.084C64.8491 170.056 63.4998 168.658 62.5359 167.007C61.5719 165.356 61.0213 163.501 60.9304 161.596C60.8043 160.796 60.9256 159.976 61.2781 159.245C61.6305 158.514 62.1977 157.906 62.9054 157.5C63.6132 157.093 64.4283 156.909 65.244 156.969C66.0597 157.03 66.8381 157.333 67.4766 157.84C69.0976 158.873 70.4458 160.274 71.4094 161.927C72.373 163.581 72.9241 165.438 73.0165 167.345C73.0905 168.139 72.9458 168.939 72.5979 169.659C72.2499 170.379 71.7121 170.992 71.0407 171.433C70.4891 171.75 69.861 171.913 69.2233 171.905ZM64.7241 159.028C64.4393 159.023 64.1585 159.095 63.9125 159.237C63.5603 159.515 63.286 159.878 63.1161 160.291C62.9462 160.704 62.8862 161.154 62.9421 161.596C63.0425 163.148 63.5041 164.656 64.2908 166.002C65.0774 167.347 66.1678 168.495 67.4766 169.354C67.8324 169.627 68.2542 169.803 68.7 169.864C69.1457 169.925 69.5998 169.87 70.0172 169.703C70.3694 169.425 70.6437 169.063 70.8137 168.65C70.9836 168.237 71.0435 167.787 70.9877 167.345C70.8905 165.794 70.4321 164.287 69.6485 162.941C68.8649 161.595 67.7772 160.447 66.4708 159.587C65.9486 159.251 65.3459 159.058 64.7241 159.028Z" fill="#171753"/>
</g>
<path d="M262.974 137.357L272.629 131.189L262.974 130.92L261.902 131.993L261.097 135.212L262.974 137.357Z" fill="#171753"/>
<path d="M262.707 138.43L260.025 135.212V134.675L260.829 131.189L261.097 130.921L262.438 129.58H262.707L272.898 130.116L273.166 131.189L272.63 131.457L262.707 138.43ZM261.902 134.675L263.243 136.016L270.216 131.457L263.511 131.189L262.707 131.993L261.902 134.675Z" fill="#171753"/>
<path d="M279.062 82.9127L249.024 65.4799C247.415 64.4071 245.806 64.4071 244.733 64.9435L234.81 71.112C235.346 71.9166 239.369 80.4989 239.637 82.1081C239.905 82.6445 240.978 89.3494 242.587 96.8589V100.614C242.587 102.759 243.392 105.173 244.733 107.319C246.342 115.364 247.683 122.069 247.683 122.069L261.361 126.629H262.434L261.629 124.483C261.361 123.41 261.361 122.338 261.093 121.265L273.966 135.747C273.966 135.747 273.966 135.747 274.235 135.747L283.621 129.847C283.621 129.847 283.621 129.847 283.89 129.847C284.962 129.042 285.767 127.702 285.767 125.824V94.1769C285.767 90.154 282.817 85.0583 279.062 82.9127Z" fill="#49CE8B"/>
<path d="M274.234 136.552C273.965 136.552 273.697 136.552 273.429 136.284L262.165 123.678C262.165 123.947 262.165 124.215 262.165 124.483L262.969 126.629C263.237 127.165 262.969 127.433 262.433 127.701H262.165H260.824L246.877 122.874V122.606C246.877 122.337 245.536 115.633 243.927 107.855C242.586 105.441 241.782 103.027 241.782 100.882V97.127C239.904 88.0083 239.1 82.9126 238.832 82.3762C238.563 81.3034 236.15 76.2077 234.004 71.6483C233.736 71.1119 234.004 70.5756 234.272 70.5756L244.195 64.407C245.805 63.6024 247.682 63.8706 249.559 64.9434L279.597 82.3762C283.352 84.5218 286.571 89.8857 286.571 94.445V125.556C286.571 127.701 285.766 129.579 284.425 130.383H284.157L274.77 136.284C274.502 136.552 274.502 136.552 274.234 136.552ZM260.287 119.119L274.502 134.943L283.352 129.311L283.889 129.847L283.352 129.042C284.157 128.506 284.693 127.165 284.693 125.556V94.1769C284.693 90.4221 282.011 85.5946 278.525 83.449L248.755 66.2844C247.414 65.4798 246.073 65.2116 245 65.748L235.881 71.3801C237.222 74.0621 240.173 80.4988 240.441 81.8398C240.709 82.3762 241.514 87.2037 243.391 96.5906V96.8588V100.614C243.391 102.491 244.195 104.637 245.268 106.782V107.05C246.609 113.755 247.682 119.656 247.95 121.533L260.824 125.824L260.287 124.483C260.019 123.41 260.019 122.069 259.751 120.997L260.287 119.119Z" fill="#171753"/>
<path d="M279.063 82.9124L250.634 66.5524L236.419 75.4029L266.994 91.4946L273.43 92.5674L283.086 86.6671C282.013 85.0579 280.672 83.7169 279.063 82.9124Z" fill="#ECFFFE"/>
<path d="M273.43 93.3721L266.457 92.2993L234.81 75.4029L250.634 65.4796L279.599 82.1078C281.208 82.9124 282.549 84.2534 283.89 86.1307L284.426 86.9353L273.43 93.3721ZM267.262 90.6901L273.162 91.4947L281.744 86.3989C280.672 85.058 279.867 84.2534 278.526 83.717L250.365 67.6252L237.76 75.4029L267.262 90.6901Z" fill="#171753"/>
<path d="M285.294 94.3572L275.646 100.171L276.477 101.549L286.125 95.7354L285.294 94.3572Z" fill="#171753"/>
<path d="M285.118 117.124L275.47 122.937L276.301 124.315L285.949 118.502L285.118 117.124Z" fill="#171753"/>
<path d="M239.369 71.6491L269.407 89.0819C272.893 91.2274 275.844 96.055 275.844 100.346V131.725C275.844 135.748 272.893 137.625 269.407 135.48L265.92 133.603C265.384 133.334 264.848 133.334 264.579 134.139C264.311 136.016 262.97 139.503 257.874 137.357C256.802 137.089 256.265 135.48 256.533 134.675C256.802 133.603 257.338 131.993 257.338 130.116C257.338 129.311 256.802 128.239 255.997 127.97L239.369 118.315C235.882 116.17 232.932 111.342 232.932 107.051V75.4039C232.932 71.1127 235.882 69.5035 239.369 71.6491Z" fill="#49CE8B"/>
<path d="M260.826 138.698C260.021 138.698 258.949 138.43 257.876 137.893C256.535 137.357 255.462 135.48 255.998 134.139C256.267 133.066 256.535 131.725 256.535 129.848C256.535 129.311 255.998 128.507 255.73 128.238L239.102 118.583C235.347 116.438 232.129 111.074 232.129 106.514V75.4036C232.129 72.9898 232.933 71.3807 234.543 70.5761C236.152 69.7715 238.029 69.7715 239.907 71.1125L269.945 88.5452C273.699 90.6908 276.918 96.0547 276.918 100.614V131.993C276.918 134.407 276.113 136.016 274.504 136.821C272.895 137.625 271.017 137.625 269.14 136.284L265.653 134.407C265.385 135.748 264.581 137.625 262.972 138.43C262.435 138.43 261.631 138.698 260.826 138.698ZM236.688 71.3807C236.152 71.3807 235.884 71.3807 235.347 71.6489C234.274 72.1853 233.738 73.5262 233.738 75.1354V106.783C233.738 110.537 236.42 115.365 239.907 117.242L256.535 126.897C257.608 127.434 258.144 128.775 258.144 129.848C258.144 131.457 257.876 133.066 257.339 134.675C257.071 135.211 257.608 136.284 258.412 136.552C260.021 137.089 261.094 137.357 262.167 136.821C263.24 136.284 263.776 134.675 264.044 133.87C264.044 133.334 264.581 132.798 264.849 132.798C265.385 132.529 265.922 132.529 266.458 133.066L269.945 134.943C271.286 135.748 272.627 136.016 273.699 135.48C274.772 134.943 275.309 133.602 275.309 131.993V100.078C275.309 96.3229 272.627 91.4954 269.14 89.618L239.102 72.1853C238.297 71.6489 237.225 71.3807 236.688 71.3807Z" fill="#171753"/>
<path d="M285.77 122.338L276.115 128.238V132.529L275.579 134.943L283.893 129.847L285.502 127.702L285.77 125.288V122.338Z" fill="#171753"/>
<path d="M258.682 105.71V93.9092C258.682 93.641 258.414 93.1046 258.145 93.1046L247.149 86.6679C246.881 86.3997 246.613 86.6679 246.613 86.9361V98.7367C246.613 99.0049 246.345 99.2731 246.077 99.0049L243.931 97.9321C243.395 97.6639 243.126 98.2003 243.395 98.7367L252.245 116.169C252.513 116.706 252.782 116.706 253.05 116.706L261.9 109.465C262.168 109.196 261.9 108.392 261.364 108.124L259.218 106.783C258.95 106.514 258.682 106.246 258.682 105.71Z" fill="#ECFFFE"/>
<path d="M25.2295 112.223L15.3148 105.797L25.2295 105.43L26.3311 106.531L27.2491 109.836L25.2295 112.223Z" fill="#171753"/>
<path d="M25.4158 113.324L25.9667 112.774L28.3535 110.203L28.1699 109.652L27.2519 105.98L27.0683 105.797L25.5994 104.511H25.2322L14.7668 104.879L14.3996 106.164L14.9504 106.531L25.4158 113.324ZM26.5175 109.836L25.2322 111.305L18.0717 106.715L25.0486 106.348L25.783 107.082L26.5175 109.836Z" fill="#171753"/>
<path d="M8.70581 56.5902L39.3678 38.7805C41.2038 37.6789 42.6727 37.6789 43.9579 38.2297L54.0562 44.4723C54.0562 44.4723 54.0562 44.4723 54.0562 44.6559C53.6889 45.5739 49.466 54.3869 49.0988 55.8558C48.9152 56.5902 47.63 63.2 46.1611 70.9114V74.767C46.1611 76.9703 45.4267 79.3572 44.1415 81.5604C42.4891 89.639 41.2038 96.616 41.2038 96.7996L27.0663 101.573H26.1482C26.1482 101.573 26.1482 101.573 26.1482 101.39L26.8827 99.1865C27.0663 98.0848 27.2499 96.9832 27.2499 95.8816L14.0303 110.57H13.8467L4.11569 104.511C4.11569 104.511 3.93209 104.511 3.93209 104.327C2.83046 103.593 2.09605 102.124 2.09605 100.104V68.1573C1.91244 63.9344 5.03372 58.7934 8.70581 56.5902Z" fill="#49CE8B"/>
<path d="M13.6663 111.672C13.8499 111.672 14.2171 111.488 14.4007 111.304L25.9678 98.4522C25.9678 98.6358 25.9678 99.003 25.7842 99.1866L25.0497 101.206C24.8661 101.573 25.0498 102.124 25.417 102.308L25.6006 102.491H26.8858L41.5742 97.5342L41.7578 97.167L41.9414 96.0653L44.6954 81.9278C45.9807 79.5409 46.8987 77.154 46.8987 74.9508V71.0951C48.7347 61.9149 49.6528 56.5903 49.8364 56.0395C50.02 54.9379 52.5904 49.6134 54.7937 45.0232C54.9773 44.656 54.7937 44.1052 54.4265 43.738L44.3282 37.4955C42.6758 36.761 40.8397 36.9446 39.0037 38.0463L8.15813 55.8559C4.30243 58.0592 0.997543 63.7509 0.997543 68.1574V100.288C0.997543 102.491 1.73196 104.328 3.20079 105.246C3.20079 105.246 3.38441 105.246 3.38441 105.429L13.1154 111.488C13.299 111.488 13.4827 111.672 13.6663 111.672ZM27.9874 93.4949L13.4827 109.652L4.30243 103.96L3.75161 104.695L4.11882 103.96C3.20079 103.41 2.64999 102.124 2.64999 100.472V68.1574C2.64999 64.3017 5.58767 59.1608 8.89255 57.3247L39.7381 39.5151C41.2069 38.7807 42.4922 38.5971 43.4102 38.9643L52.774 44.8396C51.6724 47.2265 48.3675 54.2035 48.0003 55.6723C47.8167 56.4067 46.3479 64.3017 45.0626 70.9115V71.0951V74.9508C45.0626 76.9704 44.3282 79.1737 43.043 81.1933V81.3769L40.1053 96.2489L26.8858 100.655L27.253 99.3702C27.4366 98.2686 27.6202 96.9833 27.6202 95.8817L27.9874 93.4949Z" fill="#171753"/>
<path d="M8.70187 56.5903L37.895 39.6987L52.3998 48.879L21.187 65.4034L14.7608 66.3214L4.84618 60.4461C5.7642 58.7936 7.23304 57.5084 8.70187 56.5903Z" fill="#9BE7C4"/>
<path d="M14.5816 67.24L21.5586 66.1383L54.0566 48.8795L37.8994 38.7812L8.33909 55.8565C6.87025 56.7745 5.21781 58.2433 4.11618 59.8958L3.56537 60.6302L14.5816 67.24ZM20.8242 64.4859L14.7653 65.4039L5.95222 60.0794C6.87025 58.7941 7.97188 57.8761 9.07351 57.1417L37.8994 40.6173L50.7518 48.6959L20.8242 64.4859Z" fill="#171753"/>
<path d="M2.39539 68.4816L12.3026 74.4525L11.4496 75.8678L1.5424 69.8969L2.39539 68.4816Z" fill="#171753"/>
<path d="M2.63514 91.5695L12.5424 97.5393L11.6895 98.9546L1.78232 92.9848L2.63514 91.5695Z" fill="#171753"/>
<path d="M49.2816 45.0234L18.436 62.6494C14.7639 64.8526 11.8263 69.9936 11.8263 74.2165V106.531C11.8263 110.754 14.7639 112.406 18.436 110.387L21.9245 108.367C22.4753 108 23.0262 108.183 23.2098 108.918C23.577 110.937 25.0458 114.426 30.0031 112.223C30.9212 111.855 31.8392 110.387 31.472 109.469C31.1048 108.367 30.7375 106.714 30.7375 104.878C30.7375 103.96 31.2884 103.042 32.0228 102.492L49.098 92.5769C52.7701 90.3737 55.7078 85.2328 55.7078 81.0099V48.6954C55.8914 44.4725 52.9537 42.8201 49.2816 45.0234Z" fill="#49CE8B"/>
<path d="M27.2524 113.691C28.1704 113.691 29.272 113.508 30.3737 112.957C31.8425 112.406 32.7605 110.386 32.3933 109.101C32.0261 108.183 31.6589 106.531 31.6589 104.695C31.6589 104.144 32.0261 103.409 32.5769 103.226L49.6522 93.3111C53.6915 91.1078 56.8127 85.5997 56.8127 81.0096V48.6952C56.8127 46.3083 55.8947 44.4722 54.4259 43.7378C52.957 42.8198 50.9374 43.0034 48.9177 44.2886L18.0722 62.0983C14.0329 64.3015 10.9116 69.8097 10.9116 74.3998V106.714C10.9116 109.101 11.8296 110.937 13.2984 111.672C14.7673 112.59 16.7869 112.406 18.8066 111.121L22.2951 109.101C22.6623 110.57 23.2131 112.406 24.8655 113.14C25.7836 113.508 26.518 113.691 27.2524 113.691ZM52.2226 44.8395C52.7734 44.8395 53.1406 45.0231 53.5079 45.2067C54.4259 45.7575 54.9767 47.0427 54.9767 48.6952V81.0096C54.9767 85.0489 52.2226 89.8226 48.7341 91.8422L31.6589 101.757C30.7409 102.308 29.8229 103.593 29.8229 104.878C29.8229 106.898 30.1901 108.734 30.5573 109.652C30.7409 110.203 30.1901 111.121 29.6393 111.488C27.9868 112.222 26.7016 112.222 25.7836 111.672C24.6819 111.121 24.1311 109.468 23.9475 108.734C23.7639 108.183 23.5803 107.816 23.0295 107.449C22.4787 107.265 21.9279 107.265 21.377 107.632L17.8886 109.652C16.4197 110.57 14.9509 110.754 14.0329 110.203C13.1148 109.652 12.564 108.367 12.564 106.714V74.2162C12.564 70.1769 15.3181 65.4032 18.8066 63.3835L49.6522 45.5739C50.7538 45.2067 51.4882 44.8395 52.2226 44.8395Z" fill="#171753"/>
<path d="M1.91211 96.9834L11.8268 103.042V107.265L12.3776 110.019L3.74815 104.695L2.09571 102.492L1.91211 100.105V96.9834Z" fill="#171753"/>
<path fill-rule="evenodd" clip-rule="evenodd" d="M31.8377 63.5891C31.8377 63.2983 32.0387 62.9395 32.2866 62.7876L35.2569 60.9673C35.5048 60.8154 35.7058 60.928 35.7058 61.2187V64.5696C35.7058 64.8288 35.8669 64.9494 36.0837 64.8663C36.8749 64.5633 37.6111 64.3976 38.2924 64.3691C39.5715 64.3156 40.5898 64.7082 41.3472 65.5469C42.035 66.2653 42.4705 67.3176 42.6535 68.7039C42.6909 68.9874 42.4828 69.3811 42.2189 69.5428L38.928 71.5595C38.7073 71.6947 38.5219 71.6193 38.4699 71.3997C38.329 70.805 38.0848 70.3613 37.737 70.0687C37.3163 69.7146 36.7693 69.576 36.096 69.653C35.4397 69.7197 34.6991 70.0057 33.8744 70.5111C33.0497 71.0165 32.3176 71.6329 31.678 72.3604C31.0385 73.0879 30.4999 73.8917 30.0623 74.7717C29.6415 75.6415 29.3133 76.573 29.0777 77.5662C28.8589 78.5293 28.7495 79.5241 28.7495 80.5505C28.7495 81.5572 28.8589 82.4179 29.0777 83.1326C29.3133 83.8173 29.6499 84.3414 30.0875 84.7049C30.542 85.0383 31.0974 85.1717 31.7538 85.105C32.4102 85.0186 33.1591 84.7176 34.0006 84.2019C35.2798 83.4181 36.3569 82.3928 37.2321 81.1261C38.0207 79.9972 38.533 78.8216 38.7692 77.5993C38.8237 77.3171 39.0081 77.0177 39.2271 76.8835L42.4859 74.8865C42.7537 74.7224 42.963 74.8677 42.9176 75.2051C42.719 76.6816 42.2881 78.2021 41.6249 79.7666C40.8843 81.5232 39.8661 83.1934 38.5701 84.7771C37.8266 85.6803 37.0006 86.5038 36.0922 87.2479C35.8714 87.4287 35.7058 87.7516 35.7058 88.0145V91.2187C35.7058 91.5095 35.5048 91.8684 35.2569 92.0203L32.2866 93.8405C32.0387 93.9924 31.8377 93.8799 31.8377 93.5891V90.2806C31.8377 90.0264 31.6825 89.9049 31.4709 89.9792C30.8356 90.2024 30.2482 90.3278 29.7089 90.3554C28.5139 90.3968 27.5377 90.0968 26.7803 89.4556C26.023 88.7945 25.4591 87.9359 25.0889 86.8798C24.7354 85.7936 24.5587 84.6386 24.5587 83.4147V82.7633C24.5587 81.4211 24.7439 79.9851 25.1141 78.4554C25.4844 76.9059 26.0482 75.3662 26.8056 73.8362C27.5798 72.2958 28.5475 70.854 29.7089 69.5107C30.251 68.8787 30.8376 68.2885 31.4688 67.7399C31.6813 67.5551 31.8377 67.2423 31.8377 66.9871V63.5891Z" fill="#ECFFFE"/>
<defs>
<clipPath id="clip0_689_109721">
<rect width="68.14" height="118.935" fill="white" transform="translate(73.0385 93.7858)"/>
</clipPath>
<clipPath id="clip1_689_109721">
<rect width="68.14" height="118.935" fill="white" transform="translate(52.0422 105.02)"/>
</clipPath>
<clipPath id="clip2_689_109721">
<rect width="68.14" height="118.935" fill="white" transform="translate(28.9253 123.157)"/>
</clipPath>
</defs>
</svg>
