<svg width="275" height="320" viewBox="0 0 275 320" fill="none" xmlns="http://www.w3.org/2000/svg">
<path d="M272.295 237.382L95.0896 135.399C94.0616 134.758 93.1621 133.221 93.1621 131.811V2.41018C93.1621 1.00085 94.0616 0.360254 95.0896 1.00085L272.295 102.984C273.323 103.625 274.222 105.163 274.222 106.572V235.973C274.222 237.382 273.323 238.023 272.295 237.382Z" fill="#9BE7C4"/>
<path d="M273.067 238.407C272.682 238.407 272.296 238.279 271.911 238.023L94.7056 136.039C93.4206 135.271 92.3926 133.477 92.3926 131.811V2.41012C92.3926 1.38516 92.7781 0.616436 93.4206 0.232075C93.9346 -0.152285 94.7056 -0.024165 95.3481 0.360195L272.553 102.344C273.838 103.113 274.866 104.906 274.866 106.572V235.973C274.866 236.998 274.481 237.767 273.838 238.151C273.71 238.279 273.324 238.407 273.067 238.407ZM272.682 236.742C272.81 236.742 273.067 236.87 273.196 236.87C273.324 236.742 273.453 236.486 273.453 235.973V106.572C273.453 105.419 272.682 104.009 271.911 103.625L94.8341 1.51328C94.7056 1.51328 94.4486 1.38516 94.3201 1.38516C94.1916 1.51328 94.0631 1.76952 94.0631 2.282V131.683C94.0631 132.836 94.8341 134.246 95.6051 134.63L272.682 236.742Z" fill="#171753"/>
<path d="M107.812 19.322L103.828 17.2721V15.8628L107.812 17.9127V19.322Z" fill="#171753"/>
<path d="M107.812 31.6216L103.828 29.5717V28.1624L107.812 30.2123V31.6216Z" fill="#171753"/>
<path d="M107.812 44.0496L103.828 41.9997V40.5903L107.812 42.6403V44.0496Z" fill="#171753"/>
<path d="M107.812 56.3489L103.828 54.299V52.8896L107.812 54.9396V56.3489Z" fill="#171753"/>
<path d="M107.812 68.6484L103.828 66.5985V65.1892L107.812 67.2391V68.6484Z" fill="#171753"/>
<path d="M107.812 80.9478L103.828 78.8978V77.4885L107.812 79.5384V80.9478Z" fill="#171753"/>
<path d="M107.812 93.3755L103.828 91.3256V89.9163L107.812 91.9662V93.3755Z" fill="#171753"/>
<path d="M107.812 105.675L103.828 103.625V102.216L107.812 104.266V105.675Z" fill="#171753"/>
<path d="M107.812 117.975L103.828 115.925V114.515L107.812 116.565V117.975Z" fill="#171753"/>
<path d="M107.812 130.402L103.828 128.224V126.815L107.812 128.993V130.402Z" fill="#171753"/>
<path d="M184.914 64.036L111.41 21.5001V20.0908L184.914 62.6267V64.036Z" fill="#171753"/>
<path d="M161.269 62.7546L111.41 33.7995V32.3901L161.269 61.3453V62.7546Z" fill="#171753"/>
<path d="M131.842 57.7582L111.41 46.2274V44.8181L131.842 56.3489V57.7582Z" fill="#171753"/>
<path d="M184.914 100.935L111.41 58.527V57.1177L184.914 99.5254V100.935Z" fill="#171753"/>
<path d="M154.33 95.5535L111.41 70.8263V69.417L154.33 94.1442V95.5535Z" fill="#171753"/>
<path d="M154.33 107.853L111.41 83.1256V81.7163L154.33 106.443V107.853Z" fill="#171753"/>
<path d="M163.068 125.406L111.41 95.5536V94.1443L163.068 123.996V125.406Z" fill="#171753"/>
<path d="M138.267 123.484L111.41 107.853V106.444L138.267 122.075V123.484Z" fill="#171753"/>
<path d="M184.914 162.688L111.41 120.152V118.743L184.914 161.279V162.688Z" fill="#171753"/>
<path d="M141.351 149.876L111.41 132.58V131.171L141.351 148.467V149.876Z" fill="#171753"/>
<path d="M234.901 92.9913L186.841 65.4455V64.0361L234.901 91.582V92.9913Z" fill="#171753"/>
<path d="M211.899 91.7102L163.968 64.0363V62.627L211.899 90.3009V91.7102Z" fill="#171753"/>
<path d="M182.728 86.8416L134.668 59.1676V57.7583L182.728 85.4322V86.8416Z" fill="#171753"/>
<path d="M232.846 115.028L184.914 87.3541V85.9448L232.846 113.619V115.028Z" fill="#171753"/>
<path d="M234.901 130.018L186.841 102.344V100.935L234.901 128.609V130.018Z" fill="#171753"/>
<path d="M204.06 123.868L156 96.1945V94.7852L204.06 122.459V123.868Z" fill="#171753"/>
<path d="M204.06 136.168L156 108.494V107.213L204.06 134.758V136.168Z" fill="#171753"/>
<path d="M213.698 155.002L165.638 127.456V126.046L213.698 153.592V155.002Z" fill="#171753"/>
<path d="M189.668 153.592L141.608 126.046V124.637L189.668 152.183V153.592Z" fill="#171753"/>
<path d="M234.901 191.644L186.841 164.098V162.689L234.901 190.235V191.644Z" fill="#171753"/>
<path d="M193.138 179.857L145.078 152.183V150.773L193.138 178.447V179.857Z" fill="#171753"/>
<path d="M251.093 258.522L73.8885 156.538C72.8605 155.898 71.9609 154.36 71.9609 152.951V23.5496C71.9609 22.1403 72.8605 21.4997 73.8885 22.1403L251.093 124.124C252.122 124.764 253.021 126.302 253.021 127.711V257.113C253.021 258.522 252.122 259.162 251.093 258.522Z" fill="#ECFFFE"/>
<path d="M251.865 259.419C251.48 259.419 251.094 259.291 250.709 259.035L73.5035 157.179C72.2184 156.41 71.1904 154.617 71.1904 152.951V23.5498C71.1904 22.5248 71.5759 21.7561 72.2184 21.3717C72.7325 20.9874 73.5035 21.1155 74.146 21.4998L251.351 123.483C252.636 124.252 253.664 126.046 253.664 127.711V257.113C253.664 258.138 253.279 258.906 252.636 259.291C252.379 259.419 252.122 259.419 251.865 259.419ZM251.48 257.881C251.608 257.881 251.865 258.01 251.994 258.01C252.122 257.881 252.251 257.625 252.251 257.113V127.711C252.251 126.558 251.48 125.149 250.709 124.765L73.5035 22.6529C73.375 22.6529 73.118 22.5248 72.9895 22.5248C72.861 22.6529 72.7325 22.9092 72.7325 23.4216V152.823C72.7325 153.976 73.5035 155.385 74.2745 155.77L251.48 257.881Z" fill="#171753"/>
<path d="M86.4811 40.4612L82.626 38.4113V37.002L86.4811 39.0519V40.4612Z" fill="#171753"/>
<path d="M86.4811 52.761L82.626 50.7111V49.3018L86.4811 51.3517V52.761Z" fill="#171753"/>
<path d="M86.4811 65.0608L82.626 63.0109V61.6016L86.4811 63.6515V65.0608Z" fill="#171753"/>
<path d="M86.4811 77.3599L82.626 75.31V73.9006L86.4811 75.9506V77.3599Z" fill="#171753"/>
<path d="M86.4811 89.7876L82.626 87.7377V86.3284L86.4811 88.3783V89.7876Z" fill="#171753"/>
<path d="M86.4811 102.087L82.626 100.037V98.6279L86.4811 100.678V102.087Z" fill="#171753"/>
<path d="M86.4811 114.387L82.626 112.337V110.927L86.4811 112.977V114.387Z" fill="#171753"/>
<path d="M86.4811 126.814L82.626 124.636V123.227L86.4811 125.405V126.814Z" fill="#171753"/>
<path d="M86.4811 139.114L82.626 137.064V135.654L86.4811 137.704V139.114Z" fill="#171753"/>
<path d="M86.4811 151.413L82.626 149.363V147.954L86.4811 150.004V151.413Z" fill="#171753"/>
<path d="M163.585 85.0471L90.0811 42.6393V41.23L163.585 83.6377V85.0471Z" fill="#171753"/>
<path d="M140.069 83.894L90.0811 54.9389V53.5295L140.069 82.4847V83.894Z" fill="#171753"/>
<path d="M110.513 78.8976L90.0811 67.2387V65.8293L110.513 77.4883V78.8976Z" fill="#171753"/>
<path d="M163.585 122.074L90.0811 79.538V78.1287L163.585 120.665V122.074Z" fill="#171753"/>
<path d="M133.001 116.565L90.0811 91.9657V90.5564L133.001 115.155V116.565Z" fill="#171753"/>
<path d="M133.001 128.992L90.0811 104.265V102.856L133.001 127.583V128.992Z" fill="#171753"/>
<path d="M141.868 146.417L90.0811 116.565V115.155L141.868 145.135V146.417Z" fill="#171753"/>
<path d="M116.938 144.623L90.0811 128.992V127.583L116.938 143.214V144.623Z" fill="#171753"/>
<path d="M163.585 183.7L90.0811 141.292V139.883L163.585 182.29V183.7Z" fill="#171753"/>
<path d="M120.151 170.888L90.0811 153.591V152.182L120.151 169.478V170.888Z" fill="#171753"/>
<path d="M213.57 114.13L165.639 86.4562V85.0469L213.57 112.721V114.13Z" fill="#171753"/>
<path d="M190.697 112.721L142.766 85.1749V83.7656L190.697 111.311V112.721Z" fill="#171753"/>
<path d="M161.398 107.98L113.467 80.3065V78.8972L161.398 106.571V107.98Z" fill="#171753"/>
<path d="M211.643 136.039L163.583 108.365V107.083L211.643 134.629V136.039Z" fill="#171753"/>
<path d="M213.57 151.157L165.639 123.483V122.074L213.57 149.748V151.157Z" fill="#171753"/>
<path d="M182.729 144.879L134.798 117.333V115.924L182.729 143.47V144.879Z" fill="#171753"/>
<path d="M182.729 157.307L134.798 129.633V128.224L182.729 155.898V157.307Z" fill="#171753"/>
<path d="M192.367 176.14L144.436 148.466V147.057L192.367 174.731V176.14Z" fill="#171753"/>
<path d="M168.338 174.731L120.406 147.057V145.648L168.338 173.322V174.731Z" fill="#171753"/>
<path d="M213.57 212.783L165.639 185.109V183.699L213.57 211.373V212.783Z" fill="#171753"/>
<path d="M171.807 200.867L123.876 173.321V171.912L171.807 199.458V200.867Z" fill="#171753"/>
<path d="M226.805 276.587L49.6004 174.603C48.5724 173.963 47.6729 172.425 47.6729 171.016V41.6148C47.6729 40.2054 48.5724 39.5648 49.6004 40.2054L226.805 142.189C227.833 142.83 228.733 144.367 228.733 145.776V275.178C228.733 276.587 227.833 277.228 226.805 276.587Z" fill="#9BE7C4"/>
<path d="M227.577 277.612C227.191 277.612 226.806 277.484 226.42 277.228L49.2154 175.244C47.9304 174.475 46.9023 172.682 46.9023 171.016V41.6147C46.9023 40.5897 47.2879 39.821 47.9304 39.4367C48.4444 39.0523 49.2154 39.1804 49.8579 39.5648L227.063 141.548C228.348 142.317 229.376 144.111 229.376 145.776V275.178C229.376 276.203 228.99 276.971 228.348 277.356C228.219 277.484 227.834 277.612 227.577 277.612ZM227.191 275.946C227.32 275.946 227.577 276.075 227.705 276.075C227.834 275.946 227.962 275.69 227.962 275.178V145.776C227.962 144.623 227.191 143.214 226.42 142.83L49.2154 40.7179C49.0869 40.7179 48.8299 40.5897 48.7014 40.5897C48.5729 40.7179 48.4444 40.9741 48.4444 41.4866V170.888C48.4444 172.041 49.2154 173.45 49.9864 173.835L227.191 275.946Z" fill="#171753"/>
<path d="M62.1949 58.5266L58.3398 56.4767V55.0674L62.1949 57.1173V58.5266Z" fill="#171753"/>
<path d="M62.1949 70.8262L58.3398 68.7763V67.3669L62.1949 69.4169V70.8262Z" fill="#171753"/>
<path d="M62.1949 83.2541L58.3398 81.0761V79.6667L62.1949 81.8448V83.2541Z" fill="#171753"/>
<path d="M62.1949 95.5532L58.3398 93.5033V92.094L62.1949 94.1439V95.5532Z" fill="#171753"/>
<path d="M62.1949 107.853L58.3398 105.803V104.394L62.1949 106.444V107.853Z" fill="#171753"/>
<path d="M62.1949 120.152L58.3398 118.102V116.693L62.1949 118.743V120.152Z" fill="#171753"/>
<path d="M62.1949 132.58L58.3398 130.53V129.121L62.1949 131.171V132.58Z" fill="#171753"/>
<path d="M62.1949 144.88L58.3398 142.83V141.42L62.1949 143.47V144.88Z" fill="#171753"/>
<path d="M62.1949 157.179L58.3398 155.129V153.72L62.1949 155.77V157.179Z" fill="#171753"/>
<path d="M62.1949 169.479L58.3398 167.429V166.02L62.1949 168.069V169.479Z" fill="#171753"/>
<path d="M139.296 103.112L65.793 60.7047V59.2954L139.296 101.703V103.112Z" fill="#171753"/>
<path d="M115.78 101.959L65.793 73.004V71.5947L115.78 100.55V101.959Z" fill="#171753"/>
<path d="M86.2249 96.9628L65.793 85.432V84.0227L86.2249 95.5535V96.9628Z" fill="#171753"/>
<path d="M139.296 140.139L65.793 97.7314V96.322L139.296 138.73V140.139Z" fill="#171753"/>
<path d="M108.841 134.758L65.793 110.031V108.622L108.841 133.349V134.758Z" fill="#171753"/>
<path d="M108.841 147.057L65.793 122.33V120.921L108.841 145.648V147.057Z" fill="#171753"/>
<path d="M117.58 164.61L65.793 134.758V133.349L117.58 163.201V164.61Z" fill="#171753"/>
<path d="M92.65 162.688L65.793 147.058V145.648L92.65 161.279V162.688Z" fill="#171753"/>
<path d="M139.296 201.893L65.793 159.357V157.948L139.296 200.484V201.893Z" fill="#171753"/>
<path d="M95.8626 188.953L65.793 171.656V170.247L95.8626 187.543V188.953Z" fill="#171753"/>
<path d="M189.283 132.196L141.352 104.522V103.113L189.283 130.787V132.196Z" fill="#171753"/>
<path d="M166.411 130.915L118.479 103.241V101.832L166.411 129.505V130.915Z" fill="#171753"/>
<path d="M137.241 126.046L89.1807 98.3722V96.9629L137.241 124.637V126.046Z" fill="#171753"/>
<path d="M187.357 154.104L139.297 126.558V125.149L187.357 152.695V154.104Z" fill="#171753"/>
<path d="M189.283 169.222L141.352 141.548V140.139L189.283 167.813V169.222Z" fill="#171753"/>
<path d="M158.572 163.073L110.512 135.399V133.99L158.572 161.664V163.073Z" fill="#171753"/>
<path d="M158.572 175.372L110.512 147.698V146.289L158.572 173.963V175.372Z" fill="#171753"/>
<path d="M168.081 194.206L120.149 166.66V165.251L168.081 192.797V194.206Z" fill="#171753"/>
<path d="M144.18 192.797L96.1201 165.251V163.842L144.18 191.387V192.797Z" fill="#171753"/>
<path d="M189.283 230.848L141.352 203.303V201.893L189.283 229.439V230.848Z" fill="#171753"/>
<path d="M147.65 219.062L99.5898 191.388V189.978L147.65 217.652V219.062Z" fill="#171753"/>
<path d="M196.609 154.597L18.2473 51.8444C16.7053 50.9476 15.1632 50.8195 14.1352 51.332C7.58157 54.2787 3.08398 57.738 3.08398 57.738L11.6937 66.0658V193.93C11.6937 198.798 14.6492 204.564 18.3758 206.742L191.597 306.419L185.558 309.366L189.927 316.156C189.927 316.156 195.324 314.747 201.363 309.494C202.649 308.597 203.42 306.804 203.42 304.241V167.281C203.291 162.412 200.335 156.647 196.609 154.597Z" fill="#171753"/>
<path d="M189.541 317.053L184.401 309.11L189.927 306.419L17.8616 207.382C14.0066 205.204 10.794 199.183 10.794 193.93V66.5784L1.79883 57.8663L2.44134 57.3538C2.56984 57.2257 7.06743 53.7664 13.6211 50.8197C15.1631 50.051 16.8336 50.3072 18.5042 51.204L196.866 153.828C200.721 156.134 203.933 162.028 203.933 167.281V304.241C203.933 306.932 203.034 308.982 201.62 310.007C195.581 315.26 190.184 316.797 189.927 316.797L189.541 317.053ZM186.586 309.622L190.184 315.26C191.597 314.747 195.966 313.082 200.849 308.854C202.006 308.085 202.648 306.291 202.648 304.241V167.281C202.648 162.669 199.821 157.159 196.352 155.109L17.8616 52.4852C16.5766 51.7165 15.2916 51.5884 14.3921 52.1009H14.2636C9.38048 54.2789 5.5254 56.8413 4.11187 57.9944L12.336 65.9378V193.93C12.336 198.542 15.1631 204.051 18.6327 206.101L193.139 306.547L186.586 309.622Z" fill="#171753"/>
<path d="M9.50879 60.9409L11.6933 125.77L125.547 191.367L192.496 152.162L21.7165 53.8943L9.50879 60.9409Z" fill="#171753"/>
<path d="M125.547 192.136L10.9228 126.282L8.73828 60.5567L21.717 53.1257L194.039 152.163L125.547 192.136ZM12.3364 125.385L125.547 190.471L191.083 152.163L21.717 54.7913L10.2803 61.3254L12.3364 125.385Z" fill="#171753"/>
<path d="M150.35 308.597C149.964 306.931 148.808 305.522 147.394 304.625L140.455 300.654C133.388 296.554 127.605 286.56 127.605 278.489V232.622C127.605 232.622 127.605 232.494 127.477 232.494L120.537 228.522C120.409 228.394 120.28 228.522 120.28 228.65C120.794 230.444 121.18 232.237 121.18 234.031V267.214C121.18 269.264 120.794 270.93 120.023 272.211L119.252 266.83C119.252 266.702 119.124 266.702 119.124 266.702L104.603 268.367H104.475C101.391 264.396 99.3345 259.271 99.3345 254.787V221.603C99.3345 219.81 99.72 218.272 100.234 217.119C100.234 216.991 100.234 216.991 100.234 216.863L93.1664 212.763C93.0379 212.763 92.9094 212.763 92.9094 212.891V258.374C92.9094 266.574 86.9982 270.033 79.9306 265.805L72.7345 261.705C71.9634 261.321 71.4494 261.193 70.9354 261.449L70.8069 261.577C70.8069 261.577 64.2533 264.139 57.3142 269.392C57.1856 269.392 57.1856 269.52 57.3142 269.648L62.7113 274.517L129.404 311.416L135.958 319.103C135.958 319.103 136.086 319.231 136.086 319.103C137.114 318.718 145.081 315.644 149.836 311.031C150.35 310.647 150.607 309.75 150.35 308.597Z" fill="#9BE7C4"/>
<path d="M136.085 319.872C135.828 319.872 135.571 319.744 135.443 319.616L129.017 312.057L62.3246 275.158L62.1961 275.03L56.799 270.161C56.542 270.033 56.542 269.777 56.542 269.521C56.542 269.265 56.6705 269.008 56.9275 268.88C63.8666 263.627 70.2918 261.065 70.5488 260.937H70.6773C71.5768 260.424 72.4763 260.809 73.1188 261.193L80.315 265.293C83.5275 267.087 86.4831 267.471 88.7961 266.19C90.9807 264.908 92.2657 262.218 92.2657 258.502V213.02C92.2657 212.764 92.3942 212.379 92.6512 212.251C92.9082 212.123 93.2937 212.123 93.5507 212.251L100.618 216.351C101.004 216.607 101.132 217.12 101.004 217.504C100.49 218.657 100.104 220.066 100.104 221.732V254.915C100.104 259.015 101.903 263.884 104.859 267.855L118.994 266.19C119.508 266.19 119.894 266.446 120.022 266.958L120.279 269.265C120.408 268.752 120.408 268.111 120.408 267.471V234.288C120.408 232.75 120.151 230.957 119.637 229.163C119.508 228.779 119.637 228.394 119.894 228.266C120.151 228.01 120.536 228.01 120.922 228.138L127.861 232.11C128.118 232.238 128.246 232.622 128.246 232.878V278.489C128.246 286.433 133.901 296.042 140.711 300.013L147.65 303.985C149.449 305.01 150.606 306.676 150.991 308.469C151.248 309.751 150.991 310.904 150.349 311.544C145.466 316.285 137.242 319.488 136.342 319.744C136.342 319.872 136.214 319.872 136.085 319.872ZM63.0956 273.877L129.917 310.904L130.045 311.032L136.342 318.335C138.27 317.566 145.209 314.747 149.449 310.519C149.835 310.263 149.835 309.622 149.706 308.726C149.449 307.316 148.421 306.035 147.008 305.266L140.069 301.295C132.744 297.067 126.833 286.817 126.833 278.489V233.007L121.307 229.804C121.693 231.213 121.821 232.622 121.821 234.032V267.215C121.821 269.393 121.436 271.186 120.536 272.596L119.508 274.389L118.609 267.343L104.73 269.008C104.473 269.008 104.088 268.88 103.959 268.624C100.618 264.268 98.6908 259.015 98.6908 254.531V221.348C98.6908 219.682 98.9478 218.273 99.4618 216.992L93.6792 213.66V258.118C93.6792 262.346 92.1372 265.549 89.4386 267.087C86.7401 268.624 83.2705 268.368 79.5439 266.19L72.3478 262.09C71.5768 261.705 71.4483 261.834 71.3198 261.834L71.0628 261.962C70.9343 261.962 64.7662 264.524 58.2125 269.265L63.0956 273.877Z" fill="#171753"/>
<path d="M136.084 320C135.827 320 135.57 319.872 135.442 319.744L131.201 314.747L135.827 314.106C136.727 313.722 144.565 310.391 149.32 306.547L149.963 306.035L150.477 306.676C150.991 307.316 150.991 307.572 151.119 308.085C151.119 308.213 151.119 308.341 151.248 308.597C151.505 309.879 151.248 311.032 150.605 311.672C145.722 316.413 137.498 319.616 136.598 319.872C136.341 320 136.213 320 136.084 320ZM134.028 315.772L136.341 318.463C138.269 317.694 145.208 314.875 149.449 310.647C149.834 310.391 149.834 309.75 149.706 308.854C149.706 308.597 149.577 308.469 149.577 308.213C144.308 312.057 136.598 315.26 136.341 315.388H136.213L134.028 315.772Z" fill="#171753"/>
<path d="M127.602 278.489V260.68C124.647 259.655 122.462 258.887 122.205 258.887C122.077 258.887 121.82 259.015 121.177 259.143V267.086C121.177 269.136 120.792 270.802 120.021 272.083L119.25 266.702C119.25 266.574 119.121 266.574 119.121 266.574L104.6 268.239H104.472C103.701 267.343 103.058 266.19 102.416 265.165C102.03 265.293 101.773 265.421 101.773 265.421L103.315 296.426L110.897 301.038L111.154 301.294L117.322 304.754L118.222 303.601C118.222 303.601 125.932 299.373 133.642 294.632C130.044 289.892 127.602 283.87 127.602 278.489Z" fill="#171753"/>
<path d="M134.156 312.825L126.703 308.469C119.635 304.369 113.981 294.504 113.981 286.433V240.437L106.528 236.21C107.171 238.131 107.556 240.053 107.556 241.975V275.158C107.556 282.076 102.673 284.895 96.6334 281.436C90.5938 277.977 85.7107 269.521 85.7107 262.602V229.419C85.7107 227.625 86.0962 226.088 86.7387 224.807L79.2856 220.579V266.574C79.2856 274.646 73.6315 277.977 66.5638 273.877L59.1107 269.521C57.6971 268.624 56.4121 269.393 56.4121 271.058C56.4121 272.724 57.5686 274.774 59.1107 275.671L134.285 318.975C135.698 319.872 136.983 319.103 136.983 317.438C136.855 315.772 135.698 313.722 134.156 312.825Z" fill="#49CE8B"/>
<path d="M135.442 320C134.928 320 134.414 319.872 133.9 319.487L58.7257 276.311C57.0551 275.286 55.6416 272.98 55.6416 271.058C55.6416 269.905 56.0271 269.136 56.7981 268.752C57.5691 268.367 58.4687 268.367 59.3682 268.88L66.8213 273.236C70.0339 275.03 72.9894 275.414 75.0455 274.133C77.23 272.852 78.3866 270.161 78.3866 266.574V219.297L87.5102 224.55L87.2532 225.191C86.6107 226.344 86.3537 227.753 86.3537 229.419V262.602C86.3537 269.264 91.1083 277.464 96.8909 280.795C99.5895 282.332 102.031 282.589 103.83 281.564C105.629 280.539 106.657 278.233 106.657 275.158V241.975C106.657 240.309 106.4 238.387 105.758 236.465L105.115 234.672L114.496 240.053V286.56C114.496 294.376 120.021 303.985 126.832 307.956L134.285 312.313C135.956 313.338 137.369 315.644 137.369 317.566C137.369 318.719 136.984 319.487 136.213 319.872C136.084 320 135.827 320 135.442 320ZM57.8262 269.905C57.6976 269.905 57.5691 269.905 57.4406 270.033C57.1836 270.161 57.0551 270.545 57.0551 271.058C57.0551 272.467 58.0832 274.261 59.3682 275.03L134.542 318.334C135.056 318.59 135.442 318.719 135.699 318.462C135.956 318.334 136.084 317.95 136.084 317.437C136.084 316.028 135.056 314.234 133.771 313.466L126.318 309.11C119.122 304.882 113.211 294.76 113.211 286.432V240.822L107.685 237.619C108.071 239.028 108.199 240.437 108.199 241.846V275.03C108.199 278.617 106.914 281.436 104.601 282.717C102.288 283.998 99.3325 283.742 96.1199 281.948C89.8233 278.361 84.8117 269.649 84.8117 262.474V229.291C84.8117 227.625 85.0687 226.216 85.5827 224.935L79.8001 221.604V266.317C79.8001 270.545 78.3866 273.62 75.688 275.158C72.9894 276.695 69.5199 276.311 65.9218 274.261L58.4687 269.905C58.3402 270.033 58.0832 269.905 57.8262 269.905Z" fill="#171753"/>
<path d="M85.7109 229.419V262.602C85.7109 269.52 90.594 277.976 96.6337 281.436C102.673 284.895 107.556 282.076 107.556 275.158V241.975C107.556 240.181 107.171 238.131 106.528 236.209L110.383 238.387V225.703H86.225C85.8394 226.856 85.7109 228.01 85.7109 229.419Z" fill="#9BE7C4"/>
<path d="M101.517 283.742C99.8467 283.742 98.0477 283.229 96.2486 282.204C89.952 278.617 84.9404 269.905 84.9404 262.73V229.547C84.9404 228.138 85.1974 226.856 85.5829 225.703L85.7114 225.191H111.155V239.925L107.685 238.003C108.071 239.412 108.199 240.822 108.199 242.231V275.414C108.199 279.001 106.914 281.82 104.601 283.101C103.702 283.486 102.674 283.742 101.517 283.742ZM86.7395 226.6C86.4825 227.497 86.354 228.394 86.354 229.547V262.73C86.354 269.392 91.1085 277.592 96.8912 280.923C99.5897 282.461 102.031 282.717 103.83 281.692C105.629 280.667 106.657 278.361 106.657 275.286V242.103C106.657 240.437 106.4 238.515 105.758 236.594L105.115 234.8L109.484 237.362V226.6H86.7395V226.6Z" fill="#171753"/>
<path d="M101.774 225.832H86.2249C85.8394 226.857 85.7109 228.138 85.7109 229.419V262.602C85.7109 267.727 88.4095 273.748 92.2646 277.976C96.1196 278.233 98.9467 275.414 98.9467 270.161V236.978C98.9467 235.184 98.5612 233.134 97.9187 231.213L101.774 233.391V225.832Z" fill="#171753"/>
<path d="M92.7777 278.745C92.5207 278.745 92.3922 278.745 92.1352 278.745H91.8782L91.6212 278.489C87.5091 274.005 84.8105 267.855 84.8105 262.73V229.547C84.8105 228.138 85.0676 226.856 85.4531 225.703L85.5816 225.191H102.415V234.928L98.9458 233.006C99.3313 234.416 99.4598 235.825 99.4598 237.234V270.417C99.4598 273.492 98.5603 275.798 97.0183 277.336C95.9903 278.233 94.4482 278.745 92.7777 278.745ZM92.5207 277.208C93.9342 277.208 95.0908 276.823 95.9903 276.055C97.2753 274.773 98.0463 272.852 98.0463 270.289V237.106C98.0463 235.441 97.7893 233.519 97.1468 231.597L96.5043 229.803L100.873 232.366V226.728H86.6096C86.3526 227.625 86.2241 228.522 86.2241 229.675V262.858C86.3526 267.471 88.7941 273.108 92.5207 277.208Z" fill="#171753"/>
<path d="M89.3086 227.625V260.808C89.3086 267.727 94.1917 276.183 100.231 279.642C102.159 280.795 103.958 281.179 105.628 281.051C106.785 279.77 107.556 277.72 107.556 275.03V241.847C107.556 240.053 107.17 238.003 106.528 236.081L110.383 238.259V234.8C110.383 234.544 110.255 234.416 110.255 234.159L110.383 234.288V225.447H89.5656C89.4371 226.344 89.3086 226.985 89.3086 227.625Z" fill="#9BE7C4"/>
<path d="M105.243 281.948C103.572 281.948 101.773 281.436 99.9742 280.411C93.6776 276.823 88.666 268.111 88.666 260.936V227.753C88.666 227.113 88.666 226.472 88.7945 225.832L88.923 225.191H111.282V239.925L107.813 238.003C108.198 239.412 108.327 240.822 108.327 242.231V275.414C108.327 278.105 107.556 280.283 106.271 281.82L106.014 282.076H105.757C105.5 281.948 105.371 281.948 105.243 281.948ZM90.208 226.6C90.208 226.985 90.208 227.369 90.208 227.753V260.936C90.208 267.599 94.9626 275.798 100.745 279.13C102.416 280.026 103.958 280.539 105.371 280.539C106.399 279.258 106.913 277.464 106.913 275.286V242.103C106.913 240.437 106.656 238.515 106.014 236.594L105.371 234.8L109.74 237.362V235.184C109.74 235.056 109.74 234.928 109.612 234.8L108.969 233.006L109.74 233.391V226.6H90.208V226.6Z" fill="#171753"/>
<path d="M153.43 185.218L151.374 283.742L190.567 306.291L203.289 298.988V167.793C203.289 164.59 202.004 161.131 200.205 158.569L178.231 171.252L153.43 185.218Z" fill="#171753"/>
<path d="M190.568 307.188L150.604 284.126V283.742L152.66 184.833L177.846 170.484L200.463 157.543L200.848 158.056C202.904 160.875 204.061 164.59 204.061 167.793V299.501L190.568 307.188ZM152.146 283.357L190.568 305.522L202.519 298.732V167.793C202.519 165.103 201.619 162.028 199.948 159.465L178.489 171.765L154.073 185.602L152.146 283.357Z" fill="#171753"/>
<path d="M185.814 315.644L7.45264 213.02C3.72606 210.842 0.770508 205.204 0.770508 200.208V63.2473C0.770508 58.3787 3.72606 56.0726 7.45264 58.2506L185.814 160.875C189.541 163.053 192.496 168.69 192.496 173.687V310.647C192.496 315.516 189.541 317.822 185.814 315.644Z" fill="#49CE8B"/>
<path d="M188.513 317.181C187.614 317.181 186.586 316.925 185.429 316.285L7.06764 213.66C3.21256 211.482 0 205.461 0 200.208V63.2474C0 60.4288 1.02802 58.2507 2.69856 57.2258C4.11208 56.3289 5.91112 56.457 7.83866 57.6101L186.2 160.234C190.055 162.412 193.268 168.434 193.268 173.687V310.647C193.268 313.466 192.24 315.644 190.569 316.669C189.927 317.053 189.156 317.181 188.513 317.181ZM186.2 315.132C187.614 315.9 188.899 316.028 189.798 315.516C191.083 314.747 191.726 313.082 191.726 310.775V173.687C191.726 169.075 188.899 163.565 185.429 161.516L7.06764 58.8913C5.65411 58.1226 4.36909 57.9945 3.46957 58.507C2.18454 59.2757 1.54203 60.9412 1.54203 63.2474V200.336C1.54203 204.948 4.36909 210.457 7.83866 212.507L186.2 315.132Z" fill="#171753"/>
<path d="M185.171 301.166L8.09453 199.183C7.06651 198.542 6.16699 197.005 6.16699 195.595V66.1941C6.16699 64.7848 7.06651 64.1442 8.09453 64.7848L185.3 166.768C186.328 167.409 187.227 168.946 187.227 170.356V299.757C187.099 301.166 186.199 301.807 185.171 301.166Z" fill="#ECFFFE"/>
<path d="M185.943 302.063C185.557 302.063 185.172 301.935 184.786 301.679L7.70953 199.823C6.4245 199.054 5.39648 197.261 5.39648 195.595V66.1938C5.39648 65.1688 5.78199 64.4001 6.4245 64.0158C6.93851 63.6314 7.70953 63.7595 8.35204 64.1439L185.557 166.128C186.842 166.896 187.87 168.69 187.87 170.355V299.757C187.87 300.782 187.485 301.551 186.842 301.935C186.585 302.063 186.328 302.063 185.943 302.063ZM185.557 300.526C185.686 300.526 185.943 300.654 186.071 300.654C186.2 300.526 186.328 300.269 186.328 299.757V170.355C186.328 169.202 185.557 167.793 184.786 167.409L7.70953 65.297C7.58103 65.297 7.32402 65.1688 7.19552 65.1688C7.06702 65.297 6.93852 65.5532 6.93852 66.0657V195.467C6.93852 196.62 7.70953 198.029 8.48055 198.414L185.557 300.526Z" fill="#171753"/>
<path d="M186.842 300.141L9.76507 198.158C8.73705 197.517 7.83753 195.98 7.83753 194.57V65.1692C7.83753 65.041 7.83753 64.7848 7.83753 64.6567C6.93801 64.2723 6.16699 64.9129 6.16699 66.1941V195.595C6.16699 197.005 7.06651 198.67 8.09453 199.183L185.3 301.166C186.199 301.679 186.97 301.295 187.227 300.27C186.97 300.141 186.97 300.141 186.842 300.141Z" fill="#171753"/>
<path d="M185.943 302.063C185.557 302.063 185.172 301.935 184.786 301.679L7.70953 199.823C6.4245 199.055 5.39648 197.261 5.39648 195.595V66.194C5.39648 65.2972 5.78199 64.5285 6.296 64.1441C6.81001 63.7597 7.45252 63.7597 8.09504 64.016L8.60905 64.2722V64.6566C8.60905 64.7847 8.60905 64.9128 8.60905 65.0409V194.442C8.60905 195.595 9.38006 197.005 10.1511 197.389L187.228 299.501L186.842 300.141L187.228 299.501L187.87 299.757V300.398C187.742 301.166 187.356 301.679 186.714 301.935C186.457 302.063 186.2 302.063 185.943 302.063ZM7.06702 65.2972C6.93851 65.4253 6.93852 65.6815 6.93852 66.0659V195.467C6.93852 196.62 7.70953 198.03 8.48055 198.414L185.686 300.398C185.943 300.526 186.071 300.526 186.2 300.526C186.2 300.526 186.2 300.526 186.328 300.526L9.38006 198.798C8.09504 198.03 7.06702 196.236 7.06702 194.57V65.2972V65.2972Z" fill="#171753"/>
<path d="M103.059 262.09L90.2087 254.659C89.6947 254.274 89.1807 253.506 89.1807 252.737C89.1807 251.968 89.6947 251.584 90.2087 251.968L103.059 259.399C103.573 259.783 104.087 260.552 104.087 261.321C104.087 262.09 103.573 262.474 103.059 262.09Z" fill="#171753"/>
<path d="M103.445 262.987C103.188 262.987 102.931 262.858 102.674 262.73L89.8237 255.299C89.0527 254.787 88.4102 253.762 88.4102 252.737C88.4102 252.096 88.6672 251.584 89.1812 251.328C89.5667 251.071 90.0807 251.071 90.5947 251.328L103.445 258.759C104.216 259.271 104.858 260.296 104.858 261.321C104.858 261.962 104.601 262.474 104.087 262.73C103.83 262.858 103.702 262.987 103.445 262.987ZM89.9522 252.609C89.9522 252.737 89.9522 252.737 89.9522 252.609C89.9522 253.249 90.3377 253.89 90.5947 254.018L103.316 261.321V261.193C103.316 260.68 102.931 260.04 102.674 259.912L89.9522 252.609Z" fill="#171753"/>
<path d="M91.5397 271.443L88.9775 272.912L89.6822 274.133L92.2444 272.664L91.5397 271.443Z" fill="#ECFFFE"/>
<path d="M199.435 269.521L196.351 271.314C195.837 271.571 195.323 271.314 195.323 270.546V262.218C195.323 261.449 195.709 260.68 196.351 260.296L199.435 258.502C199.949 258.246 200.463 258.502 200.463 259.271V267.599C200.463 268.368 199.949 269.264 199.435 269.521Z" fill="#171753"/>
<path d="M199.435 253.249L196.351 255.043C195.837 255.299 195.323 255.043 195.323 254.274V245.947C195.323 245.178 195.709 244.409 196.351 244.025L199.435 242.231C199.949 241.975 200.463 242.231 200.463 243V251.328C200.463 251.968 199.949 252.865 199.435 253.249Z" fill="#171753"/>
<path d="M14.4559 192.22L6.77734 196.64L7.4841 197.861L15.1626 193.441L14.4559 192.22Z" fill="#ECFFFE"/>
<path d="M37.2868 67.9175L36.5801 69.1379L164.667 142.871L165.374 141.651L37.2868 67.9175Z" fill="#171753"/>
<path d="M19.0187 82.7212L15.0352 80.6713V79.262L19.0187 81.3119V82.7212Z" fill="#171753"/>
<path d="M19.0187 95.1489L15.0352 92.9708V91.5615L19.0187 93.7396V95.1489Z" fill="#171753"/>
<path d="M19.0187 107.448L15.0352 105.399V103.989L19.0187 106.039V107.448Z" fill="#171753"/>
<path d="M19.0187 119.748L15.0352 117.698V116.289L19.0187 118.339V119.748Z" fill="#171753"/>
<path d="M19.0187 132.047L15.0352 129.997V128.588L19.0187 130.638V132.047Z" fill="#171753"/>
<path d="M19.0187 156.775L15.0352 154.725V153.315L19.0187 155.365V156.775Z" fill="#171753"/>
<path d="M19.0187 169.074L15.0352 167.024V165.615L19.0187 167.665V169.074Z" fill="#171753"/>
<path d="M19.0187 181.374L15.0352 179.324V177.915L19.0187 180.093V181.374Z" fill="#171753"/>
<path d="M96.1197 127.435L22.6162 84.8996V83.4902L96.1197 126.026V127.435Z" fill="#171753"/>
<path d="M72.4752 126.154L22.6162 97.327V95.9177L72.4752 124.745V126.154Z" fill="#171753"/>
<path d="M43.0481 121.286L22.6162 109.627V108.218L43.0481 119.876V121.286Z" fill="#171753"/>
<path d="M96.1197 164.462L22.6162 121.926V120.517L96.1197 163.052V164.462Z" fill="#171753"/>
<path d="M65.5361 158.953L22.6162 134.225V132.816L65.5361 157.543V158.953Z" fill="#171753"/>
<path d="M65.5361 171.252L22.6162 146.653V145.244L65.5361 169.843V171.252Z" fill="#171753"/>
<path d="M74.4027 188.805L22.6162 158.953V157.543L74.4027 187.395V188.805Z" fill="#171753"/>
<path d="M49.4733 186.883L22.6162 171.252V169.843L49.4733 185.474V186.883Z" fill="#171753"/>
<path d="M96.1197 226.088L22.6162 183.552V182.271L96.1197 224.678V226.088Z" fill="#171753"/>
<path d="M146.107 156.39L98.0469 128.844V127.435L146.107 154.981V156.39Z" fill="#171753"/>
<path d="M123.234 155.109L75.1738 127.435V126.026L123.234 153.7V155.109Z" fill="#171753"/>
<path d="M93.9344 150.241L46.0029 122.695V121.285L93.9344 148.831V150.241Z" fill="#171753"/>
<path d="M144.052 178.427L96.1201 150.753V149.344L144.052 177.018V178.427Z" fill="#171753"/>
<path d="M146.107 193.417L98.0469 165.871V164.462L146.107 192.008V193.417Z" fill="#171753"/>
<path d="M115.265 187.267L67.334 159.593V158.184L115.265 185.858V187.267Z" fill="#171753"/>
<path d="M115.265 199.567L67.334 172.021V170.612L115.265 198.157V199.567Z" fill="#171753"/>
<path d="M124.904 218.528L76.8438 190.854V189.445L124.904 217.119V218.528Z" fill="#171753"/>
<path d="M100.875 217.119L52.9434 189.445V188.036L100.875 215.71V217.119Z" fill="#171753"/>
<path d="M146.107 255.171L98.0469 227.497V226.088L146.107 253.762V255.171Z" fill="#171753"/>
<path d="M14.5088 188.099V128.876C14.5088 126.265 16.1452 124.96 18.1088 126.102L63.1093 152.043C65.0729 153.185 66.7093 156.285 66.7093 158.895V218.119L14.5088 188.099Z" fill="white"/>
<path d="M67.5283 219.587L18.7016 191.474C15.6018 189.689 13.6914 186.384 13.6914 182.807V128.875C13.6914 127.244 14.346 125.939 15.3278 125.286C16.3096 124.797 17.2914 124.797 18.4369 125.449L63.4374 151.39C65.7283 152.696 67.3647 155.959 67.3647 158.895V219.587H67.5283ZM15.3278 187.61L65.8919 216.814V159.058C65.8919 156.774 64.4192 153.838 62.6192 152.859L17.6187 126.918C17.1278 126.591 16.6369 126.428 15.9823 126.755C15.4914 127.081 15.1641 127.897 15.1641 129.039V187.446C15.1641 187.537 15.2374 187.61 15.3278 187.61V187.61Z" fill="#171753"/>
<path d="M47.3548 195.048L56.7275 200.454V189.641L47.3548 184.235V195.048Z" fill="#9BE7C4" stroke="#171753" stroke-width="2" stroke-miterlimit="10" stroke-linejoin="round"/>
<path d="M34.7396 187.753L44.1123 193.16V182.346L34.7396 176.94V187.753Z" fill="#9BE7C4" stroke="#171753" stroke-width="2" stroke-miterlimit="10" stroke-linejoin="round"/>
<path d="M22.1244 180.161L31.4971 185.567V174.754L22.1244 169.348V180.161Z" fill="#9BE7C4" stroke="#171753" stroke-width="2" stroke-miterlimit="10" stroke-linejoin="round"/>
<path d="M47.3539 179.477L56.7266 184.883V174.07L47.3539 168.664V179.477Z" fill="#9BE7C4" stroke="#171753" stroke-width="2" stroke-miterlimit="10" stroke-linejoin="round"/>
<path d="M46.9017 164.377L56.2744 169.784V158.971L46.9017 153.564V164.377Z" fill="#9BE7C4" stroke="#171753" stroke-width="2" stroke-miterlimit="10" stroke-linejoin="round"/>
<path d="M34.7396 172.182L44.1123 177.588V166.775L34.7396 161.369V172.182Z" fill="#9BE7C4" stroke="#171753" stroke-width="2" stroke-miterlimit="10" stroke-linejoin="round"/>
<path d="M34.2884 157.082L43.6611 162.489V151.676L34.2884 146.269V157.082Z" fill="#9BE7C4" stroke="#171753" stroke-width="2" stroke-miterlimit="10" stroke-linejoin="round"/>
<path d="M22.1244 164.59L31.4971 169.996V159.183L22.1244 153.777V164.59Z" fill="#9BE7C4" stroke="#171753" stroke-width="2" stroke-miterlimit="10" stroke-linejoin="round"/>
<path d="M21.6742 149.49L31.0469 154.897V144.084L21.6742 138.677V149.49Z" fill="#9BE7C4" stroke="#171753" stroke-width="2" stroke-miterlimit="10" stroke-linejoin="round"/>
<path d="M157.628 174.045L170.124 166.062L157.628 165.715L156.24 167.103L155.198 171.269L157.628 174.045Z" fill="#171753"/>
<path d="M157.28 175.434L153.809 171.269V170.575L154.85 166.062L155.197 165.715L156.933 163.979H157.28L170.47 164.674L170.817 166.062L170.123 166.409L157.28 175.434ZM156.238 170.575L157.974 172.31L166.999 166.409L158.321 166.062L157.28 167.103L156.238 170.575Z" fill="#171753"/>
<path d="M178.453 103.582L139.577 81.0199C137.494 79.6314 135.411 79.6314 134.023 80.3256L121.18 88.3092C121.874 89.3505 127.081 100.458 127.428 102.541C127.775 103.235 129.163 111.913 131.246 121.632V126.491C131.246 129.268 132.287 132.392 134.023 135.169C136.105 145.582 137.841 154.26 137.841 154.26L155.544 160.161H156.932L155.891 157.384C155.544 155.996 155.544 154.607 155.197 153.219L171.858 171.963C171.858 171.963 171.858 171.963 172.205 171.963L184.354 164.326C184.354 164.326 184.354 164.326 184.701 164.326C186.089 163.285 187.131 161.549 187.131 159.12V118.161C187.131 112.954 183.312 106.359 178.453 103.582Z" fill="#49CE8B"/>
<path d="M172.204 173.004C171.856 173.004 171.509 173.004 171.162 172.657L156.584 156.343C156.584 156.69 156.584 157.037 156.584 157.384L157.625 160.161C157.972 160.855 157.625 161.202 156.931 161.549H156.584H154.848L136.798 155.301V154.954C136.798 154.607 135.063 145.929 132.98 135.863C131.244 132.739 130.203 129.615 130.203 126.838V121.979C127.773 110.177 126.732 103.582 126.385 102.888C126.038 101.499 122.914 94.9042 120.137 89.0033C119.79 88.3091 120.137 87.6149 120.484 87.6149L133.327 79.6314C135.41 78.59 137.84 78.9371 140.269 80.3256L179.146 102.888C184.005 105.665 188.171 112.607 188.171 118.508V158.773C188.171 161.549 187.129 163.979 185.394 165.021H185.047L172.898 172.657C172.551 173.004 172.551 173.004 172.204 173.004ZM154.154 150.442L172.551 170.921L184.005 163.632L184.699 164.326L184.005 163.285C185.047 162.591 185.741 160.855 185.741 158.773V118.161C185.741 113.301 182.27 107.053 177.757 104.276L139.228 82.0611C137.492 81.0198 135.757 80.6727 134.368 81.3669L122.567 88.6562C124.302 92.1273 128.12 100.458 128.468 102.194C128.815 102.888 129.856 109.136 132.286 121.285V121.632V126.491C132.286 128.921 133.327 131.698 134.716 134.475V134.822C136.451 143.5 137.84 151.136 138.187 153.566L154.848 159.12L154.154 157.384C153.807 155.996 153.807 154.26 153.46 152.872L154.154 150.442Z" fill="#171753"/>
<path d="M178.451 103.582L141.658 82.4082L123.261 93.8629L162.831 114.689L171.162 116.078L183.658 108.441C182.27 106.359 180.534 104.623 178.451 103.582Z" fill="#ECFFFE"/>
<path d="M171.164 117.119L162.139 115.731L121.18 93.8629L141.659 81.0198L179.147 102.541C181.23 103.582 182.965 105.318 184.701 107.747L185.395 108.789L171.164 117.119ZM163.18 113.648L170.817 114.689L181.924 108.094C180.536 106.359 179.494 105.318 177.759 104.623L141.312 83.7967L124.998 93.8629L163.18 113.648Z" fill="#171753"/>
<path d="M186.526 118.394L174.039 125.918L175.114 127.702L187.601 120.177L186.526 118.394Z" fill="#171753"/>
<path d="M186.291 147.859L173.805 155.383L174.88 157.167L187.366 149.643L186.291 147.859Z" fill="#171753"/>
<path d="M127.079 89.0034L165.955 111.566C170.468 114.343 174.286 120.591 174.286 126.144V166.756C174.286 171.963 170.468 174.393 165.955 171.616L161.443 169.186C160.748 168.839 160.054 168.839 159.707 169.88C159.36 172.31 157.624 176.822 151.029 174.046C149.641 173.698 148.947 171.616 149.294 170.574C149.641 169.186 150.335 167.103 150.335 164.674C150.335 163.632 149.641 162.244 148.6 161.897L127.079 149.401C122.566 146.624 118.748 140.376 118.748 134.822V93.863C118.748 88.3092 122.566 86.2266 127.079 89.0034Z" fill="#49CE8B"/>
<path d="M154.849 175.781C153.808 175.781 152.419 175.434 151.031 174.74C149.295 174.045 147.907 171.616 148.601 169.88C148.948 168.492 149.295 166.756 149.295 164.326C149.295 163.632 148.601 162.591 148.254 162.244L126.733 149.748C121.873 146.971 117.708 140.029 117.708 134.128V93.863C117.708 90.739 118.749 88.6563 120.832 87.615C122.915 86.5736 125.344 86.5736 127.774 88.3092L166.651 110.871C171.51 113.648 175.675 120.59 175.675 126.491V167.103C175.675 170.227 174.634 172.31 172.551 173.351C170.469 174.393 168.039 174.393 165.609 172.657L161.097 170.227C160.75 171.963 159.708 174.393 157.626 175.434C156.931 175.434 155.89 175.781 154.849 175.781ZM123.609 88.6563C122.915 88.6563 122.568 88.6563 121.873 89.0034C120.485 89.6976 119.791 91.4332 119.791 93.5158V134.475C119.791 139.334 123.262 145.582 127.774 148.012L149.295 160.508C150.683 161.202 151.378 162.938 151.378 164.326C151.378 166.409 151.031 168.492 150.336 170.574C149.989 171.269 150.684 172.657 151.725 173.004C153.808 173.698 155.196 174.045 156.584 173.351C157.973 172.657 158.667 170.574 159.014 169.533C159.014 168.839 159.708 168.145 160.056 168.145C160.75 167.797 161.444 167.797 162.138 168.492L166.651 170.921C168.386 171.963 170.122 172.31 171.51 171.616C172.899 170.921 173.593 169.186 173.593 167.103V125.797C173.593 120.938 170.122 114.69 165.609 112.26L126.733 89.6976C125.692 89.0034 124.303 88.6563 123.609 88.6563Z" fill="#171753"/>
<path d="M187.131 154.607L174.635 162.244V167.798L173.94 170.922L184.701 164.327L186.784 161.55L187.131 158.426V154.607Z" fill="#171753"/>
<path d="M152.073 133.086V117.814C152.073 117.467 151.726 116.772 151.379 116.772L137.147 108.442C136.8 108.095 136.453 108.442 136.453 108.789V124.062C136.453 124.409 136.106 124.756 135.759 124.409L132.982 123.02C132.288 122.673 131.94 123.367 132.288 124.062L143.742 146.624C144.089 147.318 144.436 147.318 144.784 147.318L156.238 137.946C156.585 137.599 156.238 136.558 155.544 136.21L152.767 134.475C152.42 134.128 152.073 133.781 152.073 133.086Z" fill="#ECFFFE"/>
</svg>
