<svg width="103" height="128" viewBox="0 0 103 128" fill="none" xmlns="http://www.w3.org/2000/svg">
<circle opacity="0.8" cx="51.5" cy="76.5" r="51.5" fill="#FFC78F"/>
<path opacity="0.4" d="M55.6379 64.2744L47.8552 68.7039C47.1476 67.8482 46.1874 67.0428 44.924 66.2878C39.2639 63.016 30.0661 63.016 24.406 66.2878C18.7458 69.5596 18.7458 74.8448 24.406 78.1166C25.6694 78.8212 27.0845 79.3749 28.55 79.7776L17.0781 86.3212L45.7326 102.831L84.2418 80.734L55.6379 64.2744Z" fill="#03002D"/>
<path d="M30.3945 13.6362L31.938 21.626L39.4699 20.8885L38.4203 12.7144C36.0126 12.2227 33.2962 12.7144 30.3945 13.6362Z" fill="white"/>
<path d="M37.5566 67.4749C37.5566 68.0895 38.0505 68.5812 38.6679 68.5812C39.2853 68.5812 39.7792 68.0895 39.7792 67.4749C39.7792 66.8603 39.2853 66.3687 38.6679 66.3687C38.1123 66.3687 37.5566 66.8603 37.5566 67.4749Z" fill="#030403"/>
<path d="M40.2109 78.6605C40.2109 79.2751 40.7048 79.7667 41.3222 79.7667C41.9396 79.7667 42.4335 79.2751 42.4335 78.6605C42.4335 78.0459 41.9396 77.5542 41.3222 77.5542C40.7048 77.5542 40.2109 78.0459 40.2109 78.6605Z" fill="#030403"/>
<path d="M22.3086 83.8231C22.3086 84.4377 22.8025 84.9293 23.4199 84.9293C24.0372 84.9293 24.5311 84.4377 24.5311 83.8231C24.5311 83.2085 24.0372 82.7168 23.4199 82.7168C22.8025 82.7168 22.3086 83.2085 22.3086 83.8231Z" fill="#171753" stroke="#171753" stroke-width="0.25" stroke-miterlimit="10"/>
<path d="M8.91016 75.8336C8.91016 76.4482 9.40405 76.9398 10.0214 76.9398C10.6388 76.9398 11.1327 76.4482 11.1327 75.8336C11.1327 75.219 10.6388 74.7273 10.0214 74.7273C9.40405 74.7273 8.91016 75.219 8.91016 75.8336Z" fill="#171753" stroke="#171753" stroke-width="0.25" stroke-miterlimit="10"/>
<path d="M17.123 65.078C17.123 65.6926 17.6169 66.1842 18.2343 66.1842C18.8517 66.1842 19.3456 65.6926 19.3456 65.078C19.3456 64.4634 18.8517 63.9717 18.2343 63.9717C17.6169 63.9717 17.123 64.4634 17.123 65.078Z" fill="#171753" stroke="#171753" stroke-width="0.25" stroke-miterlimit="10"/>
<path d="M17.0604 64.2174V62.6809L19.0977 63.6028L26.8765 70.7936L38.0509 65.3851L39.7178 64.7705V66.307L30.2103 72.7603L42.6812 75.6489V77.1854L41.6316 78.3531L28.0495 75.1572L24.5305 83.3928L22.2463 83.147V81.6719L23.3575 74.727L8.72589 75.4031L8.35547 74.0509V72.5145L22.6167 72.0228L17.0604 64.2174Z" fill="#171753" stroke="#171753" stroke-width="0.25" stroke-miterlimit="10"/>
<path d="M17.5539 62.558L18.9122 62.1893C19.0356 62.1278 19.1591 62.1893 19.2826 62.2507L26.691 69.0728C26.8145 69.1957 26.9997 69.1957 27.1232 69.1342L37.9271 63.9101C38.0506 63.8487 38.1741 63.8487 38.2975 63.9101L39.2236 64.4633C39.4705 64.5862 39.4705 64.955 39.2236 65.1393L30.8274 70.7936C30.5804 70.978 30.6422 71.3468 30.8891 71.4697L42.1252 75.4646C42.3722 75.526 42.4339 75.8948 42.3104 76.0792L41.8165 76.6937C41.6931 76.8167 41.5696 76.8167 41.4461 76.8167L28.3579 73.7437C28.1727 73.6822 27.9875 73.8051 27.9257 73.9895L24.6537 81.6105C24.5919 81.7334 24.4067 81.8564 24.2833 81.8564L22.6781 81.7334C22.4312 81.7334 22.3077 81.5491 22.3077 81.3032L23.2955 73.7437C23.2955 73.4978 23.1103 73.3135 22.925 73.3135L9.03425 73.9281C8.84904 73.9281 8.72557 73.8051 8.66383 73.6208L8.47862 73.0062C8.41689 72.7603 8.54036 72.576 8.78731 72.5145L21.999 70.6707C22.3077 70.6092 22.4312 70.3019 22.2459 70.0561L17.3687 63.1726C17.1835 62.9268 17.307 62.6195 17.5539 62.558Z" fill="#FFA6A6" stroke="#171753" stroke-width="0.7" stroke-miterlimit="10"/>
<path d="M24.7166 70.6708C23.8523 71.1624 23.8523 71.9614 24.7166 72.3916C25.5809 72.8833 26.9391 72.8833 27.7417 72.3916C28.606 71.9 28.606 71.101 27.7417 70.6708C26.9391 70.1791 25.5809 70.1791 24.7166 70.6708Z" fill="#171753" stroke="#171753" stroke-width="0.25" stroke-miterlimit="10"/>
<path d="M28.4192 57.8257H24.0977V71.5926H28.4192V57.8257Z" fill="#171753" stroke="#171753" stroke-width="0.25" stroke-miterlimit="10"/>
<path d="M26.3828 44.9192L43.3605 54.6913C44.1631 55.1215 44.7804 54.7527 44.7804 53.8923C44.7804 51.7412 43.2987 49.2214 41.5084 48.1766L26.3828 39.4493C25.5803 39.0191 24.9629 39.3878 24.9629 40.2483V42.4608C24.9629 43.3213 25.642 44.4275 26.3828 44.9192Z" fill="#4A4A49"/>
<path d="M28.9744 63.6027L44.4703 54.6296L25.4554 39.3262L9.83594 48.2993L28.9744 63.6027Z" fill="#4A4A49"/>
<path d="M29.4688 39.5722L29.0366 37.0523L25.2089 12.407L24.9002 10.5018C24.7768 9.70278 24.2211 8.9038 23.6038 8.65797L21.443 7.79753C21.196 7.67461 20.9491 7.73607 20.7639 7.79753L5.45312 16.6477L13.7259 49.4672L29.0984 40.617C29.407 40.4326 29.5305 40.0638 29.4688 39.5722Z" fill="#FFA54B" stroke="#171753" stroke-width="0.7" stroke-miterlimit="10"/>
<path d="M10.9473 53.7694L27.9249 63.5414C28.7275 63.9717 29.3449 63.6029 29.3449 62.7425C29.3449 60.5914 27.8632 58.0715 26.0728 57.0267L10.9473 48.3609C10.1447 47.9307 9.52734 48.2995 9.52734 49.1599V51.3724C9.52734 52.2329 10.1447 53.3392 10.9473 53.7694Z" fill="#030403"/>
<path d="M13.9729 48.4839L9.46608 19.4135C9.3426 18.6145 8.78697 17.8155 8.1696 17.5697L6.00881 16.7092C5.32971 16.4634 4.89755 16.8936 5.02102 17.754L9.3426 46.3328C9.46608 47.0088 9.95997 47.7463 10.5156 48.1151L12.8616 49.4672C13.5407 49.836 14.0963 49.4058 13.9729 48.4839Z" fill="#171753" stroke="#171753" stroke-width="0.25" stroke-miterlimit="10"/>
<path d="M41.2619 44.9805V46.0253L41.694 46.2711C42.867 46.9472 43.8548 46.3941 43.8548 45.042V38.6502C43.8548 37.298 42.867 35.6386 41.694 34.9626L30.9518 28.8166C29.7788 28.1406 28.791 28.6937 28.791 30.0458V30.5375L29.7171 31.0292V30.5375C29.7171 29.7385 30.2727 29.4312 30.9518 29.8L41.694 35.9459C42.3731 36.3147 42.9288 37.298 42.9288 38.097V44.4888C42.9288 45.2878 42.3731 45.5951 41.694 45.2263L41.2619 44.9805Z" fill="#4A4A49"/>
<path d="M40.5818 47.9304L43.2365 46.3939V37.2364L42.1869 35.7614L29.5309 28.6321L26.8145 30.1686L38.8531 36.4989L40.5818 39.0188V47.9304Z" fill="#4A4A49"/>
<path d="M28.3578 31.3363L28.7899 31.5821L29.716 32.0738V36.9291C29.716 37.7281 30.2716 38.65 30.9507 39.0802L40.3347 44.4272V45.472V45.9637C40.3347 46.7627 39.7791 47.07 39.1 46.7012L28.3578 40.6167C27.6787 40.2479 27.123 39.2646 27.123 38.4656V32.0123C27.123 31.2748 27.6787 30.9061 28.3578 31.3363Z" fill="#4A4A49"/>
<path d="M26.1973 31.5207V37.9739C26.1973 39.326 27.1851 40.9854 28.3581 41.6615L39.1003 47.8075C40.2733 48.4835 41.2611 47.9304 41.2611 46.5783V46.0866V45.0418V40.125C41.2611 38.7729 40.2733 37.1135 39.1003 36.4374L29.7163 31.0904L28.7902 30.5988L28.3581 30.2915C27.1851 29.6154 26.1973 30.1685 26.1973 31.5207ZM27.1233 32.0123C27.1233 31.2134 27.679 30.9061 28.3581 31.2748L28.7902 31.5207L29.7163 32.0123L39.1003 37.4208C39.7794 37.7895 40.335 38.7729 40.335 39.5719V44.4272V45.472V45.9637C40.335 46.7626 39.7794 47.0699 39.1003 46.7012L28.3581 40.6167C27.679 40.2479 27.1233 39.2646 27.1233 38.4656V32.0123Z" fill="#1D1D1B"/>
<path d="M40.5188 86.6503C40.0866 85.3597 38.6667 83.8232 36.9381 82.7169C36.5676 82.4711 36.3824 82.0408 36.3207 81.5492C36.259 81.3648 36.259 81.1804 36.1972 80.996C36.0737 80.6273 35.9503 80.2585 35.7033 80.0127L31.5052 79.7668C31.32 80.0741 31.1348 80.32 30.9496 80.6273C30.8261 80.8731 30.6409 81.1804 30.5174 81.4877C30.2705 82.0409 30.0235 82.6554 29.9001 83.393C29.8383 83.7617 29.7766 84.1305 29.7148 84.4992C29.7148 84.9295 29.9618 85.2982 30.5174 85.6055L36.3207 88.617C37.3702 89.1702 38.9754 89.1087 39.9632 88.4941C40.3953 88.2483 40.5805 87.8795 40.6423 87.5722V87.3264C40.6423 87.142 40.5805 86.8962 40.5188 86.6503Z" fill="#171753" stroke="#171753" stroke-width="0.25" stroke-miterlimit="10"/>
<path d="M40.7665 87.6339C40.7048 87.7568 40.7665 87.6339 40.7665 87.6339C40.7048 87.9412 40.4579 88.31 40.0874 88.5558C39.0997 89.1704 37.4328 89.2318 36.3832 88.6787L30.4565 85.6057C29.5304 85.1141 29.6539 84.4995 29.6539 84.4995C29.6539 84.1307 29.7774 83.5776 29.9626 83.2703C29.7774 83.7619 31.8147 84.4995 32.679 85.237C33.9138 86.2818 35.272 87.1422 36.7537 87.7568C37.3093 88.0027 37.8649 88.187 38.4823 88.187C39.0997 88.187 39.717 88.0641 40.1492 87.6339C40.3344 87.4495 40.6431 87.0193 40.5196 86.5891C40.5813 86.8349 40.8283 87.0808 40.7665 87.6339Z" fill="#171753" stroke="#171753" stroke-width="0.25" stroke-miterlimit="10"/>
<path d="M39.5322 58.8092L34.4698 61.8822L30.5187 59.6082L16.0722 51.2497C14.8992 50.5736 14.1584 49.4059 14.0966 48.0538L13.541 40.8015C18.2948 43.3214 24.0363 45.5954 28.9135 47.9923C31.4447 49.2829 33.7907 50.6351 35.5811 52.0486C38.1123 54.0768 39.6557 56.2279 39.5322 58.8092Z" fill="#FFC78F" stroke="#171753" stroke-width="0.7" stroke-miterlimit="10"/>
<path d="M39.5317 58.8089C39.2848 57.211 37.9883 55.9818 36.3831 55.6745C35.0867 55.4286 33.7902 56.1047 32.6172 56.8422C31.8146 57.3339 31.0738 58.3172 30.5799 59.1777C30.1477 59.9152 29.9008 74.4197 29.9625 80.9344C29.9625 81.3031 30.1477 81.6104 30.4564 81.9177C30.6416 82.1021 30.8268 82.225 31.0738 82.348C32.2468 82.9625 33.9754 83.024 35.2719 82.5323C35.3954 82.4709 35.5188 82.4094 35.6423 82.348C35.7658 82.2865 35.8893 82.225 36.0127 82.1636C36.1362 82.1021 36.1979 82.0407 36.2597 81.9792C36.6301 81.6719 36.877 81.3646 36.9388 80.9958C37.3092 80.0125 39.8404 60.4069 39.5317 58.8089Z" fill="#FFC78F" stroke="#171753" stroke-width="0.7" stroke-miterlimit="10"/>
<path d="M49.9641 81.1188C49.532 79.8282 48.112 78.2917 46.3834 77.1854C46.0129 76.9396 45.8277 76.5094 45.766 76.0177C45.7043 75.8333 45.7043 75.6489 45.6425 75.4645C45.5191 75.0958 45.3956 74.727 45.1486 74.4812L40.9505 74.2354C40.7653 74.5426 40.5801 74.7885 40.3949 75.0958C40.2714 75.3416 40.0862 75.6489 39.9627 75.9562C39.7158 76.5094 39.4688 77.124 39.3454 77.8615C39.2836 78.2302 39.2219 78.599 39.1602 78.9677C39.1602 79.398 39.4071 79.7667 39.9627 80.074L45.766 83.0855C46.8155 83.6387 48.4207 83.5772 49.4085 82.9626C49.8406 82.7168 50.0258 82.348 50.0876 82.0407V81.7949C50.0876 81.6105 50.0876 81.3647 49.9641 81.1188Z" fill="#171753" stroke="#171753" stroke-width="0.25" stroke-miterlimit="10"/>
<path d="M50.2119 82.1022C50.1501 82.2251 50.2119 82.1022 50.2119 82.1022C50.1501 82.4095 49.9032 82.7782 49.5328 83.0241C48.545 83.6386 46.8781 83.7001 45.8285 83.147L39.9018 80.074C38.9757 79.5823 39.0992 78.9677 39.0992 78.9677C39.161 78.599 39.2227 78.0458 39.4079 77.7385C39.2227 78.2302 41.26 78.9677 42.1243 79.7052C43.3591 80.75 44.7173 81.6105 46.199 82.2251C46.7546 82.4709 47.3102 82.6553 47.9276 82.6553C48.545 82.6553 49.1623 82.5324 49.5945 82.1022C49.7797 81.9178 50.0884 81.4876 49.9649 81.0573C50.0266 81.3032 50.2736 81.549 50.2119 82.1022Z" fill="#171753" stroke="#171753" stroke-width="0.25" stroke-miterlimit="10"/>
<path d="M49.1008 53.4004L44.0384 56.4734L25.2087 46.6399C24.0357 45.9638 23.6653 43.9356 23.6035 42.5835L24.0974 36.499C34.7162 42.0919 49.7182 46.0253 49.1008 53.4004Z" fill="#030403"/>
<path d="M49.1001 53.4007C48.8531 51.8028 47.5567 50.5736 45.9515 50.2663C44.655 50.0204 43.3586 50.6965 42.1856 51.434C41.383 51.9257 40.6421 52.909 40.1482 53.7695C39.7161 54.507 39.4691 69.0115 39.5309 75.5262C39.5309 76.0793 39.8396 76.6325 40.5804 77.0012C42.0003 77.7387 44.2229 77.6773 45.5194 76.8168C46.0132 76.5095 46.3219 76.1408 46.4454 75.7106C46.8158 74.7272 49.347 54.9372 49.1001 53.4007Z" fill="#FFC78F" stroke="#171753" stroke-width="0.7" stroke-miterlimit="10"/>
<path opacity="0.2" d="M35.6422 52.0483C33.8518 50.5733 31.5058 49.2826 28.9746 47.992C30.4563 47.3159 31.1971 46.5784 31.5676 44.4888C31.4441 45.8409 31.4441 46.8242 31.9997 48.0534C32.6171 49.7128 35.0866 50.4504 35.6422 52.0483Z" fill="#1D1D1B"/>
<path d="M39.5946 28.5094C39.4094 24.1458 39.039 22.7322 38.6068 18.3686C38.1129 13.3904 32.6183 11.0549 31.4453 16.0946C31.2601 19.6593 32.3097 25.0062 33.1122 30.4147C34.1 32.6272 36.1373 33.8564 37.7425 35.27L41.8789 31.0293C41.0763 30.1074 40.3354 29.3699 39.5946 28.5094Z" fill="#171753" stroke="#171753" stroke-width="0.25" stroke-miterlimit="10"/>
<path d="M33.8526 47.0086C29.9014 50.143 18.9123 51.1264 15.0846 46.3325C14.282 45.3492 14.8376 44.4887 15.1463 42.2147C15.5167 39.8178 15.8871 37.6053 16.2576 35.6386C17.6158 27.8332 18.7888 22.9164 19.5914 20.3966V20.3966C19.8318 19.4393 20.8019 18.8 21.6597 18.3119C23.899 17.0378 26.6635 16.0053 29.2298 15.1639C29.7175 15.0039 30.2177 14.8858 30.7254 14.8099C34.3227 14.2722 34.6625 14.4235 36.6307 14.2506C45.1504 13.636 35.0873 45.9638 33.8526 47.0086Z" fill="#171753" stroke="#171753" stroke-width="0.25" stroke-miterlimit="10"/>
<path d="M22.5544 58.3171L25.2091 56.7806V47.6231L24.1596 46.0866L11.5653 38.9573L8.78711 40.4938L20.7641 46.8241L22.4927 49.4054L22.5544 58.3171Z" fill="#FFA6A6" stroke="#171753" stroke-width="0.7" stroke-miterlimit="10"/>
<path d="M10.3304 41.6614L10.7626 41.9073L11.6887 42.3989V47.2542C11.6887 48.0532 12.2443 48.9751 12.9234 49.4053L22.3074 54.7523V55.7971V56.2888C22.3074 57.0878 21.7518 57.3951 21.0727 57.0263L10.3304 50.8804C9.65133 50.5116 9.0957 49.5282 9.0957 48.7293V42.3989C9.0957 41.6 9.65133 41.2927 10.3304 41.6614Z" fill="#FFA6A6" stroke="#171753" stroke-width="0.7" stroke-miterlimit="10"/>
<path d="M8.16992 41.8459V48.2992C8.16992 49.6513 9.15771 51.3107 10.3307 51.9868L21.0729 58.1327C22.2459 58.8088 23.2337 58.2557 23.2337 56.9036V56.4119V55.3671V50.5117C23.2337 49.1596 22.2459 47.5002 21.0729 46.8242L11.6889 41.4157L10.7629 40.924L10.3307 40.6782C9.15771 39.9407 8.16992 40.4938 8.16992 41.8459ZM9.09597 42.3991C9.09597 41.6001 9.65161 41.2928 10.3307 41.6616L10.7629 41.9074L11.6889 42.3991L21.0729 47.8075C21.752 48.1763 22.3077 49.1596 22.3077 49.9586V54.8139V55.8587V56.3504C22.3077 57.1494 21.752 57.4567 21.0729 57.0879L10.3307 50.942C9.65161 50.5732 9.09597 49.5899 9.09597 48.7909V42.3991V42.3991Z" fill="#171753" stroke="#171753" stroke-width="0.25" stroke-miterlimit="10"/>
<path d="M44.346 101.339L21.4416 88.1865C19.5278 87.0803 17.9844 84.499 17.9844 82.225V57.4567C17.9844 55.7358 18.9722 54.5681 20.3921 54.5681C20.9477 54.5681 21.5034 54.7525 22.1207 55.0598L45.0251 68.2122C46.939 69.3184 48.4824 71.8997 48.4824 74.1737V98.942C48.4824 100.663 47.4946 101.831 46.0747 101.831C45.519 101.831 44.9634 101.708 44.346 101.339ZM19.4043 57.4567V82.225C19.4043 83.9458 20.6391 86.0969 22.1207 86.9573L45.0251 100.11C45.3955 100.294 45.766 100.417 46.0747 100.417C47.0007 100.417 47.0624 99.3722 47.0624 98.942V74.1737C47.0624 72.4529 45.8277 70.3018 44.346 69.4413L21.4416 56.289C21.0712 56.1046 20.7008 55.9817 20.3921 55.9817C19.5278 55.9817 19.4043 57.0265 19.4043 57.4567Z" fill="#171753" stroke="#171753" stroke-width="0.25" stroke-miterlimit="10"/>
<path d="M82.932 79.2134L60.0276 66.061C58.1137 64.9548 56.5703 62.3735 56.5703 60.0995V35.3312C56.5703 33.6104 57.5581 32.4426 58.9781 32.4426C59.5337 32.4426 60.0893 32.627 60.7067 32.9343L83.6111 46.0867C85.5249 47.1929 87.0683 49.7742 87.0683 52.0483V76.8165C87.0683 78.5373 86.0805 79.7051 84.6606 79.7051C84.105 79.7051 83.5493 79.5207 82.932 79.2134ZM57.9903 35.3312V60.0995C57.9903 61.8203 59.225 63.9714 60.7067 64.8319L83.6111 77.9842C83.9815 78.1686 84.3519 78.2915 84.6606 78.2915C85.5867 78.2915 85.6484 77.2467 85.6484 76.8165V52.0483C85.6484 50.3274 84.4137 48.1763 82.932 47.3159L60.0276 34.1635C59.6572 33.9791 59.2867 33.8562 58.9781 33.8562C58.1137 33.7947 57.9903 34.8396 57.9903 35.3312Z" fill="#171753" stroke="#171753" stroke-width="0.25" stroke-miterlimit="10"/>
<path d="M16.4419 56.1661L46.2608 73.3133C46.5078 73.4362 46.8165 73.4362 47.0634 73.3133L87.3776 50.2045C87.6245 50.0816 87.748 49.8357 87.748 49.5284V48.9138C87.748 48.6065 87.5628 48.3607 87.3158 48.2378L57.5587 32.5656C57.3117 32.4427 57.0648 32.4427 56.8178 32.5656L16.4419 54.1994C16.195 54.3223 16.0098 54.5681 16.0098 54.8754V55.49C16.0715 55.7973 16.195 56.0432 16.4419 56.1661Z" fill="#FFEE81" stroke="#171753" stroke-width="0.7" stroke-miterlimit="10"/>
<path d="M16.3797 54.5682L46.569 71.8998C46.6308 71.9612 46.6925 71.9612 46.816 71.8998L87.5006 48.6066C87.6241 48.5451 87.6241 48.2993 87.5006 48.2378L57.3113 30.9062C57.2495 30.8447 57.1878 30.8447 57.0643 30.9062L16.3797 54.1994C16.2562 54.2609 16.2562 54.5067 16.3797 54.5682Z" fill="#FFC78F" stroke="#171753" stroke-width="0.7" stroke-miterlimit="10"/>
<path d="M61.2019 45.2878L60.3376 45.1649V45.5336L49.5954 39.3876C49.4719 39.3262 49.2867 39.3262 49.1632 39.3876L31.5682 49.4056V49.0368L30.7656 49.2212V49.9587C30.7656 50.0202 30.7656 50.0202 30.8274 50.0816L42.3104 56.7193C42.4339 56.7807 42.6191 56.7807 42.7426 56.7193L61.0784 46.1482C61.1402 46.0867 61.1402 46.0867 61.1402 46.0253V45.2878H61.2019Z" fill="#FFA54B" stroke="#171753" stroke-width="0.25" stroke-miterlimit="10"/>
<path d="M61.0784 45.3493L42.7426 55.9204C42.6191 55.9818 42.4339 55.9818 42.3104 55.9204L30.8274 49.2827C30.7656 49.2213 30.7656 49.2213 30.7656 49.1598C30.7656 49.0984 30.7656 49.0984 30.8274 49.0369L42.9278 42.092L43.4834 41.7847L44.9034 40.9857L46.3851 40.1252L48.7311 38.7731L49.1015 38.5273C49.2249 38.4658 49.4102 38.4658 49.5336 38.5273L61.0784 45.1035C61.2019 45.1649 61.2019 45.2879 61.0784 45.3493Z" fill="#171753" stroke="#171753" stroke-width="0.25" stroke-miterlimit="10"/>
<path opacity="0.5" d="M57.1264 46.8241L58.176 46.2095L59.6576 45.3491L58.4229 44.6116L57.0029 43.8126L55.9534 43.198L54.7187 42.4605L53.1753 41.6001L51.9405 40.8625L50.3354 41.7844L47.8042 43.2595L40.1488 47.6846L38.8523 48.4221L37.5558 49.1596L36.2594 49.8971L34.9629 50.6346L36.1976 51.3722L36.5063 51.5565L37.4324 52.1097L39.9018 53.5232L41.1366 54.2608L42.68 55.1212L45.5199 53.4618L46.8164 52.7243L48.1128 51.9868L49.4093 51.2492L50.7058 50.5117L52.0023 49.7742L53.2987 49.0367L54.2865 48.4835L55.583 47.746L55.7065 47.6846L55.8917 47.6231L57.1264 46.8241Z" fill="black"/>
<path d="M39.5938 45.8409L40.8902 46.5784C41.0137 46.6399 41.1989 46.6399 41.3224 46.5784L44.9031 44.5502C45.0266 44.4888 45.0266 44.3659 44.9031 44.3044L43.6066 43.5669L39.5938 45.8409Z" fill="#FFA54B" stroke="#171753" stroke-width="0.25" stroke-miterlimit="10"/>
<path d="M43.4828 43.5055L42.9889 43.1982C42.8654 43.1367 42.6802 43.1367 42.5568 43.1982L40.8281 44.1815L41.569 44.6118L43.4828 43.5055Z" fill="white"/>
<path d="M41.4468 44.6731L40.706 44.2429L38.9774 45.2263C38.8539 45.2877 38.8539 45.4107 38.9774 45.4721L39.4713 45.7794L41.4468 44.6731Z" fill="white"/>
<path d="M58.1152 46.0253L59.2264 45.3492L58.1152 44.7346L57.0039 45.4107L58.1152 46.0253Z" fill="white"/>
<path d="M56.8171 46.7631L57.9284 46.087L56.8788 45.4724L55.7676 46.1485L56.8171 46.7631Z" fill="#FFA54B" stroke="#171753" stroke-width="0.25" stroke-miterlimit="10"/>
<path d="M55.5839 46.21L54.4727 46.886L55.5222 47.5006L56.6334 46.8246L55.5839 46.21Z" fill="#FFA54B" stroke="#171753" stroke-width="0.25" stroke-miterlimit="10"/>
<path d="M54.287 48.2379L55.3983 47.5619L54.287 46.9473L53.1758 47.6233L54.287 48.2379Z" fill="#FFA54B" stroke="#171753" stroke-width="0.25" stroke-miterlimit="10"/>
<path d="M52.9902 48.9757L54.1014 48.2997L52.9902 47.6851L51.8789 48.3611L52.9902 48.9757Z" fill="#FFA54B" stroke="#171753" stroke-width="0.25" stroke-miterlimit="10"/>
<path d="M51.6941 49.713L52.8053 49.037L51.7558 48.4224L50.6445 49.0984L51.6941 49.713Z" fill="#FFA54B" stroke="#171753" stroke-width="0.25" stroke-miterlimit="10"/>
<path d="M50.3972 50.4506L51.5084 49.7745L50.4589 49.1599L49.3477 49.7745L50.3972 50.4506Z" fill="#FFA54B" stroke="#171753" stroke-width="0.25" stroke-miterlimit="10"/>
<path d="M49.162 51.1269L50.2733 50.5123L49.162 49.8977L48.0508 50.5123L49.162 51.1269Z" fill="#FFA54B" stroke="#171753" stroke-width="0.25" stroke-miterlimit="10"/>
<path d="M47.9277 50.635L46.8164 51.2496L47.8659 51.8642L48.9772 51.2496L47.9277 50.635Z" fill="#FFA54B" stroke="#171753" stroke-width="0.25" stroke-miterlimit="10"/>
<path d="M46.6308 51.3726L45.5195 51.9872L46.5691 52.6017L47.6803 51.9872L46.6308 51.3726Z" fill="#FFA54B" stroke="#171753" stroke-width="0.25" stroke-miterlimit="10"/>
<path d="M45.3339 52.1099L44.2227 52.7245L45.3339 53.3391L46.4452 52.7245L45.3339 52.1099Z" fill="#FFA54B" stroke="#171753" stroke-width="0.25" stroke-miterlimit="10"/>
<path d="M45.1506 53.4623L44.0394 52.8477L41.6934 54.1998L42.7429 54.8144L45.1506 53.4623Z" fill="white"/>
<path d="M56.8788 45.288L57.9901 44.6734L56.8788 44.0588L55.7676 44.6734L56.8788 45.288Z" fill="#FFA54B" stroke="#171753" stroke-width="0.25" stroke-miterlimit="10"/>
<path d="M55.5839 46.0256L56.6952 45.411L55.6457 44.7964L54.4727 45.411L55.5839 46.0256Z" fill="#FFA54B" stroke="#171753" stroke-width="0.25" stroke-miterlimit="10"/>
<path d="M54.3476 45.5337L53.2363 46.1483L54.2859 46.7629L55.3971 46.1483L54.3476 45.5337Z" fill="#FFA54B" stroke="#171753" stroke-width="0.25" stroke-miterlimit="10"/>
<path d="M52.9909 47.5007L54.1639 46.8861L53.0527 46.2715L51.9414 46.8861L52.9909 47.5007Z" fill="#FFA54B" stroke="#171753" stroke-width="0.25" stroke-miterlimit="10"/>
<path d="M51.7558 48.238L52.8671 47.6234L51.7558 47.0088L50.6445 47.6234L51.7558 48.238Z" fill="#FFA54B" stroke="#171753" stroke-width="0.25" stroke-miterlimit="10"/>
<path d="M50.4597 48.9755L51.5709 48.3609L50.5214 47.7463L49.4102 48.3609L50.4597 48.9755Z" fill="#FFA54B" stroke="#171753" stroke-width="0.25" stroke-miterlimit="10"/>
<path d="M49.1628 49.713L50.2741 49.0984L49.2245 48.4224L48.1133 49.0984L49.1628 49.713Z" fill="#FFA54B" stroke="#171753" stroke-width="0.25" stroke-miterlimit="10"/>
<path d="M47.9277 50.4506L49.0389 49.7745L47.9277 49.1599L46.8164 49.836L47.9277 50.4506Z" fill="#FFA54B" stroke="#171753" stroke-width="0.25" stroke-miterlimit="10"/>
<path d="M46.6933 49.8977L45.582 50.5738L46.6316 51.1884L47.7428 50.5123L46.6933 49.8977Z" fill="#FFA54B" stroke="#171753" stroke-width="0.25" stroke-miterlimit="10"/>
<path d="M45.3964 50.635L44.2852 51.3111L45.3347 51.9257L46.4459 51.2496L45.3964 50.635Z" fill="#FFA54B" stroke="#171753" stroke-width="0.25" stroke-miterlimit="10"/>
<path d="M44.0995 51.3726L42.9883 52.0486L44.0378 52.6632L45.2108 51.9872L44.0995 51.3726Z" fill="#FFA54B" stroke="#171753" stroke-width="0.25" stroke-miterlimit="10"/>
<path d="M42.8046 53.4005L43.9159 52.7245L42.8046 52.1099L41.6934 52.7859L42.8046 53.4005Z" fill="#FFA54B" stroke="#171753" stroke-width="0.25" stroke-miterlimit="10"/>
<path d="M41.5683 52.8477L40.457 53.5237L41.5066 54.1383L42.6178 53.4622L41.5683 52.8477Z" fill="#FFA54B" stroke="#171753" stroke-width="0.25" stroke-miterlimit="10"/>
<path d="M55.6445 44.6117L56.7557 43.9356L55.6445 43.321L54.5332 43.9971L55.6445 44.6117Z" fill="#FFA54B" stroke="#171753" stroke-width="0.25" stroke-miterlimit="10"/>
<path d="M54.3476 45.3495L55.4589 44.6734L54.3476 44.0588L53.2363 44.7349L54.3476 45.3495Z" fill="#FFA54B" stroke="#171753" stroke-width="0.25" stroke-miterlimit="10"/>
<path d="M53.1132 44.7964L52.002 45.411L53.0515 46.087L54.1627 45.411L53.1132 44.7964Z" fill="#FFA54B" stroke="#171753" stroke-width="0.25" stroke-miterlimit="10"/>
<path d="M51.7546 46.7629L52.8659 46.1483L51.8163 45.5337L50.7051 46.1483L51.7546 46.7629Z" fill="#FFA54B" stroke="#171753" stroke-width="0.25" stroke-miterlimit="10"/>
<path d="M50.5214 47.5007L51.6327 46.8861L50.5214 46.2715L49.4102 46.8861L50.5214 47.5007Z" fill="#FFA54B" stroke="#171753" stroke-width="0.25" stroke-miterlimit="10"/>
<path d="M49.2234 48.238L50.3346 47.6234L49.2851 47.0088L48.1738 47.6234L49.2234 48.238Z" fill="#FFA54B" stroke="#171753" stroke-width="0.25" stroke-miterlimit="10"/>
<path d="M47.9284 48.9755L49.0397 48.3609L47.9902 47.7463L46.8789 48.3609L47.9284 48.9755Z" fill="#FFA54B" stroke="#171753" stroke-width="0.25" stroke-miterlimit="10"/>
<path d="M46.6933 49.7131L47.8046 49.0985L46.6933 48.4839L45.582 49.0985L46.6933 49.7131Z" fill="#FFA54B" stroke="#171753" stroke-width="0.25" stroke-miterlimit="10"/>
<path d="M45.4582 49.2214L44.2852 49.836L45.3964 50.4506L46.5077 49.836L45.4582 49.2214Z" fill="#FFA54B" stroke="#171753" stroke-width="0.25" stroke-miterlimit="10"/>
<path d="M44.162 49.959L43.0508 50.5736L44.1003 51.1882L45.2116 50.5736L44.162 49.959Z" fill="#FFA54B" stroke="#171753" stroke-width="0.25" stroke-miterlimit="10"/>
<path d="M42.8652 50.6963L41.7539 51.3109L42.8034 51.9255L43.9764 51.3109L42.8652 50.6963Z" fill="#FFA54B" stroke="#171753" stroke-width="0.25" stroke-miterlimit="10"/>
<path d="M41.5683 52.6633L42.6796 52.0487L41.5683 51.4341L40.457 52.0487L41.5683 52.6633Z" fill="#FFA54B" stroke="#171753" stroke-width="0.25" stroke-miterlimit="10"/>
<path d="M40.1491 52.0484L41.4455 51.3109L40.396 50.6963C39.223 51.3723 37.9883 52.0484 37.9883 52.0484C37.9883 52.0484 38.1118 52.1099 40.2725 53.4005L41.3838 52.7859L40.1491 52.0484Z" fill="white"/>
<path d="M52.002 43.9974L53.1132 44.612L55.521 43.2599L54.4097 42.6453L52.002 43.9974Z" fill="#FFA54B" stroke="#171753" stroke-width="0.25" stroke-miterlimit="10"/>
<path d="M51.8788 44.0588L50.7676 44.7349L51.8171 45.3495L52.9284 44.7349L51.8788 44.0588Z" fill="#FFA54B" stroke="#171753" stroke-width="0.25" stroke-miterlimit="10"/>
<path d="M50.5202 46.087L51.6315 45.411L50.582 44.7964L49.4707 45.4724L50.5202 46.087Z" fill="#FFA54B" stroke="#171753" stroke-width="0.25" stroke-miterlimit="10"/>
<path d="M49.2851 46.8243L50.3964 46.1483L49.2851 45.5337L48.1738 46.2097L49.2851 46.8243Z" fill="#FFA54B" stroke="#171753" stroke-width="0.25" stroke-miterlimit="10"/>
<path d="M47.989 47.5621L49.1002 46.8861L48.0507 46.2715L46.9395 46.9475L47.989 47.5621Z" fill="#FFA54B" stroke="#171753" stroke-width="0.25" stroke-miterlimit="10"/>
<path d="M46.6941 48.2994L47.8053 47.6234L46.7558 47.0088L45.6445 47.6849L46.6941 48.2994Z" fill="#FFA54B" stroke="#171753" stroke-width="0.25" stroke-miterlimit="10"/>
<path d="M45.4589 49.037L46.5702 48.3609L45.4589 47.7463L44.3477 48.4224L45.4589 49.037Z" fill="#FFA54B" stroke="#171753" stroke-width="0.25" stroke-miterlimit="10"/>
<path d="M44.162 48.4839L43.0508 49.1599L44.162 49.7745L45.2733 49.0985L44.162 48.4839Z" fill="#FFA54B" stroke="#171753" stroke-width="0.25" stroke-miterlimit="10"/>
<path d="M42.9277 49.2214L41.8164 49.8975L42.8659 50.5121L43.9772 49.836L42.9277 49.2214Z" fill="#FFA54B" stroke="#171753" stroke-width="0.25" stroke-miterlimit="10"/>
<path d="M41.6308 49.959L40.5195 50.635L41.5691 51.2496L42.6803 50.5736L41.6308 49.959Z" fill="#FFA54B" stroke="#171753" stroke-width="0.25" stroke-miterlimit="10"/>
<path d="M51.4467 42.8911L50.7676 43.2598L51.8788 43.8744L54.2866 42.5223L53.1753 41.9077L51.8788 42.6452L51.4467 42.8911Z" fill="white"/>
<path d="M50.6445 43.3828L49.5332 43.9974L50.5827 44.612L51.694 43.9974L50.6445 43.3828Z" fill="#FFA54B" stroke="#171753" stroke-width="0.25" stroke-miterlimit="10"/>
<path d="M49.2859 45.3493L50.3971 44.7347L49.3476 44.1201L48.2363 44.7347L49.2859 45.3493Z" fill="#FFA54B" stroke="#171753" stroke-width="0.25" stroke-miterlimit="10"/>
<path d="M48.0507 46.0871L49.162 45.4725L48.0507 44.8579L46.9395 45.4725L48.0507 46.0871Z" fill="#FFA54B" stroke="#171753" stroke-width="0.25" stroke-miterlimit="10"/>
<path d="M46.7558 46.8247L47.8671 46.2101L46.8175 45.5955L45.6445 46.2101L46.7558 46.8247Z" fill="#FFA54B" stroke="#171753" stroke-width="0.25" stroke-miterlimit="10"/>
<path d="M45.4577 47.562L46.569 46.9474L45.5195 46.3328L44.4082 46.9474L45.4577 47.562Z" fill="#FFA54B" stroke="#171753" stroke-width="0.25" stroke-miterlimit="10"/>
<path d="M44.1628 48.2995L45.3358 47.6849L44.2245 47.0703L43.1133 47.6849L44.1628 48.2995Z" fill="#FFA54B" stroke="#171753" stroke-width="0.25" stroke-miterlimit="10"/>
<path d="M42.9277 47.8079L41.8164 48.4225L42.9277 49.0371L44.0389 48.4225L42.9277 47.8079Z" fill="#FFA54B" stroke="#171753" stroke-width="0.25" stroke-miterlimit="10"/>
<path d="M41.6933 48.5452L40.582 49.1598L41.6316 49.7744L42.7428 49.1598L41.6933 48.5452Z" fill="#FFA54B" stroke="#171753" stroke-width="0.25" stroke-miterlimit="10"/>
<path d="M40.3964 49.2827L39.2852 49.8973L40.3347 50.5119L41.4459 49.8973L40.3964 49.2827Z" fill="#FFA54B" stroke="#171753" stroke-width="0.25" stroke-miterlimit="10"/>
<path d="M40.2112 50.6349L39.0999 50.0203L36.7539 51.3724L37.8034 51.987L40.2112 50.6349Z" fill="white"/>
<path d="M51.9413 41.1702L50.8301 41.8462L51.8796 42.4608L52.9909 41.7848L51.9413 41.1702Z" fill="#FFA54B" stroke="#171753" stroke-width="0.25" stroke-miterlimit="10"/>
<path d="M50.4596 43.2598L51.7561 42.5223L50.6448 41.9077L49.4101 42.6452L48.9779 42.8911L48.2988 43.3213L49.3484 43.9359L50.0275 43.5057L50.4596 43.2598Z" fill="#FFA54B" stroke="#171753" stroke-width="0.25" stroke-miterlimit="10"/>
<path d="M48.1139 43.3828C46.5088 44.3047 44.101 45.6568 40.582 47.685L41.6316 48.2996C45.1506 46.2714 47.5583 44.9193 49.1635 43.9974L48.1139 43.3828Z" fill="white"/>
<path d="M40.457 47.8079L39.3457 48.4225L40.3952 49.0985L41.5065 48.4225L40.457 47.8079Z" fill="#FFA54B" stroke="#171753" stroke-width="0.25" stroke-miterlimit="10"/>
<path d="M39.162 48.5452L38.0508 49.1598L39.1003 49.7744L40.2116 49.1598L39.162 48.5452Z" fill="#FFA54B" stroke="#171753" stroke-width="0.25" stroke-miterlimit="10"/>
<path d="M37.8652 49.2827L36.7539 49.8973L37.8652 50.5119L38.9764 49.8973L37.8652 49.2827Z" fill="#FFA54B" stroke="#171753" stroke-width="0.25" stroke-miterlimit="10"/>
<path d="M36.63 50.0203L35.457 50.6349L36.5683 51.2495L37.6796 50.6349L36.63 50.0203Z" fill="#FFA54B" stroke="#171753" stroke-width="0.25" stroke-miterlimit="10"/>
<path d="M60.373 45.1269L60.5528 45.1866C60.7924 45.2462 61.032 45.1269 61.1518 44.8882L65.3453 33.1934C65.4052 32.9548 65.2854 32.7161 65.0458 32.5968L64.866 32.5371L60.373 45.1269Z" fill="#171753" stroke="#171753" stroke-width="0.25" stroke-miterlimit="10"/>
<path d="M42.1621 55.6281L42.3418 55.6878C42.5815 55.7474 42.8211 55.6281 42.9409 55.3894L47.1344 43.6947C47.1943 43.456 47.0744 43.2173 46.8348 43.098L46.6551 43.0383L42.1621 55.6281Z" fill="#FFA54B" stroke="#171753" stroke-width="0.25" stroke-miterlimit="10"/>
<g style="mix-blend-mode:multiply" opacity="0.5">
<path d="M50.8298 42.7066C50.5211 41.4159 49.3481 40.494 48.422 39.5721C47.7429 38.8961 47.0638 38.0971 46.076 37.8512C45.5204 37.6669 44.8413 37.7898 44.2857 37.5439C43.7918 37.3596 43.3596 37.0523 42.9275 36.8064C42.4953 36.6221 42.0014 36.4991 41.5075 36.3148C40.3963 35.8231 39.6554 34.8397 38.7911 33.9793C38.6676 33.8564 38.4824 33.7334 38.2972 33.7334C37.9885 32.9959 37.8033 32.2584 37.7416 31.4594L37.2477 19.905C37.2477 19.905 37.0625 35.147 37.7416 35.2085C37.9268 36.4991 38.4207 37.3596 39.3467 37.9127C40.0876 38.3429 41.8162 39.5107 42.2484 39.695C42.6805 39.8794 43.1127 40.0638 43.3596 40.4326C43.6683 40.8628 43.6683 41.3544 43.8535 41.8461C44.1005 42.3993 44.5326 42.8909 44.9031 43.3212C45.0883 43.5055 45.2735 43.7514 45.5822 43.8128C45.8291 43.9358 46.1995 43.8743 46.323 43.6285C46.5699 43.3212 46.323 42.8909 46.3847 42.5222C46.6934 42.3993 47.0638 42.5222 47.3108 42.768C47.5577 43.0139 47.6812 43.3212 47.8047 43.6285C47.9899 43.9358 48.1751 44.1816 48.4838 44.3045C48.7925 44.4274 49.2246 44.243 49.2864 43.9358C49.3481 43.567 48.9159 43.2597 48.9159 42.8295C49.2246 42.8295 49.4716 43.0753 49.7185 43.3212C49.9655 43.567 50.3359 43.6899 50.5828 43.5055C50.8915 43.3826 50.8915 43.0139 50.8298 42.7066Z" fill="#171753"/>
</g>
<path d="M45.0877 35.0857C43.7295 33.2419 42.7417 32.0127 41.8774 30.9679L39.6548 28.5095L37.8027 35.2086C39.0375 36.2534 39.5931 37.4826 41.7539 38.8962C43.7912 39.3879 46.2607 37.2982 45.0877 35.0857Z" fill="#171753" stroke="#171753" stroke-width="0.25" stroke-miterlimit="10"/>
<path d="M42.3708 37.5442C42.3708 37.6671 42.4943 37.8515 42.6177 37.9744L43.482 38.7119L43.729 38.8963L45.6428 40.5557L48.9766 37.79L45.9515 36.4379L44.655 35.6389C43.9759 35.3931 42.1856 36.4994 42.3708 37.5442Z" fill="white"/>
<path d="M47.6191 38.3431L50.0886 39.7567L50.5208 41.3546C50.5825 41.539 50.706 41.7234 50.8295 41.8463C50.8912 41.9078 51.0147 41.9692 51.1381 41.9692C51.3234 41.9692 51.4468 41.9078 51.5086 41.7234C51.5086 41.6619 51.5086 41.6005 51.5086 41.539C51.5086 41.4775 51.5086 41.4775 51.5086 41.4161L50.9529 39.1421C50.9529 39.1421 48.9774 37.79 48.7921 37.7285C48.6687 37.667 48.113 38.0358 47.7426 38.2202C47.6809 38.3431 47.6809 38.3431 47.6191 38.3431Z" fill="white"/>
<path opacity="0.1" d="M48.2988 38.4045L50.2127 39.6337L50.6448 41.2317C50.7066 41.4161 50.7683 41.6004 50.8918 41.8463C50.9535 41.9077 51.077 41.9692 51.2005 41.9692C51.3857 41.9692 51.5091 41.9077 51.5709 41.7234C51.5709 41.6619 51.5709 41.6004 51.5709 41.539C51.2622 41.2317 50.8918 40.3098 50.7066 39.5108L48.2988 38.4045Z" fill="#1D1D1B"/>
<path d="M46.8164 38.9579L47.6807 39.5111L49.6563 40.8017L50.3971 42.3997C50.5824 42.707 50.8293 42.8913 51.138 42.8913C51.2615 42.8299 51.3232 42.8299 51.3849 42.707C51.4467 42.584 51.4467 42.4611 51.3849 42.2153L50.3971 39.8798C50.3971 39.8798 47.9277 38.2204 47.7425 38.2204C47.619 38.159 46.8164 38.9579 46.8164 38.9579Z" fill="white"/>
<path opacity="0.1" d="M47.1875 38.9578L47.6814 39.5109L49.657 40.8016L50.3978 42.3995C50.583 42.7068 50.83 42.8912 51.1387 42.8912C51.2621 42.8297 51.3239 42.8297 51.3856 42.7068C50.8917 42.7068 50.0891 41.5391 49.8422 40.5557L47.1875 38.9578Z" fill="#1D1D1B"/>
<path d="M45.8906 39.511L47.2488 40.4943L49.1009 41.785L50.1505 43.1985C50.3974 43.4444 50.6444 43.5673 51.0148 43.5673C51.0148 43.5673 51.0765 43.5673 51.0765 43.5058C51.1383 43.5058 51.1383 43.4444 51.2 43.3829C51.2617 43.26 51.2617 43.0756 51.1383 42.8298L49.7183 40.7401C49.7183 40.7401 47.1871 38.7734 46.9401 38.7734C46.7549 38.8349 45.8906 39.511 45.8906 39.511Z" fill="white"/>
<path opacity="0.1" d="M46.5078 39.6335L47.2487 40.4325L49.1008 41.7232L50.1503 43.1367C50.3972 43.3826 50.6442 43.5055 51.0146 43.5055C51.0146 43.5055 51.0763 43.5055 51.0763 43.444L51.1998 43.3211C50.7677 43.5055 49.4712 42.3378 49.2242 41.3544L46.5078 39.6335Z" fill="#1D1D1B"/>
<path d="M45.1484 40.3098L47.6179 42.2151L48.544 43.7516C48.7292 44.0589 48.9761 44.1818 49.3465 44.1818C49.47 44.1203 49.5318 44.1203 49.5935 43.9974C49.6552 43.8745 49.6552 43.7516 49.5935 43.5057L48.3588 41.3546C48.3588 41.3546 46.2597 39.3879 46.0745 39.3879C45.951 39.3879 45.5806 39.8182 45.3336 40.1255C45.2102 40.2484 45.1484 40.3098 45.1484 40.3098Z" fill="white"/>
<path opacity="0.1" d="M45.1484 40.3097L47.6179 42.215L48.544 43.7515C48.7292 44.0588 48.9761 44.1817 49.3465 44.1817C49.47 44.1202 49.5318 44.1202 49.5935 43.9973C49.0996 44.0588 48.1118 42.891 47.8649 41.9077L45.3336 40.0024C45.2102 40.2483 45.1484 40.3097 45.1484 40.3097Z" fill="#1D1D1B"/>
<path d="M43.4199 38.3432C43.4199 38.4661 43.4199 38.589 43.4817 38.712C43.5434 39.388 43.5434 40.0641 43.8521 40.6787C44.099 41.1703 44.4694 41.5391 44.8399 41.9079C45.2103 42.3381 45.519 42.7683 45.7042 43.3214C45.7659 43.5058 45.8894 43.7516 46.0746 43.8131C46.1981 43.8746 46.2598 43.8746 46.3833 43.8131C46.5068 43.7516 46.6302 43.6902 46.692 43.5058C46.8154 43.26 46.8154 43.0141 46.7537 42.7683C46.5068 41.9693 45.8277 41.3547 45.6424 40.4943C45.6424 40.4328 45.5807 40.3714 45.5807 40.3099C45.519 40.0641 45.5807 39.7568 45.4572 39.5109C45.3338 39.0807 45.0251 38.7734 44.6547 38.589C44.346 38.4661 44.0373 38.3432 43.7286 38.2817C43.6051 38.3432 43.4817 38.3432 43.4199 38.3432Z" fill="white"/>
<path opacity="0.1" d="M42.3711 37.5439C42.3711 37.6669 42.4946 37.8512 42.618 37.9742L43.4824 38.7117C43.5441 39.3877 43.5441 40.0638 43.8528 40.6784C44.0997 41.1701 44.4701 41.5388 44.8406 41.9076C45.211 42.3378 45.5197 42.768 45.7049 43.3211C45.7666 43.5055 45.8901 43.7514 46.0753 43.8128C46.1988 43.8743 46.2605 43.8743 46.384 43.8128C46.2605 43.6899 46.137 43.567 46.0753 43.4441C45.8901 43.1368 45.7666 42.8295 45.5814 42.5222C45.2727 42.0305 44.8406 41.6003 44.4701 41.1701C43.9762 40.5555 43.7293 39.7565 43.7293 38.8961C43.7293 38.7117 43.7293 38.5273 43.7293 38.3429C43.7293 38.22 43.791 38.0356 43.791 37.9127C43.6676 37.9742 43.1737 38.0356 43.1119 38.0356C42.865 37.8512 42.618 37.6669 42.3711 37.5439Z" fill="#1D1D1B"/>
<g style="mix-blend-mode:multiply" opacity="0.5">
<path d="M33.4817 43.6899C33.0495 43.1368 32.4939 42.6451 32.0618 42.2149C31.1974 41.3545 30.3331 40.494 29.4071 39.695C28.6045 38.9575 27.7402 38.2815 26.8759 37.544C26.6289 37.3596 24.5299 35.8845 24.5916 35.7002C25.4559 32.6886 25.7646 28.5708 25.8263 24.0843C25.8263 19.3519 20.7639 18.3071 19.5909 23.3468C18.6649 26.7885 18.2327 32.1355 17.5536 37.8513C17.4919 38.1586 18.0475 38.8346 18.2327 39.0804C18.4796 39.5107 18.7883 39.8794 19.097 40.3096C19.7761 41.1086 20.5787 41.8461 21.3813 42.5222C23.3569 44.1201 25.5794 45.2879 27.8636 46.3327C28.3575 46.5785 29.0366 46.7014 29.4688 47.0702C29.901 47.3775 30.1479 47.7463 30.6418 47.8692C30.9505 47.9921 31.3209 47.9921 31.6913 47.9921C32.3087 47.9921 32.9878 48.115 33.6052 48.2994C34.2225 48.5452 34.7782 48.914 35.0869 49.4671C35.2721 49.7744 35.3955 50.0817 35.5808 50.389C35.766 50.6963 36.0747 50.9422 36.4451 50.8807C36.5068 50.8807 36.5068 50.8807 36.5685 50.8807C36.6303 50.8192 36.6303 50.8192 36.692 50.7578C36.8772 50.2661 36.7538 49.713 36.4451 49.2213C36.1981 48.7911 35.766 48.3609 35.4573 47.9921C35.0251 47.439 34.7164 46.8244 34.4695 46.1483C34.2843 45.5952 34.1608 45.042 33.9756 44.5504C33.8521 44.2431 33.6669 43.9358 33.4817 43.6899Z" fill="#171753"/>
</g>
<path d="M32.7403 42.0918C29.6535 38.6501 26.3814 36.1303 23.9119 34.1635C24.7762 31.152 25.0849 27.0342 25.1467 22.5477C25.1467 17.8153 20.0842 16.7705 18.9112 21.8102C17.9852 25.0675 17.553 30.1072 16.9357 35.5157C16.8739 36.0688 16.9974 36.6219 17.2443 37.0522C19.2199 40.4939 23.418 43.2596 28.9743 45.4721C31.0734 46.0253 33.4194 44.3044 32.7403 42.0918Z" fill="#171753" stroke="#171753" stroke-width="0.25" stroke-miterlimit="10"/>
<path d="M40.9508 48.7294C40.7039 48.9138 40.2717 48.9753 39.963 48.6065L38.9135 47.1929L36.9379 45.5335L36.8145 45.4721L37.9257 44.6731L39.6543 46.0867L41.0126 48.4221C41.0743 48.5451 41.0126 48.668 40.9508 48.7294Z" fill="white"/>
<path opacity="0.1" d="M40.9504 48.7295C40.7035 48.9139 40.2713 48.9754 39.9626 48.6066L38.9131 47.193L36.9375 45.5336L37.061 45.4722L39.0366 46.5784C39.5922 47.6233 40.1478 48.7295 40.9504 48.7295Z" fill="#1D1D1B"/>
<path d="M40.0864 49.6516C39.8394 49.836 39.4072 49.836 39.1603 49.5287L38.1108 48.1151L36.0117 46.3328L36.9378 45.4109L38.8516 46.9474L40.2098 49.2828C40.2716 49.4058 40.2098 49.5287 40.0864 49.6516Z" fill="white"/>
<path d="M39.3462 43.6285C39.2845 43.8744 39.0375 44.0587 38.7289 44.1817C37.9263 44.489 37.1237 44.6733 36.2594 44.6733L35.7655 44.7962L34.3455 45.165L33.7899 43.6285L33.6664 43.3212L33.543 43.0139L34.9629 43.1368C36.4446 43.3212 37.5559 43.3827 38.8523 43.0139C39.3462 43.0139 39.4697 43.3212 39.3462 43.6285Z" fill="white"/>
<path opacity="0.1" d="M39.3451 43.6283C39.2834 43.8742 39.0364 44.0586 38.7278 44.1815C37.9252 44.4888 37.1226 44.6732 36.2583 44.6732L35.7644 44.7961L33.7888 43.6283L33.2949 43.321C33.4184 43.321 33.5419 43.321 33.6653 43.321C35.8879 43.444 37.8017 44.3044 39.3451 43.6283Z" fill="#1D1D1B"/>
<path d="M37.926 44.6732L35.3331 47.1316L34.5305 47.8691L34.3453 48.0535C32.7401 48.0535 31.6906 47.0701 30.9498 45.7795L29.4064 44.6732C29.3446 44.3045 29.4681 43.8742 29.715 43.444C30.2707 42.5221 31.3819 41.8461 31.9993 42.0919C32.8019 42.768 33.7897 43.1367 34.9009 43.3211C36.1974 43.7513 37.3704 44.1815 37.926 44.6732Z" fill="white"/>
<path opacity="0.1" d="M40.0864 49.6514C39.8394 49.8358 39.4072 49.8358 39.1603 49.5285L38.1108 48.1149L36.0117 46.3326L36.1969 46.1482L38.1725 47.5618C38.6664 48.6066 39.2838 49.5899 40.0864 49.6514C40.0864 49.5899 40.0864 49.5899 40.0864 49.6514Z" fill="#1D1D1B"/>
<path d="M38.9148 50.2661C38.9148 50.389 38.8531 50.512 38.7296 50.5734C38.4827 50.7578 38.0505 50.6963 37.8035 50.389L36.9392 48.8525L35.2106 47.0702L35.0254 46.8858L36.0749 46.0254L37.8035 47.8077L38.9148 50.2661Z" fill="white"/>
<path opacity="0.1" d="M38.7905 50.5732C38.5435 50.7576 38.1114 50.6961 37.8644 50.3888L37.0001 48.8523L35.2715 47.07L35.3332 47.0085L37.1236 48.4836C37.6175 49.5284 37.9879 50.5732 38.7905 50.5732Z" fill="#1D1D1B"/>
<path d="M37.3093 50.389C37.3093 50.5119 37.2475 50.6348 37.1858 50.6963C36.9388 50.8807 36.5067 50.8192 36.3215 50.5119L35.3954 49.0983L34.4076 47.9921L33.852 47.5004L33.7285 47.316L34.8398 46.4556L35.3954 47.1316L36.198 48.115L37.3093 50.389Z" fill="white"/>
<path opacity="0.1" d="M37.1235 50.6963C36.8765 50.8806 36.4444 50.8192 36.2591 50.5119L35.3331 49.0983L34.3453 47.992C32.7401 47.992 31.6906 47.0087 30.9498 45.718L29.4064 44.6118C29.3446 44.243 29.4681 43.8128 29.715 43.3826C29.715 44.4274 30.2707 44.9805 31.0115 45.1649C31.8758 46.3941 32.8019 47.2545 33.7897 47.3774C33.9131 47.3774 34.0366 47.3774 34.1601 47.3774L34.5305 47.7462L35.58 48.8525C36.1357 50.0202 36.3826 50.6963 37.1235 50.6963Z" fill="#1D1D1B"/>
<path d="M34.9831 16.5023L34.9817 16.5236L34.9829 16.5448C35.0222 17.2219 34.764 17.6115 34.3755 17.84C33.9568 18.0863 33.3406 18.17 32.6528 18.0971C31.9721 18.025 31.2684 17.8042 30.7084 17.4969C30.1515 17.1912 29.8003 16.8363 29.689 16.5158C29.6038 15.5527 29.6483 14.8794 29.7302 14.1676C29.7501 13.9942 29.7726 13.817 29.796 13.6318C29.8603 13.1237 29.9321 12.5562 29.9811 11.8451L35.2688 12.0079L34.9831 16.5023Z" fill="white" stroke="#171753" stroke-width="0.7"/>
<path opacity="0.1" d="M30.6406 13.1444C31.9371 14.3122 32.184 16.832 33.9744 17.2622C35.2709 17.5695 35.3944 15.7872 35.3944 15.7872C36.5674 14.3736 35.8883 13.0215 35.5796 12.0996L30.6406 13.1444Z" fill="#1D1D1B"/>
<path d="M38.7007 15.3755C38.1315 15.7658 37.2391 15.9005 35.5406 15.5086C34.4176 15.2138 33.4767 14.7451 32.5922 14.0415L31.0909 12.7684L33.14 3.61804C34.483 3.70836 35.7664 3.8335 36.8911 4.11862C38.0955 4.42396 39.0811 4.90401 39.7563 5.68571C40.6577 6.81066 41.6308 9.19435 40.0707 13.1375C39.6297 14.2351 39.2924 14.9697 38.7007 15.3755Z" fill="white" stroke="#171753" stroke-width="0.7"/>
<path d="M34.4069 9.76417C33.9747 9.82563 33.5426 9.82563 33.1722 10.1329C32.6783 10.5017 31.2583 11.7923 30.7644 12.0996C30.4557 12.284 30.3323 12.6528 30.2088 13.0215C30.0853 13.3288 29.8384 13.6976 29.4679 13.7591C29.1593 13.8205 28.9123 13.6361 28.7271 13.4518C28.6654 13.3288 28.6036 13.2059 28.5419 13.083C28.048 11.9153 27.8628 10.6861 27.9863 9.45687C28.1715 7.18287 28.8506 4.90886 30.2705 3.06507C31.9992 0.791066 34.0982 0.791066 36.259 1.22128C37.9259 1.52858 39.1606 2.38902 40.0249 3.24945C40.6423 3.92551 41.1362 4.72448 41.3832 5.58492C41.6301 6.56827 41.1362 7.67455 40.0867 7.98184C39.3458 8.22768 38.4815 8.22768 37.7407 7.98184C37.3085 7.85892 36.8764 7.61309 36.4442 7.49017C36.0121 7.36725 35.4564 7.49017 35.2095 7.85892C35.0243 8.10476 34.9625 8.41206 34.9008 8.71936C34.8391 9.02666 34.6538 9.70271 34.4069 9.76417Z" fill="#FFC78F" stroke="#171753" stroke-width="0.7" stroke-miterlimit="10"/>
<path d="M32.4357 8.75745L32.4357 8.75754L32.4437 8.75868C32.547 8.77337 32.6762 8.84746 32.7957 8.99022C32.9136 9.13105 32.9903 9.30233 33.0108 9.44524L33.0143 9.469L33.0209 9.49207C33.1126 9.81164 33.0247 10.2076 32.8974 10.6511L32.8972 10.651L32.8944 10.6624C32.8886 10.6855 32.8829 10.7083 32.8773 10.7307C32.8169 10.9739 32.767 11.1748 32.6456 11.336L32.6266 11.3613L32.6124 11.3895C32.5855 11.443 32.5283 11.5062 32.447 11.5567C32.3645 11.6081 32.2889 11.6268 32.246 11.6268C32.1341 11.6268 32.0506 11.5784 31.9812 11.4748C31.8727 11.3127 31.7642 11.0948 31.7136 10.9438C31.5862 10.5632 31.4848 10.2501 31.4848 9.94866C31.4848 9.60202 31.5462 9.27322 31.7163 9.06163C31.8939 8.84059 32.2048 8.71914 32.4357 8.75745Z" fill="white" stroke="#171753" stroke-width="0.7"/>
<path d="M60.9728 45.1268L42.8211 55.6282H42.1621L46.715 43.0981L64.8667 32.5967L60.9728 45.1268Z" fill="#171753" stroke="#171753" stroke-width="0.25" stroke-miterlimit="10"/>
<path d="M56.4201 43.5756C56.3003 44.1723 55.7013 44.8286 55.1621 45.1269C54.623 45.4253 54.2635 45.1866 54.4432 44.5899C54.563 43.9933 55.1621 43.3369 55.7013 43.0386C56.2404 42.7403 56.5999 42.9789 56.4201 43.5756Z" fill="#FFA54B" stroke="#171753" stroke-width="0.25" stroke-miterlimit="10"/>
</svg>
