<svg width="157" height="170" viewBox="0 0 157 170" fill="none" xmlns="http://www.w3.org/2000/svg">
<circle opacity="0.6" cx="78.5" cy="91.0767" r="78.5" fill="#8989C7"/>
<path d="M97.4497 111.101C97.4806 111.119 97.5188 111.119 97.5497 111.101L115.915 100.497C115.982 100.459 115.982 100.362 115.915 100.324L95.3955 88.4718C95.3646 88.4539 95.3264 88.4539 95.2955 88.4718L76.9196 99.0855C76.8529 99.1241 76.8529 99.2203 76.9196 99.2588L97.4497 111.101Z" fill="#5ED9D1" stroke="#171753" stroke-width="0.7" stroke-miterlimit="10"/>
<path d="M97.4497 111.101C97.4806 111.119 97.4997 111.152 97.4997 111.187V113.745C97.4997 113.822 97.4164 113.871 97.3497 113.832L76.8195 101.98C76.7886 101.962 76.7695 101.929 76.7695 101.893V99.3455C76.7695 99.2685 76.8528 99.2204 76.9195 99.2589L97.4497 111.101Z" fill="#42E8E0" stroke="#171753" stroke-width="0.7" stroke-miterlimit="10"/>
<path d="M97.55 111.101C97.5191 111.119 97.5 111.152 97.5 111.188V113.746C97.5 113.823 97.5833 113.871 97.65 113.833L116.016 103.229C116.047 103.211 116.066 103.178 116.066 103.143V100.585C116.066 100.508 115.982 100.459 115.916 100.498L97.55 111.101Z" fill="#171753" stroke="#171753" stroke-width="0.7" stroke-miterlimit="10"/>
<path d="M88.4313 99.7001C88.4313 99.7371 88.4517 99.7711 88.4844 99.7884L97.3923 104.523C97.4599 104.559 97.5411 104.508 97.5392 104.432L96.3663 58.0191C96.3654 57.9836 96.3456 57.9511 96.3144 57.934L88.5795 53.6859C88.5128 53.6493 88.4313 53.6975 88.4313 53.7736L88.4313 99.7001Z" fill="#42E8E0" stroke="#171753" stroke-width="0.7" stroke-miterlimit="10"/>
<path d="M96.3664 58.0099C96.3657 57.9794 96.3788 57.9503 96.4021 57.9307L98.7333 55.9749C98.7492 55.9616 98.7687 55.9535 98.7893 55.9518L102.414 55.6507C102.471 55.6459 102.521 55.6903 102.522 55.7478L103.627 99.4513C103.627 99.4817 103.614 99.5109 103.591 99.5304L97.7029 104.47C97.6387 104.524 97.5408 104.479 97.5387 104.396L96.3664 58.0099Z" fill="#171753" stroke="#171753" stroke-width="0.7" stroke-miterlimit="10"/>
<path d="M89.279 12.9227C89.2986 12.9215 89.318 12.9261 89.3349 12.9359L110.113 24.9392C110.199 24.9889 110.167 25.1202 110.068 25.1257L107.415 25.272C107.396 25.2731 107.376 25.2685 107.36 25.2588L86.5802 13.2647C86.4942 13.2151 86.5252 13.0841 86.6243 13.0783L89.279 12.9227Z" fill="#5ED9D1" stroke="#171753" stroke-width="0.7" stroke-miterlimit="10"/>
<path d="M79.4648 50.1986L100.559 62.3744L107.386 25.2745L86.2916 13.0986L79.4648 50.1986Z" fill="#42E8E0" stroke="#171753" stroke-width="0.7" stroke-miterlimit="10"/>
<path d="M82.1699 47.784L99.1849 57.608L104.69 27.6887L87.6751 17.8647L82.1699 47.784Z" fill="#BEF0ED" stroke="#171753" stroke-width="0.7" stroke-miterlimit="10"/>
<path d="M98.6458 32.257L90.2475 27.3971C90.0647 27.2943 89.86 27.2365 89.6504 27.2285C89.4409 27.2205 89.2326 27.2624 89.0425 27.3508C88.8523 27.4393 88.6858 27.5718 88.5569 27.7372C88.4281 27.9027 88.3405 28.0964 88.3013 28.3025L88.0412 29.7594C87.9673 30.149 88.0169 30.5518 88.1829 30.9119C88.349 31.2719 88.6233 31.5712 88.9675 31.7679L97.3658 36.6174C97.5474 36.7226 97.7514 36.7826 97.9611 36.7924C98.1707 36.8022 98.3799 36.7616 98.5706 36.6739C98.7613 36.5862 98.9279 36.454 99.0569 36.2885C99.1859 36.1229 99.2733 35.9288 99.3117 35.7225L99.5823 34.2655C99.6537 33.8749 99.602 33.4719 99.4342 33.112C99.2664 32.7522 98.9909 32.4534 98.6458 32.257V32.257Z" fill="#171753" stroke="#171753" stroke-width="0.7" stroke-miterlimit="10"/>
<path d="M107.371 25.3513C107.38 25.3059 107.418 25.2721 107.464 25.2696L110.277 25.1144C110.341 25.1108 110.392 25.1686 110.381 25.2322L103.97 60.3718C103.965 60.4007 103.947 60.4259 103.921 60.4405L100.746 62.2662C100.672 62.3087 100.582 62.2452 100.598 62.1614L107.371 25.3513Z" fill="#171753" stroke="#171753" stroke-width="0.7" stroke-miterlimit="10"/>
<path d="M95.4736 49.6913C95.4832 49.5909 95.4876 49.486 95.4883 49.3783C95.4883 47.4769 94.1823 44.5691 92.462 43.5795C92.3423 43.5108 92.2179 43.4505 92.0897 43.3992C91.8733 43.1214 91.6636 42.8319 91.4554 42.5541C91.3752 42.4434 91.2707 42.2821 91.1662 42.222C90.9749 42.1121 90.805 42.2675 90.9153 42.5299C90.8841 42.4926 90.8468 42.4609 90.805 42.436C90.6078 42.3217 90.4518 42.5218 90.6078 42.815C90.5842 42.786 90.5558 42.7613 90.5239 42.7417C90.3981 42.6684 90.2965 42.7674 90.3098 42.9191C90.323 43.0708 90.4452 43.3017 90.5305 43.4725C90.1192 43.7247 89.819 44.152 89.5681 44.6167C89.3415 45.0397 89.1465 45.4897 88.9434 45.9361C88.8382 46.1633 88.6491 46.8033 88.3018 46.6046C88.2346 46.5627 88.1757 46.5088 88.1281 46.4456C87.775 46.0058 87.5917 45.2508 87.5439 44.7897C87.5211 44.5368 87.5137 44.2033 87.6749 44.1087C87.775 44.0552 87.9221 44.1 88.084 44.1923C88.4975 44.4305 89.0015 44.9847 89.0192 44.9986C88.7491 44.6365 88.1325 43.8302 87.6786 43.5693C87.4446 43.4344 87.254 43.4454 87.1767 43.7364C87.148 43.8564 87.1339 43.9795 87.1348 44.1029C87.1468 44.5165 87.2174 44.9264 87.3445 45.3204C87.4917 45.8093 87.6962 46.3466 88.0251 46.7732C88.1125 46.8951 88.2224 46.9993 88.3489 47.0803C88.8639 47.3735 89.1178 46.5123 89.3091 46.1648C89.6409 45.544 90.0052 44.9319 90.5305 44.5698C90.7269 44.433 90.9547 44.3478 91.193 44.3222C91.4312 44.2966 91.6721 44.3313 91.8932 44.4232C91.9998 44.4631 92.1027 44.5121 92.2008 44.5698C92.3438 44.6528 92.4781 44.7498 92.6018 44.8593C93.2603 45.4325 93.8387 46.3554 94.1911 47.2137C94.5274 48.034 94.7503 48.9927 94.651 49.6737C94.6105 49.9918 94.5038 50.3092 94.2301 50.3334C94.0719 50.3554 93.8813 50.2857 93.69 50.1758C93.517 50.0725 93.3531 49.9548 93.2 49.824C92.8023 49.4739 92.4262 49.1004 92.0735 48.7054C91.7203 48.3264 90.2745 46.6457 89.9124 46.1795C90.5467 47.0884 91.1729 48.0024 91.8638 48.852C91.8077 48.8904 91.7564 48.9352 91.7107 48.9854C91.6592 49.0433 91.7107 49.2053 91.7895 49.2537C91.7993 49.2596 91.8103 49.2634 91.8217 49.2648C91.8331 49.2662 91.8447 49.2652 91.8557 49.2617C91.8364 49.3166 91.8361 49.3763 91.8549 49.4313C91.8737 49.4864 91.9105 49.5335 91.9594 49.5652C91.9696 49.5713 91.9805 49.5762 91.9918 49.5799C91.9403 49.6598 92.0198 49.8152 92.111 49.8672C92.1327 49.8814 92.1588 49.8874 92.1846 49.8841L92.6768 49.7712C92.9967 50.1108 93.3604 50.4066 93.7585 50.6508C94.0395 50.8128 94.3184 50.911 94.5759 50.9073C95.0115 50.8905 95.2779 50.5643 95.4008 50.1091C95.4386 49.972 95.4632 49.8316 95.4743 49.6898L95.4736 49.6913ZM92.8542 46.9777C92.8628 47.1274 92.9066 47.2729 92.9818 47.4028C93.0571 47.5326 93.1618 47.6431 93.2875 47.7254C93.5289 47.8639 93.7224 47.754 93.7231 47.4776C93.7156 47.3278 93.6725 47.1818 93.5973 47.0518C93.522 46.9219 93.4169 46.8115 93.2905 46.73C93.0484 46.5914 92.8549 46.7014 92.8542 46.9777Z" fill="#171753"/>
<path d="M50.0658 22.9956C48.9255 22.854 47.7704 22.8927 46.6422 23.1101C45.8512 23.4847 43.728 24.8792 43.2806 28.6569C42.8331 32.4345 42.1152 43.2262 41.418 46.7437C42.0528 54.1533 43.8011 57.2025 43.9676 57.7852C44.1341 58.368 46.4234 58.7218 47.2247 58.6282C47.7842 58.5361 48.3189 58.3307 48.7962 58.0246C48.7962 58.0246 48.3176 46.4731 48.7027 44.7456C49.0877 43.0181 50.0658 22.9956 50.0658 22.9956Z" fill="#171753" stroke="#171753" stroke-width="0.7" stroke-miterlimit="10"/>
<path d="M44.6445 57.5141C44.9548 58.3727 45.1508 59.2685 45.2274 60.1782C45.1346 61.3977 45.1869 62.6239 45.3834 63.831C45.7983 64.5593 46.2681 65.2551 46.7884 65.9123L48.0371 66.4222L49.5461 65.4336L50.1289 61.4582L48.0475 57.4204L44.6445 57.5141Z" fill="#BEF0ED" stroke="#171753" stroke-width="0.7" stroke-miterlimit="10"/>
<path d="M49.5455 115.657C49.2888 115.903 49.0931 116.206 48.9733 116.541C48.8688 117.105 48.8026 117.675 48.7754 118.248C48.7754 118.498 49.1918 119.101 51.0442 119.486C51.8012 119.591 52.5723 119.471 53.261 119.139C53.9497 118.808 54.5253 118.281 54.9155 117.624C55.4046 116.312 55.4878 116.042 55.5918 115.979C56.1568 115.516 56.755 115.095 57.3818 114.72C58.1151 114.554 58.8176 114.273 59.4631 113.888C60.4689 113.233 61.347 112.401 62.0544 111.432C62.4165 111.014 62.686 110.525 62.8453 109.995C62.8453 109.902 62.9495 109.329 62.6893 109.184C62.4291 109.038 61.9296 108.674 61.9088 108.663C61.888 108.653 49.5455 115.657 49.5455 115.657Z" fill="#171753" stroke="#171753" stroke-width="0.7" stroke-miterlimit="10"/>
<path d="M63.1995 122.734C63.1995 122.734 62.4294 123.088 62.3878 123.275C62.2821 123.789 62.223 124.311 62.2109 124.836C62.6727 125.264 63.2362 125.568 63.8482 125.717C64.4602 125.867 65.1002 125.857 65.7075 125.689C66.9154 125.393 67.9912 124.705 68.767 123.733C68.7738 123.618 68.7738 123.504 68.767 123.389C69.368 122.882 70.0329 122.455 70.7444 122.12C71.6004 122.008 72.4308 121.751 73.2002 121.36C74.5645 120.674 75.6839 119.584 76.4056 118.238C76.7179 117.565 76.8054 116.81 76.6553 116.084C76.5409 115.803 63.1995 122.734 63.1995 122.734Z" fill="#171753" stroke="#171753" stroke-width="0.7" stroke-miterlimit="10"/>
<path d="M49.4001 114.086C49.4001 114.086 49.1086 116.094 49.0254 116.687C49.2647 117.572 50.8572 117.894 52.0747 118.009C53.2923 118.123 55.3215 115.688 55.5713 115.438C56.2155 114.861 56.9123 114.346 57.6526 113.898C58.7106 113.589 59.6949 113.069 60.5457 112.368C61.5202 111.655 62.21 110.619 62.4919 109.444C62.4181 109.183 62.2673 108.95 62.0594 108.776C61.8516 108.601 61.5962 108.493 61.3262 108.466C60.6303 108.265 59.9 108.212 59.1824 108.31C57.7266 108.711 56.2981 109.204 54.9053 109.788C54.5307 110.058 49.4001 114.086 49.4001 114.086Z" fill="#42E8E0" stroke="#171753" stroke-width="0.7" stroke-miterlimit="10"/>
<path d="M57.0377 95.4884C55.997 100.036 56.2154 113.336 56.1113 113.648C55.9786 113.855 55.8051 114.032 55.6014 114.169C54.6341 114.938 53.5013 115.472 52.2922 115.73C50.3877 116.063 49.0349 115.417 48.9412 115.032C48.8476 114.647 48.3687 108.33 48.2438 101.732C48.2831 96.8044 48.7146 91.8873 49.5342 87.0278C49.5523 82.0409 49.2325 77.0586 48.5769 72.115C47.4172 68.1642 47.1541 64.0045 47.8068 59.9391C48.3792 56.9212 48.6394 53.9032 48.6394 53.9032C50.9925 53.2289 53.4876 53.2289 55.8408 53.9032C58.5985 54.7878 61.2002 63.9457 61.3147 70.7413C61.4043 72.5338 61.1718 74.3279 60.6279 76.0383C58.4842 81.71 58.0367 90.8783 57.0377 95.4884Z" fill="#FFE850" stroke="#171753" stroke-width="0.7" stroke-miterlimit="10"/>
<path d="M63.3133 119.757C62.9642 120.412 62.7085 121.112 62.5537 121.838C62.4795 122.331 62.4795 122.833 62.5537 123.326C63.0032 123.705 63.5321 123.979 64.1012 124.126C64.6703 124.274 65.2653 124.292 65.8423 124.18C67.1224 123.795 69.0371 122.213 69.9217 121.921C71.6431 121.457 73.2606 120.669 74.688 119.601C76.0721 118.341 76.6445 117.613 76.7069 116.916C76.7693 116.218 76.8733 115.875 76.3426 115.219C75.9397 114.651 75.3507 114.243 74.6776 114.064C72.715 114.225 70.767 114.531 68.8498 114.98C66.9229 116.475 65.0749 118.07 63.3133 119.757Z" fill="#42E8E0" stroke="#171753" stroke-width="0.7" stroke-miterlimit="10"/>
<path d="M55.1231 56.6298C55.1231 56.6298 53.5413 63.3422 53.8327 67.6714C54.1241 72.0006 57.5478 73.4783 58.1722 74.5294C58.7966 75.5805 60.9405 81.4082 60.8364 94.375C62.335 105.052 62.9177 118.633 63.0946 120.517C66.2998 123.472 70.1712 119.601 70.2233 118.914C70.2753 118.227 70.6188 98.8499 70.5251 95.9152C70.4314 92.9805 72.2942 74.8416 71.7739 68.0148C71.2535 61.188 69.4843 58.7945 69.3907 55.61C67.9858 54.8399 56.247 52.1029 55.1231 56.6298Z" fill="#FFE850" stroke="#171753" stroke-width="0.7" stroke-miterlimit="10"/>
<path d="M73.94 34.2233C73.94 34.2233 74.9807 30.6538 73.6278 29.6132C72.2749 28.5725 66.9363 26.0749 65.854 25.0134C64.7717 23.9519 63.6997 23.0361 63.6997 23.0361C63.6997 23.0361 56.1028 20.8923 55.8218 20.8611C54.8504 21.1132 53.8948 21.4225 52.9599 21.7873C52.2315 22.0267 47.3197 22.9112 46.9034 23.2754C46.4872 23.6397 44.3016 25.9188 44.6242 30.4457C44.9468 34.9726 46.9451 40.2176 47.9441 42.7985C48.9431 45.3793 48.5788 53.2052 48.6413 53.8504C48.7037 54.4956 50.7226 55.8589 56.1757 57.3783C61.6288 58.8976 68.5388 58.1692 69.0591 56.8683C69.5794 55.5675 71.6504 41.8619 71.9834 41.0085C72.3165 40.1552 73.94 34.2233 73.94 34.2233Z" fill="#171753" stroke="#171753" stroke-width="0.7" stroke-miterlimit="10"/>
<path d="M55.457 20.6322C55.9681 19.5968 56.3389 18.4978 56.5599 17.3645C56.4889 16.1394 56.2581 14.9289 55.8732 13.7637C55.8732 13.7637 58.3708 6.54153 62.6688 6.14607C66.9668 5.75062 69.017 4.06469 69.2459 5.84424C69.4499 7.5115 69.5055 9.19359 69.4123 10.8707C69.3083 11.7032 68.9545 12.9521 68.9024 13.3683C68.6734 15.0524 68.3256 16.7181 67.8618 18.3531C67.6322 19.1606 67.3037 19.9366 66.8836 20.6634L64.7397 20.8508C64.7397 20.8508 64.2401 22.7864 64.1361 23.057C64.032 23.3276 55.457 20.6322 55.457 20.6322Z" fill="#BEF0ED" stroke="#171753" stroke-width="0.7" stroke-miterlimit="10"/>
<path d="M60.1497 20.0707C60.1497 20.0707 58.2972 19.696 57.4543 19.4462C56.9982 19.3265 56.5703 19.1179 56.1951 18.8323L55.7373 19.1652C55.2514 19.8034 54.8523 20.5033 54.5508 21.2466C54.5508 21.59 56.8091 22.0375 58.9945 22.5162C61.2567 22.87 63.4443 23.598 65.4674 24.6704L65.6963 22.485C64.8793 21.7784 63.9602 21.1995 62.9699 20.7679C61.8564 20.3933 60.1497 20.0707 60.1497 20.0707Z" fill="#171753" stroke="#171753" stroke-width="0.7" stroke-miterlimit="10"/>
<path d="M66.6959 14.1078C66.6959 14.1078 67.3726 12.8174 66.384 12.2346C65.3953 11.6519 64.3025 12.6509 63.9279 13.036C63.5532 13.421 63.2202 15.6064 62.5853 15.9914C61.7099 16.4035 60.8057 16.7513 59.8798 17.0321C59.8798 17.0321 57.0595 17.0321 56.508 16.4493C55.5704 15.1285 54.8825 13.6471 54.4785 12.0785C54.3224 10.965 53.1466 4.79381 57.8297 2.77491C60.6499 -0.0661244 64.6148 1.23471 65.8324 1.73424C67.05 2.23376 69.9949 4.58573 69.8284 5.6264C69.6619 6.66707 69.4122 7.83262 69.4122 7.83262L69.0791 10.5175C68.7226 10.8733 68.4211 11.2802 68.1843 11.7247C68.1843 12.0369 67.4973 14.2015 67.4973 14.2015L66.6959 14.1078Z" fill="#171753" stroke="#171753" stroke-width="0.7" stroke-miterlimit="10"/>
<g style="mix-blend-mode:multiply">
<path d="M69.7339 36.5863C70.0278 38.3883 70.1427 40.2148 70.0772 42.0394C69.8586 43.9334 67.7773 57.6495 67.7773 57.6495C67.7773 57.6495 69.4946 57.2124 69.4634 56.2654C69.4321 55.3184 71.8257 41.696 72.5854 38.9903C73.3451 36.2845 70.2231 32.715 69.7339 36.5863Z" fill="#42E8E0"/>
</g>
<path d="M87.3125 38.4905C87.5914 37.838 87.9669 37.2311 88.4261 36.6902C88.9048 36.2739 89.8207 35.3893 89.8207 35.3893C90.2451 34.8049 90.7109 34.2519 91.215 33.7346C91.6105 33.4224 92.2558 32.6107 92.8489 32.6939C93.4421 32.7772 93.3069 33.1415 93.1924 33.3392C93.078 33.5369 91.9124 34.8377 91.9124 34.8377L91.3296 35.9929C91.7755 36.0665 92.2095 36.1995 92.62 36.3884C92.9007 36.7026 93.1385 37.0525 93.3276 37.429C93.3276 37.429 93.5045 37.429 93.8584 37.6476C94.2122 37.8661 94.1498 38.7715 94.1498 38.7715L93.8271 39.8122C93.8271 39.8122 93.0572 40.8528 92.9531 40.9777C92.6204 41.1196 92.2705 41.2176 91.9124 41.2691L91.2775 40.6551C90.6145 41.0259 89.9175 41.3326 89.1962 41.5709C88.6654 41.5813 87.3125 38.4905 87.3125 38.4905Z" fill="#BEF0ED" stroke="#171753" stroke-width="0.7" stroke-miterlimit="10"/>
<path d="M90.2466 38.5948C89.7028 38.1484 89.0664 37.8284 88.3837 37.6582C87.9098 37.5715 87.4204 37.6409 86.9891 37.8559C86.9891 37.8559 80.5058 40.9779 78.976 41.4878C77.4462 41.9978 79.3195 47.3676 83.2116 46.6912C87.1037 46.0147 87.7593 44.6827 88.852 43.1009C89.363 42.3189 89.9637 41.5994 90.6419 40.9571C90.6419 40.9571 91.2768 39.292 90.2466 38.5948Z" fill="#171753" stroke="#171753" stroke-width="0.7" stroke-miterlimit="10"/>
<path d="M84.3244 41.6857C84.3244 41.6857 83.2836 40.645 81.7954 39.3442C80.3073 38.0433 75.4058 31.4143 74.1362 30.4881C72.8666 29.5619 70.8894 31.2998 70.265 33.1938C69.8099 34.564 69.7644 36.0371 70.1341 37.4327C70.5038 38.8283 71.2726 40.0857 72.3463 41.0509C75.3851 43.7879 80.349 46.9827 82.7009 46.785C85.0529 46.5873 85.0737 42.9033 84.3244 41.6857Z" fill="#171753" stroke="#171753" stroke-width="0.7" stroke-miterlimit="10"/>
<path d="M66.5394 13.0146C66.5394 13.0146 67.32 11.5785 66.6019 11.4744C65.8838 11.3704 65.3738 12.3174 65.1761 12.9938C64.9742 13.5118 64.9451 14.0812 65.093 14.6172C65.2387 15.2312 65.2698 15.9389 65.5091 16.0429C65.7485 16.147 66.092 15.6996 66.1337 15.3145C66.1753 14.9295 66.5394 13.0146 66.5394 13.0146Z" fill="#BEF0ED" stroke="#171753" stroke-width="0.7" stroke-miterlimit="10"/>
</svg>
