<svg width="251" height="256" viewBox="0 0 251 256" fill="none" xmlns="http://www.w3.org/2000/svg">
<circle opacity="0.6" cx="152" cy="99" r="99" fill="#FFA6A6"/>
<path d="M182.962 111.425C180.214 106.789 177.032 109.252 176.454 109.687C176.454 109.687 176.309 109.687 176.309 109.542C175.73 108.383 172.693 102.443 169.8 103.747L165.172 106.354V106.499L168.499 112.15L172.838 124.175L171.681 124.61V127.073C171.681 127.218 171.825 127.218 171.825 127.218L176.454 124.61L182.239 119.973C182.239 119.973 186.434 117.221 182.962 111.425Z" fill="white"/>
<path d="M171.826 127.797C171.681 127.797 171.536 127.797 171.536 127.652C171.392 127.507 171.247 127.363 171.247 127.073V124.175L172.259 123.885L168.065 112.44L164.738 106.644V106.354C164.738 106.21 164.883 106.065 165.028 105.92L169.656 103.312C170.668 102.732 172.404 102.732 174.429 105.34C175.442 106.499 176.165 107.948 176.599 108.817C177.322 108.383 178.334 107.803 179.636 108.093C181.082 108.383 182.384 109.397 183.397 111.136C187.157 117.366 182.529 120.408 182.529 120.408L176.743 125.044L172.115 127.652C171.97 127.652 171.826 127.797 171.826 127.797ZM172.259 125.044V126.203L176.165 124.03L181.806 119.539C181.95 119.394 185.566 117.076 182.384 111.715C181.516 110.266 180.504 109.397 179.491 109.252C178.19 109.107 177.177 109.832 176.888 110.121L176.599 110.266H176.309C176.02 110.266 175.875 110.121 175.731 109.832C175.442 109.252 174.574 107.513 173.417 106.065C172.549 104.906 171.247 103.747 170.09 104.326L165.895 106.789L168.933 112.15L173.561 124.9L172.259 125.044Z" fill="#171753"/>
<path d="M178.334 114.613C178.334 114.613 176.309 114.468 175.875 114.613C175.441 114.758 171.102 116.641 171.102 116.641L170.379 118.235L172.693 124.465L171.536 124.755V127.218C171.536 127.362 171.681 127.362 171.681 127.362L176.309 124.755L182.095 120.118C182.095 120.118 186.144 117.655 183.107 112.15L178.334 114.613Z" fill="#8989C7"/>
<path d="M171.681 127.797C171.536 127.797 171.392 127.797 171.392 127.652C171.247 127.507 171.102 127.363 171.102 127.073V124.175L172.115 123.885L169.945 117.945L170.813 115.917L171.102 115.772C172.838 115.047 175.731 113.888 176.02 113.744C176.309 113.744 177.756 113.744 178.479 113.744L183.686 110.991L183.975 111.57C187.157 117.51 182.818 120.263 182.673 120.408L176.888 125.044L172.26 127.652C171.826 127.652 171.826 127.797 171.681 127.797ZM172.115 125.044V126.203L176.02 124.03L181.661 119.539C181.806 119.394 184.988 117.366 182.818 112.874L178.479 115.192H178.334C177.322 115.192 176.165 115.047 176.02 115.192C175.731 115.337 173.272 116.207 171.536 117.076L171.102 118.235L173.561 124.9L172.115 125.044Z" fill="#171753"/>
<path d="M172.548 111.86L176.309 109.832V109.687C176.02 109.107 175.152 107.369 173.995 105.92L169.366 108.672L167.92 111.425L168.498 112.295L169.222 114.178L170.813 115.482L172.548 111.86Z" fill="#8989C7"/>
<path d="M170.958 116.351L168.644 114.612L167.92 112.584L167.197 111.425L168.788 108.238L174.14 105.195L174.429 105.63C175.586 107.223 176.599 108.962 176.888 109.542C177.033 109.686 176.888 109.976 176.888 110.121V110.411L173.127 112.439L170.958 116.351ZM169.511 113.743L170.379 114.468L171.97 111.425L175.442 109.542C175.152 108.962 174.429 107.803 173.706 106.644L169.656 108.962L168.499 111.28L168.933 112.005L169.511 113.743Z" fill="#171753"/>
<path d="M178.19 114.033C175.442 109.396 172.26 111.86 171.681 112.294C171.681 112.294 171.536 112.294 171.536 112.149C170.958 110.99 167.92 105.05 165.028 106.354C161.556 108.093 165.751 115.771 165.751 115.771L171.392 127.072C171.392 127.217 171.536 127.217 171.536 127.217L177.322 122.581C177.467 122.581 181.661 119.973 178.19 114.033Z" fill="#8989C7"/>
<path d="M171.826 127.797H171.537C171.392 127.797 171.103 127.652 170.958 127.362L165.317 116.061C165.172 115.916 162.424 110.701 163.292 107.658C163.581 106.789 164.015 106.209 164.883 105.775C167.776 104.326 170.813 109.107 171.97 111.28C172.694 110.845 173.706 110.266 175.008 110.556C176.454 110.701 177.756 111.86 178.768 113.598C182.529 119.828 177.901 122.871 177.901 122.871L171.826 127.797ZM165.896 106.934C165.751 106.934 165.462 106.934 165.317 107.078C164.883 107.368 164.594 107.658 164.449 108.238C163.726 110.411 165.606 114.323 166.33 115.627L171.826 126.348L177.033 122.146C177.177 122.001 180.793 119.683 177.611 114.323C176.743 112.874 175.731 112.005 174.719 111.86C173.417 111.715 172.404 112.439 172.115 112.729L171.826 112.874H171.537C171.247 112.874 171.103 112.729 170.958 112.439C169.945 110.266 167.776 106.934 165.896 106.934Z" fill="#171753"/>
<path d="M170.523 110.411L175.152 107.803L176.164 109.832L171.536 112.295L170.523 110.411Z" fill="#171753"/>
<path d="M178.479 122.147L180.793 121.133L183.396 119.104L184.119 116.931L184.264 114.758L183.975 113.888L179.636 116.351L179.78 117.945L179.202 119.974L178.479 122.147Z" fill="#171753"/>
<path d="M163.146 156.629C160.398 151.993 157.216 154.456 156.637 154.89C156.637 154.89 156.493 154.89 156.493 154.745C155.914 153.586 152.877 147.646 149.984 148.95L145.355 151.558V151.703L148.682 157.353L153.021 169.379L151.864 169.668V172.131C151.864 172.276 152.009 172.276 152.009 172.276L156.637 169.668L162.423 165.032C162.423 165.177 166.762 162.424 163.146 156.629Z" fill="white"/>
<path d="M152.009 172.856C151.865 172.856 151.72 172.856 151.72 172.711C151.575 172.566 151.431 172.421 151.431 172.132V169.234L152.443 168.944L148.249 157.498L144.922 151.703V151.413C144.922 151.268 145.067 151.124 145.211 150.979L149.84 148.371C152.877 146.922 155.77 151.703 156.927 153.876C157.65 153.442 158.663 152.862 159.964 153.152C161.411 153.297 162.712 154.456 163.725 156.194C167.485 162.424 162.857 165.467 162.857 165.467L157.071 170.103L152.443 172.711C152.298 172.856 152.154 172.856 152.009 172.856ZM152.443 170.248V171.407L156.348 169.234L162.134 164.598C162.278 164.453 165.894 162.135 162.712 156.774C161.845 155.325 160.832 154.456 159.82 154.311C158.518 154.166 157.505 154.89 157.216 155.18L156.927 155.325H156.638C156.348 155.325 156.204 155.18 156.059 154.89C154.902 152.427 152.298 148.516 150.418 149.385L146.224 151.703L149.261 157.064L153.889 169.669L152.443 170.248Z" fill="#171753"/>
<path d="M158.662 159.672C158.662 159.672 156.637 159.527 156.203 159.672C155.769 159.672 151.43 161.7 151.43 161.7L150.707 163.294L153.021 169.524L151.864 169.813V172.276C151.864 172.421 152.009 172.421 152.009 172.421L156.637 169.813L162.423 165.177C162.423 165.177 166.473 162.714 163.435 157.208L158.662 159.672Z" fill="#8989C7"/>
<path d="M151.865 172.856C151.72 172.856 151.575 172.856 151.575 172.711C151.431 172.566 151.286 172.421 151.286 172.131V169.234L152.298 168.944L150.129 163.004L150.997 160.975L151.286 160.83C153.022 160.106 155.914 158.947 156.204 158.802C156.493 158.802 157.939 158.802 158.663 158.802L163.87 156.049L164.159 156.629C167.341 162.569 163.002 165.322 162.857 165.467L157.072 170.103L152.443 172.711C152.154 172.856 152.009 172.856 151.865 172.856ZM152.298 170.248V171.407L156.204 169.234L161.989 164.597C162.134 164.453 165.316 162.424 163.146 157.933L158.807 160.251H158.663C157.65 160.251 156.493 160.106 156.348 160.251C156.059 160.396 153.6 161.265 151.865 162.134L151.431 163.293L153.89 169.958L152.298 170.248Z" fill="#171753"/>
<path d="M152.732 157.064L156.493 155.035V154.89C156.203 154.311 155.335 152.572 154.178 151.123L149.55 153.876L148.104 156.629L148.682 157.498L149.405 159.382L150.996 160.686L152.732 157.064Z" fill="#8989C7"/>
<path d="M151.141 161.41L148.827 159.671L148.104 157.643L147.381 156.484L148.972 153.296L154.324 150.254L154.613 150.689C155.77 152.137 156.638 153.876 157.072 154.6C157.216 154.89 157.072 155.035 157.072 155.18V155.47L153.311 157.498L151.141 161.41ZM149.84 158.947L150.708 159.671L152.299 156.629L155.77 154.6C155.481 154.021 154.757 152.862 154.034 151.703L149.984 154.021L148.827 156.339L149.261 157.063L149.84 158.947Z" fill="#171753"/>
<path d="M158.518 159.237C155.77 154.601 152.588 157.064 152.009 157.498C152.009 157.498 151.865 157.498 151.865 157.353C151.286 156.194 148.249 150.254 145.356 151.558C141.884 153.297 146.079 160.975 146.079 160.975L151.72 172.276C151.72 172.421 151.865 172.421 151.865 172.421L157.65 167.785C157.65 167.785 161.989 165.032 158.518 159.237Z" fill="#8989C7"/>
<path d="M152.154 173.001H151.865C151.72 173.001 151.431 172.856 151.286 172.566L145.645 161.265C145.501 161.12 142.752 155.904 143.62 152.862C143.91 151.993 144.343 151.413 145.211 150.978C148.104 149.53 151.141 154.311 152.299 156.484C153.022 156.049 154.034 155.47 155.336 155.76C156.782 155.904 158.084 157.063 159.097 158.802C162.857 165.032 158.229 168.075 158.229 168.075L152.154 173.001ZM146.224 151.993C146.079 151.993 145.79 151.993 145.645 152.137C145.211 152.427 144.922 152.717 144.777 153.297C144.054 155.47 145.934 159.382 146.658 160.686L152.154 171.407L157.361 167.205C157.506 167.06 161.121 164.742 157.939 159.382C157.072 157.933 156.059 157.063 155.047 156.919C153.745 156.774 152.732 157.498 152.443 157.788L152.154 157.933H151.865C151.575 157.933 151.431 157.788 151.286 157.498C150.129 155.47 147.959 151.993 146.224 151.993Z" fill="#171753"/>
<path d="M150.707 155.47L155.48 152.862L156.493 154.89L151.864 157.498L150.707 155.47Z" fill="#171753"/>
<path d="M158.662 167.206L160.976 166.336L163.58 164.308L164.448 162.135V159.816L164.158 159.092L159.819 161.41L160.108 163.149L159.53 165.177L158.662 167.206Z" fill="#171753"/>
<path d="M178.767 139.678C176.019 135.042 172.837 137.505 172.258 137.939C172.258 137.939 172.114 137.939 172.114 137.795C171.535 136.635 168.498 130.695 165.605 131.999L160.977 134.607V134.752L164.303 140.402L168.642 152.428L167.485 152.718V155.181C167.485 155.325 167.63 155.325 167.63 155.325L172.258 152.718L178.044 148.081C178.044 148.226 182.383 145.618 178.767 139.678Z" fill="white"/>
<path d="M167.63 156.05C167.486 156.05 167.341 156.05 167.341 155.905C167.196 155.76 167.052 155.615 167.052 155.325V152.428L168.064 152.138L163.87 140.692L160.543 134.897V134.607C160.543 134.462 160.688 134.317 160.832 134.172L165.461 131.564C166.473 130.985 168.209 130.985 170.234 133.593C171.246 134.752 171.969 136.201 172.403 137.07C173.127 136.635 174.139 136.056 175.441 136.345C176.887 136.49 178.189 137.649 179.201 139.388C182.962 145.618 178.333 148.661 178.333 148.661L172.548 153.297L167.92 155.905C167.775 156.05 167.775 156.05 167.63 156.05ZM168.064 153.297V154.456L171.969 152.283L177.61 147.791C177.755 147.646 181.371 145.328 178.189 139.968C177.321 138.519 176.309 137.649 175.296 137.505C173.994 137.36 172.982 138.084 172.693 138.374L172.403 138.664H172.114C171.825 138.664 171.68 138.519 171.535 138.229C171.246 137.649 170.378 135.911 169.221 134.462C168.353 133.303 167.052 132.144 165.895 132.723L161.7 135.042L164.737 140.402L169.366 153.152L168.064 153.297Z" fill="#171753"/>
<path d="M174.139 142.865C174.139 142.865 172.114 142.72 171.68 142.865C171.246 142.865 166.907 144.894 166.907 144.894L166.184 146.487L168.498 152.717L167.341 153.007V155.47C167.341 155.615 167.485 155.615 167.485 155.615L172.114 153.007L177.899 148.371C177.899 148.371 181.949 145.908 178.912 140.402L174.139 142.865Z" fill="#8989C7"/>
<path d="M167.486 156.05C167.341 156.05 167.196 156.05 167.196 155.905C167.052 155.76 166.907 155.615 166.907 155.325V152.428L167.92 152.138L165.75 146.198L166.618 144.169L166.907 144.024C168.643 143.3 171.536 142.141 171.825 141.996C172.114 141.996 173.56 141.996 174.284 141.996L179.491 139.243L179.78 139.823C182.962 145.763 178.623 148.516 178.478 148.661L172.693 153.297L168.064 155.905C167.775 156.05 167.63 156.05 167.486 156.05ZM167.92 153.297V154.456L171.825 152.283L177.466 147.791C177.61 147.646 180.792 145.618 178.623 141.127L174.284 143.445H174.139C173.127 143.445 172.114 143.3 171.825 143.445C171.536 143.59 169.077 144.459 167.341 145.328L166.907 146.487L169.366 153.152L167.92 153.297Z" fill="#171753"/>
<path d="M168.353 140.112L172.114 138.083V137.938C171.824 137.359 170.957 135.62 169.799 134.171L165.171 136.924L163.725 139.677L164.303 140.546L165.026 142.43L166.617 143.734L168.353 140.112Z" fill="#8989C7"/>
<path d="M166.763 144.603L164.448 142.865L163.725 140.836L163.002 139.677L164.593 136.49L169.945 133.447L170.234 133.882C171.391 135.476 172.403 137.214 172.693 137.794C172.837 137.939 172.693 138.228 172.693 138.373V138.663L168.932 140.691L166.763 144.603ZM165.461 142.14L166.329 142.865L167.92 139.822L171.391 137.939C171.102 137.359 170.379 136.2 169.655 135.041L165.605 137.359L164.448 139.677L164.882 140.402L165.461 142.14Z" fill="#171753"/>
<path d="M173.994 142.43C171.246 137.793 168.064 140.256 167.486 140.691C167.486 140.691 167.341 140.691 167.341 140.546C166.763 139.387 163.725 133.447 160.832 134.751C157.361 136.49 161.556 144.168 161.556 144.168L167.196 155.469C167.196 155.614 167.341 155.614 167.341 155.614L173.127 150.978C173.271 150.978 177.61 148.225 173.994 142.43Z" fill="white"/>
<path d="M167.63 156.194H167.341C167.197 156.194 166.907 156.049 166.763 155.76L161.122 144.459C160.977 144.314 158.229 139.098 159.097 136.055C159.386 135.186 159.82 134.607 160.688 134.172C161.7 133.737 163.291 133.592 165.461 136.2C166.473 137.359 167.197 138.808 167.63 139.677C168.354 139.243 169.366 138.663 170.668 138.953C172.114 139.098 173.416 140.257 174.428 141.996C178.189 148.226 173.561 151.268 173.561 151.268L167.63 156.194ZM161.7 135.186C161.556 135.186 161.266 135.186 161.122 135.331C160.688 135.621 160.399 135.91 160.254 136.49C159.531 138.663 161.411 142.575 162.134 143.879L167.63 154.6L172.837 150.399C172.982 150.254 176.598 147.936 173.416 142.575C172.548 141.126 171.536 140.257 170.523 140.112C169.222 139.967 168.209 140.692 167.92 140.981L167.63 141.126H167.341C167.052 141.126 166.907 140.981 166.763 140.692C166.473 140.112 165.606 138.373 164.448 136.925C163.725 136.2 162.713 135.186 161.7 135.186Z" fill="#171753"/>
<path d="M166.33 138.663L171.103 136.055L172.116 138.084L167.343 140.547L166.33 138.663Z" fill="#171753"/>
<path d="M174.285 150.399L176.599 149.385L179.203 147.501L180.071 145.183V143.01L179.781 142.286L175.442 144.604L175.587 146.342L175.153 148.371L174.285 150.399Z" fill="#171753"/>
<path d="M179.915 53.816C179.915 53.816 178.16 53.2317 176.991 52.9395C176.991 51.4787 177.576 50.0179 177.868 48.2649C181.669 35.9939 168.803 50.0178 168.803 50.0178L173.19 52.9395C173.19 52.9395 168.219 63.7497 168.219 80.6953L174.652 84.2013L178.745 76.3128L181.377 61.1202L179.915 53.816Z" fill="#8989C7"/>
<path d="M174.067 85.0774L174.945 84.7853L175.237 84.4931L179.331 76.6046L181.67 61.1198L180.5 52.9392L179.915 52.647C179.915 52.647 178.746 52.3548 177.576 52.0627C178.161 51.1862 178.453 49.7253 178.746 48.5567C179.331 46.2194 179.915 43.5899 178.453 42.7134C175.822 41.2525 170.266 46.8037 167.927 49.4332L167.342 50.3097L172.02 53.2313C170.851 55.8608 167.05 65.7945 167.05 80.695V81.2793L167.634 81.5714L174.067 85.0774ZM177.576 76.0203L174.067 83.0323L168.804 80.1106C169.096 63.7493 173.775 53.2313 173.775 53.2313L174.067 52.647L169.974 49.7253C173.482 45.9272 176.699 43.5899 177.576 43.882C177.576 43.882 178.161 44.4664 176.991 47.9724C176.699 49.4332 176.114 51.1862 175.822 52.647V53.5235L176.699 53.8157C177.576 54.1078 178.453 54.4 179.038 54.4L179.915 61.1198L177.576 76.0203Z" fill="#171753"/>
<path d="M177.285 58.7829C176.115 62.8732 174.36 71.6382 174.36 83.9092L185.18 77.7737C185.18 77.1894 182.255 64.6262 185.764 52.3552C189.566 40.0843 176.7 54.4004 176.7 54.4004C177.577 55.5691 177.577 57.3221 177.285 58.7829Z" fill="#171753"/>
<path d="M174.359 85.0775L174.944 84.7853L186.348 78.3577V77.7734C186.348 77.189 183.424 64.918 186.933 52.9392C187.518 50.6019 187.81 47.6802 186.348 46.8037C184.009 45.6351 178.161 51.1862 175.821 53.8157L175.237 54.4001L175.821 54.6922C176.699 55.8609 176.699 57.3217 176.406 58.7826C175.237 62.8729 173.482 71.93 173.482 84.201V84.7853L174.359 85.0775ZM184.301 77.4812L175.237 82.7402C175.529 71.3457 176.991 63.165 178.161 59.0747C178.453 57.6139 178.453 55.8609 177.576 54.4001C181.377 50.6019 184.886 47.9724 185.471 48.5567C185.471 48.5567 186.056 49.1411 184.886 52.6471C181.67 63.4572 183.716 74.8517 184.301 77.4812Z" fill="#171753"/>
<path d="M195.414 42.1294C195.414 37.7469 192.198 32.1957 188.396 30.1505C186.642 29.274 185.18 28.9819 183.718 29.5662C183.718 29.5662 179.332 31.3192 174.653 36.8704C169.975 42.4215 165.881 44.4667 165.881 44.4667L170.267 54.1082C170.267 54.1082 176.7 51.4787 182.548 50.6022C189.273 50.0178 193.367 46.5119 193.367 46.5119H193.66C194.829 45.6354 195.414 44.1745 195.414 42.1294Z" fill="#8989C7"/>
<path d="M169.974 55.2768L170.851 54.9847C170.851 54.9847 176.992 52.3552 182.84 51.7708C189.566 50.8943 193.952 47.3883 193.952 47.0962C195.706 46.2197 196.291 44.4667 196.291 42.1294C196.291 37.4547 193.075 31.6114 188.981 29.274C187.226 28.1054 185.472 27.8132 184.302 28.1054L183.717 28.3975C183.425 28.3975 179.039 30.1505 174.36 35.7017C169.682 40.9607 165.881 43.298 165.881 43.298L165.296 43.5902L169.974 55.2768ZM185.179 29.8584C186.057 29.8584 186.934 30.1505 187.811 30.7349C191.612 32.78 194.537 37.7469 194.537 42.1294C194.537 44.4667 193.659 45.3432 193.075 45.6353C193.075 45.6353 188.981 49.1413 182.548 49.7257C177.577 50.31 172.606 52.063 170.851 52.9395L167.05 44.4667C168.512 43.5902 171.729 41.2529 175.53 37.1625C179.331 32.4879 182.84 30.7349 183.717 30.1505H184.01C184.595 29.8584 184.887 29.8584 185.179 29.8584Z" fill="#171753"/>
<path d="M187.812 34.5325C187.812 34.5325 189.566 33.3639 190.443 31.6109C189.566 31.0266 188.981 30.4422 188.104 30.1501C186.35 29.2736 184.888 28.9814 183.426 29.5657C183.426 29.5657 180.501 30.7344 176.7 34.5325L176.993 35.9934C176.993 35.9934 181.086 37.4542 182.841 37.4542C184.303 37.4542 187.812 34.5325 187.812 34.5325Z" fill="#ECFFFE"/>
<path d="M182.84 38.3303C184.595 38.3303 187.519 35.993 188.396 35.1165C188.689 35.1165 190.443 33.6557 191.028 31.9027L191.32 31.3183L190.735 31.0262C190.151 30.4418 189.273 29.8575 188.689 29.2732C186.934 28.3967 185.472 28.1045 184.01 28.3967L183.133 28.6888C183.133 28.6888 179.916 29.8575 176.115 33.6557L175.823 33.9478L176.407 36.5773H176.7C177.285 36.8695 181.086 38.3303 182.84 38.3303ZM189.273 31.6105C188.396 33.0713 187.227 33.6557 187.227 33.9478C185.765 35.4087 183.718 36.5773 183.133 36.5773C181.963 36.5773 179.332 35.7008 178.162 35.1165V34.5322C180.794 31.9027 183.133 30.734 184.01 30.4418H184.303C184.887 29.8575 186.349 29.8575 187.811 30.734C188.104 31.0262 188.689 31.3183 189.273 31.6105Z" fill="#171753"/>
<path d="M190.443 38.039C190.151 38.039 190.151 38.039 190.443 38.039C190.443 38.3311 189.858 42.4214 189.273 43.5901C188.689 45.0509 189.273 46.2196 189.566 47.0961C189.566 47.3883 189.858 47.6804 190.443 48.2648C192.49 47.3883 193.367 46.5118 193.367 46.5118H193.66C194.829 45.6353 195.414 44.1744 195.414 41.8371C195.414 39.4998 194.537 36.8703 193.075 34.533C193.075 36.8703 190.443 38.039 190.443 38.039Z" fill="#171753"/>
<path d="M190.15 49.4332L190.735 49.1411C192.782 47.9724 193.952 47.0959 193.952 47.0959C195.706 45.9272 196.291 44.4664 196.291 41.8369C196.291 39.4996 195.414 36.8701 193.952 34.2406L193.659 33.6562L192.197 33.9484V34.5327C192.197 35.9936 189.858 36.8701 189.858 37.1622L189.566 37.4544V38.0387C189.273 39.2074 188.688 42.4212 188.396 43.5899C187.811 45.0507 188.396 46.8037 188.688 47.6802C188.688 47.9724 188.981 48.2646 189.566 49.1411L190.15 49.4332ZM193.367 36.8701C193.952 38.6231 194.537 40.3761 194.537 41.8369C194.537 44.1742 193.659 45.0507 193.075 45.3429V45.6351C193.075 45.6351 192.197 46.5116 190.735 47.0959C190.443 47.0959 190.443 47.0959 190.443 47.0959C190.15 46.2194 189.858 45.0507 190.15 44.1742C190.443 42.7134 191.028 39.7917 191.028 38.6231C191.612 38.3309 192.49 37.7466 193.367 36.8701Z" fill="#171753"/>
<path d="M192.197 45.3432C192.197 40.0842 188.396 33.6566 184.01 31.0271C181.963 29.8584 179.916 29.5662 178.746 30.4427C178.746 30.4427 173.776 32.4879 167.927 38.9156C162.372 45.3432 157.401 47.9727 157.401 47.9727L162.664 59.6594C162.664 59.6594 170.267 56.4455 177.284 55.569C185.179 54.6925 189.858 50.6022 189.858 50.6022L190.15 50.31C191.612 49.4335 192.197 47.9727 192.197 45.3432Z" fill="#8989C7"/>
<path d="M162.371 60.8278L163.249 60.5356C163.249 60.5356 170.559 57.3218 177.577 56.4453C185.472 55.5688 190.443 51.4785 190.443 51.1863H190.735C192.197 50.3098 193.074 48.2646 193.074 45.343C193.074 39.7918 189.273 33.072 184.302 30.4425C182.255 29.2738 180.501 28.9817 179.039 29.2738L178.161 29.566C177.869 29.566 172.898 31.6112 167.05 38.331C161.494 44.7586 156.816 47.096 156.816 47.096L156.231 47.3881L162.371 60.8278ZM180.208 30.7347C181.085 30.7347 182.255 31.0268 183.425 31.6112C187.811 34.2407 191.32 40.3761 191.32 45.343C191.32 48.2646 190.443 49.1411 189.565 49.7255L189.273 50.0176C189.273 50.0176 184.594 54.108 176.992 54.9845C171.144 55.5688 165.295 57.9061 162.956 58.7826L158.278 48.5568C159.74 47.6803 163.833 44.7586 168.22 39.7918C172.606 34.5328 176.992 32.1955 178.161 31.6112L179.039 31.0268C179.331 31.0268 179.916 30.7347 180.208 30.7347Z" fill="#171753"/>
<path d="M184.01 31.0271C181.963 29.8584 179.916 29.5662 178.747 30.4427C178.747 30.4427 173.776 32.4879 167.928 38.9156C165.296 42.1294 162.664 44.1746 160.91 45.6354V46.804C160.91 46.804 161.495 47.9727 163.249 47.9727C164.711 48.2649 168.512 45.6354 168.512 45.6354C168.512 45.6354 174.653 42.7137 180.794 38.9156C186.642 35.1174 187.227 33.9487 187.227 33.9487C186.349 32.7801 185.18 31.9036 184.01 31.0271Z" fill="#ECFFFE"/>
<path d="M162.957 48.849C165.004 48.849 168.513 46.5116 168.805 46.5116C168.805 46.5116 174.946 43.59 181.086 39.7918C186.934 36.2858 187.812 34.825 188.104 34.2407L188.396 33.6563L188.104 33.072C186.934 31.9033 185.765 31.0268 184.595 30.4425C182.548 29.2738 180.794 28.9817 179.332 29.2738L178.455 29.566C178.162 29.566 173.191 31.6112 167.343 38.331C165.004 40.9605 162.665 43.2978 160.325 45.0508L160.033 45.343L159.74 47.096V47.3881C160.033 47.6803 161.203 48.849 162.957 48.849ZM186.057 33.9485C185.472 34.5328 183.718 35.9937 180.209 38.331C174.361 42.1291 168.22 45.0508 168.22 45.0508C166.758 45.9273 164.127 47.3881 163.249 47.3881C162.372 47.3881 162.08 47.096 161.787 46.8038V46.2195C164.127 44.1743 166.466 41.837 168.513 39.4997C172.899 34.2407 177.285 31.9033 178.455 31.319L179.039 31.0268C180.209 30.4425 181.963 30.7347 183.718 31.6112C184.595 32.4877 185.472 33.072 186.057 33.9485Z" fill="#171753"/>
<path d="M182.548 44.1748C178.746 46.22 171.144 49.4338 171.144 49.4338C171.144 49.4338 168.512 50.3103 167.635 50.6024C166.758 51.1868 167.343 54.4006 167.343 54.4006C167.343 54.4006 167.343 56.1536 167.635 57.6144C170.267 57.0301 173.776 55.8614 177.284 55.5693C185.179 54.6928 189.858 50.6024 189.858 50.6024L190.15 50.3103C191.612 49.4338 192.197 47.973 192.197 45.3435C192.197 43.0061 191.32 40.3766 190.15 38.0393C190.15 39.7923 186.349 41.8375 182.548 44.1748Z" fill="#171753"/>
<path d="M167.342 58.7831H167.635C171.144 57.6145 174.36 57.0301 176.992 56.738C185.472 55.5693 190.443 51.479 190.443 51.1868H190.735C192.197 50.3103 193.074 48.2652 193.074 45.3435C193.074 43.0062 192.489 40.3767 191.027 37.7472L190.735 37.1628L189.273 37.455V38.0393C189.273 39.5002 184.887 41.8375 182.255 43.2983C178.454 45.3435 171.144 48.5573 170.851 48.8495C169.974 49.1417 168.22 49.726 167.342 50.0182C165.88 50.6025 166.173 53.232 166.465 54.6928C166.465 54.6928 166.465 56.4458 166.757 57.9066V58.1988L167.342 58.7831ZM190.15 40.0845C191.027 41.8375 191.32 43.5905 191.32 45.3435C191.32 48.2652 190.443 49.1417 189.565 49.726L189.273 50.0182C189.273 50.0182 184.594 54.1085 176.992 54.985C174.36 55.2771 171.436 55.8615 168.22 57.0301C168.22 55.8615 168.22 54.985 168.22 54.985C167.927 53.5241 167.927 52.3555 168.22 52.0633C168.804 51.1868 170.559 50.6025 171.436 50.3103C171.728 50.0181 179.039 46.8043 183.132 44.7592C186.349 43.0062 188.981 41.5453 190.15 40.0845Z" fill="#171753"/>
<path d="M170.267 54.9846C169.682 51.4786 167.928 48.2648 165.296 45.9275C162.08 43.0058 158.863 42.1293 156.816 43.298C149.214 47.6805 140.149 45.051 136.055 43.298C134.886 42.7136 133.716 43.5901 133.716 44.7588C133.716 48.557 133.716 55.2768 133.716 55.2768C134.009 55.569 132.547 62.5809 132.547 62.5809L156.232 82.4482C156.524 82.7404 157.109 82.4482 157.109 82.1561C158.278 69.3008 165.296 64.3339 167.343 62.8731C168.22 63.1653 168.22 63.1653 168.22 63.1653L168.513 62.8731C170.267 61.7044 171.144 59.0749 170.267 54.9846Z" fill="#8989C7"/>
<path d="M157.108 83.9095C157.401 83.9095 157.401 83.9095 157.693 83.9095C158.278 83.6173 158.57 83.3252 158.57 82.7408C159.74 70.1777 166.465 65.503 168.512 64.3344L168.804 64.0422L169.097 63.75C171.144 62.2892 172.021 59.0754 171.144 54.985C170.266 51.479 168.512 47.9731 165.88 45.3436C162.664 42.1297 159.155 41.2532 156.523 42.7141C149.505 46.8044 141.026 44.4671 136.64 42.7141C135.762 42.4219 134.885 42.4219 134.3 43.0062C133.715 43.5906 133.131 44.1749 133.131 45.0514C133.131 53.5242 133.131 55.2772 133.131 55.8615C133.131 56.4459 132.546 59.9519 131.961 62.8735V63.4579L156.231 83.6173C156.523 83.6173 156.816 83.9095 157.108 83.9095ZM167.927 62.2892C167.927 62.2892 167.635 62.2892 167.927 62.2892C165.296 63.75 158.278 69.009 156.816 81.5722L134.008 62.5814C135.177 55.8615 134.885 55.5694 134.885 55.2772C134.885 55.2772 134.885 54.1085 134.885 45.0514C134.885 44.7592 134.885 44.4671 135.177 44.4671C135.47 44.4671 135.762 44.1749 135.762 44.4671C140.441 46.2201 149.505 48.8496 157.108 44.4671C158.863 43.2984 161.787 44.1749 164.418 46.8044C166.758 49.1417 168.512 52.0634 169.389 55.5694C169.974 58.7832 169.682 61.4127 167.927 62.2892Z" fill="#171753"/>
<path d="M165.005 45.9277C161.789 43.0061 158.572 42.1296 156.526 43.2982C148.923 47.6807 139.858 45.0512 135.765 43.2982C134.595 42.7139 133.425 43.5904 133.425 44.7591C133.425 48.5572 133.425 55.277 133.425 55.277C133.425 55.5692 132.548 61.9969 132.256 62.5812C138.981 66.0872 143.367 66.0872 143.367 66.0872L144.537 63.7499L151.262 58.4909C151.262 58.4909 154.186 55.277 158.865 52.6475C163.251 50.018 165.005 47.9729 165.59 46.512C165.883 46.8042 165.298 46.2199 165.005 45.9277Z" fill="#ECFFFE"/>
<path d="M144.243 67.5481L145.705 64.9186L152.43 59.6596C152.43 59.6596 155.354 56.4458 159.741 53.8163C163.542 51.479 165.881 49.4338 166.758 47.3886L167.051 46.8043L166.758 46.22C166.466 45.9278 166.174 45.3435 165.589 45.0513C162.372 41.8375 158.863 40.961 156.232 42.4218C149.214 46.5122 140.734 44.1748 136.348 42.4218C135.471 42.1297 134.593 42.1297 134.009 42.714C133.424 43.2983 132.839 43.8827 132.839 44.7592C132.839 53.232 132.839 54.985 132.839 55.5693C132.839 56.1536 132.254 59.6596 131.669 62.5813V63.1656L132.254 63.4578C139.272 67.256 143.366 67.2559 143.658 67.2559L144.243 67.5481ZM165.004 47.0965C164.127 48.8495 161.787 50.6025 158.863 52.3555C154.185 55.2771 151.261 58.1988 151.261 58.1988L144.243 63.75L143.366 65.503C142.196 65.503 138.687 64.9186 133.716 62.2891C134.886 55.8615 134.886 55.5693 134.593 55.2771C134.593 54.985 134.593 52.0633 134.593 45.0513C134.593 44.7592 134.593 44.467 134.886 44.467C135.178 44.467 135.471 44.1748 135.471 44.467C140.149 46.22 149.214 48.8495 156.816 44.467C158.571 43.2983 161.495 44.1748 164.127 46.8043C164.712 46.8043 164.712 47.0965 165.004 47.0965Z" fill="#171753"/>
<path d="M167.926 63.1657C168.218 63.1657 168.218 63.1657 168.218 63.1657L168.511 62.8736C170.265 61.7049 171.142 59.0754 170.265 54.9851C169.973 54.1086 169.68 52.9399 169.388 51.7712C169.388 51.7712 169.388 51.7712 169.096 51.7712C168.803 53.2321 167.926 54.1086 162.955 57.3224C157.692 60.5362 155.352 64.9187 155.06 65.2109L149.504 67.5482C149.504 68.1325 150.381 71.0542 150.381 71.6385C150.381 72.2229 153.89 78.3584 155.937 81.5722L156.522 82.1565C156.814 82.4487 157.399 82.1565 157.692 81.8644C158.861 69.5934 165.879 64.3344 167.926 63.1657Z" fill="#171753"/>
<path d="M157.108 83.6169C157.4 83.6169 157.4 83.6169 157.692 83.6169C158.277 83.3247 158.57 83.0326 158.57 82.4482C159.739 70.1773 166.172 65.5026 168.219 64.0418C168.511 64.0418 168.511 63.7496 168.511 63.7496L168.804 63.4574C170.851 61.9966 171.728 58.7828 170.851 54.6924C170.851 53.8159 170.558 52.6473 170.266 51.4786L169.974 50.8943L168.511 51.1865V52.063C168.511 52.9394 167.634 54.1081 162.956 57.0298C158.277 59.9514 155.645 64.0418 155.061 65.2104L149.213 67.5478V68.4243C149.797 70.4694 150.09 71.9302 150.09 72.5146C150.09 72.8067 150.09 73.3911 155.645 83.0326L155.353 82.7404L155.938 83.3247C156.23 83.6169 156.815 83.6169 157.108 83.6169ZM167.927 62.2888C167.927 62.2888 167.634 62.2888 167.927 62.2888L167.634 62.5809C165.587 63.7496 158.277 69.0086 157.108 81.8639H156.815C152.137 73.6832 151.552 72.5146 151.552 72.2224C151.552 71.6381 151.259 69.8851 150.967 68.4243L155.938 66.0869L156.23 65.7948C156.23 65.5026 158.862 61.4123 163.833 58.1984C166.757 56.1533 168.511 54.9846 169.389 54.1081C169.389 54.4003 169.681 54.9846 169.681 55.2768C170.266 58.4906 169.974 61.1201 168.219 61.9966L167.927 62.2888Z" fill="#171753"/>
<path d="M157.984 78.9418C157.984 66.0865 148.92 50.6016 138.101 44.4662C132.837 41.2523 127.866 40.9602 124.357 43.0053C124.357 43.0053 124.065 43.0053 124.065 43.2975L119.386 45.6348L119.971 47.0957C118.802 49.433 117.924 52.3546 117.924 56.1528C117.924 69.0081 126.989 84.4929 137.808 90.6284C141.025 92.3814 143.949 93.2579 146.58 93.2579L147.458 94.4266L152.429 91.7971C155.938 89.4597 157.984 85.0773 157.984 78.9418Z" fill="#8989C7"/>
<path d="M147.457 95.5955L152.721 92.3816C156.522 90.0443 158.861 85.0775 158.861 78.942C158.861 66.0867 149.797 50.0175 138.393 43.5899C133.129 40.6682 128.158 40.0839 124.357 41.8369L118.217 45.3429L119.094 47.0959C117.924 49.4332 117.047 52.647 117.047 56.153C117.047 69.0083 126.112 85.0775 137.516 91.5051C140.44 93.2581 143.364 94.1346 146.288 94.4268L147.457 95.5955ZM129.036 42.4212C131.667 42.4212 134.591 43.2977 137.516 45.0507C148.335 51.1862 157.107 66.3788 157.107 78.942C157.107 84.4931 155.352 88.8756 151.844 90.9208L147.75 93.2581L146.873 92.3816H146.58C143.948 92.3816 141.317 91.5051 138.393 89.7521C127.574 83.6167 118.801 68.424 118.801 55.8609C118.801 52.3549 119.386 49.7254 120.556 47.388L120.848 47.0959L120.263 45.9272L124.357 43.5899C125.819 42.7134 127.574 42.4212 129.036 42.4212Z" fill="#171753"/>
<path d="M147.458 61.4118L151.844 59.0745C148.335 52.939 143.364 47.3878 137.808 44.4662C132.545 41.2523 127.574 40.9602 124.065 43.0053C124.065 43.0053 123.773 43.0053 123.773 43.2975L119.679 45.6348V45.927L120.264 47.0957C119.094 49.433 118.217 52.3546 118.217 56.1528C118.217 61.704 119.971 67.8395 122.603 73.3906C124.942 74.5593 127.281 75.4358 128.743 75.4358C134.007 76.0201 137.808 73.6828 137.808 73.6828L147.458 61.4118Z" fill="#ECFFFE"/>
<path d="M130.206 76.0207C134.884 76.0207 138.101 73.9755 138.101 73.9755L138.393 73.6833L148.043 61.9967L153.014 59.075L152.429 58.1985C148.628 51.4787 143.364 46.2197 138.101 43.0059C132.837 40.0842 127.867 39.4999 124.065 41.2529L118.802 44.1746C118.217 44.4667 118.217 45.0511 118.509 45.6354L118.802 46.5119C117.632 48.8492 117.047 52.0631 117.047 55.569C117.047 61.1202 118.509 67.2557 121.726 73.099V73.3912H122.018C124.65 74.5598 126.989 75.4363 128.451 75.7285C129.036 76.0207 129.621 76.0207 130.206 76.0207ZM137.224 72.5147C136.639 72.8068 133.13 74.5598 128.744 74.2677C127.282 74.2677 125.527 73.3912 123.188 72.2225C120.556 66.6714 118.802 60.828 118.802 55.8612C118.802 52.3552 119.387 49.7257 120.556 47.3884L120.849 47.0962L120.264 45.9276L124.358 43.5902C127.867 41.8372 132.545 42.4216 137.224 45.0511C142.195 47.9727 146.873 52.6474 150.382 58.7829L146.581 61.1202L137.224 72.5147Z" fill="#171753"/>
<path d="M157.984 78.9421C157.984 74.5596 157.107 70.1771 155.06 65.5024L150.674 67.8398L135.469 73.6831C135.469 73.6831 131.668 76.0204 130.79 76.6048C130.498 76.8969 130.206 80.1108 129.913 83.9089C132.252 86.5384 135.177 88.8757 138.101 90.6287C141.317 92.3817 144.241 93.2582 146.873 93.2582L147.75 94.4269L152.429 91.7974C155.938 89.4601 157.984 85.0776 157.984 78.9421Z" fill="#171753"/>
<path d="M147.457 95.5958L152.721 92.3819C156.522 90.0446 158.861 85.0778 158.861 78.9423C158.861 74.5598 157.984 69.8851 155.937 65.2105L155.645 64.334L150.381 67.2556L135.176 72.8068C134.884 73.099 131.083 75.1441 130.498 75.7285C130.205 76.0206 129.62 76.3128 129.036 83.617V83.9091L129.328 84.2013C131.96 87.1229 134.884 89.4603 137.516 90.9211C140.44 92.6741 143.364 93.5506 146.288 93.8428L147.457 95.5958ZM154.768 66.6713C156.23 70.7616 157.107 75.1441 157.107 78.6501C157.107 84.2013 155.352 88.5838 151.844 90.6289L147.75 92.9663L146.873 92.0898H146.58C143.949 92.0898 141.317 91.2133 138.393 89.4603C135.761 87.9994 133.129 85.9543 130.79 83.3248C131.083 78.6501 131.375 77.4815 131.667 76.8971C132.545 76.3128 135.176 74.852 136.053 74.2676L151.259 68.7165L154.768 66.6713Z" fill="#171753"/>
<path d="M119.484 78.1288C111.652 64.5744 111.651 49.9237 119.483 45.4056C127.315 40.8876 140.013 48.213 147.846 61.7675C155.678 75.322 155.678 89.9727 147.847 94.4907C140.015 99.0088 127.317 91.6833 119.484 78.1288Z" fill="#8989C7"/>
<path d="M142.488 96.472C144.535 96.472 146.582 95.8876 148.044 95.0111C152.137 92.6738 154.477 87.707 154.477 81.2793C154.477 68.424 145.412 52.3549 134.008 45.9272C128.452 42.7134 123.189 42.4212 119.095 44.7586C115.001 47.0959 112.662 52.0627 112.662 58.4904C112.662 71.3457 121.727 87.4148 133.131 93.8425C136.347 95.5955 139.564 96.472 142.488 96.472ZM124.651 45.0507C127.283 45.0507 130.207 45.9272 133.131 47.6802C143.95 53.8157 152.722 69.0084 152.722 81.5715C152.722 87.4148 150.675 91.7973 147.166 93.8425C143.657 95.8876 138.979 95.3033 134.008 92.3817C123.189 85.954 114.417 70.7614 114.417 58.1982C114.417 52.3549 116.463 47.9724 119.972 45.9272C121.434 45.3429 122.896 45.0507 124.651 45.0507Z" fill="#171753"/>
<path d="M148.044 78.65C148.336 88.5837 141.611 92.674 133.423 87.7072C125.236 83.0325 118.218 71.0537 118.218 61.1201C117.925 51.1864 124.651 47.0961 132.838 52.0629C141.026 57.0297 148.044 68.7164 148.044 78.65Z" fill="#8989C7"/>
<path d="M139.855 90.6287C141.317 90.6287 142.779 90.3365 144.241 89.46C147.458 87.707 149.212 83.6167 148.92 78.6499C148.627 68.424 141.609 56.4452 133.13 51.4784C129.036 49.1411 124.942 48.5567 121.726 50.6019C118.509 52.3549 116.755 56.4452 117.047 61.4121C117.34 71.6379 124.357 83.6167 132.837 88.5835C135.469 89.7522 137.808 90.6287 139.855 90.6287ZM147.165 78.6499C147.165 83.3245 145.996 86.5383 143.364 87.9992C141.025 89.46 137.516 89.1678 134.007 87.1227C125.819 82.448 119.386 71.0535 119.094 61.4121C119.094 56.7374 120.264 53.5236 122.895 52.0627C125.235 50.6019 128.743 50.8941 132.252 52.9392C140.44 57.3217 147.165 69.0084 147.165 78.6499Z" fill="#171753"/>
<path d="M132.838 52.0629C129.621 50.3099 126.697 49.7256 124.358 50.3099C122.019 52.0629 120.557 55.5689 120.557 60.2436C120.849 70.1772 127.574 81.8639 135.762 86.8307C138.978 88.5837 141.902 89.168 144.242 88.5837C146.581 86.8307 148.043 83.3247 148.043 78.6501C148.043 68.7164 141.025 56.7376 132.838 52.0629Z" fill="#8989C7"/>
<path d="M142.487 89.46C143.072 89.46 143.949 89.46 144.534 89.1679H144.827C147.751 87.1227 149.213 83.3245 148.92 78.6499C148.628 68.4241 141.61 56.4453 133.13 51.4784C129.914 49.7254 126.697 48.8489 124.066 49.7254H123.773C120.849 51.7706 119.387 55.5688 119.679 60.2434C119.972 70.4692 126.99 82.4481 135.47 87.4149C137.809 88.8757 140.148 89.46 142.487 89.46ZM143.949 87.4149C141.61 87.9992 139.271 87.4149 136.347 85.6619C128.159 80.9872 121.726 69.5927 121.434 59.9513C121.434 55.8609 122.604 52.6471 124.65 50.8941C126.99 50.3098 129.329 50.8941 132.253 52.6471C140.44 57.3218 146.873 68.7162 147.166 78.3577C147.458 82.7402 146.289 85.954 143.949 87.4149Z" fill="#171753"/>
<path d="M145.412 67.2556C142.78 60.8279 138.102 54.9846 132.839 52.0629C129.622 50.3099 126.698 49.7256 124.359 50.3099C122.019 52.0629 120.557 55.5689 120.557 60.2436C120.557 67.2556 124.066 74.8519 129.037 80.6952C129.037 80.4031 129.622 66.9634 145.412 67.2556Z" fill="#171753"/>
<path d="M129.914 83.0324V80.6951C129.914 80.1107 130.499 68.4241 145.119 68.4241C145.412 68.4241 145.412 68.4241 145.704 68.4241H147.166L146.581 67.2554C143.657 60.5356 138.686 54.6923 133.423 51.4784C130.206 49.7254 126.99 48.8489 124.358 49.7254H124.066C121.142 51.7706 119.68 55.5688 119.972 60.2434C119.972 67.2554 123.481 75.1439 128.452 81.2794L129.914 83.0324ZM144.242 66.3789C132.546 66.6711 129.329 74.5596 128.452 78.3577C124.358 72.8066 121.726 65.7946 121.434 59.9513C121.434 55.8609 122.604 52.6471 124.651 50.8941C126.99 50.3098 129.329 50.8941 132.253 52.6471C136.932 55.5688 141.318 60.5356 144.242 66.3789Z" fill="#171753"/>
<path d="M132.253 65.503L136.639 73.0993L145.996 68.7169C144.534 65.2109 142.487 61.7049 140.148 58.7832L132.253 65.503Z" fill="#8989C7"/>
<path d="M136.054 74.2672L147.166 69.0082L146.874 68.1317C145.412 64.3335 143.365 60.8275 141.025 57.9059L140.441 57.3215L131.084 65.21L136.054 74.2672ZM144.827 68.1317L136.932 71.9298L133.423 65.7944L140.441 59.951C141.903 62.2884 143.657 65.21 144.827 68.1317Z" fill="#171753"/>
<path d="M136.639 73.0991L145.996 68.7166C145.411 66.9636 144.534 65.5028 143.657 63.7498L136.639 68.1322L135.469 68.7166L134.3 69.0087L136.639 73.0991Z" fill="#171753"/>
<path d="M136.054 74.2676L147.166 69.0086L146.874 68.1321C146.289 66.3791 145.412 64.6261 144.534 63.1653L143.95 62.2888L134.885 67.84L132.838 68.7165L136.054 74.2676ZM144.827 68.1321L136.932 71.9303L135.47 69.593H135.762L136.932 69.0086L143.365 64.9183C143.95 66.087 144.534 66.9635 144.827 68.1321Z" fill="#171753"/>
<path d="M137.518 71.0541C137.518 69.0089 136.056 66.6716 134.301 65.7951C133.424 65.2108 132.839 65.2108 132.254 65.5029C131.962 65.7951 131.669 65.7951 131.669 66.3794C130.792 67.8403 131.377 70.1776 131.377 70.1776H131.962C131.377 70.1776 132.547 72.2228 132.547 72.2228C134.009 73.3914 135.178 73.6836 135.763 73.6836C136.056 73.6836 136.348 73.6836 136.64 73.3914C137.225 72.5149 137.518 71.9306 137.518 71.0541Z" fill="#ECFFFE"/>
<path d="M135.47 74.2675C135.763 74.2675 135.763 74.2675 135.763 74.2675C136.348 74.2675 136.64 73.9753 137.225 73.6831L137.517 73.391C137.81 73.0988 138.395 72.2223 138.395 71.0536C138.395 68.7163 136.932 66.0868 134.886 64.9182C134.008 64.3338 132.839 64.3338 131.962 64.626C131.669 64.9182 131.084 65.2103 131.084 65.7947C129.915 67.5477 130.5 69.885 130.792 70.1771L131.084 70.7615H131.669C131.669 71.0536 131.962 71.638 132.546 72.5145L131.962 72.8066C133.131 73.6831 134.301 74.2675 135.47 74.2675ZM133.131 66.0868C133.424 66.0868 133.716 66.0868 134.008 66.379C135.47 67.2555 136.64 69.3007 136.64 71.0536C136.64 71.638 136.64 71.9301 136.348 72.2223L136.055 72.5145C135.47 72.5145 134.593 72.5145 133.424 71.3458C133.424 71.0536 133.131 71.0536 133.131 70.7615H133.716L132.839 69.3007L131.962 69.0085C131.962 68.4242 131.962 67.2555 132.254 66.6712C132.254 66.379 132.546 66.379 132.546 66.379L133.131 66.0868C132.839 66.0868 132.839 66.0868 133.131 66.0868Z" fill="#171753"/>
<path d="M134.008 71.3459C134.008 72.2224 133.423 72.8067 132.546 72.2224C131.669 71.6381 131.084 70.4694 131.084 69.5929C131.084 68.7164 131.669 68.1321 132.546 68.7164C133.423 69.0086 134.008 70.4694 134.008 71.3459Z" fill="#ECFFFE"/>
<path d="M133.13 73.3911C133.423 73.3911 133.715 73.3911 134.008 73.099C134.592 72.8068 134.885 72.2225 134.885 71.346C134.885 69.8851 134.008 68.4243 132.838 67.84C132.253 67.5478 131.376 67.5478 130.791 67.84C130.206 68.1321 129.914 68.7165 129.914 69.593C129.914 71.0538 130.791 72.5146 131.961 73.099C132.545 73.099 132.838 73.3911 133.13 73.3911ZM131.961 69.3008C132.545 69.593 133.13 70.7616 133.13 71.346V71.6381C133.13 71.6381 133.13 71.6381 132.838 71.6381C132.253 71.0538 131.961 70.1773 131.961 69.3008C131.961 69.3008 131.961 69.593 131.961 69.3008Z" fill="#171753"/>
<path d="M185.18 61.7045C185.18 56.1533 186.642 53.816 186.934 53.5238C191.613 51.7708 192.782 48.8491 193.075 47.6805L194.244 47.0961C196.583 45.3432 196.291 42.1293 196.291 41.8372L194.537 42.1293C194.537 42.1293 194.829 44.4667 193.075 45.6353L191.32 46.804V47.0961C191.32 47.0961 190.735 50.0178 186.057 51.7708L185.764 52.063C185.764 52.3551 183.425 54.4003 183.425 61.7045H185.18Z" fill="#8989C7"/>
<path d="M177.284 56.4452C182.255 55.5687 187.518 53.2313 187.811 53.2313L186.933 51.7705C186.933 51.7705 181.67 54.1078 176.991 54.9843L177.284 56.4452Z" fill="#8989C7"/>
<path d="M82.03 100.864L142.451 135.073C144.055 135.959 145.303 135.073 145.303 132.946C145.303 130.819 144.055 128.515 142.451 127.629L82.03 93.2428C80.4259 92.3565 79.1783 93.2428 79.1783 95.3697C79.1783 97.4967 80.6042 99.8009 82.03 100.864Z" fill="#8989C7"/>
<path d="M142.451 137.732C142.807 137.732 143.163 137.732 143.52 137.555C144.233 137.023 144.768 136.137 144.768 134.896C144.768 132.592 143.342 130.11 141.559 129.047L81.1384 94.6609C80.2472 94.1291 79.3561 94.1291 78.8214 94.4836C77.9302 95.0154 77.5738 95.9016 77.5738 97.3196C77.5738 99.6238 78.9996 102.105 80.7819 103.169L141.025 137.377C141.381 137.732 141.916 137.732 142.451 137.732Z" fill="#171753"/>
<path d="M119.505 171.758L59.1172 136.685L59.2509 174.631L119.639 209.704L119.505 171.758Z" fill="#ECFFFE"/>
<path d="M101.045 222.332V222.933H101.914V224.47L104.255 225.806C105.258 226.407 106.529 226.541 107.933 226.274L101.045 222.332Z" fill="white"/>
<path d="M101.045 213.313V222.332L107.866 226.34C108.735 226.14 109.672 225.806 110.608 225.271C112.213 224.336 113.684 223 114.955 221.463L101.045 213.313Z" fill="white"/>
<path d="M114.784 221.724L54.6348 186.324C57.3766 182.983 59.2491 178.508 59.2491 174.633L119.637 209.706C119.637 213.58 117.526 218.383 114.784 221.724Z" fill="#8989C7"/>
<path d="M60.3856 176.569C60.3188 177.438 60.185 178.373 59.9844 179.242L117.43 212.577C117.63 211.642 117.764 210.774 117.831 209.905L60.3856 176.569Z" fill="#4D3D8D"/>
<path d="M100.377 210.841V211.308H101.046V214.515L112.615 221.196C113.284 220.461 113.886 219.726 114.421 218.924L100.377 210.841Z" fill="#4D3D8D"/>
<path d="M90.7471 208.302V207.233H94.1577L56.9755 185.655C56.4405 186.457 55.8387 187.259 55.1699 187.927L90.2121 208.302H90.7471V208.302Z" fill="#4D3D8D"/>
<path d="M59.3834 180.979C59.0491 181.914 58.6478 182.783 58.1797 183.651L115.692 216.987C116.16 216.118 116.561 215.25 116.895 214.315L59.3834 180.979Z" fill="#4D3D8D"/>
<path d="M86.3332 210.708H87.6038V209.572H88.0719L53.4979 189.53C52.8291 190.065 52.1604 190.532 51.4916 190.933C51.4248 191 51.3579 191 51.291 191.067L86.3332 211.376V210.708Z" fill="#4D3D8D"/>
<path d="M101.047 217.121V219.926L108.804 224.402C108.871 224.336 108.938 224.336 109.005 224.269C109.674 223.868 110.342 223.4 111.011 222.866L101.047 217.121Z" fill="#4D3D8D"/>
<path d="M84.9294 214.515L46.0754 191.935C45.741 191.801 45.4066 191.668 45.0723 191.534L84.9294 214.649V214.515Z" fill="#4D3D8D"/>
<path d="M101.916 224.336V224.47L102.585 224.87C102.852 225.004 103.254 225.204 103.588 225.271L101.916 224.336Z" fill="#4D3D8D"/>
<path d="M101.047 221.663V222.933H101.916V223.667L104.992 225.471C105.661 225.471 106.33 225.338 106.999 225.137L101.047 221.663Z" fill="#4D3D8D"/>
<path d="M67.5957 146.973V161.978L81.6453 170.093L81.5942 155.088L67.5957 146.973Z" fill="#171753"/>
<path d="M90.791 162.846L111.176 174.636V172.237L90.791 160.448V162.846Z" fill="#4D3D8D"/>
<path d="M90.1781 160.089L83.6387 156.262V158.66L90.1781 162.488V160.089Z" fill="#4D3D8D"/>
<path d="M98.7617 180.045L111.176 187.241V184.842L98.7617 177.646V180.045Z" fill="#4D3D8D"/>
<path d="M98.3518 177.391L88.5938 171.726V174.124L98.3518 179.789V177.391Z" fill="#4D3D8D"/>
<path d="M88.1345 171.471L83.6387 168.868V171.267L88.1345 173.87V171.471Z" fill="#4D3D8D"/>
<path d="M106.373 180.3L111.175 183.056V180.657L106.373 177.901V180.3Z" fill="#4D3D8D"/>
<path d="M105.708 177.493L93.5488 170.399V172.797L105.708 179.892V177.493Z" fill="#4D3D8D"/>
<path d="M92.8343 169.99L86.959 166.622V169.021L92.8343 172.389V169.99Z" fill="#4D3D8D"/>
<path d="M85.8866 166.01L83.6387 164.683V167.082L85.8866 168.409V166.01Z" fill="#4D3D8D"/>
<path d="M96.2578 167.796L83.6387 160.498V162.846L96.2578 170.195V167.796Z" fill="#4D3D8D"/>
<path d="M105.402 175.503L111.175 178.872V176.473L105.402 173.104V175.503Z" fill="#4D3D8D"/>
<path d="M104.739 172.748L96.9219 168.206V170.604L104.739 175.147V172.748Z" fill="#4D3D8D"/>
<path d="M86.039 174.278L67.5957 163.56L67.6468 165.959L86.039 176.676V174.278Z" fill="#4D3D8D"/>
<path d="M71.4782 173.972L67.6465 171.778V174.176L71.4782 176.371V173.972Z" fill="#4D3D8D"/>
<path d="M79.0391 178.361V180.759L93.5485 189.18V186.782L79.0391 178.361Z" fill="#4D3D8D"/>
<path d="M93.9062 187.037V189.385L96.6651 191.018V188.619L93.9062 187.037Z" fill="#4D3D8D"/>
<path d="M71.7852 174.176V176.574L78.529 180.504V178.105L71.7852 174.176Z" fill="#4D3D8D"/>
<path d="M83.433 176.88L76.7402 173.052V175.4L83.433 179.279V176.88Z" fill="#4D3D8D"/>
<path d="M106.781 192.856L111.226 195.407V193.06L106.781 190.457V192.856Z" fill="#4D3D8D"/>
<path d="M106.374 190.202L83.8945 177.188V179.586L106.374 192.601V190.202Z" fill="#4D3D8D"/>
<path d="M76.2806 172.746L67.6465 167.745V170.144L76.2806 175.145V172.746Z" fill="#4D3D8D"/>
<path d="M81.184 98.5413C77.3053 100.813 73.6272 104.086 70.4841 107.961C63.7298 116.245 59.1155 127.201 59.1824 136.754L119.57 171.827C119.57 162.274 124.117 151.318 130.872 143.034C134.015 139.159 137.693 135.885 141.572 133.614L81.184 98.5413Z" fill="#ECFFFE"/>
<path d="M90.6344 112.173C88.4252 113.745 86.4504 115.952 84.8438 118.459L115.069 136.014C116.675 133.506 118.684 131.299 120.859 129.728L90.6344 112.173Z" fill="#171753"/>
<path d="M100.847 220.526V215.181C100.847 212.108 99.7767 209.97 98.038 208.968L37.6504 173.896C39.3891 174.898 40.4591 177.035 40.4591 180.108V185.453C40.4591 188.526 41.5291 190.664 43.3347 191.733L104.46 227.101C102.654 226.033 100.847 223.599 100.847 220.526Z" fill="#4D3D8D"/>
<path d="M60.3876 256L0 220.994V220.059L60.3876 255.132V256Z" fill="#4D3D8D"/>
<path d="M86.5505 212.412C86.684 212.212 86.8844 212.079 87.0179 211.946C87.0847 211.879 87.1515 211.812 87.2183 211.746C87.3519 211.613 87.4854 211.479 87.619 211.346C87.6858 211.279 87.7526 211.213 87.8193 211.146C87.9529 211.013 88.1533 210.879 88.2868 210.746C88.3536 210.68 88.3536 210.68 88.4204 210.613C88.6207 210.413 88.8211 210.28 89.0214 210.146C89.0882 210.08 89.155 210.08 89.155 210.013C89.2886 209.88 89.4221 209.813 89.6225 209.68C89.6893 209.613 89.7561 209.613 89.8228 209.547C89.9564 209.413 90.09 209.347 90.2235 209.28C90.2903 209.213 90.3571 209.213 90.4239 209.147C90.6242 209.013 90.8246 208.88 91.0249 208.747C91.1585 208.68 91.3589 208.547 91.4924 208.48C91.5592 208.48 91.5592 208.414 91.626 208.414C91.7596 208.347 91.8931 208.28 91.9599 208.214C92.0267 208.214 92.0267 208.147 92.0935 208.147C92.227 208.08 92.3606 208.014 92.4942 207.947H92.561C92.6945 207.88 92.8949 207.814 93.0284 207.747C93.0952 207.747 93.0952 207.747 93.162 207.681C93.2956 207.614 93.3624 207.614 93.4959 207.547C93.5627 207.547 93.5627 207.547 93.6295 207.481C93.7631 207.481 93.8966 207.414 93.9634 207.414H94.0302C94.097 207.414 94.097 207.414 94.1638 207.414C94.2973 207.414 94.4309 207.347 94.6312 207.347C94.698 207.347 94.7648 207.347 94.8316 207.347C94.9652 207.347 95.0987 207.347 95.1655 207.347C95.2323 207.347 95.2991 207.347 95.3659 207.347C95.4994 207.347 95.633 207.347 95.7666 207.347C95.8333 207.347 95.9001 207.347 95.9001 207.347C96.1005 207.347 96.234 207.347 96.3676 207.414H96.4344C96.568 207.414 96.7015 207.481 96.8351 207.481C96.9019 207.481 96.9687 207.481 96.9687 207.547C97.1022 207.547 97.169 207.614 97.3026 207.614C97.3694 207.614 97.4361 207.681 97.4361 207.681C97.5697 207.747 97.6365 207.747 97.7701 207.814C97.8368 207.814 97.8368 207.88 97.9036 207.88C98.0372 207.947 98.1708 208.014 98.3043 208.08L38.0657 173.026C37.9322 172.959 37.7986 172.893 37.665 172.826C37.5983 172.826 37.5983 172.759 37.5315 172.759C37.3979 172.693 37.3311 172.693 37.1976 172.626C37.1308 172.626 37.064 172.559 37.064 172.559C36.9304 172.559 36.8636 172.493 36.7301 172.493C36.6633 172.493 36.5965 172.493 36.5965 172.426C36.4629 172.426 36.3294 172.359 36.1958 172.359H36.129C35.9955 172.359 35.7951 172.293 35.6615 172.293C35.5948 172.293 35.528 172.293 35.528 172.293C35.3944 172.293 35.2608 172.293 35.1273 172.293C35.0605 172.293 34.9937 172.293 34.9269 172.293C34.7934 172.293 34.6598 172.293 34.593 172.293C34.5262 172.293 34.4594 172.293 34.3927 172.293C34.2591 172.293 34.1255 172.359 33.9252 172.359H33.8584H33.7916C33.658 172.359 33.5245 172.426 33.4577 172.426C33.3909 172.426 33.3909 172.426 33.3241 172.493C33.1906 172.493 33.1238 172.559 32.9902 172.626C32.9234 172.626 32.9234 172.626 32.8566 172.693C32.7231 172.759 32.5227 172.826 32.3892 172.893H32.3224C32.1888 172.959 32.0552 173.026 31.9217 173.092C31.8549 173.092 31.8549 173.159 31.7881 173.159C31.6545 173.226 31.521 173.292 31.4542 173.359C31.3874 173.359 31.3874 173.426 31.3206 173.426C31.1871 173.492 30.9867 173.626 30.8531 173.692C30.6528 173.826 30.4524 173.959 30.2521 174.092C30.1853 174.159 30.1185 174.159 30.0517 174.225C29.9182 174.292 29.7846 174.425 29.651 174.492C29.5843 174.559 29.5175 174.559 29.4507 174.625C29.3171 174.759 29.1168 174.825 28.9832 174.958C28.9164 175.025 28.8496 175.025 28.8496 175.092C28.6493 175.225 28.4489 175.425 28.2486 175.558C28.1818 175.625 28.1818 175.625 28.115 175.692C27.9815 175.825 27.7811 175.958 27.6475 176.091C27.5808 176.158 27.514 176.225 27.4472 176.291C27.3136 176.425 27.1801 176.558 27.0465 176.691C26.9797 176.758 26.9129 176.824 26.8461 176.891C26.7126 177.024 26.5122 177.224 26.3787 177.358L26.3119 177.424C26.1115 177.624 25.978 177.824 25.7776 178.024C25.7776 178.024 25.7776 178.024 25.7108 178.091C22.5052 181.956 20.3682 187.154 20.3682 191.686C20.3682 200.816 13.957 212.012 5.94296 216.611L0.132812 219.943L60.4382 254.931L66.2483 251.599C74.1955 247 80.6735 235.871 80.6735 226.674C80.6735 222.142 82.8106 216.944 86.083 213.079C86.2833 212.879 86.4169 212.679 86.6172 212.479C86.4837 212.412 86.4837 212.412 86.5505 212.412Z" fill="white"/>
<path d="M39.2851 174.571C37.7432 173.943 35.6873 174.171 33.46 175.427C31.918 176.282 30.4903 177.537 29.291 179.078L45.1103 188.263C46.3667 186.78 47.7944 185.524 49.2793 184.612C51.5065 183.357 53.5054 183.071 55.1044 183.756L39.2851 174.571Z" fill="#171753"/>
<path d="M25.813 180.376C25.278 181.111 24.8099 181.912 24.3418 182.714L81.8538 216.117C82.3219 215.315 82.79 214.513 83.325 213.778L25.813 180.376Z" fill="#8989C7"/>
<path d="M25.7019 198.981C25.7019 199.624 25.5946 200.267 25.541 200.963L71.656 227.746C71.7632 227.103 71.8168 226.407 71.8168 225.764L25.7019 198.981Z" fill="#171753"/>
<path d="M22.0009 188.927C21.8002 189.795 21.6665 190.597 21.5996 191.399L79.1116 224.801C79.1785 224 79.3122 223.131 79.5129 222.329L22.0009 188.927Z" fill="#8989C7"/>
<path d="M23.4738 184.518C23.0726 185.32 22.8051 186.188 22.4707 187.057L79.9827 220.459C80.2502 219.591 80.5846 218.789 80.9858 217.921L23.4738 184.518Z" fill="#8989C7"/>
<path d="M25.2725 202.517C25.1117 203.214 24.9508 203.857 24.7363 204.553L53.9067 221.48C54.1212 220.784 54.2821 220.141 54.443 219.444L25.2725 202.517Z" fill="#8989C7"/>
<path d="M20.4469 212.694C20.0179 213.283 19.5353 213.819 19.0527 214.355L33.3698 222.658C33.8524 222.122 34.2814 221.586 34.764 220.997L20.4469 212.694Z" fill="#8989C7"/>
<path d="M22.5382 209.48C22.1628 210.123 21.7875 210.766 21.4121 211.355L50.5825 228.282C51.0115 227.693 51.3868 227.05 51.7086 226.408L22.5382 209.48Z" fill="#8989C7"/>
<path d="M24.147 206.052C23.8789 206.748 23.6108 207.391 23.2891 208.034L52.4595 224.961C52.7812 224.318 53.0493 223.622 53.3174 222.979L24.147 206.052Z" fill="#8989C7"/>
<path d="M17.9808 215.533C17.4982 216.016 16.962 216.498 16.4258 216.926L62.5407 243.71C63.077 243.281 63.5596 242.799 64.0958 242.317L17.9808 215.533Z" fill="#8989C7"/>
<path d="M61.3062 244.566C60.9845 244.78 59.7512 245.53 59.4294 245.745L13.3145 218.961C13.6362 218.747 14.8695 217.997 15.1912 217.783L61.3062 244.566Z" fill="#8989C7"/>
<path d="M59.9858 185.72C59.5177 185.52 58.9827 185.386 58.3809 185.319L94.7605 206.43C95.2955 206.496 95.8305 206.63 96.3655 206.83L59.9858 185.72Z" fill="#171753"/>
<path d="M50.0888 189.127C49.4869 189.728 48.8182 190.396 48.2832 191.064L67.3424 202.221C67.9443 201.553 68.5462 200.885 69.148 200.283L50.0888 189.127Z" fill="#8989C7"/>
<path d="M53.6332 186.522C53.4994 186.589 53.3657 186.655 53.2319 186.789C52.6969 187.123 52.1619 187.457 51.627 187.858L88.0066 208.968C88.5416 208.568 89.0766 208.233 89.6116 207.899C89.7454 207.833 89.8791 207.766 90.0129 207.632L53.6332 186.522Z" fill="#8989C7"/>
<path d="M57.0448 185.385C56.443 185.452 55.7742 185.585 55.1055 185.853L91.4851 206.963C92.1539 206.696 92.7558 206.562 93.4245 206.496L57.0448 185.385Z" fill="#171753"/>
<path d="M124.922 148.91C124.721 149.178 124.587 149.445 124.387 149.779C124.119 150.247 123.785 150.781 123.517 151.315L66.3398 117.913C66.6073 117.378 66.8748 116.911 67.2092 116.443C67.343 116.176 67.5436 115.909 67.7442 115.641L124.922 148.91Z" fill="#8989C7"/>
<path d="M122.581 153.186C122.447 153.386 122.38 153.653 122.246 153.854C121.979 154.455 121.711 155.056 121.444 155.658L64.1992 122.322C64.4667 121.72 64.7342 121.119 65.0017 120.518C65.1355 120.317 65.2023 120.05 65.3361 119.85L122.581 153.186Z" fill="#8989C7"/>
<path d="M94.5612 141.963C94.4943 142.096 94.4275 142.297 94.3606 142.43C94.0931 143.165 93.8256 143.833 93.625 144.568L62.6621 126.531C62.8627 125.796 63.1302 125.128 63.3977 124.393C63.4646 124.259 63.5315 124.059 63.5984 123.925L94.5612 141.963Z" fill="#8989C7"/>
<path d="M119.237 162.271C119.237 162.338 119.17 162.405 119.17 162.538C118.969 163.407 118.769 164.208 118.635 165.077L61.3906 131.674C61.5244 130.806 61.725 130.004 61.9256 129.136C61.9256 129.069 61.9925 129.002 61.9925 128.868L119.237 162.271Z" fill="#8989C7"/>
<path d="M118.301 166.947C118.167 167.883 118.1 168.885 118.1 169.82C118.1 169.887 118.1 169.954 118.1 169.954L60.8555 136.551C60.8555 136.484 60.8555 136.417 60.8555 136.417C60.8555 135.482 60.9892 134.547 61.0561 133.545L118.301 166.947Z" fill="#171753"/>
<path d="M141.572 133.612V134.481C129.802 141.295 120.239 157.796 120.306 171.29L120.44 209.236C120.44 215.449 116.093 222.998 110.676 226.071C105.259 229.211 100.913 226.672 100.846 220.459V215.115C100.846 208.969 96.432 206.497 91.0821 209.57C85.7321 212.643 81.3853 220.192 81.3853 226.271C81.3853 235.891 74.631 247.716 66.2048 252.526L60.3867 255.866V254.997L66.2048 251.657C74.1628 247.048 80.6497 235.891 80.6497 226.672C80.6497 220.058 85.3309 211.975 91.0821 208.635C96.8333 205.294 101.581 207.966 101.581 214.58V219.925C101.581 225.603 105.661 227.941 110.609 225.069C115.558 222.196 119.637 215.248 119.571 209.503L119.437 171.558C119.504 157.796 129.334 140.627 141.572 133.612Z" fill="#171753"/>
<path d="M134.946 87.6441L113.248 75.1096C112.001 74.3766 110.902 74.3033 110.022 74.7431L109.142 75.2562L102.911 79.0678C102.911 79.0678 102.838 79.1411 102.911 79.1411C103.205 79.8009 106.137 85.9581 106.43 87.0577C106.577 87.5708 107.456 92.262 108.556 97.6863V100.398C108.556 101.938 109.142 103.624 110.022 105.163C111.122 110.88 112.075 115.718 112.075 115.865L115.3 123.415C115.3 123.488 115.373 123.488 115.447 123.488L122.777 119.237C122.777 119.237 122.851 119.164 122.777 119.164L122.264 117.624C122.118 116.891 122.044 116.085 121.971 115.205L131.354 125.614H131.427L138.245 121.363L138.318 121.289C139.124 120.776 139.638 119.75 139.638 118.284V95.8538C139.638 92.8484 137.512 89.1834 134.946 87.6441Z" fill="#4D3D8D"/>
<path d="M131.354 126.348C131.207 126.348 131.06 126.274 130.914 126.128L122.63 116.892C122.703 117.112 122.703 117.405 122.777 117.625L123.29 119.091C123.363 119.384 123.29 119.677 122.997 119.824L115.446 124.222L115.153 124.148C115.006 124.075 114.86 124.002 114.786 123.782L111.561 116.085C111.561 115.939 110.608 111.101 109.508 105.383C108.555 103.697 108.042 102.012 108.042 100.472V97.7601C106.43 89.4771 105.99 87.4247 105.99 87.2047C105.77 86.3251 103.717 81.8538 102.471 79.3615C102.325 79.0683 102.471 78.7751 102.691 78.6285L109.802 74.3038C110.901 73.7907 112.147 73.9373 113.54 74.6703L135.239 87.2047C137.951 88.8174 140.224 92.629 140.224 95.8543V118.578C140.224 120.19 139.71 121.363 138.684 122.023C138.611 122.096 138.611 122.096 138.538 122.096L131.72 126.274C131.573 126.348 131.5 126.348 131.354 126.348ZM121.384 113.96L131.5 125.175L138.024 121.143L138.391 121.51L138.098 121.07C138.831 120.63 139.197 119.75 139.197 118.504V95.8543C139.197 93.0688 137.145 89.5504 134.726 88.1577L113.027 75.6232C112.001 75.0368 111.048 74.8902 110.315 75.2567L109.508 75.7698L103.644 79.4348C104.45 81.1208 106.796 86.0319 107.016 87.1314C107.089 87.5713 107.822 91.163 109.142 97.8334V97.98V100.692C109.142 102.085 109.655 103.697 110.535 105.164L110.608 105.237V105.383C111.634 110.808 112.587 115.499 112.661 116.012L115.666 123.049L122.264 119.237L121.824 117.918C121.677 117.112 121.531 116.232 121.531 115.499L121.384 113.96Z" fill="#171753"/>
<path d="M134.872 87.6451L114.566 75.9902L104.377 82.3674L126.149 93.8024L130.694 94.5354L137.731 90.3572C136.925 89.2577 135.972 88.3048 134.872 87.6451Z" fill="white"/>
<path d="M130.767 95.122L125.855 94.3157L103.277 82.441L114.493 75.4041L135.092 87.2788C136.192 87.9385 137.218 88.8914 138.098 90.1376L138.391 90.5774L130.767 95.122ZM126.295 93.3628L130.62 94.0225L136.998 90.2109C136.265 89.3313 135.532 88.5982 134.652 88.0851L114.64 76.5769L105.403 82.3677L126.295 93.3628Z" fill="#171753"/>
<path d="M132.453 98.2738C132.453 98.2738 123.656 100.326 123.143 100.546C122.703 100.693 114.053 107.656 111.121 110.882C111.708 113.887 112.074 115.939 112.147 116.013L115.373 123.563C115.373 123.636 115.446 123.636 115.519 123.636L122.85 119.385C122.85 119.385 122.923 119.311 122.85 119.311L122.337 117.772C122.19 117.039 122.117 116.233 122.044 115.353L131.427 125.762H131.5L138.317 121.51L138.391 121.437C139.197 120.924 139.71 119.898 139.71 118.432V95.8549C139.71 95.2685 139.637 94.7554 139.49 94.1689L132.453 98.2738Z" fill="#171753"/>
<path d="M138.805 97.4634L133.6 100.613L133.941 101.177L139.147 98.0278L138.805 97.4634Z" fill="#4D3D8D"/>
<path d="M138.635 117.762L133.43 120.912L133.771 121.476L138.977 118.326L138.635 117.762Z" fill="#4D3D8D"/>
<path d="M127.982 91.9692L106.283 79.4347C103.718 77.9687 101.592 79.1415 101.592 82.1469V104.87C101.592 107.876 103.718 111.467 106.283 113.007L108.776 114.399C109.216 114.693 109.582 115.206 109.729 115.792C110.022 117.478 110.975 121.07 114.494 123.709C115.153 124.222 115.74 123.782 115.52 122.902C115.3 121.803 115.007 120.41 115.007 119.091C115.007 118.504 115.447 118.284 115.96 118.578L128.055 125.541C130.621 127.007 132.747 125.834 132.747 122.829V100.106C132.673 97.1003 130.621 93.5085 127.982 91.9692Z" fill="#4D3D8D"/>
<path d="M130.108 126.714C129.375 126.714 128.569 126.494 127.762 125.981L115.667 119.017C115.594 118.944 115.52 118.944 115.52 118.944C115.52 118.944 115.52 119.017 115.52 119.09C115.52 120.41 115.813 121.876 116.033 122.829C116.18 123.489 116.033 124.075 115.594 124.295C115.227 124.588 114.641 124.515 114.201 124.148C110.609 121.436 109.509 117.844 109.216 115.939C109.143 115.572 108.849 115.059 108.556 114.912L106.064 113.52C103.352 111.98 101.152 108.095 101.152 104.943V82.2201C101.152 80.6075 101.739 79.3613 102.765 78.7016C103.791 78.1152 105.184 78.1885 106.577 78.9948L128.275 91.5293C130.988 93.0686 133.187 96.9536 133.187 100.106V122.829C133.187 124.441 132.6 125.688 131.574 126.347C131.134 126.567 130.621 126.714 130.108 126.714ZM115.447 117.918C115.667 117.918 115.887 117.991 116.107 118.138L128.202 125.101C129.302 125.761 130.255 125.834 130.988 125.394C131.721 124.955 132.087 124.075 132.087 122.829V100.106C132.087 97.3201 130.108 93.8749 127.689 92.4089L105.991 79.8744C104.891 79.2147 103.938 79.1414 103.205 79.5812C102.472 80.021 102.105 80.9007 102.105 82.1468V104.87C102.105 107.656 104.085 111.101 106.504 112.567L108.996 113.959C109.582 114.326 110.022 114.986 110.169 115.719C110.462 117.478 111.415 120.85 114.714 123.269C114.861 123.342 114.934 123.415 114.934 123.415C114.934 123.415 114.934 123.269 114.934 123.049C114.714 122.023 114.421 120.557 114.421 119.09C114.421 118.651 114.641 118.211 114.934 118.064C115.154 117.991 115.3 117.918 115.447 117.918Z" fill="#171753"/>
<path d="M120.652 104.504C120.652 106.703 119.113 107.655 117.207 106.483C115.301 105.383 113.762 102.671 113.762 100.472C113.762 98.273 115.301 97.32 117.207 98.4929C119.04 99.5924 120.652 102.305 120.652 104.504Z" fill="#4D3D8D"/>
<path d="M124.26 99.0664V102.994L123.212 102.39C122.369 101.903 121.699 101.668 121.204 101.685C120.71 101.701 120.346 102.012 120.113 102.616C119.88 103.187 119.764 104.076 119.764 105.285V109.011L118.498 105.461C118.702 105.411 118.993 105.444 119.371 105.562C119.749 105.646 120.142 105.805 120.55 106.04C121.51 106.594 122.31 107.408 122.951 108.482C123.591 109.523 123.911 110.647 123.911 111.856C123.911 112.997 123.605 113.794 122.994 114.247C122.383 114.667 121.51 114.55 120.375 113.895C119.648 113.475 118.964 112.896 118.324 112.158C117.712 111.403 117.218 110.446 116.839 109.288C116.461 108.096 116.272 106.661 116.272 104.983V104.127C116.272 101.743 116.548 100.006 117.101 98.9153C117.683 97.8411 118.513 97.3124 119.589 97.3292C120.666 97.3124 121.976 97.7488 123.518 98.6384L124.26 99.0664ZM114.613 93.5025V97.4299L113.566 96.8257C112.722 96.339 112.052 96.104 111.558 96.1208C111.063 96.1376 110.699 96.4481 110.466 97.0523C110.233 97.6229 110.117 98.5125 110.117 99.7209V103.447L108.851 99.8972C109.055 99.8468 109.346 99.8804 109.724 99.9979C110.103 100.082 110.495 100.241 110.903 100.476C111.863 101.03 112.663 101.844 113.304 102.918C113.944 103.959 114.264 105.083 114.264 106.292C114.264 107.433 113.958 108.23 113.347 108.684C112.736 109.103 111.863 108.986 110.728 108.331C110.001 107.912 109.317 107.332 108.677 106.594C108.065 105.839 107.571 104.882 107.192 103.724C106.814 102.532 106.625 101.097 106.625 99.4188V98.5628C106.625 96.1795 106.901 94.4424 107.454 93.3514C108.036 92.2772 108.866 91.7485 109.942 91.7653C111.019 91.7485 112.329 92.1849 113.871 93.0745L114.613 93.5025Z" fill="#171753"/>
<path d="M124.26 96.7751V100.703L123.212 100.098C122.369 99.6116 121.699 99.3766 121.204 99.3934C120.71 99.4102 120.346 99.7207 120.113 100.325C119.88 100.896 119.764 101.785 119.764 102.994V106.72L118.498 103.17C118.702 103.119 118.993 103.153 119.371 103.271C119.749 103.354 120.142 103.514 120.55 103.749C121.51 104.303 122.31 105.117 122.951 106.191C123.591 107.232 123.911 108.356 123.911 109.565C123.911 110.706 123.605 111.503 122.994 111.956C122.383 112.376 121.51 112.258 120.375 111.604C119.648 111.184 118.964 110.605 118.324 109.867C117.712 109.111 117.218 108.155 116.839 106.997C116.461 105.805 116.272 104.37 116.272 102.691V101.835C116.272 99.4521 116.548 97.715 117.101 96.624C117.683 95.5499 118.513 95.0212 119.589 95.038C120.666 95.0212 121.976 95.4576 123.518 96.3471L124.26 96.7751ZM114.613 91.2112V95.1387L113.566 94.5344C112.722 94.0477 112.052 93.8127 111.558 93.8295C111.063 93.8463 110.699 94.1568 110.466 94.761C110.233 95.3317 110.117 96.2212 110.117 97.4297V101.156L108.851 97.6059C109.055 97.5556 109.346 97.5891 109.724 97.7066C110.103 97.7905 110.495 97.95 110.903 98.185C111.863 98.7388 112.663 99.5529 113.304 100.627C113.944 101.668 114.264 102.792 114.264 104.001C114.264 105.142 113.958 105.939 113.347 106.392C112.736 106.812 111.863 106.694 110.728 106.04C110.001 105.62 109.317 105.041 108.677 104.303C108.065 103.547 107.571 102.591 107.192 101.433C106.814 100.241 106.625 98.806 106.625 97.1276V96.2716C106.625 93.8883 106.901 92.1511 107.454 91.0602C108.036 89.986 108.866 89.4573 109.942 89.4741C111.019 89.4573 112.329 89.8937 113.871 90.7832L114.613 91.2112Z" fill="#171753"/>
<path d="M123.012 97.6721V97.1721L122.578 96.9223L121.836 96.4943C120.246 95.5768 118.866 95.1094 117.714 95.1262C116.54 95.1093 115.646 95.6906 115.029 96.8307L115.029 96.8306L115.025 96.8375C114.437 97.9983 114.157 99.813 114.157 102.233V103.089C114.157 104.802 114.349 106.318 114.763 107.621L114.763 107.621L114.765 107.628C115.171 108.87 115.719 109.949 116.427 110.824L116.438 110.837L116.448 110.849C117.15 111.658 117.9 112.293 118.693 112.751C119.917 113.457 120.919 113.615 121.632 113.125L121.632 113.125L121.638 113.121C122.323 112.613 122.662 111.715 122.662 110.462C122.662 109.147 122.311 107.858 121.564 106.642C120.837 105.424 119.927 104.507 118.868 103.896C118.75 103.828 118.633 103.765 118.516 103.709C118.528 102.626 118.641 101.863 118.836 101.384L118.836 101.384L118.839 101.378C119.043 100.847 119.345 100.612 119.725 100.599C120.134 100.586 120.725 100.781 121.531 101.246L122.578 101.85L123.012 102.1V101.6V97.6721ZM113.365 92.1082V91.6082L112.932 91.3584L112.189 90.9304C110.599 90.0129 109.219 89.5455 108.067 89.5623C106.893 89.5454 105.999 90.1267 105.382 91.2668L105.382 91.2667L105.378 91.2736C104.79 92.4344 104.51 94.2491 104.51 96.669V97.525C104.51 99.2378 104.702 100.754 105.116 102.057L105.116 102.057L105.118 102.064C105.524 103.306 106.072 104.385 106.78 105.26L106.791 105.273L106.801 105.286C107.503 106.095 108.253 106.729 109.047 107.187C110.27 107.893 111.272 108.051 111.985 107.561L111.985 107.561L111.991 107.557C112.677 107.049 113.015 106.151 113.015 104.898C113.015 103.583 112.664 102.295 111.917 101.078C111.19 99.8602 110.281 98.9432 109.221 98.3322C109.103 98.264 108.986 98.2015 108.87 98.1448C108.881 97.062 108.994 96.2987 109.189 95.8198L109.189 95.8198L109.192 95.814C109.396 95.2834 109.698 95.0484 110.078 95.0355C110.487 95.0216 111.078 95.2167 111.884 95.6817L112.932 96.2859L113.365 96.5357V96.0357V92.1082Z" fill="white" stroke="#171753"/>
<path d="M123.696 113.21C124.569 111.411 124.153 109.159 123.548 107.533C123.367 107.047 122.725 107.129 122.617 107.636C122.602 107.709 122.601 107.785 122.615 107.858L123.245 111.164C123.329 111.603 123.238 112.058 122.992 112.432C122.627 112.984 121.978 113.279 121.322 113.189L118.785 112.841C118.454 112.762 117.885 112.672 118.252 112.94C118.538 113.148 119.603 113.632 120.426 113.99C120.832 114.166 121.272 114.246 121.714 114.233L121.858 114.228C122.613 114.205 123.366 113.89 123.696 113.21Z" fill="#171753"/>
</svg>
