<svg width="126" height="146" viewBox="0 0 126 146" fill="none" xmlns="http://www.w3.org/2000/svg">
<circle opacity="0.8" cx="63" cy="83" r="63" fill="#FFEE81"/>
<path d="M58.9334 40.2284L58.9359 40.3984L58.9837 43.6839C58.9354 43.6788 58.883 43.6731 58.8266 43.6669C58.4764 43.6287 57.9742 43.5722 57.3676 43.4991C56.154 43.3527 54.5235 43.14 52.854 42.8742C51.1827 42.6082 49.4802 42.2903 48.1196 41.9346C47.4385 41.7566 46.8524 41.5714 46.4021 41.3822C45.9341 41.1856 45.6729 41.0084 45.573 40.8759L45.573 40.8759L45.5714 40.8738C45.1831 40.3667 44.8233 39.4616 44.4929 38.4754C44.3598 38.0781 44.2307 37.6649 44.1078 37.2716C43.9381 36.7283 43.7802 36.2228 43.6398 35.8494C42.5181 32.5009 41.6671 29.2165 41.5098 28.3834C41.4799 28.2169 41.4528 28.0806 41.4297 27.9646C41.3968 27.7994 41.372 27.6752 41.3591 27.5633C41.3401 27.3985 41.3636 27.3691 41.3733 27.3569C41.3737 27.3565 41.374 27.3561 41.3743 27.3557C41.4072 27.3136 41.4993 27.2426 41.7872 27.118C41.9783 27.0352 42.221 26.9421 42.5373 26.8209C42.6774 26.7672 42.832 26.708 43.0029 26.6416C43.068 26.6194 43.2465 26.6025 43.5318 26.6468C43.8059 26.6894 44.1362 26.7819 44.4738 26.9329C45.1532 27.2368 45.8212 27.7573 46.151 28.5307L46.151 28.5307L46.1528 28.5347C47.128 30.7446 48.0104 32.1764 48.8369 33.3963C49.0505 33.7115 49.2585 34.0101 49.4622 34.3026C50.05 35.1464 50.6026 35.9397 51.1523 36.9357L51.2117 37.0433L51.3253 37.0902L58.9334 40.2284Z" fill="#FFE850" stroke="#171753" stroke-width="0.7"/>
<path d="M31.5165 96.6056C31.4629 96.9256 31.6237 97.1923 31.7309 97.4589C31.999 98.1523 31.8918 98.8989 31.9454 99.6456C31.999 100.392 32.0526 101.192 32.2671 101.886C32.6423 102.952 33.3393 103.859 34.197 104.446C34.6259 104.766 35.162 104.979 35.6981 104.979C36.2342 104.979 36.7703 104.819 37.1456 104.339C37.4672 103.912 37.5745 103.326 37.5745 102.792C37.5208 102.312 37.4136 101.832 37.3064 101.406C37.3064 101.352 37.2528 101.299 37.2528 101.192C36.9847 100.232 36.5559 99.2723 36.4486 98.3123C36.3414 97.6189 36.395 96.8723 36.2878 96.1256C36.2342 95.859 36.127 95.539 35.9662 95.3256C35.9125 95.2723 35.8589 95.219 35.8053 95.1656C35.6981 95.059 35.5373 94.9523 35.4301 94.899C35.162 94.739 34.8403 94.5256 34.5187 94.419C34.4115 94.3656 33.0176 94.099 33.0176 94.0457C33.0176 94.6856 32.7495 95.3256 32.2671 95.699C32.1062 95.859 31.8382 96.019 31.6773 96.179C31.5701 96.3923 31.5165 96.499 31.5165 96.6056Z" fill="#171753"/>
<path d="M48.5099 97.8856C47.5985 98.6322 44.7572 98.4189 43.4169 96.5523C43.3097 96.3923 43.1489 95.9656 42.72 95.5389C42.3447 95.1656 41.9695 95.2189 41.7014 95.1656C41.3261 95.1123 40.6292 94.8456 40.2539 94.4189C40.0395 94.1523 39.8787 93.8323 39.9323 93.4056C40.0395 92.499 40.2539 91.859 40.522 91.379C41.1653 90.259 42.1839 90.259 42.8272 90.419C43.2025 90.5257 43.4705 90.6323 43.4705 90.6323C43.4705 90.6323 44.1139 91.539 46.0438 93.3523C46.3655 93.6723 46.7408 93.9923 47.0624 94.3123C48.5099 95.6989 49.5285 97.0322 48.5099 97.8856Z" fill="#171753"/>
<path d="M31.6239 96.339C31.5703 96.659 31.7312 96.9257 31.8384 97.1923C32.1064 97.8857 31.9992 98.6323 32.0528 99.379C32.1064 100.126 32.16 100.926 32.3745 101.619C32.7497 102.686 33.4467 103.592 34.3044 104.179C34.7333 104.499 35.2694 104.712 35.8055 104.712C36.3416 104.712 36.8777 104.552 37.253 104.072C37.5747 103.646 37.6819 103.059 37.6819 102.526C37.6283 102.046 37.521 101.566 37.4138 101.139C37.4138 101.086 37.3602 101.032 37.3602 100.926C37.0922 99.9656 36.6633 99.0056 36.5561 98.0457C36.4488 97.3523 36.5025 96.6057 36.3952 95.859C36.3416 95.5924 36.2344 95.2724 36.0736 95.059C36.02 95.0057 35.9664 94.9524 35.9127 94.899C35.8055 94.7924 35.6447 94.6857 35.5375 94.6324C35.2694 94.4724 34.9478 94.259 34.6261 94.1524C34.5189 94.099 33.125 93.8324 33.125 93.7791C33.125 94.419 32.857 95.059 32.3745 95.4324C32.2136 95.5924 31.9456 95.7524 31.7848 95.9124C31.6775 96.0724 31.6239 96.179 31.6239 96.339Z" fill="#171753"/>
<path d="M48.5099 97.4588C47.5985 98.2055 44.7572 97.9921 43.4169 96.1255C43.3097 95.9655 43.1489 95.5388 42.72 95.1122C42.3447 94.7388 41.9695 94.7922 41.7014 94.7388C41.3261 94.6855 40.6292 94.4188 40.2539 93.9922C40.0395 93.7255 39.8787 93.4055 39.9323 92.9789C40.0395 92.0722 40.2539 91.4322 40.522 90.9522C41.1653 89.8322 42.1839 89.8322 42.8272 89.9922C43.2025 90.0989 43.4705 90.2056 43.4705 90.2056C43.4705 90.2056 44.1139 91.1122 46.0438 92.9255C46.3655 93.2455 46.7408 93.5655 47.0624 93.8855C48.5099 95.2188 49.5821 96.6055 48.5099 97.4588Z" fill="#171753"/>
<path d="M38.9678 71.8594C39.1286 70.6861 38.4317 62.3128 37.9492 56.8196H45.8835V57.3529H48.2424C48.2424 57.9396 48.2424 58.5796 48.1888 59.1662C47.4918 59.6462 46.8485 60.1262 46.2052 60.6062C46.8485 60.1262 47.4918 59.6995 48.1888 59.2195C47.9207 65.5128 47.0629 71.6994 46.6877 73.8327C45.401 81.2459 46.2052 92.2858 46.0444 92.3924C45.0794 92.9791 40.8442 92.8191 39.9864 91.7524C38.7534 90.0991 38.2173 85.4592 38.2173 80.4459C38.3781 80.0726 38.4853 79.6459 38.5925 79.2726C38.5925 76.7126 38.6998 74.1527 38.9678 71.8594Z" fill="#FFEE81" stroke="#171753" stroke-width="0.7" stroke-miterlimit="10"/>
<path d="M47.0102 51.8596C46.9565 51.9663 44.973 55.7529 44.7049 56.1262C43.3647 57.9395 40.3625 62.4728 39.7728 66.4727C39.0759 71.0593 38.7006 76.1793 38.7006 76.2326C38.647 77.1926 37.7356 89.7257 37.8428 96.2323C36.5026 96.499 35.752 98.899 31.1415 97.5123C30.8199 97.4056 30.6054 97.0856 30.5518 96.7123C30.0157 93.5124 29.426 89.4058 29.2652 84.8725C29.158 81.8325 30.6054 78.5259 30.3374 75.2726C28.9435 59.6995 28.8363 56.3396 29.7477 55.3262C30.0693 55.0062 30.1766 54.9529 30.1766 54.5796L47.0102 51.8596Z" fill="#FFEE81" stroke="#171753" stroke-width="0.7" stroke-miterlimit="10"/>
<path d="M48.6178 57.3528C48.6178 59.5394 47.8137 61.7794 45.9909 62.4194C43.4176 63.3261 39.8258 63.6994 37.0916 63.8594C32.8564 64.1794 27.7635 64.606 28.7821 58.0995C29.2646 55.0062 31.4626 51.7529 32.1595 48.9796C34.5184 40.073 28.4604 31.8065 29.6934 30.5798C31.1409 29.1932 35.5369 26.5799 36.2875 26.1532C37.8958 25.3532 40.5227 25.5666 40.5227 25.5666C40.5227 25.5666 45.294 25.9399 45.294 27.6466C45.294 29.1932 48.0817 32.3932 48.6178 33.2998C49.422 34.6865 50.8159 37.2997 47.492 40.2864C46.0982 41.4597 48.6178 55.1662 48.6178 57.3528Z" fill="#171753"/>
<path d="M36.7693 25.7799C36.7693 25.5133 36.6621 21.6733 36.6621 21.6733L43.0953 22.42L42.1303 26.0999L36.7693 25.7799Z" fill="#F5C2A6"/>
<path d="M36.7166 11.8602C36.3949 11.0602 35.6444 10.4736 34.9475 9.99357C34.3041 9.56691 33.6072 9.08691 32.803 9.08691C31.57 9.08691 30.5514 10.1002 29.8545 11.0602C29.3184 11.7535 28.8359 12.5535 28.7823 13.4069C28.6215 14.9535 29.8009 16.4468 31.302 16.9801C32.803 17.5135 34.465 17.3001 35.9124 16.7668L36.7166 11.8602Z" fill="#FFC78F" stroke="#171753" stroke-width="0.75" stroke-miterlimit="10"/>
<path d="M34.8912 21.5748L40.1067 21.9993C40.1215 22.1125 40.1402 22.2566 40.1616 22.4251C40.2168 22.8582 40.2903 23.4517 40.3638 24.0932C40.5118 25.3848 40.6564 26.8438 40.6564 27.5933C40.6564 27.7872 40.6259 28.1109 40.3291 28.427C40.0251 28.7506 39.3937 29.1173 38.0716 29.2722C37.0655 29.3857 36.3553 28.8385 35.8702 28.2013C35.6288 27.8841 35.4535 27.5563 35.3384 27.3062C35.2811 27.1816 35.2394 27.0779 35.2124 27.0062C35.2022 26.9791 35.1941 26.9566 35.188 26.9395L34.8912 21.5748Z" fill="white" stroke="#171753" stroke-width="0.7"/>
<path d="M42.5058 26.4202C41.4872 27.2202 39.8789 26.9535 38.4314 26.4735C37.52 26.1535 36.7159 25.7268 36.1798 25.4069C35.2148 24.7669 34.089 21.0336 33.8209 19.7536C33.7673 19.4336 33.7137 19.1136 33.6601 18.7936C33.4456 15.647 36.2334 15.2203 38.5922 13.5137C41.2191 11.5937 44.4357 12.2337 44.6502 16.3403C44.9182 20.4469 44.7574 24.7135 42.5058 26.4202Z" fill="white" stroke="#171753" stroke-width="0.7" stroke-miterlimit="10"/>
<path d="M43.3638 11.7536C41.5411 9.72701 38.9678 9.72701 36.3945 10.1537C34.2501 10.527 31.8376 12.447 31.4624 14.5269C30.9263 17.3536 31.2479 21.5135 34.4109 23.7001C34.8398 24.0201 35.3223 24.0735 35.3223 23.5401C35.2687 22.6868 34.679 20.8735 35.6976 20.9269C36.2337 20.9802 35.9656 20.2869 36.3409 20.1802C36.6089 20.3402 39.4503 19.3269 41.8627 18.9002C42.0236 18.8469 42.4525 17.5136 42.6133 17.4602C42.8277 17.4069 42.8277 18.6869 43.0422 18.6336C44.3288 18.3669 45.2402 17.9402 45.2402 17.9402C46.0443 15.9136 44.6505 13.1936 43.3638 11.7536Z" fill="#FFC78F" stroke="#171753" stroke-width="0.7" stroke-miterlimit="10"/>
<path d="M35.6981 21.1936C36.4487 22.0469 36.7167 23.1136 36.2342 23.5402C35.7517 23.9669 34.7331 23.5935 33.9826 22.7402C33.232 21.8869 32.964 20.8202 33.5001 20.3936C33.929 19.9669 34.9476 20.3403 35.6981 21.1936Z" fill="white" stroke="#171753" stroke-width="0.7" stroke-miterlimit="10"/>
<path opacity="0.6" d="M47.2228 44.713L37.6266 51.0596C37.3586 51.1129 37.0905 51.1129 36.7689 51.1129C36.4472 51.1663 36.0719 51.0596 35.643 50.8463C34.3564 50.0996 33.2842 48.1796 32.8553 47.3797C30.979 43.913 29.7995 33.6732 29.6923 32.1265C29.6387 31.1665 29.9068 30.5266 30.3892 29.8866C30.7109 29.4599 31.9439 28.7666 31.9439 28.7666C32.1584 28.7132 32.5337 28.7666 32.8553 28.9266C33.4986 29.1932 34.2492 29.8332 34.7317 30.9532C36.7152 35.2732 37.6802 39.4864 38.1091 42.7931C38.2163 43.433 38.2163 44.6064 39.771 44.393C43.5774 43.753 46.8476 43.6464 46.8476 43.6464L47.2228 44.713Z" fill="#171753"/>
<path d="M45.7218 48.8729C44.7569 47.7529 44.9713 45.5129 45.293 44.8729L45.3466 44.8196L45.4002 44.7663C45.8827 44.6063 46.9013 44.2863 48.0271 44.073C48.8312 43.913 49.5282 43.8596 50.1715 43.8596C51.1901 43.8596 51.9942 44.0729 52.5303 44.3929C53.4953 45.0863 54.0314 45.7263 54.085 46.3129C54.1386 46.9529 53.7634 47.4329 53.3881 47.8062C52.9056 48.2862 51.9406 48.3396 51.0829 48.3396C50.654 48.3396 50.2251 48.3396 49.7426 48.2862C49.2601 48.2862 48.8312 48.2329 48.4024 48.2329C47.5446 48.2329 46.526 48.2862 46.0435 48.7662L45.8827 48.8729H45.7218Z" fill="white"/>
<path d="M50.1175 44.073C51.0289 44.073 51.833 44.233 52.3691 44.6064C54.4599 46.0463 53.9238 47.0063 53.1733 47.753C52.798 48.1797 51.9403 48.233 51.0289 48.233C50.1711 48.233 49.2061 48.1796 48.3484 48.1796C47.3298 48.1796 46.3648 48.2863 45.8287 48.713C44.9709 47.6997 45.1318 45.5664 45.3998 44.873C45.8823 44.713 46.9009 44.393 47.9731 44.233C48.7236 44.1797 49.4742 44.073 50.1175 44.073ZM50.1175 43.6997C49.4742 43.6997 48.7236 43.753 47.9195 43.913C46.7937 44.1264 45.7751 44.393 45.2926 44.6064L45.1854 44.6597L45.1318 44.8197C44.8101 45.513 44.5957 47.8597 45.6143 49.033L45.8823 49.2996L46.1504 49.033C46.6328 48.6063 47.6514 48.553 48.402 48.553C48.8309 48.553 49.3134 48.553 49.7422 48.6063C50.1711 48.6063 50.6536 48.6596 51.0825 48.6596C51.9939 48.6596 53.0125 48.6063 53.4949 48.0197C53.8702 47.593 54.2991 47.0597 54.2455 46.3663C54.1919 45.673 53.6558 45.033 52.6372 44.2864C52.0475 43.913 51.2433 43.6997 50.1175 43.6997Z" fill="#171753"/>
<path d="M46.694 44.0169L46.9357 45.0588L46.9355 45.0588L46.9381 45.0687L47.7642 48.2108L35.8261 51.893C35.6032 51.9351 35.3741 51.9363 35.0535 51.9363H35.0247L34.9962 51.941C34.7881 51.9755 34.4992 51.9117 34.0937 51.7113C33.5192 51.3746 32.9681 50.7603 32.4966 50.1024C32.0285 49.4492 31.6623 48.7864 31.4496 48.3898C31.0138 47.5474 30.6065 46.2843 30.2398 44.8173C29.8742 43.3551 29.5542 41.7131 29.2871 40.1283C28.7523 36.9562 28.4323 34.0347 28.3797 33.2757C28.3255 32.4929 28.3251 31.8933 28.5644 31.4171C28.7898 30.9687 29.2694 30.559 30.3674 30.2794C30.4119 30.2685 30.5069 30.2631 30.6404 30.2852C30.7692 30.3066 30.9099 30.3497 31.0377 30.4133L31.0484 30.4186L31.0595 30.4232C31.6121 30.6523 32.2991 31.2219 32.7485 32.265L32.7484 32.2651L32.7518 32.2726C34.7178 36.5542 35.6749 40.7321 36.1003 44.0114L36.1 44.0114L36.1022 44.0242C36.1092 44.0663 36.1172 44.1225 36.1263 44.1862C36.1436 44.3079 36.1647 44.4566 36.1904 44.5851C36.2332 44.7989 36.3018 45.0435 36.4353 45.2663C36.5728 45.4957 36.7771 45.6981 37.0764 45.8204C37.3699 45.9403 37.7274 45.972 38.1569 45.9131L38.1663 45.9118L38.1757 45.91C40.1119 45.5355 42.3281 45.041 44.0585 44.6407C44.9241 44.4405 45.6688 44.2636 46.1973 44.1367C46.3947 44.0894 46.5619 44.049 46.694 44.0169Z" fill="#FFE850" stroke="#171753" stroke-width="0.7"/>
<path d="M47.9701 45.76L47.9701 45.76L47.9718 45.7589L61.0527 37.9724L61.0528 37.9725L61.0568 37.9698C61.1841 37.8854 61.3094 37.882 61.4459 37.9259C61.5461 37.9762 61.6471 38.0389 61.7529 38.1047L61.755 38.106C61.7553 38.1062 61.7556 38.1064 61.756 38.1066C61.7061 38.1223 61.6542 38.1435 61.6003 38.1703L61.6002 38.1699L61.5927 38.1745L60.8957 38.6012L60.5931 38.7864H60.9479H60.9774C61.0233 38.8106 61.0788 38.8437 61.1379 38.879L61.1405 38.8805C61.2056 38.9194 61.2752 38.9609 61.3323 38.9893C61.3797 39.0129 61.4153 39.0364 61.4556 39.0631L61.4567 39.0639C61.4932 39.0881 61.5335 39.1148 61.5853 39.1417C61.6061 39.1627 61.619 39.1777 61.6292 39.198C61.6407 39.2208 61.6521 39.2579 61.6521 39.3264L61.6521 39.3284L61.8129 47.3273C61.8126 47.5369 61.6945 47.755 61.5249 47.9016L61.4214 47.8501L61.2605 47.7701L61.216 47.8597L61.1715 47.9492L61.3286 48.0273L48.8916 55.3982C48.8184 55.4337 48.7442 55.4387 48.6919 55.4394C48.68 55.4348 48.6672 55.431 48.6539 55.4288C48.6311 55.4252 48.597 55.425 48.5642 55.4455C48.5302 55.4669 48.5158 55.499 48.5103 55.5227C48.505 55.5452 48.5059 55.5665 48.5076 55.582C48.511 55.6132 48.5209 55.6474 48.5307 55.6771C48.5408 55.7076 48.5533 55.7406 48.5648 55.7711L48.5653 55.7722C48.5668 55.7764 48.5684 55.7804 48.5699 55.7845L48.4638 55.7317L48.5527 55.9692L48.6343 56.1873C48.6141 56.2044 48.5876 56.2244 48.5558 56.2431C48.481 56.2872 48.3845 56.32 48.2759 56.2979L48.126 56.2233L47.9652 56.1433L47.8044 56.0633L47.6435 55.9833C47.5774 55.9505 47.4846 55.8303 47.4846 55.6462L47.4846 55.645L47.3773 46.793C47.3773 46.7928 47.3773 46.7926 47.3773 46.7924C47.3775 46.627 47.4379 46.4172 47.5459 46.2213C47.6539 46.0253 47.8032 45.8548 47.9701 45.76Z" fill="#5ED9D1" stroke="#171753" stroke-width="0.2"/>
<path d="M48.6127 46.1333L48.6127 46.1334L48.6144 46.1323L61.6944 38.3463C61.8671 38.2484 61.9865 38.2522 62.056 38.2928C62.1258 38.3337 62.1874 38.4364 62.1874 38.6332L62.1875 38.635L62.3483 47.3806C62.3479 47.7725 62.0981 48.2181 61.7555 48.4128L61.7555 48.4128L61.7538 48.4138L48.6747 56.1993C48.6744 56.1995 48.6741 56.1997 48.6738 56.1998C48.5011 56.2977 48.3817 56.294 48.3122 56.2533C48.2424 56.2124 48.1808 56.1097 48.1808 55.9129L48.1807 55.9111L48.0199 47.1664C48.0199 47.1661 48.0199 47.1658 48.0199 47.1655C48.0203 46.7736 48.2701 46.3281 48.6127 46.1333Z" fill="#BEF0ED" stroke="#171753" stroke-width="0.2"/>
<path d="M48.9395 47.433C48.9395 47.0596 49.2075 46.633 49.5292 46.4197C49.8508 46.2597 50.1189 46.3663 50.1189 46.7397C50.1189 47.113 49.8508 47.5396 49.5292 47.753C49.2075 47.913 48.9395 47.8063 48.9395 47.433Z" fill="#171753"/>
<path d="M47.8128 49.4063L47.4375 49.193V48.073L47.8128 48.2863V49.4063Z" fill="#171753"/>
<path d="M47.8128 50.9529L47.4375 50.7396V49.6196L47.8128 49.833V50.9529Z" fill="#171753"/>
<path d="M50.2249 44.4997C50.3322 44.4464 50.493 44.4464 50.6002 44.4997C50.7074 44.5531 50.7074 44.6597 50.6002 44.7131C50.493 44.7664 50.3322 44.7664 50.2249 44.7131C50.1177 44.6064 50.1177 44.5531 50.2249 44.4997Z" fill="#171753"/>
<path d="M51.0296 43.9663C51.1369 43.9129 51.2977 43.9129 51.4049 43.9663C51.5121 44.0196 51.5121 44.1263 51.4049 44.1796C51.2977 44.2329 51.1369 44.2329 51.0296 44.1796C50.9224 44.1263 50.9224 44.0196 51.0296 43.9663Z" fill="#171753"/>
<path d="M51.8887 43.4865L52.2103 43.6998L52.9073 43.2731L52.5856 43.0598L51.8887 43.4865Z" fill="#171753"/>
<path d="M62.0722 45.5663C61.965 45.513 61.9114 45.4063 61.8578 45.353L61.8042 45.2997V45.2463C61.8042 45.1397 61.8042 45.033 61.8042 44.9263H61.7506H61.697C61.4825 44.9263 61.2145 44.873 61.0536 44.713C61 44.6063 60.9464 44.4997 60.9464 44.3397C60.3031 44.2863 60.3031 43.6464 60.3031 43.3797V43.273L60.4639 43.1664C60.3567 43.113 60.2495 43.0597 60.1959 42.8997C60.1423 42.7397 60.1959 42.473 60.3567 42.3664C60.4639 42.2597 60.6248 42.2064 60.7856 42.153C61.0536 42.0464 61.3217 41.9397 61.5897 41.833C61.9114 41.7264 62.1795 41.5664 62.5011 41.4597H62.5547H62.6083C63.4125 41.673 63.7878 43.5397 63.7878 43.5397C63.8414 43.8064 63.9486 44.8197 63.4661 45.2997L63.4125 45.353C63.4125 45.353 62.8228 45.4597 62.7156 45.4597C62.5547 45.513 62.3939 45.513 62.2331 45.513L62.0722 45.5663Z" fill="white"/>
<path d="M62.5548 41.7264C63.1445 41.8864 63.5198 43.3263 63.5734 43.6463C63.627 44.1263 63.6806 44.873 63.3053 45.2463C63.0909 45.2996 62.9301 45.2996 62.662 45.353C62.5012 45.4063 62.3404 45.4063 62.1795 45.4063C62.0723 45.353 62.0187 45.2463 62.0187 45.2463C62.0187 45.193 62.0187 45.0863 62.0187 45.033C62.0723 44.9263 61.9651 44.8196 61.8579 44.8196C61.5898 44.7663 61.0537 44.8196 61.1073 44.3397C61.1073 44.2863 61.0537 44.233 61.0001 44.233C60.5176 44.1797 60.464 43.8063 60.464 43.433C60.6248 43.3263 60.7321 43.2197 60.8393 43.113C60.6784 43.113 60.4104 43.0597 60.3568 42.8997C60.3032 42.793 60.3568 42.633 60.464 42.5263C60.5712 42.4197 60.6784 42.4197 60.7857 42.3663C61.3754 42.2063 62.0187 41.8864 62.5548 41.7264ZM62.5012 41.353L62.394 41.4064C62.1259 41.513 61.8043 41.6197 61.4826 41.7797C61.2146 41.8864 60.9465 41.993 60.6784 42.0997C60.5176 42.153 60.3568 42.2063 60.196 42.3663C59.9815 42.5797 59.8743 42.8463 59.9815 43.113C60.0351 43.1663 60.0351 43.273 60.0887 43.3263V43.4863C60.0351 44.233 60.3568 44.4997 60.7321 44.6063C60.7321 44.7663 60.8393 44.8196 60.8929 44.9263C61.1073 45.1396 61.3754 45.193 61.5898 45.2463C61.5898 45.2996 61.5898 45.353 61.5898 45.4063L61.6434 45.5663L61.697 45.6196C61.7507 45.673 61.8579 45.7796 61.9651 45.833L62.0723 45.8863H62.1795C62.3404 45.8863 62.5012 45.833 62.662 45.833C62.7692 45.833 62.8765 45.7796 62.9837 45.7796C63.0909 45.7796 63.1981 45.7263 63.3053 45.7263H63.4126L63.4662 45.673C64.0023 45.1396 63.9487 44.1797 63.8414 43.753C63.8414 43.753 63.4662 41.7264 62.5548 41.513L62.5012 41.353Z" fill="#171753"/>
<path d="M104.44 99.6703C104.313 98.4693 103.681 97.2683 103.681 97.2683C103.681 97.2683 101.848 99.1646 101.089 99.291C100.394 99.4175 98.1818 98.5325 98.1818 98.5325C98.1818 98.5325 95.211 103.084 94.1364 103.716C93.8203 103.842 93.5675 104.158 93.3779 104.474C92.3033 105.106 92.4297 107.192 92.809 108.204C93.1882 109.215 97.9922 109.278 99.5724 107.888C101.153 106.497 104.503 101.946 104.629 101.63C104.945 100.618 104.692 99.9863 104.44 99.6703Z" fill="#FFE850" stroke="#171753" stroke-width="0.7" stroke-miterlimit="10"/>
<path d="M88.2581 91.8322C88.2581 91.8322 86.5514 94.5502 84.6551 94.6134C82.7588 94.7398 80.4833 97.1418 80.2304 98.0267C79.9776 98.9749 79.9144 100.365 82.1899 100.871C85.4768 101.566 88.1317 97.7739 89.7751 97.6475C91.4186 97.4578 94.8951 96.5097 95.0215 95.4983C95.148 94.487 94.263 91.5161 94.263 91.5161C94.263 91.5161 90.7865 93.0964 89.8383 92.8435C88.827 92.6539 88.2581 91.8322 88.2581 91.8322Z" fill="#49CE8B"/>
<path d="M88.2575 91.8323C88.2575 91.8323 86.2348 94.1078 85.7291 94.2975C85.2234 94.4871 83.4536 95.5617 84.5913 96.1937C85.7291 96.7626 88.5736 94.9296 89.3953 93.3493C89.901 92.4012 88.2575 91.8323 88.2575 91.8323Z" fill="#FFE850"/>
<path d="M94.9588 96.1304C94.9588 96.004 94.9588 95.8144 94.9588 95.5615V95.4983C95.0852 94.487 94.2003 91.5161 94.2003 91.5161C94.2003 91.5161 90.7237 93.0964 89.7756 92.8435C89.6492 92.7803 89.5228 92.7803 89.3963 92.7171C89.1435 92.1482 88.1953 91.8322 88.1953 91.8322C88.1953 91.8322 86.4255 93.7917 85.7934 94.2341C85.7302 94.2341 85.7302 94.2973 85.667 94.2973C85.6037 94.2973 85.6037 94.3606 85.5405 94.3606C85.2245 94.487 84.9084 94.6134 84.5924 94.6134C82.6961 94.7398 80.7366 97.2682 80.1677 98.0267C79.8516 98.4692 79.346 101.25 81.4319 101.377C84.9084 101.566 88.1321 98.406 89.7124 98.2164C91.3558 98.1531 94.8956 97.205 94.9588 96.1304Z" fill="#FFE850" stroke="#171753" stroke-width="0.7" stroke-miterlimit="10"/>
<path d="M87.2476 45.9419C87.2476 45.9419 86.0467 52.1365 85.857 55.3602C85.6674 58.5839 87.3109 74.8288 87.3109 75.7769C87.2476 76.7251 88.1326 80.5177 87.943 81.1498C87.7533 81.7819 87.3109 91.8954 87.6901 92.4643C88.0062 93.0332 89.7128 94.3606 92.1148 93.7285C94.5168 93.1596 95.1489 91.5162 95.1489 91.5162C95.1489 91.5162 96.5395 86.1434 96.4131 84.4367C96.2866 82.73 96.3499 78.6846 96.3499 78.6846L95.5913 73.4382L96.7291 70.6569L95.5281 57.1933L95.2753 50.8091C95.2753 50.8091 90.4081 50.4298 88.7647 48.5335C87.058 46.6372 87.2476 45.9419 87.2476 45.9419Z" fill="#FFC78F" stroke="#171753" stroke-width="0.7" stroke-miterlimit="10"/>
<path d="M91.7988 50.0504C91.7988 50.0504 93.2527 69.8351 94.3904 71.6682C95.5282 73.5013 97.2981 98.2795 97.8038 99.1645C98.3094 100.049 101.217 100.681 103.24 99.3541C105.263 98.0267 105.326 96.8257 105.326 95.9408C105.326 94.9926 106.716 82.8563 106.4 81.7818C106.084 80.7072 105.326 77.8627 105.01 76.9146C104.757 75.9665 105.768 59.4055 106.653 56.7507C107.664 53.6534 105.01 47.7117 105.01 47.7117C105.01 47.7117 99.2576 49.5447 98.7519 49.7976C98.3094 50.0504 91.7988 50.0504 91.7988 50.0504Z" fill="#FFC78F" stroke="#171753" stroke-width="0.7" stroke-miterlimit="10"/>
<path d="M72.5829 55.4237C72.5829 55.4237 71.3819 55.6766 70.497 56.4351C70.1177 56.7512 68.5375 57.0672 68.1582 57.6993C67.779 58.3314 66.8308 58.5842 66.8308 58.5842C66.8308 58.5842 66.2619 58.6475 66.894 59.0267C67.5261 59.406 68.4111 58.9635 68.7903 58.6474C69.1696 58.3946 69.7385 58.7739 69.7385 58.7739L68.7903 61.8712C68.7903 61.8712 68.3478 62.3136 68.1582 62.6929C67.9054 63.0721 67.9686 63.5778 67.9686 63.5778C67.9686 63.5778 68.1582 64.0835 68.6007 63.641C68.9799 63.1986 69.612 62.3136 69.612 62.3136L70.4338 60.3541L69.7385 62.5033C69.7385 62.5033 69.2328 63.4514 69.1696 64.0203C69.1064 64.5892 69.3592 64.7156 69.4224 64.7156C69.4856 64.7788 70.2441 63.5778 70.2441 63.5778L71.3819 60.8598L70.4338 63.7674L69.612 64.842C69.612 64.842 69.6752 65.2845 70.3073 64.842C71.0027 64.3996 70.8762 64.5892 71.1923 64.0835C71.3819 63.8307 72.5197 61.1758 72.5197 61.1758L72.1404 62.5033C72.1404 62.5033 71.5715 63.325 71.698 63.5146C71.8244 63.7042 71.8876 63.641 72.2036 63.4514C72.5197 63.2618 72.8989 62.5033 72.8989 62.5033L74.6688 57.4465L74.6056 56.8144C74.6056 55.6766 73.531 54.9813 72.5829 55.4237Z" fill="#171753"/>
<path d="M90.6599 59.8483C90.6599 59.8483 89.459 59.7851 88.3844 60.2276C87.9419 60.4172 86.2985 60.2908 85.7928 60.7965C85.2871 61.3022 84.2757 61.3022 84.2757 61.3022C84.2757 61.3022 83.7069 61.1757 84.2125 61.7446C84.7182 62.3135 85.6664 62.0607 86.1088 61.9343C86.5513 61.8079 86.9938 62.3767 86.9938 62.3767L85.2239 65.0948C85.2239 65.0948 84.7182 65.4108 84.339 65.7269C84.0229 66.0429 83.8965 66.5486 83.8965 66.5486C83.8965 66.5486 83.9597 67.1175 84.4654 66.7382C84.9711 66.4222 85.7928 65.7269 85.7928 65.7269L87.1202 64.0834L85.856 65.9797C85.856 65.9797 85.0975 66.7382 84.8446 67.2439C84.655 67.7496 84.8446 67.9392 84.9078 68.0024C84.9711 68.0656 85.9824 67.1175 85.9824 67.1175L87.8787 64.8419L86.172 67.3703L85.0975 68.192C85.0975 68.192 85.0343 68.6345 85.7928 68.3817C86.5513 68.1288 86.4249 68.2552 86.8674 67.876C87.1202 67.6864 88.9533 65.4108 88.9533 65.4108L88.258 66.5486C88.258 66.5486 87.4994 67.1807 87.5627 67.3703C87.6891 67.5599 87.7523 67.5599 88.0683 67.4335C88.3844 67.3071 88.9533 66.675 88.9533 66.675L92.0506 62.3135V61.9975C92.3034 61.0493 91.6081 60.1644 90.6599 59.8483Z" fill="#171753"/>
<path d="M89.5239 18.0666C93.2532 21.8592 92.3051 26.7263 90.4088 31.467C88.955 35.0068 87.754 38.7994 86.1737 42.6552C84.5935 46.827 79.5999 52.4527 74.5431 57.3831C74.4799 56.1189 73.1525 55.1707 72.2676 55.6764C75.0488 49.3554 77.9565 43.6666 81.3066 40.1268C80.7377 36.1446 82.1915 31.6567 83.7718 26.9792C83.9614 21.3535 86.237 17.4977 89.5239 18.0666Z" fill="#FFE850" stroke="#171753" stroke-width="0.7" stroke-miterlimit="10" stroke-linecap="round" stroke-linejoin="round"/>
<path opacity="0.26" d="M83.0131 28.8754C83.266 27.548 83.5188 26.1574 83.9613 24.8932C84.5934 22.9969 85.6048 21.227 86.8689 19.71C85.984 22.428 85.2255 25.2092 85.0991 28.0537C85.0359 29.4443 85.1623 30.8349 85.2255 32.2887C85.2255 32.3519 85.2255 32.4783 85.2255 32.5416C85.1623 32.6048 85.0991 32.668 85.0359 32.7312C84.6566 33.0472 84.0877 33.3001 83.582 33.3633C83.266 33.3633 83.266 33.3001 83.0764 33.0472C82.9499 32.9208 82.8235 32.8576 82.7603 32.668C82.5707 32.1623 82.6971 31.4038 82.7603 30.8349C82.7603 30.2028 82.8867 29.5075 83.0131 28.8754Z" fill="#49CE8B"/>
<path d="M86.9942 46.7639C88.8905 52.1999 99.889 51.8207 105.072 47.6488L106.336 29.5708L106.968 22.8706C103.113 18.6355 97.9295 15.9175 91.6717 15.9175C88.3848 16.4864 86.7413 19.5204 85.2243 23.6291C84.0865 28.1802 85.0347 38.9259 86.9942 46.7639Z" fill="#FFE850"/>
<path opacity="0.26" d="M106.97 22.8705C111.015 26.347 107.033 30.1396 105.579 35.0068C104.441 38.6729 103.557 42.5919 102.356 46.511C101.155 50.8092 96.6667 56.8141 92.0524 62.2502C91.8627 60.986 90.4721 60.1643 89.6504 60.7964C91.8627 54.2225 94.2647 48.344 97.2988 44.4882C96.3506 40.5692 99.0687 35.7021 100.27 30.8349C99.8272 25.146 103.62 22.6176 106.97 22.8705Z" fill="#49CE8B"/>
<path d="M106.969 22.8703C110.699 26.6629 109.75 31.5301 107.854 36.2708C106.4 39.8106 105.199 43.6031 103.619 47.4589C102.039 51.6308 97.0452 57.2565 91.9884 62.1868C91.9252 60.9226 90.5978 59.9745 89.7129 60.4802C92.4941 54.1592 95.4018 48.4703 98.7519 44.9305C98.183 40.9483 99.6368 36.4604 101.217 31.7829C101.343 26.094 103.682 22.3014 106.969 22.8703Z" fill="#FFE850" stroke="#171753" stroke-width="0.7" stroke-miterlimit="10" stroke-linecap="round" stroke-linejoin="round"/>
<path d="M94.3281 50.8091C90.7883 50.6827 87.691 49.4185 86.7429 46.7637C85.6683 42.4654 84.657 37.2822 84.5938 32.7311C84.5938 26.5365 85.6051 22.2383 86.0476 20.7844C86.5533 19.141 88.1967 18.0664 88.2599 17.4343" stroke="#171753" stroke-width="0.7" stroke-miterlimit="10" stroke-linecap="round" stroke-linejoin="round"/>
<path d="M103.24 48.7234C103.998 48.3441 104.188 48.1545 104.82 47.6488L105.136 42.8449C105.958 40.5693 106.78 38.357 107.601 36.271C109.498 31.5303 110.446 26.6632 106.716 22.8706C102.861 18.6355 97.6773 15.9175 91.4195 15.9175C89.8393 16.1703 88.6383 17.0553 87.627 18.3195" stroke="#171753" stroke-width="0.7" stroke-miterlimit="10" stroke-linecap="round" stroke-linejoin="round"/>
<path d="M99.2583 17.6873C98.563 15.9175 98.0573 14.9693 97.678 13.1362L90.3457 16.4231L91.6099 20.9743C93.0637 25.4622 100.459 21.1639 99.2583 17.6873Z" fill="#171753"/>
<path opacity="0.15" d="M89.5234 17.3713C89.9027 19.078 88.7649 25.4621 91.6094 27.0424C95.0227 28.8755 98.6256 18.3194 97.7407 16.4864L95.2123 13.8315L89.5234 17.3713Z" fill="#606060"/>
<path d="M93.6953 5.29829C97.1087 5.17187 99.1314 6.68891 99.4474 10.2287C99.5106 13.8948 98.4361 17.1817 95.4652 19.3309C94.0114 20.5951 91.5462 21.3536 89.5867 20.7847C87.564 20.2158 87.5008 16.36 87.0583 12.8203C86.4262 9.21729 89.8395 6.43606 93.6953 5.29829Z" fill="#171753" stroke="#BEF0ED" stroke-width="0.5" stroke-miterlimit="10"/>
<path d="M101.786 11.3032C101.723 10.8607 101.66 10.4815 101.47 10.1022C101.281 9.72296 100.965 9.4069 100.522 9.3437C101.028 8.96444 101.597 8.7116 102.229 8.64839C101.723 8.14271 101.028 7.76346 100.269 7.57383C100.333 6.7521 100.838 5.93037 101.66 5.61432C101.218 5.42469 100.775 5.23506 100.269 5.23506C99.7637 5.23506 99.258 5.42469 99.0684 5.86715C99.0052 5.23506 99.0052 4.53975 99.1316 3.90766C99.3213 3.27556 99.7637 2.70667 100.333 2.45383C99.5741 2.39062 98.7524 2.2642 98.0571 2.51704C97.2985 2.70667 96.6032 3.27556 96.54 4.03407C96.54 3.71802 96.2872 3.40198 96.1608 3.08593C95.8447 2.39062 96.0344 1.56889 96.4768 1C95.7183 1.25284 95.023 1.6321 94.5173 2.2642C94.0116 2.83308 93.6956 3.65482 93.822 4.41334C93.3795 3.90766 93.0635 3.27556 92.8106 2.64346C92.621 2.13778 92.4946 1.50568 92.8739 1.06321C91.7993 1.50568 91.0408 2.58025 90.9144 3.71802C90.8511 4.41333 90.9776 5.04543 91.104 5.74074C91.0408 5.74074 90.9776 5.80395 90.9144 5.80395C90.5351 5.55111 90.219 5.23506 89.903 4.8558C89.5869 4.41333 89.3973 3.84445 89.5237 3.27556C88.8284 4.09729 88.3228 5.10864 88.1331 6.1832C88.0699 6.43604 88.0067 7.32098 88.1331 7.82666C87.3114 8.83802 86.8689 9.91259 87.1218 10.7975C87.9435 12.5674 91.7993 14.3373 95.0862 12.757L95.5919 15.6647L97.0457 14.9062C97.425 15.7911 97.8674 16.6128 98.4995 16.2968L99.0052 15.6015C99.3213 15.159 99.5741 14.5901 99.7637 14.0212C99.8901 14.0844 99.9534 14.2741 100.08 14.4005C100.206 14.5901 100.396 14.843 100.585 14.7797C100.585 14.4005 100.649 13.958 100.522 13.5788C100.459 13.2627 100.333 13.0099 100.08 12.757C100.08 12.6938 100.08 12.6938 100.08 12.6306C100.649 12.757 101.154 13.0731 101.407 13.5788C101.407 12.9467 101.344 12.3146 101.154 11.7457C100.965 11.1768 100.649 10.6711 100.143 10.3551C100.143 10.3551 100.143 10.3551 100.143 10.2918C100.712 10.4815 101.344 10.7975 101.786 11.3032Z" fill="#FFA54B" stroke="#171753" stroke-width="0.7" stroke-miterlimit="10"/>
<path d="M97.5504 16.2336C97.8665 15.9808 98.1825 15.6647 98.3722 15.2223C98.5618 14.843 98.5618 14.4005 98.3722 14.0213C98.1193 13.642 97.6768 13.4524 97.2344 13.642C96.9815 13.7684 96.7287 14.0213 96.6655 14.2741C96.6023 14.527 96.5391 14.843 96.5391 15.1591C96.5391 15.4119 96.5391 15.6647 96.5391 15.9176C96.5391 16.1072 96.5391 16.2968 96.6655 16.4233C96.7919 16.5497 96.9815 16.5497 97.1712 16.4865C97.2976 16.4233 97.424 16.36 97.5504 16.2336Z" fill="#171753" stroke="#171753" stroke-width="0.7" stroke-miterlimit="10"/>
</svg>
