<svg width="133" height="197" viewBox="0 0 133 197" fill="none" xmlns="http://www.w3.org/2000/svg">
<circle opacity="0.8" cx="66.5" cy="130.5" r="66.5" fill="#9BE7C4"/>
<path d="M75.9152 15.6692H24.3279C24.2441 15.6692 24.1636 15.7029 24.1043 15.7628C24.045 15.8228 24.0117 15.9042 24.0117 15.989L24.0611 130.724C23.9885 131.057 24.0338 131.405 24.1891 131.709C24.3443 132.012 24.5998 132.25 24.911 132.382L47.6411 145.664C48.4765 146.046 49.3891 146.226 50.3056 146.188C51.222 146.15 52.1169 145.895 52.9184 145.444L74.9171 132.602C75.2469 132.454 75.5356 132.226 75.7579 131.939C75.9802 131.651 76.1292 131.313 76.192 130.953V16.029C76.1975 15.9869 76.1947 15.9442 76.1837 15.9032C76.1728 15.8623 76.1539 15.824 76.1281 15.7905C76.1024 15.757 76.0703 15.729 76.0337 15.7082C75.9972 15.6874 75.9569 15.6741 75.9152 15.6692V15.6692Z" fill="#5ED9D1"/>
<path d="M49.974 146.643C49.1002 146.666 48.2355 146.459 47.4638 146.044L24.7437 132.722C24.3627 132.545 24.051 132.245 23.8577 131.868C23.6644 131.492 23.6006 131.061 23.6764 130.644L23.627 15.9492C23.6296 15.7522 23.7088 15.5641 23.8475 15.4257C23.9862 15.2873 24.1733 15.2097 24.3682 15.2097H75.9555C76.1503 15.2097 76.3374 15.2873 76.4761 15.4257C76.6148 15.5641 76.6941 15.7522 76.6967 15.9492V130.964C76.6303 131.395 76.4593 131.804 76.1989 132.153C75.9385 132.501 75.5969 132.779 75.2044 132.962L53.2056 145.804C52.2188 146.363 51.1051 146.652 49.974 146.643V146.643ZM24.4373 16.0991L24.4867 130.794V130.844C24.449 131.087 24.494 131.336 24.6142 131.55C24.7345 131.764 24.9229 131.931 25.1489 132.023L47.8789 145.304C48.6482 145.647 49.4856 145.806 50.3256 145.768C51.1657 145.73 51.9856 145.496 52.7214 145.084L74.7201 132.243C74.9881 132.124 75.225 131.944 75.412 131.717C75.599 131.49 75.731 131.222 75.7973 130.934V16.0991H24.4373Z" fill="#171753"/>
<path d="M76.2231 130.964V15.9992C76.2231 15.9144 76.1898 15.8331 76.1304 15.7731C76.0711 15.7131 75.9907 15.6794 75.9068 15.6794H72.5764L50.123 29.3704V146.204C51.1107 146.193 52.0809 145.94 52.9495 145.464L74.9482 132.613C75.278 132.464 75.5667 132.236 75.789 131.949C76.0113 131.661 76.1603 131.323 76.2231 130.964V130.964Z" fill="#171753"/>
<path d="M47.6704 30.3894L24.9404 17.0981C23.5865 16.3087 23.7544 14.9296 25.3159 14.0202L47.3146 1.17862C48.1144 0.727708 49.0076 0.472907 49.9225 0.434721C50.8374 0.396536 51.7483 0.576032 52.5821 0.95876L75.3121 14.24C76.666 15.0295 76.498 16.4086 74.9366 17.318L52.9477 30.1695C52.1462 30.6206 51.2514 30.8754 50.3349 30.9136C49.4184 30.9517 48.5059 30.7722 47.6704 30.3894V30.3894Z" fill="#5ED9D1"/>
<path d="M52.9477 30.3897L74.9464 17.5382C75.0391 17.484 75.1282 17.424 75.2133 17.3583L52.5623 4.13698C51.7285 3.75425 50.8175 3.57476 49.9027 3.61294C48.9878 3.65113 48.0946 3.90593 47.2948 4.35684L25.2961 17.1984C25.1973 17.2584 25.1182 17.3283 25.0293 17.3883L47.6704 30.6096C48.5059 30.9924 49.4184 31.1719 50.3349 31.1337C51.2513 31.0956 52.1462 30.8407 52.9477 30.3897V30.3897Z" fill="#ECFFFE"/>
<path d="M49.974 31.3489C49.107 31.3818 48.2461 31.1891 47.4737 30.7893L24.7437 17.498C24.4238 17.3423 24.1513 17.1024 23.9548 16.8035C23.7583 16.5046 23.6451 16.1576 23.627 15.7991C23.6706 15.3448 23.8314 14.9101 24.0933 14.5383C24.3552 14.1665 24.7089 13.8707 25.1192 13.6805L47.0883 0.80899C47.9519 0.318547 48.9185 0.0428297 49.9083 0.00460229C50.8981 -0.0336251 51.8826 0.166732 52.7807 0.589133L75.5107 13.8704C75.832 14.0269 76.1055 14.2683 76.3021 14.5692C76.4987 14.87 76.6111 15.2191 76.6275 15.5793C76.586 16.0317 76.4271 16.4649 76.1668 16.8352C75.9064 17.2055 75.554 17.4996 75.1451 17.6879L53.1562 30.5394C52.1814 31.0799 51.0858 31.3586 49.974 31.3489V31.3489ZM50.2804 0.85896C49.3121 0.84875 48.3569 1.08592 47.5034 1.5485L25.5046 14.3901C24.8227 14.7898 24.4274 15.2895 24.4274 15.7692C24.4447 15.9841 24.519 16.1904 24.6425 16.3663C24.766 16.5422 24.9341 16.6811 25.1291 16.7685L47.8592 30.0598C48.6285 30.403 49.4659 30.5617 50.3059 30.5236C51.1459 30.4854 51.9658 30.2515 52.7016 29.8399L74.7102 16.9884C75.3921 16.5886 75.7874 16.0889 75.7874 15.6192C75.7672 15.4052 75.6917 15.2002 75.5686 15.0248C75.4455 14.8495 75.279 14.7099 75.0858 14.6199L52.3558 1.33864C51.716 1.0016 51.0014 0.836425 50.2804 0.85896V0.85896Z" fill="#171753"/>
<path d="M40.2102 21.2255L33.6382 17.358C33.2429 17.1282 33.2923 16.7184 33.7469 16.4586L40.1509 12.721C40.3826 12.5881 40.6422 12.5124 40.9085 12.5003C41.1747 12.4881 41.44 12.5398 41.6827 12.6511L48.3139 16.5186C48.6993 16.7484 48.6499 17.1581 48.2052 17.418L41.8013 21.1555C41.5616 21.2969 41.2915 21.3771 41.0143 21.3893C40.7371 21.4015 40.4611 21.3452 40.2102 21.2255V21.2255Z" fill="#5ED9D1"/>
<path d="M40.7625 20.2861C40.4565 20.2926 40.1539 20.2204 39.883 20.0763L33.2616 16.2088C33.1218 16.1367 33.0033 16.0284 32.9183 15.895C32.8332 15.7616 32.7846 15.6079 32.7773 15.4493C32.7907 15.2629 32.8525 15.0833 32.9567 14.9288C33.0608 14.7744 33.2035 14.6505 33.3703 14.5699L39.7742 10.8024C40.0739 10.6303 40.4107 10.5348 40.7551 10.5244C41.0996 10.5139 41.4414 10.5888 41.7508 10.7424L48.3721 14.6099C48.5113 14.6791 48.6291 14.7856 48.7127 14.9177C48.7963 15.0498 48.8426 15.2026 48.8465 15.3594C48.8405 15.5465 48.7827 15.7281 48.6796 15.8836C48.5765 16.0391 48.4323 16.1621 48.2634 16.2388L41.8595 19.9763C41.5283 20.1782 41.1491 20.2852 40.7625 20.2861V20.2861ZM40.8514 11.412C40.621 11.4091 40.3936 11.464 40.1893 11.5719L33.7854 15.3094C33.6668 15.3794 33.6272 15.4393 33.6272 15.4593L40.3079 19.3368C40.4855 19.4109 40.6775 19.4431 40.8693 19.431C41.0611 19.4188 41.2476 19.3627 41.4147 19.2668L47.8187 15.5293C47.8872 15.4958 47.9453 15.4439 47.9867 15.3794L41.3061 11.5119C41.166 11.4384 41.009 11.4039 40.8514 11.412V11.412Z" fill="#171753"/>
<path d="M41.66 13.1849L37.3379 15.7083L37.7579 16.4439L42.08 13.9205L41.66 13.1849Z" fill="#171753"/>
<path d="M30.5353 19.8667H29.6953V125.347H30.5353V19.8667Z" fill="#171753"/>
<path d="M36.1486 23.814H35.3086V128.485H36.1486V23.814Z" fill="#171753"/>
<path d="M41.7717 26.6421H40.9316V132.123H41.7717V26.6421Z" fill="#171753"/>
<path d="M71.676 27.3015H70.8359V132.782H71.676V27.3015Z" fill="#5ED9D1"/>
<path d="M66.0627 31.249H65.2227V135.92H66.0627V31.249Z" fill="#5ED9D1"/>
<path d="M60.4396 34.0771H59.5996V139.558H60.4396V34.0771Z" fill="#5ED9D1"/>
<path d="M105.839 154.852L85.9029 166.358C85.1787 166.778 84.3562 167 83.5188 167C82.6815 167 81.859 166.778 81.1347 166.358L61.0365 154.762C60.822 154.635 60.6441 154.455 60.5206 154.239C60.397 154.023 60.332 153.778 60.332 153.529C60.332 153.28 60.397 153.036 60.5206 152.819C60.6441 152.603 60.822 152.423 61.0365 152.297L80.496 141.069C81.4136 140.534 82.4567 140.252 83.5188 140.252C84.581 140.252 85.6241 140.534 86.5417 141.069L105.839 152.207C106.071 152.341 106.263 152.534 106.397 152.766C106.53 152.998 106.6 153.261 106.6 153.529C106.6 153.797 106.53 154.06 106.397 154.292C106.263 154.524 106.071 154.717 105.839 154.852Z" fill="#DEDEDE"/>
<path d="M101.575 113.108H59.3725C59.3033 113.108 59.237 113.135 59.188 113.184C59.1391 113.233 59.1116 113.299 59.1116 113.369V147.843C59.0545 148.113 59.0933 148.395 59.2214 148.64C59.3494 148.884 59.5588 149.077 59.8134 149.184L78.4362 159.98C79.1185 160.289 79.8638 160.434 80.6123 160.403C81.3608 160.371 82.0915 160.165 82.7456 159.8L100.739 149.409C101.008 149.289 101.245 149.105 101.427 148.873C101.609 148.641 101.731 148.368 101.782 148.077V113.369C101.784 113.308 101.764 113.248 101.726 113.201C101.688 113.153 101.635 113.12 101.575 113.108Z" fill="#5ED9D1"/>
<path d="M80.3515 160.753C79.6283 160.775 78.9118 160.608 78.2733 160.268L59.6595 149.472C59.3389 149.33 59.0757 149.084 58.9124 148.773C58.7491 148.463 58.6954 148.107 58.7598 147.762L58.7148 113.324C58.7172 113.153 58.7865 112.991 58.9077 112.871C59.0289 112.752 59.1923 112.685 59.3626 112.685H101.565C101.65 112.684 101.734 112.699 101.813 112.731C101.891 112.762 101.963 112.809 102.023 112.869C102.083 112.928 102.131 112.999 102.164 113.077C102.196 113.155 102.213 113.239 102.213 113.324V147.987C102.162 148.345 102.023 148.685 101.807 148.975C101.592 149.266 101.308 149.498 100.981 149.652L82.9875 160.043C82.1842 160.502 81.2766 160.746 80.3515 160.753V160.753ZM59.4975 113.522V147.924C59.468 148.11 59.5027 148.301 59.5959 148.464C59.6891 148.628 59.8353 148.755 60.0103 148.824L78.6332 159.575C79.2586 159.846 79.9375 159.972 80.6186 159.942C81.2997 159.912 81.9652 159.728 82.5647 159.404L100.558 149.004C100.77 148.91 100.957 148.769 101.105 148.591C101.254 148.413 101.359 148.204 101.412 147.978V113.522H59.4975Z" fill="#171753"/>
<path d="M67.5582 134.582C67.4029 134.579 67.251 134.536 67.1174 134.456L63.6807 132.468C63.4349 132.304 63.2332 132.082 63.0936 131.822C62.9539 131.561 62.8806 131.27 62.88 130.975V125.136C62.8666 124.974 62.8972 124.812 62.9685 124.666C63.0397 124.521 63.1491 124.397 63.2849 124.308C63.4042 124.24 63.539 124.205 63.6762 124.205C63.8134 124.205 63.9483 124.24 64.0676 124.308L67.5043 126.297C67.7501 126.461 67.9518 126.683 68.0914 126.943C68.2311 127.204 68.3044 127.494 68.3049 127.79V133.629C68.3183 133.79 68.2878 133.953 68.2165 134.098C68.1453 134.244 68.0359 134.368 67.9001 134.456C67.7983 134.526 67.6808 134.569 67.5582 134.582V134.582ZM63.6717 124.992C63.6717 124.992 63.6717 125.037 63.6717 125.136V130.975C63.6761 131.135 63.7164 131.293 63.7895 131.436C63.8627 131.58 63.9669 131.705 64.0946 131.802L67.5312 133.791C67.5312 133.791 67.5312 133.728 67.5312 133.656V127.826C67.522 127.668 67.4785 127.514 67.404 127.374C67.3295 127.234 67.2255 127.112 67.0994 127.016L63.6537 125.028C63.6537 125.028 63.6807 124.992 63.6717 124.992Z" fill="#171753"/>
<path d="M67.5582 134.582C67.4029 134.579 67.251 134.536 67.1174 134.456L63.6807 132.468C63.4349 132.304 63.2332 132.082 63.0936 131.822C62.9539 131.561 62.8806 131.27 62.88 130.975V125.136C62.8666 124.974 62.8972 124.812 62.9685 124.666C63.0397 124.521 63.1491 124.397 63.2849 124.308C63.4042 124.24 63.539 124.205 63.6762 124.205C63.8134 124.205 63.9483 124.24 64.0676 124.308L65.2281 124.974V130.057C65.2302 130.217 65.2685 130.375 65.3401 130.518C65.4118 130.662 65.515 130.787 65.642 130.885V130.885L68.3409 132.423V133.629C68.3543 133.79 68.3238 133.953 68.2525 134.098C68.1812 134.244 68.0719 134.368 67.9361 134.456C67.8239 134.532 67.6933 134.575 67.5582 134.582V134.582ZM63.6717 124.992C63.6717 124.992 63.6717 125.037 63.6717 125.136V130.975C63.6761 131.135 63.7164 131.293 63.7895 131.436C63.8627 131.58 63.9669 131.705 64.0946 131.802L67.5312 133.791C67.5312 133.836 67.5312 133.791 67.5312 133.665V132.909L65.3001 131.587C65.0542 131.422 64.8526 131.2 64.7129 130.94C64.5733 130.679 64.4999 130.389 64.4994 130.093V125.46L63.7257 125.01C63.7257 125.01 63.6807 124.992 63.6717 124.992Z" fill="#171753"/>
<path d="M74.8551 138.712C74.7036 138.71 74.5551 138.67 74.4233 138.595L70.9776 136.607C70.735 136.439 70.5358 136.216 70.3965 135.957C70.2573 135.697 70.182 135.408 70.1769 135.113V129.274C70.1635 129.113 70.194 128.95 70.2653 128.805C70.3366 128.659 70.4459 128.535 70.5817 128.447C70.6994 128.374 70.8349 128.336 70.9731 128.336C71.1113 128.336 71.2467 128.374 71.3644 128.447L74.8101 130.435C75.056 130.599 75.2576 130.821 75.3973 131.082C75.5369 131.342 75.6103 131.633 75.6108 131.928V137.812C75.6226 137.972 75.5912 138.133 75.52 138.277C75.4488 138.421 75.3404 138.543 75.206 138.631C75.0983 138.689 74.9772 138.717 74.8551 138.712V138.712ZM74.8551 137.929C74.8551 137.929 74.8551 137.866 74.8551 137.794V131.955C74.8525 131.794 74.814 131.635 74.7424 131.49C74.6708 131.346 74.5679 131.219 74.4412 131.119L70.9956 129.139C70.9956 129.094 70.9956 129.139 70.9956 129.265V135.113C70.9995 135.273 71.0386 135.43 71.1102 135.573C71.1817 135.716 71.2839 135.842 71.4094 135.941L74.8551 137.929Z" fill="#171753"/>
<path d="M74.8551 138.712C74.7036 138.71 74.5551 138.67 74.4233 138.595L70.9776 136.607C70.735 136.439 70.5358 136.216 70.3965 135.957C70.2573 135.697 70.182 135.408 70.1769 135.113V129.274C70.1635 129.113 70.194 128.95 70.2653 128.805C70.3366 128.659 70.4459 128.535 70.5817 128.447C70.6994 128.374 70.8349 128.336 70.9731 128.336C71.1113 128.336 71.2467 128.374 71.3644 128.447L72.525 129.112V134.213C72.529 134.373 72.568 134.53 72.6396 134.673C72.7111 134.817 72.8133 134.942 72.9388 135.041V135.041L75.6378 136.58V137.812C75.6495 137.972 75.6182 138.133 75.547 138.277C75.4758 138.421 75.3673 138.543 75.2329 138.631C75.1174 138.694 74.9862 138.722 74.8551 138.712ZM70.9776 129.13C70.9776 129.13 70.9776 129.175 70.9776 129.274V135.113C70.9815 135.273 71.0207 135.43 71.0922 135.573C71.1637 135.716 71.2659 135.842 71.3914 135.941L74.8371 137.929C74.8371 137.929 74.8371 137.929 74.8371 137.803V137.038L72.561 135.725C72.3151 135.561 72.1135 135.339 71.9738 135.078C71.8342 134.818 71.7608 134.527 71.7603 134.231V129.598L70.9776 129.148V129.13Z" fill="#171753"/>
<path d="M74.8544 150.605C74.7013 150.606 74.5513 150.562 74.4226 150.479L70.9769 148.491C70.7311 148.327 70.5294 148.105 70.3898 147.844C70.2501 147.584 70.1768 147.293 70.1762 146.997V141.159C70.1645 140.998 70.1958 140.838 70.267 140.694C70.3382 140.55 70.4466 140.428 70.5811 140.34C70.6994 140.269 70.8346 140.232 70.9724 140.232C71.1102 140.232 71.2454 140.269 71.3638 140.34L74.8094 142.328C75.052 142.495 75.2512 142.718 75.3905 142.978C75.5297 143.238 75.605 143.527 75.6102 143.822V149.66C75.6235 149.822 75.593 149.984 75.5217 150.13C75.4504 150.276 75.3411 150.399 75.2053 150.488C75.1013 150.558 74.9799 150.599 74.8544 150.605V150.605ZM70.9769 141.024C70.9769 141.024 70.9769 141.069 70.9769 141.159V146.997C70.9795 147.159 71.018 147.318 71.0896 147.462C71.1612 147.607 71.264 147.734 71.3907 147.834L74.8364 149.813C74.8364 149.813 74.8364 149.741 74.8364 149.669V143.831C74.8325 143.671 74.7933 143.514 74.7218 143.371C74.6503 143.227 74.5482 143.102 74.4226 143.003L70.9769 141.015V141.024Z" fill="#171753"/>
<path d="M74.8544 150.605C74.7013 150.606 74.5513 150.562 74.4226 150.479L70.9769 148.491C70.7311 148.327 70.5294 148.105 70.3898 147.844C70.2501 147.584 70.1768 147.293 70.1762 146.997V141.159C70.1645 140.998 70.1958 140.838 70.267 140.694C70.3382 140.55 70.4466 140.428 70.5811 140.34C70.6994 140.269 70.8346 140.232 70.9724 140.232C71.1102 140.232 71.2454 140.269 71.3638 140.34L72.5243 141.015V146.098C72.5283 146.258 72.5674 146.415 72.6389 146.558C72.7104 146.701 72.8126 146.826 72.9382 146.925L75.6371 148.464V149.66C75.6505 149.822 75.62 149.984 75.5487 150.13C75.4774 150.276 75.3681 150.399 75.2323 150.488C75.1206 150.563 74.9891 150.604 74.8544 150.605V150.605ZM70.9769 141.024C70.9769 141.024 70.9769 141.069 70.9769 141.159V146.997C70.9795 147.159 71.018 147.318 71.0896 147.462C71.1612 147.607 71.264 147.734 71.3907 147.834L74.8364 149.813C74.8364 149.813 74.8364 149.813 74.8364 149.687V148.932L72.5603 147.618C72.3145 147.454 72.1128 147.232 71.9732 146.972C71.8335 146.711 71.7602 146.42 71.7596 146.125V141.482L70.9769 141.033V141.024Z" fill="#171753"/>
<path d="M101.826 148.032V113.368C101.824 113.301 101.795 113.237 101.747 113.19C101.698 113.143 101.633 113.116 101.565 113.116H98.8662L80.4863 124.191V160.366C81.2945 160.355 82.0879 160.149 82.7984 159.763L100.792 149.373C101.061 149.251 101.296 149.065 101.476 148.832C101.657 148.598 101.777 148.323 101.826 148.032V148.032Z" fill="#171753"/>
<path d="M78.4712 125.019L59.8484 114.268C58.7418 113.629 58.8857 112.469 60.1633 111.776L78.1563 101.385C78.8104 101.02 79.5411 100.813 80.2896 100.782C81.038 100.751 81.7834 100.896 82.4657 101.205L101.089 111.956C102.195 112.595 102.051 113.755 100.774 114.448L82.7805 124.839C82.1264 125.204 81.3957 125.411 80.6473 125.442C79.8988 125.473 79.1535 125.328 78.4712 125.019Z" fill="#5ED9D1"/>
<path d="M82.7809 124.749L99.8743 114.853L82.4751 104.795C81.7928 104.485 81.0474 104.341 80.299 104.372C79.5505 104.403 78.8198 104.61 78.1657 104.975L61.0723 114.871L78.5076 124.938C79.1857 125.24 79.9249 125.38 80.6665 125.348C81.4082 125.315 82.1321 125.11 82.7809 124.749V124.749Z" fill="#ECFFFE"/>
<path d="M80.3514 125.838C79.6314 125.856 78.9188 125.689 78.2822 125.352L59.6594 114.556C59.398 114.421 59.177 114.219 59.019 113.971C58.861 113.723 58.7715 113.438 58.7598 113.144C58.7961 112.77 58.9299 112.412 59.1477 112.105C59.3656 111.799 59.6598 111.555 60.0013 111.398L77.9943 101.007C78.7066 100.607 79.5041 100.381 80.3207 100.35C81.1374 100.319 81.9497 100.482 82.6906 100.827L101.286 111.623C101.548 111.758 101.769 111.96 101.927 112.208C102.085 112.456 102.174 112.742 102.186 113.036C102.15 113.41 102.016 113.768 101.798 114.074C101.58 114.38 101.286 114.624 100.945 114.781L82.9514 125.172C82.1546 125.609 81.2603 125.838 80.3514 125.838ZM80.6034 101.16C79.8184 101.152 79.0442 101.344 78.3542 101.718L60.3611 112.109C59.8214 112.424 59.4615 112.82 59.4615 113.189C59.4766 113.351 59.5357 113.507 59.6323 113.638C59.729 113.77 59.8597 113.872 60.0103 113.935L78.6331 124.686C79.2583 124.96 79.938 125.086 80.6198 125.055C81.3016 125.024 81.9671 124.836 82.5646 124.506L100.558 114.115C101.097 113.8 101.457 113.396 101.457 113.036C101.441 112.872 101.381 112.716 101.283 112.584C101.184 112.453 101.052 112.351 100.9 112.289L82.2857 101.538C81.7629 101.271 81.181 101.141 80.5944 101.16H80.6034Z" fill="#171753"/>
<path d="M94.5578 107.556H66.3807C66.3345 107.559 66.291 107.579 66.2592 107.612C66.2274 107.646 66.2097 107.69 66.2097 107.736V112.307C66.1701 112.488 66.1952 112.677 66.2807 112.841C66.3662 113.006 66.5066 113.135 66.6775 113.206L79.1107 120.403C79.5664 120.61 80.0642 120.707 80.5641 120.687C81.064 120.667 81.5523 120.53 81.9896 120.287L94.009 113.35C94.189 113.268 94.3463 113.143 94.467 112.986C94.5877 112.829 94.6683 112.646 94.7017 112.451V107.754C94.7071 107.709 94.6953 107.664 94.6686 107.627C94.6419 107.59 94.6024 107.565 94.5578 107.556V107.556Z" fill="#5ED9D1"/>
<path d="M80.3874 121.052C79.8834 121.063 79.3849 120.945 78.939 120.71L66.5148 113.513C66.2799 113.404 66.0874 113.22 65.967 112.991C65.8467 112.762 65.8052 112.499 65.849 112.244V107.746C65.849 107.598 65.9078 107.456 66.0124 107.351C66.117 107.247 66.2589 107.188 66.4068 107.188H94.584C94.6568 107.187 94.7291 107.2 94.7967 107.227C94.8644 107.254 94.9259 107.294 94.9778 107.346C95.0297 107.397 95.071 107.458 95.0991 107.525C95.1273 107.592 95.1417 107.664 95.1417 107.737V112.442C95.1055 112.705 95.0043 112.954 94.8472 113.168C94.6901 113.382 94.4821 113.553 94.2421 113.666L82.2227 120.602C81.6604 120.909 81.0279 121.064 80.3874 121.052ZM66.5957 107.944V112.352V112.397C66.5957 112.577 66.6497 112.73 66.8836 112.865L79.3169 120.062C79.7133 120.235 80.1443 120.315 80.5765 120.295C81.0087 120.274 81.4304 120.155 81.8089 119.945L93.8283 113.009C94.1342 112.829 94.3231 112.613 94.3411 112.424V107.926L66.5957 107.944Z" fill="#171753"/>
<path d="M94.7271 112.433V107.736C94.7271 107.713 94.7224 107.69 94.7133 107.669C94.7041 107.647 94.6907 107.628 94.6739 107.612C94.6571 107.596 94.6371 107.584 94.6153 107.576C94.5935 107.568 94.5704 107.564 94.5472 107.565H92.7479L80.4766 114.961V120.664C81.017 120.653 81.5472 120.514 82.024 120.26L94.0434 113.323C94.221 113.241 94.3761 113.118 94.4952 112.962C94.6143 112.807 94.694 112.625 94.7271 112.433Z" fill="#171753"/>
<path d="M79.1372 115.51L66.7039 108.312C65.9662 107.89 66.0562 107.143 66.9109 106.648L78.9303 99.7117C79.3676 99.4687 79.8558 99.3315 80.3558 99.3112C80.8557 99.2909 81.3535 99.388 81.8091 99.5948L94.2423 106.792C94.98 107.215 94.8811 107.962 94.0354 108.447L82.0161 115.393C81.578 115.634 81.0899 115.77 80.5904 115.79C80.0908 115.81 79.5933 115.714 79.1372 115.51V115.51Z" fill="#5ED9D1"/>
<path d="M78.93 102.285L67.4863 108.888L79.1369 115.617C79.5932 115.823 80.0913 115.918 80.5913 115.897C81.0912 115.875 81.5791 115.736 82.0158 115.491L93.4593 108.888L81.8088 102.159C81.3525 101.953 80.8543 101.858 80.3544 101.88C79.8544 101.901 79.3666 102.04 78.93 102.285Z" fill="#ECFFFE"/>
<path d="M80.3877 116.22C79.8838 116.23 79.3856 116.112 78.9392 115.878V115.878L66.515 108.681C66.3143 108.586 66.1436 108.437 66.0215 108.252C65.8993 108.066 65.8304 107.851 65.8223 107.629C65.8463 107.355 65.9422 107.093 66.1002 106.869C66.2582 106.644 66.4727 106.466 66.7219 106.351L78.7323 99.4148C79.2288 99.1389 79.7835 98.9845 80.3511 98.9642C80.9187 98.9439 81.4831 99.0582 81.9981 99.2978L94.4313 106.495C94.6308 106.592 94.8004 106.741 94.9223 106.926C95.0443 107.111 95.1139 107.326 95.124 107.548C95.0985 107.819 95.0019 108.08 94.844 108.302C94.6861 108.525 94.4724 108.702 94.2244 108.816L82.205 115.761C81.6472 116.064 81.0223 116.222 80.3877 116.22V116.22ZM79.3261 115.213C79.7226 115.386 80.1536 115.466 80.5858 115.445C81.0179 115.425 81.4396 115.305 81.8181 115.096L93.8375 108.123C94.1524 107.943 94.3503 107.71 94.3503 107.521C94.3503 107.332 94.1614 107.197 94.0444 107.134L81.6202 99.9366C81.2222 99.7632 80.7897 99.6836 80.3561 99.7039C79.9224 99.7241 79.4992 99.8438 79.1191 100.054L67.0998 106.999C66.7849 107.188 66.587 107.413 66.587 107.611C66.587 107.809 66.7849 107.934 66.8929 107.997L79.3261 115.195V115.213Z" fill="#171753"/>
<path d="M93.4955 134.924C93.3882 134.925 93.2826 134.897 93.1896 134.843C93.0709 134.76 92.9761 134.648 92.9145 134.517C92.853 134.386 92.8268 134.241 92.8388 134.096V128.258C92.8474 127.982 92.9193 127.712 93.0487 127.469C93.1782 127.226 93.3618 127.015 93.5855 126.854L97.0312 124.866C97.1348 124.805 97.2528 124.773 97.373 124.773C97.4932 124.773 97.6113 124.805 97.7149 124.866C97.8346 124.948 97.9307 125.061 97.9938 125.192C98.0569 125.323 98.0848 125.468 98.0747 125.613V131.451C98.0693 131.729 97.9979 132 97.8665 132.244C97.7351 132.489 97.5474 132.698 97.3191 132.855L93.8824 134.843C93.7619 134.901 93.6291 134.929 93.4955 134.924V134.924ZM97.418 125.325C97.3855 125.317 97.3516 125.317 97.3191 125.325L93.8824 127.313C93.7414 127.418 93.626 127.553 93.545 127.709C93.464 127.865 93.4194 128.037 93.4145 128.213V134.051C93.4145 134.222 93.4145 134.285 93.4775 134.294C93.5405 134.303 93.5315 134.294 93.5945 134.294L97.0312 132.306C97.1721 132.201 97.2875 132.066 97.3685 131.91C97.4496 131.754 97.4941 131.582 97.499 131.406V125.577C97.499 125.415 97.499 125.343 97.427 125.334L97.418 125.325Z" fill="#5ED9D1"/>
<path d="M93.4955 134.924C93.3882 134.925 93.2826 134.897 93.1896 134.843C93.0709 134.761 92.9761 134.648 92.9145 134.517C92.853 134.386 92.8268 134.241 92.8388 134.097V132.738L95.4028 131.254C95.5438 131.149 95.6591 131.014 95.7402 130.858C95.8212 130.702 95.8658 130.53 95.8706 130.354V125.541L97.0312 124.875C97.1348 124.814 97.2528 124.782 97.373 124.782C97.4932 124.782 97.6113 124.814 97.7149 124.875C97.8346 124.958 97.9307 125.07 97.9938 125.201C98.0569 125.332 98.0848 125.477 98.0747 125.622V131.461C98.0693 131.738 97.9979 132.01 97.8665 132.254C97.7351 132.498 97.5474 132.707 97.3191 132.864L93.8824 134.852C93.7611 134.907 93.6284 134.932 93.4955 134.924V134.924ZM93.4145 133.071V134.097C93.4145 134.268 93.4145 134.331 93.4775 134.34C93.5405 134.349 93.5315 134.34 93.5945 134.34L97.0312 132.351C97.1721 132.247 97.2875 132.111 97.3685 131.955C97.4496 131.799 97.4941 131.627 97.499 131.452V125.577C97.499 125.415 97.499 125.343 97.427 125.334C97.355 125.325 97.382 125.334 97.3191 125.334L96.4194 125.838V130.336C96.4111 130.614 96.3385 130.886 96.2074 131.131C96.0763 131.376 95.8902 131.588 95.6637 131.749L93.4145 133.071Z" fill="#5ED9D1"/>
<path d="M85.5513 150.821C85.4481 150.821 85.3463 150.796 85.2544 150.749C85.1347 150.667 85.0386 150.554 84.9755 150.423C84.9124 150.292 84.8845 150.147 84.8946 150.002V144.164C84.9029 143.886 84.9754 143.614 85.1065 143.369C85.2376 143.124 85.4238 142.912 85.6503 142.751L89.0959 140.763C89.1993 140.701 89.3174 140.668 89.4378 140.668C89.5582 140.668 89.6764 140.701 89.7797 140.763C89.899 140.843 89.9945 140.954 90.0563 141.084C90.118 141.213 90.1436 141.358 90.1305 141.501V147.339C90.1275 147.617 90.0582 147.89 89.9283 148.136C89.7984 148.382 89.6118 148.593 89.3838 148.752V148.752L85.9382 150.74C85.8181 150.799 85.685 150.827 85.5513 150.821ZM89.4738 141.231H89.3838L85.9382 143.219C85.7986 143.325 85.6842 143.461 85.6034 143.616C85.5225 143.772 85.477 143.943 85.4703 144.119V149.957C85.4703 150.128 85.5243 150.191 85.5423 150.2C85.5603 150.209 85.5423 150.2 85.6503 150.2L89.0959 148.221C89.2329 148.113 89.3449 147.977 89.4241 147.822C89.5033 147.666 89.5479 147.496 89.5548 147.321V141.483C89.5653 141.397 89.5428 141.31 89.4918 141.24L89.4738 141.231Z" fill="#5ED9D1"/>
<path d="M85.5513 150.821C85.4481 150.82 85.3463 150.796 85.2544 150.749C85.1347 150.666 85.0386 150.554 84.9755 150.423C84.9124 150.292 84.8845 150.147 84.8946 150.002V148.608L87.4676 147.123C87.6055 147.016 87.7181 146.88 87.7974 146.725C87.8767 146.569 87.9207 146.398 87.9264 146.223V141.41L89.0959 140.736C89.1993 140.674 89.3174 140.641 89.4378 140.641C89.5582 140.641 89.6764 140.674 89.7797 140.736C89.899 140.816 89.9945 140.927 90.0563 141.056C90.118 141.186 90.1436 141.33 90.1305 141.473V147.312C90.1275 147.59 90.0582 147.863 89.9283 148.109C89.7984 148.354 89.6118 148.566 89.3838 148.725L85.9382 150.713C85.8206 150.781 85.6874 150.819 85.5513 150.821ZM85.4703 148.976V150.002C85.4703 150.155 85.5153 150.236 85.5423 150.245C85.5772 150.257 85.6153 150.257 85.6503 150.245L89.0959 148.257C89.2329 148.149 89.3449 148.013 89.4241 147.857C89.5033 147.702 89.5479 147.531 89.5548 147.357V141.518C89.5653 141.432 89.5428 141.345 89.4918 141.275C89.4564 141.266 89.4192 141.266 89.3838 141.275L88.4842 141.779V146.277C88.4812 146.555 88.4118 146.828 88.2819 147.074C88.152 147.32 87.9654 147.531 87.7375 147.69L85.4703 148.976Z" fill="#5ED9D1"/>
<path d="M93.4955 146.53C93.389 146.534 93.2833 146.509 93.1896 146.458C93.0709 146.375 92.9761 146.262 92.9145 146.131C92.853 146 92.8268 145.855 92.8388 145.711V139.872C92.8442 139.595 92.9156 139.323 93.047 139.079C93.1784 138.835 93.3661 138.626 93.5945 138.469L97.0312 136.481C97.1348 136.42 97.2528 136.388 97.373 136.388C97.4932 136.388 97.6113 136.42 97.7149 136.481C97.8339 136.562 97.9296 136.672 97.9927 136.802C98.0558 136.931 98.0841 137.075 98.0747 137.218V143.057C98.0707 143.336 98 143.609 97.8685 143.855C97.737 144.101 97.5486 144.312 97.3191 144.47L93.8824 146.458C93.7613 146.513 93.6284 146.538 93.4955 146.53ZM97.418 136.913C97.3855 136.905 97.3516 136.905 97.3191 136.913L93.8824 138.901C93.7414 139.006 93.626 139.141 93.545 139.297C93.464 139.453 93.4194 139.625 93.4145 139.8V145.639C93.4145 145.81 93.4145 145.873 93.4775 145.882C93.5405 145.891 93.5315 145.882 93.5945 145.882L97.0312 143.894C97.1717 143.789 97.2866 143.653 97.3676 143.497C97.4486 143.342 97.4935 143.17 97.499 142.994V137.182C97.499 137.03 97.499 136.958 97.427 136.949L97.418 136.913Z" fill="#5ED9D1"/>
<path d="M93.4955 146.53C93.389 146.534 93.2833 146.509 93.1896 146.458C93.0709 146.375 92.9761 146.262 92.9145 146.131C92.853 146 92.8268 145.855 92.8388 145.711V144.352L95.4028 142.868C95.5438 142.763 95.6591 142.628 95.7402 142.472C95.8212 142.316 95.8658 142.144 95.8706 141.968V137.155L97.0312 136.49C97.1348 136.429 97.2528 136.396 97.373 136.396C97.4932 136.396 97.6113 136.429 97.7149 136.49C97.8339 136.571 97.9296 136.681 97.9927 136.811C98.0558 136.94 98.0841 137.084 98.0747 137.227V143.066C98.0707 143.345 98 143.618 97.8685 143.864C97.737 144.11 97.5486 144.32 97.3191 144.478L93.8824 146.467C93.7605 146.519 93.6277 146.541 93.4955 146.53V146.53ZM93.4145 144.685V145.711C93.4145 145.882 93.4145 145.945 93.4775 145.954C93.5405 145.963 93.5315 145.954 93.5945 145.954L97.0312 143.966C97.1717 143.86 97.2866 143.725 97.3676 143.569C97.4486 143.413 97.4935 143.241 97.499 143.066V137.182C97.499 137.029 97.499 136.957 97.427 136.948C97.355 136.939 97.382 136.948 97.3191 136.948L96.4194 137.452V141.95C96.4139 142.228 96.3426 142.499 96.2111 142.743C96.0797 142.987 95.892 143.197 95.6637 143.354L93.4145 144.685Z" fill="#5ED9D1"/>
</svg>
