<svg width="214" height="164" viewBox="0 0 214 164" fill="none" xmlns="http://www.w3.org/2000/svg">
<path d="M66.9116 79.6264V81.0941L68.2774 80.5571C72.42 78.9286 75.8903 79.3233 78.2915 81.1533C80.7112 82.9974 82.2962 86.4884 82.2352 91.5739L82.2352 91.5739V91.5859V91.8404C82.2352 97.4753 80.2472 103.761 77.0029 109.375C73.7587 114.989 69.3119 119.839 64.4939 122.657L64.4139 122.704L64.3439 122.765L21.5706 159.831L20.1373 159.004C18.8868 158.282 17.1851 157.3 15.3805 156.258C11.7709 154.175 7.75092 151.853 6.10554 150.9C3.23186 149.234 1.28516 145.578 1.28516 139.933V139.551C1.28516 129.334 7.8255 117.023 16.339 110.577L16.7164 110.291L16.7346 109.818C17.0434 101.815 20.0154 93.0383 24.6524 85.2427C29.2891 77.4477 35.5406 70.7176 42.3246 66.7512C49.2378 62.7834 55.3034 62.4117 59.571 64.7226L73.4709 72.7661L67.2141 74.8613L66.4575 75.1147L66.5366 75.9086C66.5861 76.4065 66.6474 76.8647 66.7059 77.3025C66.8133 78.1058 66.9116 78.8406 66.9116 79.6264Z" fill="#8989C7" stroke="#171753" stroke-width="2"/>
<path d="M83.8637 88.7869C83.2305 73.1378 71.8328 67.0308 57.7756 75.1735C43.7184 83.3161 32.3207 102.655 31.6875 119.067C22.9493 125.683 16.2373 138.279 16.2373 148.839V149.22C16.2373 160.925 24.3423 165.633 34.4736 159.78L81.0776 132.808C91.0823 126.955 99.1873 112.833 99.1873 101.128V100.746C99.1873 90.1864 92.602 85.3517 83.8637 88.7869Z" fill="#ECFFFE" stroke="#171753" stroke-width="2"/>
<path d="M194.681 116.533V118.001L196.047 117.464C198.117 116.65 199.756 116.879 200.851 117.713C201.965 118.562 202.769 120.228 202.738 122.81H202.738V122.822V122.955C202.738 125.815 201.726 129.038 200.05 131.938C198.375 134.837 196.09 137.319 193.644 138.749L193.564 138.796L193.494 138.857L171.259 158.125L170.798 157.859L168.297 156.415C166.399 155.32 164.286 154.1 163.421 153.598C162.109 152.838 161.123 151.112 161.123 148.242V148.041C161.123 142.832 164.481 136.493 168.85 133.185L169.228 132.899L169.246 132.426C169.405 128.315 170.935 123.776 173.343 119.729C175.75 115.682 178.984 112.21 182.465 110.174C186.015 108.137 189.018 108.006 191.064 109.111L197.457 112.81L195.164 113.578L194.407 113.832L194.486 114.625C194.516 114.925 194.55 115.18 194.582 115.415C194.635 115.813 194.681 116.149 194.681 116.533Z" fill="#8989C7" stroke="#171753" stroke-width="2"/>
<path d="M204.068 121.35C203.735 113.122 197.742 109.911 190.35 114.192C182.959 118.473 176.966 128.642 176.633 137.271C172.039 140.75 168.51 147.372 168.51 152.925V153.126C168.51 159.28 172.771 161.755 178.098 158.678L202.603 144.496C207.863 141.419 212.125 133.993 212.125 127.839V127.638C212.125 122.086 208.662 119.544 204.068 121.35Z" fill="#ECFFFE" stroke="#171753" stroke-width="2"/>
<path d="M187.747 9.11294V10.5806L189.113 10.0436C191.184 9.22957 192.823 9.45837 193.918 10.2929C195.031 11.1416 195.835 12.8074 195.804 15.3892H195.804V15.4012V15.535C195.804 18.3946 194.792 21.618 193.117 24.5172C191.441 27.4164 189.157 29.8983 186.711 31.329L186.631 31.3758L186.561 31.4365L164.326 50.7047L163.865 50.4386L161.364 48.9951C159.466 47.8995 157.352 46.6792 156.488 46.178C155.175 45.4174 154.189 43.6917 154.189 40.8218V40.6211C154.189 35.4119 157.547 29.0731 161.917 25.7647L162.294 25.4789L162.312 25.0059C162.471 20.8943 164.002 16.3559 166.409 12.3084C168.816 8.26146 172.05 4.78922 175.531 2.75346C179.081 0.716618 182.084 0.585848 184.13 1.69039L190.523 5.38985L188.23 6.15781L187.473 6.41117L187.552 7.2051C187.582 7.50449 187.617 7.76007 187.648 7.99426C187.702 8.39218 187.747 8.72838 187.747 9.11294Z" fill="#8989C7" stroke="#171753" stroke-width="2"/>
<path d="M197.134 13.9295C196.801 5.7012 190.808 2.49017 183.417 6.77154C176.026 11.0529 170.033 21.2212 169.7 29.8508C165.105 33.3294 161.576 39.9521 161.576 45.5045V45.7052C161.576 51.8597 165.838 54.3349 171.165 51.2576L195.669 37.0756C200.929 33.9984 205.191 26.5729 205.191 20.4184V20.2177C205.191 14.6653 201.728 12.1233 197.134 13.9295Z" fill="#ECFFFE" stroke="#171753" stroke-width="2"/>
</svg>
