<svg width="313" height="120" viewBox="0 0 313 120" fill="none" xmlns="http://www.w3.org/2000/svg">
<path d="M10.8867 12.8184L85.3388 11.9404V84.8121H10.8867V12.8184Z" fill="#5ED9D1"/>
<path d="M12.1066 84.3933L86.0363 84.3018L94.5 94.4999H2.00002" stroke="#5ED9D1" stroke-width="4" stroke-miterlimit="10" stroke-linecap="round" stroke-linejoin="round"/>
<path d="M10.4638 12.1981L85.0358 11.4642L94.5 2H2.00002L10.4638 12.1981Z" stroke="#5ED9D1" stroke-width="4" stroke-miterlimit="10" stroke-linecap="round" stroke-linejoin="round"/>
<path d="M94.5 2.02295H94.4769L88.5514 7.94841L85.1691 11.3308L86.0131 84.3017H86.0363L94.5 94.4998V2.02295Z" stroke="#5ED9D1" stroke-width="4" stroke-miterlimit="10" stroke-linecap="round" stroke-linejoin="round"/>
<path d="M2.00061 2.02295H2.02374L10.4644 12.1979H10.4875L12.0254 84.475L8.75502 87.7454L2.00061 94.4998V2.02295Z" stroke="#5ED9D1" stroke-width="4" stroke-miterlimit="10" stroke-linecap="round" stroke-linejoin="round"/>
<path d="M118.709 12.8184L193.161 11.9404V84.8121H118.709V12.8184Z" fill="#5ED9D1"/>
<path d="M119.929 84.3933L193.859 84.3018L202.322 94.4999H109.822" stroke="#5ED9D1" stroke-width="4" stroke-miterlimit="10" stroke-linecap="round" stroke-linejoin="round"/>
<path d="M118.286 12.1981L192.858 11.4642L202.322 2H109.822L118.286 12.1981Z" stroke="#5ED9D1" stroke-width="4" stroke-miterlimit="10" stroke-linecap="round" stroke-linejoin="round"/>
<path d="M202.322 2.02295H202.299L196.374 7.94841L192.991 11.3308L193.835 84.3017H193.859L202.322 94.4998V2.02295Z" stroke="#5ED9D1" stroke-width="4" stroke-miterlimit="10" stroke-linecap="round" stroke-linejoin="round"/>
<path d="M109.823 2.02295H109.846L118.287 12.1979H118.31L119.848 84.475L116.577 87.7454L109.823 94.4998V2.02295Z" stroke="#5ED9D1" stroke-width="4" stroke-miterlimit="10" stroke-linecap="round" stroke-linejoin="round"/>
<path d="M226.531 12.8184L300.983 11.9404V84.8121H226.531V12.8184Z" fill="#5ED9D1"/>
<path d="M227.751 84.3933L301.681 84.3018L310.145 94.4999H217.645" stroke="#5ED9D1" stroke-width="4" stroke-miterlimit="10" stroke-linecap="round" stroke-linejoin="round"/>
<path d="M226.108 12.1981L300.68 11.4642L310.145 2H217.645L226.108 12.1981Z" stroke="#5ED9D1" stroke-width="4" stroke-miterlimit="10" stroke-linecap="round" stroke-linejoin="round"/>
<path d="M310.145 2.02295H310.121L304.196 7.94841L300.814 11.3308L301.658 84.3017H301.681L310.145 94.4998V2.02295Z" stroke="#5ED9D1" stroke-width="4" stroke-miterlimit="10" stroke-linecap="round" stroke-linejoin="round"/>
<path d="M217.645 2.02295H217.668L226.109 12.1979H226.132L227.67 84.475L224.4 87.7454L217.645 94.4998V2.02295Z" stroke="#5ED9D1" stroke-width="4" stroke-miterlimit="10" stroke-linecap="round" stroke-linejoin="round"/>
<path d="M151.993 114.096C155.415 114.096 158.661 112.861 161.294 110.569L173.928 98.4886C174.454 97.9595 174.718 97.2541 174.63 96.4605C174.542 95.7551 174.103 95.1379 173.489 94.7852C171.208 93.5507 168.751 93.8152 166.295 95.5788L163.926 97.3423L169.804 79.266C170.155 78.2079 169.98 77.0616 169.453 76.1798C168.927 75.2099 167.962 74.5927 166.821 74.4163C165.066 74.1518 163.312 75.2981 162.697 77.0616L160.328 84.2921C159.714 83.5867 158.925 83.1458 158.047 83.0576C156.731 82.8813 155.415 83.4103 154.538 84.5566C153.923 83.7631 153.134 83.234 152.081 83.0576C150.765 82.8813 149.449 83.4103 148.571 84.5566C147.957 83.7631 147.08 83.234 146.115 83.0576C144.36 82.7931 142.605 83.9394 141.991 85.703L138.832 95.4024C137.428 99.8113 138.043 104.573 140.499 108.1C142.868 111.451 146.29 113.479 150.326 113.92C151.028 114.096 151.467 114.096 151.993 114.096Z" fill="#0F0F47"/>
<path d="M163.037 113.191L163.003 113.223L162.968 113.254C159.821 115.995 155.913 117.488 151.787 117.488H151.776C151.208 117.488 150.578 117.488 149.669 117.274C144.866 116.713 140.773 114.26 137.959 110.28L137.959 110.28L137.951 110.269C134.955 105.968 134.258 100.259 135.918 95.0462L135.917 95.0462L135.922 95.0337L139.273 84.742L139.279 84.7227L139.286 84.7035C140.219 82.0229 142.934 80.1375 145.848 80.5767L145.879 80.5814L145.909 80.587C146.709 80.733 147.468 81.0333 148.146 81.4665C149.327 80.7056 150.73 80.3824 152.146 80.5721L152.178 80.5765L152.21 80.5819C153.077 80.727 153.835 81.0303 154.493 81.4559C155.661 80.7083 157.046 80.3882 158.444 80.5679C158.82 80.608 159.183 80.6862 159.531 80.7981L161.244 75.5696L161.249 75.552L161.255 75.5345C162.189 72.8539 164.904 70.9685 167.818 71.4078L167.818 71.4077L167.825 71.4089C169.552 71.676 171.15 72.6372 172.05 74.2665C172.867 75.657 173.146 77.456 172.585 79.1547L168.114 92.903C170.559 91.88 173.113 91.9224 175.546 93.2391L175.569 93.2511L175.59 93.2637C176.743 93.9259 177.613 95.1085 177.789 96.5288L177.791 96.5424L177.793 96.5559C177.953 98.0085 177.457 99.354 176.478 100.338L176.46 100.356L176.442 100.373L163.037 113.191ZM144.925 86.6758L141.59 96.9188C140.457 100.502 140.975 104.228 142.893 106.931C144.826 109.598 147.493 111.222 150.591 111.533L150.615 111.536L150.64 111.539C153.758 111.93 156.804 110.919 159.085 108.875L169.996 98.4459C169.744 98.577 169.467 98.7442 169.162 98.9545L164.544 102.482L164.396 102.595L164.228 102.679C163.951 102.819 163.48 103.027 162.897 103.064C162.311 103.101 161.725 102.958 161.2 102.622L160.603 103.067L160.829 102.372C159.738 101.511 159.72 100.105 159.9 99.3804L159.917 99.3111L159.939 99.2433L167.103 77.2711C167.098 77.2671 167.094 77.2635 167.09 77.2603C167.081 77.2646 167.071 77.2703 167.06 77.2777C167.015 77.309 166.945 77.3787 166.894 77.5071L161.508 94.0274L161.488 94.0879L161.465 94.147C160.925 95.5025 159.279 96.4791 157.65 95.8245C156.31 95.2856 155.367 93.6775 155.951 92.088L157.794 86.44C157.789 86.436 157.784 86.4325 157.78 86.4293C157.771 86.4336 157.762 86.4393 157.751 86.4467C157.705 86.4781 157.636 86.548 157.585 86.6769L155.177 94.0299L155.158 94.0891L155.135 94.147C154.595 95.5025 152.949 96.4791 151.32 95.8245C149.98 95.2856 149.037 93.6775 149.621 92.088L151.463 86.44C151.449 86.428 151.438 86.4199 151.43 86.4146C151.428 86.4134 151.427 86.4124 151.425 86.4115C151.406 86.4292 151.382 86.455 151.355 86.4908C151.318 86.5417 151.282 86.6053 151.254 86.6786L148.845 93.9435L148.826 93.9991L148.804 94.0535C148.265 95.409 146.618 96.3855 144.99 95.7309C143.648 95.1914 142.704 93.58 143.293 91.9886L145.133 86.44C145.128 86.436 145.124 86.4325 145.12 86.4293C145.111 86.4336 145.101 86.4393 145.091 86.4467C145.045 86.478 144.976 86.5476 144.925 86.6758Z" fill="#5ED9D1" stroke="#171753" stroke-width="4"/>
<path fill-rule="evenodd" clip-rule="evenodd" d="M167.98 66.5121L165.128 63.1163C170.697 61.6222 172.87 57.819 172.87 57.819C165.807 64.4746 146.519 64.7463 139.049 57.819C139.049 57.819 140.95 61.3505 146.655 63.1163L143.531 66.5121C134.023 66.3762 130.355 59.9923 130.355 59.9923C130.355 45.866 136.604 34.5922 136.604 34.5922C142.988 30.1099 148.828 30.1099 148.828 30.1099L149.236 30.6532C141.358 32.8264 137.962 36.358 137.962 36.358C147.198 30.1099 166.214 30.6532 173.685 36.358C173.821 36.2222 169.203 32.5548 162.004 30.6532L162.683 30.1099C162.683 30.1099 168.523 30.1099 174.907 34.5922C174.907 34.5922 181.156 45.866 181.156 59.9923C181.156 59.9923 177.488 66.3762 167.98 66.5121ZM147.607 55.9187C150.082 55.9187 152.089 53.7903 152.089 51.1647C152.089 48.5391 150.082 46.4107 147.607 46.4107C145.131 46.4107 143.124 48.5391 143.124 51.1647C143.124 53.7903 145.131 55.9187 147.607 55.9187ZM167.845 51.1647C167.845 53.7903 165.839 55.9187 163.363 55.9187C160.888 55.9187 158.881 53.7903 158.881 51.1647C158.881 48.5391 160.888 46.4107 163.363 46.4107C165.839 46.4107 167.845 48.5391 167.845 51.1647Z" fill="#171753"/>
</svg>
