<svg width="20" height="17" viewBox="0 0 20 17" fill="none" xmlns="http://www.w3.org/2000/svg">
<g style="mix-blend-mode:multiply" clip-path="url(#clip0_275_11026)">
<path d="M0.00437164 15.7081C0.00437164 15.7081 0.00437164 15.7033 0.00920105 15.6935C0.839951 13.0844 2.27444 11.0935 4.24022 9.37524C4.88743 7.99767 6.32675 6.40593 8.00274 6.15767L9.21022 5.90455L9.39376 6.24042C11.3257 5.42265 13.364 4.84339 15.3346 4.53185C15.6002 4.49291 15.7499 4.47344 15.7499 4.47344L18.9232 0L18.701 5.08677L19.9375 7.45249L16.4455 7.41841C16.1412 8.06582 15.7355 8.69863 15.267 9.30709L15.8562 9.62836C15.8562 9.62836 15.4167 9.90095 14.6777 10.0275C13.5475 11.3175 12.1806 12.4516 10.92 13.2938L12.0116 13.8876C12.0116 13.8876 10.92 14.5788 9.26335 14.2722C5.979 15.9077 1.39539 16.7693 -0.000457764 15.7081H0.00437164Z" fill="#087980"/>
</g>
<defs>
<clipPath id="clip0_275_11026">
<rect width="19.938" height="16.1754" fill="white" transform="matrix(-1 0 0 1 19.9375 0)"/>
</clipPath>
</defs>
</svg>
