<svg width="43" height="34" viewBox="0 0 43 34" fill="none" xmlns="http://www.w3.org/2000/svg">
<g style="mix-blend-mode:multiply" clip-path="url(#clip0_285_10419)">
<path d="M0.951679 32.27C0.951679 32.27 0.951683 32.26 0.961681 32.24C2.68168 26.88 5.65168 22.79 9.72168 19.26C11.0617 16.43 14.0417 13.16 17.5117 12.65L20.0117 12.13L20.3917 12.82C24.3917 11.14 28.6117 9.95 32.6917 9.31C33.2417 9.23 33.5517 9.19 33.5517 9.19L40.1217 0L39.6617 10.45L42.2217 15.31L34.9917 15.24C34.3617 16.57 33.5217 17.87 32.5517 19.12L33.7717 19.78C33.7717 19.78 32.8617 20.34 31.3317 20.6C28.9917 23.25 26.1617 25.58 23.5517 27.31L25.8117 28.53C25.8117 28.53 23.5517 29.95 20.1217 29.32C13.3217 32.68 3.83168 34.45 0.941681 32.27H0.951679Z" fill="#14998c"/>
</g>
<defs>
<clipPath id="clip0_285_10419">
<rect width="41.28" height="33.23" fill="white" transform="matrix(-1 0 0 1 42.2217 0)"/>
</clipPath>
</defs>
</svg>
