<svg width="25" height="21" viewBox="0 0 25 21" fill="none" xmlns="http://www.w3.org/2000/svg">
<path d="M19.6869 5.64967L23.6567 0L23.3781 6.41293L24.9258 9.40301L20.5613 9.36367L20.956 7.08176L19.6869 5.64967Z" fill="#E4B833"/>
<path d="M6.9263 18.2945C14.9046 14.9189 20.9561 7.08173 20.9561 7.08173L20.5614 9.36363C18.6577 13.4396 13.7361 17.0906 10.9967 18.2788C9.32521 19.0027 7.8936 19.4906 6.65546 19.821C6.83344 19.2702 6.91856 18.7588 6.91856 18.2867L6.9263 18.2945Z" fill="#F14445"/>
<path d="M0.000799179 19.8132C2.39197 19.8132 4.72897 19.2152 6.91895 18.2946C6.91895 18.7667 6.83382 19.2781 6.65584 19.8289C1.68777 21.1587 0.000799179 19.8211 0.000799179 19.8211V19.8132Z" fill="#F14445"/>
<path d="M6.9263 18.2945C6.9263 16.2251 5.36314 14.9268 3.79224 14.5648C3.43627 14.4861 3.0803 14.4861 2.73981 14.5333C8.62101 6.8693 19.687 5.64966 19.687 5.64966L20.9561 7.08175C20.9561 7.08175 14.9046 14.911 6.9263 18.2945Z" fill="#FF5E5F"/>
<path d="M0.00860977 19.8132C2.39978 19.8132 4.73678 19.2231 6.92676 18.2946C6.92676 16.2251 5.3636 14.9268 3.7927 14.5648C3.5915 14.5255 3.39804 14.5019 3.20458 14.5019C3.04981 14.5019 2.8873 14.5019 2.74027 14.5334C1.59499 16.0284 0.635422 17.7674 0.00860977 19.7975C0.00860977 19.8132 0.00860977 19.8132 0.00860977 19.8132Z" fill="#FF5E5F"/>
<path d="M15.0206 17.5156C15.0206 17.5156 12.6062 19.0578 9.31737 17.1221L11.5847 15.6349L15.0283 17.5156H15.0206Z" fill="#E4B833"/>
<path d="M3.60607 17.1536C3.60607 17.4605 3.84596 17.7044 4.14776 17.7044C4.44956 17.7044 4.68945 17.4605 4.68945 17.1536C4.68945 16.8467 4.44956 16.6028 4.14776 16.6028C3.84596 16.6028 3.60607 16.8467 3.60607 17.1536Z" fill="#013461"/>
<path d="M0.0153809 19.7896C0.131458 19.5457 1.36187 16.9018 3.21135 14.494C4.2096 13.1957 6.10552 11.7085 7.3514 10.9296C12.3349 7.80571 16.5369 6.21624 19.168 5.72052C16.9238 6.06674 7.86214 7.86079 2.7393 14.5334C1.59402 16.0284 0.634453 17.7674 0.00764084 19.7975L0.0153809 19.7896Z" fill="#FFA6A7"/>
<path d="M4.88307 12.7314C4.88307 12.7314 5.4944 11.1105 6.72481 9.68629C7.57604 8.69484 8.7368 8.03388 10.0059 7.76635L11.5149 7.4516L11.9482 8.34862L4.88307 12.7314Z" fill="#E4B833"/>
</svg>
