<svg width="16" height="13" viewBox="0 0 16 13" fill="none" xmlns="http://www.w3.org/2000/svg">
<path d="M3.19597 3.44646L0.773842 0L0.944087 3.91858L0 5.7441L2.66202 5.71263L2.42213 4.31988L3.19597 3.44646Z" fill="#E4B833"/>
<path d="M10.996 11.1734C6.12084 9.11182 2.42188 4.31982 2.42188 4.31982L2.66177 5.71257C3.82253 8.19906 6.83277 10.4337 8.50427 11.1577C9.52574 11.5983 10.4002 11.8973 11.1586 12.1019C11.0502 11.7635 10.996 11.4567 10.996 11.1655V11.1734Z" fill="#F14445"/>
<path d="M15.2213 12.102C13.7587 12.102 12.3348 11.74 10.9961 11.1735C10.9961 11.4646 11.0503 11.7715 11.1586 12.1098C14.1921 12.9203 15.2213 12.1098 15.2213 12.1098V12.102Z" fill="#F14445"/>
<path d="M10.996 11.1734C10.996 9.90655 11.9479 9.11969 12.9074 8.89937C13.1241 8.85216 13.3408 8.85215 13.5497 8.87576C9.9591 4.19393 3.19572 3.44641 3.19572 3.44641L2.42188 4.31983C2.42188 4.31983 6.12084 9.10395 10.996 11.1734Z" fill="#FF5E5F"/>
<path d="M15.2213 12.1019C13.7587 12.1019 12.3348 11.7399 10.9961 11.1734C10.9961 9.90651 11.9479 9.11965 12.9075 8.89933C13.0313 8.87573 13.1474 8.85999 13.2635 8.85999C13.3563 8.85999 13.4569 8.85998 13.5498 8.87572C14.254 9.78848 14.8343 10.8507 15.2135 12.094V12.1019H15.2213Z" fill="#FF5E5F"/>
<path d="M6.05176 10.7013C6.05176 10.7013 7.5298 11.6455 9.54179 10.4653L8.15661 9.55249L6.05176 10.7013Z" fill="#E4B833"/>
<path d="M12.6911 10.8194C12.8749 10.8194 13.0239 10.6679 13.0239 10.4811C13.0239 10.2942 12.8749 10.1427 12.6911 10.1427C12.5074 10.1427 12.3584 10.2942 12.3584 10.4811C12.3584 10.6679 12.5074 10.8194 12.6911 10.8194Z" fill="#013461"/>
<path d="M15.221 12.0863C15.1514 11.9367 14.4007 10.3158 13.2709 8.85224C12.6596 8.05751 11.5066 7.15262 10.7405 6.67264C7.69925 4.76843 5.1301 3.79272 3.52051 3.48584C4.89021 3.69829 10.4309 4.79204 13.5572 8.86798C14.2614 9.78075 14.8418 10.843 15.221 12.0863Z" fill="#FFA6A7"/>
<path d="M12.2419 7.77424C12.2419 7.77424 11.8705 6.78279 11.1199 5.91724C10.6014 5.31136 9.88946 4.91005 9.11562 4.74481L8.19475 4.5481L7.93164 5.0989L12.2497 7.77424H12.2419Z" fill="#E4B833"/>
</svg>
