<svg width="25" height="21" viewBox="0 0 25 21" fill="none" xmlns="http://www.w3.org/2000/svg">
<path d="M5.03725 11.9839C5.03725 11.9839 7.42069 13.5025 10.6631 11.5983L8.42668 10.1269L5.02952 11.9839H5.03725Z" fill="#549FF2"/>
<path d="M5.16895 5.57885L1.25331 0L1.52415 6.33424L-0.000313282 9.27711L4.30999 9.23777L3.91533 6.98734L5.16895 5.57885Z" fill="#549FF2"/>
<path d="M17.7593 18.0428C9.88931 14.7144 3.91525 6.97949 3.91525 6.97949L4.30217 9.22992C6.1826 13.2508 11.0346 16.8546 13.7353 18.027C15.3836 18.7431 16.792 19.2231 18.0146 19.5536C17.8367 19.0106 17.7515 18.507 17.7515 18.0428H17.7593Z" fill="#BAA346"/>
<path d="M24.585 19.5457C22.2247 19.5457 19.9187 18.9634 17.7597 18.0428C17.7597 18.507 17.8448 19.0106 18.0228 19.5536C22.9212 20.8598 24.585 19.5457 24.585 19.5457Z" fill="#AF9942"/>
<path d="M17.7592 18.0428C17.7592 16.0048 19.2992 14.7222 20.8468 14.3681C21.1951 14.2894 21.551 14.2894 21.8838 14.3366C16.0877 6.77489 5.1688 5.57886 5.1688 5.57886L3.91518 6.98734C3.91518 6.98734 9.88924 14.7143 17.7592 18.0506V18.0428Z" fill="#E4B833"/>
<path d="M24.585 19.5457C22.2247 19.5457 19.9187 18.9634 17.7597 18.0428C17.7597 16.0048 19.2996 14.7222 20.8473 14.3681C21.0408 14.3288 21.2342 14.3052 21.4277 14.3052C21.5825 14.3052 21.7372 14.3052 21.8843 14.3367C23.0141 15.816 23.9581 17.5313 24.5772 19.5299C24.5772 19.5457 24.5772 19.5457 24.5772 19.5457H24.585Z" fill="#D9AF30"/>
<path d="M9.77359 17.2795C9.77359 17.2795 12.157 18.7981 15.3994 16.8939L13.163 15.4225L9.76585 17.2795H9.77359Z" fill="#549FF2"/>
<path d="M20.4993 17.4684C20.2044 17.4684 19.9653 17.2253 19.9653 16.9254C19.9653 16.6256 20.2044 16.3825 20.4993 16.3825C20.7941 16.3825 21.0332 16.6256 21.0332 16.9254C21.0332 17.2253 20.7941 17.4684 20.4993 17.4684Z" fill="#013461"/>
<path d="M24.5771 19.5299C24.4611 19.286 23.2461 16.6736 21.4276 14.313C20.4448 13.0383 18.5721 11.5669 17.3417 10.7958C12.4278 7.71912 8.28004 6.14539 5.67993 5.65753C7.89312 6.00375 16.8387 7.76633 21.8842 14.3445C23.014 15.8238 23.9581 17.5392 24.5771 19.5378V19.5299Z" fill="#EDD372"/>
<path d="M19.7715 12.5583C19.7715 12.5583 19.1679 10.961 17.953 9.5604C17.1095 8.58469 15.9719 7.93159 14.7183 7.67192L13.2248 7.35718L12.7373 8.26207L19.7637 12.5662L19.7715 12.5583Z" fill="#549FF2"/>
</svg>
