<svg width="42" height="34" viewBox="0 0 42 34" fill="none" xmlns="http://www.w3.org/2000/svg">
<g style="mix-blend-mode:multiply" clip-path="url(#clip0_275_11024)">
<path d="M41.27 32.27C41.27 32.27 41.27 32.26 41.26 32.24C39.54 26.88 36.57 22.79 32.5 19.26C31.16 16.43 28.18 13.16 24.71 12.65L22.21 12.13L21.83 12.82C17.83 11.14 13.61 9.95 9.53 9.31C8.98 9.23 8.67 9.19 8.67 9.19L2.1 0L2.56 10.45L0 15.31L7.23 15.24C7.86 16.57 8.7 17.87 9.67 19.12L8.45 19.78C8.45 19.78 9.36 20.34 10.89 20.6C13.23 23.25 16.06 25.58 18.67 27.31L16.41 28.53C16.41 28.53 18.67 29.95 22.1 29.32C28.9 32.68 38.39 34.45 41.28 32.27H41.27Z" fill="#2cb3a6"/>
</g>
<defs>
<clipPath id="clip0_275_11024">
<rect width="41.28" height="33.23" fill="white"/>
</clipPath>
</defs>
</svg>
