<svg width="16" height="13" viewBox="0 0 16 13" fill="none" xmlns="http://www.w3.org/2000/svg">
<path d="M12.0257 3.44646L14.4478 0L14.2776 3.91858L15.2217 5.7441L12.5597 5.71263L12.7996 4.31988L12.0257 3.44646Z" fill="#E4B833"/>
<path d="M4.22563 11.1734C9.10084 9.11182 12.7998 4.31982 12.7998 4.31982L12.5599 5.71257C11.3992 8.19906 8.38891 10.4337 6.71741 11.1577C5.69594 11.5983 4.82149 11.8973 4.06313 12.1019C4.17147 11.7635 4.22563 11.4567 4.22563 11.1655V11.1734Z" fill="#F14445"/>
<path d="M0.000409126 12.102C1.46297 12.102 2.88684 11.74 4.22559 11.1735C4.22559 11.4646 4.17142 11.7715 4.06308 12.1098C1.02962 12.9203 0.000409126 12.1098 0.000409126 12.1098V12.102Z" fill="#F14445"/>
<path d="M4.22563 11.1734C4.22563 9.90655 3.27381 9.11969 2.31425 8.89937C2.09757 8.85216 1.88089 8.85215 1.67196 8.87576C5.26258 4.19393 12.026 3.44641 12.026 3.44641L12.7998 4.31983C12.7998 4.31983 9.10084 9.10395 4.22563 11.1734Z" fill="#FF5E5F"/>
<path d="M0.000409126 12.1019C1.46297 12.1019 2.88684 11.7399 4.22559 11.1734C4.22559 9.90651 3.27376 9.11965 2.3142 8.89933C2.19038 8.87573 2.0743 8.85999 1.95823 8.85999C1.86537 8.85999 1.76477 8.85998 1.67191 8.87572C0.967711 9.78848 0.38733 10.8507 0.00814772 12.094V12.1019H0.000409126Z" fill="#FF5E5F"/>
<path d="M9.16992 10.7013C9.16992 10.7013 7.69188 11.6455 5.67989 10.4653L7.06507 9.55249L9.16992 10.7013Z" fill="#E4B833"/>
<path d="M2.53053 10.8194C2.34676 10.8194 2.19778 10.6679 2.19778 10.4811C2.19778 10.2942 2.34676 10.1427 2.53053 10.1427C2.7143 10.1427 2.86328 10.2942 2.86328 10.4811C2.86328 10.6679 2.7143 10.8194 2.53053 10.8194Z" fill="#013461"/>
<path d="M0.000681877 12.0863C0.0703278 11.9367 0.820955 10.3158 1.95076 8.85224C2.5621 8.05751 3.71512 7.15262 4.48123 6.67264C7.52242 4.76843 10.0916 3.79272 11.7012 3.48584C10.3315 3.69829 4.79076 4.79204 1.66444 8.86798C0.960246 9.78075 0.379865 10.843 0.000681877 12.0863Z" fill="#FFA6A7"/>
<path d="M2.97974 7.77424C2.97974 7.77424 3.35118 6.78279 4.10181 5.91724C4.62028 5.31136 5.33222 4.91005 6.10606 4.74481L7.02693 4.5481L7.29004 5.0989L2.972 7.77424H2.97974Z" fill="#E4B833"/>
</svg>
