<svg width="32" height="27" viewBox="0 0 32 27" fill="none" xmlns="http://www.w3.org/2000/svg">
<path d="M25.4053 15.572C25.4053 15.572 22.3099 17.5471 18.0925 15.0684L20.9944 13.1564L25.4053 15.5642V15.572Z" fill="#549FF2"/>
<path d="M25.2274 7.23914L30.3115 0L29.9556 8.22272L31.9443 12.0469L26.3495 11.9997L26.8525 9.07253L25.2274 7.23914Z" fill="#549FF2"/>
<path d="M8.86845 23.4406C19.0909 19.1129 26.8525 9.07251 26.8525 9.07251L26.3495 11.9996C23.9119 17.2244 17.5974 21.9062 14.0919 23.4328C11.9483 24.3613 10.1143 24.9907 8.52796 25.4078C8.75237 24.7075 8.86845 24.0465 8.86845 23.4406Z" fill="#BAA346"/>
<path d="M-6.38962e-05 25.392C3.07209 25.392 6.05912 24.6288 8.86816 23.4406C8.86816 24.0465 8.75209 24.6996 8.52767 25.4078C2.16669 27.1074 -6.38962e-05 25.392 -6.38962e-05 25.392Z" fill="#AF9942"/>
<path d="M8.86845 23.4406C8.86845 20.7889 6.87194 19.1286 4.85995 18.6644C4.40338 18.5621 3.94682 18.5621 3.51347 18.625C11.0507 8.80499 25.2275 7.23914 25.2275 7.23914L26.8525 9.07253C26.8525 9.07253 19.0909 19.1129 8.86845 23.4406Z" fill="#E4B833"/>
<path d="M0.0077486 25.392C3.07216 25.392 6.06693 24.6367 8.87598 23.4406C8.86824 20.7889 6.87172 19.1286 4.85974 18.6644C4.60437 18.6093 4.35674 18.5857 4.10911 18.5857C3.90791 18.5778 3.70671 18.5936 3.51325 18.625C2.04295 20.545 0.820278 22.7718 0.0154829 25.3684C0.00774479 25.3842 0.0077486 25.392 0.0077486 25.392Z" fill="#D9AF30"/>
<path d="M19.2451 22.4492C19.2451 22.4492 16.1497 24.4242 11.9323 21.9456L14.8342 20.0335L19.2451 22.4413V22.4492Z" fill="#549FF2"/>
<path d="M5.30835 22.6853C4.92798 22.6853 4.61963 22.3717 4.61963 21.985C4.61963 21.5982 4.92798 21.2847 5.30835 21.2847C5.68872 21.2847 5.99707 21.5982 5.99707 21.985C5.99707 22.3717 5.68872 22.6853 5.30835 22.6853Z" fill="#013461"/>
<path d="M0.0153294 25.3685C0.162359 25.0537 1.741 21.6623 4.10895 18.5857C5.38579 16.9254 7.81566 15.0212 9.41751 14.014C15.8017 10.0168 21.1954 7.97092 24.5693 7.33356C21.6906 7.78207 10.0753 10.0718 3.5131 18.625C2.0428 20.545 0.820126 22.7718 0.0153294 25.3685Z" fill="#EDD372"/>
<path d="M6.25246 16.3195C6.25246 16.3195 7.04177 14.2422 8.61267 12.4167C9.70379 11.1498 11.1896 10.3 12.8146 9.96166L14.7492 9.55249L15.3838 10.7328L6.25246 16.3195Z" fill="#549FF2"/>
</svg>
