<svg width="21" height="17" viewBox="0 0 21 17" fill="none" xmlns="http://www.w3.org/2000/svg">
<g style="mix-blend-mode:multiply" clip-path="url(#clip0_285_10432)">
<path d="M20.2173 15.7081C20.2173 15.7081 20.2173 15.7033 20.2125 15.6935C19.3817 13.0844 17.9472 11.0935 15.9815 9.37524C15.3342 7.99767 13.8949 6.40593 12.2189 6.15767L11.0115 5.90455L10.8279 6.24042C8.89595 5.42265 6.85772 4.84339 4.8871 4.53185C4.62146 4.49291 4.47173 4.47344 4.47173 4.47344L1.29847 0L1.52064 5.08677L0.28418 7.45249L3.77622 7.41841C4.08051 8.06582 4.48622 8.69863 4.95472 9.30709L4.36547 9.62836C4.36547 9.62836 4.805 9.90095 5.54398 10.0275C6.67418 11.3175 8.04105 12.4516 9.30166 13.2938L8.2101 13.8876C8.2101 13.8876 9.30166 14.5788 10.9583 14.2722C14.2427 15.9077 18.8263 16.7693 20.2221 15.7081H20.2173Z" fill="#14998c"/>
</g>
<defs>
<clipPath id="clip0_285_10432">
<rect width="19.938" height="16.1754" fill="white" transform="translate(0.28418)"/>
</clipPath>
</defs>
</svg>
