<svg width="272" height="387" viewBox="0 0 272 387" fill="none" xmlns="http://www.w3.org/2000/svg">
<path d="M203.116 280.494L219.972 290.235L238.558 279.412L221.917 269.67L203.116 280.494Z" fill="#5ED9D1"/>
<path d="M219.973 291.318L240.503 279.412L222.134 268.805L201.604 280.711L219.973 291.318ZM236.829 279.412L219.757 289.153L204.845 280.494L221.918 270.753L236.829 279.412Z" fill="#171753"/>
<path d="M210.682 269.454L191.881 280.278L208.737 290.019L227.322 279.195L210.682 269.454Z" fill="#ECFFFE"/>
<path d="M208.736 291.102L227.754 279.845L226.889 278.33L208.736 288.937L193.825 280.278L211.114 270.32L210.249 268.805L190.151 280.278L208.736 291.102Z" fill="#171753"/>
<path d="M22.6681 330.067C22.6681 328.552 23.7486 326.82 24.8292 326.17L84.9071 291.535L85.5554 291.751C90.9581 293.05 95.0641 286.989 95.4964 286.339L96.3608 285.04L156.439 250.405C157.087 249.972 157.735 249.972 157.951 250.188L249.581 304.09L183.668 345.87L116.675 386.567L23.3164 332.015C23.1003 331.582 22.6681 330.933 22.6681 330.067Z" fill="#ECFFFE"/>
<path d="M116.891 387L117.323 386.783L184.316 346.086L251.31 303.657L158.599 249.322C157.951 248.889 157.087 248.889 156.222 249.539L95.9282 284.391L95.0638 285.906C94.6316 286.556 90.7416 292.184 85.9872 291.102L84.9067 290.885L24.6127 325.738C23.0999 326.603 22.0194 328.552 22.0194 330.283C22.0194 331.366 22.4516 332.232 23.316 332.448L116.891 387ZM248.5 303.874L183.452 345.004L116.891 385.484L23.9644 331.149C23.5322 330.933 23.5322 330.5 23.5322 330.283C23.5322 328.985 24.3966 327.469 25.4771 327.036L85.3389 292.401L85.7711 292.617C91.606 293.916 95.9282 287.638 96.3604 286.772L97.0087 285.69L156.871 251.054C157.303 250.838 157.519 250.838 157.735 250.838L248.5 303.874Z" fill="#171753"/>
<path d="M119.699 384.402L116.89 386.133L23.5313 331.582C23.0991 331.365 22.6669 330.932 22.6669 330.067C22.6669 328.551 22.2347 328.551 23.5313 327.902L117.106 382.453L119.699 384.402Z" fill="#171753"/>
<path d="M91.1735 286.339C93.9829 280.494 103.059 263.826 117.971 255.383C137.637 244.127 138.717 252.353 153.196 241.962L242.017 293.699L180.426 339.159L91.6057 287.421C91.1735 287.854 90.7413 287.205 91.1735 286.339Z" fill="#ECFFFE"/>
<path d="M180.643 340.241L181.291 340.025L243.098 294.349V293.483L242.665 293.266L153.413 241.312L152.981 241.529C145.849 246.508 141.959 247.157 137.637 247.807C133.099 248.456 127.696 249.106 117.539 254.95C102.628 263.393 93.5512 279.628 90.3096 286.339C89.8773 287.205 89.8774 288.071 90.5257 288.504C90.7418 288.72 91.174 288.937 91.6062 288.72L180.643 340.241ZM240.504 293.916L180.643 338.293L92.0384 286.772C94.6317 281.577 103.708 264.692 118.404 256.249C128.128 250.621 133.315 249.971 137.853 249.322C142.392 248.673 146.281 248.24 153.413 243.261L240.504 293.916Z" fill="#171753"/>
<path d="M147.145 245.858C148.874 244.992 151.035 243.91 153.412 242.178L242.232 293.916L226.889 305.172L225.376 304.306L236.181 298.245L147.145 245.858Z" fill="#5ED9D1"/>
<path d="M226.89 306.255L243.098 294.349V293.483L242.665 293.266L153.413 241.312L152.981 241.745C150.82 243.261 148.875 244.56 146.93 245.425L147.794 246.941C149.739 246.075 151.684 244.993 153.629 243.477L240.72 294.132L235.966 297.596L223.864 304.306L226.89 306.255Z" fill="#171753"/>
<path d="M244.18 302.358L180.644 339.158C179.996 339.591 179.564 338.942 179.996 338.076C182.805 332.231 191.882 315.562 206.793 307.12C226.459 295.863 227.539 304.089 242.019 293.915L244.18 302.358Z" fill="#5ED9D1"/>
<path d="M180.211 340.241C180.427 340.241 180.644 340.241 181.076 340.024L245.26 303.007L245.044 302.358L242.883 293.266L242.018 292.833L241.586 293.049C234.454 298.028 230.781 298.461 226.458 299.111C221.92 299.76 216.517 300.41 206.36 306.254C191.449 314.697 182.372 330.932 179.131 337.643C178.699 338.509 178.699 339.375 179.347 339.808C179.563 340.024 179.995 340.241 180.211 340.241ZM243.099 301.925L181.076 337.86C184.534 331.149 193.178 315.779 207.225 307.77C216.95 302.141 222.136 301.492 226.675 300.843C230.997 300.193 234.887 299.76 241.586 295.214L243.099 301.925Z" fill="#171753"/>
<path d="M183.02 338.509C200.741 307.553 218.462 305.821 226.026 305.172C235.75 304.306 243.098 297.595 243.53 297.162L242.666 296.08C242.666 296.08 235.318 302.791 226.026 303.657C218.246 304.306 200.093 306.038 181.94 337.643L183.02 338.509Z" fill="#171753"/>
<path d="M187.343 335.912C201.822 312.749 214.14 310.801 223.217 309.502C224.513 309.285 225.81 309.069 226.891 308.852C236.183 306.904 243.315 299.544 243.747 299.111L242.667 298.245C242.667 298.245 235.319 305.822 226.458 307.554C225.378 307.77 224.081 307.986 222.785 308.203C213.492 309.502 200.526 311.45 185.83 335.262L187.343 335.912Z" fill="#171753"/>
<path d="M192.746 332.88C198.581 323.356 205.712 317.294 213.276 315.13C220.84 312.965 230.564 311.017 230.564 311.017L230.348 309.718C230.348 309.718 220.407 311.666 212.844 313.831C204.848 315.996 197.5 322.49 191.449 332.231L192.746 332.88Z" fill="#171753"/>
<path d="M198.579 329.633C198.579 329.633 202.037 324.438 207.872 320.758C213.706 317.294 221.486 316.212 221.486 316.212L221.27 314.913C220.838 314.913 213.274 315.779 207.007 319.676C200.956 323.356 197.282 328.551 197.282 328.767L198.579 329.633Z" fill="#171753"/>
<path d="M183.668 350.416C186.909 348.684 189.503 345.654 191.231 343.489L249.364 309.935C250.661 309.286 251.525 307.554 251.525 306.039C251.525 304.524 250.445 304.091 249.364 304.74L189.286 339.376L188.422 340.675C187.99 341.324 183.884 347.385 178.481 346.086L177.833 345.87L117.755 380.506C116.458 381.155 115.594 382.887 115.594 384.402C115.594 385.918 116.674 386.351 117.755 385.701L176.104 351.931C178.697 352.581 181.29 351.715 183.668 350.416Z" fill="#5ED9D1"/>
<path d="M116.675 387C117.108 387 117.54 386.783 118.188 386.567L176.321 353.013C178.914 353.23 181.508 352.58 184.101 351.065C187.991 348.9 190.584 345.437 191.881 343.921L249.582 310.584C251.094 309.718 252.175 307.554 252.175 305.822C252.175 304.74 251.743 304.09 251.094 303.657C250.446 303.224 249.582 303.224 248.717 303.874L188.423 338.726L187.559 340.241C187.126 340.891 183.453 346.519 178.698 345.437L177.618 345.22L177.402 345.437L117.324 380.073C115.811 380.938 114.73 383.103 114.73 384.835C114.73 385.917 115.163 386.567 115.811 387C116.027 387 116.243 387 116.675 387ZM175.889 351.065L117.324 385.051C116.891 385.268 116.675 385.268 116.675 385.268C116.675 385.268 116.459 385.051 116.459 384.618C116.459 383.536 117.324 382.021 118.188 381.371L178.05 346.736H178.482C184.317 348.034 188.855 341.54 189.287 340.891L189.936 339.808L249.798 305.173C250.23 304.956 250.446 304.956 250.446 304.956C250.446 304.956 250.662 305.173 250.662 305.605C250.662 306.688 249.798 308.203 248.933 308.636L190.8 342.19L190.584 342.406C189.504 343.705 186.91 347.168 183.236 349.117C180.859 350.632 178.482 351.065 176.105 350.849L175.889 351.065Z" fill="#171753"/>
<path d="M179.779 338.293C179.779 338.293 178.483 334.18 174.593 331.799L179.779 338.293Z" fill="#5ED9D1"/>
<path d="M178.914 338.51L180.643 338.077C180.643 337.86 179.346 333.531 175.024 331.149L174.159 332.665C177.617 334.613 178.914 338.51 178.914 338.51Z" fill="#171753"/>
<path d="M28.718 314.265C28.718 314.265 28.718 314.048 28.718 314.265L30.8791 313.182C43.6294 306.688 45.3583 297.596 64.1597 286.773C78.855 278.114 87.9315 283.958 90.957 286.556H91.3892L175.671 332.665C175.671 332.665 179.777 335.912 179.561 339.376L123.805 364.92L115.593 377.042L26.773 325.305L28.718 314.265Z" fill="#5ED9D1"/>
<path d="M115.594 377.908L116.026 377.258L124.022 365.352L180.21 339.808V339.159C180.426 335.263 176.104 332.015 175.888 331.799H175.672L90.9575 285.474H90.5253C86.8515 282.443 77.7749 277.248 63.0796 285.907C52.9226 291.751 47.736 297.163 43.1977 301.709C39.0917 305.822 35.634 309.286 30.0152 312.316L27.4219 313.615V314.048L25.2608 325.521L25.693 325.954L115.594 377.908ZM178.697 338.51L123.158 363.837L122.941 364.054L115.162 375.527L27.638 324.655L29.583 314.698L31.3118 313.832C37.3628 310.801 41.0367 307.121 45.1427 302.791C49.681 298.246 54.8675 293.05 64.5924 287.205C78.6394 278.979 87.2837 284.175 90.3092 286.989L90.5253 287.205H91.1736L175.239 333.098C175.456 333.531 178.481 335.912 178.697 338.51Z" fill="#171753"/>
<path d="M123.805 362.755L124.237 364.703H124.021L122.725 366.435L117.754 365.786L28.9339 314.048L34.9849 310.152L123.805 362.755Z" fill="#ECFFFE"/>
<path d="M123.158 367.734L123.59 367.084L124.454 365.569L125.103 365.353L124.454 362.322L124.238 362.105L123.158 363.621L123.806 362.755L122.941 363.188L123.158 364.487L122.293 365.785L118.187 365.136L30.6635 314.481L35.634 311.234L35.2018 310.585L35.634 309.719H34.7696L28.0703 313.832V314.914L28.5025 315.131L117.539 366.868H117.755L123.158 367.734Z" fill="#171753"/>
<path d="M117.54 365.785L28.7198 314.048L26.5587 325.088L115.379 376.825L117.54 365.785Z" fill="#171753"/>
<path d="M115.378 377.908L116.242 377.475V377.042L118.403 365.352L117.755 365.136L28.5026 313.182L27.6381 313.615V314.048L25.4771 325.521L25.9093 325.954L115.378 377.908ZM116.458 366.218L114.729 375.31L27.6381 324.655L29.367 315.563L116.458 366.218Z" fill="#171753"/>
<path d="M29.6125 321.063L114.805 370.251L114.481 370.814L29.2887 321.625L29.6125 321.063Z" fill="#5ED9D1"/>
<path d="M29.3908 324.563L114.583 373.752L114.259 374.315L29.067 325.126L29.3908 324.563Z" fill="#5ED9D1"/>
<path d="M30.4396 318.087L115.632 367.276L115.308 367.839L30.1159 318.65L30.4396 318.087Z" fill="#5ED9D1"/>
<path d="M185.145 336.276L189.455 338.756L188.809 339.882L184.499 337.402L185.145 336.276Z" fill="#171753"/>
<path d="M173.932 342.986L178.038 345.387L177.384 346.508L173.279 344.108L173.932 342.986Z" fill="#171753"/>
<path d="M185.829 337.427C185.829 337.427 183.02 343.489 174.375 344.138L172.863 343.272L184.749 336.778L185.829 337.427Z" fill="#171753"/>
<path d="M40.82 305.822C46.4388 300.41 51.4093 293.916 64.1597 286.556C78.855 277.897 87.9315 283.742 90.957 286.339H91.3892L175.671 332.448C175.671 332.448 179.777 335.695 179.561 339.159L142.823 355.827L136.772 350.199C136.772 350.199 128.344 356.91 119.267 351.498C112.352 347.601 62.4308 318.594 40.82 305.822Z" fill="#171753"/>
<path d="M142.607 356.91L180.21 339.592V339.159C180.426 335.263 176.104 331.799 175.888 331.799H175.672L90.9575 285.474H90.5253C86.8515 282.443 77.7749 277.248 63.0796 285.907C52.9226 291.751 47.736 297.163 43.1977 301.709C41.9011 303.008 40.8205 304.09 39.5239 305.173L38.6595 306.039L118.403 352.364C126.399 357.126 133.963 352.797 136.124 351.498L142.607 356.91ZM178.697 338.51L143.039 354.745L136.988 349.117L136.34 349.55C136.124 349.766 128.344 355.828 119.916 350.849L42.3333 305.606C43.1977 304.74 44.0621 303.874 45.1427 302.791C49.681 298.246 54.8675 293.05 64.5924 287.205C78.6394 278.979 87.2837 284.175 90.3092 286.989L90.5253 287.205H91.1736L175.239 333.098C175.456 333.531 178.481 335.912 178.697 338.51Z" fill="#171753"/>
<path d="M68.0495 279.844C76.4777 276.164 82.3126 277.68 85.9864 280.277L173.078 330.932C173.726 331.149 174.158 331.582 174.807 331.798H174.591H174.807L170.268 329.85C166.811 328.984 162.489 329.2 157.086 331.582C140.013 338.942 131.153 354.528 119.483 351.714L30.6629 300.193C42.3327 302.791 50.977 287.205 68.0495 279.844Z" fill="#ECFFFE"/>
<path d="M122.077 353.013C128.128 353.013 133.315 348.684 139.366 343.921C144.336 340.025 150.171 335.479 157.087 332.448C161.841 330.5 165.947 329.85 169.621 330.716H169.837L174.159 332.664L175.023 331.149C174.375 330.716 173.943 330.5 173.295 330.067L86.4193 279.412C82.9616 277.031 76.9106 275.082 67.8341 278.979C60.4864 282.01 54.6515 286.772 49.6811 290.669C42.7656 296.297 37.3629 300.626 30.8797 299.111L30.2314 298.895L29.583 300.41L30.2314 300.843L119.052 352.58H119.268C120.132 352.797 121.213 353.013 122.077 353.013ZM166.379 328.551C163.354 328.551 160.112 329.201 156.654 330.716C149.307 333.747 143.472 338.509 138.501 342.406C131.586 347.818 126.183 352.364 119.7 350.848L34.3374 301.276C39.9562 300.843 44.9267 296.73 50.7616 292.184C55.7321 288.287 61.3509 283.741 68.4824 280.711C75.1817 277.897 81.0166 277.897 85.5549 281.144L167.244 328.551C166.811 328.551 166.595 328.551 166.379 328.551Z" fill="#171753"/>
<path d="M69.7803 279.196C77.3441 276.382 82.7467 277.897 85.9884 280.279L173.08 330.933C173.728 331.15 174.16 331.583 174.809 331.799H174.592H174.809L170.27 329.851C166.813 328.985 162.49 329.202 157.088 331.583C152.333 333.748 148.011 336.345 144.337 339.159C148.011 336.345 152.333 333.748 157.088 331.583C157.736 331.366 158.384 330.933 159.033 330.717L69.7803 279.196Z" fill="#5ED9D1"/>
<path d="M144.337 340.025L144.985 339.809C147.795 337.644 152.333 334.613 157.519 332.232C162.274 330.284 166.38 329.634 170.054 330.5L174.376 332.449L175.24 330.933C174.592 330.5 174.16 330.284 173.511 329.851L86.6361 279.196C83.3945 277.031 77.9918 275.083 69.5637 278.114L70.212 279.845C76.263 277.681 81.4496 277.897 85.7717 280.711L167.244 328.552C164.651 328.336 161.625 328.985 158.6 330.067C157.952 330.284 157.303 330.5 156.655 330.933C151.252 333.314 146.714 336.345 143.689 338.51L142.608 339.376L144.337 340.025Z" fill="#171753"/>
<path d="M141.095 304.523C141.095 304.523 143.472 298.029 155.79 286.989C168.108 275.949 184.1 274.217 184.316 274.217L184.1 272.918C183.884 272.918 167.46 274.65 154.926 286.123C142.392 297.596 140.014 304.09 140.014 304.307L141.095 304.523Z" fill="#171753"/>
<path d="M165.301 318.009C165.301 318.009 167.678 311.515 179.996 300.475C192.314 289.435 208.306 287.703 208.522 287.703L208.306 286.404C208.09 286.404 191.666 288.136 179.132 299.609C166.598 311.082 164.22 317.577 164.22 317.793L165.301 318.009Z" fill="#171753"/>
<path d="M134.829 301.276C134.829 301.276 137.206 294.782 149.525 283.742C161.843 272.702 177.835 270.97 178.051 270.97L177.835 269.671C177.619 269.671 161.194 271.403 148.66 282.876C136.126 294.349 133.749 300.843 133.749 301.06L134.829 301.276Z" fill="#171753"/>
<path d="M159.034 314.763C159.034 314.763 161.412 308.269 173.73 297.229C186.048 286.188 202.04 284.457 202.256 284.457L202.04 283.158C201.824 283.158 185.399 284.889 172.865 296.363C160.331 307.836 157.954 314.33 157.954 314.546L159.034 314.763Z" fill="#171753"/>
<path d="M129.858 298.028C129.858 298.028 132.235 291.534 144.553 280.494C147.147 278.113 148.875 276.814 151.469 275.299L150.82 274.216C148.227 275.732 146.282 277.03 143.689 279.628C131.155 291.101 128.777 297.596 128.777 297.812L129.858 298.028Z" fill="#171753"/>
<path d="M154.064 311.516C154.064 311.516 156.441 305.022 168.759 293.981C171.353 291.6 173.082 290.301 175.675 288.786L175.026 287.704C172.433 289.219 170.488 290.518 167.895 293.115C155.361 304.589 152.984 311.083 152.984 311.299L154.064 311.516Z" fill="#171753"/>
<path d="M124.672 294.781C124.672 294.781 127.05 288.287 139.368 277.247C141.313 275.515 143.258 274 145.635 272.484L144.986 271.402C142.609 272.917 140.448 274.433 138.503 276.164C125.969 287.637 123.592 294.132 123.592 294.348L124.672 294.781Z" fill="#171753"/>
<path d="M148.876 308.268C148.876 308.268 151.254 301.774 163.572 290.734C165.517 289.002 167.462 287.487 169.839 285.972L169.191 284.889C166.813 286.404 164.652 287.92 162.707 289.652C150.173 301.125 147.796 307.619 147.796 307.835L148.876 308.268Z" fill="#171753"/>
<path d="M171.444 321.408C171.444 321.408 173.821 314.914 186.139 303.874C188.084 302.142 190.029 300.626 192.406 299.111L191.758 298.029C189.381 299.544 187.22 301.059 185.275 302.791C172.74 314.264 170.363 320.759 170.363 320.975L171.444 321.408Z" fill="#171753"/>
<path d="M119.486 291.534C119.486 291.534 121.863 285.04 134.181 274C136.126 272.268 138.287 270.536 140.448 269.237L139.8 268.155C137.423 269.67 135.262 271.402 133.317 273.134C120.782 284.607 118.405 291.101 118.405 291.318L119.486 291.534Z" fill="#171753"/>
<path d="M113.218 288.287C113.218 288.287 115.595 281.793 127.913 270.753C129.642 269.021 131.803 267.506 133.964 266.207L133.316 265.125C131.154 266.64 128.993 268.155 127.048 269.887C114.514 281.36 112.137 287.854 112.137 288.071L113.218 288.287Z" fill="#171753"/>
<path d="M108.032 285.04C108.032 285.04 110.409 278.546 122.727 267.506C124.672 265.774 126.833 264.259 128.994 262.744L128.346 261.661C125.969 263.176 123.808 264.908 121.863 266.64C109.328 278.113 106.951 284.607 106.951 284.824L108.032 285.04Z" fill="#171753"/>
<path d="M118.836 342.838C123.59 342.838 129.425 338.292 135.26 333.314C137.205 331.582 139.366 330.066 141.527 328.551L140.879 327.469C138.718 328.984 136.557 330.499 134.612 332.231C128.129 337.643 121.645 342.838 117.323 341.107L116.891 342.405C117.323 342.838 117.972 342.838 118.836 342.838Z" fill="#171753"/>
<path d="M112.786 339.376C117.54 339.376 123.375 334.83 129.21 329.851C131.371 328.119 133.532 326.387 135.693 325.088L135.045 324.006C132.884 325.521 130.723 327.037 128.562 328.985C122.079 334.397 115.595 339.592 111.273 337.86L110.841 339.159C111.273 339.376 111.922 339.376 112.786 339.376Z" fill="#171753"/>
<path d="M106.951 335.912C111.705 335.912 117.54 331.366 123.375 326.387C125.32 324.655 127.265 323.14 129.426 321.841L128.561 320.759C126.616 322.058 124.455 323.789 122.51 325.305C116.027 330.717 109.544 335.912 105.222 334.18L104.79 335.479C105.438 335.912 106.086 335.912 106.951 335.912Z" fill="#171753"/>
<path d="M101.331 332.231C106.085 332.231 111.92 327.685 117.755 322.706C126.832 314.913 133.747 312.965 133.747 312.965L133.315 311.666C133.099 311.666 126.183 313.831 116.891 321.624C110.407 327.036 103.924 332.231 99.6021 330.499L99.1699 331.798C99.8182 332.231 100.466 332.231 101.331 332.231Z" fill="#171753"/>
<path d="M82.0272 321.299C86.7816 321.299 92.6165 316.753 98.4514 311.775C107.528 303.981 114.443 302.033 114.443 302.033L114.011 300.734C113.795 300.734 106.88 302.899 97.587 310.692C91.1037 316.104 84.6205 321.299 80.2984 319.568L79.8661 320.866C80.5145 321.299 81.1628 321.299 82.0272 321.299Z" fill="#171753"/>
<path d="M63.08 310.325C67.8343 310.325 73.6692 305.779 79.5041 300.8C88.5807 293.007 95.4961 291.059 95.4961 291.059L95.0639 289.76C94.8478 289.76 87.9323 291.925 78.6397 299.718C72.1565 305.129 65.6732 310.325 61.3511 308.593L60.9189 309.892C61.5672 310.325 62.2155 310.325 63.08 310.325Z" fill="#171753"/>
<path d="M95.2811 328.768C100.035 328.768 105.87 324.222 111.705 319.243C120.782 311.45 127.697 309.501 127.697 309.501L127.265 308.203C127.049 308.203 120.133 310.367 110.841 318.16C104.358 323.572 97.8744 328.768 93.5523 327.036L93.12 328.335C93.7684 328.768 94.6328 328.768 95.2811 328.768Z" fill="#171753"/>
<path d="M75.9774 317.836C80.7318 317.836 86.5667 313.29 92.4016 308.311C101.478 300.518 108.394 298.57 108.394 298.57L107.961 297.271C107.745 297.271 100.83 299.436 91.5372 307.229C85.0539 312.641 78.5707 317.836 74.2485 316.104L73.8163 317.403C74.4647 317.836 75.3291 317.836 75.9774 317.836Z" fill="#171753"/>
<path d="M57.0292 306.861C61.7835 306.861 67.6185 302.315 73.4534 297.337C82.5299 289.544 89.4453 287.595 89.4453 287.595L89.0131 286.296C88.797 286.296 81.8815 288.461 72.5889 296.254C66.1057 301.666 59.6225 306.861 55.3003 305.13L54.8681 306.428C55.5164 306.861 56.3808 306.861 57.0292 306.861Z" fill="#171753"/>
<path d="M89.0126 325.304C93.7669 325.304 99.6018 320.758 105.437 315.779C114.513 307.986 121.429 306.038 121.429 306.038L120.997 304.739C120.78 304.739 113.865 306.904 104.572 314.697C98.0891 320.109 91.6059 325.304 87.2837 323.572L86.8515 324.871C87.4998 325.304 88.3642 325.304 89.0126 325.304Z" fill="#171753"/>
<path d="M69.7089 314.373C74.4632 314.373 80.2981 309.827 86.133 304.848C95.2095 297.055 102.125 295.106 102.125 295.106L101.693 293.808C101.477 293.808 94.5612 295.972 85.2686 303.765C78.7854 309.177 72.3021 314.373 67.98 312.641L67.5478 313.94C68.1961 314.373 69.0605 314.373 69.7089 314.373Z" fill="#171753"/>
<path d="M50.7616 303.397C55.516 303.397 61.3508 298.851 67.1858 293.872C76.2623 286.079 83.1777 284.131 83.1777 284.131L82.7455 282.832C82.5294 282.832 75.614 284.997 66.3213 292.79C59.8381 298.202 53.3549 303.397 49.0327 301.665L48.6005 302.964C49.2488 303.397 50.1133 303.397 50.7616 303.397Z" fill="#171753"/>
<path d="M115.377 376.825C115.377 376.825 115.594 376.825 115.377 376.825L178.913 340.024C179.561 339.591 179.994 338.509 179.561 338.076C176.752 335.478 167.675 329.417 152.764 338.076C133.098 349.549 132.018 359.074 117.538 365.568L115.377 376.825Z" fill="#5ED9D1"/>
<path d="M115.377 377.907L115.809 377.691L179.345 340.89C179.993 340.457 180.425 339.808 180.642 338.942C180.642 338.293 180.642 337.86 180.209 337.643C177.616 335.262 167.891 328.551 152.332 337.643C142.174 343.488 136.988 348.9 132.45 353.446C128.127 357.992 124.238 361.888 117.106 365.135L116.674 365.352L116.458 365.785L114.297 377.475L115.377 377.907ZM178.913 338.726C178.913 338.942 178.697 339.159 178.481 339.159L116.674 374.877L118.403 366.218C125.534 362.971 129.424 359.074 133.962 354.528C138.501 349.982 143.687 344.787 153.412 338.942C167.243 330.933 175.887 336.128 178.913 338.726Z" fill="#171753"/>
<path d="M116.891 370.331C117.107 370.331 124.671 368.383 134.396 358.208C141.959 350.199 159.464 331.366 176.969 341.756L177.617 340.674C159.248 329.85 141.095 349.116 133.315 357.559C124.022 367.517 116.675 369.249 116.675 369.249L116.891 370.331Z" fill="#171753"/>
<path d="M116.459 372.712C116.675 372.712 124.022 371.846 133.315 362.971C134.396 361.888 135.692 360.589 136.989 359.29C146.065 350.199 158.6 337.643 172.647 344.137L173.295 342.838C158.384 335.911 145.417 348.9 136.124 358.208C134.828 359.507 133.531 360.806 132.451 361.888C123.59 370.331 116.459 371.197 116.459 371.197V372.712Z" fill="#171753"/>
<path d="M129.641 369.465C129.641 369.465 139.582 360.157 146.929 353.446C154.493 346.735 161.409 344.787 167.027 347.385L167.676 346.086C161.625 343.055 154.061 345.22 146.065 352.363C138.501 359.074 128.776 368.383 128.776 368.383L129.641 369.465Z" fill="#171753"/>
<path d="M138.716 364.053C138.716 364.053 146.496 355.827 152.547 352.796C158.166 349.766 161.623 350.848 161.623 350.848L162.056 349.549C161.84 349.549 158.166 348.25 151.899 351.714C145.848 354.961 138.068 362.97 137.852 363.403L138.716 364.053Z" fill="#171753"/>
<path d="M205.108 29.8212L198.883 26.2621C198.735 26.1138 198.587 26.1138 198.439 26.2621L193.548 29.3763C193.399 29.3763 193.399 29.5246 193.548 29.6729L198.29 34.715C198.29 34.715 198.29 34.715 198.29 34.8633V36.4945C198.29 36.9394 198.587 37.5326 198.883 37.6809L200.514 35.753L200.217 38.4224C200.217 38.5707 200.365 38.5707 200.514 38.4224L205.404 35.3081C205.404 35.3081 205.553 35.0116 205.553 34.715V30.8593C205.849 30.5627 205.553 30.1178 205.108 29.8212Z" fill="white"/>
<path d="M200.513 39.3121H200.364C200.216 39.3121 199.92 39.1638 199.92 38.8672L199.772 38.7189L199.92 37.6808L199.179 38.5706L198.734 38.274C198.141 37.9774 197.697 37.2359 197.697 36.4944V35.0115L192.954 29.9694C192.658 29.5245 192.806 29.0796 193.25 28.7831L198.141 25.6688C198.438 25.5205 198.882 25.5205 199.179 25.6688L205.404 29.2279C205.996 29.5245 206.441 30.266 206.441 31.0075V34.8632C206.441 35.3081 206.145 35.753 206.145 35.753L205.996 35.9013L201.106 39.0155C200.809 39.1638 200.661 39.3121 200.513 39.3121ZM200.364 35.0115L200.809 35.3081C200.957 35.3081 200.957 35.4564 201.106 35.6047L201.254 35.753L201.106 37.6808L205.107 35.1598C205.107 35.1598 205.107 35.1598 205.107 35.0115V31.1558C205.107 30.8592 204.959 30.5626 204.811 30.4143L198.586 26.8552L194.14 29.5245L198.586 34.27C198.734 34.4183 198.734 34.5666 198.734 34.7149V36.3461C198.734 36.4944 198.734 36.4944 198.734 36.6427L200.364 35.0115Z" fill="#171753"/>
<path d="M196.956 35.1602C196.956 35.1602 196.956 35.3085 196.956 35.4568L200.365 38.4228C200.513 38.571 200.661 38.571 200.809 38.571L205.7 35.6051C205.7 35.6051 205.849 35.3085 205.849 35.0119V31.3045C205.849 31.1562 205.7 31.1562 205.7 31.1562L200.809 34.2705L196.956 35.1602Z" fill="#171753"/>
<path d="M200.661 39.1644C200.513 39.1644 200.513 39.1644 200.364 39.1644C200.216 39.1644 199.92 39.0161 199.772 38.8678L196.066 35.7536L196.215 34.7155L200.364 33.8258L205.255 30.7116C205.552 30.5633 205.848 30.5633 205.996 30.7116C206.293 30.8599 206.441 31.1564 206.441 31.3047V35.0121C206.441 35.457 206.145 35.9019 206.145 35.9019L205.996 36.0502L201.106 39.0161C200.957 39.1644 200.809 39.1644 200.661 39.1644ZM197.993 35.6053L200.661 37.8298L205.255 35.0121C205.255 35.0121 205.255 35.0121 205.255 34.8638V32.0462L201.254 34.5673L201.106 34.7155L197.993 35.6053Z" fill="#171753"/>
<path d="M200.069 38.7187L193.844 35.1596C193.547 35.0113 193.251 34.4181 193.251 33.9732V30.1175C193.251 29.6726 193.547 29.376 193.844 29.6726L200.069 33.2317C200.365 33.38 200.661 33.9732 200.661 34.4181V38.2738C200.661 38.7187 200.365 38.867 200.069 38.7187Z" fill="#8989C7"/>
<path d="M200.216 39.46C200.068 39.46 199.772 39.46 199.624 39.3117L193.399 35.7526C192.806 35.456 192.361 34.7145 192.361 33.973V30.1173C192.361 29.6724 192.51 29.2275 192.954 29.0792C193.251 28.9309 193.695 28.9309 193.992 29.0792L200.216 32.6383C200.809 32.9349 201.254 33.6764 201.254 34.4179V38.2736C201.254 38.7185 201.106 39.1634 200.661 39.3117C200.661 39.3117 200.513 39.46 200.216 39.46ZM200.365 38.1253L200.068 38.7185L200.365 38.1253ZM193.695 30.1173V33.8247C193.695 34.1213 193.843 34.4179 193.992 34.5662L199.92 37.977V34.2696C199.92 33.973 199.772 33.6764 199.624 33.5281L193.695 30.1173Z" fill="#171753"/>
<path d="M201.244 27.3823L196.339 30.4407L196.966 31.4475L201.871 28.3892L201.244 27.3823Z" fill="#171753"/>
<path d="M205.266 33.6106L200.949 36.2114L201.484 37.1004L205.801 34.4996L205.266 33.6106Z" fill="#8989C7"/>
<path d="M221.26 137.336L207.477 129.476C207.328 129.328 207.032 129.328 207.032 129.476L201.252 133.035C201.104 133.035 201.104 133.183 201.104 133.332L206.735 139.264V139.412V141.34C206.735 141.933 207.032 142.526 207.477 142.823L209.403 140.598C209.403 140.598 209.403 140.598 209.551 140.746L215.628 147.716C215.628 147.865 215.776 147.865 215.924 147.865L221.705 144.306C221.705 144.306 222.001 144.009 222.001 143.712V139.115C222.001 138.225 221.556 137.632 221.26 137.336Z" fill="white"/>
<path d="M215.778 148.309H215.629C215.481 148.309 215.185 148.161 215.185 148.013L209.553 141.636L207.774 143.712L207.33 143.416C206.737 143.119 206.292 142.229 206.292 141.34V139.56L200.809 133.628C200.512 133.183 200.66 132.738 201.105 132.442L206.885 128.883C207.182 128.734 207.626 128.734 208.071 128.883L221.854 136.742C222.447 137.039 222.892 137.929 222.892 138.819V143.416C222.892 143.861 222.595 144.305 222.447 144.454L222.299 144.602L216.519 148.161C216.074 148.309 215.926 148.309 215.778 148.309ZM209.997 140.301L215.926 146.975L221.261 143.564V143.416V138.819C221.261 138.522 220.965 138.077 220.817 137.929L207.182 130.069L201.846 133.332L207.182 138.967C207.33 139.115 207.33 139.263 207.33 139.412V141.34C207.33 141.488 207.33 141.636 207.478 141.784L209.256 139.708L209.701 140.005C209.849 140.005 209.849 140.153 209.997 140.301Z" fill="#171753"/>
<path d="M211.629 143.564C211.629 143.564 211.629 143.712 211.629 144.009L215.631 147.42C215.779 147.568 215.927 147.716 216.223 147.568L221.855 144.009C221.855 144.009 222.152 143.712 222.152 143.416V139.115C222.152 138.967 222.004 138.967 221.855 138.967L216.075 142.526L211.629 143.564Z" fill="#171753"/>
<path d="M215.927 148.161C215.778 148.161 215.778 148.161 215.63 148.161C215.334 148.161 215.186 148.013 215.037 147.865L210.739 144.306L210.887 143.119L215.63 142.081L221.262 138.522C221.559 138.374 221.855 138.374 222.003 138.522C222.3 138.67 222.448 138.967 222.448 139.264V143.564C222.448 144.009 222.151 144.454 222.003 144.602L221.855 144.751L216.223 148.31C216.223 148.161 216.075 148.161 215.927 148.161ZM212.518 144.009L215.927 146.827L221.262 143.416V143.268V139.857L216.371 142.971L216.223 143.119L212.518 144.009Z" fill="#171753"/>
<path d="M215.184 147.717L201.4 139.857C200.956 139.56 200.659 138.967 200.659 138.374V133.777C200.659 133.184 200.956 132.887 201.4 133.184L215.184 141.043C215.628 141.34 215.925 141.933 215.925 142.526V147.124C215.925 147.717 215.628 148.013 215.184 147.717Z" fill="#8989C7"/>
<path d="M215.481 148.458C215.333 148.458 215.037 148.458 214.888 148.31L201.105 140.45C200.512 140.153 200.067 139.264 200.067 138.374V133.777C200.067 133.183 200.216 132.887 200.66 132.59C200.957 132.442 201.401 132.442 201.846 132.59L215.629 140.45C216.222 140.747 216.667 141.636 216.667 142.526V147.123C216.667 147.716 216.519 148.013 216.074 148.31C215.926 148.458 215.629 148.458 215.481 148.458ZM201.401 133.777V138.225C201.401 138.522 201.698 138.967 201.846 139.115L215.333 146.975V142.526C215.333 142.229 215.037 141.785 214.888 141.636L201.401 133.777Z" fill="#171753"/>
<path d="M210.336 130.726L204.55 134.334L205.177 135.341L210.963 131.733L210.336 130.726Z" fill="#171753"/>
<path d="M221.332 141.802L216.251 144.859L216.786 145.748L221.866 142.692L221.332 141.802Z" fill="#8989C7"/>
<path d="M217.111 55.1804L173.241 29.8218C170.722 28.3389 168.498 28.1906 166.72 29.0804L159.606 33.6775C159.606 33.6775 159.458 33.8258 159.606 33.8258C160.199 35.1605 166.127 47.6173 166.72 49.8418C167.016 50.8798 168.795 60.3708 171.018 71.3447V76.9799C171.018 80.0941 172.204 83.505 173.982 86.6192C176.205 98.3345 178.132 108.27 178.132 108.27L184.653 123.841L190.285 120.431C190.73 120.134 190.878 119.689 190.73 119.393L189.841 116.872L198.585 111.829C198.289 110.347 198.14 108.715 197.992 106.936L216.963 128.142L223.632 123.841L223.781 123.693C225.411 122.655 226.448 120.579 226.448 117.613V71.6413C226.596 65.5611 222.447 58.1464 217.111 55.1804Z" fill="#8989C7"/>
<path d="M216.964 128.884L199.031 108.864C199.179 109.754 199.327 110.643 199.475 111.533L199.624 111.978L190.879 116.872L191.62 118.8C191.917 119.541 191.62 120.431 190.879 120.727L184.506 124.583L177.54 108.122C177.54 108.122 175.614 98.1865 173.39 86.4711C171.464 83.2086 170.426 79.6495 170.426 76.5353V71.0483C167.166 54.2909 166.276 50.1386 166.128 49.5454C165.684 47.7659 161.534 38.7198 159.014 33.6778C158.866 33.2329 159.014 32.788 159.311 32.4914L166.869 27.7459C168.796 27.0045 171.167 27.301 173.539 28.784L217.557 54.4392C223.041 57.5534 227.339 65.2648 227.339 71.4932V117.465C227.339 120.579 226.301 122.952 224.374 124.138C224.226 124.138 224.226 124.287 224.078 124.287L216.964 128.884ZM197.252 104.86L217.26 127.104L223.633 122.952C225.116 121.914 226.005 119.986 226.005 117.465V71.4932C226.005 65.7097 221.855 58.5915 216.964 55.7739L173.094 30.4153C170.871 29.0806 168.796 28.9323 167.314 29.6738H167.166L160.644 33.8261C162.127 36.9403 167.018 47.321 167.61 49.5454C167.759 50.4352 169.241 57.7017 171.908 71.1966V71.3449V76.9802C171.908 79.7978 172.946 83.2086 174.724 86.1745L174.873 86.4711C177.096 97.5933 178.874 107.233 179.022 108.122L185.247 122.804L190.286 119.838C190.435 119.838 190.435 119.689 190.435 119.541L189.397 116.427L198.29 111.385C197.993 109.902 197.845 108.419 197.697 106.936L197.252 104.86Z" fill="#171753"/>
<path d="M217.111 55.0316L174.723 30.5627L161.236 39.3122L206.588 63.3362L215.777 64.8191L222.743 60.6668C221.113 58.2941 219.186 56.3662 217.111 55.0316Z" fill="white"/>
<path d="M215.925 65.4127L206.143 63.7814L159.754 39.3126L174.575 29.6733L217.407 54.4388C219.482 55.6251 221.557 57.7013 223.336 60.2223L223.78 60.8155L215.925 65.4127ZM206.736 62.595L215.629 63.9297L221.705 60.3706C220.223 58.2945 218.445 56.8115 216.666 55.7734L174.723 31.4529L162.718 39.1643L206.736 62.595Z" fill="#171753"/>
<path d="M219.336 72.235C219.336 72.235 201.551 76.3872 200.513 76.8321C199.624 77.1287 182.135 91.2168 176.207 97.7419C177.393 103.97 178.282 108.123 178.282 108.123L184.803 123.694L190.732 120.283C191.176 119.986 191.324 119.541 191.176 119.245L190.287 116.724L198.735 111.682C198.438 110.199 189.694 113.461 189.546 111.83L217.113 127.994L223.782 123.694L223.93 123.545C225.561 122.507 226.598 120.431 226.598 117.465V71.6418C226.598 70.4554 226.45 69.4173 226.154 68.231L219.336 72.235Z" fill="#171753"/>
<path d="M224.858 74.8628L221.6 76.9207L222.39 78.1741L225.648 76.1163L224.858 74.8628Z" fill="#8989C7"/>
<path d="M224.872 117.26L221.615 119.319L222.406 120.572L225.664 118.513L224.872 117.26Z" fill="#8989C7"/>
<path d="M188.608 116.736L185.351 118.795L186.142 120.048L189.399 117.989L188.608 116.736Z" fill="#8989C7"/>
<path d="M210.294 59.4816L166.424 34.1231C161.237 31.1571 156.938 33.5299 156.938 39.61V85.5817C156.938 91.6619 161.237 98.9284 166.424 102.043L171.463 104.86C172.352 105.453 173.093 106.491 173.241 107.678C173.834 111.089 175.761 118.355 182.875 123.694C184.209 124.732 185.395 123.842 184.95 122.063C184.505 119.838 183.913 117.02 183.913 114.351C183.913 113.165 184.802 112.72 185.839 113.313L210.294 127.401C215.481 130.367 219.779 127.994 219.779 121.914V75.9425C219.779 69.8624 215.481 62.5959 210.294 59.4816Z" fill="#8989C7"/>
<path d="M214.593 129.477C213.111 129.477 211.629 129.032 209.998 128.142L185.544 114.054C185.247 113.906 184.951 113.906 184.951 113.906C184.803 113.906 184.803 114.203 184.803 114.499C184.803 117.168 185.396 120.134 185.84 122.062C186.137 123.249 185.84 124.287 185.099 124.732C184.358 125.176 183.469 125.028 182.58 124.435C175.317 119.096 173.243 111.83 172.65 107.974C172.501 107.084 171.909 106.046 171.168 105.601L166.128 102.784C160.645 99.6695 156.347 91.9582 156.347 85.7297V39.758C156.347 36.4955 157.532 34.1228 159.459 32.9364C161.534 31.75 164.054 32.0466 166.87 33.5296L210.739 58.8882C216.223 62.0024 220.521 69.7138 220.521 75.9422V121.914C220.521 125.176 219.336 127.549 217.409 128.736C216.52 129.18 215.482 129.477 214.593 129.477ZM184.951 112.275C185.396 112.275 185.692 112.423 186.137 112.571L210.591 126.659C212.814 127.994 215.038 128.291 216.52 127.253C218.002 126.363 218.891 124.435 218.891 121.766V75.7939C218.891 70.0104 214.741 62.8922 209.85 60.0745L165.98 34.7159C163.757 33.3813 161.534 33.0847 160.052 34.1228C158.57 35.0125 157.681 36.9404 157.681 39.6097V85.5814C157.681 91.365 161.83 98.4832 166.721 101.301L171.76 104.118C172.798 104.712 173.687 106.046 173.984 107.381C174.576 110.94 176.503 117.762 183.321 122.804C183.765 123.1 184.062 123.1 184.21 123.1C184.358 122.952 184.506 122.655 184.358 121.914C183.914 119.838 183.321 116.872 183.321 114.054C183.321 113.164 183.617 112.571 184.21 112.275C184.358 112.423 184.655 112.275 184.951 112.275Z" fill="#171753"/>
<path d="M202.143 84.0991L186.284 64.8206C185.099 63.3377 183.765 62.8928 182.876 63.3377L182.579 63.486L177.244 66.7485C177.244 66.7485 177.095 66.8968 177.244 66.8968L179.763 72.8286L180.801 75.3496L181.986 74.015V85.5821C181.986 88.2514 184.506 91.3656 186.433 91.2173L194.288 90.7724C194.288 90.7724 194.288 90.7724 194.436 90.7724L197.548 93.2935H197.696L203.032 90.0309C204.218 89.1412 203.921 86.3236 202.143 84.0991Z" fill="#8989C7"/>
<path d="M197.252 93.8862C197.104 93.8862 196.955 93.8862 196.807 93.7379L193.843 91.3651L186.284 91.81C185.395 91.81 184.358 91.3651 183.468 90.6236C181.986 89.289 181.097 87.3611 181.097 85.5816V75.6457L180.356 76.5355L179.022 73.1247L176.502 67.1929C176.354 66.8963 176.502 66.4514 176.799 66.3031L182.431 62.8923C183.765 62.2991 185.395 62.8923 186.729 64.5236L202.587 83.802C203.921 85.285 204.514 87.3611 204.218 88.8441C204.069 89.5856 203.625 90.327 203.032 90.6236L197.696 93.8862C197.548 93.8862 197.4 93.8862 197.252 93.8862ZM193.991 90.0305C194.139 90.0305 194.288 90.0305 194.436 90.1788L197.252 92.5515L202.439 89.4373C202.736 89.289 202.884 88.8441 203.032 88.5475C203.18 87.5094 202.884 85.8782 201.698 84.5435L185.84 65.265C184.802 63.9304 183.617 63.6338 183.172 63.9304L183.024 64.0787L178.133 67.0446L181.097 74.3111L182.727 72.5315V85.7299C182.727 87.0645 183.468 88.6958 184.654 89.8822C185.247 90.4753 185.988 90.7719 186.581 90.7719L193.991 90.0305Z" fill="#171753"/>
<path d="M197.548 78.4632L186.284 64.6717C185.099 63.1888 183.765 62.7439 182.876 63.1888L182.579 63.3371L177.244 66.5996C177.244 66.5996 177.095 66.7479 177.244 66.7479L179.763 72.6797L180.801 75.2007L181.986 73.8661V78.9081C182.135 78.9081 182.135 78.9081 182.283 78.9081L181.986 79.5013V85.2849C181.986 86.0263 182.135 86.7678 182.579 87.5093L197.548 78.4632Z" fill="white"/>
<path d="M181.986 88.8433L181.69 88.2501C181.245 87.3603 181.097 86.4705 181.097 85.729V75.7932L180.356 76.683L179.022 73.2722L176.502 67.3403C176.354 67.0438 176.502 66.5989 176.799 66.4506L182.431 63.0398C183.765 62.4466 185.395 63.0398 186.729 64.671L198.586 79.0557L181.986 88.8433ZM182.431 79.9455V85.5807C182.431 86.0256 182.579 86.4705 182.727 86.9154L196.659 78.3142L185.84 65.1159C184.802 63.7812 183.617 63.4846 183.172 63.7812L183.024 63.9295L178.133 66.8955L181.097 74.162L182.727 72.3824V78.4625H183.468L182.431 79.9455Z" fill="#171753"/>
<path d="M194.14 90.7724L197.252 93.2934H197.401L202.736 90.0309C204.07 89.2895 203.922 86.3235 201.995 84.0991L200.365 82.0229L194.733 85.4337C194.733 85.4337 191.176 86.4718 190.731 87.065C190.435 87.5099 191.028 90.1792 191.176 90.9207L194.14 90.7724C194.14 90.6241 194.14 90.6241 194.14 90.7724Z" fill="#171753"/>
<path d="M197.252 93.8861C197.103 93.8861 196.955 93.8861 196.807 93.7378L193.843 91.365L190.73 91.5133L190.582 91.0684C189.693 87.5093 190.138 87.0644 190.286 86.7679C190.73 86.1747 192.805 85.4332 194.436 84.9883L200.512 81.4292L202.439 83.8019C203.773 85.2849 204.366 87.361 204.069 88.844C203.921 89.5855 203.476 90.327 202.884 90.6235L197.548 93.8861C197.548 93.8861 197.4 93.8861 197.252 93.8861ZM193.991 90.0304C194.139 90.0304 194.287 90.0304 194.436 90.1787L197.252 92.5514L202.439 89.4372C202.735 89.2889 202.884 88.844 203.032 88.5474C203.18 87.5093 202.884 85.8781 201.698 84.5434L200.364 82.9122L195.028 86.0264C193.546 86.4713 191.916 87.0644 191.471 87.361C191.471 87.6576 191.62 88.6957 191.916 90.1787L193.991 90.0304Z" fill="#171753"/>
<path d="M176.206 68.676V89.1408C176.206 91.8101 178.726 94.9244 180.652 94.7761L196.511 93.738C198.586 93.5897 198.586 90.1789 196.511 87.6579L180.652 68.3794C178.577 65.7101 176.206 66.0067 176.206 68.676Z" fill="white"/>
<path d="M180.504 95.2212C179.615 95.2212 178.725 94.7763 177.836 94.0348C176.354 92.7002 175.465 90.7723 175.465 88.9928V68.6762C175.465 67.3416 176.058 66.4518 176.947 66.0069C178.133 65.562 179.763 66.3035 180.949 67.7864L196.807 87.0649C198.289 88.8445 198.882 91.3655 198.289 92.8484C197.993 93.5899 197.252 94.1831 196.362 94.1831L180.504 95.2212C180.504 95.2212 180.652 95.2212 180.504 95.2212ZM177.836 67.1933C177.688 67.1933 177.54 67.1933 177.54 67.1933C176.947 67.3416 176.799 68.2313 176.799 68.6762V89.141C176.799 90.4757 177.54 92.107 178.725 93.2933C179.318 93.8865 180.059 94.1831 180.652 94.1831L196.511 93.145C196.955 93.145 197.103 92.9967 197.252 92.5519C197.696 91.6621 197.252 89.7342 196.066 88.103L180.208 68.8245C179.318 67.4898 178.429 67.1933 177.836 67.1933Z" fill="#171753"/>
<path d="M185.926 64.2206L180.24 67.7087L180.86 68.7201L186.546 65.232L185.926 64.2206Z" fill="#171753"/>
<path d="M201.631 85.7505L198.066 87.8745L198.597 88.766L202.162 86.6421L201.631 85.7505Z" fill="#8989C7"/>
<path d="M58.8095 37.1153L117.993 2.82574C121.292 0.966665 124.386 0.553538 126.654 1.79292L136.14 7.98983C136.14 7.98983 136.346 8.19639 136.14 8.19639C135.315 10.0555 127.273 26.7871 126.448 29.8856C126.242 31.1249 123.561 43.9319 120.674 59.011V66.4473C120.674 70.5786 119.23 75.3295 116.756 79.4608C113.662 95.3662 111.188 108.793 111.188 108.793L102.321 129.656L94.6908 125.111C94.2783 124.905 93.8659 124.285 94.0721 123.665L95.3094 120.154L83.5552 113.337C83.9676 111.272 84.1738 108.999 84.3801 106.727L58.8095 135.233L49.7361 129.449L49.5299 129.243C47.2616 127.797 46.0243 125.111 46.0243 121.187V59.2176C46.0243 51.1616 51.7983 41.04 58.8095 37.1153Z" fill="#8989C7"/>
<path d="M59.2222 136.679L83.3492 109.619C83.143 110.858 82.9368 111.891 82.7305 113.13L82.5243 113.75L94.2785 120.36L93.2475 123.045C92.835 124.078 93.2475 125.111 94.2785 125.731L102.94 130.895L112.219 108.793C112.219 108.793 114.9 95.366 117.787 79.6671C120.468 75.3293 121.911 70.5783 121.911 66.2405V58.8042C125.417 40.6266 127.273 30.9181 127.685 29.8853C128.304 27.4066 133.872 15.2193 137.171 8.40271C137.377 7.78302 137.171 7.16333 136.759 6.95676L126.654 0.553296C123.973 -0.479522 120.88 -0.0663976 117.581 1.79267L58.3973 36.0822C51.1798 40.2135 45.1996 50.5417 45.1996 59.0108V120.98C45.1996 125.111 46.6431 128.416 49.1177 129.862C49.3239 129.862 49.3239 130.069 49.5301 130.069L59.2222 136.679ZM85.6176 104.042L58.8097 133.993L50.1488 128.416C48.0866 127.177 47.0555 124.491 47.0555 120.98V59.0108C47.0555 51.1614 52.6233 41.6594 59.4284 37.7347L118.612 3.44519C121.499 1.79268 124.386 1.37955 126.448 2.41237H126.654L135.521 7.98958C133.459 12.1208 126.86 26.3737 126.242 29.2656C126.035 30.505 124.18 40.0069 120.468 58.3911V58.5976V66.0339C120.468 69.9586 119.024 74.503 116.55 78.4277L116.343 78.8409C113.456 93.92 110.982 106.727 110.776 107.966L102.321 127.796L95.722 123.665C95.5158 123.665 95.5158 123.459 95.5158 123.252L96.9593 119.121L84.9989 112.304C85.4113 110.239 85.6176 108.173 85.6176 106.314V104.042Z" fill="#171753"/>
<path d="M59.0161 36.9091L116.137 3.85889L134.284 15.633L73.2449 48.0635L60.872 50.1291L51.3862 44.5519C53.4483 41.2469 56.1291 38.5616 59.0161 36.9091Z" fill="white"/>
<path d="M60.6653 50.9555L73.6568 48.8899L136.14 15.6331L116.137 2.61963L58.6032 36.0829C55.7162 37.7354 53.0354 40.4208 50.5608 43.7258L49.9422 44.552L60.6653 50.9555ZM72.832 47.0308L60.8715 48.8899L52.623 43.9323C54.6851 41.247 56.9535 38.9748 59.428 37.7354L115.931 4.89182L132.222 15.4266L72.832 47.0308Z" fill="#171753"/>
<path d="M55.923 60.2506C55.923 60.2506 79.8438 65.8278 81.2873 66.4475C82.5246 66.8606 106.033 85.8645 113.869 94.7467C112.219 103.009 111.188 108.793 111.188 108.793L102.321 129.656L94.2788 125.112C93.6602 124.905 93.4539 124.285 93.6602 123.666L94.8975 120.154L83.3495 113.337C83.7619 111.272 95.5161 115.816 95.7223 113.544L58.6038 135.233L49.5304 129.449L49.3242 129.243C47.0558 127.797 45.8185 125.112 45.8185 121.187V59.2178C45.8185 57.7718 46.0247 56.1193 46.4372 54.4668L55.923 60.2506Z" fill="#171753"/>
<path d="M97.1401 119.841L101.674 122.708L100.683 124.28L96.1494 121.413L97.1401 119.841Z" fill="#8989C7"/>
<path d="M68.0889 43.1059L127.272 8.81641C134.284 4.68514 140.058 7.99015 140.058 16.2527V78.2217C140.058 86.2777 134.284 96.1928 127.272 100.324L120.467 104.249C119.23 104.868 118.199 106.521 117.993 107.967C117.168 112.511 114.693 122.426 105.001 129.45C103.145 130.895 101.702 129.656 102.114 127.177C102.733 124.285 103.558 120.361 103.558 116.849C103.558 115.197 102.32 114.577 101.083 115.403L68.0889 134.407C61.0777 138.538 55.3037 135.233 55.3037 126.971V65.0017C55.3037 56.9457 61.0777 47.0307 68.0889 43.1059Z" fill="#ECFFFE"/>
<path d="M62.3153 137.299C64.1712 137.299 66.4395 136.679 68.5017 135.44L101.496 116.436C101.908 116.229 102.321 116.229 102.321 116.229C102.527 116.229 102.527 116.642 102.527 117.056C102.527 120.774 101.702 124.698 101.083 127.177C100.671 128.83 101.083 130.069 102.115 130.895C102.939 131.515 104.383 131.308 105.414 130.482C115.106 123.252 117.993 113.544 118.818 108.38C119.024 107.14 119.849 105.901 120.88 105.281L127.685 101.357C134.903 97.2254 140.883 86.8972 140.883 78.4281V16.4591C140.883 12.1212 139.439 8.8162 136.759 7.37026C134.078 5.71775 130.572 6.13088 126.86 8.19651L67.6768 42.4861C60.4593 46.6173 54.4791 56.9455 54.4791 65.4146V127.384C54.4791 131.722 55.9226 135.027 58.6034 136.472C59.6345 136.886 61.078 137.299 62.3153 137.299ZM102.115 114.164C101.496 114.164 101.083 114.37 100.465 114.577L67.4706 133.581C64.3774 135.44 61.4904 135.646 59.4283 134.407C57.3661 133.167 56.1288 130.482 56.1288 126.971V65.0015C56.1288 57.1521 61.6966 47.6502 68.5017 43.7254L127.685 9.43589C130.778 7.57682 133.665 7.37026 135.727 8.60964C137.79 9.84902 139.027 12.5343 139.027 16.0459V78.015C139.027 85.8644 133.459 95.3663 126.654 99.291L119.849 103.216C118.405 104.042 117.168 105.901 116.962 107.76C116.137 112.718 113.456 121.806 104.383 128.623C103.764 129.036 103.352 129.036 103.352 129.036C103.146 128.83 102.939 128.416 103.146 127.59C103.97 123.666 104.589 120.154 104.589 117.056C104.589 116.023 104.177 114.99 103.352 114.577C102.939 114.37 102.527 114.164 102.115 114.164Z" fill="#171753"/>
<path d="M110.157 66.0362C110.157 63.8641 111.635 61.2191 113.483 60.0848C115.331 58.9505 116.809 59.7808 116.809 61.9528C116.809 64.1249 115.331 66.77 113.483 67.9042C111.635 69.0385 110.157 68.1359 110.157 66.0362Z" fill="#171753"/>
<path d="M131.595 63.196C131.472 64.5025 131.349 65.8089 131.041 67.1564C130.117 71.8505 128.084 76.8631 124.758 81.0045C120.2 86.5536 114.78 88.8672 110.222 89.5654C106.465 94.985 106.465 94.985 106.465 94.985C105.602 96.166 104.494 95.7605 104.987 94.372C103.939 95.2319 103.631 94.2625 103.939 93.1323C103.077 94.458 102.338 93.4637 102.831 92.2924C103.139 91.5241 103.631 90.57 104.001 89.8363C98.7039 89.5402 93.8996 88.1452 89.0336 86.8604C91.8054 87.1862 102.892 87.0416 105.602 86.7536C108.436 86.4625 111.269 86.1713 114.226 85.1529C116.689 84.2922 119.831 82.7259 122.11 79.6617C124.204 76.9282 125.005 73.4682 125.313 70.6002C126.052 64.3544 124.327 58.8968 121.74 55.5614C119.03 52.0845 114.595 50.173 109.545 51.7528C107.697 52.3079 105.849 53.4422 104.124 54.8628C100.121 58.1168 96.4865 63.2437 93.7148 68.5652C89.7112 76.2357 86.9394 84.3809 84.4141 92.3025C82.6894 97.6329 80.2873 109.533 74.6206 108.885C72.0952 108.553 70.4938 106.277 69.3851 103.772C68.1532 101.126 67.2909 97.0936 68.0916 92.9096C69.8162 84.1039 79.0554 85.3108 82.1967 85.8442C82.0119 85.8852 74.6206 86.4401 71.9104 91.217C70.6786 93.4213 70.7401 95.9899 70.9249 97.759C71.2945 100.935 72.7112 105.134 75.4213 105.352C78.9322 105.587 80.7184 97.0327 81.6423 93.8591C83.1822 88.4973 84.6604 83.1734 86.3851 77.7706C88.2945 71.82 90.5735 65.7149 93.7148 59.9493C93.0373 59.424 92.0517 58.8705 91.9902 57.6774C91.867 56.3774 93.0373 54.1386 94.2691 54.1064C92.8525 53.0936 94.7619 49.0978 96.6097 49.0496C95.7474 47.9861 97.1025 45.127 98.5191 44.3298C99.3199 43.8383 100.121 44.1432 100.737 44.2719C102.338 44.5197 103.939 44.8399 105.602 45.0499C120.939 32.8118 132.95 45.9289 131.595 63.196Z" fill="#171753"/>
<g clip-path="url(#clip0_249_8991)">
<path d="M121.038 218.479V135.684C121.038 131.993 123.273 130.283 126.053 131.798L188.916 168.134C190.444 169.231 191.694 170.67 192.565 172.337C193.436 174.004 193.904 175.852 193.931 177.733V260.508L121.038 218.479Z" fill="#ECFFFE"/>
<path d="M194.98 262.451L119.91 219.12V135.684C119.817 134.721 119.981 133.75 120.383 132.869C120.786 131.989 121.414 131.231 122.204 130.671C122.894 130.312 123.668 130.145 124.445 130.19C125.222 130.234 125.972 130.488 126.616 130.924L189.401 167.182C191.105 168.368 192.501 169.945 193.471 171.78C194.441 173.616 194.959 175.657 194.98 177.732V262.451ZM122.145 217.76L192.764 258.565V177.732C192.732 176.048 192.313 174.393 191.537 172.896C190.762 171.4 189.652 170.103 188.293 169.105L125.489 132.847C125.18 132.627 124.82 132.488 124.443 132.444C124.065 132.4 123.683 132.452 123.331 132.595C122.894 132.972 122.557 133.451 122.35 133.99C122.143 134.529 122.072 135.111 122.145 135.684V217.76Z" fill="#171753"/>
<path d="M186.446 244.186L128.462 210.726C127.859 210.274 127.369 209.687 127.032 209.012C126.694 208.338 126.519 207.594 126.519 206.84V141.047C126.519 139.551 127.432 138.871 128.462 139.512L186.446 172.972C187.051 173.424 187.541 174.01 187.879 174.685C188.216 175.36 188.392 176.104 188.39 176.858V242.67C188.448 244.128 187.554 244.827 186.446 244.186Z" fill="#4D3D8D"/>
<path d="M181.995 219.256L170.332 193.647C170.099 193.161 169.652 192.85 169.38 193.005L153.246 203.09C152.391 203.634 150.953 201.574 151.555 200.681L156.959 192.733C157.063 192.529 157.117 192.302 157.117 192.073C157.117 191.843 157.063 191.617 156.959 191.412L149.883 175.168C149.261 173.711 147.94 172.856 147.182 173.497C144.013 176.431 136.316 183.523 133.07 186.477C132.543 187.034 132.138 187.696 131.88 188.418C131.623 189.141 131.518 189.909 131.573 190.674V204.042C131.611 204.818 131.832 205.574 132.217 206.249C132.602 206.925 133.14 207.5 133.789 207.928L181.023 235.131C182.267 235.831 183.259 235.248 183.259 233.83V224.755C183.22 222.855 182.79 220.983 181.995 219.256Z" fill="#ECFFFE"/>
<path d="M182.073 236.569C181.524 236.565 180.986 236.41 180.518 236.122L133.283 208.919C132.461 208.403 131.776 207.695 131.289 206.855C130.801 206.016 130.525 205.07 130.484 204.1V190.732C130.431 189.806 130.577 188.879 130.912 188.015C131.248 187.15 131.765 186.367 132.428 185.719C135.694 182.746 143.372 175.673 146.54 172.739C146.78 172.519 147.071 172.363 147.387 172.285C147.703 172.207 148.033 172.209 148.348 172.292C148.954 172.477 149.51 172.797 149.975 173.228C150.439 173.659 150.8 174.189 151.03 174.779L158.106 191.043C158.3 191.408 158.401 191.815 158.401 192.228C158.401 192.641 158.3 193.048 158.106 193.413L152.721 201.36C152.821 201.611 152.966 201.842 153.149 202.041L169.03 192.131C169.211 192.018 169.415 191.947 169.627 191.923C169.839 191.899 170.053 191.924 170.254 191.995C170.55 192.098 170.82 192.262 171.047 192.476C171.275 192.691 171.456 192.95 171.577 193.238L183.142 218.868C184.035 220.739 184.519 222.779 184.561 224.852V233.927C184.593 234.401 184.496 234.875 184.28 235.3C184.065 235.724 183.738 236.082 183.336 236.336C182.947 236.537 182.508 236.618 182.073 236.569ZM147.862 174.39C144.635 177.363 137.074 184.339 133.847 187.254C133.443 187.713 133.135 188.249 132.942 188.83C132.748 189.411 132.673 190.024 132.72 190.635V204.003C132.766 204.58 132.939 205.139 133.228 205.64C133.517 206.14 133.915 206.57 134.391 206.898L181.626 234.101C181.765 234.194 181.926 234.248 182.092 234.257C182.173 234.108 182.207 233.939 182.19 233.771V224.697C182.14 222.942 181.729 221.216 180.984 219.625L169.477 194.307L153.927 204.022C153.514 204.259 153.029 204.337 152.564 204.24C152.098 204.143 151.684 203.879 151.4 203.498C150.927 203.072 150.607 202.504 150.488 201.88C150.368 201.255 150.457 200.609 150.739 200.039L156.123 192.092C156.123 192.092 156.123 192.092 155.987 191.839L148.912 175.595C148.716 175.092 148.342 174.677 147.862 174.429V174.39Z" fill="#171753"/>
<path d="M167.377 179.307C167.377 182.843 164.89 184.281 161.818 182.513C160.206 181.46 158.864 180.042 157.902 178.375C156.939 176.707 156.383 174.836 156.278 172.914C156.278 169.377 158.767 167.94 161.818 169.708C163.436 170.757 164.782 172.174 165.748 173.842C166.714 175.51 167.272 177.382 167.377 179.307Z" fill="#ECFFFE"/>
<path d="M164.306 184.378C163.231 184.352 162.183 184.037 161.273 183.465C159.487 182.321 158 180.767 156.938 178.931C155.876 177.095 155.27 175.032 155.17 172.914C155.031 172.024 155.164 171.113 155.553 170.3C155.941 169.487 156.566 168.81 157.345 168.358C158.125 167.907 159.023 167.701 159.922 167.768C160.821 167.836 161.678 168.173 162.382 168.736C164.167 169.885 165.653 171.443 166.714 173.282C167.776 175.121 168.383 177.186 168.485 179.307C168.566 180.19 168.407 181.08 168.024 181.88C167.64 182.681 167.048 183.363 166.308 183.853C165.7 184.206 165.008 184.387 164.306 184.378ZM159.349 170.058C159.035 170.052 158.726 170.132 158.455 170.291C158.067 170.6 157.765 171.003 157.578 171.463C157.39 171.922 157.324 172.422 157.386 172.914C157.497 174.64 158.005 176.316 158.872 177.813C159.738 179.31 160.94 180.586 162.382 181.541C162.773 181.845 163.238 182.04 163.729 182.108C164.22 182.177 164.721 182.115 165.18 181.93C165.569 181.621 165.871 181.217 166.058 180.758C166.245 180.298 166.311 179.799 166.25 179.307C166.143 177.582 165.638 175.906 164.774 174.409C163.911 172.912 162.713 171.636 161.273 170.679C160.698 170.306 160.034 170.091 159.349 170.058Z" fill="#171753"/>
</g>
<g clip-path="url(#clip1_249_8991)">
<path d="M97.8154 230.991V148.196C97.8154 144.504 100.077 142.794 102.89 144.31L166.501 180.645C168.048 181.742 169.312 183.182 170.194 184.849C171.075 186.516 171.549 188.364 171.576 190.244V273.02L97.8154 230.991Z" fill="#ECFFFE"/>
<path d="M172.639 274.962L96.6751 231.632V148.196C96.5811 147.232 96.7463 146.261 97.1538 145.381C97.5614 144.501 98.1967 143.742 98.9959 143.182C99.6941 142.823 100.478 142.657 101.264 142.701C102.05 142.746 102.809 142.999 103.461 143.435L166.993 179.693C168.718 180.88 170.13 182.456 171.112 184.292C172.094 186.127 172.618 188.168 172.639 190.244V274.962ZM98.9369 230.271L170.396 271.076V190.244C170.364 188.559 169.939 186.904 169.155 185.408C168.37 183.912 167.247 182.614 165.872 181.617L102.32 145.359C102.007 145.138 101.643 145 101.262 144.956C100.88 144.911 100.493 144.963 100.137 145.106C99.6943 145.483 99.3532 145.963 99.1438 146.502C98.9345 147.041 98.8632 147.623 98.9369 148.196V230.271Z" fill="#171753"/>
<path d="M164.003 256.698L105.329 223.238C104.719 222.785 104.223 222.198 103.881 221.524C103.54 220.849 103.362 220.106 103.362 219.352V153.559C103.362 152.063 104.287 151.382 105.329 152.024L164.003 185.484C164.615 185.935 165.112 186.521 165.453 187.196C165.795 187.871 165.972 188.615 165.97 189.37V255.182C166.029 256.639 165.125 257.339 164.003 256.698Z" fill="#8989C7"/>
<path d="M159.499 231.768L147.697 206.158C147.461 205.672 147.009 205.361 146.733 205.517L130.408 215.601C129.542 216.146 128.087 214.086 128.697 213.192L134.165 205.245C134.27 205.04 134.325 204.814 134.325 204.584C134.325 204.355 134.27 204.128 134.165 203.924L127.005 187.679C126.375 186.222 125.038 185.367 124.271 186.008C121.065 188.942 113.276 196.035 109.991 198.988C109.458 199.546 109.048 200.207 108.787 200.93C108.527 201.652 108.421 202.42 108.476 203.185V216.554C108.515 217.33 108.739 218.086 109.128 218.761C109.518 219.436 110.062 220.011 110.718 220.44L158.515 247.643C159.774 248.342 160.778 247.76 160.778 246.341V237.267C160.739 235.366 160.303 233.495 159.499 231.768Z" fill="#ECFFFE"/>
<path d="M159.578 249.081C159.022 249.076 158.478 248.922 158.004 248.634L110.207 221.431C109.375 220.914 108.682 220.206 108.189 219.367C107.696 218.527 107.416 217.582 107.375 216.612V203.243C107.321 202.317 107.469 201.391 107.808 200.526C108.148 199.661 108.671 198.878 109.342 198.23C112.646 195.257 120.416 188.184 123.622 185.25C123.865 185.031 124.16 184.874 124.479 184.796C124.799 184.718 125.133 184.721 125.451 184.803C126.064 184.989 126.627 185.309 127.097 185.74C127.567 186.17 127.933 186.701 128.166 187.291L135.325 203.554C135.522 203.919 135.624 204.326 135.624 204.739C135.624 205.153 135.522 205.56 135.325 205.925L129.877 213.872C129.977 214.123 130.125 214.354 130.31 214.552L146.38 204.642C146.563 204.529 146.769 204.458 146.983 204.434C147.198 204.411 147.415 204.435 147.619 204.506C147.917 204.61 148.191 204.774 148.421 204.988C148.651 205.202 148.834 205.462 148.957 205.75L160.66 231.379C161.563 233.251 162.053 235.291 162.096 237.364V246.438C162.128 246.913 162.029 247.387 161.811 247.811C161.593 248.235 161.263 248.593 160.856 248.847C160.463 249.048 160.018 249.129 159.578 249.081ZM124.959 186.902C121.694 189.875 114.043 196.85 110.778 199.765C110.369 200.225 110.058 200.761 109.862 201.342C109.666 201.922 109.589 202.536 109.637 203.146V216.514C109.683 217.091 109.859 217.65 110.152 218.151C110.444 218.652 110.846 219.082 111.329 219.41L159.125 246.613C159.266 246.706 159.429 246.759 159.598 246.768C159.679 246.62 159.714 246.451 159.696 246.283V237.208C159.645 235.453 159.23 233.727 158.476 232.137L146.832 206.819L131.097 216.534C130.679 216.771 130.189 216.848 129.717 216.751C129.246 216.655 128.827 216.391 128.539 216.009C128.061 215.584 127.737 215.015 127.616 214.391C127.496 213.767 127.585 213.12 127.871 212.551L133.319 204.603C133.319 204.603 133.319 204.603 133.182 204.351L126.022 188.107C125.823 187.603 125.446 187.188 124.959 186.941V186.902Z" fill="#171753"/>
<path d="M144.708 191.818C144.708 195.355 142.19 196.792 139.083 195.024C137.451 193.971 136.093 192.554 135.119 190.886C134.145 189.219 133.582 187.348 133.477 185.425C133.477 181.889 135.994 180.451 139.083 182.219C140.719 183.269 142.081 184.685 143.059 186.353C144.036 188.021 144.601 189.894 144.708 191.818Z" fill="#ECFFFE"/>
<path d="M141.6 196.89C140.512 196.864 139.452 196.548 138.531 195.976C136.723 194.833 135.219 193.278 134.145 191.443C133.07 189.607 132.456 187.544 132.355 185.425C132.214 184.535 132.349 183.624 132.742 182.811C133.135 181.998 133.768 181.321 134.557 180.87C135.346 180.418 136.254 180.212 137.164 180.28C138.073 180.347 138.941 180.685 139.653 181.248C141.46 182.396 142.963 183.955 144.037 185.794C145.111 187.632 145.726 189.698 145.829 191.818C145.911 192.702 145.75 193.591 145.362 194.392C144.974 195.192 144.374 195.874 143.626 196.365C143.011 196.717 142.311 196.899 141.6 196.89ZM136.584 182.569C136.267 182.563 135.954 182.644 135.679 182.802C135.287 183.111 134.981 183.515 134.791 183.974C134.602 184.433 134.535 184.933 134.597 185.425C134.709 187.151 135.224 188.828 136.101 190.325C136.978 191.821 138.194 193.097 139.653 194.053C140.049 194.356 140.519 194.552 141.016 194.62C141.513 194.688 142.02 194.627 142.485 194.441C142.878 194.132 143.183 193.729 143.373 193.269C143.562 192.81 143.629 192.31 143.567 191.818C143.458 190.094 142.947 188.417 142.074 186.921C141.2 185.424 139.988 184.147 138.531 183.191C137.949 182.817 137.277 182.603 136.584 182.569Z" fill="#171753"/>
</g>
<g clip-path="url(#clip2_249_8991)">
<path d="M71.8994 250.949V168.714C71.8994 165.047 74.1611 163.348 76.9738 164.854L140.585 200.944C142.132 202.033 143.396 203.463 144.278 205.119C145.159 206.774 145.633 208.61 145.66 210.478V292.694L71.8994 250.949Z" fill="#ECFFFE"/>
<path d="M146.722 294.624L70.7581 251.586V168.713C70.6641 167.756 70.8293 166.792 71.2369 165.918C71.6444 165.043 72.2797 164.29 73.0789 163.734C73.7771 163.377 74.561 163.212 75.347 163.256C76.133 163.3 76.8919 163.552 77.5439 163.985L141.076 199.998C142.801 201.177 144.213 202.743 145.195 204.566C146.177 206.389 146.701 208.416 146.722 210.478V294.624ZM73.0199 250.235L144.479 290.764V210.478C144.447 208.804 144.022 207.16 143.238 205.674C142.453 204.188 141.33 202.9 139.955 201.909L76.4034 165.896C76.0905 165.677 75.7263 165.539 75.3446 165.495C74.9629 165.451 74.5759 165.503 74.2199 165.645C73.7773 166.019 73.4362 166.496 73.2269 167.031C73.0175 167.566 72.9462 168.144 73.0199 168.713V250.235Z" fill="#171753"/>
<path d="M138.086 276.482L79.4123 243.248C78.8015 242.799 78.3058 242.216 77.9644 241.546C77.623 240.876 77.4453 240.137 77.4453 239.388V174.04C77.4453 172.554 78.3698 171.879 79.4123 172.515L138.086 205.749C138.698 206.198 139.195 206.78 139.536 207.45C139.878 208.121 140.055 208.86 140.053 209.609V274.977C140.112 276.424 139.208 277.119 138.086 276.482Z" fill="#4D3D8D"/>
<path d="M133.582 251.721L121.78 226.284C121.544 225.802 121.092 225.493 120.816 225.647L104.491 235.664C103.625 236.204 102.17 234.158 102.78 233.271L108.248 225.377C108.353 225.174 108.408 224.949 108.408 224.721C108.408 224.493 108.353 224.268 108.248 224.065L101.088 207.93C100.458 206.483 99.121 205.634 98.3539 206.271C95.1478 209.185 87.3587 216.229 84.0739 219.163C83.541 219.717 83.1312 220.373 82.8705 221.091C82.6097 221.809 82.5037 222.571 82.5593 223.331V236.609C82.5984 237.38 82.8219 238.131 83.2114 238.802C83.6009 239.472 84.1453 240.044 84.8014 240.469L132.598 267.489C133.857 268.183 134.861 267.605 134.861 266.196V257.183C134.822 255.295 134.386 253.436 133.582 251.721Z" fill="#ECFFFE"/>
<path d="M133.661 268.917C133.105 268.912 132.561 268.759 132.087 268.473L84.2903 241.453C83.458 240.941 82.7655 240.237 82.272 239.403C81.7786 238.57 81.4991 237.631 81.4581 236.667V223.389C81.4043 222.469 81.5519 221.549 81.8912 220.69C82.2305 219.831 82.7536 219.054 83.425 218.41C86.7295 215.457 94.4989 208.432 97.705 205.518C97.9477 205.299 98.2426 205.144 98.5622 205.067C98.8818 204.989 99.2158 204.992 99.5342 205.074C100.147 205.258 100.71 205.576 101.18 206.004C101.65 206.431 102.016 206.958 102.249 207.544L109.408 223.698C109.605 224.06 109.707 224.465 109.707 224.875C109.707 225.286 109.605 225.69 109.408 226.052L103.96 233.946C104.06 234.195 104.208 234.424 104.393 234.621L120.463 224.779C120.646 224.666 120.852 224.596 121.066 224.572C121.281 224.549 121.498 224.573 121.702 224.643C122 224.746 122.274 224.909 122.504 225.122C122.735 225.335 122.917 225.592 123.04 225.879L134.743 251.335C135.646 253.194 136.136 255.22 136.179 257.279V266.292C136.211 266.763 136.112 267.234 135.894 267.656C135.676 268.077 135.346 268.432 134.939 268.685C134.546 268.884 134.101 268.965 133.661 268.917ZM99.0424 207.158C95.7773 210.111 88.126 217.039 84.8608 219.934C84.4519 220.391 84.1405 220.923 83.9446 221.5C83.7487 222.077 83.6725 222.686 83.7203 223.292V236.571C83.7665 237.143 83.942 237.699 84.2346 238.196C84.5273 238.693 84.9294 239.121 85.4116 239.446L133.209 266.466C133.349 266.558 133.512 266.611 133.681 266.62C133.762 266.473 133.797 266.304 133.779 266.137V257.125C133.728 255.381 133.313 253.667 132.559 252.087L120.915 226.94L105.18 236.59C104.762 236.825 104.272 236.902 103.8 236.806C103.329 236.71 102.91 236.448 102.622 236.069C102.144 235.646 101.82 235.082 101.699 234.461C101.579 233.841 101.668 233.199 101.954 232.633L107.402 224.74C107.402 224.74 107.402 224.74 107.265 224.489L100.105 208.355C99.9064 207.854 99.5286 207.443 99.0424 207.197V207.158Z" fill="#171753"/>
<path d="M118.791 212.041C118.791 215.554 116.273 216.982 113.166 215.226C111.534 214.18 110.176 212.772 109.202 211.115C108.228 209.459 107.665 207.601 107.56 205.692C107.56 202.179 110.077 200.751 113.166 202.507C114.802 203.55 116.164 204.956 117.142 206.613C118.119 208.27 118.684 210.13 118.791 212.041Z" fill="#ECFFFE"/>
<path d="M115.683 217.078C114.595 217.053 113.535 216.739 112.614 216.171C110.806 215.036 109.302 213.491 108.228 211.668C107.153 209.845 106.539 207.795 106.438 205.691C106.297 204.807 106.432 203.902 106.825 203.095C107.218 202.287 107.851 201.615 108.64 201.167C109.429 200.718 110.337 200.514 111.247 200.581C112.156 200.648 113.024 200.983 113.736 201.542C115.543 202.683 117.046 204.231 118.12 206.057C119.194 207.883 119.809 209.935 119.912 212.041C119.994 212.919 119.833 213.802 119.445 214.597C119.057 215.392 118.457 216.07 117.709 216.557C117.094 216.907 116.394 217.087 115.683 217.078ZM110.667 202.855C110.35 202.849 110.037 202.929 109.762 203.086C109.37 203.393 109.064 203.794 108.874 204.25C108.685 204.706 108.618 205.203 108.68 205.691C108.792 207.406 109.307 209.071 110.184 210.558C111.061 212.044 112.277 213.311 113.736 214.26C114.132 214.562 114.602 214.756 115.099 214.824C115.596 214.892 116.103 214.831 116.568 214.647C116.961 214.34 117.266 213.939 117.456 213.482C117.645 213.026 117.712 212.53 117.65 212.041C117.542 210.328 117.03 208.663 116.157 207.177C115.283 205.69 114.071 204.422 112.614 203.472C112.032 203.101 111.36 202.888 110.667 202.855Z" fill="#171753"/>
</g>
<path d="M3 271.934C3 262.411 15.8909 253.571 37.9369 246.205" stroke="#353570" stroke-width="4.27873" stroke-miterlimit="10" stroke-linecap="round" stroke-linejoin="round"/>
<path d="M111.02 312.501C46.7237 304.766 3 289.508 3 271.934" stroke="#353570" stroke-width="4.27873" stroke-miterlimit="10" stroke-linecap="round" stroke-linejoin="round"/>
<path opacity="0.3" d="M111.02 195.326C81.6079 191.801 56.5102 186.644 37.8842 180.488C15.8909 173.069 3 164.23 3 154.707V271.934C3 289.508 46.7237 304.767 111.02 312.501" fill="#E3E0EB"/>
<path d="M111.02 195.326C46.7237 187.539 3 172.28 3 154.707C3 145.183 15.8909 136.344 37.9369 128.978" stroke="#353570" stroke-width="4.27873" stroke-miterlimit="10" stroke-linecap="round" stroke-linejoin="round"/>
<path opacity="0.3" d="M3 154.707V271.935C3 262.411 15.8909 253.572 37.9369 246.205V180.436V128.978C15.8909 136.344 3 145.183 3 154.707Z" fill="#E3E0EB"/>
<path d="M269.122 271.934C269.122 262.411 256.231 253.571 234.185 246.205" stroke="#353570" stroke-width="4.27873" stroke-miterlimit="10" stroke-linecap="round" stroke-linejoin="round"/>
<path d="M161.102 312.501C225.398 304.766 269.122 289.508 269.122 271.934" stroke="#353570" stroke-width="4.27873" stroke-miterlimit="10" stroke-linecap="round" stroke-linejoin="round"/>
<path opacity="0.3" d="M161.102 195.326C190.514 191.801 215.612 186.644 234.238 180.488C256.231 173.069 269.122 164.23 269.122 154.707V271.934C269.122 289.508 225.398 304.767 161.102 312.501" fill="#E3E0EB"/>
<path d="M161.102 195.326C225.398 187.539 269.122 172.28 269.122 154.707C269.122 145.183 256.231 136.344 234.185 128.978" stroke="#353570" stroke-width="4.27873" stroke-miterlimit="10" stroke-linecap="round" stroke-linejoin="round"/>
<path opacity="0.3" d="M269.122 154.707V271.935C269.122 262.411 256.231 253.572 234.185 246.205V180.436V128.978C256.231 136.344 269.122 145.183 269.122 154.707Z" fill="#E3E0EB"/>
<defs>
<clipPath id="clip0_249_8991">
<rect width="75.0697" height="132.266" fill="white" transform="translate(119.91 130.166)"/>
</clipPath>
<clipPath id="clip1_249_8991">
<rect width="75.9634" height="132.266" fill="white" transform="translate(96.6748 142.677)"/>
</clipPath>
<clipPath id="clip2_249_8991">
<rect width="75.9634" height="131.372" fill="white" transform="translate(70.7578 163.232)"/>
</clipPath>
</defs>
</svg>
