<svg width="100%" height="100%" viewBox="0 0 510 297" fill="none" xmlns="http://www.w3.org/2000/svg">
<g opacity="0.75">
<path opacity="0.14" d="M254.492 282.488C382.346 282.308 485.908 221.895 485.805 147.552C485.702 73.2087 381.973 13.0874 254.119 13.2673C126.265 13.4473 22.7026 73.8603 22.8056 148.204C22.9086 222.547 126.638 282.668 254.492 282.488Z" fill="#353570"/>
<path opacity="0.29" d="M254.158 268.622C369.133 268.257 462.17 213.766 461.962 146.912C461.754 80.0571 368.379 26.156 253.403 26.5201C138.428 26.8842 45.3906 81.3756 45.599 148.23C45.8073 215.085 139.182 268.986 254.158 268.622Z" fill="#353570"/>
<path opacity="0.43" d="M253.808 254.783C355.904 254.244 438.42 205.682 438.112 146.317C437.804 86.9515 354.788 39.2632 252.691 39.802C150.594 40.3409 68.0781 88.9029 68.3865 148.268C68.6949 207.634 151.711 255.322 253.808 254.783Z" fill="#353570"/>
<path opacity="0.57" d="M253.532 240.876C342.75 240.138 414.733 197.486 414.31 145.61C413.888 93.7346 341.221 52.279 252.003 53.0167C162.786 53.7544 90.8032 96.4061 91.2254 148.282C91.6475 200.158 164.315 241.613 253.532 240.876Z" fill="#353570"/>
<path opacity="0.71" d="M253.182 227.032C329.519 226.118 390.979 189.396 390.456 145.01C389.934 100.625 327.627 65.3831 251.289 66.2963C174.952 67.2096 113.492 103.932 114.015 148.318C114.537 192.703 176.845 227.945 253.182 227.032Z" fill="#353570"/>
<path opacity="0.86" d="M252.847 213.18C316.302 212.086 367.236 181.286 366.609 144.387C365.983 107.488 314.035 78.4626 250.579 79.5568C187.124 80.6509 136.19 111.45 136.816 148.349C137.443 185.248 189.391 214.274 252.847 213.18Z" fill="#353570"/>
<path d="M252.534 199.295C303.109 198.014 343.514 173.133 342.78 143.722C342.047 114.312 300.453 91.5085 249.878 92.79C199.303 94.0715 158.898 118.952 159.632 148.363C160.365 177.773 201.959 200.577 252.534 199.295Z" fill="#353570"/>
</g>
</svg>
