<svg width="1633" height="533" viewBox="0 0 1633 533" fill="none" xmlns="http://www.w3.org/2000/svg">
<g opacity="0.75">
<path opacity="0.14" d="M815.413 507.866C1225.07 507.543 1556.89 398.93 1556.56 265.274C1556.23 131.617 1223.87 23.529 814.218 23.8525C404.565 24.176 72.7421 132.788 73.0721 266.445C73.402 400.102 405.759 508.19 815.413 507.866Z" fill="#353570"/>
<path opacity="0.29" d="M814.34 482.936C1182.73 482.281 1480.83 384.315 1480.16 264.122C1479.49 143.929 1180.31 47.0241 811.922 47.6787C443.531 48.3333 145.432 146.3 146.1 266.493C146.768 386.686 445.949 483.591 814.34 482.936Z" fill="#353570"/>
<path opacity="0.43" d="M813.221 458.057C1140.35 457.088 1404.74 369.782 1403.75 263.053C1402.76 156.324 1136.77 70.5886 809.643 71.5574C482.516 72.5261 218.129 159.832 219.117 266.561C220.105 373.29 486.094 459.025 813.221 458.057Z" fill="#353570"/>
<path opacity="0.57" d="M812.34 433.054C1098.2 431.727 1328.84 355.047 1327.49 261.783C1326.13 168.519 1093.3 93.9887 807.441 95.315C521.581 96.6413 290.942 173.322 292.295 266.586C293.648 359.85 526.48 434.38 812.34 433.054Z" fill="#353570"/>
<path opacity="0.71" d="M811.216 408.164C1055.81 406.523 1252.73 340.502 1251.05 260.704C1249.38 180.906 1049.74 117.548 805.151 119.19C560.561 120.831 363.638 186.852 365.312 266.65C366.987 346.448 566.625 409.806 811.216 408.164Z" fill="#353570"/>
<path opacity="0.86" d="M810.137 383.261C1013.45 381.294 1176.65 325.922 1174.64 259.584C1172.64 193.246 1006.19 141.063 802.871 143.03C599.554 144.997 436.36 200.369 438.366 266.707C440.372 333.045 606.82 385.228 810.137 383.261Z" fill="#353570"/>
<path d="M809.137 358.299C971.184 355.995 1100.64 311.263 1098.29 258.388C1095.94 205.513 962.674 164.517 800.627 166.821C638.58 169.125 509.12 213.856 511.47 266.731C513.82 319.607 647.09 360.603 809.137 358.299Z" fill="#353570"/>
</g>
</svg>
