<svg width="325" height="117" viewBox="0 0 325 117" fill="none" xmlns="http://www.w3.org/2000/svg">
<rect width="325" height="117" rx="8" fill="#4A4A4A"/>
<path d="M22.0225 22.6729L17.0254 20.3896C16.8158 20.2939 16.6676 20.2005 16.5811 20.1094C16.4945 20.0137 16.4512 19.9066 16.4512 19.7881C16.4512 19.6559 16.4899 19.5511 16.5674 19.4736C16.6494 19.3962 16.7588 19.3574 16.8955 19.3574C16.9639 19.3574 17.0391 19.3711 17.1211 19.3984C17.2077 19.4212 17.3148 19.4622 17.4424 19.5215L22.877 22.0166C22.8952 22.0257 22.9225 22.0394 22.959 22.0576C23.3691 22.2399 23.5742 22.445 23.5742 22.6729C23.5742 22.8962 23.3737 23.1012 22.9727 23.2881C22.9271 23.3063 22.8952 23.32 22.877 23.3291L17.4424 25.8652L17.415 25.8789C17.1781 25.9837 17.0049 26.0361 16.8955 26.0361C16.7588 26.0361 16.6494 25.9951 16.5674 25.9131C16.4899 25.8311 16.4512 25.7217 16.4512 25.585C16.4512 25.4665 16.4945 25.3617 16.5811 25.2705C16.6676 25.1748 16.8158 25.0791 17.0254 24.9834L22.0225 22.6729ZM36.3848 18.7148C36.3848 18.2227 36.4281 17.9128 36.5146 17.7852C36.6058 17.6576 36.7972 17.5938 37.0889 17.5938C37.3714 17.5938 37.5583 17.6484 37.6494 17.7578C37.7406 17.8626 37.7861 18.1156 37.7861 18.5166C37.7861 18.9085 37.7428 19.1523 37.6562 19.248C37.5742 19.3392 37.3851 19.3848 37.0889 19.3848C36.7972 19.3848 36.6058 19.3415 36.5146 19.2549C36.4281 19.1683 36.3848 18.9883 36.3848 18.7148ZM37.6494 26.0361H39.8438C40.0215 26.0361 40.1514 26.0749 40.2334 26.1523C40.32 26.2253 40.3633 26.3438 40.3633 26.5078C40.3633 26.6947 40.3223 26.8245 40.2402 26.8975C40.1628 26.9658 40.0169 27 39.8027 27H34.498C34.3158 27 34.179 26.959 34.0879 26.877C33.9967 26.7949 33.9512 26.6719 33.9512 26.5078C33.9512 26.3483 33.999 26.2298 34.0947 26.1523C34.1904 26.0749 34.334 26.0361 34.5254 26.0361H36.6104V21.6543H35.2773C35.0905 21.6543 34.9469 21.6133 34.8467 21.5312C34.751 21.4447 34.7031 21.3216 34.7031 21.1621C34.7031 21.0026 34.7487 20.8841 34.8398 20.8066C34.931 20.7246 35.0677 20.6836 35.25 20.6836H37.2529C37.376 20.6836 37.4717 20.7087 37.54 20.7588C37.613 20.8089 37.6494 20.8773 37.6494 20.9639V26.0361ZM47.5273 26.0225C47.7142 26.0225 47.8555 26.0635 47.9512 26.1455C48.0514 26.2275 48.1016 26.3483 48.1016 26.5078C48.1016 26.6719 48.0537 26.7949 47.958 26.877C47.8669 26.959 47.7324 27 47.5547 27H43.084C42.8971 27 42.7536 26.959 42.6533 26.877C42.5576 26.7949 42.5098 26.6719 42.5098 26.5078C42.5098 26.3483 42.5553 26.2275 42.6465 26.1455C42.7422 26.0635 42.8789 26.0225 43.0566 26.0225H44.2188V21.8457H43.0977C42.9108 21.8457 42.765 21.8024 42.6602 21.7158C42.5599 21.6292 42.5098 21.5062 42.5098 21.3467C42.5098 21.1826 42.5576 21.0596 42.6533 20.9775C42.749 20.8955 42.888 20.8545 43.0703 20.8545H44.1504V20.3896C44.1504 19.5648 44.3851 18.9678 44.8545 18.5986C45.3239 18.2249 46.0827 18.0381 47.1309 18.0381C47.6413 18.0381 48.0173 18.0951 48.2588 18.209C48.5049 18.3229 48.6279 18.5007 48.6279 18.7422C48.6279 18.8835 48.5755 18.9997 48.4707 19.0908C48.3659 19.182 48.2314 19.2275 48.0674 19.2275C47.9854 19.2275 47.7871 19.2002 47.4727 19.1455C47.1628 19.0908 46.8962 19.0635 46.6729 19.0635C46.1579 19.0635 45.7887 19.1729 45.5654 19.3916C45.3421 19.6058 45.2305 19.9635 45.2305 20.4648V20.8545H47.6504C47.8372 20.8545 47.9785 20.8955 48.0742 20.9775C48.1745 21.0596 48.2246 21.1826 48.2246 21.3467C48.2246 21.5016 48.1745 21.6247 48.0742 21.7158C47.974 21.8024 47.8372 21.8457 47.6641 21.8457H45.2988V26.0225H47.5273ZM255.114 23.8486C255.57 23.9899 255.889 24.2223 256.071 24.5459C256.254 24.8649 256.345 25.4027 256.345 26.1592V27.1709C256.345 27.6449 256.395 27.9616 256.495 28.1211C256.595 28.2806 256.778 28.3923 257.042 28.4561C257.101 28.4697 257.186 28.4834 257.295 28.4971C257.696 28.5518 257.896 28.7386 257.896 29.0576C257.896 29.2126 257.844 29.3333 257.739 29.4199C257.634 29.5065 257.486 29.5498 257.295 29.5498C256.525 29.5498 255.982 29.3584 255.668 28.9756C255.354 28.5928 255.196 27.8727 255.196 26.8154V26.0225C255.196 25.4893 255.121 25.1133 254.971 24.8945C254.82 24.6712 254.451 24.5094 253.863 24.4092C253.686 24.3818 253.558 24.3271 253.48 24.2451C253.403 24.1585 253.364 24.0264 253.364 23.8486C253.364 23.7028 253.396 23.5889 253.46 23.5068C253.524 23.4248 253.626 23.3656 253.768 23.3291C253.836 23.3154 253.934 23.2926 254.062 23.2607C254.818 23.1012 255.196 22.5794 255.196 21.6953V20.8818C255.196 19.8291 255.356 19.109 255.675 18.7217C255.994 18.3343 256.538 18.1406 257.309 18.1406C257.495 18.1406 257.639 18.1862 257.739 18.2773C257.844 18.3639 257.896 18.4847 257.896 18.6396C257.896 18.9541 257.696 19.1364 257.295 19.1865C257.217 19.2002 257.156 19.2093 257.11 19.2139C256.823 19.2686 256.623 19.3825 256.509 19.5557C256.399 19.7243 256.345 20.0547 256.345 20.5469V21.5518C256.345 22.3128 256.254 22.8529 256.071 23.1719C255.889 23.4909 255.57 23.7165 255.114 23.8486ZM22.0225 46.6729L17.0254 44.3896C16.8158 44.2939 16.6676 44.2005 16.5811 44.1094C16.4945 44.0137 16.4512 43.9066 16.4512 43.7881C16.4512 43.6559 16.4899 43.5511 16.5674 43.4736C16.6494 43.3962 16.7588 43.3574 16.8955 43.3574C16.9639 43.3574 17.0391 43.3711 17.1211 43.3984C17.2077 43.4212 17.3148 43.4622 17.4424 43.5215L22.877 46.0166C22.8952 46.0257 22.9225 46.0394 22.959 46.0576C23.3691 46.2399 23.5742 46.445 23.5742 46.6729C23.5742 46.8962 23.3737 47.1012 22.9727 47.2881C22.9271 47.3063 22.8952 47.32 22.877 47.3291L17.4424 49.8652L17.415 49.8789C17.1781 49.9837 17.0049 50.0361 16.8955 50.0361C16.7588 50.0361 16.6494 49.9951 16.5674 49.9131C16.4899 49.8311 16.4512 49.7217 16.4512 49.585C16.4512 49.4665 16.4945 49.3617 16.5811 49.2705C16.6676 49.1748 16.8158 49.0791 17.0254 48.9834L22.0225 46.6729ZM22.0225 70.6729L17.0254 68.3896C16.8158 68.2939 16.6676 68.2005 16.5811 68.1094C16.4945 68.0137 16.4512 67.9066 16.4512 67.7881C16.4512 67.6559 16.4899 67.5511 16.5674 67.4736C16.6494 67.3962 16.7588 67.3574 16.8955 67.3574C16.9639 67.3574 17.0391 67.3711 17.1211 67.3984C17.2077 67.4212 17.3148 67.4622 17.4424 67.5215L22.877 70.0166C22.8952 70.0257 22.9225 70.0394 22.959 70.0576C23.3691 70.2399 23.5742 70.445 23.5742 70.6729C23.5742 70.8962 23.3737 71.1012 22.9727 71.2881C22.9271 71.3063 22.8952 71.32 22.877 71.3291L17.4424 73.8652L17.415 73.8789C17.1781 73.9837 17.0049 74.0361 16.8955 74.0361C16.7588 74.0361 16.6494 73.9951 16.5674 73.9131C16.4899 73.8311 16.4512 73.7217 16.4512 73.585C16.4512 73.4665 16.4945 73.3617 16.5811 73.2705C16.6676 73.1748 16.8158 73.0791 17.0254 72.9834L22.0225 70.6729ZM62.7578 71.8486C62.2975 71.7165 61.974 71.4909 61.7871 71.1719C61.6048 70.8483 61.5137 70.3083 61.5137 69.5518V68.5469C61.5137 68.0638 61.4635 67.7402 61.3633 67.5762C61.263 67.4076 61.0853 67.2913 60.8301 67.2275C60.7708 67.2139 60.682 67.2002 60.5635 67.1865C60.1715 67.1318 59.9756 66.9587 59.9756 66.667C59.9756 66.4938 60.0234 66.3639 60.1191 66.2773C60.2148 66.1862 60.3584 66.1406 60.5498 66.1406C61.32 66.1406 61.8646 66.3343 62.1836 66.7217C62.5026 67.109 62.6621 67.8291 62.6621 68.8818V69.6953C62.6621 70.584 63.0312 71.1058 63.7695 71.2607C63.9108 71.2881 64.0179 71.3109 64.0908 71.3291C64.2367 71.3701 64.3415 71.4316 64.4053 71.5137C64.4736 71.5911 64.5078 71.7028 64.5078 71.8486C64.5078 72.0036 64.4714 72.1266 64.3984 72.2178C64.3301 72.3089 64.223 72.3682 64.0771 72.3955C64.027 72.4046 63.9564 72.4183 63.8652 72.4365C63.0632 72.5915 62.6621 73.1201 62.6621 74.0225V74.8154C62.6621 75.8727 62.5049 76.5928 62.1904 76.9756C61.876 77.3584 61.3337 77.5498 60.5635 77.5498C60.3675 77.5498 60.2194 77.5042 60.1191 77.4131C60.0234 77.3265 59.9756 77.1943 59.9756 77.0166C59.9756 76.7249 60.1715 76.5518 60.5635 76.4971C60.6455 76.488 60.7048 76.4788 60.7412 76.4697C61.0374 76.4196 61.2402 76.3148 61.3496 76.1553C61.459 75.9958 61.5137 75.6676 61.5137 75.1709V74.1592C61.5137 73.4118 61.6048 72.8763 61.7871 72.5527C61.974 72.2246 62.2975 71.9899 62.7578 71.8486ZM22.0225 94.6729L17.0254 92.3896C16.8158 92.2939 16.6676 92.2005 16.5811 92.1094C16.4945 92.0137 16.4512 91.9066 16.4512 91.7881C16.4512 91.6559 16.4899 91.5511 16.5674 91.4736C16.6494 91.3962 16.7588 91.3574 16.8955 91.3574C16.9639 91.3574 17.0391 91.3711 17.1211 91.3984C17.2077 91.4212 17.3148 91.4622 17.4424 91.5215L22.877 94.0166C22.8952 94.0257 22.9225 94.0394 22.959 94.0576C23.3691 94.2399 23.5742 94.445 23.5742 94.6729C23.5742 94.8962 23.3737 95.1012 22.9727 95.2881C22.9271 95.3063 22.8952 95.32 22.877 95.3291L17.4424 97.8652L17.415 97.8789C17.1781 97.9837 17.0049 98.0361 16.8955 98.0361C16.7588 98.0361 16.6494 97.9951 16.5674 97.9131C16.4899 97.8311 16.4512 97.7217 16.4512 97.585C16.4512 97.4665 16.4945 97.3617 16.5811 97.2705C16.6676 97.1748 16.8158 97.0791 17.0254 96.9834L22.0225 94.6729Z" fill="#5ED9D1"/>
<path d="M63.626 18.9609C63.626 19.0566 63.5485 19.264 63.3936 19.583C63.2432 19.8975 63.1292 20.1481 63.0518 20.335C62.7419 21.0596 62.5208 21.7227 62.3887 22.3242C62.2611 22.9258 62.1973 23.5501 62.1973 24.1973C62.1973 24.7943 62.252 25.373 62.3613 25.9336C62.4707 26.4896 62.637 27.0456 62.8604 27.6016C62.9743 27.9023 63.1292 28.2555 63.3252 28.6611C63.5257 29.0713 63.626 29.3242 63.626 29.4199C63.626 29.5202 63.6032 29.5977 63.5576 29.6523C63.5166 29.7116 63.4596 29.7412 63.3867 29.7412C63.2454 29.7412 63.0882 29.666 62.915 29.5156C62.7419 29.3698 62.5413 29.1328 62.3135 28.8047C61.8258 28.1074 61.4613 27.376 61.2197 26.6104C60.9782 25.8447 60.8574 25.0404 60.8574 24.1973C60.8574 23.4271 60.9554 22.6934 61.1514 21.9961C61.3519 21.2943 61.6549 20.6152 62.0605 19.959C62.3249 19.526 62.5687 19.2002 62.792 18.9814C63.0153 18.7627 63.2135 18.6533 63.3867 18.6533C63.4596 18.6533 63.5166 18.6829 63.5576 18.7422C63.6032 18.7969 63.626 18.8698 63.626 18.9609ZM70.1885 19.0361H69.0264C68.5843 19.0361 68.3063 19.002 68.1924 18.9336C68.083 18.8607 68.0283 18.7308 68.0283 18.5439C68.0283 18.3799 68.0739 18.2568 68.165 18.1748C68.2607 18.0928 68.3975 18.0518 68.5752 18.0518H70.8311C70.9541 18.0518 71.0498 18.0768 71.1182 18.127C71.1865 18.1771 71.2207 18.2454 71.2207 18.332V26.0361H73.3672C73.5404 26.0361 73.6657 26.0749 73.7432 26.1523C73.8252 26.2253 73.8662 26.3438 73.8662 26.5078C73.8662 26.6947 73.8275 26.8245 73.75 26.8975C73.6725 26.9658 73.5267 27 73.3125 27H68.2676C68.0898 27 67.9531 26.959 67.8574 26.877C67.7663 26.7949 67.7207 26.6719 67.7207 26.5078C67.7207 26.3483 67.7686 26.2298 67.8643 26.1523C67.96 26.0749 68.1035 26.0361 68.2949 26.0361H70.1885V19.0361ZM80.5723 23.9785C80.3216 23.8965 80.0778 23.8372 79.8408 23.8008C79.6084 23.7598 79.376 23.7393 79.1436 23.7393C78.4417 23.7393 77.888 23.8577 77.4824 24.0947C77.0768 24.3317 76.874 24.6507 76.874 25.0518C76.874 25.3617 76.9993 25.6169 77.25 25.8174C77.5052 26.0179 77.8288 26.1182 78.2207 26.1182C78.7995 26.1182 79.335 25.9678 79.8271 25.667C80.3239 25.3617 80.5723 25.0449 80.5723 24.7168V23.9785ZM80.627 26.1318C80.2533 26.4691 79.8454 26.7266 79.4033 26.9043C78.9658 27.082 78.5146 27.1709 78.0498 27.1709C77.3708 27.1709 76.8216 26.9818 76.4023 26.6035C75.9876 26.2253 75.7803 25.7331 75.7803 25.127C75.7803 24.4069 76.056 23.8486 76.6074 23.4521C77.1634 23.0557 77.9427 22.8574 78.9453 22.8574C79.2096 22.8574 79.4762 22.8757 79.7451 22.9121C80.014 22.944 80.2897 22.9964 80.5723 23.0693V23.0215C80.5723 22.4974 80.4469 22.11 80.1963 21.8594C79.9456 21.6087 79.556 21.4834 79.0273 21.4834C78.6719 21.4834 78.2754 21.5791 77.8379 21.7705C77.4004 21.9619 77.111 22.0576 76.9697 22.0576C76.8376 22.0576 76.7282 22.0052 76.6416 21.9004C76.555 21.791 76.5117 21.652 76.5117 21.4834C76.5117 21.2145 76.7624 20.9867 77.2637 20.7998C77.7695 20.613 78.4144 20.5195 79.1982 20.5195C80.0003 20.5195 80.6064 20.7246 81.0166 21.1348C81.4268 21.5404 81.6318 22.1419 81.6318 22.9395V26.0361H81.9668C82.2904 26.0361 82.5068 26.0703 82.6162 26.1387C82.7256 26.207 82.7803 26.3301 82.7803 26.5078C82.7803 26.6719 82.7347 26.7949 82.6436 26.877C82.5524 26.959 82.4157 27 82.2334 27H81.1602C81.0326 27 80.9277 26.9613 80.8457 26.8838C80.7637 26.8063 80.709 26.6947 80.6816 26.5488L80.627 26.1318ZM85.7607 24.4775C85.7607 25.0518 85.8815 25.471 86.123 25.7354C86.3646 25.9997 86.7474 26.1318 87.2715 26.1318C87.7682 26.1318 88.1921 25.9746 88.543 25.6602C88.8984 25.3457 89.0762 24.9515 89.0762 24.4775V21.6543H88.1396C87.9619 21.6543 87.832 21.6178 87.75 21.5449C87.6725 21.4674 87.6338 21.349 87.6338 21.1895C87.6338 21.0163 87.6771 20.8887 87.7637 20.8066C87.8503 20.7246 87.9893 20.6836 88.1807 20.6836H89.6367C89.8099 20.6836 89.9307 20.7223 89.999 20.7998C90.0719 20.8727 90.1084 21.055 90.1084 21.3467V26.0361H90.4229C90.6462 26.0361 90.8057 26.0726 90.9014 26.1455C91.0016 26.2184 91.0518 26.3392 91.0518 26.5078C91.0518 26.6719 91.0039 26.7949 90.9082 26.877C90.8171 26.959 90.6826 27 90.5049 27H89.4658C89.3428 27 89.2471 26.9749 89.1787 26.9248C89.1104 26.8747 89.0762 26.8063 89.0762 26.7197V26.2549C88.6387 26.5921 88.2627 26.8245 87.9482 26.9521C87.6383 27.0752 87.3102 27.1367 86.9639 27.1367C86.2119 27.1367 85.6468 26.9385 85.2686 26.542C84.8949 26.141 84.708 25.5371 84.708 24.7305V21.6543H84.5645C84.2546 21.6543 84.0426 21.6178 83.9287 21.5449C83.8148 21.472 83.7578 21.3444 83.7578 21.1621C83.7578 21.0026 83.8011 20.8841 83.8877 20.8066C83.9788 20.7246 84.1178 20.6836 84.3047 20.6836H85.3369C85.4964 20.6836 85.6058 20.7155 85.665 20.7793C85.7288 20.8431 85.7607 20.9844 85.7607 21.2031V24.4775ZM93.3281 26.0361V21.6543H93.1982C92.8883 21.6543 92.6742 21.6178 92.5557 21.5449C92.4417 21.472 92.3848 21.3444 92.3848 21.1621C92.3848 20.9935 92.4326 20.8727 92.5283 20.7998C92.624 20.7223 92.779 20.6836 92.9932 20.6836H93.3145H93.9707C94.0938 20.6836 94.1895 20.7087 94.2578 20.7588C94.3262 20.8089 94.3604 20.8773 94.3604 20.9639V21.4287C94.693 21.1188 95.0212 20.891 95.3447 20.7451C95.6729 20.5947 96.0124 20.5195 96.3633 20.5195C97.0514 20.5195 97.5915 20.7337 97.9834 21.1621C98.3799 21.5905 98.5781 22.1829 98.5781 22.9395V26.0361H98.8994C99.1273 26.0361 99.2913 26.0749 99.3916 26.1523C99.4919 26.2253 99.542 26.3438 99.542 26.5078C99.542 26.6855 99.4873 26.8132 99.3779 26.8906C99.2731 26.9635 99.084 27 98.8105 27H97.2998C97.0081 27 96.8213 26.9658 96.7393 26.8975C96.6572 26.8291 96.6162 26.6992 96.6162 26.5078C96.6162 26.3301 96.6641 26.207 96.7598 26.1387C96.8555 26.0703 97.0355 26.0361 97.2998 26.0361H97.5391V23.1924C97.5391 22.6592 97.4183 22.2536 97.1768 21.9756C96.9352 21.693 96.5843 21.5518 96.124 21.5518C95.6592 21.5518 95.249 21.709 94.8936 22.0234C94.5381 22.3379 94.3604 22.7275 94.3604 23.1924V26.0361H94.5996C94.873 26.0361 95.0576 26.0703 95.1533 26.1387C95.249 26.207 95.2969 26.3301 95.2969 26.5078C95.2969 26.6992 95.2559 26.8291 95.1738 26.8975C95.0918 26.9658 94.8913 27 94.5723 27H93.3281H92.959C92.7721 27 92.6309 26.9613 92.5352 26.8838C92.444 26.8018 92.3984 26.6764 92.3984 26.5078C92.3984 26.3255 92.4508 26.2025 92.5557 26.1387C92.665 26.0703 92.8747 26.0361 93.1846 26.0361H93.3281ZM106.337 21.0938V21.0664C106.337 20.916 106.38 20.8066 106.467 20.7383C106.553 20.6654 106.688 20.6289 106.87 20.6289C107.057 20.6289 107.185 20.6836 107.253 20.793C107.326 20.9023 107.362 21.1279 107.362 21.4697V22.7412C107.362 22.9098 107.319 23.0374 107.232 23.124C107.146 23.2061 107.016 23.2471 106.843 23.2471C106.72 23.2471 106.613 23.2129 106.521 23.1445C106.435 23.0716 106.328 22.9235 106.2 22.7002C105.981 22.3311 105.715 22.0531 105.4 21.8662C105.09 21.6748 104.733 21.5791 104.327 21.5791C103.616 21.5791 103.037 21.7887 102.591 22.208C102.149 22.6273 101.928 23.1696 101.928 23.835C101.928 24.514 102.14 25.07 102.563 25.5029C102.992 25.9313 103.541 26.1455 104.211 26.1455C104.516 26.1455 104.806 26.1045 105.079 26.0225C105.357 25.9359 105.619 25.8083 105.865 25.6396C105.952 25.585 106.068 25.5007 106.214 25.3867C106.51 25.1452 106.743 25.0244 106.911 25.0244C107.052 25.0244 107.166 25.07 107.253 25.1611C107.344 25.2477 107.39 25.3617 107.39 25.5029C107.39 25.863 107.048 26.2321 106.364 26.6104C105.685 26.984 104.963 27.1709 104.197 27.1709C103.208 27.1709 102.383 26.8542 101.723 26.2207C101.066 25.5872 100.738 24.7965 100.738 23.8486C100.738 22.9007 101.066 22.11 101.723 21.4766C102.379 20.8385 103.199 20.5195 104.184 20.5195C104.53 20.5195 104.876 20.5674 105.223 20.6631C105.574 20.7542 105.945 20.8978 106.337 21.0938ZM110.117 26.0361V19.0361H109.987C109.677 19.0361 109.463 18.9997 109.345 18.9268C109.231 18.8538 109.174 18.7262 109.174 18.5439C109.174 18.3799 109.219 18.2568 109.311 18.1748C109.406 18.0928 109.543 18.0518 109.721 18.0518H110.76C110.883 18.0518 110.979 18.0768 111.047 18.127C111.115 18.1771 111.149 18.2454 111.149 18.332V21.4287C111.482 21.1188 111.81 20.891 112.134 20.7451C112.462 20.5947 112.801 20.5195 113.152 20.5195C113.84 20.5195 114.381 20.7337 114.772 21.1621C115.169 21.5905 115.367 22.1829 115.367 22.9395V26.0361H115.688C115.916 26.0361 116.08 26.0749 116.181 26.1523C116.281 26.2253 116.331 26.3438 116.331 26.5078C116.331 26.6719 116.285 26.7949 116.194 26.877C116.103 26.959 115.966 27 115.784 27H113.966C113.752 27 113.606 26.9658 113.528 26.8975C113.455 26.8245 113.419 26.6947 113.419 26.5078C113.419 26.3255 113.465 26.2025 113.556 26.1387C113.651 26.0703 113.829 26.0361 114.089 26.0361H114.328V23.1924C114.328 22.6592 114.207 22.2536 113.966 21.9756C113.724 21.693 113.373 21.5518 112.913 21.5518C112.444 21.5518 112.031 21.709 111.676 22.0234C111.325 22.3379 111.149 22.7275 111.149 23.1924V26.0361H111.389C111.662 26.0361 111.847 26.0703 111.942 26.1387C112.038 26.207 112.086 26.3301 112.086 26.5078C112.086 26.6947 112.047 26.8245 111.97 26.8975C111.897 26.9658 111.753 27 111.539 27H109.721C109.543 27 109.409 26.959 109.317 26.877C109.231 26.7949 109.188 26.6719 109.188 26.5078C109.188 26.3255 109.24 26.2025 109.345 26.1387C109.454 26.0703 109.664 26.0361 109.974 26.0361H110.117ZM131.021 23.9785C130.771 23.8965 130.527 23.8372 130.29 23.8008C130.058 23.7598 129.825 23.7393 129.593 23.7393C128.891 23.7393 128.337 23.8577 127.932 24.0947C127.526 24.3317 127.323 24.6507 127.323 25.0518C127.323 25.3617 127.449 25.6169 127.699 25.8174C127.954 26.0179 128.278 26.1182 128.67 26.1182C129.249 26.1182 129.784 25.9678 130.276 25.667C130.773 25.3617 131.021 25.0449 131.021 24.7168V23.9785ZM131.076 26.1318C130.702 26.4691 130.295 26.7266 129.853 26.9043C129.415 27.082 128.964 27.1709 128.499 27.1709C127.82 27.1709 127.271 26.9818 126.852 26.6035C126.437 26.2253 126.229 25.7331 126.229 25.127C126.229 24.4069 126.505 23.8486 127.057 23.4521C127.613 23.0557 128.392 22.8574 129.395 22.8574C129.659 22.8574 129.925 22.8757 130.194 22.9121C130.463 22.944 130.739 22.9964 131.021 23.0693V23.0215C131.021 22.4974 130.896 22.11 130.646 21.8594C130.395 21.6087 130.005 21.4834 129.477 21.4834C129.121 21.4834 128.725 21.5791 128.287 21.7705C127.85 21.9619 127.56 22.0576 127.419 22.0576C127.287 22.0576 127.177 22.0052 127.091 21.9004C127.004 21.791 126.961 21.652 126.961 21.4834C126.961 21.2145 127.212 20.9867 127.713 20.7998C128.219 20.613 128.864 20.5195 129.647 20.5195C130.45 20.5195 131.056 20.7246 131.466 21.1348C131.876 21.5404 132.081 22.1419 132.081 22.9395V26.0361H132.416C132.74 26.0361 132.956 26.0703 133.065 26.1387C133.175 26.207 133.229 26.3301 133.229 26.5078C133.229 26.6719 133.184 26.7949 133.093 26.877C133.002 26.959 132.865 27 132.683 27H131.609C131.482 27 131.377 26.9613 131.295 26.8838C131.213 26.8063 131.158 26.6947 131.131 26.5488L131.076 26.1318ZM145.172 19.877V23.0488H146.45C147.166 23.0488 147.701 22.9167 148.057 22.6523C148.412 22.388 148.59 21.9893 148.59 21.4561C148.59 20.932 148.41 20.5378 148.05 20.2734C147.694 20.0091 147.161 19.877 146.45 19.877H145.172ZM146.601 26.0361C146.824 26.0361 146.986 26.0749 147.086 26.1523C147.186 26.2253 147.236 26.3438 147.236 26.5078C147.236 26.6901 147.188 26.8177 147.093 26.8906C146.997 26.9635 146.815 27 146.546 27H143.203C143.048 27 142.93 26.959 142.848 26.877C142.766 26.7904 142.725 26.6673 142.725 26.5078C142.725 26.3483 142.763 26.2298 142.841 26.1523C142.923 26.0749 143.048 26.0361 143.217 26.0361H144.099V19.877H143.62C143.219 19.877 142.968 19.8428 142.868 19.7744C142.772 19.7015 142.725 19.5716 142.725 19.3848C142.725 19.2253 142.766 19.1045 142.848 19.0225C142.93 18.9359 143.048 18.8926 143.203 18.8926H146.368C147.476 18.8926 148.316 19.1068 148.891 19.5352C149.465 19.9635 149.752 20.5947 149.752 21.4287C149.752 22.2627 149.467 22.8916 148.897 23.3154C148.328 23.7393 147.485 23.9512 146.368 23.9512H145.172V26.0361H146.601ZM154.1 18.7148C154.1 18.2227 154.143 17.9128 154.229 17.7852C154.321 17.6576 154.512 17.5938 154.804 17.5938C155.086 17.5938 155.273 17.6484 155.364 17.7578C155.455 17.8626 155.501 18.1156 155.501 18.5166C155.501 18.9085 155.458 19.1523 155.371 19.248C155.289 19.3392 155.1 19.3848 154.804 19.3848C154.512 19.3848 154.321 19.3415 154.229 19.2549C154.143 19.1683 154.1 18.9883 154.1 18.7148ZM155.364 26.0361H157.559C157.736 26.0361 157.866 26.0749 157.948 26.1523C158.035 26.2253 158.078 26.3438 158.078 26.5078C158.078 26.6947 158.037 26.8245 157.955 26.8975C157.878 26.9658 157.732 27 157.518 27H152.213C152.031 27 151.894 26.959 151.803 26.877C151.712 26.7949 151.666 26.6719 151.666 26.5078C151.666 26.3483 151.714 26.2298 151.81 26.1523C151.905 26.0749 152.049 26.0361 152.24 26.0361H154.325V21.6543H152.992C152.805 21.6543 152.662 21.6133 152.562 21.5312C152.466 21.4447 152.418 21.3216 152.418 21.1621C152.418 21.0026 152.464 20.8841 152.555 20.8066C152.646 20.7246 152.783 20.6836 152.965 20.6836H154.968C155.091 20.6836 155.187 20.7087 155.255 20.7588C155.328 20.8089 155.364 20.8773 155.364 20.9639V26.0361ZM162.467 26.0361H164.736C164.914 26.0361 165.044 26.0749 165.126 26.1523C165.213 26.2253 165.256 26.3438 165.256 26.5078C165.256 26.6947 165.215 26.8245 165.133 26.8975C165.055 26.9658 164.91 27 164.695 27H160.225C160.047 27 159.912 26.959 159.821 26.877C159.73 26.7949 159.685 26.6719 159.685 26.5078C159.685 26.3483 159.73 26.2298 159.821 26.1523C159.917 26.0749 160.063 26.0361 160.259 26.0361H161.448V21.6543H160.983C160.541 21.6543 160.266 21.6201 160.156 21.5518C160.047 21.4788 159.992 21.349 159.992 21.1621C159.992 21.0026 160.035 20.8841 160.122 20.8066C160.213 20.7246 160.35 20.6836 160.532 20.6836H162.091C162.214 20.6836 162.307 20.7087 162.371 20.7588C162.435 20.8044 162.467 20.8727 162.467 20.9639V22.126C162.9 21.5837 163.351 21.1803 163.82 20.916C164.29 20.6517 164.796 20.5195 165.338 20.5195C165.743 20.5195 166.072 20.6016 166.322 20.7656C166.573 20.9297 166.698 21.1416 166.698 21.4014C166.698 21.57 166.634 21.7204 166.507 21.8525C166.384 21.9801 166.247 22.0439 166.097 22.0439C165.992 22.0439 165.814 21.9756 165.563 21.8389C165.317 21.6976 165.096 21.627 164.9 21.627C164.545 21.627 164.169 21.7546 163.772 22.0098C163.381 22.2604 162.945 22.6592 162.467 23.2061V26.0361ZM173.062 23.9785C172.812 23.8965 172.568 23.8372 172.331 23.8008C172.099 23.7598 171.866 23.7393 171.634 23.7393C170.932 23.7393 170.378 23.8577 169.973 24.0947C169.567 24.3317 169.364 24.6507 169.364 25.0518C169.364 25.3617 169.49 25.6169 169.74 25.8174C169.995 26.0179 170.319 26.1182 170.711 26.1182C171.29 26.1182 171.825 25.9678 172.317 25.667C172.814 25.3617 173.062 25.0449 173.062 24.7168V23.9785ZM173.117 26.1318C172.743 26.4691 172.336 26.7266 171.894 26.9043C171.456 27.082 171.005 27.1709 170.54 27.1709C169.861 27.1709 169.312 26.9818 168.893 26.6035C168.478 26.2253 168.271 25.7331 168.271 25.127C168.271 24.4069 168.546 23.8486 169.098 23.4521C169.654 23.0557 170.433 22.8574 171.436 22.8574C171.7 22.8574 171.966 22.8757 172.235 22.9121C172.504 22.944 172.78 22.9964 173.062 23.0693V23.0215C173.062 22.4974 172.937 22.11 172.687 21.8594C172.436 21.6087 172.046 21.4834 171.518 21.4834C171.162 21.4834 170.766 21.5791 170.328 21.7705C169.891 21.9619 169.601 22.0576 169.46 22.0576C169.328 22.0576 169.218 22.0052 169.132 21.9004C169.045 21.791 169.002 21.652 169.002 21.4834C169.002 21.2145 169.253 20.9867 169.754 20.7998C170.26 20.613 170.905 20.5195 171.688 20.5195C172.491 20.5195 173.097 20.7246 173.507 21.1348C173.917 21.5404 174.122 22.1419 174.122 22.9395V26.0361H174.457C174.781 26.0361 174.997 26.0703 175.106 26.1387C175.216 26.207 175.271 26.3301 175.271 26.5078C175.271 26.6719 175.225 26.7949 175.134 26.877C175.043 26.959 174.906 27 174.724 27H173.65C173.523 27 173.418 26.9613 173.336 26.8838C173.254 26.8063 173.199 26.6947 173.172 26.5488L173.117 26.1318ZM181.819 21.0664C182.043 21.0664 182.204 21.1051 182.305 21.1826C182.41 21.2601 182.462 21.3831 182.462 21.5518C182.462 21.7113 182.414 21.832 182.318 21.9141C182.223 21.9915 182.079 22.0303 181.888 22.0303H179.119V24.3135C179.119 25.0609 179.215 25.5531 179.406 25.79C179.602 26.027 179.935 26.1455 180.404 26.1455C180.819 26.1455 181.316 26.0247 181.895 25.7832C182.473 25.5417 182.831 25.4209 182.968 25.4209C183.095 25.4209 183.202 25.4665 183.289 25.5576C183.38 25.6488 183.426 25.7604 183.426 25.8926C183.426 26.043 183.369 26.1751 183.255 26.2891C183.146 26.3984 182.956 26.5055 182.688 26.6104C182.241 26.7881 181.838 26.918 181.478 27C181.122 27.082 180.787 27.123 180.473 27.123C179.939 27.123 179.491 27.0387 179.126 26.8701C178.766 26.6969 178.497 26.4417 178.319 26.1045C178.228 25.945 178.162 25.7559 178.121 25.5371C178.085 25.3184 178.066 24.9811 178.066 24.5254V24.3135V22.0303H176.904C176.713 22.0303 176.574 21.9938 176.487 21.9209C176.401 21.8434 176.357 21.7204 176.357 21.5518C176.357 21.3649 176.417 21.2373 176.535 21.1689C176.654 21.1006 176.907 21.0664 177.294 21.0664H178.066V19.665V19.3027C178.066 19.1068 178.107 18.9632 178.189 18.8721C178.276 18.7764 178.408 18.7285 178.586 18.7285C178.786 18.7285 178.925 18.7855 179.003 18.8994C179.08 19.0133 179.119 19.2731 179.119 19.6787V21.0664H181.819ZM186.051 24.1426C186.087 24.7988 186.308 25.307 186.714 25.667C187.124 26.0225 187.682 26.2002 188.389 26.2002C188.922 26.2002 189.503 26.0589 190.132 25.7764C190.761 25.4893 191.141 25.3457 191.273 25.3457C191.41 25.3457 191.524 25.389 191.615 25.4756C191.706 25.5622 191.752 25.6693 191.752 25.7969C191.752 25.929 191.704 26.0498 191.608 26.1592C191.513 26.2686 191.36 26.3757 191.15 26.4805C190.695 26.7038 190.223 26.8747 189.735 26.9932C189.252 27.1117 188.771 27.1709 188.293 27.1709C187.254 27.1709 186.422 26.8724 185.798 26.2754C185.174 25.6738 184.861 24.8786 184.861 23.8896C184.861 22.8825 185.192 22.0667 185.853 21.4424C186.513 20.818 187.375 20.5059 188.437 20.5059C189.398 20.5059 190.196 20.7975 190.829 21.3809C191.463 21.9642 191.779 22.6706 191.779 23.5C191.779 23.7552 191.725 23.9261 191.615 24.0127C191.51 24.0993 191.221 24.1426 190.747 24.1426H190.645H186.051ZM186.085 23.2471H190.535C190.467 22.7048 190.239 22.2695 189.852 21.9414C189.469 21.6087 188.997 21.4424 188.437 21.4424C187.83 21.4424 187.32 21.6019 186.905 21.9209C186.491 22.2399 186.217 22.682 186.085 23.2471ZM203.182 26.7607C203.159 26.9658 203.106 27.1071 203.024 27.1846C202.942 27.2666 202.812 27.3076 202.635 27.3076C202.443 27.3076 202.3 27.2507 202.204 27.1367C202.113 27.0273 202.061 26.8473 202.047 26.5967L201.958 25.0107V24.8877C201.958 24.6689 201.999 24.514 202.081 24.4229C202.168 24.3317 202.309 24.2861 202.505 24.2861C202.778 24.2861 202.974 24.4821 203.093 24.874C203.147 25.07 203.2 25.2181 203.25 25.3184C203.41 25.6374 203.66 25.8835 204.002 26.0566C204.348 26.2298 204.761 26.3164 205.239 26.3164C205.827 26.3164 206.303 26.1774 206.668 25.8994C207.037 25.6214 207.222 25.266 207.222 24.833C207.222 24.473 207.108 24.1836 206.88 23.9648C206.657 23.7461 206.328 23.6048 205.896 23.541L204.884 23.4043C203.94 23.2721 203.252 23.0238 202.819 22.6592C202.386 22.2946 202.17 21.7819 202.17 21.1211C202.17 20.4238 202.457 19.8382 203.031 19.3643C203.61 18.8903 204.33 18.6533 205.191 18.6533C205.442 18.6533 205.706 18.6875 205.984 18.7559C206.262 18.8197 206.577 18.9222 206.928 19.0635C206.937 18.9313 206.973 18.8402 207.037 18.79C207.101 18.7399 207.21 18.7148 207.365 18.7148C207.566 18.7148 207.705 18.7445 207.782 18.8037C207.86 18.863 207.908 19.0042 207.926 19.2275L208.021 20.6562V20.7246C208.021 20.8841 207.976 21.0094 207.885 21.1006C207.794 21.1872 207.666 21.2305 207.502 21.2305C207.26 21.2305 207.074 21.0618 206.941 20.7246C206.878 20.5332 206.814 20.3896 206.75 20.2939C206.6 20.0661 206.383 19.8906 206.101 19.7676C205.818 19.6445 205.497 19.583 205.137 19.583C204.585 19.583 204.136 19.7197 203.79 19.9932C203.448 20.2666 203.277 20.6243 203.277 21.0664C203.277 21.4128 203.405 21.6862 203.66 21.8867C203.92 22.0872 204.314 22.224 204.843 22.2969L205.937 22.4336C206.729 22.5384 207.326 22.7822 207.728 23.165C208.129 23.5433 208.329 24.056 208.329 24.7031C208.329 25.4688 208.044 26.084 207.475 26.5488C206.905 27.0091 206.144 27.2393 205.191 27.2393C204.863 27.2393 204.537 27.2005 204.214 27.123C203.89 27.0456 203.546 26.9248 203.182 26.7607ZM211.016 26.0361V19.0361H210.886C210.576 19.0361 210.362 18.9997 210.243 18.9268C210.129 18.8538 210.072 18.7262 210.072 18.5439C210.072 18.3799 210.118 18.2568 210.209 18.1748C210.305 18.0928 210.441 18.0518 210.619 18.0518H211.658C211.781 18.0518 211.877 18.0768 211.945 18.127C212.014 18.1771 212.048 18.2454 212.048 18.332V21.4287C212.381 21.1188 212.709 20.891 213.032 20.7451C213.36 20.5947 213.7 20.5195 214.051 20.5195C214.739 20.5195 215.279 20.7337 215.671 21.1621C216.067 21.5905 216.266 22.1829 216.266 22.9395V26.0361H216.587C216.815 26.0361 216.979 26.0749 217.079 26.1523C217.179 26.2253 217.229 26.3438 217.229 26.5078C217.229 26.6719 217.184 26.7949 217.093 26.877C217.002 26.959 216.865 27 216.683 27H214.864C214.65 27 214.504 26.9658 214.427 26.8975C214.354 26.8245 214.317 26.6947 214.317 26.5078C214.317 26.3255 214.363 26.2025 214.454 26.1387C214.55 26.0703 214.728 26.0361 214.987 26.0361H215.227V23.1924C215.227 22.6592 215.106 22.2536 214.864 21.9756C214.623 21.693 214.272 21.5518 213.812 21.5518C213.342 21.5518 212.93 21.709 212.574 22.0234C212.223 22.3379 212.048 22.7275 212.048 23.1924V26.0361H212.287C212.561 26.0361 212.745 26.0703 212.841 26.1387C212.937 26.207 212.984 26.3301 212.984 26.5078C212.984 26.6947 212.946 26.8245 212.868 26.8975C212.795 26.9658 212.652 27 212.438 27H210.619C210.441 27 210.307 26.959 210.216 26.877C210.129 26.7949 210.086 26.6719 210.086 26.5078C210.086 26.3255 210.138 26.2025 210.243 26.1387C210.353 26.0703 210.562 26.0361 210.872 26.0361H211.016ZM221.365 18.7148C221.365 18.2227 221.409 17.9128 221.495 17.7852C221.586 17.6576 221.778 17.5938 222.069 17.5938C222.352 17.5938 222.539 17.6484 222.63 17.7578C222.721 17.8626 222.767 18.1156 222.767 18.5166C222.767 18.9085 222.723 19.1523 222.637 19.248C222.555 19.3392 222.366 19.3848 222.069 19.3848C221.778 19.3848 221.586 19.3415 221.495 19.2549C221.409 19.1683 221.365 18.9883 221.365 18.7148ZM222.63 26.0361H224.824C225.002 26.0361 225.132 26.0749 225.214 26.1523C225.3 26.2253 225.344 26.3438 225.344 26.5078C225.344 26.6947 225.303 26.8245 225.221 26.8975C225.143 26.9658 224.997 27 224.783 27H219.479C219.296 27 219.16 26.959 219.068 26.877C218.977 26.7949 218.932 26.6719 218.932 26.5078C218.932 26.3483 218.979 26.2298 219.075 26.1523C219.171 26.0749 219.314 26.0361 219.506 26.0361H221.591V21.6543H220.258C220.071 21.6543 219.927 21.6133 219.827 21.5312C219.731 21.4447 219.684 21.3216 219.684 21.1621C219.684 21.0026 219.729 20.8841 219.82 20.8066C219.911 20.7246 220.048 20.6836 220.23 20.6836H222.233C222.356 20.6836 222.452 20.7087 222.521 20.7588C222.593 20.8089 222.63 20.8773 222.63 20.9639V26.0361ZM228.639 28.75H230.279C230.452 28.75 230.582 28.791 230.669 28.873C230.756 28.9551 230.799 29.0781 230.799 29.2422C230.799 29.4199 230.756 29.5452 230.669 29.6182C230.587 29.6911 230.439 29.7275 230.225 29.7275H227.21C227.028 29.7275 226.889 29.6865 226.793 29.6045C226.702 29.5225 226.656 29.4017 226.656 29.2422C226.656 29.0599 226.713 28.9323 226.827 28.8594C226.946 28.7865 227.162 28.75 227.477 28.75H227.606V21.6543H227.477C227.162 21.6543 226.946 21.6178 226.827 21.5449C226.713 21.472 226.656 21.3444 226.656 21.1621C226.656 21.0026 226.702 20.8841 226.793 20.8066C226.889 20.7246 227.028 20.6836 227.21 20.6836H228.249C228.386 20.6836 228.484 20.7064 228.543 20.752C228.607 20.7975 228.639 20.8682 228.639 20.9639V21.627C228.949 21.3079 229.29 21.0687 229.664 20.9092C230.042 20.7497 230.448 20.6699 230.881 20.6699C231.797 20.6699 232.562 20.9798 233.178 21.5996C233.793 22.2194 234.101 22.9964 234.101 23.9307C234.101 24.8285 233.809 25.5667 233.226 26.1455C232.642 26.7243 231.897 27.0137 230.99 27.0137C230.507 27.0137 230.063 26.9294 229.657 26.7607C229.252 26.5876 228.912 26.3415 228.639 26.0225V28.75ZM230.758 26.0088C231.391 26.0088 231.911 25.8105 232.316 25.4141C232.722 25.013 232.925 24.4958 232.925 23.8623C232.925 23.2425 232.72 22.7321 232.31 22.3311C231.904 21.9255 231.387 21.7227 230.758 21.7227C230.129 21.7227 229.614 21.9232 229.213 22.3242C228.812 22.7253 228.611 23.238 228.611 23.8623C228.611 24.4912 228.81 25.0062 229.206 25.4072C229.607 25.8083 230.124 26.0088 230.758 26.0088ZM237.416 29.4199C237.416 29.3288 237.493 29.126 237.648 28.8115C237.803 28.5016 237.922 28.2533 238.004 28.0664C238.309 27.3372 238.528 26.6719 238.66 26.0703C238.792 25.4642 238.858 24.8398 238.858 24.1973C238.858 23.6139 238.801 23.042 238.688 22.4814C238.578 21.9163 238.41 21.3512 238.182 20.7861C238.063 20.4854 237.906 20.1322 237.71 19.7266C237.514 19.3164 237.416 19.0612 237.416 18.9609C237.416 18.8698 237.439 18.7969 237.484 18.7422C237.53 18.6829 237.589 18.6533 237.662 18.6533C237.812 18.6533 237.972 18.7285 238.141 18.8789C238.314 19.0247 238.514 19.2594 238.742 19.583C239.23 20.2757 239.594 21.0072 239.836 21.7773C240.077 22.5475 240.198 23.3542 240.198 24.1973C240.198 24.9674 240.096 25.7035 239.891 26.4053C239.69 27.1071 239.387 27.7861 238.981 28.4424C238.699 28.889 238.451 29.2171 238.236 29.4268C238.027 29.6364 237.835 29.7412 237.662 29.7412C237.589 29.7412 237.53 29.7116 237.484 29.6523C237.439 29.5931 237.416 29.5156 237.416 29.4199Z" fill="#9BE7C4"/>
<path d="M59.6816 45.6543C59.6725 45.9961 59.6315 46.2148 59.5586 46.3105C59.4902 46.4017 59.3535 46.4473 59.1484 46.4473C58.9889 46.4473 58.8682 46.4062 58.7861 46.3242C58.7087 46.2376 58.6699 46.1123 58.6699 45.9482C58.6699 45.9482 58.6722 45.9141 58.6768 45.8457C58.6813 45.7728 58.6836 45.6999 58.6836 45.627L58.752 43.3711C58.7611 43.2025 58.8066 43.0817 58.8887 43.0088C58.9707 42.9313 59.0983 42.8926 59.2715 42.8926H65.2119C65.3851 42.8926 65.5127 42.9313 65.5947 43.0088C65.6768 43.0817 65.7201 43.2025 65.7246 43.3711L65.7998 45.627C65.7998 45.709 65.8021 45.7865 65.8066 45.8594C65.8112 45.9323 65.8135 45.9665 65.8135 45.9619C65.8135 46.126 65.7702 46.249 65.6836 46.3311C65.597 46.4085 65.4671 46.4473 65.2939 46.4473C65.1117 46.4473 64.9863 46.4017 64.918 46.3105C64.8496 46.2148 64.8109 45.9961 64.8018 45.6543L64.7334 43.877H62.7715V50.0361H63.8242H64.0908C64.2822 50.0361 64.4212 50.0749 64.5078 50.1523C64.5944 50.2253 64.6377 50.3438 64.6377 50.5078C64.6377 50.6673 64.5967 50.7904 64.5146 50.877C64.4326 50.959 64.3141 51 64.1592 51H60.3242C60.1693 51 60.0508 50.959 59.9688 50.877C59.8867 50.7904 59.8457 50.6673 59.8457 50.5078C59.8457 50.3392 59.889 50.2184 59.9756 50.1455C60.0667 50.0726 60.2194 50.0361 60.4336 50.0361H60.6592H61.7119V43.877H59.75L59.6816 45.6543ZM72.1641 47.9785C71.9134 47.8965 71.6696 47.8372 71.4326 47.8008C71.2002 47.7598 70.9678 47.7393 70.7354 47.7393C70.0335 47.7393 69.4798 47.8577 69.0742 48.0947C68.6686 48.3317 68.4658 48.6507 68.4658 49.0518C68.4658 49.3617 68.5911 49.6169 68.8418 49.8174C69.097 50.0179 69.4206 50.1182 69.8125 50.1182C70.3913 50.1182 70.9268 49.9678 71.4189 49.667C71.9157 49.3617 72.1641 49.0449 72.1641 48.7168V47.9785ZM72.2188 50.1318C71.8451 50.4691 71.4372 50.7266 70.9951 50.9043C70.5576 51.082 70.1064 51.1709 69.6416 51.1709C68.9626 51.1709 68.4134 50.9818 67.9941 50.6035C67.5794 50.2253 67.3721 49.7331 67.3721 49.127C67.3721 48.4069 67.6478 47.8486 68.1992 47.4521C68.7552 47.0557 69.5345 46.8574 70.5371 46.8574C70.8014 46.8574 71.068 46.8757 71.3369 46.9121C71.6058 46.944 71.8815 46.9964 72.1641 47.0693V47.0215C72.1641 46.4974 72.0387 46.11 71.7881 45.8594C71.5374 45.6087 71.1478 45.4834 70.6191 45.4834C70.2637 45.4834 69.8672 45.5791 69.4297 45.7705C68.9922 45.9619 68.7028 46.0576 68.5615 46.0576C68.4294 46.0576 68.32 46.0052 68.2334 45.9004C68.1468 45.791 68.1035 45.652 68.1035 45.4834C68.1035 45.2145 68.3542 44.9867 68.8555 44.7998C69.3613 44.613 70.0062 44.5195 70.79 44.5195C71.5921 44.5195 72.1982 44.7246 72.6084 45.1348C73.0186 45.5404 73.2236 46.1419 73.2236 46.9395V50.0361H73.5586C73.8822 50.0361 74.0986 50.0703 74.208 50.1387C74.3174 50.207 74.3721 50.3301 74.3721 50.5078C74.3721 50.6719 74.3265 50.7949 74.2354 50.877C74.1442 50.959 74.0075 51 73.8252 51H72.752C72.6243 51 72.5195 50.9613 72.4375 50.8838C72.3555 50.8063 72.3008 50.6947 72.2734 50.5488L72.2188 50.1318ZM77.8105 48.3818V50.3984C77.8105 50.5807 77.7718 50.7266 77.6943 50.8359C77.6214 50.9453 77.5257 51 77.4072 51H76.1426C75.9648 51 75.8304 50.959 75.7393 50.877C75.6481 50.7949 75.6025 50.6719 75.6025 50.5078C75.6025 50.3255 75.6549 50.2025 75.7598 50.1387C75.8691 50.0703 76.0993 50.0361 76.4502 50.0361H76.7783V43.0361H76.498C76.1061 43.0361 75.8532 43.002 75.7393 42.9336C75.6253 42.8607 75.5684 42.7308 75.5684 42.5439C75.5684 42.3799 75.6139 42.2568 75.7051 42.1748C75.8008 42.0928 75.9375 42.0518 76.1152 42.0518H77.4209C77.5439 42.0518 77.6396 42.0768 77.708 42.127C77.7764 42.1771 77.8105 42.2454 77.8105 42.332V47.2334L79.7861 45.5791C79.6357 45.5153 79.5241 45.4447 79.4512 45.3672C79.3828 45.2897 79.3486 45.1986 79.3486 45.0938C79.3486 44.957 79.3988 44.8545 79.499 44.7861C79.5993 44.7178 79.7451 44.6836 79.9365 44.6836H81.7891C81.9622 44.6836 82.0944 44.7223 82.1855 44.7998C82.2767 44.8773 82.3223 44.9935 82.3223 45.1484C82.3223 45.4219 82.1012 45.5814 81.6592 45.627C81.5726 45.6361 81.5042 45.6452 81.4541 45.6543C81.2673 45.6771 81.0622 45.75 80.8389 45.873C80.6156 45.9915 80.39 46.151 80.1621 46.3516L79.1709 47.2197L81.7617 50.0361H82.3496C82.5456 50.0361 82.6846 50.0726 82.7666 50.1455C82.8532 50.2184 82.8965 50.3392 82.8965 50.5078C82.8965 50.6673 82.8486 50.7904 82.7529 50.877C82.6618 50.959 82.5273 51 82.3496 51H80.4971C80.2965 51 80.1507 50.9658 80.0596 50.8975C79.9684 50.8291 79.9229 50.7197 79.9229 50.5693C79.9229 50.4463 79.9661 50.3415 80.0527 50.2549C80.1439 50.1637 80.2783 50.0908 80.4561 50.0361L78.4258 47.8213L77.8105 48.3818ZM85.1523 48.1426C85.1888 48.7988 85.4098 49.307 85.8154 49.667C86.2256 50.0225 86.7839 50.2002 87.4902 50.2002C88.0234 50.2002 88.6045 50.0589 89.2334 49.7764C89.8623 49.4893 90.2428 49.3457 90.375 49.3457C90.5117 49.3457 90.6257 49.389 90.7168 49.4756C90.8079 49.5622 90.8535 49.6693 90.8535 49.7969C90.8535 49.929 90.8057 50.0498 90.71 50.1592C90.6143 50.2686 90.4616 50.3757 90.252 50.4805C89.7962 50.7038 89.3245 50.8747 88.8369 50.9932C88.3538 51.1117 87.873 51.1709 87.3945 51.1709C86.3555 51.1709 85.5238 50.8724 84.8994 50.2754C84.2751 49.6738 83.9629 48.8786 83.9629 47.8896C83.9629 46.8825 84.2933 46.0667 84.9541 45.4424C85.6149 44.818 86.4762 44.5059 87.5381 44.5059C88.4997 44.5059 89.2972 44.7975 89.9307 45.3809C90.5641 45.9642 90.8809 46.6706 90.8809 47.5C90.8809 47.7552 90.8262 47.9261 90.7168 48.0127C90.612 48.0993 90.3226 48.1426 89.8486 48.1426H89.7461H85.1523ZM85.1865 47.2471H89.6367C89.5684 46.7048 89.3405 46.2695 88.9531 45.9414C88.5703 45.6087 88.0986 45.4424 87.5381 45.4424C86.932 45.4424 86.4215 45.6019 86.0068 45.9209C85.5921 46.2399 85.3187 46.682 85.1865 47.2471ZM104.279 50.2139C104.981 50.2139 105.555 49.9928 106.002 49.5508C106.453 49.1042 106.679 48.5368 106.679 47.8486C106.679 47.1605 106.453 46.5931 106.002 46.1465C105.551 45.6953 104.977 45.4697 104.279 45.4697C103.582 45.4697 103.008 45.6953 102.557 46.1465C102.11 46.5931 101.887 47.1605 101.887 47.8486C101.887 48.5413 102.11 49.1087 102.557 49.5508C103.003 49.9928 103.577 50.2139 104.279 50.2139ZM107.868 47.8486C107.868 48.8239 107.535 49.6214 106.87 50.2412C106.205 50.861 105.341 51.1709 104.279 51.1709C103.222 51.1709 102.361 50.861 101.695 50.2412C101.03 49.6214 100.697 48.8239 100.697 47.8486C100.697 46.8734 101.03 46.0781 101.695 45.4629C102.361 44.8431 103.222 44.5332 104.279 44.5332C105.337 44.5332 106.198 44.8431 106.863 45.4629C107.533 46.0827 107.868 46.8779 107.868 47.8486ZM110.145 50.0361V45.6543H110.015C109.705 45.6543 109.491 45.6178 109.372 45.5449C109.258 45.472 109.201 45.3444 109.201 45.1621C109.201 44.9935 109.249 44.8727 109.345 44.7998C109.44 44.7223 109.595 44.6836 109.81 44.6836H110.131H110.787C110.91 44.6836 111.006 44.7087 111.074 44.7588C111.143 44.8089 111.177 44.8773 111.177 44.9639V45.4287C111.509 45.1188 111.838 44.891 112.161 44.7451C112.489 44.5947 112.829 44.5195 113.18 44.5195C113.868 44.5195 114.408 44.7337 114.8 45.1621C115.196 45.5905 115.395 46.1829 115.395 46.9395V50.0361H115.716C115.944 50.0361 116.108 50.0749 116.208 50.1523C116.308 50.2253 116.358 50.3438 116.358 50.5078C116.358 50.6855 116.304 50.8132 116.194 50.8906C116.09 50.9635 115.9 51 115.627 51H114.116C113.825 51 113.638 50.9658 113.556 50.8975C113.474 50.8291 113.433 50.6992 113.433 50.5078C113.433 50.3301 113.48 50.207 113.576 50.1387C113.672 50.0703 113.852 50.0361 114.116 50.0361H114.355V47.1924C114.355 46.6592 114.235 46.2536 113.993 45.9756C113.752 45.693 113.401 45.5518 112.94 45.5518C112.476 45.5518 112.065 45.709 111.71 46.0234C111.354 46.3379 111.177 46.7275 111.177 47.1924V50.0361H111.416C111.689 50.0361 111.874 50.0703 111.97 50.1387C112.065 50.207 112.113 50.3301 112.113 50.5078C112.113 50.6992 112.072 50.8291 111.99 50.8975C111.908 50.9658 111.708 51 111.389 51H110.145H109.775C109.589 51 109.447 50.9613 109.352 50.8838C109.26 50.8018 109.215 50.6764 109.215 50.5078C109.215 50.3255 109.267 50.2025 109.372 50.1387C109.481 50.0703 109.691 50.0361 110.001 50.0361H110.145ZM128.048 50.0361H129.565C130.422 50.0361 131.026 49.929 131.377 49.7148C131.728 49.4961 131.903 49.1361 131.903 48.6348C131.903 48.1289 131.735 47.7689 131.397 47.5547C131.065 47.3405 130.477 47.2334 129.634 47.2334H128.048V50.0361ZM128.048 46.3926H129.477C130.124 46.3926 130.602 46.29 130.912 46.085C131.227 45.8799 131.384 45.5632 131.384 45.1348C131.384 44.7292 131.243 44.4193 130.96 44.2051C130.677 43.9863 130.272 43.877 129.743 43.877H128.048V46.3926ZM129.422 51H126.359C126.2 51 126.079 50.959 125.997 50.877C125.92 50.7949 125.881 50.6719 125.881 50.5078C125.881 50.3255 125.931 50.2025 126.031 50.1387C126.132 50.0703 126.371 50.0361 126.749 50.0361H126.975V43.877H126.749C126.398 43.877 126.173 43.8428 126.072 43.7744C125.972 43.7015 125.922 43.5716 125.922 43.3848C125.922 43.2253 125.963 43.1045 126.045 43.0225C126.127 42.9359 126.245 42.8926 126.4 42.8926H129.593C130.559 42.8926 131.295 43.0817 131.801 43.46C132.307 43.8337 132.56 44.3783 132.56 45.0938C132.56 45.4538 132.482 45.7682 132.327 46.0371C132.172 46.306 131.942 46.527 131.637 46.7002C132.129 46.8779 132.493 47.1263 132.73 47.4453C132.972 47.7643 133.093 48.1699 133.093 48.6621C133.093 49.0768 132.99 49.4551 132.785 49.7969C132.58 50.1387 132.291 50.4189 131.917 50.6377C131.694 50.7653 131.445 50.8587 131.172 50.918C130.898 50.9727 130.511 51 130.01 51H129.422ZM137.283 42.7148C137.283 42.2227 137.326 41.9128 137.413 41.7852C137.504 41.6576 137.696 41.5938 137.987 41.5938C138.27 41.5938 138.457 41.6484 138.548 41.7578C138.639 41.8626 138.685 42.1156 138.685 42.5166C138.685 42.9085 138.641 43.1523 138.555 43.248C138.473 43.3392 138.284 43.3848 137.987 43.3848C137.696 43.3848 137.504 43.3415 137.413 43.2549C137.326 43.1683 137.283 42.9883 137.283 42.7148ZM138.548 50.0361H140.742C140.92 50.0361 141.05 50.0749 141.132 50.1523C141.218 50.2253 141.262 50.3438 141.262 50.5078C141.262 50.6947 141.221 50.8245 141.139 50.8975C141.061 50.9658 140.915 51 140.701 51H135.396C135.214 51 135.077 50.959 134.986 50.877C134.895 50.7949 134.85 50.6719 134.85 50.5078C134.85 50.3483 134.897 50.2298 134.993 50.1523C135.089 50.0749 135.232 50.0361 135.424 50.0361H137.509V45.6543H136.176C135.989 45.6543 135.845 45.6133 135.745 45.5312C135.649 45.4447 135.602 45.3216 135.602 45.1621C135.602 45.0026 135.647 44.8841 135.738 44.8066C135.829 44.7246 135.966 44.6836 136.148 44.6836H138.151C138.274 44.6836 138.37 44.7087 138.438 44.7588C138.511 44.8089 138.548 44.8773 138.548 44.9639V50.0361ZM146.129 45.6953C145.532 45.6953 145.044 45.8799 144.666 46.249C144.288 46.6182 144.099 47.0967 144.099 47.6846C144.099 48.2633 144.288 48.7396 144.666 49.1133C145.044 49.4824 145.532 49.667 146.129 49.667C146.721 49.667 147.207 49.4824 147.585 49.1133C147.968 48.7396 148.159 48.2633 148.159 47.6846C148.159 47.1058 147.968 46.6296 147.585 46.2559C147.207 45.8822 146.721 45.6953 146.129 45.6953ZM149.096 50.6377C149.096 51.2757 149.064 51.7269 149 51.9912C148.936 52.2601 148.827 52.4948 148.672 52.6953C148.417 53.0326 148.059 53.2878 147.599 53.4609C147.138 53.6387 146.596 53.7275 145.972 53.7275C145.452 53.7275 145.072 53.6774 144.83 53.5771C144.593 53.4769 144.475 53.3174 144.475 53.0986C144.475 52.9574 144.532 52.832 144.646 52.7227C144.764 52.6178 144.903 52.5654 145.062 52.5654C145.186 52.5654 145.375 52.5814 145.63 52.6133C145.885 52.6497 146.079 52.668 146.211 52.668C146.885 52.668 147.364 52.513 147.646 52.2031C147.929 51.8932 148.07 51.3623 148.07 50.6104V49.7832C147.792 50.1068 147.485 50.3438 147.147 50.4941C146.81 50.6445 146.423 50.7197 145.985 50.7197C145.133 50.7197 144.427 50.4372 143.866 49.8721C143.31 49.3024 143.032 48.5824 143.032 47.7119C143.032 46.8369 143.319 46.1123 143.894 45.5381C144.468 44.9593 145.179 44.6699 146.026 44.6699C146.377 44.6699 146.719 44.736 147.052 44.8682C147.389 44.9958 147.729 45.1917 148.07 45.4561V44.9639C148.07 44.8682 148.1 44.7975 148.159 44.752C148.223 44.7064 148.321 44.6836 148.453 44.6836H149.485C149.668 44.6836 149.804 44.7246 149.896 44.8066C149.987 44.8841 150.032 45.0026 150.032 45.1621C150.032 45.3444 149.975 45.472 149.861 45.5449C149.747 45.6178 149.533 45.6543 149.219 45.6543H149.096V50.6377ZM160.58 45.6543C160.571 45.9961 160.53 46.2148 160.457 46.3105C160.389 46.4017 160.252 46.4473 160.047 46.4473C159.887 46.4473 159.767 46.4062 159.685 46.3242C159.607 46.2376 159.568 46.1123 159.568 45.9482C159.568 45.9482 159.571 45.9141 159.575 45.8457C159.58 45.7728 159.582 45.6999 159.582 45.627L159.65 43.3711C159.66 43.2025 159.705 43.0817 159.787 43.0088C159.869 42.9313 159.997 42.8926 160.17 42.8926H166.11C166.284 42.8926 166.411 42.9313 166.493 43.0088C166.575 43.0817 166.618 43.2025 166.623 43.3711L166.698 45.627C166.698 45.709 166.701 45.7865 166.705 45.8594C166.71 45.9323 166.712 45.9665 166.712 45.9619C166.712 46.126 166.669 46.249 166.582 46.3311C166.495 46.4085 166.366 46.4473 166.192 46.4473C166.01 46.4473 165.885 46.4017 165.816 46.3105C165.748 46.2148 165.709 45.9961 165.7 45.6543L165.632 43.877H163.67V50.0361H164.723H164.989C165.181 50.0361 165.32 50.0749 165.406 50.1523C165.493 50.2253 165.536 50.3438 165.536 50.5078C165.536 50.6673 165.495 50.7904 165.413 50.877C165.331 50.959 165.213 51 165.058 51H161.223C161.068 51 160.949 50.959 160.867 50.877C160.785 50.7904 160.744 50.6673 160.744 50.5078C160.744 50.3392 160.787 50.2184 160.874 50.1455C160.965 50.0726 161.118 50.0361 161.332 50.0361H161.558H162.61V43.877H160.648L160.58 45.6543ZM169.234 48.1426C169.271 48.7988 169.492 49.307 169.897 49.667C170.308 50.0225 170.866 50.2002 171.572 50.2002C172.105 50.2002 172.687 50.0589 173.315 49.7764C173.944 49.4893 174.325 49.3457 174.457 49.3457C174.594 49.3457 174.708 49.389 174.799 49.4756C174.89 49.5622 174.936 49.6693 174.936 49.7969C174.936 49.929 174.888 50.0498 174.792 50.1592C174.696 50.2686 174.544 50.3757 174.334 50.4805C173.878 50.7038 173.407 50.8747 172.919 50.9932C172.436 51.1117 171.955 51.1709 171.477 51.1709C170.438 51.1709 169.606 50.8724 168.981 50.2754C168.357 49.6738 168.045 48.8786 168.045 47.8896C168.045 46.8825 168.375 46.0667 169.036 45.4424C169.697 44.818 170.558 44.5059 171.62 44.5059C172.582 44.5059 173.379 44.7975 174.013 45.3809C174.646 45.9642 174.963 46.6706 174.963 47.5C174.963 47.7552 174.908 47.9261 174.799 48.0127C174.694 48.0993 174.405 48.1426 173.931 48.1426H173.828H169.234ZM169.269 47.2471H173.719C173.65 46.7048 173.423 46.2695 173.035 45.9414C172.652 45.6087 172.181 45.4424 171.62 45.4424C171.014 45.4424 170.504 45.6019 170.089 45.9209C169.674 46.2399 169.401 46.682 169.269 47.2471ZM182.011 45.0938V45.0664C182.011 44.916 182.054 44.8066 182.141 44.7383C182.227 44.6654 182.362 44.6289 182.544 44.6289C182.731 44.6289 182.858 44.6836 182.927 44.793C183 44.9023 183.036 45.1279 183.036 45.4697V46.7412C183.036 46.9098 182.993 47.0374 182.906 47.124C182.82 47.2061 182.69 47.2471 182.517 47.2471C182.394 47.2471 182.286 47.2129 182.195 47.1445C182.109 47.0716 182.002 46.9235 181.874 46.7002C181.655 46.3311 181.389 46.0531 181.074 45.8662C180.764 45.6748 180.407 45.5791 180.001 45.5791C179.29 45.5791 178.711 45.7887 178.265 46.208C177.823 46.6273 177.602 47.1696 177.602 47.835C177.602 48.514 177.813 49.07 178.237 49.5029C178.666 49.9313 179.215 50.1455 179.885 50.1455C180.19 50.1455 180.479 50.1045 180.753 50.0225C181.031 49.9359 181.293 49.8083 181.539 49.6396C181.626 49.585 181.742 49.5007 181.888 49.3867C182.184 49.1452 182.416 49.0244 182.585 49.0244C182.726 49.0244 182.84 49.07 182.927 49.1611C183.018 49.2477 183.063 49.3617 183.063 49.5029C183.063 49.863 182.722 50.2321 182.038 50.6104C181.359 50.984 180.637 51.1709 179.871 51.1709C178.882 51.1709 178.057 50.8542 177.396 50.2207C176.74 49.5872 176.412 48.7965 176.412 47.8486C176.412 46.9007 176.74 46.11 177.396 45.4766C178.053 44.8385 178.873 44.5195 179.857 44.5195C180.204 44.5195 180.55 44.5674 180.896 44.6631C181.247 44.7542 181.619 44.8978 182.011 45.0938ZM185.791 50.0361V43.0361H185.661C185.351 43.0361 185.137 42.9997 185.019 42.9268C184.905 42.8538 184.848 42.7262 184.848 42.5439C184.848 42.3799 184.893 42.2568 184.984 42.1748C185.08 42.0928 185.217 42.0518 185.395 42.0518H186.434C186.557 42.0518 186.652 42.0768 186.721 42.127C186.789 42.1771 186.823 42.2454 186.823 42.332V45.4287C187.156 45.1188 187.484 44.891 187.808 44.7451C188.136 44.5947 188.475 44.5195 188.826 44.5195C189.514 44.5195 190.054 44.7337 190.446 45.1621C190.843 45.5905 191.041 46.1829 191.041 46.9395V50.0361H191.362C191.59 50.0361 191.754 50.0749 191.854 50.1523C191.955 50.2253 192.005 50.3438 192.005 50.5078C192.005 50.6719 191.959 50.7949 191.868 50.877C191.777 50.959 191.64 51 191.458 51H189.64C189.425 51 189.28 50.9658 189.202 50.8975C189.129 50.8245 189.093 50.6947 189.093 50.5078C189.093 50.3255 189.138 50.2025 189.229 50.1387C189.325 50.0703 189.503 50.0361 189.763 50.0361H190.002V47.1924C190.002 46.6592 189.881 46.2536 189.64 45.9756C189.398 45.693 189.047 45.5518 188.587 45.5518C188.118 45.5518 187.705 45.709 187.35 46.0234C186.999 46.3379 186.823 46.7275 186.823 47.1924V50.0361H187.062C187.336 50.0361 187.521 50.0703 187.616 50.1387C187.712 50.207 187.76 50.3301 187.76 50.5078C187.76 50.6947 187.721 50.8245 187.644 50.8975C187.571 50.9658 187.427 51 187.213 51H185.395C185.217 51 185.082 50.959 184.991 50.877C184.905 50.7949 184.861 50.6719 184.861 50.5078C184.861 50.3255 184.914 50.2025 185.019 50.1387C185.128 50.0703 185.338 50.0361 185.647 50.0361H185.791Z" fill="#FFA6A6"/>
</svg>
