<svg width="343" height="117" viewBox="0 0 343 117" fill="none" xmlns="http://www.w3.org/2000/svg">
<rect width="343" height="117" rx="8" fill="#4A4A4A"/>
<path d="M19.0225 22.6729L14.0254 20.3896C13.8158 20.2939 13.6676 20.2005 13.5811 20.1094C13.4945 20.0137 13.4512 19.9066 13.4512 19.7881C13.4512 19.6559 13.4899 19.5511 13.5674 19.4736C13.6494 19.3962 13.7588 19.3574 13.8955 19.3574C13.9639 19.3574 14.0391 19.3711 14.1211 19.3984C14.2077 19.4212 14.3148 19.4622 14.4424 19.5215L19.877 22.0166C19.8952 22.0257 19.9225 22.0394 19.959 22.0576C20.3691 22.2399 20.5742 22.445 20.5742 22.6729C20.5742 22.8962 20.3737 23.1012 19.9727 23.2881C19.9271 23.3063 19.8952 23.32 19.877 23.3291L14.4424 25.8652L14.415 25.8789C14.1781 25.9837 14.0049 26.0361 13.8955 26.0361C13.7588 26.0361 13.6494 25.9951 13.5674 25.9131C13.4899 25.8311 13.4512 25.7217 13.4512 25.585C13.4512 25.4665 13.4945 25.3617 13.5811 25.2705C13.6676 25.1748 13.8158 25.0791 14.0254 24.9834L19.0225 22.6729ZM140.777 26.0361V21.6543H140.647C140.338 21.6543 140.123 21.6178 140.005 21.5449C139.891 21.472 139.834 21.3444 139.834 21.1621C139.834 20.9935 139.882 20.8727 139.978 20.7998C140.073 20.7223 140.228 20.6836 140.442 20.6836H140.764H141.42C141.543 20.6836 141.639 20.7087 141.707 20.7588C141.775 20.8089 141.81 20.8773 141.81 20.9639V21.4287C142.142 21.1188 142.47 20.891 142.794 20.7451C143.122 20.5947 143.462 20.5195 143.812 20.5195C144.501 20.5195 145.041 20.7337 145.433 21.1621C145.829 21.5905 146.027 22.1829 146.027 22.9395V26.0361H146.349C146.576 26.0361 146.741 26.0749 146.841 26.1523C146.941 26.2253 146.991 26.3438 146.991 26.5078C146.991 26.6855 146.937 26.8132 146.827 26.8906C146.722 26.9635 146.533 27 146.26 27H144.749C144.457 27 144.271 26.9658 144.188 26.8975C144.106 26.8291 144.065 26.6992 144.065 26.5078C144.065 26.3301 144.113 26.207 144.209 26.1387C144.305 26.0703 144.485 26.0361 144.749 26.0361H144.988V23.1924C144.988 22.6592 144.868 22.2536 144.626 21.9756C144.384 21.693 144.034 21.5518 143.573 21.5518C143.108 21.5518 142.698 21.709 142.343 22.0234C141.987 22.3379 141.81 22.7275 141.81 23.1924V26.0361H142.049C142.322 26.0361 142.507 26.0703 142.603 26.1387C142.698 26.207 142.746 26.3301 142.746 26.5078C142.746 26.6992 142.705 26.8291 142.623 26.8975C142.541 26.9658 142.34 27 142.021 27H140.777H140.408C140.221 27 140.08 26.9613 139.984 26.8838C139.893 26.8018 139.848 26.6764 139.848 26.5078C139.848 26.3255 139.9 26.2025 140.005 26.1387C140.114 26.0703 140.324 26.0361 140.634 26.0361H140.777ZM149.418 24.1426C149.454 24.7988 149.675 25.307 150.081 25.667C150.491 26.0225 151.049 26.2002 151.756 26.2002C152.289 26.2002 152.87 26.0589 153.499 25.7764C154.128 25.4893 154.508 25.3457 154.641 25.3457C154.777 25.3457 154.891 25.389 154.982 25.4756C155.074 25.5622 155.119 25.6693 155.119 25.7969C155.119 25.929 155.071 26.0498 154.976 26.1592C154.88 26.2686 154.727 26.3757 154.518 26.4805C154.062 26.7038 153.59 26.8747 153.103 26.9932C152.619 27.1117 152.139 27.1709 151.66 27.1709C150.621 27.1709 149.789 26.8724 149.165 26.2754C148.541 25.6738 148.229 24.8786 148.229 23.8896C148.229 22.8825 148.559 22.0667 149.22 21.4424C149.881 20.818 150.742 20.5059 151.804 20.5059C152.765 20.5059 153.563 20.7975 154.196 21.3809C154.83 21.9642 155.146 22.6706 155.146 23.5C155.146 23.7552 155.092 23.9261 154.982 24.0127C154.878 24.0993 154.588 24.1426 154.114 24.1426H154.012H149.418ZM149.452 23.2471H153.902C153.834 22.7048 153.606 22.2695 153.219 21.9414C152.836 21.6087 152.364 21.4424 151.804 21.4424C151.198 21.4424 150.687 21.6019 150.272 21.9209C149.858 22.2399 149.584 22.682 149.452 23.2471ZM160.096 23.5273L159.214 26.7744C159.168 26.9476 159.1 27.0684 159.009 27.1367C158.918 27.2051 158.781 27.2393 158.599 27.2393C158.435 27.2393 158.307 27.196 158.216 27.1094C158.125 27.0228 158.043 26.8656 157.97 26.6377L156.404 21.6543H156.343C156.151 21.6543 156.015 21.6178 155.933 21.5449C155.846 21.4674 155.803 21.3398 155.803 21.1621C155.803 21.0072 155.848 20.8887 155.939 20.8066C156.026 20.7246 156.156 20.6836 156.329 20.6836H158.154C158.4 20.6836 158.567 20.7201 158.653 20.793C158.74 20.8613 158.783 20.9844 158.783 21.1621C158.783 21.2715 158.758 21.3672 158.708 21.4492C158.658 21.5267 158.594 21.5745 158.517 21.5928C158.439 21.6156 158.348 21.6315 158.243 21.6406C158.143 21.6497 158.02 21.6543 157.874 21.6543H157.478L158.653 25.7559L159.535 22.7754C159.585 22.6022 159.656 22.4814 159.747 22.4131C159.838 22.3447 159.973 22.3105 160.15 22.3105C160.314 22.3105 160.442 22.3561 160.533 22.4473C160.629 22.5339 160.713 22.6888 160.786 22.9121L161.641 25.7559L162.769 21.6543H162.604H162.311C161.996 21.6543 161.784 21.6201 161.675 21.5518C161.565 21.4788 161.511 21.349 161.511 21.1621C161.511 20.9798 161.552 20.8545 161.634 20.7861C161.716 20.7178 161.875 20.6836 162.112 20.6836H163.944C164.086 20.6836 164.19 20.7246 164.259 20.8066C164.332 20.8887 164.368 21.0072 164.368 21.1621C164.368 21.3353 164.327 21.4583 164.245 21.5312C164.163 21.6042 164.008 21.6452 163.78 21.6543L162.242 26.7744C162.183 26.9476 162.108 27.0684 162.017 27.1367C161.93 27.2051 161.798 27.2393 161.62 27.2393C161.456 27.2393 161.326 27.1937 161.23 27.1025C161.135 27.016 161.055 26.861 160.991 26.6377L160.096 23.5273ZM175.805 19.877V23.0488H177.083C177.799 23.0488 178.334 22.9167 178.689 22.6523C179.045 22.388 179.223 21.9893 179.223 21.4561C179.223 20.932 179.043 20.5378 178.683 20.2734C178.327 20.0091 177.794 19.877 177.083 19.877H175.805ZM177.233 26.0361C177.457 26.0361 177.618 26.0749 177.719 26.1523C177.819 26.2253 177.869 26.3438 177.869 26.5078C177.869 26.6901 177.821 26.8177 177.726 26.8906C177.63 26.9635 177.448 27 177.179 27H173.836C173.681 27 173.562 26.959 173.48 26.877C173.398 26.7904 173.357 26.6673 173.357 26.5078C173.357 26.3483 173.396 26.2298 173.474 26.1523C173.556 26.0749 173.681 26.0361 173.85 26.0361H174.731V19.877H174.253C173.852 19.877 173.601 19.8428 173.501 19.7744C173.405 19.7015 173.357 19.5716 173.357 19.3848C173.357 19.2253 173.398 19.1045 173.48 19.0225C173.562 18.9359 173.681 18.8926 173.836 18.8926H177.001C178.108 18.8926 178.949 19.1068 179.523 19.5352C180.098 19.9635 180.385 20.5947 180.385 21.4287C180.385 22.2627 180.1 22.8916 179.53 23.3154C178.961 23.7393 178.118 23.9512 177.001 23.9512H175.805V26.0361H177.233ZM184.732 18.7148C184.732 18.2227 184.776 17.9128 184.862 17.7852C184.953 17.6576 185.145 17.5938 185.437 17.5938C185.719 17.5938 185.906 17.6484 185.997 17.7578C186.088 17.8626 186.134 18.1156 186.134 18.5166C186.134 18.9085 186.09 19.1523 186.004 19.248C185.922 19.3392 185.733 19.3848 185.437 19.3848C185.145 19.3848 184.953 19.3415 184.862 19.2549C184.776 19.1683 184.732 18.9883 184.732 18.7148ZM185.997 26.0361H188.191C188.369 26.0361 188.499 26.0749 188.581 26.1523C188.668 26.2253 188.711 26.3438 188.711 26.5078C188.711 26.6947 188.67 26.8245 188.588 26.8975C188.51 26.9658 188.365 27 188.15 27H182.846C182.663 27 182.527 26.959 182.436 26.877C182.344 26.7949 182.299 26.6719 182.299 26.5078C182.299 26.3483 182.347 26.2298 182.442 26.1523C182.538 26.0749 182.682 26.0361 182.873 26.0361H184.958V21.6543H183.625C183.438 21.6543 183.295 21.6133 183.194 21.5312C183.099 21.4447 183.051 21.3216 183.051 21.1621C183.051 21.0026 183.096 20.8841 183.188 20.8066C183.279 20.7246 183.415 20.6836 183.598 20.6836H185.601C185.724 20.6836 185.819 20.7087 185.888 20.7588C185.961 20.8089 185.997 20.8773 185.997 20.9639V26.0361ZM193.1 26.0361H195.369C195.547 26.0361 195.677 26.0749 195.759 26.1523C195.845 26.2253 195.889 26.3438 195.889 26.5078C195.889 26.6947 195.848 26.8245 195.766 26.8975C195.688 26.9658 195.542 27 195.328 27H190.857C190.68 27 190.545 26.959 190.454 26.877C190.363 26.7949 190.317 26.6719 190.317 26.5078C190.317 26.3483 190.363 26.2298 190.454 26.1523C190.55 26.0749 190.696 26.0361 190.892 26.0361H192.081V21.6543H191.616C191.174 21.6543 190.898 21.6201 190.789 21.5518C190.68 21.4788 190.625 21.349 190.625 21.1621C190.625 21.0026 190.668 20.8841 190.755 20.8066C190.846 20.7246 190.983 20.6836 191.165 20.6836H192.724C192.847 20.6836 192.94 20.7087 193.004 20.7588C193.068 20.8044 193.1 20.8727 193.1 20.9639V22.126C193.533 21.5837 193.984 21.1803 194.453 20.916C194.923 20.6517 195.428 20.5195 195.971 20.5195C196.376 20.5195 196.704 20.6016 196.955 20.7656C197.206 20.9297 197.331 21.1416 197.331 21.4014C197.331 21.57 197.267 21.7204 197.14 21.8525C197.017 21.9801 196.88 22.0439 196.729 22.0439C196.625 22.0439 196.447 21.9756 196.196 21.8389C195.95 21.6976 195.729 21.627 195.533 21.627C195.178 21.627 194.802 21.7546 194.405 22.0098C194.013 22.2604 193.578 22.6592 193.1 23.2061V26.0361ZM203.695 23.9785C203.445 23.8965 203.201 23.8372 202.964 23.8008C202.731 23.7598 202.499 23.7393 202.267 23.7393C201.565 23.7393 201.011 23.8577 200.605 24.0947C200.2 24.3317 199.997 24.6507 199.997 25.0518C199.997 25.3617 200.122 25.6169 200.373 25.8174C200.628 26.0179 200.952 26.1182 201.344 26.1182C201.923 26.1182 202.458 25.9678 202.95 25.667C203.447 25.3617 203.695 25.0449 203.695 24.7168V23.9785ZM203.75 26.1318C203.376 26.4691 202.968 26.7266 202.526 26.9043C202.089 27.082 201.638 27.1709 201.173 27.1709C200.494 27.1709 199.945 26.9818 199.525 26.6035C199.111 26.2253 198.903 25.7331 198.903 25.127C198.903 24.4069 199.179 23.8486 199.73 23.4521C200.286 23.0557 201.066 22.8574 202.068 22.8574C202.333 22.8574 202.599 22.8757 202.868 22.9121C203.137 22.944 203.413 22.9964 203.695 23.0693V23.0215C203.695 22.4974 203.57 22.11 203.319 21.8594C203.069 21.6087 202.679 21.4834 202.15 21.4834C201.795 21.4834 201.398 21.5791 200.961 21.7705C200.523 21.9619 200.234 22.0576 200.093 22.0576C199.961 22.0576 199.851 22.0052 199.765 21.9004C199.678 21.791 199.635 21.652 199.635 21.4834C199.635 21.2145 199.885 20.9867 200.387 20.7998C200.893 20.613 201.537 20.5195 202.321 20.5195C203.123 20.5195 203.729 20.7246 204.14 21.1348C204.55 21.5404 204.755 22.1419 204.755 22.9395V26.0361H205.09C205.413 26.0361 205.63 26.0703 205.739 26.1387C205.849 26.207 205.903 26.3301 205.903 26.5078C205.903 26.6719 205.858 26.7949 205.767 26.877C205.675 26.959 205.539 27 205.356 27H204.283C204.156 27 204.051 26.9613 203.969 26.8838C203.887 26.8063 203.832 26.6947 203.805 26.5488L203.75 26.1318ZM212.452 21.0664C212.675 21.0664 212.837 21.1051 212.938 21.1826C213.042 21.2601 213.095 21.3831 213.095 21.5518C213.095 21.7113 213.047 21.832 212.951 21.9141C212.855 21.9915 212.712 22.0303 212.521 22.0303H209.752V24.3135C209.752 25.0609 209.848 25.5531 210.039 25.79C210.235 26.027 210.568 26.1455 211.037 26.1455C211.452 26.1455 211.949 26.0247 212.527 25.7832C213.106 25.5417 213.464 25.4209 213.601 25.4209C213.728 25.4209 213.835 25.4665 213.922 25.5576C214.013 25.6488 214.059 25.7604 214.059 25.8926C214.059 26.043 214.002 26.1751 213.888 26.2891C213.778 26.3984 213.589 26.5055 213.32 26.6104C212.874 26.7881 212.47 26.918 212.11 27C211.755 27.082 211.42 27.123 211.105 27.123C210.572 27.123 210.123 27.0387 209.759 26.8701C209.399 26.6969 209.13 26.4417 208.952 26.1045C208.861 25.945 208.795 25.7559 208.754 25.5371C208.717 25.3184 208.699 24.9811 208.699 24.5254V24.3135V22.0303H207.537C207.346 22.0303 207.207 21.9938 207.12 21.9209C207.034 21.8434 206.99 21.7204 206.99 21.5518C206.99 21.3649 207.049 21.2373 207.168 21.1689C207.286 21.1006 207.539 21.0664 207.927 21.0664H208.699V19.665V19.3027C208.699 19.1068 208.74 18.9632 208.822 18.8721C208.909 18.7764 209.041 18.7285 209.219 18.7285C209.419 18.7285 209.558 18.7855 209.636 18.8994C209.713 19.0133 209.752 19.2731 209.752 19.6787V21.0664H212.452ZM216.684 24.1426C216.72 24.7988 216.941 25.307 217.347 25.667C217.757 26.0225 218.315 26.2002 219.021 26.2002C219.555 26.2002 220.136 26.0589 220.765 25.7764C221.394 25.4893 221.774 25.3457 221.906 25.3457C222.043 25.3457 222.157 25.389 222.248 25.4756C222.339 25.5622 222.385 25.6693 222.385 25.7969C222.385 25.929 222.337 26.0498 222.241 26.1592C222.146 26.2686 221.993 26.3757 221.783 26.4805C221.327 26.7038 220.856 26.8747 220.368 26.9932C219.885 27.1117 219.404 27.1709 218.926 27.1709C217.887 27.1709 217.055 26.8724 216.431 26.2754C215.806 25.6738 215.494 24.8786 215.494 23.8896C215.494 22.8825 215.825 22.0667 216.485 21.4424C217.146 20.818 218.007 20.5059 219.069 20.5059C220.031 20.5059 220.828 20.7975 221.462 21.3809C222.095 21.9642 222.412 22.6706 222.412 23.5C222.412 23.7552 222.357 23.9261 222.248 24.0127C222.143 24.0993 221.854 24.1426 221.38 24.1426H221.277H216.684ZM216.718 23.2471H221.168C221.1 22.7048 220.872 22.2695 220.484 21.9414C220.102 21.6087 219.63 21.4424 219.069 21.4424C218.463 21.4424 217.953 21.6019 217.538 21.9209C217.123 22.2399 216.85 22.682 216.718 23.2471ZM225.406 26.7607C225.383 26.9658 225.331 27.1071 225.249 27.1846C225.167 27.2666 225.037 27.3076 224.859 27.3076C224.668 27.3076 224.524 27.2507 224.429 27.1367C224.338 27.0273 224.285 26.8473 224.271 26.5967L224.183 25.0107V24.8877C224.183 24.6689 224.224 24.514 224.306 24.4229C224.392 24.3317 224.534 24.2861 224.729 24.2861C225.003 24.2861 225.199 24.4821 225.317 24.874C225.372 25.07 225.424 25.2181 225.475 25.3184C225.634 25.6374 225.885 25.8835 226.227 26.0566C226.573 26.2298 226.985 26.3164 227.464 26.3164C228.052 26.3164 228.528 26.1774 228.893 25.8994C229.262 25.6214 229.446 25.266 229.446 24.833C229.446 24.473 229.332 24.1836 229.104 23.9648C228.881 23.7461 228.553 23.6048 228.12 23.541L227.108 23.4043C226.165 23.2721 225.477 23.0238 225.044 22.6592C224.611 22.2946 224.395 21.7819 224.395 21.1211C224.395 20.4238 224.682 19.8382 225.256 19.3643C225.835 18.8903 226.555 18.6533 227.416 18.6533C227.667 18.6533 227.931 18.6875 228.209 18.7559C228.487 18.8197 228.801 18.9222 229.152 19.0635C229.161 18.9313 229.198 18.8402 229.262 18.79C229.326 18.7399 229.435 18.7148 229.59 18.7148C229.79 18.7148 229.929 18.7445 230.007 18.8037C230.084 18.863 230.132 19.0042 230.15 19.2275L230.246 20.6562V20.7246C230.246 20.8841 230.201 21.0094 230.109 21.1006C230.018 21.1872 229.891 21.2305 229.727 21.2305C229.485 21.2305 229.298 21.0618 229.166 20.7246C229.102 20.5332 229.038 20.3896 228.975 20.2939C228.824 20.0661 228.608 19.8906 228.325 19.7676C228.043 19.6445 227.721 19.583 227.361 19.583C226.81 19.583 226.361 19.7197 226.015 19.9932C225.673 20.2666 225.502 20.6243 225.502 21.0664C225.502 21.4128 225.63 21.6862 225.885 21.8867C226.145 22.0872 226.539 22.224 227.067 22.2969L228.161 22.4336C228.954 22.5384 229.551 22.7822 229.952 23.165C230.353 23.5433 230.554 24.056 230.554 24.7031C230.554 25.4688 230.269 26.084 229.699 26.5488C229.13 27.0091 228.368 27.2393 227.416 27.2393C227.088 27.2393 226.762 27.2005 226.438 27.123C226.115 27.0456 225.771 26.9248 225.406 26.7607ZM233.24 26.0361V19.0361H233.11C232.8 19.0361 232.586 18.9997 232.468 18.9268C232.354 18.8538 232.297 18.7262 232.297 18.5439C232.297 18.3799 232.342 18.2568 232.434 18.1748C232.529 18.0928 232.666 18.0518 232.844 18.0518H233.883C234.006 18.0518 234.102 18.0768 234.17 18.127C234.238 18.1771 234.272 18.2454 234.272 18.332V21.4287C234.605 21.1188 234.933 20.891 235.257 20.7451C235.585 20.5947 235.924 20.5195 236.275 20.5195C236.964 20.5195 237.504 20.7337 237.896 21.1621C238.292 21.5905 238.49 22.1829 238.49 22.9395V26.0361H238.812C239.039 26.0361 239.203 26.0749 239.304 26.1523C239.404 26.2253 239.454 26.3438 239.454 26.5078C239.454 26.6719 239.409 26.7949 239.317 26.877C239.226 26.959 239.09 27 238.907 27H237.089C236.875 27 236.729 26.9658 236.651 26.8975C236.578 26.8245 236.542 26.6947 236.542 26.5078C236.542 26.3255 236.588 26.2025 236.679 26.1387C236.774 26.0703 236.952 26.0361 237.212 26.0361H237.451V23.1924C237.451 22.6592 237.33 22.2536 237.089 21.9756C236.847 21.693 236.496 21.5518 236.036 21.5518C235.567 21.5518 235.154 21.709 234.799 22.0234C234.448 22.3379 234.272 22.7275 234.272 23.1924V26.0361H234.512C234.785 26.0361 234.97 26.0703 235.065 26.1387C235.161 26.207 235.209 26.3301 235.209 26.5078C235.209 26.6947 235.17 26.8245 235.093 26.8975C235.02 26.9658 234.876 27 234.662 27H232.844C232.666 27 232.532 26.959 232.44 26.877C232.354 26.7949 232.311 26.6719 232.311 26.5078C232.311 26.3255 232.363 26.2025 232.468 26.1387C232.577 26.0703 232.787 26.0361 233.097 26.0361H233.24ZM243.59 18.7148C243.59 18.2227 243.633 17.9128 243.72 17.7852C243.811 17.6576 244.002 17.5938 244.294 17.5938C244.576 17.5938 244.763 17.6484 244.854 17.7578C244.946 17.8626 244.991 18.1156 244.991 18.5166C244.991 18.9085 244.948 19.1523 244.861 19.248C244.779 19.3392 244.59 19.3848 244.294 19.3848C244.002 19.3848 243.811 19.3415 243.72 19.2549C243.633 19.1683 243.59 18.9883 243.59 18.7148ZM244.854 26.0361H247.049C247.227 26.0361 247.356 26.0749 247.438 26.1523C247.525 26.2253 247.568 26.3438 247.568 26.5078C247.568 26.6947 247.527 26.8245 247.445 26.8975C247.368 26.9658 247.222 27 247.008 27H241.703C241.521 27 241.384 26.959 241.293 26.877C241.202 26.7949 241.156 26.6719 241.156 26.5078C241.156 26.3483 241.204 26.2298 241.3 26.1523C241.396 26.0749 241.539 26.0361 241.73 26.0361H243.815V21.6543H242.482C242.296 21.6543 242.152 21.6133 242.052 21.5312C241.956 21.4447 241.908 21.3216 241.908 21.1621C241.908 21.0026 241.954 20.8841 242.045 20.8066C242.136 20.7246 242.273 20.6836 242.455 20.6836H244.458C244.581 20.6836 244.677 20.7087 244.745 20.7588C244.818 20.8089 244.854 20.8773 244.854 20.9639V26.0361ZM250.863 28.75H252.504C252.677 28.75 252.807 28.791 252.894 28.873C252.98 28.9551 253.023 29.0781 253.023 29.2422C253.023 29.4199 252.98 29.5452 252.894 29.6182C252.812 29.6911 252.663 29.7275 252.449 29.7275H249.435C249.252 29.7275 249.113 29.6865 249.018 29.6045C248.926 29.5225 248.881 29.4017 248.881 29.2422C248.881 29.0599 248.938 28.9323 249.052 28.8594C249.17 28.7865 249.387 28.75 249.701 28.75H249.831V21.6543H249.701C249.387 21.6543 249.17 21.6178 249.052 21.5449C248.938 21.472 248.881 21.3444 248.881 21.1621C248.881 21.0026 248.926 20.8841 249.018 20.8066C249.113 20.7246 249.252 20.6836 249.435 20.6836H250.474C250.61 20.6836 250.708 20.7064 250.768 20.752C250.831 20.7975 250.863 20.8682 250.863 20.9639V21.627C251.173 21.3079 251.515 21.0687 251.889 20.9092C252.267 20.7497 252.673 20.6699 253.105 20.6699C254.021 20.6699 254.787 20.9798 255.402 21.5996C256.018 22.2194 256.325 22.9964 256.325 23.9307C256.325 24.8285 256.034 25.5667 255.45 26.1455C254.867 26.7243 254.122 27.0137 253.215 27.0137C252.732 27.0137 252.287 26.9294 251.882 26.7607C251.476 26.5876 251.137 26.3415 250.863 26.0225V28.75ZM252.982 26.0088C253.616 26.0088 254.135 25.8105 254.541 25.4141C254.947 25.013 255.149 24.4958 255.149 23.8623C255.149 23.2425 254.944 22.7321 254.534 22.3311C254.129 21.9255 253.611 21.7227 252.982 21.7227C252.354 21.7227 251.839 21.9232 251.438 22.3242C251.036 22.7253 250.836 23.238 250.836 23.8623C250.836 24.4912 251.034 25.0062 251.431 25.4072C251.832 25.8083 252.349 26.0088 252.982 26.0088ZM262.423 18.9609C262.423 19.0566 262.345 19.264 262.19 19.583C262.04 19.8975 261.926 20.1481 261.849 20.335C261.539 21.0596 261.318 21.7227 261.186 22.3242C261.058 22.9258 260.994 23.5501 260.994 24.1973C260.994 24.7943 261.049 25.373 261.158 25.9336C261.268 26.4896 261.434 27.0456 261.657 27.6016C261.771 27.9023 261.926 28.2555 262.122 28.6611C262.323 29.0713 262.423 29.3242 262.423 29.4199C262.423 29.5202 262.4 29.5977 262.354 29.6523C262.313 29.7116 262.257 29.7412 262.184 29.7412C262.042 29.7412 261.885 29.666 261.712 29.5156C261.539 29.3698 261.338 29.1328 261.11 28.8047C260.623 28.1074 260.258 27.376 260.017 26.6104C259.775 25.8447 259.654 25.0404 259.654 24.1973C259.654 23.4271 259.752 22.6934 259.948 21.9961C260.149 21.2943 260.452 20.6152 260.857 19.959C261.122 19.526 261.366 19.2002 261.589 18.9814C261.812 18.7627 262.01 18.6533 262.184 18.6533C262.257 18.6533 262.313 18.6829 262.354 18.7422C262.4 18.7969 262.423 18.8698 262.423 18.9609ZM268.049 29.4199C268.049 29.3288 268.126 29.126 268.281 28.8115C268.436 28.5016 268.555 28.2533 268.637 28.0664C268.942 27.3372 269.161 26.6719 269.293 26.0703C269.425 25.4642 269.491 24.8398 269.491 24.1973C269.491 23.6139 269.434 23.042 269.32 22.4814C269.211 21.9163 269.042 21.3512 268.814 20.7861C268.696 20.4854 268.539 20.1322 268.343 19.7266C268.147 19.3164 268.049 19.0612 268.049 18.9609C268.049 18.8698 268.072 18.7969 268.117 18.7422C268.163 18.6829 268.222 18.6533 268.295 18.6533C268.445 18.6533 268.605 18.7285 268.773 18.8789C268.947 19.0247 269.147 19.2594 269.375 19.583C269.863 20.2757 270.227 21.0072 270.469 21.7773C270.71 22.5475 270.831 23.3542 270.831 24.1973C270.831 24.9674 270.729 25.7035 270.523 26.4053C270.323 27.1071 270.02 27.7861 269.614 28.4424C269.332 28.889 269.083 29.2171 268.869 29.4268C268.66 29.6364 268.468 29.7412 268.295 29.7412C268.222 29.7412 268.163 29.7116 268.117 29.6523C268.072 29.5931 268.049 29.5156 268.049 29.4199ZM19.0225 46.6729L14.0254 44.3896C13.8158 44.2939 13.6676 44.2005 13.5811 44.1094C13.4945 44.0137 13.4512 43.9066 13.4512 43.7881C13.4512 43.6559 13.4899 43.5511 13.5674 43.4736C13.6494 43.3962 13.7588 43.3574 13.8955 43.3574C13.9639 43.3574 14.0391 43.3711 14.1211 43.3984C14.2077 43.4212 14.3148 43.4622 14.4424 43.5215L19.877 46.0166C19.8952 46.0257 19.9225 46.0394 19.959 46.0576C20.3691 46.2399 20.5742 46.445 20.5742 46.6729C20.5742 46.8962 20.3737 47.1012 19.9727 47.2881C19.9271 47.3063 19.8952 47.32 19.877 47.3291L14.4424 49.8652L14.415 49.8789C14.1781 49.9837 14.0049 50.0361 13.8955 50.0361C13.7588 50.0361 13.6494 49.9951 13.5674 49.9131C13.4899 49.8311 13.4512 49.7217 13.4512 49.585C13.4512 49.4665 13.4945 49.3617 13.5811 49.2705C13.6676 49.1748 13.8158 49.0791 14.0254 48.9834L19.0225 46.6729ZM133.668 48.3818V50.3984C133.668 50.5807 133.629 50.7266 133.552 50.8359C133.479 50.9453 133.383 51 133.265 51H132C131.822 51 131.688 50.959 131.597 50.877C131.506 50.7949 131.46 50.6719 131.46 50.5078C131.46 50.3255 131.512 50.2025 131.617 50.1387C131.727 50.0703 131.957 50.0361 132.308 50.0361H132.636V43.0361H132.355C131.964 43.0361 131.711 43.002 131.597 42.9336C131.483 42.8607 131.426 42.7308 131.426 42.5439C131.426 42.3799 131.471 42.2568 131.562 42.1748C131.658 42.0928 131.795 42.0518 131.973 42.0518H133.278C133.401 42.0518 133.497 42.0768 133.565 42.127C133.634 42.1771 133.668 42.2454 133.668 42.332V47.2334L135.644 45.5791C135.493 45.5153 135.382 45.4447 135.309 45.3672C135.24 45.2897 135.206 45.1986 135.206 45.0938C135.206 44.957 135.256 44.8545 135.356 44.7861C135.457 44.7178 135.603 44.6836 135.794 44.6836H137.646C137.82 44.6836 137.952 44.7223 138.043 44.7998C138.134 44.8773 138.18 44.9935 138.18 45.1484C138.18 45.4219 137.959 45.5814 137.517 45.627C137.43 45.6361 137.362 45.6452 137.312 45.6543C137.125 45.6771 136.92 45.75 136.696 45.873C136.473 45.9915 136.247 46.151 136.02 46.3516L135.028 47.2197L137.619 50.0361H138.207C138.403 50.0361 138.542 50.0726 138.624 50.1455C138.711 50.2184 138.754 50.3392 138.754 50.5078C138.754 50.6673 138.706 50.7904 138.61 50.877C138.519 50.959 138.385 51 138.207 51H136.354C136.154 51 136.008 50.9658 135.917 50.8975C135.826 50.8291 135.78 50.7197 135.78 50.5693C135.78 50.4463 135.824 50.3415 135.91 50.2549C136.001 50.1637 136.136 50.0908 136.313 50.0361L134.283 47.8213L133.668 48.3818ZM143.32 50.2139C144.022 50.2139 144.596 49.9928 145.043 49.5508C145.494 49.1042 145.72 48.5368 145.72 47.8486C145.72 47.1605 145.494 46.5931 145.043 46.1465C144.592 45.6953 144.018 45.4697 143.32 45.4697C142.623 45.4697 142.049 45.6953 141.598 46.1465C141.151 46.5931 140.928 47.1605 140.928 47.8486C140.928 48.5413 141.151 49.1087 141.598 49.5508C142.044 49.9928 142.618 50.2139 143.32 50.2139ZM146.909 47.8486C146.909 48.8239 146.576 49.6214 145.911 50.2412C145.246 50.861 144.382 51.1709 143.32 51.1709C142.263 51.1709 141.402 50.861 140.736 50.2412C140.071 49.6214 139.738 48.8239 139.738 47.8486C139.738 46.8734 140.071 46.0781 140.736 45.4629C141.402 44.8431 142.263 44.5332 143.32 44.5332C144.378 44.5332 145.239 44.8431 145.904 45.4629C146.574 46.0827 146.909 46.8779 146.909 47.8486ZM151.1 42.7148C151.1 42.2227 151.143 41.9128 151.229 41.7852C151.321 41.6576 151.512 41.5938 151.804 41.5938C152.086 41.5938 152.273 41.6484 152.364 41.7578C152.455 41.8626 152.501 42.1156 152.501 42.5166C152.501 42.9085 152.458 43.1523 152.371 43.248C152.289 43.3392 152.1 43.3848 151.804 43.3848C151.512 43.3848 151.321 43.3415 151.229 43.2549C151.143 43.1683 151.1 42.9883 151.1 42.7148ZM152.364 50.0361H154.559C154.736 50.0361 154.866 50.0749 154.948 50.1523C155.035 50.2253 155.078 50.3438 155.078 50.5078C155.078 50.6947 155.037 50.8245 154.955 50.8975C154.878 50.9658 154.732 51 154.518 51H149.213C149.031 51 148.894 50.959 148.803 50.877C148.712 50.7949 148.666 50.6719 148.666 50.5078C148.666 50.3483 148.714 50.2298 148.81 50.1523C148.905 50.0749 149.049 50.0361 149.24 50.0361H151.325V45.6543H149.992C149.805 45.6543 149.662 45.6133 149.562 45.5312C149.466 45.4447 149.418 45.3216 149.418 45.1621C149.418 45.0026 149.464 44.8841 149.555 44.8066C149.646 44.7246 149.783 44.6836 149.965 44.6836H151.968C152.091 44.6836 152.187 44.7087 152.255 44.7588C152.328 44.8089 152.364 44.8773 152.364 44.9639V50.0361ZM159.508 42.7148C159.508 42.2227 159.551 41.9128 159.638 41.7852C159.729 41.6576 159.92 41.5938 160.212 41.5938C160.494 41.5938 160.681 41.6484 160.772 41.7578C160.864 41.8626 160.909 42.1156 160.909 42.5166C160.909 42.9085 160.866 43.1523 160.779 43.248C160.697 43.3392 160.508 43.3848 160.212 43.3848C159.92 43.3848 159.729 43.3415 159.638 43.2549C159.551 43.1683 159.508 42.9883 159.508 42.7148ZM160.772 50.0361H162.967C163.145 50.0361 163.274 50.0749 163.356 50.1523C163.443 50.2253 163.486 50.3438 163.486 50.5078C163.486 50.6947 163.445 50.8245 163.363 50.8975C163.286 50.9658 163.14 51 162.926 51H157.621C157.439 51 157.302 50.959 157.211 50.877C157.12 50.7949 157.074 50.6719 157.074 50.5078C157.074 50.3483 157.122 50.2298 157.218 50.1523C157.313 50.0749 157.457 50.0361 157.648 50.0361H159.733V45.6543H158.4C158.214 45.6543 158.07 45.6133 157.97 45.5312C157.874 45.4447 157.826 45.3216 157.826 45.1621C157.826 45.0026 157.872 44.8841 157.963 44.8066C158.054 44.7246 158.191 44.6836 158.373 44.6836H160.376C160.499 44.6836 160.595 44.7087 160.663 44.7588C160.736 44.8089 160.772 44.8773 160.772 44.9639V50.0361ZM167.205 49.8789C167.205 49.5234 167.328 49.2318 167.574 49.0039C167.825 48.776 168.148 48.6621 168.545 48.6621C168.951 48.6621 169.276 48.7738 169.522 48.9971C169.769 49.2204 169.892 49.5143 169.892 49.8789C169.892 50.2435 169.766 50.5374 169.516 50.7607C169.27 50.984 168.946 51.0957 168.545 51.0957C168.144 51.0957 167.82 50.984 167.574 50.7607C167.328 50.5374 167.205 50.2435 167.205 49.8789ZM176.495 43.0361H175.333C174.891 43.0361 174.613 43.002 174.499 42.9336C174.39 42.8607 174.335 42.7308 174.335 42.5439C174.335 42.3799 174.381 42.2568 174.472 42.1748C174.567 42.0928 174.704 42.0518 174.882 42.0518H177.138C177.261 42.0518 177.356 42.0768 177.425 42.127C177.493 42.1771 177.527 42.2454 177.527 42.332V50.0361H179.674C179.847 50.0361 179.972 50.0749 180.05 50.1523C180.132 50.2253 180.173 50.3438 180.173 50.5078C180.173 50.6947 180.134 50.8245 180.057 50.8975C179.979 50.9658 179.833 51 179.619 51H174.574C174.396 51 174.26 50.959 174.164 50.877C174.073 50.7949 174.027 50.6719 174.027 50.5078C174.027 50.3483 174.075 50.2298 174.171 50.1523C174.267 50.0749 174.41 50.0361 174.602 50.0361H176.495V43.0361ZM186.879 47.9785C186.628 47.8965 186.384 47.8372 186.147 47.8008C185.915 47.7598 185.683 47.7393 185.45 47.7393C184.748 47.7393 184.195 47.8577 183.789 48.0947C183.383 48.3317 183.181 48.6507 183.181 49.0518C183.181 49.3617 183.306 49.6169 183.557 49.8174C183.812 50.0179 184.135 50.1182 184.527 50.1182C185.106 50.1182 185.642 49.9678 186.134 49.667C186.631 49.3617 186.879 49.0449 186.879 48.7168V47.9785ZM186.934 50.1318C186.56 50.4691 186.152 50.7266 185.71 50.9043C185.272 51.082 184.821 51.1709 184.356 51.1709C183.677 51.1709 183.128 50.9818 182.709 50.6035C182.294 50.2253 182.087 49.7331 182.087 49.127C182.087 48.4069 182.363 47.8486 182.914 47.4521C183.47 47.0557 184.249 46.8574 185.252 46.8574C185.516 46.8574 185.783 46.8757 186.052 46.9121C186.321 46.944 186.596 46.9964 186.879 47.0693V47.0215C186.879 46.4974 186.754 46.11 186.503 45.8594C186.252 45.6087 185.863 45.4834 185.334 45.4834C184.979 45.4834 184.582 45.5791 184.145 45.7705C183.707 45.9619 183.418 46.0576 183.276 46.0576C183.144 46.0576 183.035 46.0052 182.948 45.9004C182.862 45.791 182.818 45.652 182.818 45.4834C182.818 45.2145 183.069 44.9867 183.57 44.7998C184.076 44.613 184.721 44.5195 185.505 44.5195C186.307 44.5195 186.913 44.7246 187.323 45.1348C187.733 45.5404 187.938 46.1419 187.938 46.9395V50.0361H188.273C188.597 50.0361 188.813 50.0703 188.923 50.1387C189.032 50.207 189.087 50.3301 189.087 50.5078C189.087 50.6719 189.041 50.7949 188.95 50.877C188.859 50.959 188.722 51 188.54 51H187.467C187.339 51 187.234 50.9613 187.152 50.8838C187.07 50.8063 187.016 50.6947 186.988 50.5488L186.934 50.1318ZM192.067 48.4775C192.067 49.0518 192.188 49.471 192.43 49.7354C192.671 49.9997 193.054 50.1318 193.578 50.1318C194.075 50.1318 194.499 49.9746 194.85 49.6602C195.205 49.3457 195.383 48.9515 195.383 48.4775V45.6543H194.446C194.269 45.6543 194.139 45.6178 194.057 45.5449C193.979 45.4674 193.94 45.349 193.94 45.1895C193.94 45.0163 193.984 44.8887 194.07 44.8066C194.157 44.7246 194.296 44.6836 194.487 44.6836H195.943C196.117 44.6836 196.237 44.7223 196.306 44.7998C196.379 44.8727 196.415 45.055 196.415 45.3467V50.0361H196.729C196.953 50.0361 197.112 50.0726 197.208 50.1455C197.308 50.2184 197.358 50.3392 197.358 50.5078C197.358 50.6719 197.311 50.7949 197.215 50.877C197.124 50.959 196.989 51 196.812 51H195.772C195.649 51 195.554 50.9749 195.485 50.9248C195.417 50.8747 195.383 50.8063 195.383 50.7197V50.2549C194.945 50.5921 194.569 50.8245 194.255 50.9521C193.945 51.0752 193.617 51.1367 193.271 51.1367C192.519 51.1367 191.953 50.9385 191.575 50.542C191.201 50.141 191.015 49.5371 191.015 48.7305V45.6543H190.871C190.561 45.6543 190.349 45.6178 190.235 45.5449C190.121 45.472 190.064 45.3444 190.064 45.1621C190.064 45.0026 190.108 44.8841 190.194 44.8066C190.285 44.7246 190.424 44.6836 190.611 44.6836H191.644C191.803 44.6836 191.912 44.7155 191.972 44.7793C192.035 44.8431 192.067 44.9844 192.067 45.2031V48.4775ZM199.635 50.0361V45.6543H199.505C199.195 45.6543 198.981 45.6178 198.862 45.5449C198.748 45.472 198.691 45.3444 198.691 45.1621C198.691 44.9935 198.739 44.8727 198.835 44.7998C198.931 44.7223 199.086 44.6836 199.3 44.6836H199.621H200.277C200.4 44.6836 200.496 44.7087 200.564 44.7588C200.633 44.8089 200.667 44.8773 200.667 44.9639V45.4287C201 45.1188 201.328 44.891 201.651 44.7451C201.979 44.5947 202.319 44.5195 202.67 44.5195C203.358 44.5195 203.898 44.7337 204.29 45.1621C204.687 45.5905 204.885 46.1829 204.885 46.9395V50.0361H205.206C205.434 50.0361 205.598 50.0749 205.698 50.1523C205.799 50.2253 205.849 50.3438 205.849 50.5078C205.849 50.6855 205.794 50.8132 205.685 50.8906C205.58 50.9635 205.391 51 205.117 51H203.606C203.315 51 203.128 50.9658 203.046 50.8975C202.964 50.8291 202.923 50.6992 202.923 50.5078C202.923 50.3301 202.971 50.207 203.066 50.1387C203.162 50.0703 203.342 50.0361 203.606 50.0361H203.846V47.1924C203.846 46.6592 203.725 46.2536 203.483 45.9756C203.242 45.693 202.891 45.5518 202.431 45.5518C201.966 45.5518 201.556 45.709 201.2 46.0234C200.845 46.3379 200.667 46.7275 200.667 47.1924V50.0361H200.906C201.18 50.0361 201.364 50.0703 201.46 50.1387C201.556 50.207 201.604 50.3301 201.604 50.5078C201.604 50.6992 201.562 50.8291 201.48 50.8975C201.398 50.9658 201.198 51 200.879 51H199.635H199.266C199.079 51 198.938 50.9613 198.842 50.8838C198.751 50.8018 198.705 50.6764 198.705 50.5078C198.705 50.3255 198.757 50.2025 198.862 50.1387C198.972 50.0703 199.181 50.0361 199.491 50.0361H199.635ZM212.644 45.0938V45.0664C212.644 44.916 212.687 44.8066 212.773 44.7383C212.86 44.6654 212.994 44.6289 213.177 44.6289C213.364 44.6289 213.491 44.6836 213.56 44.793C213.632 44.9023 213.669 45.1279 213.669 45.4697V46.7412C213.669 46.9098 213.626 47.0374 213.539 47.124C213.452 47.2061 213.323 47.2471 213.149 47.2471C213.026 47.2471 212.919 47.2129 212.828 47.1445C212.742 47.0716 212.634 46.9235 212.507 46.7002C212.288 46.3311 212.021 46.0531 211.707 45.8662C211.397 45.6748 211.039 45.5791 210.634 45.5791C209.923 45.5791 209.344 45.7887 208.897 46.208C208.455 46.6273 208.234 47.1696 208.234 47.835C208.234 48.514 208.446 49.07 208.87 49.5029C209.299 49.9313 209.848 50.1455 210.518 50.1455C210.823 50.1455 211.112 50.1045 211.386 50.0225C211.664 49.9359 211.926 49.8083 212.172 49.6396C212.258 49.585 212.375 49.5007 212.521 49.3867C212.817 49.1452 213.049 49.0244 213.218 49.0244C213.359 49.0244 213.473 49.07 213.56 49.1611C213.651 49.2477 213.696 49.3617 213.696 49.5029C213.696 49.863 213.354 50.2321 212.671 50.6104C211.992 50.984 211.27 51.1709 210.504 51.1709C209.515 51.1709 208.69 50.8542 208.029 50.2207C207.373 49.5872 207.045 48.7965 207.045 47.8486C207.045 46.9007 207.373 46.11 208.029 45.4766C208.686 44.8385 209.506 44.5195 210.49 44.5195C210.837 44.5195 211.183 44.5674 211.529 44.6631C211.88 44.7542 212.252 44.8978 212.644 45.0938ZM216.424 50.0361V43.0361H216.294C215.984 43.0361 215.77 42.9997 215.651 42.9268C215.537 42.8538 215.48 42.7262 215.48 42.5439C215.48 42.3799 215.526 42.2568 215.617 42.1748C215.713 42.0928 215.85 42.0518 216.027 42.0518H217.066C217.189 42.0518 217.285 42.0768 217.354 42.127C217.422 42.1771 217.456 42.2454 217.456 42.332V45.4287C217.789 45.1188 218.117 44.891 218.44 44.7451C218.769 44.5947 219.108 44.5195 219.459 44.5195C220.147 44.5195 220.687 44.7337 221.079 45.1621C221.476 45.5905 221.674 46.1829 221.674 46.9395V50.0361H221.995C222.223 50.0361 222.387 50.0749 222.487 50.1523C222.588 50.2253 222.638 50.3438 222.638 50.5078C222.638 50.6719 222.592 50.7949 222.501 50.877C222.41 50.959 222.273 51 222.091 51H220.272C220.058 51 219.912 50.9658 219.835 50.8975C219.762 50.8245 219.726 50.6947 219.726 50.5078C219.726 50.3255 219.771 50.2025 219.862 50.1387C219.958 50.0703 220.136 50.0361 220.396 50.0361H220.635V47.1924C220.635 46.6592 220.514 46.2536 220.272 45.9756C220.031 45.693 219.68 45.5518 219.22 45.5518C218.75 45.5518 218.338 45.709 217.982 46.0234C217.632 46.3379 217.456 46.7275 217.456 47.1924V50.0361H217.695C217.969 50.0361 218.153 50.0703 218.249 50.1387C218.345 50.207 218.393 50.3301 218.393 50.5078C218.393 50.6947 218.354 50.8245 218.276 50.8975C218.203 50.9658 218.06 51 217.846 51H216.027C215.85 51 215.715 50.959 215.624 50.877C215.537 50.7949 215.494 50.6719 215.494 50.5078C215.494 50.3255 215.547 50.2025 215.651 50.1387C215.761 50.0703 215.97 50.0361 216.28 50.0361H216.424ZM228.79 42.9609C228.79 43.0566 228.713 43.264 228.558 43.583C228.407 43.8975 228.293 44.1481 228.216 44.335C227.906 45.0596 227.685 45.7227 227.553 46.3242C227.425 46.9258 227.361 47.5501 227.361 48.1973C227.361 48.7943 227.416 49.373 227.525 49.9336C227.635 50.4896 227.801 51.0456 228.024 51.6016C228.138 51.9023 228.293 52.2555 228.489 52.6611C228.69 53.0713 228.79 53.3242 228.79 53.4199C228.79 53.5202 228.767 53.5977 228.722 53.6523C228.681 53.7116 228.624 53.7412 228.551 53.7412C228.41 53.7412 228.252 53.666 228.079 53.5156C227.906 53.3698 227.705 53.1328 227.478 52.8047C226.99 52.1074 226.625 51.376 226.384 50.6104C226.142 49.8447 226.021 49.0404 226.021 48.1973C226.021 47.4271 226.119 46.6934 226.315 45.9961C226.516 45.2943 226.819 44.6152 227.225 43.959C227.489 43.526 227.733 43.2002 227.956 42.9814C228.179 42.7627 228.378 42.6533 228.551 42.6533C228.624 42.6533 228.681 42.6829 228.722 42.7422C228.767 42.7969 228.79 42.8698 228.79 42.9609ZM234.416 53.4199C234.416 53.3288 234.493 53.126 234.648 52.8115C234.803 52.5016 234.922 52.2533 235.004 52.0664C235.309 51.3372 235.528 50.6719 235.66 50.0703C235.792 49.4642 235.858 48.8398 235.858 48.1973C235.858 47.6139 235.801 47.042 235.688 46.4814C235.578 45.9163 235.41 45.3512 235.182 44.7861C235.063 44.4854 234.906 44.1322 234.71 43.7266C234.514 43.3164 234.416 43.0612 234.416 42.9609C234.416 42.8698 234.439 42.7969 234.484 42.7422C234.53 42.6829 234.589 42.6533 234.662 42.6533C234.812 42.6533 234.972 42.7285 235.141 42.8789C235.314 43.0247 235.514 43.2594 235.742 43.583C236.23 44.2757 236.594 45.0072 236.836 45.7773C237.077 46.5475 237.198 47.3542 237.198 48.1973C237.198 48.9674 237.096 49.7035 236.891 50.4053C236.69 51.1071 236.387 51.7861 235.981 52.4424C235.699 52.889 235.451 53.2171 235.236 53.4268C235.027 53.6364 234.835 53.7412 234.662 53.7412C234.589 53.7412 234.53 53.7116 234.484 53.6523C234.439 53.5931 234.416 53.5156 234.416 53.4199ZM19.0225 70.6729L14.0254 68.3896C13.8158 68.2939 13.6676 68.2005 13.5811 68.1094C13.4945 68.0137 13.4512 67.9066 13.4512 67.7881C13.4512 67.6559 13.4899 67.5511 13.5674 67.4736C13.6494 67.3962 13.7588 67.3574 13.8955 67.3574C13.9639 67.3574 14.0391 67.3711 14.1211 67.3984C14.2077 67.4212 14.3148 67.4622 14.4424 67.5215L19.877 70.0166C19.8952 70.0257 19.9225 70.0394 19.959 70.0576C20.3691 70.2399 20.5742 70.445 20.5742 70.6729C20.5742 70.8962 20.3737 71.1012 19.9727 71.2881C19.9271 71.3063 19.8952 71.32 19.877 71.3291L14.4424 73.8652L14.415 73.8789C14.1781 73.9837 14.0049 74.0361 13.8955 74.0361C13.7588 74.0361 13.6494 73.9951 13.5674 73.9131C13.4899 73.8311 13.4512 73.7217 13.4512 73.585C13.4512 73.4665 13.4945 73.3617 13.5811 73.2705C13.6676 73.1748 13.8158 73.0791 14.0254 72.9834L19.0225 70.6729ZM19.0225 94.6729L14.0254 92.3896C13.8158 92.2939 13.6676 92.2005 13.5811 92.1094C13.4945 92.0137 13.4512 91.9066 13.4512 91.7881C13.4512 91.6559 13.4899 91.5511 13.5674 91.4736C13.6494 91.3962 13.7588 91.3574 13.8955 91.3574C13.9639 91.3574 14.0391 91.3711 14.1211 91.3984C14.2077 91.4212 14.3148 91.4622 14.4424 91.5215L19.877 94.0166C19.8952 94.0257 19.9225 94.0394 19.959 94.0576C20.3691 94.2399 20.5742 94.445 20.5742 94.6729C20.5742 94.8962 20.3737 95.1012 19.9727 95.2881C19.9271 95.3063 19.8952 95.32 19.877 95.3291L14.4424 97.8652L14.415 97.8789C14.1781 97.9837 14.0049 98.0361 13.8955 98.0361C13.7588 98.0361 13.6494 97.9951 13.5674 97.9131C13.4899 97.8311 13.4512 97.7217 13.4512 97.585C13.4512 97.4665 13.4945 97.3617 13.5811 97.2705C13.6676 97.1748 13.8158 97.0791 14.0254 96.9834L19.0225 94.6729Z" fill="#5ED9D1"/>
<path d="M36.0713 21.0938V21.0664C36.0713 20.916 36.1146 20.8066 36.2012 20.7383C36.2878 20.6654 36.4222 20.6289 36.6045 20.6289C36.7913 20.6289 36.9189 20.6836 36.9873 20.793C37.0602 20.9023 37.0967 21.1279 37.0967 21.4697V22.7412C37.0967 22.9098 37.0534 23.0374 36.9668 23.124C36.8802 23.2061 36.7503 23.2471 36.5771 23.2471C36.4541 23.2471 36.347 23.2129 36.2559 23.1445C36.1693 23.0716 36.0622 22.9235 35.9346 22.7002C35.7158 22.3311 35.4492 22.0531 35.1348 21.8662C34.8249 21.6748 34.4671 21.5791 34.0615 21.5791C33.3506 21.5791 32.7718 21.7887 32.3252 22.208C31.8831 22.6273 31.6621 23.1696 31.6621 23.835C31.6621 24.514 31.874 25.07 32.2979 25.5029C32.7262 25.9313 33.2754 26.1455 33.9453 26.1455C34.2507 26.1455 34.54 26.1045 34.8135 26.0225C35.0915 25.9359 35.3535 25.8083 35.5996 25.6396C35.6862 25.585 35.8024 25.5007 35.9482 25.3867C36.2445 25.1452 36.4769 25.0244 36.6455 25.0244C36.7868 25.0244 36.9007 25.07 36.9873 25.1611C37.0785 25.2477 37.124 25.3617 37.124 25.5029C37.124 25.863 36.7822 26.2321 36.0986 26.6104C35.4196 26.984 34.6973 27.1709 33.9316 27.1709C32.9427 27.1709 32.1178 26.8542 31.457 26.2207C30.8008 25.5872 30.4727 24.7965 30.4727 23.8486C30.4727 22.9007 30.8008 22.11 31.457 21.4766C32.1133 20.8385 32.9336 20.5195 33.918 20.5195C34.2643 20.5195 34.6107 20.5674 34.957 20.6631C35.3079 20.7542 35.6794 20.8978 36.0713 21.0938ZM42.4219 26.2139C43.1237 26.2139 43.6979 25.9928 44.1445 25.5508C44.5957 25.1042 44.8213 24.5368 44.8213 23.8486C44.8213 23.1605 44.5957 22.5931 44.1445 22.1465C43.6934 21.6953 43.1191 21.4697 42.4219 21.4697C41.7246 21.4697 41.1504 21.6953 40.6992 22.1465C40.2526 22.5931 40.0293 23.1605 40.0293 23.8486C40.0293 24.5413 40.2526 25.1087 40.6992 25.5508C41.1458 25.9928 41.7201 26.2139 42.4219 26.2139ZM46.0107 23.8486C46.0107 24.8239 45.6781 25.6214 45.0127 26.2412C44.3473 26.861 43.4837 27.1709 42.4219 27.1709C41.3646 27.1709 40.5033 26.861 39.8379 26.2412C39.1725 25.6214 38.8398 24.8239 38.8398 23.8486C38.8398 22.8734 39.1725 22.0781 39.8379 21.4629C40.5033 20.8431 41.3646 20.5332 42.4219 20.5332C43.4792 20.5332 44.3405 20.8431 45.0059 21.4629C45.6758 22.0827 46.0107 22.8779 46.0107 23.8486ZM48.2871 26.0361V21.6543H48.1572C47.8473 21.6543 47.6331 21.6178 47.5146 21.5449C47.4007 21.472 47.3438 21.3444 47.3438 21.1621C47.3438 20.9935 47.3916 20.8727 47.4873 20.7998C47.583 20.7223 47.738 20.6836 47.9521 20.6836H48.2734H48.9297C49.0527 20.6836 49.1484 20.7087 49.2168 20.7588C49.2852 20.8089 49.3193 20.8773 49.3193 20.9639V21.4287C49.652 21.1188 49.9801 20.891 50.3037 20.7451C50.6318 20.5947 50.9714 20.5195 51.3223 20.5195C52.0104 20.5195 52.5505 20.7337 52.9424 21.1621C53.3389 21.5905 53.5371 22.1829 53.5371 22.9395V26.0361H53.8584C54.0863 26.0361 54.2503 26.0749 54.3506 26.1523C54.4508 26.2253 54.501 26.3438 54.501 26.5078C54.501 26.6855 54.4463 26.8132 54.3369 26.8906C54.2321 26.9635 54.043 27 53.7695 27H52.2588C51.9671 27 51.7803 26.9658 51.6982 26.8975C51.6162 26.8291 51.5752 26.6992 51.5752 26.5078C51.5752 26.3301 51.623 26.207 51.7188 26.1387C51.8145 26.0703 51.9945 26.0361 52.2588 26.0361H52.498V23.1924C52.498 22.6592 52.3773 22.2536 52.1357 21.9756C51.8942 21.693 51.5433 21.5518 51.083 21.5518C50.6182 21.5518 50.208 21.709 49.8525 22.0234C49.4971 22.3379 49.3193 22.7275 49.3193 23.1924V26.0361H49.5586C49.832 26.0361 50.0166 26.0703 50.1123 26.1387C50.208 26.207 50.2559 26.3301 50.2559 26.5078C50.2559 26.6992 50.2148 26.8291 50.1328 26.8975C50.0508 26.9658 49.8503 27 49.5312 27H48.2871H47.918C47.7311 27 47.5898 26.9613 47.4941 26.8838C47.403 26.8018 47.3574 26.6764 47.3574 26.5078C47.3574 26.3255 47.4098 26.2025 47.5146 26.1387C47.624 26.0703 47.8337 26.0361 48.1436 26.0361H48.2871ZM56.2578 26.5078V25.291C56.2578 25.0905 56.2943 24.9469 56.3672 24.8604C56.4447 24.7738 56.5677 24.7305 56.7363 24.7305C56.9232 24.7305 57.0713 24.8581 57.1807 25.1133C57.2536 25.2682 57.3197 25.3844 57.3789 25.4619C57.5703 25.708 57.8529 25.9062 58.2266 26.0566C58.6003 26.2025 59.0127 26.2754 59.4639 26.2754C59.9469 26.2754 60.3343 26.1774 60.626 25.9814C60.9176 25.7855 61.0635 25.528 61.0635 25.209C61.0635 24.8854 60.945 24.6553 60.708 24.5186C60.4756 24.3818 60.0745 24.3135 59.5049 24.3135H59.1289C58.1992 24.3135 57.4906 24.1517 57.0029 23.8281C56.5153 23.5046 56.2715 23.0352 56.2715 22.4199C56.2715 21.8184 56.5085 21.3512 56.9824 21.0186C57.4609 20.6859 58.1309 20.5195 58.9922 20.5195C59.3431 20.5195 59.7008 20.5697 60.0654 20.6699C60.43 20.7656 60.6214 20.8135 60.6396 20.8135C60.6898 20.8135 60.7855 20.7702 60.9268 20.6836C61.068 20.5924 61.207 20.5469 61.3438 20.5469C61.4987 20.5469 61.6126 20.6038 61.6855 20.7178C61.763 20.8317 61.8018 21.0026 61.8018 21.2305V22.0303C61.8018 22.2718 61.7653 22.4473 61.6924 22.5566C61.6195 22.6615 61.5033 22.7139 61.3438 22.7139C61.207 22.7139 61.0384 22.5977 60.8379 22.3652C60.6966 22.2057 60.5804 22.085 60.4893 22.0029C60.2477 21.7796 59.9902 21.6201 59.7168 21.5244C59.4434 21.4242 59.1221 21.374 58.7529 21.374C58.3245 21.374 57.9782 21.4697 57.7139 21.6611C57.4541 21.848 57.3242 22.0872 57.3242 22.3789C57.3242 22.666 57.4587 22.8711 57.7275 22.9941C57.9964 23.1172 58.5752 23.1878 59.4639 23.2061C60.4118 23.2288 61.1045 23.3952 61.542 23.7051C61.9795 24.0104 62.1982 24.4844 62.1982 25.127C62.1982 25.7422 61.9567 26.2344 61.4736 26.6035C60.9906 26.9727 60.3389 27.1572 59.5186 27.1572C59.2588 27.1572 58.9694 27.1322 58.6504 27.082C58.3314 27.0365 57.9303 26.9567 57.4473 26.8428C57.2878 26.9476 57.151 27.0251 57.0371 27.0752C56.9232 27.1299 56.8275 27.1572 56.75 27.1572C56.5905 27.1572 56.4674 27.1025 56.3809 26.9932C56.2988 26.8792 56.2578 26.7174 56.2578 26.5078ZM69.5127 21.0664C69.736 21.0664 69.8978 21.1051 69.998 21.1826C70.1029 21.2601 70.1553 21.3831 70.1553 21.5518C70.1553 21.7113 70.1074 21.832 70.0117 21.9141C69.916 21.9915 69.7725 22.0303 69.5811 22.0303H66.8125V24.3135C66.8125 25.0609 66.9082 25.5531 67.0996 25.79C67.2956 26.027 67.6283 26.1455 68.0977 26.1455C68.5124 26.1455 69.0091 26.0247 69.5879 25.7832C70.1667 25.5417 70.5244 25.4209 70.6611 25.4209C70.7887 25.4209 70.8958 25.4665 70.9824 25.5576C71.0736 25.6488 71.1191 25.7604 71.1191 25.8926C71.1191 26.043 71.0622 26.1751 70.9482 26.2891C70.8389 26.3984 70.6497 26.5055 70.3809 26.6104C69.9342 26.7881 69.5309 26.918 69.1709 27C68.8154 27.082 68.4805 27.123 68.166 27.123C67.6328 27.123 67.1839 27.0387 66.8193 26.8701C66.4593 26.6969 66.1904 26.4417 66.0127 26.1045C65.9215 25.945 65.8555 25.7559 65.8145 25.5371C65.778 25.3184 65.7598 24.9811 65.7598 24.5254V24.3135V22.0303H64.5977C64.4062 22.0303 64.2673 21.9938 64.1807 21.9209C64.0941 21.8434 64.0508 21.7204 64.0508 21.5518C64.0508 21.3649 64.11 21.2373 64.2285 21.1689C64.347 21.1006 64.5999 21.0664 64.9873 21.0664H65.7598V19.665V19.3027C65.7598 19.1068 65.8008 18.9632 65.8828 18.8721C65.9694 18.7764 66.1016 18.7285 66.2793 18.7285C66.4798 18.7285 66.6188 18.7855 66.6963 18.8994C66.7738 19.0133 66.8125 19.2731 66.8125 19.6787V21.0664H69.5127ZM83.2188 24.3818V26.3984C83.2188 26.5807 83.18 26.7266 83.1025 26.8359C83.0296 26.9453 82.9339 27 82.8154 27H81.5508C81.373 27 81.2386 26.959 81.1475 26.877C81.0563 26.7949 81.0107 26.6719 81.0107 26.5078C81.0107 26.3255 81.0632 26.2025 81.168 26.1387C81.2773 26.0703 81.5075 26.0361 81.8584 26.0361H82.1865V19.0361H81.9062C81.5143 19.0361 81.2614 19.002 81.1475 18.9336C81.0335 18.8607 80.9766 18.7308 80.9766 18.5439C80.9766 18.3799 81.0221 18.2568 81.1133 18.1748C81.209 18.0928 81.3457 18.0518 81.5234 18.0518H82.8291C82.9521 18.0518 83.0479 18.0768 83.1162 18.127C83.1846 18.1771 83.2188 18.2454 83.2188 18.332V23.2334L85.1943 21.5791C85.0439 21.5153 84.9323 21.4447 84.8594 21.3672C84.791 21.2897 84.7568 21.1986 84.7568 21.0938C84.7568 20.957 84.807 20.8545 84.9072 20.7861C85.0075 20.7178 85.1533 20.6836 85.3447 20.6836H87.1973C87.3704 20.6836 87.5026 20.7223 87.5938 20.7998C87.6849 20.8773 87.7305 20.9935 87.7305 21.1484C87.7305 21.4219 87.5094 21.5814 87.0674 21.627C86.9808 21.6361 86.9124 21.6452 86.8623 21.6543C86.6755 21.6771 86.4704 21.75 86.2471 21.873C86.0238 21.9915 85.7982 22.151 85.5703 22.3516L84.5791 23.2197L87.1699 26.0361H87.7578C87.9538 26.0361 88.0928 26.0726 88.1748 26.1455C88.2614 26.2184 88.3047 26.3392 88.3047 26.5078C88.3047 26.6673 88.2568 26.7904 88.1611 26.877C88.07 26.959 87.9355 27 87.7578 27H85.9053C85.7048 27 85.5589 26.9658 85.4678 26.8975C85.3766 26.8291 85.3311 26.7197 85.3311 26.5693C85.3311 26.4463 85.3743 26.3415 85.4609 26.2549C85.5521 26.1637 85.6865 26.0908 85.8643 26.0361L83.834 23.8213L83.2188 24.3818ZM92.8711 26.2139C93.5729 26.2139 94.1471 25.9928 94.5938 25.5508C95.0449 25.1042 95.2705 24.5368 95.2705 23.8486C95.2705 23.1605 95.0449 22.5931 94.5938 22.1465C94.1426 21.6953 93.5684 21.4697 92.8711 21.4697C92.1738 21.4697 91.5996 21.6953 91.1484 22.1465C90.7018 22.5931 90.4785 23.1605 90.4785 23.8486C90.4785 24.5413 90.7018 25.1087 91.1484 25.5508C91.5951 25.9928 92.1693 26.2139 92.8711 26.2139ZM96.46 23.8486C96.46 24.8239 96.1273 25.6214 95.4619 26.2412C94.7965 26.861 93.9329 27.1709 92.8711 27.1709C91.8138 27.1709 90.9525 26.861 90.2871 26.2412C89.6217 25.6214 89.2891 24.8239 89.2891 23.8486C89.2891 22.8734 89.6217 22.0781 90.2871 21.4629C90.9525 20.8431 91.8138 20.5332 92.8711 20.5332C93.9284 20.5332 94.7897 20.8431 95.4551 21.4629C96.125 22.0827 96.46 22.8779 96.46 23.8486ZM100.65 18.7148C100.65 18.2227 100.694 17.9128 100.78 17.7852C100.871 17.6576 101.063 17.5938 101.354 17.5938C101.637 17.5938 101.824 17.6484 101.915 17.7578C102.006 17.8626 102.052 18.1156 102.052 18.5166C102.052 18.9085 102.008 19.1523 101.922 19.248C101.84 19.3392 101.651 19.3848 101.354 19.3848C101.063 19.3848 100.871 19.3415 100.78 19.2549C100.694 19.1683 100.65 18.9883 100.65 18.7148ZM101.915 26.0361H104.109C104.287 26.0361 104.417 26.0749 104.499 26.1523C104.586 26.2253 104.629 26.3438 104.629 26.5078C104.629 26.6947 104.588 26.8245 104.506 26.8975C104.428 26.9658 104.283 27 104.068 27H98.7637C98.5814 27 98.4447 26.959 98.3535 26.877C98.2624 26.7949 98.2168 26.6719 98.2168 26.5078C98.2168 26.3483 98.2646 26.2298 98.3604 26.1523C98.4561 26.0749 98.5996 26.0361 98.791 26.0361H100.876V21.6543H99.543C99.3561 21.6543 99.2126 21.6133 99.1123 21.5312C99.0166 21.4447 98.9688 21.3216 98.9688 21.1621C98.9688 21.0026 99.0143 20.8841 99.1055 20.8066C99.1966 20.7246 99.3333 20.6836 99.5156 20.6836H101.519C101.642 20.6836 101.737 20.7087 101.806 20.7588C101.879 20.8089 101.915 20.8773 101.915 20.9639V26.0361ZM109.059 18.7148C109.059 18.2227 109.102 17.9128 109.188 17.7852C109.28 17.6576 109.471 17.5938 109.763 17.5938C110.045 17.5938 110.232 17.6484 110.323 17.7578C110.414 17.8626 110.46 18.1156 110.46 18.5166C110.46 18.9085 110.417 19.1523 110.33 19.248C110.248 19.3392 110.059 19.3848 109.763 19.3848C109.471 19.3848 109.28 19.3415 109.188 19.2549C109.102 19.1683 109.059 18.9883 109.059 18.7148ZM110.323 26.0361H112.518C112.695 26.0361 112.825 26.0749 112.907 26.1523C112.994 26.2253 113.037 26.3438 113.037 26.5078C113.037 26.6947 112.996 26.8245 112.914 26.8975C112.837 26.9658 112.691 27 112.477 27H107.172C106.99 27 106.853 26.959 106.762 26.877C106.671 26.7949 106.625 26.6719 106.625 26.5078C106.625 26.3483 106.673 26.2298 106.769 26.1523C106.864 26.0749 107.008 26.0361 107.199 26.0361H109.284V21.6543H107.951C107.764 21.6543 107.621 21.6133 107.521 21.5312C107.425 21.4447 107.377 21.3216 107.377 21.1621C107.377 21.0026 107.423 20.8841 107.514 20.8066C107.605 20.7246 107.742 20.6836 107.924 20.6836H109.927C110.05 20.6836 110.146 20.7087 110.214 20.7588C110.287 20.8089 110.323 20.8773 110.323 20.9639V26.0361ZM123.441 23.3291H129.573C129.71 23.3291 129.815 23.3747 129.888 23.4658C129.965 23.5524 130.004 23.6755 130.004 23.835C130.004 23.999 129.965 24.1243 129.888 24.2109C129.815 24.2975 129.71 24.3408 129.573 24.3408H123.441C123.3 24.3408 123.191 24.2975 123.113 24.2109C123.04 24.1243 123.004 23.999 123.004 23.835C123.004 23.6709 123.04 23.5456 123.113 23.459C123.191 23.3724 123.3 23.3291 123.441 23.3291ZM123.441 21.0391H129.573C129.71 21.0391 129.815 21.0824 129.888 21.1689C129.965 21.2555 130.004 21.3786 130.004 21.5381C130.004 21.7021 129.965 21.8275 129.888 21.9141C129.815 22.0007 129.71 22.0439 129.573 22.0439H123.441C123.3 22.0439 123.191 22.0029 123.113 21.9209C123.04 21.8343 123.004 21.7067 123.004 21.5381C123.004 21.374 123.04 21.251 123.113 21.1689C123.191 21.0824 123.3 21.0391 123.441 21.0391ZM276.997 25.332C277.038 25.1816 277.086 25.0859 277.141 25.0449C277.195 25.0039 277.289 24.9834 277.421 24.9834H278.836C278.895 24.9834 278.943 24.9971 278.979 25.0244C279.021 25.0518 279.041 25.0859 279.041 25.127C279.041 25.1406 279.036 25.1657 279.027 25.2021C279.018 25.2386 279.005 25.2728 278.986 25.3047L277.223 28.9756C277.186 29.0485 277.145 29.1009 277.1 29.1328C277.059 29.1647 277.006 29.1807 276.942 29.1807C276.906 29.1807 276.876 29.1784 276.854 29.1738C276.835 29.1738 276.819 29.1715 276.806 29.167L276.354 29.0029C276.286 28.9756 276.234 28.9414 276.197 28.9004C276.165 28.8594 276.149 28.8138 276.149 28.7637C276.149 28.7454 276.149 28.7249 276.149 28.7021C276.154 28.6794 276.163 28.6429 276.177 28.5928L276.997 25.332ZM276.471 22.0986C276.471 21.7432 276.594 21.4515 276.84 21.2236C277.09 20.9958 277.414 20.8818 277.811 20.8818C278.216 20.8818 278.544 20.9958 278.795 21.2236C279.046 21.4469 279.171 21.7386 279.171 22.0986C279.171 22.4587 279.046 22.7526 278.795 22.9805C278.544 23.2038 278.216 23.3154 277.811 23.3154C277.41 23.3154 277.086 23.2038 276.84 22.9805C276.594 22.7572 276.471 22.4632 276.471 22.0986ZM36.0713 45.0938V45.0664C36.0713 44.916 36.1146 44.8066 36.2012 44.7383C36.2878 44.6654 36.4222 44.6289 36.6045 44.6289C36.7913 44.6289 36.9189 44.6836 36.9873 44.793C37.0602 44.9023 37.0967 45.1279 37.0967 45.4697V46.7412C37.0967 46.9098 37.0534 47.0374 36.9668 47.124C36.8802 47.2061 36.7503 47.2471 36.5771 47.2471C36.4541 47.2471 36.347 47.2129 36.2559 47.1445C36.1693 47.0716 36.0622 46.9235 35.9346 46.7002C35.7158 46.3311 35.4492 46.0531 35.1348 45.8662C34.8249 45.6748 34.4671 45.5791 34.0615 45.5791C33.3506 45.5791 32.7718 45.7887 32.3252 46.208C31.8831 46.6273 31.6621 47.1696 31.6621 47.835C31.6621 48.514 31.874 49.07 32.2979 49.5029C32.7262 49.9313 33.2754 50.1455 33.9453 50.1455C34.2507 50.1455 34.54 50.1045 34.8135 50.0225C35.0915 49.9359 35.3535 49.8083 35.5996 49.6396C35.6862 49.585 35.8024 49.5007 35.9482 49.3867C36.2445 49.1452 36.4769 49.0244 36.6455 49.0244C36.7868 49.0244 36.9007 49.07 36.9873 49.1611C37.0785 49.2477 37.124 49.3617 37.124 49.5029C37.124 49.863 36.7822 50.2321 36.0986 50.6104C35.4196 50.984 34.6973 51.1709 33.9316 51.1709C32.9427 51.1709 32.1178 50.8542 31.457 50.2207C30.8008 49.5872 30.4727 48.7965 30.4727 47.8486C30.4727 46.9007 30.8008 46.11 31.457 45.4766C32.1133 44.8385 32.9336 44.5195 33.918 44.5195C34.2643 44.5195 34.6107 44.5674 34.957 44.6631C35.3079 44.7542 35.6794 44.8978 36.0713 45.0938ZM42.4219 50.2139C43.1237 50.2139 43.6979 49.9928 44.1445 49.5508C44.5957 49.1042 44.8213 48.5368 44.8213 47.8486C44.8213 47.1605 44.5957 46.5931 44.1445 46.1465C43.6934 45.6953 43.1191 45.4697 42.4219 45.4697C41.7246 45.4697 41.1504 45.6953 40.6992 46.1465C40.2526 46.5931 40.0293 47.1605 40.0293 47.8486C40.0293 48.5413 40.2526 49.1087 40.6992 49.5508C41.1458 49.9928 41.7201 50.2139 42.4219 50.2139ZM46.0107 47.8486C46.0107 48.8239 45.6781 49.6214 45.0127 50.2412C44.3473 50.861 43.4837 51.1709 42.4219 51.1709C41.3646 51.1709 40.5033 50.861 39.8379 50.2412C39.1725 49.6214 38.8398 48.8239 38.8398 47.8486C38.8398 46.8734 39.1725 46.0781 39.8379 45.4629C40.5033 44.8431 41.3646 44.5332 42.4219 44.5332C43.4792 44.5332 44.3405 44.8431 45.0059 45.4629C45.6758 46.0827 46.0107 46.8779 46.0107 47.8486ZM48.2871 50.0361V45.6543H48.1572C47.8473 45.6543 47.6331 45.6178 47.5146 45.5449C47.4007 45.472 47.3438 45.3444 47.3438 45.1621C47.3438 44.9935 47.3916 44.8727 47.4873 44.7998C47.583 44.7223 47.738 44.6836 47.9521 44.6836H48.2734H48.9297C49.0527 44.6836 49.1484 44.7087 49.2168 44.7588C49.2852 44.8089 49.3193 44.8773 49.3193 44.9639V45.4287C49.652 45.1188 49.9801 44.891 50.3037 44.7451C50.6318 44.5947 50.9714 44.5195 51.3223 44.5195C52.0104 44.5195 52.5505 44.7337 52.9424 45.1621C53.3389 45.5905 53.5371 46.1829 53.5371 46.9395V50.0361H53.8584C54.0863 50.0361 54.2503 50.0749 54.3506 50.1523C54.4508 50.2253 54.501 50.3438 54.501 50.5078C54.501 50.6855 54.4463 50.8132 54.3369 50.8906C54.2321 50.9635 54.043 51 53.7695 51H52.2588C51.9671 51 51.7803 50.9658 51.6982 50.8975C51.6162 50.8291 51.5752 50.6992 51.5752 50.5078C51.5752 50.3301 51.623 50.207 51.7188 50.1387C51.8145 50.0703 51.9945 50.0361 52.2588 50.0361H52.498V47.1924C52.498 46.6592 52.3773 46.2536 52.1357 45.9756C51.8942 45.693 51.5433 45.5518 51.083 45.5518C50.6182 45.5518 50.208 45.709 49.8525 46.0234C49.4971 46.3379 49.3193 46.7275 49.3193 47.1924V50.0361H49.5586C49.832 50.0361 50.0166 50.0703 50.1123 50.1387C50.208 50.207 50.2559 50.3301 50.2559 50.5078C50.2559 50.6992 50.2148 50.8291 50.1328 50.8975C50.0508 50.9658 49.8503 51 49.5312 51H48.2871H47.918C47.7311 51 47.5898 50.9613 47.4941 50.8838C47.403 50.8018 47.3574 50.6764 47.3574 50.5078C47.3574 50.3255 47.4098 50.2025 47.5146 50.1387C47.624 50.0703 47.8337 50.0361 48.1436 50.0361H48.2871ZM56.2578 50.5078V49.291C56.2578 49.0905 56.2943 48.9469 56.3672 48.8604C56.4447 48.7738 56.5677 48.7305 56.7363 48.7305C56.9232 48.7305 57.0713 48.8581 57.1807 49.1133C57.2536 49.2682 57.3197 49.3844 57.3789 49.4619C57.5703 49.708 57.8529 49.9062 58.2266 50.0566C58.6003 50.2025 59.0127 50.2754 59.4639 50.2754C59.9469 50.2754 60.3343 50.1774 60.626 49.9814C60.9176 49.7855 61.0635 49.528 61.0635 49.209C61.0635 48.8854 60.945 48.6553 60.708 48.5186C60.4756 48.3818 60.0745 48.3135 59.5049 48.3135H59.1289C58.1992 48.3135 57.4906 48.1517 57.0029 47.8281C56.5153 47.5046 56.2715 47.0352 56.2715 46.4199C56.2715 45.8184 56.5085 45.3512 56.9824 45.0186C57.4609 44.6859 58.1309 44.5195 58.9922 44.5195C59.3431 44.5195 59.7008 44.5697 60.0654 44.6699C60.43 44.7656 60.6214 44.8135 60.6396 44.8135C60.6898 44.8135 60.7855 44.7702 60.9268 44.6836C61.068 44.5924 61.207 44.5469 61.3438 44.5469C61.4987 44.5469 61.6126 44.6038 61.6855 44.7178C61.763 44.8317 61.8018 45.0026 61.8018 45.2305V46.0303C61.8018 46.2718 61.7653 46.4473 61.6924 46.5566C61.6195 46.6615 61.5033 46.7139 61.3438 46.7139C61.207 46.7139 61.0384 46.5977 60.8379 46.3652C60.6966 46.2057 60.5804 46.085 60.4893 46.0029C60.2477 45.7796 59.9902 45.6201 59.7168 45.5244C59.4434 45.4242 59.1221 45.374 58.7529 45.374C58.3245 45.374 57.9782 45.4697 57.7139 45.6611C57.4541 45.848 57.3242 46.0872 57.3242 46.3789C57.3242 46.666 57.4587 46.8711 57.7275 46.9941C57.9964 47.1172 58.5752 47.1878 59.4639 47.2061C60.4118 47.2288 61.1045 47.3952 61.542 47.7051C61.9795 48.0104 62.1982 48.4844 62.1982 49.127C62.1982 49.7422 61.9567 50.2344 61.4736 50.6035C60.9906 50.9727 60.3389 51.1572 59.5186 51.1572C59.2588 51.1572 58.9694 51.1322 58.6504 51.082C58.3314 51.0365 57.9303 50.9567 57.4473 50.8428C57.2878 50.9476 57.151 51.0251 57.0371 51.0752C56.9232 51.1299 56.8275 51.1572 56.75 51.1572C56.5905 51.1572 56.4674 51.1025 56.3809 50.9932C56.2988 50.8792 56.2578 50.7174 56.2578 50.5078ZM67.6465 50.2139C68.3483 50.2139 68.9225 49.9928 69.3691 49.5508C69.8203 49.1042 70.0459 48.5368 70.0459 47.8486C70.0459 47.1605 69.8203 46.5931 69.3691 46.1465C68.918 45.6953 68.3438 45.4697 67.6465 45.4697C66.9492 45.4697 66.375 45.6953 65.9238 46.1465C65.4772 46.5931 65.2539 47.1605 65.2539 47.8486C65.2539 48.5413 65.4772 49.1087 65.9238 49.5508C66.3704 49.9928 66.9447 50.2139 67.6465 50.2139ZM71.2354 47.8486C71.2354 48.8239 70.9027 49.6214 70.2373 50.2412C69.5719 50.861 68.7083 51.1709 67.6465 51.1709C66.5892 51.1709 65.7279 50.861 65.0625 50.2412C64.3971 49.6214 64.0645 48.8239 64.0645 47.8486C64.0645 46.8734 64.3971 46.0781 65.0625 45.4629C65.7279 44.8431 66.5892 44.5332 67.6465 44.5332C68.7038 44.5332 69.5651 44.8431 70.2305 45.4629C70.9004 46.0827 71.2354 46.8779 71.2354 47.8486ZM75.5967 43.0361H74.4346C73.9925 43.0361 73.7145 43.002 73.6006 42.9336C73.4912 42.8607 73.4365 42.7308 73.4365 42.5439C73.4365 42.3799 73.4821 42.2568 73.5732 42.1748C73.6689 42.0928 73.8057 42.0518 73.9834 42.0518H76.2393C76.3623 42.0518 76.458 42.0768 76.5264 42.127C76.5947 42.1771 76.6289 42.2454 76.6289 42.332V50.0361H78.7754C78.9486 50.0361 79.0739 50.0749 79.1514 50.1523C79.2334 50.2253 79.2744 50.3438 79.2744 50.5078C79.2744 50.6947 79.2357 50.8245 79.1582 50.8975C79.0807 50.9658 78.9349 51 78.7207 51H73.6758C73.498 51 73.3613 50.959 73.2656 50.877C73.1745 50.7949 73.1289 50.6719 73.1289 50.5078C73.1289 50.3483 73.1768 50.2298 73.2725 50.1523C73.3682 50.0749 73.5117 50.0361 73.7031 50.0361H75.5967V43.0361ZM82.1523 48.1426C82.1888 48.7988 82.4098 49.307 82.8154 49.667C83.2256 50.0225 83.7839 50.2002 84.4902 50.2002C85.0234 50.2002 85.6045 50.0589 86.2334 49.7764C86.8623 49.4893 87.2428 49.3457 87.375 49.3457C87.5117 49.3457 87.6257 49.389 87.7168 49.4756C87.8079 49.5622 87.8535 49.6693 87.8535 49.7969C87.8535 49.929 87.8057 50.0498 87.71 50.1592C87.6143 50.2686 87.4616 50.3757 87.252 50.4805C86.7962 50.7038 86.3245 50.8747 85.8369 50.9932C85.3538 51.1117 84.873 51.1709 84.3945 51.1709C83.3555 51.1709 82.5238 50.8724 81.8994 50.2754C81.2751 49.6738 80.9629 48.8786 80.9629 47.8896C80.9629 46.8825 81.2933 46.0667 81.9541 45.4424C82.6149 44.818 83.4762 44.5059 84.5381 44.5059C85.4997 44.5059 86.2972 44.7975 86.9307 45.3809C87.5641 45.9642 87.8809 46.6706 87.8809 47.5C87.8809 47.7552 87.8262 47.9261 87.7168 48.0127C87.612 48.0993 87.3226 48.1426 86.8486 48.1426H86.7461H82.1523ZM82.1865 47.2471H86.6367C86.5684 46.7048 86.3405 46.2695 85.9531 45.9414C85.5703 45.6087 85.0986 45.4424 84.5381 45.4424C83.932 45.4424 83.4215 45.6019 83.0068 45.9209C82.5921 46.2399 82.3187 46.682 82.1865 47.2471ZM91.5312 49.8789C91.5312 49.5234 91.6543 49.2318 91.9004 49.0039C92.151 48.776 92.4746 48.6621 92.8711 48.6621C93.2767 48.6621 93.6025 48.7738 93.8486 48.9971C94.0947 49.2204 94.2178 49.5143 94.2178 49.8789C94.2178 50.2435 94.0924 50.5374 93.8418 50.7607C93.5957 50.984 93.2721 51.0957 92.8711 51.0957C92.4701 51.0957 92.1465 50.984 91.9004 50.7607C91.6543 50.5374 91.5312 50.2435 91.5312 49.8789ZM100.821 43.0361H99.6592C99.2171 43.0361 98.9391 43.002 98.8252 42.9336C98.7158 42.8607 98.6611 42.7308 98.6611 42.5439C98.6611 42.3799 98.7067 42.2568 98.7979 42.1748C98.8936 42.0928 99.0303 42.0518 99.208 42.0518H101.464C101.587 42.0518 101.683 42.0768 101.751 42.127C101.819 42.1771 101.854 42.2454 101.854 42.332V50.0361H104C104.173 50.0361 104.299 50.0749 104.376 50.1523C104.458 50.2253 104.499 50.3438 104.499 50.5078C104.499 50.6947 104.46 50.8245 104.383 50.8975C104.305 50.9658 104.16 51 103.945 51H98.9004C98.7227 51 98.5859 50.959 98.4902 50.877C98.3991 50.7949 98.3535 50.6719 98.3535 50.5078C98.3535 50.3483 98.4014 50.2298 98.4971 50.1523C98.5928 50.0749 98.7363 50.0361 98.9277 50.0361H100.821V43.0361ZM109.688 50.2139C110.389 50.2139 110.964 49.9928 111.41 49.5508C111.861 49.1042 112.087 48.5368 112.087 47.8486C112.087 47.1605 111.861 46.5931 111.41 46.1465C110.959 45.6953 110.385 45.4697 109.688 45.4697C108.99 45.4697 108.416 45.6953 107.965 46.1465C107.518 46.5931 107.295 47.1605 107.295 47.8486C107.295 48.5413 107.518 49.1087 107.965 49.5508C108.411 49.9928 108.986 50.2139 109.688 50.2139ZM113.276 47.8486C113.276 48.8239 112.944 49.6214 112.278 50.2412C111.613 50.861 110.749 51.1709 109.688 51.1709C108.63 51.1709 107.769 50.861 107.104 50.2412C106.438 49.6214 106.105 48.8239 106.105 47.8486C106.105 46.8734 106.438 46.0781 107.104 45.4629C107.769 44.8431 108.63 44.5332 109.688 44.5332C110.745 44.5332 111.606 44.8431 112.271 45.4629C112.941 46.0827 113.276 46.8779 113.276 47.8486ZM117.904 45.6953C117.307 45.6953 116.82 45.8799 116.441 46.249C116.063 46.6182 115.874 47.0967 115.874 47.6846C115.874 48.2633 116.063 48.7396 116.441 49.1133C116.82 49.4824 117.307 49.667 117.904 49.667C118.497 49.667 118.982 49.4824 119.36 49.1133C119.743 48.7396 119.935 48.2633 119.935 47.6846C119.935 47.1058 119.743 46.6296 119.36 46.2559C118.982 45.8822 118.497 45.6953 117.904 45.6953ZM120.871 50.6377C120.871 51.2757 120.839 51.7269 120.775 51.9912C120.712 52.2601 120.602 52.4948 120.447 52.6953C120.192 53.0326 119.834 53.2878 119.374 53.4609C118.914 53.6387 118.371 53.7275 117.747 53.7275C117.228 53.7275 116.847 53.6774 116.605 53.5771C116.368 53.4769 116.25 53.3174 116.25 53.0986C116.25 52.9574 116.307 52.832 116.421 52.7227C116.539 52.6178 116.678 52.5654 116.838 52.5654C116.961 52.5654 117.15 52.5814 117.405 52.6133C117.66 52.6497 117.854 52.668 117.986 52.668C118.661 52.668 119.139 52.513 119.422 52.2031C119.704 51.8932 119.846 51.3623 119.846 50.6104V49.7832C119.568 50.1068 119.26 50.3438 118.923 50.4941C118.586 50.6445 118.198 50.7197 117.761 50.7197C116.909 50.7197 116.202 50.4372 115.642 49.8721C115.086 49.3024 114.808 48.5824 114.808 47.7119C114.808 46.8369 115.095 46.1123 115.669 45.5381C116.243 44.9593 116.954 44.6699 117.802 44.6699C118.153 44.6699 118.494 44.736 118.827 44.8682C119.164 44.9958 119.504 45.1917 119.846 45.4561V44.9639C119.846 44.8682 119.875 44.7975 119.935 44.752C119.998 44.7064 120.096 44.6836 120.229 44.6836H121.261C121.443 44.6836 121.58 44.7246 121.671 44.8066C121.762 44.8841 121.808 45.0026 121.808 45.1621C121.808 45.3444 121.751 45.472 121.637 45.5449C121.523 45.6178 121.309 45.6543 120.994 45.6543H120.871V50.6377ZM127.892 42.9609C127.892 43.0566 127.814 43.264 127.659 43.583C127.509 43.8975 127.395 44.1481 127.317 44.335C127.007 45.0596 126.786 45.7227 126.654 46.3242C126.527 46.9258 126.463 47.5501 126.463 48.1973C126.463 48.7943 126.518 49.373 126.627 49.9336C126.736 50.4896 126.903 51.0456 127.126 51.6016C127.24 51.9023 127.395 52.2555 127.591 52.6611C127.791 53.0713 127.892 53.3242 127.892 53.4199C127.892 53.5202 127.869 53.5977 127.823 53.6523C127.782 53.7116 127.725 53.7412 127.652 53.7412C127.511 53.7412 127.354 53.666 127.181 53.5156C127.007 53.3698 126.807 53.1328 126.579 52.8047C126.091 52.1074 125.727 51.376 125.485 50.6104C125.244 49.8447 125.123 49.0404 125.123 48.1973C125.123 47.4271 125.221 46.6934 125.417 45.9961C125.618 45.2943 125.921 44.6152 126.326 43.959C126.59 43.526 126.834 43.2002 127.058 42.9814C127.281 42.7627 127.479 42.6533 127.652 42.6533C127.725 42.6533 127.782 42.6829 127.823 42.7422C127.869 42.7969 127.892 42.8698 127.892 42.9609ZM242.824 53.4199C242.824 53.3288 242.902 53.126 243.057 52.8115C243.212 52.5016 243.33 52.2533 243.412 52.0664C243.717 51.3372 243.936 50.6719 244.068 50.0703C244.201 49.4642 244.267 48.8398 244.267 48.1973C244.267 47.6139 244.21 47.042 244.096 46.4814C243.986 45.9163 243.818 45.3512 243.59 44.7861C243.471 44.4854 243.314 44.1322 243.118 43.7266C242.922 43.3164 242.824 43.0612 242.824 42.9609C242.824 42.8698 242.847 42.7969 242.893 42.7422C242.938 42.6829 242.997 42.6533 243.07 42.6533C243.221 42.6533 243.38 42.7285 243.549 42.8789C243.722 43.0247 243.923 43.2594 244.15 43.583C244.638 44.2757 245.003 45.0072 245.244 45.7773C245.486 46.5475 245.606 47.3542 245.606 48.1973C245.606 48.9674 245.504 49.7035 245.299 50.4053C245.098 51.1071 244.795 51.7861 244.39 52.4424C244.107 52.889 243.859 53.2171 243.645 53.4268C243.435 53.6364 243.243 53.7412 243.07 53.7412C242.997 53.7412 242.938 53.7116 242.893 53.6523C242.847 53.5931 242.824 53.5156 242.824 53.4199ZM251.772 49.332C251.813 49.1816 251.861 49.0859 251.916 49.0449C251.971 49.0039 252.064 48.9834 252.196 48.9834H253.611C253.671 48.9834 253.718 48.9971 253.755 49.0244C253.796 49.0518 253.816 49.0859 253.816 49.127C253.816 49.1406 253.812 49.1657 253.803 49.2021C253.794 49.2386 253.78 49.2728 253.762 49.3047L251.998 52.9756C251.962 53.0485 251.921 53.1009 251.875 53.1328C251.834 53.1647 251.782 53.1807 251.718 53.1807C251.681 53.1807 251.652 53.1784 251.629 53.1738C251.611 53.1738 251.595 53.1715 251.581 53.167L251.13 53.0029C251.062 52.9756 251.009 52.9414 250.973 52.9004C250.941 52.8594 250.925 52.8138 250.925 52.7637C250.925 52.7454 250.925 52.7249 250.925 52.7021C250.929 52.6794 250.938 52.6429 250.952 52.5928L251.772 49.332ZM251.246 46.0986C251.246 45.7432 251.369 45.4515 251.615 45.2236C251.866 44.9958 252.189 44.8818 252.586 44.8818C252.992 44.8818 253.32 44.9958 253.57 45.2236C253.821 45.4469 253.946 45.7386 253.946 46.0986C253.946 46.4587 253.821 46.7526 253.57 46.9805C253.32 47.2038 252.992 47.3154 252.586 47.3154C252.185 47.3154 251.861 47.2038 251.615 46.9805C251.369 46.7572 251.246 46.4632 251.246 46.0986ZM32.7695 72.3818V74.3984C32.7695 74.5807 32.7308 74.7266 32.6533 74.8359C32.5804 74.9453 32.4847 75 32.3662 75H31.1016C30.9238 75 30.7894 74.959 30.6982 74.877C30.6071 74.7949 30.5615 74.6719 30.5615 74.5078C30.5615 74.3255 30.6139 74.2025 30.7188 74.1387C30.8281 74.0703 31.0583 74.0361 31.4092 74.0361H31.7373V67.0361H31.457C31.0651 67.0361 30.8122 67.002 30.6982 66.9336C30.5843 66.8607 30.5273 66.7308 30.5273 66.5439C30.5273 66.3799 30.5729 66.2568 30.6641 66.1748C30.7598 66.0928 30.8965 66.0518 31.0742 66.0518H32.3799C32.5029 66.0518 32.5986 66.0768 32.667 66.127C32.7354 66.1771 32.7695 66.2454 32.7695 66.332V71.2334L34.7451 69.5791C34.5947 69.5153 34.4831 69.4447 34.4102 69.3672C34.3418 69.2897 34.3076 69.1986 34.3076 69.0938C34.3076 68.957 34.3577 68.8545 34.458 68.7861C34.5583 68.7178 34.7041 68.6836 34.8955 68.6836H36.748C36.9212 68.6836 37.0534 68.7223 37.1445 68.7998C37.2357 68.8773 37.2812 68.9935 37.2812 69.1484C37.2812 69.4219 37.0602 69.5814 36.6182 69.627C36.5316 69.6361 36.4632 69.6452 36.4131 69.6543C36.2262 69.6771 36.0212 69.75 35.7979 69.873C35.5745 69.9915 35.349 70.151 35.1211 70.3516L34.1299 71.2197L36.7207 74.0361H37.3086C37.5046 74.0361 37.6436 74.0726 37.7256 74.1455C37.8122 74.2184 37.8555 74.3392 37.8555 74.5078C37.8555 74.6673 37.8076 74.7904 37.7119 74.877C37.6208 74.959 37.4863 75 37.3086 75H35.4561C35.2555 75 35.1097 74.9658 35.0186 74.8975C34.9274 74.8291 34.8818 74.7197 34.8818 74.5693C34.8818 74.4463 34.9251 74.3415 35.0117 74.2549C35.1029 74.1637 35.2373 74.0908 35.415 74.0361L33.3848 71.8213L32.7695 72.3818ZM42.4219 74.2139C43.1237 74.2139 43.6979 73.9928 44.1445 73.5508C44.5957 73.1042 44.8213 72.5368 44.8213 71.8486C44.8213 71.1605 44.5957 70.5931 44.1445 70.1465C43.6934 69.6953 43.1191 69.4697 42.4219 69.4697C41.7246 69.4697 41.1504 69.6953 40.6992 70.1465C40.2526 70.5931 40.0293 71.1605 40.0293 71.8486C40.0293 72.5413 40.2526 73.1087 40.6992 73.5508C41.1458 73.9928 41.7201 74.2139 42.4219 74.2139ZM46.0107 71.8486C46.0107 72.8239 45.6781 73.6214 45.0127 74.2412C44.3473 74.861 43.4837 75.1709 42.4219 75.1709C41.3646 75.1709 40.5033 74.861 39.8379 74.2412C39.1725 73.6214 38.8398 72.8239 38.8398 71.8486C38.8398 70.8734 39.1725 70.0781 39.8379 69.4629C40.5033 68.8431 41.3646 68.5332 42.4219 68.5332C43.4792 68.5332 44.3405 68.8431 45.0059 69.4629C45.6758 70.0827 46.0107 70.8779 46.0107 71.8486ZM50.2012 66.7148C50.2012 66.2227 50.2445 65.9128 50.3311 65.7852C50.4222 65.6576 50.6136 65.5938 50.9053 65.5938C51.1878 65.5938 51.3747 65.6484 51.4658 65.7578C51.557 65.8626 51.6025 66.1156 51.6025 66.5166C51.6025 66.9085 51.5592 67.1523 51.4727 67.248C51.3906 67.3392 51.2015 67.3848 50.9053 67.3848C50.6136 67.3848 50.4222 67.3415 50.3311 67.2549C50.2445 67.1683 50.2012 66.9883 50.2012 66.7148ZM51.4658 74.0361H53.6602C53.8379 74.0361 53.9678 74.0749 54.0498 74.1523C54.1364 74.2253 54.1797 74.3438 54.1797 74.5078C54.1797 74.6947 54.1387 74.8245 54.0566 74.8975C53.9792 74.9658 53.8333 75 53.6191 75H48.3145C48.1322 75 47.9954 74.959 47.9043 74.877C47.8132 74.7949 47.7676 74.6719 47.7676 74.5078C47.7676 74.3483 47.8154 74.2298 47.9111 74.1523C48.0068 74.0749 48.1504 74.0361 48.3418 74.0361H50.4268V69.6543H49.0938C48.9069 69.6543 48.7633 69.6133 48.6631 69.5312C48.5674 69.4447 48.5195 69.3216 48.5195 69.1621C48.5195 69.0026 48.5651 68.8841 48.6562 68.8066C48.7474 68.7246 48.8841 68.6836 49.0664 68.6836H51.0693C51.1924 68.6836 51.2881 68.7087 51.3564 68.7588C51.4294 68.8089 51.4658 68.8773 51.4658 68.9639V74.0361ZM58.6094 66.7148C58.6094 66.2227 58.6527 65.9128 58.7393 65.7852C58.8304 65.6576 59.0218 65.5938 59.3135 65.5938C59.596 65.5938 59.7829 65.6484 59.874 65.7578C59.9652 65.8626 60.0107 66.1156 60.0107 66.5166C60.0107 66.9085 59.9674 67.1523 59.8809 67.248C59.7988 67.3392 59.6097 67.3848 59.3135 67.3848C59.0218 67.3848 58.8304 67.3415 58.7393 67.2549C58.6527 67.1683 58.6094 66.9883 58.6094 66.7148ZM59.874 74.0361H62.0684C62.2461 74.0361 62.376 74.0749 62.458 74.1523C62.5446 74.2253 62.5879 74.3438 62.5879 74.5078C62.5879 74.6947 62.5469 74.8245 62.4648 74.8975C62.3874 74.9658 62.2415 75 62.0273 75H56.7227C56.5404 75 56.4036 74.959 56.3125 74.877C56.2214 74.7949 56.1758 74.6719 56.1758 74.5078C56.1758 74.3483 56.2236 74.2298 56.3193 74.1523C56.415 74.0749 56.5586 74.0361 56.75 74.0361H58.835V69.6543H57.502C57.3151 69.6543 57.1715 69.6133 57.0713 69.5312C56.9756 69.4447 56.9277 69.3216 56.9277 69.1621C56.9277 69.0026 56.9733 68.8841 57.0645 68.8066C57.1556 68.7246 57.2923 68.6836 57.4746 68.6836H59.4775C59.6006 68.6836 59.6963 68.7087 59.7646 68.7588C59.8376 68.8089 59.874 68.8773 59.874 68.9639V74.0361ZM66.3066 73.8789C66.3066 73.5234 66.4297 73.2318 66.6758 73.0039C66.9264 72.776 67.25 72.6621 67.6465 72.6621C68.0521 72.6621 68.3779 72.7738 68.624 72.9971C68.8701 73.2204 68.9932 73.5143 68.9932 73.8789C68.9932 74.2435 68.8678 74.5374 68.6172 74.7607C68.3711 74.984 68.0475 75.0957 67.6465 75.0957C67.2454 75.0957 66.9219 74.984 66.6758 74.7607C66.4297 74.5374 66.3066 74.2435 66.3066 73.8789ZM201.323 73.332C201.364 73.1816 201.412 73.0859 201.467 73.0449C201.521 73.0039 201.615 72.9834 201.747 72.9834H203.162C203.221 72.9834 203.269 72.9971 203.306 73.0244C203.347 73.0518 203.367 73.0859 203.367 73.127C203.367 73.1406 203.363 73.1657 203.354 73.2021C203.344 73.2386 203.331 73.2728 203.312 73.3047L201.549 76.9756C201.512 77.0485 201.471 77.1009 201.426 77.1328C201.385 77.1647 201.332 77.1807 201.269 77.1807C201.232 77.1807 201.202 77.1784 201.18 77.1738C201.161 77.1738 201.146 77.1715 201.132 77.167L200.681 77.0029C200.612 76.9756 200.56 76.9414 200.523 76.9004C200.492 76.8594 200.476 76.8138 200.476 76.7637C200.476 76.7454 200.476 76.7249 200.476 76.7021C200.48 76.6794 200.489 76.6429 200.503 76.5928L201.323 73.332ZM200.797 70.0986C200.797 69.7432 200.92 69.4515 201.166 69.2236C201.417 68.9958 201.74 68.8818 202.137 68.8818C202.542 68.8818 202.87 68.9958 203.121 69.2236C203.372 69.4469 203.497 69.7386 203.497 70.0986C203.497 70.4587 203.372 70.7526 203.121 70.9805C202.87 71.2038 202.542 71.3154 202.137 71.3154C201.736 71.3154 201.412 71.2038 201.166 70.9805C200.92 70.7572 200.797 70.4632 200.797 70.0986Z" fill="#FFA54B"/>
<path d="M267.905 51.1846C267.805 51.4124 267.709 51.5674 267.618 51.6494C267.532 51.7314 267.427 51.7725 267.304 51.7725C267.176 51.7725 267.064 51.7246 266.969 51.6289C266.873 51.5378 266.825 51.4261 266.825 51.2939C266.825 51.2575 266.832 51.2142 266.846 51.1641C266.859 51.1185 266.878 51.0684 266.9 51.0137L271.166 41.8193C271.28 41.5824 271.38 41.4229 271.467 41.3408C271.553 41.2542 271.658 41.2109 271.781 41.2109C271.918 41.2109 272.034 41.2565 272.13 41.3477C272.226 41.4388 272.273 41.5482 272.273 41.6758C272.273 41.7122 272.267 41.7533 272.253 41.7988C272.244 41.8444 272.228 41.8877 272.205 41.9287L267.905 51.1846ZM276.313 51.1846C276.213 51.4124 276.118 51.5674 276.026 51.6494C275.94 51.7314 275.835 51.7725 275.712 51.7725C275.584 51.7725 275.473 51.7246 275.377 51.6289C275.281 51.5378 275.233 51.4261 275.233 51.2939C275.233 51.2575 275.24 51.2142 275.254 51.1641C275.268 51.1185 275.286 51.0684 275.309 51.0137L279.574 41.8193C279.688 41.5824 279.788 41.4229 279.875 41.3408C279.962 41.2542 280.066 41.2109 280.189 41.2109C280.326 41.2109 280.442 41.2565 280.538 41.3477C280.634 41.4388 280.682 41.5482 280.682 41.6758C280.682 41.7122 280.675 41.7533 280.661 41.7988C280.652 41.8444 280.636 41.8877 280.613 41.9287L276.313 51.1846ZM296.172 50.0361C296.523 50.0361 296.746 50.0703 296.842 50.1387C296.942 50.2025 296.992 50.3255 296.992 50.5078C296.992 50.6947 296.942 50.8245 296.842 50.8975C296.746 50.9658 296.55 51 296.254 51H293.007C292.711 51 292.515 50.9658 292.419 50.8975C292.323 50.8245 292.275 50.6947 292.275 50.5078C292.275 50.3255 292.328 50.2025 292.433 50.1387C292.542 50.0703 292.765 50.0361 293.103 50.0361H294.094V47.7666L291.817 43.877H291.701C291.428 43.877 291.241 43.8405 291.141 43.7676C291.04 43.6947 290.99 43.5671 290.99 43.3848C290.99 43.2161 291.031 43.0931 291.113 43.0156C291.2 42.9336 291.332 42.8926 291.51 42.8926H291.817H293.383C293.652 42.8926 293.832 42.929 293.923 43.002C294.019 43.0749 294.066 43.2025 294.066 43.3848C294.066 43.5671 294.009 43.6947 293.896 43.7676C293.786 43.8405 293.583 43.877 293.287 43.877H293.062L294.716 46.8438L296.432 43.877H296.151C295.905 43.877 295.734 43.8405 295.639 43.7676C295.543 43.6947 295.495 43.5671 295.495 43.3848C295.495 43.1934 295.536 43.0635 295.618 42.9951C295.7 42.9268 295.908 42.8926 296.24 42.8926H296.418H297.498C297.844 42.8926 298.065 42.929 298.161 43.002C298.261 43.0703 298.312 43.1979 298.312 43.3848C298.312 43.5671 298.261 43.6947 298.161 43.7676C298.065 43.8405 297.881 43.877 297.607 43.877H297.498L295.174 47.8623V50.0361H296.172ZM304.594 47.9785C304.343 47.8965 304.099 47.8372 303.862 47.8008C303.63 47.7598 303.397 47.7393 303.165 47.7393C302.463 47.7393 301.91 47.8577 301.504 48.0947C301.098 48.3317 300.896 48.6507 300.896 49.0518C300.896 49.3617 301.021 49.6169 301.271 49.8174C301.527 50.0179 301.85 50.1182 302.242 50.1182C302.821 50.1182 303.356 49.9678 303.849 49.667C304.345 49.3617 304.594 49.0449 304.594 48.7168V47.9785ZM304.648 50.1318C304.275 50.4691 303.867 50.7266 303.425 50.9043C302.987 51.082 302.536 51.1709 302.071 51.1709C301.392 51.1709 300.843 50.9818 300.424 50.6035C300.009 50.2253 299.802 49.7331 299.802 49.127C299.802 48.4069 300.077 47.8486 300.629 47.4521C301.185 47.0557 301.964 46.8574 302.967 46.8574C303.231 46.8574 303.498 46.8757 303.767 46.9121C304.035 46.944 304.311 46.9964 304.594 47.0693V47.0215C304.594 46.4974 304.468 46.11 304.218 45.8594C303.967 45.6087 303.577 45.4834 303.049 45.4834C302.693 45.4834 302.297 45.5791 301.859 45.7705C301.422 45.9619 301.132 46.0576 300.991 46.0576C300.859 46.0576 300.75 46.0052 300.663 45.9004C300.576 45.791 300.533 45.652 300.533 45.4834C300.533 45.2145 300.784 44.9867 301.285 44.7998C301.791 44.613 302.436 44.5195 303.22 44.5195C304.022 44.5195 304.628 44.7246 305.038 45.1348C305.448 45.5404 305.653 46.1419 305.653 46.9395V50.0361H305.988C306.312 50.0361 306.528 50.0703 306.638 50.1387C306.747 50.207 306.802 50.3301 306.802 50.5078C306.802 50.6719 306.756 50.7949 306.665 50.877C306.574 50.959 306.437 51 306.255 51H305.182C305.054 51 304.949 50.9613 304.867 50.8838C304.785 50.8063 304.73 50.6947 304.703 50.5488L304.648 50.1318ZM310.814 50.0361H313.084C313.262 50.0361 313.392 50.0749 313.474 50.1523C313.56 50.2253 313.604 50.3438 313.604 50.5078C313.604 50.6947 313.562 50.8245 313.48 50.8975C313.403 50.9658 313.257 51 313.043 51H308.572C308.395 51 308.26 50.959 308.169 50.877C308.078 50.7949 308.032 50.6719 308.032 50.5078C308.032 50.3483 308.078 50.2298 308.169 50.1523C308.265 50.0749 308.41 50.0361 308.606 50.0361H309.796V45.6543H309.331C308.889 45.6543 308.613 45.6201 308.504 45.5518C308.395 45.4788 308.34 45.349 308.34 45.1621C308.34 45.0026 308.383 44.8841 308.47 44.8066C308.561 44.7246 308.698 44.6836 308.88 44.6836H310.438C310.562 44.6836 310.655 44.7087 310.719 44.7588C310.783 44.8044 310.814 44.8727 310.814 44.9639V46.126C311.247 45.5837 311.699 45.1803 312.168 44.916C312.637 44.6517 313.143 44.5195 313.686 44.5195C314.091 44.5195 314.419 44.6016 314.67 44.7656C314.921 44.9297 315.046 45.1416 315.046 45.4014C315.046 45.57 314.982 45.7204 314.854 45.8525C314.731 45.9801 314.595 46.0439 314.444 46.0439C314.34 46.0439 314.162 45.9756 313.911 45.8389C313.665 45.6976 313.444 45.627 313.248 45.627C312.893 45.627 312.517 45.7546 312.12 46.0098C311.728 46.2604 311.293 46.6592 310.814 47.2061V50.0361ZM319.223 50.0361H321.492C321.67 50.0361 321.8 50.0749 321.882 50.1523C321.968 50.2253 322.012 50.3438 322.012 50.5078C322.012 50.6947 321.971 50.8245 321.889 50.8975C321.811 50.9658 321.665 51 321.451 51H316.98C316.803 51 316.668 50.959 316.577 50.877C316.486 50.7949 316.44 50.6719 316.44 50.5078C316.44 50.3483 316.486 50.2298 316.577 50.1523C316.673 50.0749 316.819 50.0361 317.015 50.0361H318.204V45.6543H317.739C317.297 45.6543 317.021 45.6201 316.912 45.5518C316.803 45.4788 316.748 45.349 316.748 45.1621C316.748 45.0026 316.791 44.8841 316.878 44.8066C316.969 44.7246 317.106 44.6836 317.288 44.6836H318.847C318.97 44.6836 319.063 44.7087 319.127 44.7588C319.191 44.8044 319.223 44.8727 319.223 44.9639V46.126C319.656 45.5837 320.107 45.1803 320.576 44.916C321.046 44.6517 321.551 44.5195 322.094 44.5195C322.499 44.5195 322.827 44.6016 323.078 44.7656C323.329 44.9297 323.454 45.1416 323.454 45.4014C323.454 45.57 323.39 45.7204 323.263 45.8525C323.14 45.9801 323.003 46.0439 322.853 46.0439C322.748 46.0439 322.57 45.9756 322.319 45.8389C322.073 45.6976 321.852 45.627 321.656 45.627C321.301 45.627 320.925 45.7546 320.528 46.0098C320.136 46.2604 319.701 46.6592 319.223 47.2061V50.0361ZM329.101 43.3574L328.861 47.7939C328.857 47.9443 328.802 48.0697 328.697 48.1699C328.592 48.2656 328.46 48.3135 328.301 48.3135C328.146 48.3135 328.016 48.2656 327.911 48.1699C327.806 48.0697 327.749 47.9443 327.74 47.7939L327.508 43.3574V43.2891C327.508 43.0247 327.578 42.8174 327.72 42.667C327.861 42.512 328.055 42.4346 328.301 42.4346C328.551 42.4346 328.747 42.512 328.889 42.667C329.03 42.8174 329.101 43.0247 329.101 43.2891V43.3574ZM327.029 50.0635C327.029 49.7445 327.146 49.4847 327.378 49.2842C327.615 49.0837 327.923 48.9834 328.301 48.9834C328.684 48.9834 328.991 49.0837 329.224 49.2842C329.461 49.4847 329.579 49.7445 329.579 50.0635C329.579 50.387 329.461 50.6514 329.224 50.8564C328.991 51.057 328.684 51.1572 328.301 51.1572C327.923 51.1572 327.615 51.0547 327.378 50.8496C327.146 50.6445 327.029 50.3825 327.029 50.0635Z" fill="#49CE8B"/>
<path d="M77.9209 69.0664C78.1442 69.0664 78.306 69.1051 78.4062 69.1826C78.5111 69.2601 78.5635 69.3831 78.5635 69.5518C78.5635 69.7113 78.5156 69.832 78.4199 69.9141C78.3242 69.9915 78.1807 70.0303 77.9893 70.0303H75.2207V72.3135C75.2207 73.0609 75.3164 73.5531 75.5078 73.79C75.7038 74.027 76.0365 74.1455 76.5059 74.1455C76.9206 74.1455 77.4173 74.0247 77.9961 73.7832C78.5749 73.5417 78.9326 73.4209 79.0693 73.4209C79.1969 73.4209 79.304 73.4665 79.3906 73.5576C79.4818 73.6488 79.5273 73.7604 79.5273 73.8926C79.5273 74.043 79.4704 74.1751 79.3564 74.2891C79.2471 74.3984 79.0579 74.5055 78.7891 74.6104C78.3424 74.7881 77.9391 74.918 77.5791 75C77.2236 75.082 76.8887 75.123 76.5742 75.123C76.041 75.123 75.5921 75.0387 75.2275 74.8701C74.8675 74.6969 74.5986 74.4417 74.4209 74.1045C74.3298 73.945 74.2637 73.7559 74.2227 73.5371C74.1862 73.3184 74.168 72.9811 74.168 72.5254V72.3135V70.0303H73.0059C72.8145 70.0303 72.6755 69.9938 72.5889 69.9209C72.5023 69.8434 72.459 69.7204 72.459 69.5518C72.459 69.3649 72.5182 69.2373 72.6367 69.1689C72.7552 69.1006 73.0081 69.0664 73.3955 69.0664H74.168V67.665V67.3027C74.168 67.1068 74.209 66.9632 74.291 66.8721C74.3776 66.7764 74.5098 66.7285 74.6875 66.7285C74.888 66.7285 75.027 66.7855 75.1045 66.8994C75.182 67.0133 75.2207 67.2731 75.2207 67.6787V69.0664H77.9209ZM85.9805 71.9785C85.7298 71.8965 85.486 71.8372 85.249 71.8008C85.0166 71.7598 84.7842 71.7393 84.5518 71.7393C83.8499 71.7393 83.2962 71.8577 82.8906 72.0947C82.485 72.3317 82.2822 72.6507 82.2822 73.0518C82.2822 73.3617 82.4076 73.6169 82.6582 73.8174C82.9134 74.0179 83.237 74.1182 83.6289 74.1182C84.2077 74.1182 84.7432 73.9678 85.2354 73.667C85.7321 73.3617 85.9805 73.0449 85.9805 72.7168V71.9785ZM86.0352 74.1318C85.6615 74.4691 85.2536 74.7266 84.8115 74.9043C84.374 75.082 83.9229 75.1709 83.458 75.1709C82.779 75.1709 82.2298 74.9818 81.8105 74.6035C81.3958 74.2253 81.1885 73.7331 81.1885 73.127C81.1885 72.4069 81.4642 71.8486 82.0156 71.4521C82.5716 71.0557 83.3509 70.8574 84.3535 70.8574C84.6178 70.8574 84.8844 70.8757 85.1533 70.9121C85.4222 70.944 85.6979 70.9964 85.9805 71.0693V71.0215C85.9805 70.4974 85.8551 70.11 85.6045 69.8594C85.3538 69.6087 84.9642 69.4834 84.4355 69.4834C84.0801 69.4834 83.6836 69.5791 83.2461 69.7705C82.8086 69.9619 82.5192 70.0576 82.3779 70.0576C82.2458 70.0576 82.1364 70.0052 82.0498 69.9004C81.9632 69.791 81.9199 69.652 81.9199 69.4834C81.9199 69.2145 82.1706 68.9867 82.6719 68.7998C83.1777 68.613 83.8226 68.5195 84.6064 68.5195C85.4085 68.5195 86.0146 68.7246 86.4248 69.1348C86.835 69.5404 87.04 70.1419 87.04 70.9395V74.0361H87.375C87.6986 74.0361 87.915 74.0703 88.0244 74.1387C88.1338 74.207 88.1885 74.3301 88.1885 74.5078C88.1885 74.6719 88.1429 74.7949 88.0518 74.877C87.9606 74.959 87.8239 75 87.6416 75H86.5684C86.4408 75 86.3359 74.9613 86.2539 74.8838C86.1719 74.8063 86.1172 74.6947 86.0898 74.5488L86.0352 74.1318ZM91.627 72.3818V74.3984C91.627 74.5807 91.5882 74.7266 91.5107 74.8359C91.4378 74.9453 91.3421 75 91.2236 75H89.959C89.7812 75 89.6468 74.959 89.5557 74.877C89.4645 74.7949 89.4189 74.6719 89.4189 74.5078C89.4189 74.3255 89.4714 74.2025 89.5762 74.1387C89.6855 74.0703 89.9157 74.0361 90.2666 74.0361H90.5947V67.0361H90.3145C89.9225 67.0361 89.6696 67.002 89.5557 66.9336C89.4417 66.8607 89.3848 66.7308 89.3848 66.5439C89.3848 66.3799 89.4303 66.2568 89.5215 66.1748C89.6172 66.0928 89.7539 66.0518 89.9316 66.0518H91.2373C91.3604 66.0518 91.4561 66.0768 91.5244 66.127C91.5928 66.1771 91.627 66.2454 91.627 66.332V71.2334L93.6025 69.5791C93.4521 69.5153 93.3405 69.4447 93.2676 69.3672C93.1992 69.2897 93.165 69.1986 93.165 69.0938C93.165 68.957 93.2152 68.8545 93.3154 68.7861C93.4157 68.7178 93.5615 68.6836 93.7529 68.6836H95.6055C95.7786 68.6836 95.9108 68.7223 96.002 68.7998C96.0931 68.8773 96.1387 68.9935 96.1387 69.1484C96.1387 69.4219 95.9176 69.5814 95.4756 69.627C95.389 69.6361 95.3206 69.6452 95.2705 69.6543C95.0837 69.6771 94.8786 69.75 94.6553 69.873C94.432 69.9915 94.2064 70.151 93.9785 70.3516L92.9873 71.2197L95.5781 74.0361H96.166C96.362 74.0361 96.501 74.0726 96.583 74.1455C96.6696 74.2184 96.7129 74.3392 96.7129 74.5078C96.7129 74.6673 96.665 74.7904 96.5693 74.877C96.4782 74.959 96.3438 75 96.166 75H94.3135C94.113 75 93.9671 74.9658 93.876 74.8975C93.7848 74.8291 93.7393 74.7197 93.7393 74.5693C93.7393 74.4463 93.7826 74.3415 93.8691 74.2549C93.9603 74.1637 94.0947 74.0908 94.2725 74.0361L92.2422 71.8213L91.627 72.3818ZM98.9688 72.1426C99.0052 72.7988 99.2262 73.307 99.6318 73.667C100.042 74.0225 100.6 74.2002 101.307 74.2002C101.84 74.2002 102.421 74.0589 103.05 73.7764C103.679 73.4893 104.059 73.3457 104.191 73.3457C104.328 73.3457 104.442 73.389 104.533 73.4756C104.624 73.5622 104.67 73.6693 104.67 73.7969C104.67 73.929 104.622 74.0498 104.526 74.1592C104.431 74.2686 104.278 74.3757 104.068 74.4805C103.613 74.7038 103.141 74.8747 102.653 74.9932C102.17 75.1117 101.689 75.1709 101.211 75.1709C100.172 75.1709 99.3402 74.8724 98.7158 74.2754C98.0915 73.6738 97.7793 72.8786 97.7793 71.8896C97.7793 70.8825 98.1097 70.0667 98.7705 69.4424C99.4313 68.818 100.293 68.5059 101.354 68.5059C102.316 68.5059 103.114 68.7975 103.747 69.3809C104.381 69.9642 104.697 70.6706 104.697 71.5C104.697 71.7552 104.643 71.9261 104.533 72.0127C104.428 72.0993 104.139 72.1426 103.665 72.1426H103.562H98.9688ZM99.0029 71.2471H103.453C103.385 70.7048 103.157 70.2695 102.77 69.9414C102.387 69.6087 101.915 69.4424 101.354 69.4424C100.748 69.4424 100.238 69.6019 99.8232 69.9209C99.4085 70.2399 99.1351 70.682 99.0029 71.2471ZM113.386 70.9395C113.386 72.1882 113.039 73.2135 112.347 74.0156C111.654 74.8132 110.768 75.2119 109.688 75.2119C108.617 75.2119 107.732 74.8109 107.035 74.0088C106.342 73.2067 105.996 72.1836 105.996 70.9395C105.996 69.6816 106.34 68.6562 107.028 67.8633C107.716 67.0658 108.603 66.667 109.688 66.667C110.768 66.667 111.654 67.068 112.347 67.8701C113.039 68.6722 113.386 69.6953 113.386 70.9395ZM109.688 74.2412C110.453 74.2412 111.055 73.9495 111.492 73.3662C111.934 72.7783 112.155 71.9694 112.155 70.9395C112.155 69.9095 111.934 69.1029 111.492 68.5195C111.055 67.9316 110.453 67.6377 109.688 67.6377C108.917 67.6377 108.313 67.9294 107.876 68.5127C107.443 69.0915 107.227 69.9004 107.227 70.9395C107.227 71.9694 107.445 72.7783 107.883 73.3662C108.325 73.9495 108.926 74.2412 109.688 74.2412ZM115.553 74.0361V69.6543H115.423C115.113 69.6543 114.899 69.6178 114.78 69.5449C114.666 69.472 114.609 69.3444 114.609 69.1621C114.609 68.9935 114.657 68.8727 114.753 68.7998C114.849 68.7223 115.004 68.6836 115.218 68.6836H115.539H116.195C116.318 68.6836 116.414 68.7087 116.482 68.7588C116.551 68.8089 116.585 68.8773 116.585 68.9639V69.4287C116.918 69.1188 117.246 68.891 117.569 68.7451C117.897 68.5947 118.237 68.5195 118.588 68.5195C119.276 68.5195 119.816 68.7337 120.208 69.1621C120.604 69.5905 120.803 70.1829 120.803 70.9395V74.0361H121.124C121.352 74.0361 121.516 74.0749 121.616 74.1523C121.716 74.2253 121.767 74.3438 121.767 74.5078C121.767 74.6855 121.712 74.8132 121.603 74.8906C121.498 74.9635 121.309 75 121.035 75H119.524C119.233 75 119.046 74.9658 118.964 74.8975C118.882 74.8291 118.841 74.6992 118.841 74.5078C118.841 74.3301 118.889 74.207 118.984 74.1387C119.08 74.0703 119.26 74.0361 119.524 74.0361H119.764V71.1924C119.764 70.6592 119.643 70.2536 119.401 69.9756C119.16 69.693 118.809 69.5518 118.349 69.5518C117.884 69.5518 117.474 69.709 117.118 70.0234C116.763 70.3379 116.585 70.7275 116.585 71.1924V74.0361H116.824C117.098 74.0361 117.282 74.0703 117.378 74.1387C117.474 74.207 117.521 74.3301 117.521 74.5078C117.521 74.6992 117.48 74.8291 117.398 74.8975C117.316 74.9658 117.116 75 116.797 75H115.553H115.184C114.997 75 114.855 74.9613 114.76 74.8838C114.669 74.8018 114.623 74.6764 114.623 74.5078C114.623 74.3255 114.675 74.2025 114.78 74.1387C114.89 74.0703 115.099 74.0361 115.409 74.0361H115.553ZM125.048 74.0361H126.565C127.422 74.0361 128.026 73.929 128.377 73.7148C128.728 73.4961 128.903 73.1361 128.903 72.6348C128.903 72.1289 128.735 71.7689 128.397 71.5547C128.065 71.3405 127.477 71.2334 126.634 71.2334H125.048V74.0361ZM125.048 70.3926H126.477C127.124 70.3926 127.602 70.29 127.912 70.085C128.227 69.8799 128.384 69.5632 128.384 69.1348C128.384 68.7292 128.243 68.4193 127.96 68.2051C127.677 67.9863 127.272 67.877 126.743 67.877H125.048V70.3926ZM126.422 75H123.359C123.2 75 123.079 74.959 122.997 74.877C122.92 74.7949 122.881 74.6719 122.881 74.5078C122.881 74.3255 122.931 74.2025 123.031 74.1387C123.132 74.0703 123.371 74.0361 123.749 74.0361H123.975V67.877H123.749C123.398 67.877 123.173 67.8428 123.072 67.7744C122.972 67.7015 122.922 67.5716 122.922 67.3848C122.922 67.2253 122.963 67.1045 123.045 67.0225C123.127 66.9359 123.245 66.8926 123.4 66.8926H126.593C127.559 66.8926 128.295 67.0817 128.801 67.46C129.307 67.8337 129.56 68.3783 129.56 69.0938C129.56 69.4538 129.482 69.7682 129.327 70.0371C129.172 70.306 128.942 70.527 128.637 70.7002C129.129 70.8779 129.493 71.1263 129.73 71.4453C129.972 71.7643 130.093 72.1699 130.093 72.6621C130.093 73.0768 129.99 73.4551 129.785 73.7969C129.58 74.1387 129.291 74.4189 128.917 74.6377C128.694 74.7653 128.445 74.8587 128.172 74.918C127.898 74.9727 127.511 75 127.01 75H126.422ZM134.283 66.7148C134.283 66.2227 134.326 65.9128 134.413 65.7852C134.504 65.6576 134.696 65.5938 134.987 65.5938C135.27 65.5938 135.457 65.6484 135.548 65.7578C135.639 65.8626 135.685 66.1156 135.685 66.5166C135.685 66.9085 135.641 67.1523 135.555 67.248C135.473 67.3392 135.284 67.3848 134.987 67.3848C134.696 67.3848 134.504 67.3415 134.413 67.2549C134.326 67.1683 134.283 66.9883 134.283 66.7148ZM135.548 74.0361H137.742C137.92 74.0361 138.05 74.0749 138.132 74.1523C138.218 74.2253 138.262 74.3438 138.262 74.5078C138.262 74.6947 138.221 74.8245 138.139 74.8975C138.061 74.9658 137.915 75 137.701 75H132.396C132.214 75 132.077 74.959 131.986 74.877C131.895 74.7949 131.85 74.6719 131.85 74.5078C131.85 74.3483 131.897 74.2298 131.993 74.1523C132.089 74.0749 132.232 74.0361 132.424 74.0361H134.509V69.6543H133.176C132.989 69.6543 132.845 69.6133 132.745 69.5312C132.649 69.4447 132.602 69.3216 132.602 69.1621C132.602 69.0026 132.647 68.8841 132.738 68.8066C132.829 68.7246 132.966 68.6836 133.148 68.6836H135.151C135.274 68.6836 135.37 68.7087 135.438 68.7588C135.511 68.8089 135.548 68.8773 135.548 68.9639V74.0361ZM143.129 69.6953C142.532 69.6953 142.044 69.8799 141.666 70.249C141.288 70.6182 141.099 71.0967 141.099 71.6846C141.099 72.2633 141.288 72.7396 141.666 73.1133C142.044 73.4824 142.532 73.667 143.129 73.667C143.721 73.667 144.207 73.4824 144.585 73.1133C144.968 72.7396 145.159 72.2633 145.159 71.6846C145.159 71.1058 144.968 70.6296 144.585 70.2559C144.207 69.8822 143.721 69.6953 143.129 69.6953ZM146.096 74.6377C146.096 75.2757 146.064 75.7269 146 75.9912C145.936 76.2601 145.827 76.4948 145.672 76.6953C145.417 77.0326 145.059 77.2878 144.599 77.4609C144.138 77.6387 143.596 77.7275 142.972 77.7275C142.452 77.7275 142.072 77.6774 141.83 77.5771C141.593 77.4769 141.475 77.3174 141.475 77.0986C141.475 76.9574 141.532 76.832 141.646 76.7227C141.764 76.6178 141.903 76.5654 142.062 76.5654C142.186 76.5654 142.375 76.5814 142.63 76.6133C142.885 76.6497 143.079 76.668 143.211 76.668C143.885 76.668 144.364 76.513 144.646 76.2031C144.929 75.8932 145.07 75.3623 145.07 74.6104V73.7832C144.792 74.1068 144.485 74.3438 144.147 74.4941C143.81 74.6445 143.423 74.7197 142.985 74.7197C142.133 74.7197 141.427 74.4372 140.866 73.8721C140.31 73.3024 140.032 72.5824 140.032 71.7119C140.032 70.8369 140.319 70.1123 140.894 69.5381C141.468 68.9593 142.179 68.6699 143.026 68.6699C143.377 68.6699 143.719 68.736 144.052 68.8682C144.389 68.9958 144.729 69.1917 145.07 69.4561V68.9639C145.07 68.8682 145.1 68.7975 145.159 68.752C145.223 68.7064 145.321 68.6836 145.453 68.6836H146.485C146.668 68.6836 146.804 68.7246 146.896 68.8066C146.987 68.8841 147.032 69.0026 147.032 69.1621C147.032 69.3444 146.975 69.472 146.861 69.5449C146.747 69.6178 146.533 69.6543 146.219 69.6543H146.096V74.6377ZM149.172 69.6543C149.163 69.9961 149.122 70.2148 149.049 70.3105C148.98 70.4017 148.844 70.4473 148.639 70.4473C148.479 70.4473 148.358 70.4062 148.276 70.3242C148.199 70.2376 148.16 70.1123 148.16 69.9482C148.16 69.9482 148.162 69.9141 148.167 69.8457C148.172 69.7728 148.174 69.6999 148.174 69.627L148.242 67.3711C148.251 67.2025 148.297 67.0817 148.379 67.0088C148.461 66.9313 148.589 66.8926 148.762 66.8926H154.702C154.875 66.8926 155.003 66.9313 155.085 67.0088C155.167 67.0817 155.21 67.2025 155.215 67.3711L155.29 69.627C155.29 69.709 155.292 69.7865 155.297 69.8594C155.301 69.9323 155.304 69.9665 155.304 69.9619C155.304 70.126 155.26 70.249 155.174 70.3311C155.087 70.4085 154.957 70.4473 154.784 70.4473C154.602 70.4473 154.477 70.4017 154.408 70.3105C154.34 70.2148 154.301 69.9961 154.292 69.6543L154.224 67.877H152.262V74.0361H153.314H153.581C153.772 74.0361 153.911 74.0749 153.998 74.1523C154.085 74.2253 154.128 74.3438 154.128 74.5078C154.128 74.6673 154.087 74.7904 154.005 74.877C153.923 74.959 153.804 75 153.649 75H149.814C149.66 75 149.541 74.959 149.459 74.877C149.377 74.7904 149.336 74.6673 149.336 74.5078C149.336 74.3392 149.379 74.2184 149.466 74.1455C149.557 74.0726 149.71 74.0361 149.924 74.0361H150.149H151.202V67.877H149.24L149.172 69.6543ZM157.826 72.1426C157.863 72.7988 158.084 73.307 158.489 73.667C158.899 74.0225 159.458 74.2002 160.164 74.2002C160.697 74.2002 161.278 74.0589 161.907 73.7764C162.536 73.4893 162.917 73.3457 163.049 73.3457C163.186 73.3457 163.299 73.389 163.391 73.4756C163.482 73.5622 163.527 73.6693 163.527 73.7969C163.527 73.929 163.479 74.0498 163.384 74.1592C163.288 74.2686 163.135 74.3757 162.926 74.4805C162.47 74.7038 161.998 74.8747 161.511 74.9932C161.028 75.1117 160.547 75.1709 160.068 75.1709C159.029 75.1709 158.198 74.8724 157.573 74.2754C156.949 73.6738 156.637 72.8786 156.637 71.8896C156.637 70.8825 156.967 70.0667 157.628 69.4424C158.289 68.818 159.15 68.5059 160.212 68.5059C161.174 68.5059 161.971 68.7975 162.604 69.3809C163.238 69.9642 163.555 70.6706 163.555 71.5C163.555 71.7552 163.5 71.9261 163.391 72.0127C163.286 72.0993 162.996 72.1426 162.522 72.1426H162.42H157.826ZM157.86 71.2471H162.311C162.242 70.7048 162.014 70.2695 161.627 69.9414C161.244 69.6087 160.772 69.4424 160.212 69.4424C159.606 69.4424 159.095 69.6019 158.681 69.9209C158.266 70.2399 157.993 70.682 157.86 71.2471ZM170.603 69.0938V69.0664C170.603 68.916 170.646 68.8066 170.732 68.7383C170.819 68.6654 170.953 68.6289 171.136 68.6289C171.323 68.6289 171.45 68.6836 171.519 68.793C171.591 68.9023 171.628 69.1279 171.628 69.4697V70.7412C171.628 70.9098 171.585 71.0374 171.498 71.124C171.411 71.2061 171.282 71.2471 171.108 71.2471C170.985 71.2471 170.878 71.2129 170.787 71.1445C170.701 71.0716 170.593 70.9235 170.466 70.7002C170.247 70.3311 169.98 70.0531 169.666 69.8662C169.356 69.6748 168.998 69.5791 168.593 69.5791C167.882 69.5791 167.303 69.7887 166.856 70.208C166.414 70.6273 166.193 71.1696 166.193 71.835C166.193 72.514 166.405 73.07 166.829 73.5029C167.257 73.9313 167.807 74.1455 168.477 74.1455C168.782 74.1455 169.071 74.1045 169.345 74.0225C169.623 73.9359 169.885 73.8083 170.131 73.6396C170.217 73.585 170.334 73.5007 170.479 73.3867C170.776 73.1452 171.008 73.0244 171.177 73.0244C171.318 73.0244 171.432 73.07 171.519 73.1611C171.61 73.2477 171.655 73.3617 171.655 73.5029C171.655 73.863 171.313 74.2321 170.63 74.6104C169.951 74.984 169.229 75.1709 168.463 75.1709C167.474 75.1709 166.649 74.8542 165.988 74.2207C165.332 73.5872 165.004 72.7965 165.004 71.8486C165.004 70.9007 165.332 70.11 165.988 69.4766C166.645 68.8385 167.465 68.5195 168.449 68.5195C168.796 68.5195 169.142 68.5674 169.488 68.6631C169.839 68.7542 170.211 68.8978 170.603 69.0938ZM174.383 74.0361V67.0361H174.253C173.943 67.0361 173.729 66.9997 173.61 66.9268C173.496 66.8538 173.439 66.7262 173.439 66.5439C173.439 66.3799 173.485 66.2568 173.576 66.1748C173.672 66.0928 173.809 66.0518 173.986 66.0518H175.025C175.148 66.0518 175.244 66.0768 175.312 66.127C175.381 66.1771 175.415 66.2454 175.415 66.332V69.4287C175.748 69.1188 176.076 68.891 176.399 68.7451C176.728 68.5947 177.067 68.5195 177.418 68.5195C178.106 68.5195 178.646 68.7337 179.038 69.1621C179.435 69.5905 179.633 70.1829 179.633 70.9395V74.0361H179.954C180.182 74.0361 180.346 74.0749 180.446 74.1523C180.547 74.2253 180.597 74.3438 180.597 74.5078C180.597 74.6719 180.551 74.7949 180.46 74.877C180.369 74.959 180.232 75 180.05 75H178.231C178.017 75 177.871 74.9658 177.794 74.8975C177.721 74.8245 177.685 74.6947 177.685 74.5078C177.685 74.3255 177.73 74.2025 177.821 74.1387C177.917 74.0703 178.095 74.0361 178.354 74.0361H178.594V71.1924C178.594 70.6592 178.473 70.2536 178.231 69.9756C177.99 69.693 177.639 69.5518 177.179 69.5518C176.709 69.5518 176.297 69.709 175.941 70.0234C175.59 70.3379 175.415 70.7275 175.415 71.1924V74.0361H175.654C175.928 74.0361 176.112 74.0703 176.208 74.1387C176.304 74.207 176.352 74.3301 176.352 74.5078C176.352 74.6947 176.313 74.8245 176.235 74.8975C176.162 74.9658 176.019 75 175.805 75H173.986C173.809 75 173.674 74.959 173.583 74.877C173.496 74.7949 173.453 74.6719 173.453 74.5078C173.453 74.3255 173.506 74.2025 173.61 74.1387C173.72 74.0703 173.929 74.0361 174.239 74.0361H174.383ZM186.749 66.9609C186.749 67.0566 186.672 67.264 186.517 67.583C186.366 67.8975 186.252 68.1481 186.175 68.335C185.865 69.0596 185.644 69.7227 185.512 70.3242C185.384 70.9258 185.32 71.5501 185.32 72.1973C185.32 72.7943 185.375 73.373 185.484 73.9336C185.594 74.4896 185.76 75.0456 185.983 75.6016C186.097 75.9023 186.252 76.2555 186.448 76.6611C186.649 77.0713 186.749 77.3242 186.749 77.4199C186.749 77.5202 186.726 77.5977 186.681 77.6523C186.64 77.7116 186.583 77.7412 186.51 77.7412C186.368 77.7412 186.211 77.666 186.038 77.5156C185.865 77.3698 185.664 77.1328 185.437 76.8047C184.949 76.1074 184.584 75.376 184.343 74.6104C184.101 73.8447 183.98 73.0404 183.98 72.1973C183.98 71.4271 184.078 70.6934 184.274 69.9961C184.475 69.2943 184.778 68.6152 185.184 67.959C185.448 67.526 185.692 67.2002 185.915 66.9814C186.138 66.7627 186.337 66.6533 186.51 66.6533C186.583 66.6533 186.64 66.6829 186.681 66.7422C186.726 66.7969 186.749 66.8698 186.749 66.9609ZM192.375 77.4199C192.375 77.3288 192.452 77.126 192.607 76.8115C192.762 76.5016 192.881 76.2533 192.963 76.0664C193.268 75.3372 193.487 74.6719 193.619 74.0703C193.751 73.4642 193.817 72.8398 193.817 72.1973C193.817 71.6139 193.76 71.042 193.646 70.4814C193.537 69.9163 193.368 69.3512 193.141 68.7861C193.022 68.4854 192.865 68.1322 192.669 67.7266C192.473 67.3164 192.375 67.0612 192.375 66.9609C192.375 66.8698 192.398 66.7969 192.443 66.7422C192.489 66.6829 192.548 66.6533 192.621 66.6533C192.771 66.6533 192.931 66.7285 193.1 66.8789C193.273 67.0247 193.473 67.2594 193.701 67.583C194.189 68.2757 194.553 69.0072 194.795 69.7773C195.036 70.5475 195.157 71.3542 195.157 72.1973C195.157 72.9674 195.055 73.7035 194.85 74.4053C194.649 75.1071 194.346 75.7861 193.94 76.4424C193.658 76.889 193.41 77.2171 193.195 77.4268C192.986 77.6364 192.794 77.7412 192.621 77.7412C192.548 77.7412 192.489 77.7116 192.443 77.6523C192.398 77.5931 192.375 77.5156 192.375 77.4199Z" fill="#FFEE81"/>
</svg>
