<svg width="118" height="99" viewBox="0 0 118 99" fill="none" xmlns="http://www.w3.org/2000/svg">
<g clip-path="url(#clip0_289_16147)">
<g style="mix-blend-mode:multiply" opacity="0.75">
<path d="M101.793 97.0126L101.795 97.013C103.628 97.5187 105.665 97.6854 107.725 97.7647L107.728 97.7648C108.727 97.8092 109.42 97.8546 110.339 98.0483C110.501 98.0797 110.625 98.1094 110.733 98.1351C110.948 98.1868 111.098 98.2226 111.358 98.2241C111.363 98.2235 111.371 98.2225 111.382 98.2209C111.412 98.2165 111.453 98.2097 111.504 98.2009C111.523 98.1977 111.542 98.1943 111.561 98.1908C111.544 98.1828 111.526 98.1747 111.508 98.1665C110.678 97.7947 109.349 97.3237 107.79 96.8189C104.682 95.8122 100.736 94.6961 98.2382 94.0066L101.793 97.0126ZM101.793 97.0126C100.013 96.527 98.5154 95.7613 96.9969 94.985M101.793 97.0126L96.9969 94.985M96.9969 94.985L96.9719 94.9721M96.9969 94.985L96.9719 94.9721M96.9719 94.9721C96.9718 94.9721 96.9716 94.972 96.9715 94.972M96.9719 94.9721L96.9715 94.972M96.9715 94.972C95.9559 94.4505 94.9402 93.9269 93.9241 93.403L93.924 93.4029C93.5644 93.2175 93.2047 93.032 92.845 92.8467C94.6846 93.0363 96.4784 93.5213 98.2381 94.0066L96.9715 94.972Z" fill="#BEF0ED" stroke="#171753"/>
<path d="M111.391 96.7829C110.762 96.4317 110.134 96.0813 109.505 95.7308L109.503 95.7299L109.503 95.7295C108.659 95.2589 107.814 94.788 106.969 94.3148C106.969 94.3147 106.969 94.3146 106.969 94.3146L106.885 94.2681C104.287 92.8223 101.706 91.3858 98.6871 90.3082C97.1201 89.7498 95.453 89.2901 93.7584 88.8333C93.6125 88.794 93.4664 88.7547 93.3202 88.7154C91.7738 88.2994 90.2105 87.8788 88.7127 87.3852L88.7119 87.3849C88.0197 87.1554 87.3377 86.912 86.6592 86.67C84.9045 86.0439 83.1734 85.4263 81.3518 85.0782C83.7451 86.0383 86.2127 86.9431 88.6801 87.8466L111.391 96.7829ZM111.391 96.7829C110.229 96.4998 109.038 96.1179 108.362 95.7622C105.951 94.4743 103.27 93.3777 100.587 92.3169L100.587 92.3166C96.6739 90.7755 92.6743 89.3057 88.6802 87.8467L111.391 96.7829Z" fill="#BEF0ED" stroke="#171753"/>
<path d="M111.265 95.442C109.636 94.1375 107.77 92.9356 105.721 91.8615L105.612 91.8044H105.603C104.874 91.425 104.137 91.0677 103.407 90.7144C102.053 90.058 100.726 89.4153 99.5339 88.6704C98.9026 88.2754 98.303 87.8486 97.6942 87.4102C97.6376 87.3695 97.5809 87.3286 97.5241 87.2876C96.9733 86.8906 96.4116 86.4858 95.8245 86.1017C95.1942 85.6894 94.5298 85.2978 93.8023 84.9553C95.0276 85.0809 96.2348 85.4126 97.2743 85.8426C98.1634 86.2103 98.9616 86.644 99.7505 87.1018C99.9919 87.2419 100.235 87.3856 100.479 87.5305C101.025 87.8536 101.581 88.1827 102.155 88.4912C103.324 89.1213 104.586 89.6834 105.847 90.2287C106.084 90.331 106.32 90.4325 106.556 90.5339C107.583 90.9757 108.6 91.4129 109.575 91.8795C111.957 93.0288 113 93.8253 113.815 95.4306C113.904 95.6062 114.057 95.8095 114.19 95.9829C114.216 96.0163 114.242 96.0496 114.267 96.0827C114.388 96.2392 114.506 96.3932 114.612 96.5468C114.628 96.5695 114.642 96.5916 114.657 96.6131C114.339 96.5305 113.947 96.425 113.539 96.3064C113.053 96.1648 112.55 96.0065 112.125 95.8482C111.681 95.6822 111.387 95.5388 111.265 95.442ZM111.265 95.442C111.265 95.4421 111.265 95.4422 111.265 95.4423L110.953 95.8326M111.265 95.442C111.265 95.4419 111.265 95.4417 111.264 95.4416L110.953 95.8326M110.953 95.8326C109.352 94.5504 107.513 93.3655 105.489 92.3044L115.273 97.2828C115.273 97.2828 111.718 96.4427 110.953 95.8326ZM114.866 97.0367C114.866 97.0367 114.866 97.0358 114.866 97.0343L114.866 97.0367Z" fill="#BEF0ED" stroke="#171753"/>
</g>
<path d="M102.637 77.9443C102.797 78.825 102.957 79.7057 103.117 80.5867L103.117 80.587C103.357 81.9042 103.597 83.2218 103.834 84.5395C104.192 86.4962 104.547 88.4055 105.382 90.1082L105.389 90.1156L105.425 90.1867C106.307 91.9341 107.677 93.3877 109.175 94.7358L109.177 94.7371C109.91 95.4023 110.416 95.9074 110.936 96.7432M102.637 77.9443L110.513 97.0086M102.637 77.9443C104.132 79.3519 105.139 81.3197 106.123 83.3116L106.123 83.312C107.332 85.7558 109.213 89.6433 110.563 92.875C111.239 94.496 111.772 95.9277 112.024 96.9236C112.123 97.3169 112.169 97.6057 112.176 97.7975M102.637 77.9443L112.176 97.7975M110.936 96.7432C110.937 96.7437 110.937 96.7442 110.937 96.7446L110.513 97.0086M110.936 96.7432C110.936 96.7428 110.936 96.7423 110.936 96.7418L110.513 97.0086M110.936 96.7432C111.002 96.8476 111.057 96.9462 111.103 97.0311C111.108 97.0402 111.113 97.0491 111.118 97.0577C111.159 97.1342 111.193 97.1955 111.229 97.2546C111.295 97.3641 111.362 97.4504 111.461 97.5319M110.513 97.0086C110.576 97.109 110.629 97.2054 110.679 97.298C110.811 97.5399 110.929 97.7566 111.19 97.9548M111.461 97.5319C111.461 97.5317 111.46 97.5315 111.46 97.5312C111.443 97.5241 111.437 97.5207 111.436 97.5206C111.436 97.5204 111.454 97.5294 111.478 97.5459L111.19 97.9548M111.461 97.5319C111.487 97.543 111.524 97.5581 111.571 97.5766C111.666 97.6138 111.788 97.6594 111.913 97.7045C112.004 97.7375 112.095 97.7697 112.176 97.7975M111.461 97.5319C111.471 97.5402 111.482 97.5485 111.493 97.5567L111.19 97.9548M111.19 97.9548L112.176 97.7975M112.162 97.9987C112.162 97.9986 112.162 97.9979 112.163 97.9966C112.162 97.998 112.162 97.9987 112.162 97.9987Z" fill="#9BE7C4" stroke="#171753"/>
<path d="M107.306 68.7614C106.535 65.3352 105.768 61.9201 105.218 58.4755C105.913 59.478 106.406 60.6329 106.805 61.8777C107.095 62.7844 107.332 63.7287 107.562 64.6886C107.608 64.8804 107.653 65.0731 107.699 65.2663C107.881 66.0338 108.065 66.8081 108.271 67.5615C108.719 69.2013 109.301 70.7988 109.876 72.3733C109.931 72.5247 109.986 72.6759 110.041 72.8269C110.67 74.5562 111.274 76.2644 111.689 78.0232C112.493 81.4469 112.573 85.0107 112.635 88.599L112.635 88.5999L112.701 92.0663L112.767 95.531C112.767 95.5313 112.767 95.5315 112.767 95.5318C112.771 95.7684 112.796 96.0533 112.824 96.3303C112.552 95.7904 112.283 95.1523 112.058 94.4999C111.74 93.5795 111.524 92.673 111.496 92.0007L111.496 92.0007C111.362 88.7724 110.819 85.5793 110.221 82.4396C109.349 77.8599 108.327 73.3081 107.307 68.7656L107.306 68.7617L107.306 68.7614Z" fill="#49CE8B" stroke="#171753"/>
<path d="M113.604 71.0519C113.687 69.6604 113.663 68.2552 113.339 66.8887C114.389 67.9445 115.037 69.488 115.297 71.0661C115.471 72.1172 115.506 73.1922 115.506 74.2962C115.506 74.6411 115.503 74.9914 115.499 75.3448C115.491 76.1084 115.484 76.886 115.511 77.6522L115.511 77.6528C115.569 79.2292 115.775 80.7862 115.999 82.3212C116.036 82.5797 116.074 82.8374 116.112 83.0944C116.301 84.3713 116.488 85.6326 116.604 86.9027L116.604 86.9041C116.747 88.428 116.759 89.6094 116.565 90.7327C116.372 91.8517 115.97 92.9405 115.254 94.2684C115.13 94.4973 115.007 94.8113 114.888 95.1213C114.868 95.175 114.847 95.2291 114.827 95.2835C114.722 95.5573 114.616 95.8383 114.5 96.1087C114.373 96.4045 114.244 96.665 114.113 96.8673C113.987 96.5359 113.829 96.1067 113.678 95.6463C113.511 95.1391 113.353 94.6027 113.25 94.1218C113.143 93.6234 113.109 93.2466 113.143 93.0289L113.144 93.0283C113.571 90.3319 113.714 87.6004 113.58 84.8698L113.557 84.3942H113.544C113.493 83.5817 113.421 82.7679 113.349 81.9621C113.313 81.5587 113.278 81.1573 113.245 80.7591C113.133 79.4005 113.054 78.0606 113.105 76.7252L113.105 76.7246C113.14 75.8067 113.235 74.8729 113.337 73.9215C113.346 73.834 113.356 73.7462 113.365 73.6583C113.458 72.7967 113.552 71.9208 113.604 71.0519Z" fill="#087980" stroke="#171753"/>
<g style="mix-blend-mode:multiply" opacity="0.75">
<path d="M60.1792 41.7024C59.2717 41.5183 58.582 41.4637 57.5838 41.4278C55.6791 41.3539 53.793 41.2038 52.0736 40.7803V40.7755L51.7042 40.6755C49.932 40.196 48.4362 39.4332 46.9194 38.6532L46.9191 38.653C45.9122 38.136 44.9052 37.6167 43.8978 37.0971L43.8976 37.097C43.5502 36.9179 43.2028 36.7387 42.8553 36.5596C44.6666 36.7497 46.4348 37.2231 48.1762 37.705L48.1764 37.7051C50.6568 38.3902 54.5695 39.4953 57.652 40.4921C59.1979 40.992 60.515 41.4583 61.3372 41.8266C61.3504 41.8325 61.3634 41.8383 61.3762 41.8442C61.3615 41.8468 61.3472 41.8494 61.3334 41.8519C61.2481 41.8672 61.1986 41.8752 61.1788 41.8783C60.9291 41.8757 60.777 41.8392 60.5609 41.7874C60.4553 41.762 60.3343 41.733 60.1792 41.7024ZM60.1792 41.7024C60.1797 41.7025 60.1802 41.7027 60.1807 41.7028L60.0813 42.1928L60.1777 41.7022C60.1782 41.7023 60.1787 41.7023 60.1792 41.7024Z" fill="#BEF0ED" stroke="#171753"/>
<path d="M61.8869 40.8164C62.1004 40.9365 62.3896 41.0727 62.6525 41.1966L62.6751 41.2072C62.7249 41.2307 62.7736 41.2536 62.8209 41.276C62.8552 41.2812 62.8892 41.2861 62.9228 41.2908C63.0836 41.3138 63.2198 41.3306 63.334 41.3418C63.332 41.3191 63.3316 41.2947 63.3334 41.2689C63.3411 41.159 63.3808 41.0765 63.4282 41.016C63.2986 40.9495 63.1481 40.8776 62.9924 40.804C62.9921 40.8039 62.9918 40.8038 62.9916 40.8036C62.9834 40.7998 62.9753 40.796 62.9672 40.7921C62.669 40.7494 62.3406 40.6907 61.9979 40.6197M61.8869 40.8164C61.8874 40.8167 61.8878 40.8169 61.8882 40.8171L61.9979 40.6197M61.8869 40.8164C61.8865 40.8162 61.8861 40.8159 61.8856 40.8157L61.9962 40.6194M61.8869 40.8164C61.6623 40.6917 61.4376 40.5667 61.2127 40.4417C61.4773 40.5067 61.7407 40.5664 61.9962 40.6194M61.9979 40.6197C61.9973 40.6196 61.9968 40.6195 61.9962 40.6194M61.9979 40.6197L62.131 40.38L61.9962 40.6194M50.5242 36.0326L50.5245 36.0327C53.1121 37.0489 55.6963 38.1068 58.0407 39.3425L50.5242 36.0326ZM50.5242 36.0326C46.6385 34.5094 42.6747 33.0486 38.7247 31.5985L38.7244 31.5984M50.5242 36.0326L38.7244 31.5984M38.7244 31.5984C36.2937 30.7078 33.8667 29.8157 31.5137 28.8725M38.7244 31.5984L31.5137 28.8725M31.5137 28.8725C33.2858 29.2167 34.9732 29.8164 36.6834 30.4242C37.3714 30.6688 38.0631 30.9146 38.7655 31.1457M31.5137 28.8725L38.7655 31.1457M38.7655 31.1457C40.2516 31.6367 41.8055 32.0543 43.3429 32.4674C43.4834 32.5051 43.6238 32.5428 43.7639 32.5806C45.4443 33.0329 47.0979 33.4881 48.6515 34.0421C51.6686 35.1226 54.256 36.5614 56.8637 38.0135L38.7655 31.1457Z" fill="#BEF0ED" stroke="#171753"/>
<path d="M55.5962 35.5818L55.5972 35.5777C54.8385 35.18 54.0699 34.8077 53.3104 34.4398C51.9674 33.7892 50.6528 33.1524 49.4719 32.4134C48.8447 32.0206 48.2499 31.5969 47.6464 31.1623C47.5927 31.1237 47.5389 31.085 47.4851 31.0462C46.9368 30.651 46.378 30.2482 45.7936 29.8664C45.1794 29.4651 44.5327 29.0839 43.8256 28.7493C45.027 28.8762 46.2075 29.2005 47.2201 29.6205C48.0961 29.9838 48.8856 30.4131 49.6679 30.8676C49.9119 31.0093 50.1574 31.1549 50.4053 31.3018C50.9428 31.6205 51.4911 31.9456 52.0568 32.2513L52.0572 32.2515C53.2172 32.8772 54.4707 33.435 55.722 33.9759C55.9487 34.0739 56.1751 34.1712 56.401 34.2683C57.4284 34.7101 58.4443 35.1469 59.4156 35.6135C61.7703 36.7446 62.8052 37.541 63.6116 39.1296L63.613 39.1323C63.7018 39.3045 63.8546 39.505 63.9865 39.676C64.0092 39.7055 64.032 39.7349 64.0546 39.7642C64.1769 39.9222 64.2976 40.0781 64.4042 40.2332C64.4187 40.2542 64.4324 40.2747 64.4456 40.2946C64.1313 40.2129 63.7442 40.1088 63.3415 39.9916C62.8588 39.8512 62.3603 39.6941 61.9399 39.5366C61.4984 39.3713 61.2082 39.2286 61.0897 39.133L61.0881 39.1317C59.4708 37.8385 57.6338 36.6466 55.5962 35.5818ZM64.6549 40.7162C64.6548 40.7162 64.6548 40.7155 64.6547 40.7141L64.6549 40.7162Z" fill="#BEF0ED" stroke="#171753"/>
</g>
<path d="M53.7301 28.3214L53.7277 28.3086C53.7277 28.3085 53.7277 28.3084 53.7277 28.3083C53.4902 27.0043 53.2527 25.6982 53.0152 24.392L53.0151 24.3915L53.015 24.3906C52.8573 23.5233 52.6996 22.6559 52.5419 21.7892C54.0164 23.1844 55.0089 25.1265 55.9905 27.0997C57.1907 29.5212 59.0563 33.3753 60.3935 36.5791C61.0642 38.1862 61.5917 39.6054 61.8401 40.5921C61.9373 40.9783 61.982 41.2621 61.9892 41.4514C61.9109 41.4244 61.8225 41.3935 61.734 41.3618C61.6097 41.3172 61.4887 41.2724 61.3955 41.2354C61.3494 41.2171 61.3145 41.2025 61.2912 41.1919C61.1864 41.1075 61.118 41.0203 61.0503 40.9108C61.0133 40.8509 60.9788 40.7883 60.9353 40.7095L60.9252 40.6912C60.8788 40.6071 60.8244 40.5092 60.7587 40.4051C60.24 39.5806 59.7447 39.0764 59.0074 38.4166C57.6728 37.2093 56.4308 35.9262 55.5599 34.4156L55.301 33.9029C54.4437 32.2049 54.0925 30.2939 53.7301 28.3214ZM61.9755 41.6539C61.9755 41.6538 61.9757 41.653 61.9763 41.6516C61.9758 41.6532 61.9755 41.6539 61.9755 41.6539ZM61.0132 41.6092C60.7502 41.4093 60.6322 41.1952 60.4988 40.9534C60.4493 40.8636 60.3977 40.77 60.3358 40.6719C59.8519 39.9026 59.3944 39.4339 58.673 38.7884L61.0132 41.6092ZM61.2694 41.1814C61.2695 41.1814 61.2714 41.1823 61.2745 41.1841C61.2709 41.1823 61.2693 41.1814 61.2694 41.1814Z" fill="#9BE7C4" stroke="#171753"/>
<path d="M57.1816 12.6812C56.4197 9.2921 55.6619 5.91379 55.114 2.50611C55.7984 3.49661 56.2845 4.6354 56.6773 5.86248C56.9648 6.76088 57.1993 7.69657 57.4268 8.64825C57.4724 8.83886 57.5177 9.03035 57.5632 9.2223C57.7434 9.98316 57.9252 10.7511 58.1294 11.4989L58.1294 11.4989C58.5728 13.122 59.1513 14.7048 59.7214 16.2645C59.7764 16.4151 59.8314 16.5656 59.8862 16.7158C60.5111 18.4298 61.1108 20.1223 61.5211 21.8632L61.5212 21.8636C62.325 25.2602 62.3963 28.7876 62.458 32.3507L62.458 32.3516L62.59 39.2208C62.59 39.221 62.59 39.2212 62.59 39.2214C62.5937 39.4516 62.6179 39.7277 62.6447 39.9971C62.3784 39.4657 62.1145 38.8374 61.8933 38.1945C61.5787 37.2807 61.3651 36.3806 61.3372 35.7168C61.2036 32.5123 60.6697 29.3518 60.0705 26.2347C59.1979 21.6898 58.1933 17.1817 57.1816 12.6812L57.1816 12.6812Z" fill="#49CE8B" stroke="#171753"/>
<path d="M63.1564 10.8279C63.473 12.1793 63.4959 13.5691 63.414 14.9461C63.3628 15.8074 63.2696 16.6761 63.1779 17.5308C63.1685 17.6179 63.1592 17.7048 63.1499 17.7916C63.0491 18.7354 62.9552 19.6621 62.9208 20.5737L62.9207 20.5743C62.8692 21.8961 62.9485 23.2248 63.0602 24.5723C63.093 24.9679 63.1288 25.3668 63.1647 25.7675C63.2503 26.7216 63.3368 27.6866 63.3867 28.6463L63.1564 10.8279ZM63.1564 10.8279C64.1928 11.8714 64.8257 13.3963 65.0863 14.9684L65.0864 14.9687C65.2599 16.0107 65.2952 17.0744 65.2952 18.1672C65.2952 18.5084 65.2916 18.8551 65.2881 19.2049C65.2804 19.9612 65.2725 20.7321 65.2999 21.4924L65.2999 21.493C65.3582 23.056 65.5618 24.5995 65.7832 26.1214C65.8211 26.3823 65.8595 26.6423 65.8979 26.9017C66.0842 28.1629 66.2684 29.4088 66.3838 30.6636C66.5229 32.175 66.5344 33.3455 66.3428 34.458C66.152 35.5659 65.7549 36.6436 65.0432 37.9579L65.0424 37.9592C64.9209 38.1853 64.7996 38.4963 64.6824 38.8035C64.6637 38.8527 64.6449 38.9022 64.626 38.952C64.5216 39.2269 64.4142 39.5098 64.2975 39.7817C64.1729 40.0721 64.0467 40.3283 63.9178 40.5281C63.7928 40.2013 63.638 39.7797 63.4886 39.3278C63.3226 38.8257 63.1662 38.2946 63.0638 37.8184C62.9577 37.3248 62.9241 36.952 62.9587 36.7369L62.9588 36.7364C63.3867 34.0663 63.5293 31.3518 63.3867 28.6464L63.1564 10.8279Z" fill="#087980" stroke="#171753"/>
<path d="M76.2936 45.1455L89.2882 42.8275L92.7461 55.6696L75.3863 58.4367L76.2936 45.1455Z" fill="#171753" stroke="#171753"/>
<path d="M89.4882 41.7759L75.9136 44.1973L65.8089 38.3062L71.74 31.0331L84.1333 27.1984L92.0403 28.8257L96.8517 31.8232L96.5133 38.1313L89.4882 41.7759Z" fill="#BEF0ED" stroke="#171753"/>
<path d="M74.405 58.1241L62.3236 49.8794L65.3571 39.2L75.301 44.9974L74.405 58.1241Z" fill="#171753" stroke="#171753"/>
<path d="M90.2398 42.5132L96.8753 39.0708L104.971 48.6086L93.6853 55.3094L90.2398 42.5132Z" fill="#8989C7" stroke="#171753"/>
<path d="M97.508 38.2716L97.8178 32.4952L105.234 37.8331V47.3747L97.508 38.2716Z" fill="#8989C7" stroke="#171753"/>
<g style="mix-blend-mode:multiply" opacity="0.75">
<path d="M72.2009 63.8738L58.6179 66.2865L48.513 60.3953L54.4441 53.1222L66.8374 49.2875L74.7444 50.9148L79.5558 53.9124L79.2174 60.2209L72.2009 63.8738Z" fill="#BEF0ED"/>
<path d="M72.2009 63.8738L58.6179 66.2865L48.513 60.3953L54.4441 53.1222L66.8374 49.2875L74.7444 50.9148L79.5558 53.9124L79.2174 60.2209L72.2009 63.8738Z" stroke="#171753"/>
</g>
<g style="mix-blend-mode:multiply" opacity="0.75">
<path d="M29.9139 61.2348L29.959 61.2379L30.0039 61.2329L42.5006 59.8373L50.1615 64.6035L49.6195 74.8451L32.528 84.8333L17.0324 84.4857L0.84191 75.0526L17.0701 60.3475L29.9139 61.2348Z" fill="#BEF0ED"/>
<path d="M29.9139 61.2348L29.959 61.2379L30.0039 61.2329L42.5006 59.8373L50.1615 64.6035L49.6195 74.8451L32.528 84.8333L17.0324 84.4857L0.84191 75.0526L17.0701 60.3475L29.9139 61.2348Z" stroke="#171753"/>
</g>
<path d="M34.6613 63.3173L55.5211 59.602L61.0823 80.2964L33.1998 84.7436L34.6613 63.3173Z" fill="#8989C7" stroke="#171753"/>
<path d="M47.2108 39.1458L47.256 39.1489L47.3011 39.1438L59.7974 37.7396L67.4584 42.5142L66.9173 52.7397L55.7222 58.5505L34.2821 62.3692L18.1388 52.9635L34.367 38.2585L47.2108 39.1458Z" fill="#BEF0ED" stroke="#171753"/>
<path d="M32.2191 84.4309L12.6946 71.1019L17.6023 53.8081L33.6694 63.1693L32.2191 84.4309Z" fill="#171753" stroke="#171753"/>
<path d="M56.472 59.2878L67.2695 53.6834L81.3882 71.1258L62.0384 80.0016L56.472 59.2878Z" fill="#6B5FA5" stroke="#171753"/>
<path d="M67.9108 52.8864L68.4065 43.52L79.4041 56.3545L81.4108 69.5645L67.9108 52.8864Z" fill="#8989C7" stroke="#171753"/>
<path d="M75.6542 49.6963C75.6411 49.7039 75.6267 49.7126 75.6112 49.7222C75.5229 49.7772 75.401 49.8635 75.2745 49.9848C75.0233 50.2258 74.7598 50.5975 74.6897 51.1434L74.6894 51.1461C74.686 51.1715 74.692 51.2777 74.7975 51.5002C74.8963 51.7084 75.0534 51.9597 75.2606 52.2495C75.5993 52.7235 76.0355 53.2513 76.4917 53.8035C76.5954 53.929 76.7001 54.0557 76.805 54.1834C77.3588 54.8576 77.9189 55.5604 78.2815 56.1807C78.4621 56.4898 78.6128 56.8098 78.6795 57.1178C78.7467 57.4285 78.7403 57.7922 78.5127 58.1038C78.3595 58.3137 78.166 58.4847 77.9186 58.5704C77.669 58.6569 77.4257 58.6354 77.2136 58.5719C76.8361 58.4589 76.4454 58.1721 76.0982 57.9172L76.0798 57.9037L76.057 57.8869C75.2956 57.328 74.4278 56.6909 73.2508 56.5826L75.6542 49.6963ZM75.6542 49.6963C75.6781 49.6965 75.7056 49.697 75.7365 49.6976C75.869 49.7003 76.0637 49.7071 76.3078 49.7235C76.7964 49.7564 77.4796 49.8277 78.2539 49.9807C79.813 50.289 81.6895 50.919 83.107 52.1862C84.9518 53.8377 87.515 53.3017 89.333 52.5886L89.3339 52.5883C91.1674 51.8649 93.1097 51.4353 95.0748 51.3494C96.8249 51.2787 99.3425 50.9662 102.786 50.0955C101.515 50.9074 99.9045 51.9102 98.1975 52.9085C96.2485 54.0483 94.1821 55.1769 92.3552 56.0086C91.4416 56.4245 90.5962 56.7623 89.8609 56.9902C89.117 57.2208 88.5226 57.3269 88.0976 57.3094C87.6736 57.292 87.2477 57.2586 86.8163 57.2249C86.7402 57.2189 86.6639 57.213 86.5875 57.2071C86.083 57.1682 85.572 57.1325 85.0786 57.1299C84.102 57.1248 83.1126 57.2465 82.3067 57.8018C81.4809 58.3709 80.9401 59.3281 80.7174 60.7876C80.4964 62.2361 80.5794 64.2294 81.0376 66.9607L81.6576 71.0232L74.5663 74.2728C74.5537 74.0074 74.5364 73.6781 74.5135 73.298C74.4503 72.2505 74.3438 70.8144 74.1705 69.2612C73.9974 67.7093 73.7567 66.0329 73.4238 64.5073C73.1012 63.0289 72.6838 61.6518 72.1347 60.6658C72.1286 60.6339 72.1209 60.592 72.112 60.5414C72.0894 60.4118 72.0597 60.2256 72.0321 60.0025C71.9764 59.5531 71.9312 58.9682 71.9645 58.3997C71.9985 57.8183 72.1116 57.32 72.3215 56.9945C72.4213 56.8396 72.5371 56.7329 72.6718 56.6664C72.806 56.6002 72.99 56.5587 73.2506 56.5826L75.6542 49.6963Z" fill="#087980" stroke="#171753"/>
</g>
<defs>
<clipPath id="clip0_289_16147">
<rect width="117.207" height="97.8621" fill="white" transform="translate(0 0.862061)"/>
</clipPath>
</defs>
</svg>
