<svg width="46" height="35" viewBox="0 0 46 35" fill="none" xmlns="http://www.w3.org/2000/svg">
<path d="M13.8072 11.8208C8.73092 15.0394 8.73092 20.293 13.8072 23.4971C18.8836 26.7156 27.195 26.7156 32.2714 23.4971C37.3477 20.2785 37.3477 15.0249 32.2714 11.8208C27.195 8.61668 18.8836 8.61668 13.8072 11.8208Z" fill="#5ED9D1" stroke="#5ED9D1" stroke-miterlimit="10"/>
<path d="M11.0303 11.2255C4.32324 15.4688 4.32324 22.4111 11.0303 26.6544C17.7373 30.8977 28.7053 30.8977 35.4124 26.6544C42.1195 22.4111 42.1195 15.4688 35.4124 11.2255C28.7053 6.98224 17.7373 6.98224 11.0303 11.2255Z" stroke="#5ED9D1" stroke-miterlimit="10"/>
<path d="M7.46047 10.5918C-1.15349 16.0474 -1.15349 24.967 7.46047 30.4082C16.0744 35.8639 30.1855 35.8639 38.7995 30.4082C47.4135 24.9526 47.4135 16.033 38.7995 10.5918C30.1855 5.13608 16.0876 5.13608 7.46047 10.5918Z" stroke="#5ED9D1" stroke-miterlimit="10"/>
<path d="M23 16V0" stroke="#353570" stroke-width="2"/>
</svg>
