<svg width="46" height="30" viewBox="0 0 46 30" fill="none" xmlns="http://www.w3.org/2000/svg">
<path d="M13.7994 6.32082C8.72311 9.53937 8.72311 14.793 13.7994 17.9971C18.8757 21.2157 27.1872 21.2157 32.2635 17.9971C37.3399 14.7785 37.3399 9.52494 32.2635 6.32082C27.1872 3.11669 18.8757 3.11669 13.7994 6.32082Z" fill="#5ED9D1" stroke="#5ED9D1" stroke-miterlimit="10"/>
<path d="M10.9453 5.7255C4.23828 9.9688 4.23828 16.9111 10.9453 21.1544C17.6524 25.3977 28.6204 25.3977 35.3274 21.1544C42.0345 16.9111 42.0345 9.9688 35.3274 5.7255C28.6204 1.4822 17.6524 1.4822 10.9453 5.7255Z" stroke="#5ED9D1" stroke-miterlimit="10"/>
<path d="M7.46047 5.09175C-1.15349 10.5474 -1.15349 19.467 7.46047 24.9082C16.0744 30.3639 30.1855 30.3639 38.7995 24.9082C47.4135 19.4526 47.4135 10.533 38.7995 5.09175C30.1855 -0.363918 16.0876 -0.363918 7.46047 5.09175Z" stroke="#5ED9D1" stroke-miterlimit="10"/>
</svg>
