<svg width="104" height="103" viewBox="0 0 104 103" fill="none" xmlns="http://www.w3.org/2000/svg">
<g style="mix-blend-mode:multiply" opacity="0.2">
<path d="M0.803646 75.1078L55.5634 43.8077L103.187 71.2387L48.4148 102.539L0.803646 75.1078Z" fill="#353570"/>
<path d="M0.803646 75.1078L55.5634 43.8077L103.187 71.2387L48.4148 102.539L0.803646 75.1078Z" stroke="#171753" stroke-width="0.8"/>
</g>
<path d="M32.3051 31.8679L76.9474 57.58L48.4145 74.0108L3.77213 48.3105L32.3051 31.8679Z" fill="#4D3D8D" stroke="#171753" stroke-width="0.8"/>
<path d="M7.47611 48.3105L32.3057 34.0022L73.2328 57.5801L48.4151 71.8883L7.47611 48.3105Z" fill="#171753" stroke="#171753" stroke-width="0.8"/>
<path d="M77.3362 84.1934L48.8141 100.625V74.7034L77.3362 58.272V84.1934Z" fill="#8989C7" stroke="#171753" stroke-width="0.8"/>
<path d="M52.6285 76.9109L73.5237 64.8661V81.998L52.6285 94.0267V76.9109Z" fill="#171753" stroke="#171753" stroke-width="0.8"/>
<path d="M73.0715 65.1267V81.6321L52.6285 93.4046V76.9109L73.0715 65.1267Z" fill="#4D3D8D" stroke="#171753" stroke-width="0.8"/>
<path d="M3.3707 48.9903L48.0146 74.7034V100.625L3.3707 74.9118V48.9903Z" fill="#E3E0EB" stroke="#171753" stroke-width="0.8"/>
<path d="M44.1889 94.0266L7.18418 72.7164V55.5908L7.34145 55.6819L7.34145 55.6819L7.3423 55.6824L44.1889 76.911V94.0266Z" fill="#4D3D8D" stroke="#171753" stroke-width="0.8"/>
<path d="M44.2011 93.2702L7.94199 72.375V56.0279L20.445 63.2321L20.4455 63.2324L27.2651 67.1471L27.2658 67.1475L44.2011 76.9109V93.2702Z" fill="#4D3D8D" stroke="#171753" stroke-width="0.8"/>
<path d="M21.0445 71.2235V63.5832L27.0648 67.056V75.0052L25.7131 75.607L25.7116 75.6077C25.3819 75.7561 24.8641 75.6993 24.2479 75.3451C23.6474 74.9999 23.0304 74.4115 22.5605 73.6627C22.5604 73.6625 22.5602 73.6623 22.5601 73.662L21.0445 71.2235Z" fill="#8989C7" stroke="#171753" stroke-width="0.8"/>
<path d="M87.5731 57.0119C84.0012 58.6824 80.6778 58.8982 78.3201 57.4616L100.701 26.6007C102.939 28.207 103.891 31.255 103.503 35.0442C103.107 38.9172 101.312 43.4742 98.1914 47.7833C95.0711 52.0916 91.2346 55.2994 87.5731 57.0119Z" fill="#8989C7" stroke="#171753" stroke-width="0.8"/>
<path d="M87.5731 57.0119C84.0012 58.6824 80.6778 58.8982 78.3201 57.4616L100.701 26.6007C102.939 28.207 103.891 31.255 103.503 35.0442C103.107 38.9172 101.312 43.4742 98.1914 47.7833C95.0711 52.0916 91.2346 55.2994 87.5731 57.0119Z" fill="#8989C7" stroke="#171753" stroke-width="0.8"/>
<path d="M96.7191 44.9174C93.6408 49.6691 89.072 53.8325 84.2872 54.6338L100.12 32.4965C100.61 33.7017 100.595 35.422 100.1 37.443C99.5299 39.7713 98.3438 42.4094 96.7191 44.9174Z" fill="#171753" stroke="#171753" stroke-width="0.8"/>
<path d="M84.6655 54.1212L99.8793 32.8493C100.163 34.1062 100.027 35.7563 99.5061 37.6229C98.8817 39.8595 97.7211 42.343 96.1744 44.7037C93.2797 49.1218 89.0981 53.0149 84.6655 54.1212Z" fill="#4D3D8D" stroke="#171753" stroke-width="0.8"/>
<mask id="mask0_728_27671" style="mask-type:luminance" maskUnits="userSpaceOnUse" x="6" y="33" width="69" height="40">
<path d="M7.47611 48.3105L32.3057 34.0022L73.2328 57.5801L48.4151 71.8883L7.47611 48.3105Z" fill="white" stroke="white" stroke-width="0.8"/>
</mask>
<g mask="url(#mask0_728_27671)">
<mask id="path-16-inside-1_728_27671" fill="white">
<path d="M7.78711 55.0187C7.93378 56.0798 8.85048 57.2629 9.84052 57.6776C10.3416 57.8849 10.7694 57.8483 11.0506 57.6288L11.2461 57.4824C11.9306 58.2874 13.2873 58.8241 14.314 58.6655C14.3629 58.6655 14.3873 58.6411 14.4362 58.6411C14.754 58.885 15.084 59.0924 15.4263 59.19C15.9518 59.3485 16.3674 59.2753 16.6241 59.0314L16.8563 58.8119C16.9297 58.7509 16.9785 58.6655 17.0274 58.5801C17.0641 58.5801 17.113 58.5923 17.1497 58.6045C17.1374 58.6777 17.1252 58.7509 17.1252 58.7509C17.0519 59.0924 17.2108 59.4949 17.6141 59.8486C18.4208 60.556 19.8998 60.8487 20.9142 60.495C21.0854 60.434 21.2198 60.3608 21.342 60.2754C21.8798 60.7877 22.5888 61.1658 23.2366 61.2512C23.6277 61.3 23.9332 61.239 24.1655 61.0926C24.2144 61.117 24.2633 61.1414 24.3121 61.1536C24.3488 61.178 24.3733 61.2146 24.4099 61.239C24.8866 61.5683 25.5466 61.7512 26.1944 61.7756C26.72 62.0074 27.3434 62.1171 27.9301 62.0927C27.8445 62.4099 27.9301 62.7879 28.2356 63.1782C28.9079 64.0076 30.3135 64.5564 31.3646 64.3979C31.5969 64.3613 31.7924 64.2881 31.9513 64.1906C32.0002 64.2149 32.0369 64.2515 32.0858 64.2759C32.0613 64.3247 32.0369 64.3613 32.0246 64.4223L31.9391 64.7272C31.8413 65.0687 31.9635 65.4712 32.3424 65.8615C33.0513 66.5811 34.3836 66.9714 35.4103 66.7884C35.6548 67.1055 35.9359 67.3739 36.2537 67.5568C36.2659 67.5934 36.2781 67.63 36.2904 67.6666C36.7426 68.6301 37.9893 69.4839 39.0527 69.5814C39.1505 69.5814 39.236 69.5814 39.3216 69.5814C39.7494 69.9107 40.2383 70.1425 40.715 70.2522C40.9961 71.045 41.5705 71.8256 42.2306 72.2037C42.4628 72.3379 42.6828 72.411 42.8784 72.4232C43.7217 72.8013 44.834 72.8745 45.6162 72.5452C45.8851 72.4354 46.0807 72.3013 46.2152 72.1427C46.3374 72.1793 46.4718 72.2159 46.5941 72.2281C46.8385 72.2647 47.0463 72.2525 47.2296 72.2037C47.1441 72.4598 47.1319 72.7647 47.2419 73.1306C47.5596 74.1551 48.6597 75.1675 49.7108 75.4114C50.2364 75.5334 50.652 75.4236 50.8964 75.1553L51.1164 74.9235C51.2998 74.7284 51.3853 74.4357 51.3364 74.082C51.9965 74.1551 52.6687 74.082 53.1943 73.8258C53.6832 73.5941 53.9399 73.2526 53.9643 72.8989L53.9888 72.5818C53.9888 72.5818 53.9888 72.4842 53.9765 72.4354C54.4532 72.4354 54.8077 72.2647 54.9788 71.9842L55.0399 71.8866C55.5288 72.0207 56.0299 72.0695 56.47 71.9964C57.0078 71.8988 57.35 71.6427 57.46 71.3133L57.57 71.0206C57.6922 70.6913 57.5944 70.2888 57.2522 69.8742C57.1789 69.7888 57.1055 69.7156 57.02 69.6424C57.0933 69.6668 57.1789 69.7034 57.2522 69.7278C57.7778 69.862 58.1934 69.7766 58.4378 69.5205L58.6089 69.3497C58.8534 69.5692 59.1101 69.7522 59.379 69.8742C59.8801 70.0937 60.2957 70.0693 60.589 69.862L60.8457 69.679C61.1268 69.4717 61.2735 69.0814 61.2246 68.5447C61.1757 68.0935 60.9801 67.6178 60.7112 67.1787C60.9679 67.2031 61.2246 67.2031 61.469 67.1543C61.9335 67.0689 62.2391 66.8616 62.3857 66.5811C62.7035 66.9226 63.058 67.1909 63.4369 67.3617C63.938 67.5812 64.3658 67.5446 64.6469 67.3251L64.9036 67.1299C65.1847 66.9226 65.3314 66.5201 65.2581 65.9956C65.2092 65.6175 65.0625 65.2273 64.8547 64.8492C64.9647 64.6174 65.0014 64.3247 64.928 63.971C64.8792 63.7027 64.7692 63.4344 64.6347 63.166C64.7814 63.1416 64.9158 63.1173 65.0625 63.0807C65.3192 63.166 65.5758 63.2148 65.8203 63.227C66.3581 63.2514 66.7492 63.0685 66.9326 62.7757L67.1037 62.5074C67.2137 62.3245 67.2504 62.0927 67.2137 61.8366C67.3237 61.8366 67.4337 61.861 67.5437 61.861C68.0815 61.8488 68.4604 61.6415 68.6315 61.3244L68.7782 61.0438C68.9493 60.7389 68.9126 60.312 68.6315 59.8608C68.0693 58.946 66.7492 58.2264 65.6736 58.263C65.1358 58.2752 64.7691 58.4704 64.598 58.7875L64.4514 59.068C64.378 59.2022 64.3414 59.3607 64.3536 59.5437C64.3047 59.5437 64.2558 59.5315 64.2069 59.5193C63.7913 59.5071 63.4735 59.6046 63.2535 59.7876C63.2169 59.7632 63.1924 59.7266 63.1558 59.7022C63.3513 59.5559 63.4858 59.3729 63.5224 59.1778L63.5958 58.8728C63.6813 58.5313 63.5347 58.1411 63.1558 57.763C62.8013 57.4215 62.3002 57.1653 61.7624 57.019C61.7257 56.7872 61.6035 56.5311 61.3712 56.2872C60.809 55.6895 59.8434 55.2993 58.9512 55.2505C58.9267 55.2261 58.9145 55.1895 58.8901 55.1651C58.78 55.0431 58.6578 54.9334 58.5234 54.8358C58.4623 54.6162 58.34 54.3845 58.1078 54.1528C57.7533 53.7991 57.24 53.5429 56.7022 53.3844C56.4333 52.5916 55.8711 51.8232 55.2233 51.4329C54.5877 50.6524 53.4021 50.0669 52.4243 50.1035C51.8865 50.1279 51.5198 50.3231 51.3609 50.6402L51.2142 50.9207C51.1776 50.9939 51.1409 51.0792 51.1287 51.1646C51.1287 51.0305 51.1287 50.8841 51.1042 50.7133C51.3609 50.5304 51.5076 50.3109 51.5565 50.0791C51.972 49.8474 52.2043 49.5425 52.2165 49.2254L52.2409 48.9083C52.2654 48.5546 52.0698 48.1887 51.6298 47.8837C50.8231 47.3227 49.503 47.1763 48.5375 47.5056C48.4763 47.4569 48.4152 47.4081 48.3541 47.3593C48.3175 47.0788 48.1463 46.786 47.8163 46.5177C46.9852 45.8469 45.494 45.603 44.4918 45.9933C43.9906 46.1884 43.7095 46.4933 43.6484 46.8348L43.5995 47.1519C43.5995 47.2007 43.5995 47.2495 43.5995 47.3105C43.4895 47.2007 43.3673 47.091 43.245 46.9812C43.2206 46.7861 43.1595 46.5787 43.0373 46.3592C42.5239 45.42 41.2283 44.6395 40.1649 44.6273C39.7494 44.6273 39.4316 44.7248 39.2238 44.92C39.2238 44.8468 39.2116 44.7614 39.1871 44.676C38.9427 43.6393 37.916 42.5416 36.8893 42.2245C36.3881 42.0782 35.9848 42.1392 35.7281 42.3709C35.777 42.127 35.7281 41.8342 35.5814 41.5171C35.117 40.5536 33.8703 39.712 32.8069 39.6267C32.2691 39.5901 31.878 39.7486 31.6824 40.0292C31.6824 40.0292 31.6213 40.1145 31.5724 40.1877C31.3768 40.2121 31.1935 40.2609 31.0224 40.3219C30.8513 40.3829 30.7168 40.4682 30.5946 40.5536C29.8123 40.3585 28.9201 40.395 28.2601 40.7C28.1867 40.7366 28.1256 40.7731 28.0645 40.8219C27.6245 40.6024 27.16 40.4682 26.72 40.456C26.1822 40.456 25.8033 40.6268 25.62 40.9195L25.4611 41.1878C25.2655 41.4927 25.29 41.9074 25.5466 42.3831C25.8644 42.9563 26.4633 43.4564 27.1234 43.7735C27.1478 43.7979 27.1722 43.8345 27.1967 43.8589C26.94 44.054 26.7933 44.2858 26.7567 44.5297C26.5733 44.5785 26.4144 44.676 26.3044 44.798C25.9867 43.8101 24.9966 42.81 24.0066 42.5294C23.4932 42.3831 23.0777 42.4563 22.821 42.7124L22.5887 42.9319C22.3565 43.1515 22.271 43.5174 22.3443 43.9686C22.1243 43.8833 21.9043 43.8223 21.6965 43.8101C21.1587 43.7491 20.7676 43.8955 20.5598 44.1882L20.3764 44.4443C20.3031 44.5541 20.2542 44.676 20.2298 44.8224C19.5453 44.5785 18.7753 44.5175 18.1519 44.6882C17.6386 44.8346 17.3208 45.1151 17.2352 45.4566C17.2352 45.4566 17.223 45.5176 17.2108 45.5786C16.7708 45.5542 16.4285 45.664 16.233 45.9079L16.0374 46.1518C15.8052 46.4202 15.7685 46.847 15.9641 47.3593C16.0374 47.5422 16.1352 47.7252 16.2574 47.8959C16.0985 47.8228 15.9396 47.7496 15.7807 47.713C15.2674 47.5788 14.8518 47.652 14.6074 47.9081L14.3873 48.1277C14.1307 48.3716 14.0451 48.7863 14.1796 49.3107C14.3507 49.9572 14.8274 50.6158 15.4263 51.0914C15.3285 51.1036 15.2307 51.1158 15.1329 51.1402C14.6196 51.2744 14.3018 51.5549 14.204 51.8964C14.0818 51.9086 13.9718 51.9208 13.8495 51.933C13.434 51.5427 12.9328 51.2378 12.4439 51.1036C11.9306 50.9695 11.515 51.0548 11.2706 51.311L11.0506 51.5427C10.7939 51.7866 10.7083 52.2135 10.855 52.7258C10.8672 52.7868 10.9039 52.8477 10.9283 52.9087C10.855 52.9941 10.7939 53.0795 10.7572 53.177L10.6472 53.4698C10.5128 53.7991 10.6105 54.2138 10.9528 54.6284C11.1972 54.9334 11.5395 55.1895 11.9306 55.3846C11.7595 55.4212 11.6006 55.4822 11.4784 55.5554C11.1239 54.7382 10.415 53.9698 9.65718 53.6649C9.15605 53.4576 8.74048 53.4942 8.45936 53.7015L8.20268 53.8966C7.92156 54.104 7.77489 54.5065 7.84822 55.0431L7.78711 55.0187ZM20.4865 50.0425C20.4865 50.0425 20.5476 50.0791 20.572 50.1035C20.5353 50.1035 20.5109 50.1035 20.4742 50.1035C20.4742 50.0913 20.4742 50.0669 20.4742 50.0547L20.4865 50.0425ZM51.092 51.1646C51.092 51.2378 51.092 51.311 51.092 51.3964C51.0798 51.3354 51.092 51.25 51.092 51.1646Z"/>
</mask>
<path d="M7.78711 55.0187C7.93378 56.0798 8.85048 57.2629 9.84052 57.6776C10.3416 57.8849 10.7694 57.8483 11.0506 57.6288L11.2461 57.4824C11.9306 58.2874 13.2873 58.8241 14.314 58.6655C14.3629 58.6655 14.3873 58.6411 14.4362 58.6411C14.754 58.885 15.084 59.0924 15.4263 59.19C15.9518 59.3485 16.3674 59.2753 16.6241 59.0314L16.8563 58.8119C16.9297 58.7509 16.9785 58.6655 17.0274 58.5801C17.0641 58.5801 17.113 58.5923 17.1497 58.6045C17.1374 58.6777 17.1252 58.7509 17.1252 58.7509C17.0519 59.0924 17.2108 59.4949 17.6141 59.8486C18.4208 60.556 19.8998 60.8487 20.9142 60.495C21.0854 60.434 21.2198 60.3608 21.342 60.2754C21.8798 60.7877 22.5888 61.1658 23.2366 61.2512C23.6277 61.3 23.9332 61.239 24.1655 61.0926C24.2144 61.117 24.2633 61.1414 24.3121 61.1536C24.3488 61.178 24.3733 61.2146 24.4099 61.239C24.8866 61.5683 25.5466 61.7512 26.1944 61.7756C26.72 62.0074 27.3434 62.1171 27.9301 62.0927C27.8445 62.4099 27.9301 62.7879 28.2356 63.1782C28.9079 64.0076 30.3135 64.5564 31.3646 64.3979C31.5969 64.3613 31.7924 64.2881 31.9513 64.1906C32.0002 64.2149 32.0369 64.2515 32.0858 64.2759C32.0613 64.3247 32.0369 64.3613 32.0246 64.4223L31.9391 64.7272C31.8413 65.0687 31.9635 65.4712 32.3424 65.8615C33.0513 66.5811 34.3836 66.9714 35.4103 66.7884C35.6548 67.1055 35.9359 67.3739 36.2537 67.5568C36.2659 67.5934 36.2781 67.63 36.2904 67.6666C36.7426 68.6301 37.9893 69.4839 39.0527 69.5814C39.1505 69.5814 39.236 69.5814 39.3216 69.5814C39.7494 69.9107 40.2383 70.1425 40.715 70.2522C40.9961 71.045 41.5705 71.8256 42.2306 72.2037C42.4628 72.3379 42.6828 72.411 42.8784 72.4232C43.7217 72.8013 44.834 72.8745 45.6162 72.5452C45.8851 72.4354 46.0807 72.3013 46.2152 72.1427C46.3374 72.1793 46.4718 72.2159 46.5941 72.2281C46.8385 72.2647 47.0463 72.2525 47.2296 72.2037C47.1441 72.4598 47.1319 72.7647 47.2419 73.1306C47.5596 74.1551 48.6597 75.1675 49.7108 75.4114C50.2364 75.5334 50.652 75.4236 50.8964 75.1553L51.1164 74.9235C51.2998 74.7284 51.3853 74.4357 51.3364 74.082C51.9965 74.1551 52.6687 74.082 53.1943 73.8258C53.6832 73.5941 53.9399 73.2526 53.9643 72.8989L53.9888 72.5818C53.9888 72.5818 53.9888 72.4842 53.9765 72.4354C54.4532 72.4354 54.8077 72.2647 54.9788 71.9842L55.0399 71.8866C55.5288 72.0207 56.0299 72.0695 56.47 71.9964C57.0078 71.8988 57.35 71.6427 57.46 71.3133L57.57 71.0206C57.6922 70.6913 57.5944 70.2888 57.2522 69.8742C57.1789 69.7888 57.1055 69.7156 57.02 69.6424C57.0933 69.6668 57.1789 69.7034 57.2522 69.7278C57.7778 69.862 58.1934 69.7766 58.4378 69.5205L58.6089 69.3497C58.8534 69.5692 59.1101 69.7522 59.379 69.8742C59.8801 70.0937 60.2957 70.0693 60.589 69.862L60.8457 69.679C61.1268 69.4717 61.2735 69.0814 61.2246 68.5447C61.1757 68.0935 60.9801 67.6178 60.7112 67.1787C60.9679 67.2031 61.2246 67.2031 61.469 67.1543C61.9335 67.0689 62.2391 66.8616 62.3857 66.5811C62.7035 66.9226 63.058 67.1909 63.4369 67.3617C63.938 67.5812 64.3658 67.5446 64.6469 67.3251L64.9036 67.1299C65.1847 66.9226 65.3314 66.5201 65.2581 65.9956C65.2092 65.6175 65.0625 65.2273 64.8547 64.8492C64.9647 64.6174 65.0014 64.3247 64.928 63.971C64.8792 63.7027 64.7692 63.4344 64.6347 63.166C64.7814 63.1416 64.9158 63.1173 65.0625 63.0807C65.3192 63.166 65.5758 63.2148 65.8203 63.227C66.3581 63.2514 66.7492 63.0685 66.9326 62.7757L67.1037 62.5074C67.2137 62.3245 67.2504 62.0927 67.2137 61.8366C67.3237 61.8366 67.4337 61.861 67.5437 61.861C68.0815 61.8488 68.4604 61.6415 68.6315 61.3244L68.7782 61.0438C68.9493 60.7389 68.9126 60.312 68.6315 59.8608C68.0693 58.946 66.7492 58.2264 65.6736 58.263C65.1358 58.2752 64.7691 58.4704 64.598 58.7875L64.4514 59.068C64.378 59.2022 64.3414 59.3607 64.3536 59.5437C64.3047 59.5437 64.2558 59.5315 64.2069 59.5193C63.7913 59.5071 63.4735 59.6046 63.2535 59.7876C63.2169 59.7632 63.1924 59.7266 63.1558 59.7022C63.3513 59.5559 63.4858 59.3729 63.5224 59.1778L63.5958 58.8728C63.6813 58.5313 63.5347 58.1411 63.1558 57.763C62.8013 57.4215 62.3002 57.1653 61.7624 57.019C61.7257 56.7872 61.6035 56.5311 61.3712 56.2872C60.809 55.6895 59.8434 55.2993 58.9512 55.2505C58.9267 55.2261 58.9145 55.1895 58.8901 55.1651C58.78 55.0431 58.6578 54.9334 58.5234 54.8358C58.4623 54.6162 58.34 54.3845 58.1078 54.1528C57.7533 53.7991 57.24 53.5429 56.7022 53.3844C56.4333 52.5916 55.8711 51.8232 55.2233 51.4329C54.5877 50.6524 53.4021 50.0669 52.4243 50.1035C51.8865 50.1279 51.5198 50.3231 51.3609 50.6402L51.2142 50.9207C51.1776 50.9939 51.1409 51.0792 51.1287 51.1646C51.1287 51.0305 51.1287 50.8841 51.1042 50.7133C51.3609 50.5304 51.5076 50.3109 51.5565 50.0791C51.972 49.8474 52.2043 49.5425 52.2165 49.2254L52.2409 48.9083C52.2654 48.5546 52.0698 48.1887 51.6298 47.8837C50.8231 47.3227 49.503 47.1763 48.5375 47.5056C48.4763 47.4569 48.4152 47.4081 48.3541 47.3593C48.3175 47.0788 48.1463 46.786 47.8163 46.5177C46.9852 45.8469 45.494 45.603 44.4918 45.9933C43.9906 46.1884 43.7095 46.4933 43.6484 46.8348L43.5995 47.1519C43.5995 47.2007 43.5995 47.2495 43.5995 47.3105C43.4895 47.2007 43.3673 47.091 43.245 46.9812C43.2206 46.7861 43.1595 46.5787 43.0373 46.3592C42.5239 45.42 41.2283 44.6395 40.1649 44.6273C39.7494 44.6273 39.4316 44.7248 39.2238 44.92C39.2238 44.8468 39.2116 44.7614 39.1871 44.676C38.9427 43.6393 37.916 42.5416 36.8893 42.2245C36.3881 42.0782 35.9848 42.1392 35.7281 42.3709C35.777 42.127 35.7281 41.8342 35.5814 41.5171C35.117 40.5536 33.8703 39.712 32.8069 39.6267C32.2691 39.5901 31.878 39.7486 31.6824 40.0292C31.6824 40.0292 31.6213 40.1145 31.5724 40.1877C31.3768 40.2121 31.1935 40.2609 31.0224 40.3219C30.8513 40.3829 30.7168 40.4682 30.5946 40.5536C29.8123 40.3585 28.9201 40.395 28.2601 40.7C28.1867 40.7366 28.1256 40.7731 28.0645 40.8219C27.6245 40.6024 27.16 40.4682 26.72 40.456C26.1822 40.456 25.8033 40.6268 25.62 40.9195L25.4611 41.1878C25.2655 41.4927 25.29 41.9074 25.5466 42.3831C25.8644 42.9563 26.4633 43.4564 27.1234 43.7735C27.1478 43.7979 27.1722 43.8345 27.1967 43.8589C26.94 44.054 26.7933 44.2858 26.7567 44.5297C26.5733 44.5785 26.4144 44.676 26.3044 44.798C25.9867 43.8101 24.9966 42.81 24.0066 42.5294C23.4932 42.3831 23.0777 42.4563 22.821 42.7124L22.5887 42.9319C22.3565 43.1515 22.271 43.5174 22.3443 43.9686C22.1243 43.8833 21.9043 43.8223 21.6965 43.8101C21.1587 43.7491 20.7676 43.8955 20.5598 44.1882L20.3764 44.4443C20.3031 44.5541 20.2542 44.676 20.2298 44.8224C19.5453 44.5785 18.7753 44.5175 18.1519 44.6882C17.6386 44.8346 17.3208 45.1151 17.2352 45.4566C17.2352 45.4566 17.223 45.5176 17.2108 45.5786C16.7708 45.5542 16.4285 45.664 16.233 45.9079L16.0374 46.1518C15.8052 46.4202 15.7685 46.847 15.9641 47.3593C16.0374 47.5422 16.1352 47.7252 16.2574 47.8959C16.0985 47.8228 15.9396 47.7496 15.7807 47.713C15.2674 47.5788 14.8518 47.652 14.6074 47.9081L14.3873 48.1277C14.1307 48.3716 14.0451 48.7863 14.1796 49.3107C14.3507 49.9572 14.8274 50.6158 15.4263 51.0914C15.3285 51.1036 15.2307 51.1158 15.1329 51.1402C14.6196 51.2744 14.3018 51.5549 14.204 51.8964C14.0818 51.9086 13.9718 51.9208 13.8495 51.933C13.434 51.5427 12.9328 51.2378 12.4439 51.1036C11.9306 50.9695 11.515 51.0548 11.2706 51.311L11.0506 51.5427C10.7939 51.7866 10.7083 52.2135 10.855 52.7258C10.8672 52.7868 10.9039 52.8477 10.9283 52.9087C10.855 52.9941 10.7939 53.0795 10.7572 53.177L10.6472 53.4698C10.5128 53.7991 10.6105 54.2138 10.9528 54.6284C11.1972 54.9334 11.5395 55.1895 11.9306 55.3846C11.7595 55.4212 11.6006 55.4822 11.4784 55.5554C11.1239 54.7382 10.415 53.9698 9.65718 53.6649C9.15605 53.4576 8.74048 53.4942 8.45936 53.7015L8.20268 53.8966C7.92156 54.104 7.77489 54.5065 7.84822 55.0431L7.78711 55.0187ZM20.4865 50.0425C20.4865 50.0425 20.5476 50.0791 20.572 50.1035C20.5353 50.1035 20.5109 50.1035 20.4742 50.1035C20.4742 50.0913 20.4742 50.0669 20.4742 50.0547L20.4865 50.0425ZM51.092 51.1646C51.092 51.2378 51.092 51.311 51.092 51.3964C51.0798 51.3354 51.092 51.25 51.092 51.1646Z" fill="#FFA54B" stroke="#171753" stroke-width="1.6" mask="url(#path-16-inside-1_728_27671)"/>
<path d="M48.6357 50.4694H53.3904V50.7865C53.3904 51.1402 53.1703 51.4939 52.6937 51.7744C51.7647 52.311 50.2614 52.311 49.3324 51.7744C48.8557 51.5061 48.6357 51.1524 48.6357 50.7865V50.4694Z" fill="#4D3D8D"/>
<path d="M49.3324 49.5059C48.4035 50.0425 48.4035 50.9085 49.3324 51.4451C50.2614 51.9818 51.7647 51.9818 52.6937 51.4451C53.6226 50.9085 53.6226 50.0425 52.6937 49.5059C51.7647 48.9692 50.2614 48.9692 49.3324 49.5059Z" fill="#FFA54B"/>
<path d="M48.8564 50.4694C48.8809 50.7987 49.0887 51.0671 49.4431 51.2744C49.8587 51.5183 50.4209 51.6647 51.0199 51.6647C51.6188 51.6647 52.181 51.5305 52.5966 51.2744C52.951 51.0671 53.1588 50.7987 53.1833 50.5182C53.1833 50.1767 52.9755 49.884 52.5966 49.6645C52.181 49.4205 51.6188 49.2742 51.0199 49.2742C50.4209 49.2742 49.8587 49.4083 49.4431 49.6645C49.0642 49.8962 48.8564 50.1767 48.8564 50.4694Z" fill="white"/>
<path d="M48.8564 50.5304C48.8809 50.8109 49.0887 51.0792 49.4431 51.2866C49.8587 51.5305 50.4209 51.6769 51.0199 51.6769C51.6188 51.6769 52.181 51.5427 52.5966 51.2866C52.951 51.0792 53.1588 50.8109 53.1833 50.5304C53.1588 50.2499 52.951 49.9815 52.5966 49.7742C52.181 49.5303 51.6188 49.3839 51.0199 49.3839C50.4209 49.3839 49.8587 49.5181 49.4431 49.7742C49.0887 49.9815 48.8809 50.2499 48.8564 50.5304Z" fill="#FFA54B"/>
<path d="M25.9867 49.0546L29.9957 51.6036L29.8246 51.872C29.6413 52.1769 29.2502 52.3476 28.7124 52.3232C27.6368 52.2745 26.3778 51.4695 25.8767 50.5181C25.62 50.0425 25.62 49.6156 25.8156 49.3107L25.9867 49.0424V49.0546Z" fill="#4D3D8D"/>
<path d="M27.0991 48.6155C26.0235 48.5667 25.559 49.2985 26.0601 50.2498C26.549 51.2011 27.8202 52.0061 28.8958 52.0549C29.9714 52.1037 30.4359 51.3719 29.9347 50.4206C29.4458 49.4692 28.1747 48.6642 27.0991 48.6155Z" fill="#FFA54B"/>
<path d="M26.1707 49.1766C26.0118 49.4693 26.0485 49.7986 26.2318 50.1767C26.4518 50.6158 26.8429 51.0183 27.3563 51.3476C27.8574 51.6647 28.4074 51.8476 28.8841 51.8598C29.2997 51.8598 29.6175 51.7623 29.7886 51.5305C29.9719 51.2378 29.9597 50.8841 29.7519 50.4938C29.5319 50.0669 29.1408 49.6523 28.6397 49.323C28.1385 48.9936 27.5885 48.8229 27.1118 48.8107C26.6718 48.7985 26.3418 48.9327 26.1829 49.1766H26.1707Z" fill="white"/>
<path d="M26.1452 49.2253C26.0108 49.4692 26.0474 49.8107 26.2308 50.1766C26.4508 50.6157 26.8419 51.0182 27.3553 51.3475C27.8564 51.6646 28.4064 51.8476 28.8831 51.8598C29.2987 51.8598 29.6165 51.7622 29.7876 51.5305C29.922 51.2865 29.8854 50.945 29.702 50.5791C29.482 50.1522 29.0909 49.7376 28.5898 49.4082C28.0886 49.0911 27.5386 48.9082 27.0619 48.896C26.6464 48.896 26.3286 48.9936 26.1575 49.2253H26.1452Z" fill="#FFA54B"/>
<path d="M30.3616 43.9441C29.5427 44.6393 29.7016 45.493 30.7161 45.8467C31.7306 46.2004 33.2095 45.9321 34.0162 45.2369C34.8351 44.5417 34.6762 43.6879 33.6617 43.3342C32.6473 42.9805 31.1683 43.2489 30.3616 43.9441Z" fill="#FFA54B"/>
<path d="M30.0676 44.9809C30.1531 45.298 30.3976 45.5297 30.7887 45.6639C31.2409 45.8346 31.8154 45.859 32.4021 45.7615C32.9888 45.6517 33.5143 45.42 33.881 45.0906C34.1866 44.8101 34.3455 44.5174 34.321 44.2369C34.2599 43.8954 34.0032 43.6515 33.5877 43.4929C33.1354 43.3221 32.561 43.2978 31.9743 43.3953C31.3876 43.4929 30.862 43.7368 30.4953 44.0661C30.1653 44.3589 30.0064 44.676 30.0676 44.9687V44.9809Z" fill="white"/>
<path d="M30.0806 45.0296C30.1539 45.298 30.3984 45.5175 30.7895 45.6639C31.2417 45.8346 31.8162 45.859 32.4029 45.7614C32.9896 45.6517 33.5151 45.4199 33.8818 45.0906C34.1874 44.8101 34.3463 44.5174 34.3218 44.2369C34.2485 43.9685 33.9918 43.749 33.6129 43.6026C33.1607 43.4319 32.5862 43.4075 31.9995 43.5051C31.4128 43.6148 30.8873 43.8466 30.5206 44.1759C30.215 44.4564 30.0561 44.7491 30.0806 45.0296Z" fill="#FFEE81"/>
<path d="M36.2545 44.6029L40.9236 45.5176L40.8624 45.8348C40.8013 46.1885 40.508 46.4934 39.9946 46.6641C38.9802 47.0056 37.5012 46.7251 36.6945 46.0177C36.2789 45.664 36.1323 45.2615 36.2056 44.92L36.2667 44.6029H36.2545Z" fill="#4D3D8D"/>
<path d="M37.1223 43.7857C36.1078 44.1272 35.9367 44.9809 36.7434 45.6884C37.5501 46.3958 39.029 46.6763 40.0435 46.3348C41.058 45.9933 41.2291 45.1395 40.4224 44.4321C39.6157 43.7247 38.1368 43.4442 37.1223 43.7857Z" fill="#FFA54B"/>
<path d="M36.4743 44.6517C36.4376 44.981 36.5843 45.2859 36.8898 45.5542C37.2565 45.8835 37.7699 46.1153 38.3566 46.2372C38.9433 46.347 39.5177 46.3226 39.97 46.164C40.3611 46.0177 40.6178 45.7981 40.6911 45.5298C40.7644 45.1883 40.6055 44.8712 40.2877 44.5785C39.9333 44.2492 39.4077 44.0175 38.821 43.8955C38.2343 43.7857 37.6599 43.8101 37.2076 43.9687C36.7921 44.115 36.5354 44.359 36.4743 44.6517Z" fill="white"/>
<path d="M36.4622 44.7004C36.4256 44.9809 36.5845 45.2737 36.89 45.5542C37.2567 45.8835 37.7701 46.1152 38.3567 46.2372C38.9434 46.347 39.5179 46.3226 39.9701 46.164C40.3613 46.0176 40.6179 45.7981 40.6913 45.5298C40.7279 45.2493 40.569 44.9565 40.2635 44.676C39.909 44.3467 39.3834 44.115 38.7968 43.993C38.2101 43.8832 37.6356 43.9076 37.1834 44.0662C36.7922 44.2126 36.5356 44.4321 36.4622 44.7004Z" fill="#FFA54B"/>
<path d="M61.1028 58.5313C60.0883 58.8728 59.9172 59.7266 60.7238 60.434C61.5305 61.1414 63.0095 61.4219 64.024 61.0804C65.0384 60.7389 65.2096 59.8851 64.4029 59.1777C63.5962 58.4703 62.1172 58.1898 61.1028 58.5313Z" fill="#FFA54B"/>
<path d="M60.443 59.3851C60.4064 59.7144 60.553 60.0193 60.8586 60.2876C61.2253 60.6169 61.7386 60.8487 62.3253 60.9706C62.912 61.0804 63.4865 61.056 63.9387 60.8974C64.3298 60.7511 64.5865 60.5315 64.6598 60.2632C64.7332 59.9217 64.5743 59.6046 64.2565 59.3119C63.902 58.9826 63.3765 58.7508 62.7898 58.6289C62.2031 58.5191 61.6286 58.5435 61.1764 58.7021C60.7608 58.8484 60.5041 59.0923 60.443 59.3851Z" fill="white"/>
<path d="M60.4427 59.446C60.406 59.7265 60.5649 60.0193 60.8705 60.2998C61.2372 60.6291 61.7505 60.8608 62.3372 60.9828C62.9239 61.0926 63.4984 61.0682 63.9506 60.9096C64.3417 60.7633 64.5984 60.5437 64.6717 60.2754C64.7084 59.9949 64.5495 59.7022 64.2439 59.4216C63.8895 59.0923 63.3639 58.8606 62.7772 58.7386C62.1905 58.6289 61.6161 58.6532 61.1638 58.8118C60.7727 58.9582 60.516 59.1777 60.4427 59.446Z" fill="#FFEE81"/>
<path d="M56.9956 58.7997L61.6036 57.641L61.6769 57.9459C61.7747 58.2874 61.628 58.6899 61.2369 59.068C60.4669 59.812 59.0124 60.1779 57.9734 59.8852C57.4479 59.7388 57.1423 59.4461 57.0567 59.1046L56.9834 58.7997H56.9956Z" fill="#4D3D8D"/>
<path d="M57.4359 57.6897C56.6658 58.4337 56.8736 59.2752 57.9125 59.5679C58.9392 59.8607 60.406 59.4948 61.176 58.7508C61.946 58.0068 61.7382 57.1652 60.6993 56.8725C59.6726 56.5798 58.2059 56.9457 57.4359 57.6897Z" fill="#FFA54B"/>
<path d="M57.2159 58.7509C57.3259 59.068 57.5826 59.2754 57.986 59.3973C58.4504 59.5315 59.0249 59.5315 59.5994 59.3973C60.1738 59.251 60.6872 58.9826 61.0294 58.6411C61.3228 58.3484 61.4572 58.0435 61.4083 57.763C61.3228 57.4215 61.0538 57.2019 60.6261 57.0678C60.1616 56.9336 59.5871 56.9336 59.0127 57.0678C58.4382 57.2019 57.9249 57.4825 57.5826 57.824C57.2648 58.1411 57.1426 58.4704 57.2159 58.7509Z" fill="white"/>
<path d="M57.2286 58.7997C57.3141 59.068 57.583 59.2753 57.9864 59.3851C58.4509 59.5193 59.0253 59.5193 59.5998 59.3851C60.1742 59.2387 60.6876 58.9704 61.0298 58.6289C61.3232 58.3362 61.4576 58.0313 61.4087 57.7508C61.3232 57.4824 61.0543 57.2751 60.6509 57.1653C60.1865 57.0312 59.612 57.0312 59.0375 57.1653C58.4631 57.2995 57.9497 57.58 57.6075 57.9215C57.3141 58.2142 57.1797 58.5191 57.2286 58.7997Z" fill="#FFEE81"/>
<path d="M38.7346 53.738L43.3792 54.726L43.3181 55.0431C43.2447 55.3968 42.9514 55.6895 42.438 55.8602C41.4235 56.1895 39.9446 55.8724 39.1501 55.165C38.7468 54.7991 38.6001 54.4088 38.6734 54.0551L38.7346 53.738Z" fill="#4D3D8D"/>
<path d="M39.6146 52.9331C38.6001 53.2625 38.4168 54.1162 39.2112 54.8236C40.0057 55.531 41.4847 55.8481 42.4991 55.5188C43.5136 55.1895 43.697 54.3358 42.9025 53.6284C42.108 52.9088 40.6291 52.6038 39.6146 52.9331Z" fill="#FFA54B"/>
<path d="M38.9546 53.7747C38.9057 54.104 39.0523 54.4089 39.3579 54.6894C39.7124 55.0187 40.2257 55.2626 40.8124 55.3968C41.3991 55.531 41.9735 55.5066 42.4258 55.348C42.8169 55.2139 43.0736 54.9943 43.1591 54.726C43.2325 54.3845 43.0858 54.0674 42.768 53.7625C42.4136 53.4332 41.9002 53.1892 41.3135 53.0551C40.7268 52.9331 40.1524 52.9453 39.7001 53.1039C39.2846 53.2502 39.0157 53.4819 38.9546 53.7747Z" fill="white"/>
<path d="M38.942 53.8357C38.9054 54.1162 39.0521 54.4089 39.3576 54.7016C39.7121 55.0309 40.2254 55.2748 40.8121 55.409C41.3988 55.5432 41.9733 55.5188 42.4255 55.3602C42.8166 55.2261 43.0733 55.0065 43.1589 54.7382C43.1955 54.4577 43.0489 54.165 42.7433 53.8722C42.3888 53.5429 41.8755 53.299 41.2888 53.1648C40.7021 53.0307 40.1276 53.0551 39.6754 53.2136C39.2843 53.3478 39.0276 53.5673 38.942 53.8357Z" fill="#FFEE81"/>
<path d="M44.8711 58.0799L49.6013 58.5556L49.5647 58.8727C49.5402 59.2264 49.2713 59.5557 48.7702 59.7753C47.7924 60.2143 46.3012 60.0558 45.4212 59.4338C44.9812 59.1167 44.7856 58.7386 44.8345 58.3849L44.8711 58.0677V58.0799Z" fill="#4D3D8D"/>
<path d="M45.665 57.1897C44.6872 57.6288 44.6016 58.4947 45.4694 59.1168C46.3372 59.7388 47.8406 59.8974 48.8184 59.4583C49.7963 59.0192 49.8818 58.1532 49.014 57.5312C48.1462 56.9092 46.6428 56.7506 45.665 57.1897Z" fill="#FFA54B"/>
<path d="M45.0908 58.1044C45.0908 58.4337 45.2619 58.7142 45.5919 58.9703C45.9831 59.2631 46.5209 59.446 47.1198 59.507C47.7187 59.568 48.2809 59.4826 48.721 59.2875C49.0999 59.1167 49.3321 58.8728 49.381 58.5923C49.4176 58.2508 49.2343 57.9458 48.8921 57.6775C48.5009 57.3848 47.9631 57.2018 47.3642 57.1409C46.7653 57.0799 46.2031 57.1653 45.7631 57.3604C45.3597 57.5433 45.1275 57.8117 45.103 58.1044H45.0908Z" fill="white"/>
<path d="M45.0908 58.1531C45.0908 58.4337 45.2619 58.7142 45.5919 58.9703C45.9831 59.263 46.5209 59.446 47.1198 59.507C47.7187 59.5679 48.2809 59.4826 48.721 59.2874C49.0999 59.1167 49.3321 58.8727 49.381 58.5922C49.381 58.3117 49.2099 58.0312 48.8798 57.775C48.4887 57.4823 47.9509 57.2994 47.352 57.2384C46.7531 57.1774 46.1909 57.2628 45.7508 57.4579C45.3719 57.6287 45.1397 57.8726 45.0908 58.1531Z" fill="#FFA54B"/>
<path d="M44.5766 54.5187L49.3068 54.9699L49.2824 55.2871C49.2579 55.6408 48.989 55.9701 48.5001 56.2018C47.5223 56.6409 46.0311 56.5067 45.1511 55.8847C44.7111 55.5676 44.5155 55.1895 44.5522 54.8358L44.5766 54.5187Z" fill="#4D3D8D"/>
<path d="M45.3594 53.6162C44.3816 54.0553 44.296 54.9212 45.176 55.5432C46.0439 56.1653 47.5472 56.3116 48.5251 55.8603C49.5029 55.4213 49.5884 54.5553 48.7084 53.9333C47.8406 53.3113 46.3372 53.1649 45.3594 53.6162Z" fill="#FFA54B"/>
<path d="M44.7969 54.5431C44.7969 54.8724 44.968 55.1529 45.298 55.4091C45.6891 55.7018 46.2269 55.8847 46.8258 55.9457C47.4247 56.0067 47.987 55.9213 48.427 55.714C48.8059 55.531 49.0381 55.2871 49.087 55.0188C49.1237 54.6773 48.9404 54.3724 48.5859 54.104C48.1948 53.8113 47.657 53.6284 47.0581 53.5674C46.4592 53.5064 45.8969 53.5918 45.4569 53.7991C45.0535 53.9943 44.8213 54.2504 44.7969 54.5431Z" fill="white"/>
<path d="M44.7969 54.5919C44.7969 54.8724 44.968 55.1529 45.3102 55.3968C45.7013 55.6895 46.2391 55.8725 46.8381 55.9335C47.437 55.9945 47.9992 55.9091 48.4392 55.7017C48.8181 55.5188 49.0504 55.2749 49.0992 55.0065C49.0992 54.726 48.9281 54.4455 48.5859 54.2016C48.1948 53.921 47.657 53.7259 47.0581 53.6649C46.4592 53.6039 45.8969 53.6893 45.4569 53.8966C45.078 54.0796 44.8458 54.3235 44.7969 54.5919Z" fill="#FFA54B"/>
<path d="M39.42 62.5196C38.3444 62.544 37.9289 63.3002 38.4789 64.215C39.0289 65.1297 40.349 65.8615 41.4245 65.8371C42.5001 65.8127 42.9157 65.0565 42.3657 64.1418C41.8157 63.227 40.4956 62.4952 39.42 62.5196Z" fill="#FFA54B"/>
<path d="M38.5283 63.1295C38.3939 63.4344 38.4428 63.7637 38.6506 64.1174C38.895 64.5321 39.3106 64.9224 39.8361 65.2151C40.3617 65.5078 40.9117 65.6542 41.4006 65.642C41.8162 65.6298 42.1218 65.4956 42.2807 65.2639C42.4518 64.959 42.4029 64.6053 42.1829 64.2272C41.9384 63.8125 41.5229 63.4222 40.9973 63.1295C40.4717 62.8368 39.9217 62.6904 39.4328 62.7026C38.9928 62.7148 38.675 62.8734 38.5283 63.1295Z" fill="white"/>
<path d="M38.5034 63.1782C38.3934 63.4344 38.4423 63.7637 38.6501 64.1174C38.8945 64.5321 39.3101 64.9223 39.8357 65.2151C40.3613 65.5078 40.9113 65.6541 41.4002 65.6419C41.8157 65.6297 42.1213 65.4956 42.2802 65.2638C42.3902 65.0077 42.3413 64.6784 42.1335 64.3247C41.8891 63.91 41.4735 63.5197 40.9479 63.227C40.4224 62.9343 39.8723 62.7879 39.3834 62.8001C38.9679 62.8123 38.6623 62.9465 38.5034 63.1782Z" fill="#FFEE81"/>
<path d="M28.6517 57.775C27.8328 58.458 27.9794 59.3118 28.9817 59.6777C29.9839 60.0436 31.4751 59.7875 32.294 59.0923C33.1129 58.4093 32.9663 57.5555 31.964 57.1896C30.9618 56.8237 29.4706 57.0798 28.6517 57.775Z" fill="#FFA54B"/>
<path d="M28.3456 58.8117C28.4312 59.1288 28.6756 59.3605 29.0667 59.5069C29.519 59.6776 30.0934 59.7142 30.6801 59.6166C31.2668 59.5191 31.7924 59.2873 32.1591 58.9702C32.4769 58.7019 32.6358 58.397 32.5991 58.1287C32.538 57.7872 32.2813 57.5432 31.878 57.3847C31.4257 57.2139 30.8512 57.1773 30.2646 57.2749C29.6779 57.3725 29.1523 57.6042 28.7856 57.9213C28.4556 58.214 28.2967 58.5311 28.3456 58.8239V58.8117Z" fill="white"/>
<path d="M28.3581 58.8605C28.4314 59.1289 28.6759 59.3606 29.067 59.507C29.5192 59.6777 30.0937 59.7143 30.6804 59.6167C31.2671 59.5192 31.7927 59.2874 32.1593 58.9703C32.4771 58.702 32.636 58.3971 32.5993 58.1287C32.526 57.8604 32.2816 57.6287 31.8904 57.4823C31.4382 57.3116 30.8637 57.275 30.277 57.3726C29.6904 57.4701 29.1648 57.7019 28.7981 58.019C28.4803 58.2873 28.3336 58.5922 28.3581 58.8605Z" fill="#FFEE81"/>
<path d="M19.3498 56.0798L23.42 58.5313L23.2611 58.7997C23.0778 59.1046 22.6989 59.2875 22.1611 59.2875C21.0855 59.2631 19.8021 58.4948 19.2765 57.5556C19.0076 57.08 18.9954 56.6531 19.1909 56.3604L19.3498 56.092V56.0798Z" fill="#4D3D8D"/>
<path d="M20.4506 55.6163C19.375 55.5919 18.935 56.3359 19.4484 57.275C19.9617 58.2142 21.2573 58.9826 22.3329 59.007C23.4085 59.0313 23.8485 58.2874 23.3352 57.3482C22.8218 56.4091 21.5262 55.6407 20.4506 55.6163Z" fill="#FFA54B"/>
<path d="M19.533 56.2018C19.3863 56.4945 19.423 56.836 19.6186 57.2019C19.8508 57.6288 20.2541 58.0313 20.7675 58.3362C21.2808 58.6411 21.8309 58.8119 22.3075 58.8119C22.7231 58.8119 23.0409 58.6899 23.1998 58.4704C23.3831 58.1777 23.3465 57.824 23.1387 57.4337C22.9064 57.0068 22.5031 56.6043 21.9897 56.2994C21.4764 55.9945 20.9264 55.8237 20.4497 55.8237C20.0097 55.8237 19.6797 55.9579 19.533 56.214V56.2018Z" fill="white"/>
<path d="M19.509 56.2384C19.3868 56.4823 19.4234 56.8238 19.619 57.1897C19.8512 57.6166 20.2546 58.0191 20.7679 58.324C21.2813 58.6289 21.8313 58.7996 22.308 58.7996C22.7236 58.7996 23.0413 58.6777 23.2002 58.4581C23.3225 58.2142 23.2858 57.8727 23.0902 57.5068C22.858 57.0799 22.4547 56.6774 21.9413 56.3725C21.428 56.0676 20.8779 55.8969 20.4012 55.8969C19.9857 55.8969 19.6679 56.0188 19.509 56.2384Z" fill="#FFA54B"/>
<path d="M17.0161 49.7618L21.6974 50.6034L21.6363 50.9205C21.5752 51.2742 21.2818 51.5791 20.7807 51.7621C19.7662 52.128 18.2873 51.8597 17.4684 51.1644C17.0528 50.8107 16.8939 50.4205 16.955 50.079L17.0161 49.7618Z" fill="#4D3D8D"/>
<path d="M17.8835 48.9325C16.8691 49.2984 16.7224 50.1521 17.5413 50.8351C18.3602 51.5303 19.8392 51.7865 20.8536 51.4328C21.8681 51.0669 22.0148 50.2131 21.1959 49.5301C20.377 48.8349 18.898 48.5788 17.8835 48.9325Z" fill="#FFA54B"/>
<path d="M17.2359 49.7984C17.1992 50.1277 17.3581 50.4204 17.6636 50.701C18.0303 51.0181 18.5559 51.2498 19.1426 51.3596C19.7293 51.4693 20.3037 51.4328 20.756 51.262C21.1471 51.1156 21.3916 50.8839 21.4649 50.6156C21.526 50.2741 21.3793 49.957 21.0371 49.6643C20.6704 49.3471 20.1448 49.1154 19.5582 49.0056C18.9715 48.8959 18.397 48.9325 17.9448 49.1032C17.5292 49.2618 17.2725 49.5057 17.2236 49.7984H17.2359Z" fill="white"/>
<path d="M17.2233 49.8594C17.1989 50.1399 17.3455 50.4326 17.6633 50.7131C18.03 51.0302 18.5556 51.262 19.1423 51.3717C19.729 51.4815 20.3034 51.4449 20.7557 51.2742C21.1468 51.1278 21.3912 50.8961 21.4646 50.6278C21.489 50.3472 21.3301 50.0545 21.0246 49.774C20.6579 49.4569 20.1323 49.2252 19.5456 49.1154C18.9589 49.0056 18.3845 49.0422 17.9322 49.213C17.5411 49.3593 17.2967 49.5911 17.2233 49.8594Z" fill="#FFA54B"/>
<path d="M24.4101 43.0173L28.5291 45.3713L28.3702 45.6518C28.1991 45.9689 27.8202 46.1518 27.2824 46.164C26.2068 46.164 24.899 45.4201 24.3612 44.4931C24.0923 44.0296 24.0678 43.6028 24.2512 43.2979L24.4101 43.0173Z" fill="#4D3D8D"/>
<path d="M25.4974 42.5294C24.4218 42.5294 23.994 43.2856 24.5318 44.2125C25.0696 45.1395 26.3775 45.8835 27.4531 45.8835C28.5286 45.8835 28.9564 45.1273 28.4186 44.2004C27.8808 43.2734 26.573 42.5294 25.4974 42.5294Z" fill="#FFA54B"/>
<path d="M24.5933 43.1271C24.4467 43.4198 24.4956 43.7613 24.7033 44.115C24.9356 44.5419 25.3511 44.9322 25.8767 45.2249C26.3901 45.5176 26.9523 45.6762 27.429 45.6762C27.8446 45.6762 28.1501 45.542 28.309 45.3103C28.4801 45.0054 28.4435 44.6639 28.2235 44.2736C27.9912 43.8467 27.5757 43.4564 27.0501 43.1637C26.5367 42.871 25.9745 42.7124 25.4978 42.7124C25.0578 42.7124 24.7278 42.871 24.5811 43.1271H24.5933Z" fill="white"/>
<path d="M24.568 43.1758C24.4458 43.432 24.4947 43.7613 24.7024 44.1272C24.9347 44.554 25.3502 44.9443 25.8758 45.2371C26.3892 45.5298 26.9514 45.6883 27.4281 45.6883C27.8437 45.6883 28.1492 45.5542 28.3081 45.3224C28.4304 45.0663 28.3815 44.737 28.1737 44.3711C27.9415 43.9442 27.5259 43.5539 27.0003 43.2612C26.487 42.9685 25.9247 42.8099 25.448 42.8099C25.0325 42.8099 24.7269 42.9441 24.568 43.1758Z" fill="#FFEE81"/>
<path d="M42.0473 45.8225L45.9952 48.4692L45.8118 48.7375C45.6163 49.0302 45.2252 49.2009 44.6874 49.1644C43.624 49.0912 42.3651 48.2496 41.9006 47.2861C41.6561 46.7982 41.6684 46.3713 41.8761 46.0786L42.0595 45.8103L42.0473 45.8225Z" fill="#4D3D8D"/>
<path d="M43.159 45.4077C42.0956 45.3345 41.6067 46.0541 42.0711 47.0177C42.5356 47.9812 43.7945 48.8227 44.8579 48.8959C45.9213 48.9691 46.4102 48.2495 45.9457 47.286C45.4813 46.3225 44.2223 45.4809 43.159 45.4077Z" fill="#FFA54B"/>
<path d="M42.2181 45.9443C42.0592 46.2248 42.0714 46.5663 42.2547 46.9444C42.4625 47.3835 42.8414 47.8104 43.3426 48.1397C43.8437 48.469 44.3815 48.6763 44.8582 48.7007C45.2737 48.7251 45.5915 48.6153 45.7626 48.3958C45.9582 48.1153 45.946 47.7494 45.7626 47.3591C45.5549 46.92 45.176 46.4931 44.6748 46.1638C44.1737 45.8345 43.6359 45.6272 43.1592 45.6028C42.7192 45.5784 42.3892 45.7004 42.2181 45.9443Z" fill="white"/>
<path d="M42.1937 45.9932C42.0592 46.2371 42.0837 46.5664 42.2548 46.9445C42.4626 47.3836 42.8415 47.8105 43.3426 48.1398C43.8438 48.4691 44.3816 48.6764 44.8582 48.7008C45.2738 48.7252 45.5916 48.6155 45.7627 48.3959C45.8972 48.152 45.8727 47.8227 45.7016 47.4446C45.4938 47.0055 45.1149 46.5786 44.6138 46.2493C44.1127 45.92 43.5749 45.7127 43.0982 45.6883C42.6826 45.6639 42.3648 45.7737 42.1937 45.9932Z" fill="#FFEE81"/>
<path d="M52.4365 65.0321L57.1056 65.9347L57.0445 66.2518C56.9833 66.6055 56.69 66.9104 56.1767 67.0811C55.1622 67.4348 53.6832 67.1421 52.8765 66.4469C52.461 66.0932 52.3021 65.7029 52.3876 65.3492L52.4487 65.0321H52.4365Z" fill="#4D3D8D"/>
<path d="M53.3043 64.2149C52.2898 64.5686 52.1309 65.4102 52.9376 66.1176C53.7443 66.825 55.2232 67.1055 56.2377 66.7518C57.2522 66.3981 57.4111 65.5565 56.6044 64.8491C55.7977 64.1417 54.3188 63.8612 53.3043 64.2149Z" fill="#FFA54B"/>
<path d="M52.6558 65.0687C52.6191 65.398 52.7658 65.7029 53.0713 65.9712C53.438 66.3005 53.9514 66.5323 54.5381 66.6542C55.1248 66.764 55.6992 66.7396 56.1515 66.581C56.5426 66.4347 56.7993 66.2151 56.8726 65.9468C56.9459 65.6053 56.787 65.2882 56.457 64.9955C56.0903 64.6662 55.577 64.4344 54.9903 64.3125C54.4036 64.2027 53.8292 64.2271 53.3769 64.3857C52.9613 64.532 52.7047 64.7759 52.6436 65.0687H52.6558Z" fill="white"/>
<path d="M52.6439 65.1296C52.6072 65.4101 52.7661 65.7029 53.0717 65.9834C53.4383 66.3127 53.9517 66.5444 54.5384 66.6664C55.1251 66.7762 55.6995 66.7518 56.1518 66.5932C56.5429 66.4468 56.7996 66.2273 56.8729 65.959C56.9096 65.6785 56.7507 65.3857 56.4451 65.1052C56.0784 64.7881 55.5651 64.5442 54.9784 64.4222C54.3917 64.3124 53.8172 64.3368 53.365 64.4954C52.9739 64.6418 52.7172 64.8613 52.6439 65.1296Z" fill="#FFA54B"/>
<path d="M50.9092 65.5199L55.6516 65.215L55.676 65.5321C55.7005 65.8858 55.4927 66.2517 55.0404 66.5566C54.1482 67.1542 52.6448 67.2518 51.6914 66.7761C51.2025 66.5322 50.9458 66.1907 50.9336 65.837L50.9092 65.5199Z" fill="#4D3D8D"/>
<path d="M51.5448 64.5076C50.6526 65.1052 50.7137 65.9712 51.667 66.4346C52.6326 66.9103 54.1238 66.8127 55.016 66.2151C55.9083 65.6175 55.8472 64.7515 54.8938 64.288C53.9282 63.8124 52.4371 63.91 51.5448 64.5076Z" fill="#FFA54B"/>
<path d="M51.1285 65.5077C51.1774 65.837 51.3974 66.081 51.7641 66.2761C52.1919 66.4956 52.7663 66.5932 53.353 66.5566C53.9519 66.52 54.502 66.3493 54.8931 66.0688C55.2353 65.837 55.4187 65.5565 55.4309 65.276C55.4064 64.9345 55.1864 64.654 54.7953 64.4588C54.3675 64.2393 53.793 64.1417 53.2064 64.1783C52.6074 64.2149 52.0574 64.3856 51.6663 64.6662C51.2996 64.9223 51.1163 65.215 51.1285 65.5077Z" fill="white"/>
<path d="M51.1289 65.5565C51.1656 65.837 51.3978 66.0809 51.7645 66.2761C52.1923 66.4956 52.7667 66.5932 53.3534 66.5566C53.9523 66.52 54.5024 66.3492 54.8935 66.0687C55.2357 65.837 55.4191 65.5565 55.4313 65.2759C55.3946 64.9954 55.1624 64.7515 54.7957 64.5563C54.3679 64.3368 53.7934 64.2392 53.2068 64.2758C52.6078 64.3124 52.0578 64.4832 51.6667 64.7637C51.3245 64.9954 51.1411 65.2759 51.1289 65.5565Z" fill="#FFEE81"/>
<path d="M44.382 54.5063L48.171 57.3725L47.9754 57.6287C47.7676 57.9214 47.3643 58.0555 46.8265 57.9946C45.7631 57.8604 44.5653 56.9579 44.1497 55.9699C43.942 55.4699 43.9664 55.043 44.1864 54.7625L44.382 54.5063Z" fill="#4D3D8D"/>
<path d="M45.5188 54.1528C44.4554 54.0186 43.9299 54.7138 44.3454 55.7018C44.761 56.6897 45.9588 57.5922 47.0222 57.7264C48.0856 57.8606 48.6111 57.1654 48.1956 56.1774C47.78 55.1895 46.5822 54.287 45.5188 54.1528Z" fill="#FFA54B"/>
<path d="M44.553 54.6285C44.3697 54.909 44.3819 55.2383 44.5286 55.6286C44.7119 56.0798 45.0786 56.5189 45.5553 56.8848C46.032 57.2385 46.5575 57.4703 47.0464 57.519C47.462 57.5678 47.7798 57.4703 47.9754 57.2629C48.1831 56.9824 48.1954 56.6287 48.0242 56.2262C47.8409 55.7749 47.4742 55.3359 46.9975 54.97C46.5209 54.6163 45.9953 54.3845 45.5064 54.3357C45.0664 54.2869 44.7241 54.3967 44.553 54.6285Z" fill="white"/>
<path d="M44.5289 54.6772C44.3823 54.9089 44.3823 55.2504 44.5289 55.6285C44.7123 56.0798 45.079 56.5189 45.5557 56.8848C46.0323 57.2385 46.5579 57.4702 47.0468 57.519C47.4624 57.5678 47.7802 57.4702 47.9757 57.2629C48.1224 57.0311 48.1224 56.6896 47.9757 56.3115C47.7924 55.8603 47.4257 55.4212 46.949 55.0553C46.4724 54.7016 45.9468 54.4698 45.4579 54.4211C45.0423 54.3723 44.7245 54.4699 44.5289 54.6772Z" fill="#FFEE81"/>
<path d="M31.377 49.4694L35.8627 51.0305L35.7527 51.3354C35.6427 51.6769 35.3004 51.9331 34.7749 52.0306C33.7237 52.2258 32.3059 51.7379 31.597 50.9329C31.2425 50.5183 31.1447 50.1158 31.267 49.7743L31.377 49.4694Z" fill="#4D3D8D"/>
<path d="M32.3548 48.7863C31.3036 48.9815 31.0225 49.8108 31.7192 50.6158C32.4159 51.4208 33.8459 51.9208 34.8971 51.7135C35.9482 51.5183 36.2293 50.689 35.5326 49.884C34.836 49.079 33.4059 48.579 32.3548 48.7863Z" fill="#FFA54B"/>
<path d="M31.5841 49.5426C31.4986 49.8597 31.6086 50.1768 31.8775 50.4939C32.183 50.8598 32.672 51.1769 33.2342 51.372C33.7964 51.5672 34.3709 51.616 34.8476 51.5184C35.2509 51.433 35.5321 51.2501 35.6543 50.9939C35.7643 50.6646 35.6665 50.3231 35.3854 49.9938C35.0798 49.6279 34.5909 49.3108 34.0287 49.1157C33.4664 48.9205 32.892 48.8717 32.4153 48.9693C31.9875 49.0547 31.6941 49.262 31.5964 49.5426H31.5841Z" fill="white"/>
<path d="M31.5603 49.5913C31.487 49.8596 31.597 50.1767 31.8659 50.4939C32.1714 50.8598 32.6603 51.1769 33.2226 51.372C33.7848 51.5671 34.3593 51.6159 34.836 51.5184C35.2393 51.433 35.5204 51.25 35.6427 50.9939C35.716 50.7256 35.606 50.4085 35.3371 50.0914C35.0315 49.7255 34.5426 49.4084 33.9804 49.2132C33.4181 49.0181 32.8437 48.9693 32.367 49.0669C31.9636 49.1522 31.6825 49.3352 31.5603 49.5913Z" fill="#FFEE81"/>
<path d="M23.1759 53.1038C22.3325 53.7624 22.467 54.6284 23.457 55.0187C24.4593 55.409 25.9382 55.1894 26.7816 54.5308C27.6249 53.8722 27.4905 53.0062 26.5005 52.616C25.4982 52.2257 24.0193 52.4452 23.1759 53.1038Z" fill="#FFA54B"/>
<path d="M22.8455 54.1406C22.9189 54.4577 23.1633 54.7016 23.5422 54.8602C23.9944 55.0431 24.5689 55.1041 25.1556 55.0065C25.7423 54.9212 26.2801 54.7016 26.659 54.3967C26.9768 54.1284 27.1479 53.8357 27.1234 53.5673C27.0746 53.2258 26.8301 52.9697 26.4145 52.799C25.9623 52.616 25.4001 52.555 24.8011 52.6526C24.2145 52.738 23.6767 52.9575 23.2978 53.2624C22.9555 53.543 22.7966 53.8601 22.8333 54.1528L22.8455 54.1406Z" fill="white"/>
<path d="M22.8461 54.1893C22.9072 54.4577 23.1516 54.6894 23.5305 54.848C23.9828 55.0309 24.5572 55.0919 25.1439 54.9943C25.7306 54.9089 26.2684 54.6894 26.6473 54.3845C26.9651 54.1162 27.1362 53.8234 27.1118 53.5551C27.0506 53.2868 26.8062 53.0551 26.4273 52.8965C25.9751 52.7135 25.4128 52.6526 24.8139 52.7501C24.2272 52.8355 23.6894 53.0551 23.3105 53.36C22.9927 53.6283 22.8216 53.921 22.8461 54.1893Z" fill="#FFA54B"/>
<path d="M13.5923 56.97C13.3828 56.6247 13.3788 56.3841 13.432 56.2437L16.89 58.136C16.7902 58.2611 16.586 58.3786 16.1871 58.3875L16.1868 58.3875C15.7352 58.3977 15.2053 58.2498 14.7177 57.9835C14.2299 57.7172 13.8227 57.3532 13.5931 56.9713L13.5931 56.9713L13.5923 56.97Z" fill="#4D3D8D" stroke="#171753" stroke-width="0.8"/>
<path d="M13.7623 56.6753C13.5246 56.2887 13.5484 56.0306 13.6225 55.8956C13.697 55.7598 13.9037 55.5997 14.3595 55.5893C14.8109 55.5791 15.3376 55.7269 15.8236 55.9931C16.3096 56.2592 16.7187 56.624 16.9553 57.0088C17.1929 57.3955 17.1691 57.6536 17.0951 57.7886C17.0206 57.9244 16.8139 58.0845 16.3581 58.0948C15.9067 58.1051 15.38 57.9573 14.894 57.6911C14.408 57.4249 13.9988 57.0602 13.7623 56.6753Z" fill="#FFA54B" stroke="#171753" stroke-width="0.8"/>
<path d="M13.9377 56.5965C13.7896 56.3443 13.7724 56.1651 13.818 56.0221C13.8698 55.932 14.0249 55.8066 14.3863 55.7966L14.3863 55.7967L14.3951 55.7962C14.789 55.7766 15.2662 55.9054 15.7513 56.1643C16.2255 56.4174 16.5923 56.7603 16.7923 57.0991C16.9656 57.3972 16.9621 57.5879 16.8955 57.7209C16.8302 57.8038 16.673 57.9022 16.3435 57.9119L16.3435 57.9118L16.3353 57.9122C15.9423 57.9318 15.4663 57.8037 14.9823 57.5459C14.5041 57.2789 14.1372 56.9348 13.9377 56.5965Z" fill="white" stroke="#171753" stroke-width="0.8"/>
<path d="M13.9372 56.5843C13.7926 56.338 13.7749 56.1649 13.7967 56.0598C13.8679 55.98 14.0254 55.8912 14.3376 55.882L14.3376 55.8821L14.3458 55.8817C14.7397 55.862 15.2168 55.9908 15.702 56.2498C16.1764 56.503 16.5435 56.8462 16.7434 57.1852C16.8959 57.4448 16.9072 57.6232 16.88 57.7262C16.8071 57.8049 16.6497 57.8908 16.343 57.8998L16.343 57.8997L16.3348 57.9001C15.9418 57.9197 15.4658 57.7915 14.9818 57.5337C14.5036 57.2668 14.1367 56.9227 13.9372 56.5843Z" fill="#FFA54B" stroke="#171753" stroke-width="0.8"/>
<path d="M54.001 53.3477L58.7434 53.616V53.9331C58.7068 54.2868 58.4623 54.6283 57.9734 54.8722C57.02 55.3601 55.5166 55.2747 54.6122 54.6893C54.1599 54.3966 53.9399 54.0185 53.9766 53.6648L53.9888 53.3477H54.001Z" fill="#4D3D8D"/>
<path d="M54.7464 52.4086C53.7931 52.8965 53.7442 53.7624 54.6364 54.3478C55.5287 54.9333 57.0321 55.0187 57.9977 54.5308C58.951 54.0429 58.9999 53.177 58.1077 52.5915C57.2154 52.0061 55.712 51.9207 54.7464 52.4086Z" fill="#FFA54B"/>
<path d="M54.2095 53.36C54.2095 53.6893 54.4051 53.9699 54.7473 54.2016C55.1506 54.4699 55.7007 54.6407 56.2996 54.6773C56.8985 54.7138 57.4607 54.6041 57.8885 54.3845C58.2552 54.1894 58.4752 53.9333 58.5119 53.6649C58.5363 53.3234 58.3407 53.0185 57.9741 52.7746C57.5707 52.5063 57.0207 52.3355 56.4218 52.2989C55.8229 52.2623 55.2606 52.3721 54.8328 52.5916C54.4417 52.799 54.2217 53.0673 54.1973 53.36H54.2095Z" fill="white"/>
<path d="M54.209 53.4087C54.209 53.6892 54.4045 53.9697 54.7468 54.2014C55.1501 54.4698 55.7002 54.6405 56.2991 54.6771C56.898 54.7137 57.4602 54.6039 57.888 54.3844C58.2547 54.1892 58.4747 53.9331 58.5114 53.6648C58.5114 53.3843 58.3158 53.1037 57.9736 52.872C57.5702 52.6037 57.0202 52.4329 56.4213 52.3963C55.8224 52.3597 55.2601 52.4695 54.8323 52.6891C54.4657 52.8842 54.2457 53.1403 54.209 53.4087Z" fill="#FFEE81"/>
</g>
<path d="M19.4068 70.6115C19.4087 70.0046 19.6594 69.2766 20.096 68.5901C20.5322 67.9044 21.1296 67.2986 21.7733 66.9276L21.7734 66.9276L24.3248 65.4566L24.4116 65.506L23.9475 69.861L21.3738 71.3449L21.3738 71.3449L21.3714 71.3462C21.2125 71.4393 21.0769 71.5361 20.9618 71.6215C20.9269 71.6473 20.8952 71.6711 20.8658 71.6932C20.7923 71.7484 20.7329 71.7929 20.6731 71.8329C20.5223 71.9336 20.4782 71.9284 20.4437 71.9186C20.2489 71.8557 20.1292 71.7743 19.9557 71.6563C19.9197 71.6318 19.8813 71.6057 19.8395 71.5779C19.6013 71.4194 19.4082 71.1289 19.4068 70.6115ZM21.3499 67.3441C20.8808 67.6136 20.4727 68.0357 20.1815 68.4952C19.8923 68.9516 19.6947 69.4829 19.6947 69.9839C19.6947 70.4915 19.912 70.937 20.3634 71.1282C20.7865 71.3074 21.2875 71.2054 21.7484 70.9405C22.2185 70.6705 22.6265 70.2446 22.9171 69.7843C23.2056 69.3274 23.4036 68.7962 23.4036 68.3008C23.4036 67.7931 23.1863 67.3476 22.7349 67.1564C22.3118 66.9772 21.8108 67.0793 21.3499 67.3441Z" fill="#E3E0EB" stroke="#171753" stroke-width="0.8"/>
<path d="M19.9195 70.917C19.9212 70.31 20.172 69.5818 20.6087 68.8951C21.0449 68.2094 21.6423 67.6035 22.286 67.2325L22.2861 67.2325L24.4364 65.9928V70.1797L21.8877 71.6491C21.2359 72.0189 20.7309 72.0453 20.4262 71.9172C20.1525 71.8022 19.9211 71.5094 19.9195 70.917ZM21.8626 67.649C21.3935 67.9185 20.9854 68.3406 20.6942 68.8002C20.405 69.2566 20.2073 69.7878 20.2073 70.2888C20.2073 70.7964 20.4247 71.242 20.8761 71.4331C21.2992 71.6123 21.8001 71.5103 22.2611 71.2455C22.7312 70.9754 23.1392 70.5496 23.4298 70.0892C23.7183 69.6323 23.9163 69.1011 23.9163 68.6057C23.9163 68.0981 23.699 67.6525 23.2476 67.4613C22.8245 67.2822 22.3235 67.3842 21.8626 67.649Z" fill="#171753" stroke="#171753" stroke-width="0.8"/>
<path d="M32.8795 31.2944L55.4072 0.52531L100.02 26.1769L77.6244 57.0416L32.8795 31.2944Z" fill="#4D3D8D" stroke="#171753" stroke-width="0.8"/>
<path d="M55.9209 2.95252L97.3076 26.7624L77.1114 54.6144L35.5933 30.7211L55.9209 2.95252Z" fill="#171753" stroke="#171753" stroke-width="0.8"/>
<path d="M43.9412 29.0945C41.1865 30.6265 38.33 31.264 35.6708 30.6152L55.7669 3.16292C57.0313 5.5839 57.1997 8.57959 56.5338 11.7312C55.8193 15.1127 54.1512 18.634 51.9137 21.7254C49.6759 24.8172 46.8841 27.4578 43.9412 29.0945Z" fill="#4D3D8D" stroke="#171753" stroke-width="0.8"/>
</svg>
