<svg width="253" height="340" viewBox="0 0 253 340" fill="none" xmlns="http://www.w3.org/2000/svg">
<path d="M2.56037 236.392L179.026 134.834C180.05 134.196 180.945 132.665 180.945 131.261V2.39984C180.945 0.996398 180.05 0.358471 179.026 0.996398L2.56037 102.554C1.53664 103.192 0.640875 104.723 0.640875 106.127V234.988C0.640875 236.391 1.53664 237.029 2.56037 236.392Z" fill="#FFEE81"/>
<path d="M1.79131 237.285C2.17521 237.285 2.5591 237.157 2.943 236.902L179.409 135.472C180.688 134.706 181.712 132.92 181.712 131.261V2.40006C181.712 1.37937 181.328 0.613864 180.688 0.231107C180.176 -0.151649 179.409 -0.0240653 178.769 0.358691L2.30317 101.917C1.0235 102.682 -0.000210285 104.468 -0.000210285 106.127V234.988C-0.000210285 236.009 0.383673 236.774 1.0235 237.157C1.27944 237.285 1.53538 237.285 1.79131 237.285ZM2.17523 235.754C2.04727 235.754 1.7913 235.881 1.66334 235.881C1.53537 235.754 1.40743 235.499 1.40743 234.988V106.127C1.40743 104.979 2.1752 103.575 2.943 103.193L179.409 1.50696C179.536 1.50696 179.792 1.37938 179.92 1.37938C180.048 1.50696 180.176 1.76213 180.176 2.27247V131.134C180.176 132.282 179.409 133.685 178.641 134.068L2.17523 235.754Z" fill="#171753"/>
<path d="M64.9851 89.5664L84.5068 78.3056L84.5068 100.827L64.9851 112.088L64.9851 89.5664Z" fill="#FFEE81" stroke="#171753" stroke-width="3.26094" stroke-miterlimit="10" stroke-linejoin="round"/>
<path d="M38.7098 104.761L58.2314 93.5001L58.2314 116.022L38.7098 127.283L38.7098 104.761Z" fill="#FFEE81" stroke="#171753" stroke-width="3.26094" stroke-miterlimit="10" stroke-linejoin="round"/>
<path d="M12.4353 120.573L31.957 109.313L31.957 131.834L12.4353 143.095L12.4353 120.573Z" fill="#FFEE81" stroke="#171753" stroke-width="3.26094" stroke-miterlimit="10" stroke-linejoin="round"/>
<path d="M64.9851 121.998L84.5068 110.737L84.5068 133.259L64.9851 144.52L64.9851 121.998Z" fill="#FFEE81" stroke="#171753" stroke-width="3.26094" stroke-miterlimit="10" stroke-linejoin="round"/>
<path d="M38.7098 137.192L58.2314 125.932L58.2314 148.453L38.7098 159.714L38.7098 137.192Z" fill="#FFEE81" stroke="#171753" stroke-width="3.26094" stroke-miterlimit="10" stroke-linejoin="round"/>
<path d="M12.4353 153.005L31.957 141.744L31.957 164.266L12.4353 175.527L12.4353 153.005Z" fill="#FFEE81" stroke="#171753" stroke-width="3.26094" stroke-miterlimit="10" stroke-linejoin="round"/>
<rect width="32.1885" height="1.25324" transform="matrix(0.829525 -0.482881 8.67068e-08 -1 135.731 104.927)" fill="#171753"/>
<rect width="25.9414" height="1.25548" transform="matrix(0.829576 -0.483776 8.65517e-08 -1 135.731 101.706)" fill="#171753"/>
<rect width="36.033" height="1.25222" transform="matrix(0.829502 -0.482474 8.67775e-08 -1 135.731 98.4846)" fill="#171753"/>
<rect width="25.9414" height="1.25548" transform="matrix(0.829576 -0.483776 8.65517e-08 -1 135.731 85.1399)" fill="#171753"/>
<rect width="8.16244" height="1.27614" transform="matrix(0.830013 -0.491997 8.51503e-08 -1 135.731 88.821)" fill="#171753"/>
<rect width="8.16244" height="1.27614" transform="matrix(0.830013 -0.491997 8.51503e-08 -1 135.731 76.8562)" fill="#171753"/>
<rect width="8.16244" height="1.27614" transform="matrix(0.830013 -0.491997 8.51503e-08 -1 135.731 64.8918)" fill="#171753"/>
<rect width="36.0165" height="4.23202" rx="2.11601" transform="matrix(0.82988 -0.489398 8.55889e-08 -1 135.731 71.8772)" stroke="#171753" stroke-width="2.32925"/>
<rect width="36.0165" height="4.23202" rx="2.11601" transform="matrix(0.82988 -0.489398 8.55889e-08 -1 135.731 59.4517)" stroke="#171753" stroke-width="2.32925"/>
<path d="M135.731 47.0178C135.731 48.0852 136.45 48.5215 137.336 47.9923L150.068 40.3889C150.954 39.8597 151.672 38.5654 151.672 37.4981L151.672 37.0777C151.672 36.0104 150.954 35.5741 150.068 36.1033L137.336 43.7067C136.45 44.2359 135.731 45.5301 135.731 46.5975L135.731 47.0178Z" fill="#FFE850"/>
<rect x="1.35509" y="-2.47739" width="34.1412" height="53.6857" rx="3.20109" transform="matrix(0.831101 -0.519432 8.07587e-08 -1 96.0277 122.861)" fill="#FFE850" stroke="#171753" stroke-width="3.26094"/>
<rect width="18.2528" height="1.26009" transform="matrix(0.829678 -0.485613 8.62349e-08 -1 135.731 95.2637)" fill="#171753"/>
<ellipse rx="1.67825" ry="1.5536" transform="matrix(0.830928 -0.513872 8.16154e-08 -1 137.126 83.6438)" fill="#171753"/>
<ellipse rx="1.67825" ry="1.5536" transform="matrix(0.830928 -0.513872 8.16154e-08 -1 157.053 72.1394)" fill="#171753"/>
<path d="M26.7469 274.348L203.212 172.79C204.236 172.152 205.132 170.621 205.132 169.218V40.3566C205.132 38.9532 204.236 38.3153 203.212 38.9532L26.7469 140.511C25.7232 141.149 24.8274 142.68 24.8274 144.084V272.945C24.8274 274.348 25.7232 274.986 26.7469 274.348Z" fill="#FFF2A0"/>
<path d="M25.9779 275.369C26.3617 275.369 26.7457 275.241 27.1296 274.986L203.595 173.428C204.875 172.662 205.898 170.876 205.898 169.218V40.3564C205.898 39.3357 205.515 38.5702 204.875 38.1874C204.363 37.8046 203.595 37.9322 202.955 38.315L26.4897 139.873C25.2101 140.639 24.1863 142.425 24.1863 144.083V272.945C24.1863 273.965 24.5702 274.731 25.2101 275.114C25.338 275.241 25.7219 275.369 25.9779 275.369ZM26.3618 273.71C26.2338 273.71 25.9779 273.838 25.8499 273.838C25.7219 273.71 25.594 273.455 25.594 272.945V144.083C25.594 142.935 26.3618 141.532 27.1296 141.149L203.595 39.4633C203.723 39.4633 203.979 39.3357 204.107 39.3357C204.235 39.4633 204.363 39.7184 204.363 40.2288V169.09C204.363 170.238 203.595 171.642 202.827 172.025L26.3618 273.71Z" fill="#171753"/>
<path d="M137.473 150.766L117.951 162.027V139.505L137.473 128.245V150.766Z" fill="#FFEE81" stroke="#171753" stroke-width="3.26094" stroke-miterlimit="10" stroke-linejoin="round"/>
<path d="M163.747 135.572L144.226 146.833V124.311L163.747 113.05V135.572Z" fill="#FFEE81" stroke="#171753" stroke-width="3.26094" stroke-miterlimit="10" stroke-linejoin="round"/>
<path d="M190.023 119.759L170.501 131.02V108.498L190.023 97.2375V119.759Z" fill="#FFEE81" stroke="#171753" stroke-width="3.26094" stroke-miterlimit="10" stroke-linejoin="round"/>
<path d="M137.473 118.335L117.951 129.596V107.074L137.473 95.8132V118.335Z" fill="#FFEE81" stroke="#171753" stroke-width="3.26094" stroke-miterlimit="10" stroke-linejoin="round"/>
<path d="M163.747 103.14L144.226 114.401V91.8795L163.747 80.6187V103.14Z" fill="#FFEE81" stroke="#171753" stroke-width="3.26094" stroke-miterlimit="10" stroke-linejoin="round"/>
<path d="M190.023 87.3279L170.501 98.5887V76.067L190.023 64.8062V87.3279Z" fill="#FFEE81" stroke="#171753" stroke-width="3.26094" stroke-miterlimit="10" stroke-linejoin="round"/>
<rect width="32.1885" height="1.25324" transform="matrix(-0.829525 0.482881 0 1 66.7266 135.406)" fill="#171753"/>
<rect width="25.9414" height="1.25548" transform="matrix(-0.829576 0.483776 0 1 66.7266 138.627)" fill="#171753"/>
<rect width="36.033" height="1.25222" transform="matrix(-0.829502 0.482474 0 1 66.7266 141.848)" fill="#171753"/>
<rect width="25.9414" height="1.25548" transform="matrix(-0.829576 0.483776 0 1 66.7266 155.193)" fill="#171753"/>
<rect width="8.16244" height="1.27614" transform="matrix(-0.830013 0.491997 0 1 66.7266 151.512)" fill="#171753"/>
<rect width="8.16244" height="1.27614" transform="matrix(-0.830013 0.491997 0 1 66.7266 163.477)" fill="#171753"/>
<rect width="8.16244" height="1.27614" transform="matrix(-0.830013 0.491997 0 1 66.7266 175.441)" fill="#171753"/>
<rect width="36.0165" height="4.23202" rx="2.11601" transform="matrix(-0.82988 0.489398 0 1 66.7266 168.456)" stroke="#171753" stroke-width="2.32925"/>
<rect width="36.0165" height="4.23202" rx="2.11601" transform="matrix(-0.82988 0.489398 0 1 66.7266 180.881)" stroke="#171753" stroke-width="2.32925"/>
<path d="M66.7266 193.315C66.7266 192.248 66.0082 191.812 65.1221 192.341L52.39 199.944C51.5039 200.473 50.7855 201.768 50.7855 202.835V203.255C50.7855 204.323 51.5039 204.759 52.39 204.23L65.1221 196.626C66.0082 196.097 66.7266 194.803 66.7266 193.736V193.315Z" fill="#FFE850"/>
<rect x="-1.35509" y="2.47739" width="34.1412" height="53.6857" rx="3.20109" transform="matrix(-0.831101 0.519432 0 1 104.178 113.925)" fill="#FFE850" stroke="#171753" stroke-width="3.26094"/>
<rect width="18.2528" height="1.26009" transform="matrix(-0.829678 0.485613 0 1 66.7266 145.069)" fill="#171753"/>
<ellipse rx="1.67825" ry="1.5536" transform="matrix(-0.830928 0.513872 0 1 65.3321 156.689)" fill="#171753"/>
<ellipse rx="1.67825" ry="1.5536" transform="matrix(-0.830928 0.513872 0 1 45.4053 168.194)" fill="#171753"/>
<path d="M56.8159 175.052L234.433 72.7285C235.969 71.8354 237.504 71.7078 238.528 72.2182C245.054 75.1526 249.533 78.5974 249.533 78.5974L240.959 86.8905V214.221C240.959 219.069 238.016 224.81 234.305 226.979L61.8066 326.241L67.821 329.175L63.4702 335.937C63.4702 335.937 58.0956 334.534 52.0812 329.303C50.8015 328.41 50.0337 326.624 50.0337 324.072V187.683C50.1617 182.835 53.1049 177.093 56.8159 175.052Z" fill="#171753"/>
<path d="M63.8547 336.83L68.9734 328.92L63.4708 326.241L234.818 227.617C238.657 225.448 241.856 219.452 241.856 214.221V87.4007L250.813 78.7249L250.174 78.2145C250.046 78.0869 245.567 74.6421 239.041 71.7077C237.505 70.9422 235.841 71.1973 234.178 72.0904L56.5607 174.286C52.7217 176.583 49.5225 182.452 49.5225 187.683V324.072C49.5225 326.751 50.4183 328.792 51.8259 329.813C57.8403 335.044 63.2149 336.575 63.4708 336.575L63.8547 336.83ZM66.798 329.43L63.2149 335.044C61.8073 334.534 57.4564 332.875 52.5937 328.665C51.442 327.899 50.8022 326.113 50.8022 324.072V187.683C50.8022 183.09 53.6174 177.604 57.0725 175.562L234.818 73.3663C236.097 72.6008 237.377 72.4732 238.273 72.9835H238.401C243.263 75.1525 247.102 77.7042 248.51 78.8525L240.32 86.7627V214.221C240.32 218.814 237.505 224.3 234.05 226.341L60.2717 326.368L66.798 329.43Z" fill="#171753"/>
<path d="M243.137 81.7867L240.961 146.345L127.583 211.669L60.9127 172.628L230.98 74.7695L243.137 81.7867Z" fill="#171753"/>
<path d="M127.582 212.435L241.728 146.856L243.903 81.4044L230.979 74.0044L59.3759 172.628L127.582 212.435ZM240.32 145.963L127.582 210.776L62.3192 172.628L230.979 75.663L242.368 82.1699L240.32 145.963Z" fill="#171753"/>
<path d="M102.881 328.409C103.265 326.751 104.417 325.347 105.825 324.454L112.735 320.499C119.773 316.416 125.531 306.465 125.531 298.427V252.751C125.531 252.751 125.531 252.623 125.659 252.623L132.57 248.668C132.698 248.541 132.826 248.668 132.826 248.796C132.314 250.582 131.93 252.368 131.93 254.155V287.199C131.93 289.24 132.314 290.899 133.081 292.175L133.849 286.816C133.849 286.689 133.977 286.689 133.977 286.689L148.437 288.347H148.565C151.637 284.392 153.684 279.289 153.684 274.823V241.779C153.684 239.993 153.3 238.462 152.788 237.313C152.788 237.186 152.788 237.186 152.788 237.058L159.826 232.975C159.954 232.975 160.082 232.975 160.082 233.103V278.396C160.082 286.561 165.969 290.006 173.007 285.796L180.173 281.713C180.941 281.33 181.453 281.203 181.965 281.458L182.093 281.585C182.093 281.585 188.619 284.137 195.529 289.368C195.657 289.368 195.657 289.496 195.529 289.623L190.154 294.471L123.74 331.216L117.214 338.871C117.214 338.871 117.086 338.999 117.086 338.871C116.062 338.488 108.128 335.426 103.393 330.833C102.881 330.451 102.626 329.557 102.881 328.409Z" fill="#FFF2A0"/>
<path d="M117.088 339.637C117.344 339.637 117.6 339.509 117.728 339.382L124.126 331.854L190.54 295.11L190.668 294.982L196.043 290.134C196.299 290.006 196.299 289.751 196.299 289.496C196.299 289.241 196.171 288.986 195.915 288.858C189.005 283.627 182.606 281.075 182.351 280.948H182.223C181.327 280.437 180.431 280.82 179.791 281.203L172.625 285.286C169.426 287.072 166.483 287.455 164.179 286.179C162.004 284.903 160.724 282.224 160.724 278.524V233.231C160.724 232.976 160.596 232.593 160.34 232.465C160.084 232.338 159.7 232.338 159.445 232.465L152.406 236.548C152.023 236.803 151.895 237.314 152.022 237.696C152.534 238.845 152.918 240.248 152.918 241.907V274.951C152.918 279.034 151.127 283.882 148.184 287.837L134.107 286.179C133.595 286.179 133.211 286.434 133.083 286.944L132.828 289.241C132.7 288.73 132.7 288.093 132.7 287.455V254.41C132.7 252.879 132.956 251.093 133.467 249.307C133.595 248.924 133.467 248.541 133.211 248.413C132.956 248.158 132.572 248.158 132.188 248.286L125.278 252.241C125.022 252.369 124.894 252.751 124.894 253.007V298.427C124.894 306.337 119.263 315.906 112.481 319.861L105.571 323.816C103.779 324.837 102.628 326.496 102.244 328.282C101.988 329.558 102.244 330.706 102.883 331.344C107.746 336.065 115.936 339.254 116.832 339.509C116.832 339.637 116.96 339.637 117.088 339.637ZM189.773 293.834L123.23 330.706L123.102 330.834L116.832 338.106C114.912 337.341 108.002 334.534 103.779 330.323C103.395 330.068 103.395 329.43 103.523 328.537C103.779 327.134 104.803 325.858 106.211 325.092L113.121 321.137C120.415 316.927 126.301 306.72 126.301 298.427V253.134L131.804 249.945C131.42 251.348 131.292 252.751 131.292 254.155V287.199C131.292 289.368 131.676 291.155 132.572 292.558L133.595 294.344L134.491 287.327L148.311 288.986C148.567 288.986 148.951 288.858 149.079 288.603C152.406 284.265 154.326 279.034 154.326 274.569V241.524C154.326 239.865 154.07 238.462 153.558 237.186L159.317 233.869V278.141C159.317 282.351 160.852 285.541 163.539 287.072C166.227 288.603 169.682 288.348 173.393 286.179L180.559 282.096C181.327 281.713 181.455 281.841 181.583 281.841L181.839 281.968C181.967 281.968 188.109 284.52 194.635 289.241L189.773 293.834Z" fill="#171753"/>
<path d="M117.089 339.765C117.345 339.765 117.601 339.637 117.729 339.51L121.952 334.534L117.345 333.896C116.45 333.513 108.644 330.196 103.909 326.368L103.269 325.858L102.757 326.496C102.245 327.134 102.245 327.389 102.117 327.899C102.117 328.027 102.117 328.154 101.989 328.41C101.733 329.685 101.989 330.834 102.629 331.472C107.492 336.192 115.682 339.382 116.578 339.637C116.833 339.765 116.961 339.765 117.089 339.765ZM119.137 335.554L116.834 338.234C114.914 337.468 108.004 334.661 103.781 330.451C103.397 330.196 103.397 329.558 103.525 328.665C103.525 328.41 103.653 328.282 103.653 328.027C108.9 331.854 116.578 335.044 116.834 335.172H116.961L119.137 335.554Z" fill="#171753"/>
<path d="M125.535 298.427V280.693C128.478 279.672 130.653 278.907 130.909 278.907C131.037 278.907 131.293 279.034 131.933 279.162V287.072C131.933 289.114 132.317 290.772 133.085 292.048L133.852 286.689C133.852 286.562 133.98 286.562 133.98 286.562L148.441 288.22H148.569C149.336 287.327 149.976 286.179 150.616 285.158C151 285.286 151.256 285.414 151.256 285.414L149.72 316.289L142.17 320.882L141.914 321.138L135.772 324.582L134.876 323.434C134.876 323.434 127.198 319.224 119.52 314.503C123.103 309.782 125.535 303.786 125.535 298.427Z" fill="#171753"/>
<path d="M119.009 332.62L126.431 328.282C133.469 324.199 139.1 314.375 139.1 306.337V260.534L146.522 256.324C145.882 258.238 145.498 260.152 145.498 262.065V295.11C145.498 302 150.361 304.806 156.375 301.362C162.39 297.917 167.252 289.496 167.252 282.607V249.562C167.252 247.776 166.868 246.245 166.229 244.969L173.651 240.759V286.562C173.651 294.6 179.281 297.917 186.319 293.834L193.741 289.496C195.149 288.603 196.429 289.369 196.429 291.027C196.429 292.686 195.277 294.727 193.741 295.62L118.881 338.744C117.474 339.637 116.194 338.872 116.194 337.213C116.322 335.554 117.474 333.513 119.009 332.62Z" fill="#FFE850"/>
<path d="M117.728 339.765C118.24 339.765 118.752 339.637 119.264 339.254L194.124 296.258C195.788 295.237 197.195 292.941 197.195 291.027C197.195 289.879 196.811 289.113 196.044 288.73C195.276 288.348 194.38 288.348 193.484 288.858L186.062 293.196C182.863 294.982 179.92 295.365 177.872 294.089C175.697 292.813 174.545 290.134 174.545 286.561V239.482L165.46 244.713L165.716 245.351C166.355 246.5 166.611 247.903 166.611 249.562V282.606C166.611 289.241 161.877 297.406 156.118 300.723C153.431 302.254 150.999 302.51 149.208 301.489C147.416 300.468 146.393 298.172 146.393 295.11V262.065C146.393 260.406 146.649 258.493 147.288 256.579L147.928 254.793L138.587 260.151V306.465C138.587 314.247 133.084 323.816 126.302 327.772L118.88 332.109C117.216 333.13 115.809 335.427 115.809 337.34C115.809 338.489 116.193 339.254 116.96 339.637C117.088 339.765 117.344 339.765 117.728 339.765ZM195.02 289.879C195.148 289.879 195.276 289.879 195.404 290.006C195.66 290.134 195.788 290.517 195.788 291.027C195.788 292.43 194.764 294.217 193.484 294.982L118.624 338.106C118.112 338.361 117.728 338.489 117.472 338.234C117.216 338.106 117.088 337.723 117.088 337.213C117.088 335.809 118.112 334.023 119.392 333.258L126.814 328.92C133.98 324.709 139.866 314.63 139.866 306.337V260.917L145.369 257.727C144.985 259.131 144.857 260.534 144.857 261.937V294.982C144.857 298.554 146.137 301.361 148.44 302.637C150.744 303.913 153.687 303.658 156.886 301.872C163.156 298.299 168.147 289.623 168.147 282.479V249.434C168.147 247.775 167.891 246.372 167.379 245.096L173.138 241.779V286.306C173.138 290.517 174.545 293.579 177.233 295.11C179.92 296.641 183.375 296.258 186.958 294.217L194.38 289.879C194.508 290.006 194.764 289.879 195.02 289.879Z" fill="#171753"/>
<path d="M167.253 249.562V282.606C167.253 289.496 162.39 297.917 156.376 301.362C150.361 304.806 145.499 301.999 145.499 295.11V262.065C145.499 260.279 145.883 258.238 146.522 256.324L142.683 258.493V245.862H166.741C167.125 247.01 167.253 248.158 167.253 249.562Z" fill="#FFF2A0"/>
<path d="M151.512 303.658C153.175 303.658 154.967 303.148 156.759 302.127C163.029 298.555 168.02 289.879 168.02 282.734V249.69C168.02 248.286 167.764 247.01 167.38 245.862L167.252 245.352H141.914V260.024L145.37 258.11C144.986 259.514 144.858 260.917 144.858 262.321V295.365C144.858 298.938 146.137 301.745 148.441 303.02C149.336 303.403 150.36 303.658 151.512 303.658ZM166.228 246.755C166.484 247.648 166.612 248.541 166.612 249.69V282.734C166.612 289.369 161.877 297.534 156.119 300.851C153.431 302.383 151 302.638 149.208 301.617C147.417 300.596 146.393 298.3 146.393 295.238V262.193C146.393 260.534 146.649 258.621 147.289 256.707L147.929 254.921L143.578 257.472V246.755H166.228V246.755Z" fill="#171753"/>
<path d="M151.257 245.99H166.741C167.125 247.01 167.253 248.286 167.253 249.562V282.607C167.253 287.71 164.566 293.706 160.727 297.917C156.888 298.172 154.072 295.365 154.072 290.134V257.089C154.072 255.303 154.456 253.262 155.096 251.348L151.257 253.517V245.99Z" fill="#171753"/>
<path d="M160.216 298.682C160.471 298.682 160.599 298.682 160.855 298.682H161.111L161.367 298.427C165.462 293.962 168.149 287.838 168.149 282.734V249.689C168.149 248.286 167.893 247.01 167.51 245.862L167.382 245.352H150.618V255.048L154.073 253.134C153.689 254.538 153.561 255.941 153.561 257.345V290.389C153.561 293.451 154.457 295.748 155.993 297.279C157.016 298.172 158.552 298.682 160.216 298.682ZM160.471 297.151C159.064 297.151 157.912 296.769 157.016 296.003C155.737 294.727 154.969 292.813 154.969 290.262V257.217C154.969 255.558 155.225 253.645 155.865 251.731L156.504 249.945L152.154 252.496V246.883H166.358C166.614 247.776 166.742 248.669 166.742 249.817V282.862C166.614 287.455 164.182 293.069 160.471 297.151Z" fill="#171753"/>
<path d="M163.67 247.776V280.82C163.67 287.71 158.807 296.131 152.793 299.576C150.873 300.724 149.082 301.107 147.418 300.979C146.266 299.703 145.499 297.662 145.499 294.982V261.938C145.499 260.152 145.883 258.11 146.522 256.197L142.683 258.365V254.921C142.683 254.665 142.811 254.538 142.811 254.283L142.683 254.41V245.607H163.414C163.542 246.5 163.67 247.138 163.67 247.776Z" fill="#FFF2A0"/>
<path d="M147.801 301.872C149.465 301.872 151.256 301.362 153.048 300.341C159.318 296.769 164.309 288.093 164.309 280.948V247.904C164.309 247.266 164.309 246.628 164.181 245.99L164.053 245.352H141.787V260.024L145.242 258.11C144.858 259.514 144.73 260.917 144.73 262.321V295.365C144.73 298.045 145.498 300.214 146.777 301.745L147.033 302H147.289C147.545 301.872 147.673 301.872 147.801 301.872ZM162.773 246.755C162.773 247.138 162.773 247.521 162.773 247.904V280.948C162.773 287.583 158.038 295.748 152.28 299.065C150.616 299.958 149.081 300.469 147.673 300.469C146.649 299.193 146.137 297.407 146.137 295.238V262.193C146.137 260.534 146.393 258.621 147.033 256.707L147.673 254.921L143.322 257.472V255.303C143.322 255.176 143.322 255.048 143.45 254.921L144.09 253.135L143.322 253.517V246.755H162.773V246.755Z" fill="#171753"/>
<path d="M99.8168 205.545L101.864 303.658L62.8345 326.113L50.1659 318.84V188.193C50.1659 185.003 51.4455 181.559 53.2371 179.007L75.1193 191.638L99.8168 205.545Z" fill="#171753"/>
<path d="M62.8333 327.006L102.631 304.041V303.658L100.583 205.162L75.502 190.872L52.9799 177.986L52.596 178.497C50.5486 181.304 49.3969 185.004 49.3969 188.193V319.351L62.8333 327.006ZM101.095 303.275L62.8333 325.347L50.9325 318.585V188.193C50.9325 185.514 51.8283 182.452 53.4918 179.9L74.8622 192.148L99.1758 205.928L101.095 303.275Z" fill="#171753"/>
<path d="M67.5674 335.427L245.185 233.231C248.896 231.062 251.839 225.448 251.839 220.472V84.0836C251.839 79.2354 248.896 76.9388 245.185 79.1078L67.5674 181.304C63.8564 183.473 60.9132 189.086 60.9132 194.062V330.451C60.9132 335.299 63.8564 337.596 67.5674 335.427Z" fill="#FFE850"/>
<path d="M64.879 336.958C65.7747 336.958 66.7984 336.703 67.9501 336.065L245.567 233.869C249.406 231.7 252.605 225.703 252.605 220.472V84.0836C252.605 81.2767 251.582 79.1078 249.918 78.0871C248.511 77.194 246.719 77.3216 244.8 78.4698L67.1823 180.666C63.3434 182.835 60.1442 188.831 60.1442 194.062V330.451C60.1442 333.258 61.1679 335.427 62.8315 336.448C63.4713 336.83 64.2391 336.958 64.879 336.958ZM67.1823 334.917C65.7747 335.682 64.4951 335.81 63.5993 335.299C62.3196 334.534 61.6798 332.875 61.6798 330.579V194.062C61.6798 189.469 64.495 183.983 67.9501 181.942L245.567 79.7457C246.975 78.9802 248.255 78.8526 249.15 79.3629C250.43 80.1284 251.07 81.7871 251.07 84.0836V220.6C251.07 225.193 248.255 230.679 244.8 232.721L67.1823 334.917Z" fill="#171753"/>
<path d="M68.2069 321.01L244.544 219.452C245.568 218.814 246.464 217.283 246.464 215.88V87.0182C246.464 85.6148 245.568 84.9769 244.544 85.6148L68.0789 187.173C67.0552 187.811 66.1594 189.342 66.1594 190.745V319.607C66.2874 321.01 67.1831 321.648 68.2069 321.01Z" fill="#ECFFFE"/>
<path d="M67.4379 321.903C67.8218 321.903 68.2057 321.775 68.5896 321.52L244.927 220.089C246.207 219.324 247.23 217.538 247.23 215.879V87.0177C247.23 85.9971 246.847 85.2315 246.207 84.8488C245.695 84.466 244.927 84.5936 244.287 84.9764L67.8218 186.534C66.5421 187.3 65.5184 189.086 65.5184 190.745V319.606C65.5184 320.627 65.9023 321.392 66.5421 321.775C66.798 321.903 67.054 321.903 67.4379 321.903ZM67.8218 320.372C67.6938 320.372 67.4379 320.499 67.3099 320.499C67.1819 320.372 67.054 320.116 67.054 319.606V190.745C67.054 189.596 67.8218 188.193 68.5896 187.81L244.927 86.1246C245.055 86.1246 245.311 85.9971 245.439 85.9971C245.567 86.1246 245.695 86.3798 245.695 86.8902V215.751C245.695 216.9 244.927 218.303 244.159 218.686L67.8218 320.372Z" fill="#171753"/>
<path d="M66.5433 319.99L242.881 218.432C243.905 217.794 244.8 216.263 244.8 214.859V85.9979C244.8 85.8703 244.8 85.6151 244.8 85.4875C245.696 85.1048 246.464 85.7427 246.464 87.0185V215.88C246.464 217.283 245.568 218.942 244.544 219.452L68.0789 321.01C67.1831 321.521 66.4153 321.138 66.1594 320.117C66.4153 319.99 66.4153 319.99 66.5433 319.99Z" fill="#171753"/>
<path d="M67.4379 321.903C67.8218 321.903 68.2057 321.775 68.5896 321.52L244.927 220.09C246.207 219.324 247.23 217.538 247.23 215.879V87.0182C247.23 86.1251 246.847 85.3596 246.335 84.9768C245.823 84.5941 245.183 84.5941 244.543 84.8492L244.031 85.1044V85.4872C244.031 85.6147 244.031 85.7423 244.031 85.8699V214.731C244.031 215.879 243.264 217.283 242.496 217.666L66.1582 319.351L66.5421 319.989L66.1582 319.351L65.5184 319.606V320.244C65.6463 321.01 66.0302 321.52 66.6701 321.775C66.926 321.903 67.1819 321.903 67.4379 321.903ZM245.567 86.1251C245.695 86.2527 245.695 86.5078 245.695 86.8906V215.752C245.695 216.9 244.927 218.304 244.159 218.686L67.6938 320.244C67.4379 320.372 67.3099 320.372 67.1819 320.372C67.1819 320.372 67.1819 320.372 67.054 320.372L243.264 219.069C244.543 218.304 245.567 216.517 245.567 214.859V86.1251V86.1251Z" fill="#171753"/>
<path d="M149.978 282.096L162.774 274.696C163.286 274.314 163.798 273.548 163.798 272.783C163.798 272.017 163.286 271.634 162.774 272.017L149.978 279.417C149.466 279.8 148.954 280.565 148.954 281.331C148.954 282.096 149.466 282.479 149.978 282.096Z" fill="#171753"/>
<path d="M149.592 282.99C149.848 282.99 150.104 282.862 150.36 282.734L163.157 275.334C163.925 274.824 164.564 273.803 164.564 272.783C164.564 272.145 164.309 271.635 163.797 271.379C163.413 271.124 162.901 271.124 162.389 271.379L149.592 278.779C148.825 279.29 148.185 280.31 148.185 281.331C148.185 281.969 148.441 282.479 148.953 282.734C149.209 282.862 149.336 282.99 149.592 282.99ZM163.029 272.655C163.029 272.783 163.029 272.783 163.029 272.655C163.029 273.293 162.645 273.931 162.389 274.059L149.72 281.331V281.203C149.72 280.693 150.104 280.055 150.36 279.928L163.029 272.655Z" fill="#171753"/>
<path d="M161.448 291.41L163.999 292.873L163.297 294.09L160.746 292.627L161.448 291.41Z" fill="#ECFFFE"/>
<path d="M54.0027 289.496L57.0739 291.282C57.5858 291.538 58.0977 291.282 58.0977 290.517V282.224C58.0977 281.458 57.7138 280.693 57.0739 280.31L54.0027 278.524C53.4909 278.269 52.979 278.524 52.979 279.289V287.582C52.979 288.348 53.4909 289.241 54.0027 289.496Z" fill="#171753"/>
<path d="M54.0027 273.293L57.0739 275.079C57.5858 275.334 58.0977 275.079 58.0977 274.314V266.021C58.0977 265.255 57.7138 264.49 57.0739 264.107L54.0027 262.321C53.4909 262.065 52.979 262.321 52.979 263.086V271.379C52.979 272.017 53.4909 272.91 54.0027 273.293Z" fill="#171753"/>
<path d="M238.211 212.518L245.857 216.92L245.154 218.136L237.507 213.734L238.211 212.518Z" fill="#ECFFFE"/>
<path d="M215.475 88.7341L216.179 89.9495L88.6263 163.375L87.9225 162.16L215.475 88.7341Z" fill="#171753"/>
<rect width="42.0052" height="1.33706" transform="matrix(0.830485 -0.480516 -4.05641e-08 -1 193.82 238.848)" fill="#171753"/>
<rect width="33.8547" height="1.3377" transform="matrix(0.830492 -0.48075 -4.05446e-08 -1 193.82 235.627)" fill="#171753"/>
<rect width="47.021" height="1.33677" transform="matrix(0.830482 -0.48041 -4.05729e-08 -1 193.82 232.406)" fill="#171753"/>
<rect width="33.8547" height="1.3377" transform="matrix(0.830492 -0.48075 -4.05446e-08 -1 193.82 219.061)" fill="#171753"/>
<rect width="10.6571" height="1.34378" transform="matrix(0.830556 -0.482971 -4.03613e-08 -1 193.82 222.742)" fill="#171753"/>
<rect width="10.6571" height="1.34378" transform="matrix(0.830556 -0.482971 -4.03613e-08 -1 193.82 210.777)" fill="#171753"/>
<rect width="10.6571" height="1.34378" transform="matrix(0.830556 -0.482971 -4.03613e-08 -1 193.82 198.813)" fill="#171753"/>
<rect width="47.0179" height="4.47273" rx="2.23636" transform="matrix(0.830536 -0.482255 -4.04202e-08 -1 193.82 205.798)" stroke="#171753" stroke-width="2.32925"/>
<rect width="47.0179" height="4.47273" rx="2.23636" transform="matrix(0.830536 -0.482255 -4.04202e-08 -1 193.82 193.373)" stroke="#171753" stroke-width="2.32925"/>
<path d="M193.82 180.939C193.82 182.006 194.539 182.453 195.426 181.936L213.042 171.67C213.928 171.153 214.647 169.869 214.647 168.802L214.647 168.178C214.647 167.111 213.928 166.664 213.042 167.181L195.426 177.447C194.539 177.964 193.82 179.248 193.82 180.315L193.82 180.939Z" fill="#FFE850"/>
<rect width="23.8233" height="1.33903" transform="matrix(0.830507 -0.481235 -4.05044e-08 -1 193.82 229.185)" fill="#171753"/>
<ellipse rx="2.19368" ry="1.58881" transform="matrix(0.830723 -0.48956 -3.9826e-08 -1 195.643 217.318)" fill="#171753"/>
<ellipse rx="2.19368" ry="1.58881" transform="matrix(0.830723 -0.48956 -3.9826e-08 -1 221.677 202.287)" fill="#171753"/>
<rect width="213.892" height="15.1024" transform="matrix(-0.829753 0.486997 0 1 244.202 120.931)" fill="#FFE850" stroke="#171753" stroke-width="4.65849"/>
<rect width="213.815" height="31.9705" transform="matrix(-0.830054 0.492804 0 1 244.202 86.49)" fill="#FFEE81" stroke="#171753" stroke-width="4.65849"/>
<rect width="26.5417" height="5.92385" rx="1.93262" transform="matrix(-0.830198 0.495782 0 1 95.5645 194.141)" fill="#171753"/>
<path d="M200.717 128.434L213.161 120.484L200.717 120.138L199.335 121.521L198.298 125.669L200.717 128.434Z" fill="#171753"/>
<path d="M200.37 129.817L196.913 125.669V124.978L197.95 120.484L198.296 120.138L200.024 118.41H200.37L213.505 119.101L213.851 120.484L213.159 120.83L200.37 129.817ZM199.333 124.978L201.061 126.706L210.048 120.83L201.407 120.484L200.37 121.521L199.333 124.978Z" fill="#171753"/>
<path d="M221.452 58.2648L182.738 35.7968C180.664 34.4141 178.59 34.4141 177.207 35.1055L164.418 43.0557C165.109 44.0927 170.294 55.1539 170.64 57.2278C170.986 57.9192 172.368 66.5607 174.442 76.2392V81.0785C174.442 83.8438 175.479 86.9548 177.207 89.72C179.281 100.09 181.01 108.731 181.01 108.731L198.639 114.608H200.021L198.984 111.842C198.638 110.46 198.639 109.077 198.293 107.694L214.885 126.36C214.885 126.36 214.885 126.36 215.23 126.36L227.328 118.756C227.328 118.756 227.328 118.756 227.674 118.756C229.057 117.719 230.094 115.99 230.094 113.571V72.7826C230.094 67.5977 226.291 61.0301 221.452 58.2648Z" fill="#FFE850"/>
<path d="M215.23 127.398C214.884 127.398 214.538 127.398 214.193 127.052L199.675 110.806C199.675 111.151 199.675 111.497 199.675 111.843L200.712 114.608C201.058 115.299 200.712 115.645 200.021 115.991H199.675H197.947L179.972 109.769V109.423C179.972 109.077 178.244 100.436 176.17 90.4117C174.442 87.3007 173.405 84.1898 173.405 81.4245V76.5852C170.985 64.8327 169.948 58.2651 169.602 57.5738C169.257 56.1912 166.146 49.6236 163.38 43.7473C163.035 43.056 163.38 42.3647 163.726 42.3647L176.516 34.4145C178.59 33.3775 181.009 33.7231 183.429 35.1058L222.143 57.5738C226.982 60.3391 231.13 67.2523 231.13 73.1286V113.225C231.13 115.991 230.093 118.41 228.365 119.447H228.019L215.921 127.052C215.575 127.398 215.575 127.398 215.23 127.398ZM197.255 104.929L215.575 125.324L226.982 118.065L227.674 118.756L226.982 117.719C228.019 117.028 228.711 115.299 228.711 113.225V72.7829C228.711 67.9437 225.254 61.7218 220.76 58.9565L182.392 36.8341C180.664 35.7971 178.935 35.4515 177.553 36.1428L165.8 43.4017C167.528 46.8583 171.331 55.1542 171.676 56.8825C172.022 57.5738 173.059 63.7957 175.479 75.8939V76.2396V81.0788C175.479 83.4985 176.516 86.2638 177.898 89.029V89.3747C179.627 98.0163 181.009 105.621 181.355 108.04L197.947 113.571L197.255 111.843C196.91 110.46 196.91 108.732 196.564 107.349L197.255 104.929Z" fill="#171753"/>
<path d="M221.451 58.2651L184.811 37.1797L166.491 48.5865L205.897 69.3262L214.193 70.7089L226.636 63.1043C225.254 61.0304 223.525 59.302 221.451 58.2651Z" fill="#ECFFFE"/>
<path d="M214.193 71.7457L205.206 70.3631L164.418 48.5864L184.812 35.7969L222.144 57.2279C224.217 58.2649 225.946 59.9932 227.674 62.4128L228.365 63.4498L214.193 71.7457ZM206.243 68.2891L213.848 69.3261L224.909 62.7585C223.526 61.0302 222.489 59.9932 220.761 59.3019L184.466 38.5622L168.22 48.5864L206.243 68.2891Z" fill="#171753"/>
<path d="M229.491 73.0149L217.057 80.5076L218.127 82.2839L230.562 74.7913L229.491 73.0149Z" fill="#171753"/>
<path d="M229.259 102.357L216.824 109.85L217.895 111.626L230.329 104.134L229.259 102.357Z" fill="#171753"/>
<path d="M170.294 43.7476L209.008 66.2156C213.502 68.9809 217.304 75.2028 217.304 80.7334V121.176C217.304 126.361 213.502 128.78 209.008 126.015L204.514 123.596C203.823 123.25 203.132 123.25 202.786 124.287C202.44 126.706 200.712 131.2 194.145 128.435C192.762 128.089 192.071 126.015 192.416 124.978C192.762 123.596 193.453 121.522 193.453 119.102C193.453 118.065 192.762 116.682 191.725 116.337L170.294 103.893C165.8 101.127 161.998 94.9056 161.998 89.375V48.5869C161.998 43.0563 165.8 40.9823 170.294 43.7476Z" fill="#FFE850"/>
<path d="M197.948 130.163C196.911 130.163 195.528 129.817 194.145 129.126C192.417 128.434 191.035 126.015 191.726 124.287C192.071 122.904 192.417 121.176 192.417 118.756C192.417 118.065 191.726 117.028 191.38 116.682L169.949 104.238C165.11 101.473 160.962 94.5596 160.962 88.6834V48.5866C160.962 45.4756 161.999 43.4017 164.073 42.3647C166.147 41.3277 168.566 41.3277 170.986 43.056L209.7 65.524C214.539 68.2893 218.687 75.2026 218.687 81.0788V121.521C218.687 124.632 217.65 126.706 215.577 127.743C213.503 128.78 211.083 128.78 208.663 127.052L204.17 124.632C203.824 126.361 202.787 128.78 200.713 129.817C200.022 129.817 198.985 130.163 197.948 130.163ZM166.838 43.4017C166.147 43.4017 165.801 43.4017 165.11 43.7473C163.727 44.4387 163.036 46.167 163.036 48.2409V89.029C163.036 93.8683 166.493 100.09 170.986 102.51L192.417 114.954C193.8 115.645 194.491 117.373 194.491 118.756C194.491 120.83 194.145 122.904 193.454 124.978C193.108 125.669 193.8 127.052 194.837 127.398C196.911 128.089 198.293 128.434 199.676 127.743C201.059 127.052 201.75 124.978 202.096 123.941C202.096 123.25 202.787 122.558 203.133 122.558C203.824 122.213 204.515 122.213 205.207 122.904L209.7 125.324C211.429 126.361 213.157 126.706 214.54 126.015C215.922 125.324 216.613 123.595 216.613 121.521V80.3875C216.613 75.5482 213.157 69.3263 208.663 66.9067L169.949 44.4387C168.912 43.7473 167.53 43.4017 166.838 43.4017Z" fill="#171753"/>
<path d="M230.094 109.077L217.65 116.682V122.213L216.959 125.324L227.674 118.756L229.748 115.991L230.094 112.88V109.077Z" fill="#171753"/>
<path d="M209.027 101.878C209.07 101.412 209.09 100.925 209.094 100.425C209.094 91.5998 203.157 78.1033 195.337 73.5104C194.793 73.1912 194.228 72.9116 193.645 72.6734C192.662 71.384 191.708 70.0401 190.762 68.7507C190.397 68.237 189.922 67.4885 189.447 67.2095C188.578 66.6992 187.805 67.4205 188.307 68.6384C188.165 68.4655 187.995 68.3182 187.805 68.203C186.909 67.6722 186.2 68.601 186.909 69.9619C186.801 69.8275 186.673 69.7124 186.528 69.6217C185.956 69.2815 185.494 69.7407 185.554 70.445C185.614 71.1492 186.17 72.2209 186.558 73.0136C184.688 74.184 183.323 76.1675 182.183 78.3244C181.153 80.2875 180.266 82.3764 179.343 84.4484C178.865 85.503 178.005 88.4732 176.427 87.5512C176.121 87.3565 175.854 87.1062 175.637 86.8129C174.032 84.7716 173.199 81.2673 172.982 79.1274C172.878 77.9536 172.845 76.4056 173.577 75.9667C174.032 75.7184 174.701 75.9259 175.437 76.3546C177.316 77.4603 179.608 80.0323 179.688 80.097C178.46 78.4163 175.658 74.6739 173.594 73.4627C172.53 72.8367 171.664 72.8878 171.313 74.2384C171.182 74.7956 171.118 75.3667 171.122 75.9395C171.177 77.8595 171.497 79.762 172.075 81.5905C172.744 83.8598 173.674 86.3536 175.169 88.3337C175.567 88.8994 176.066 89.3831 176.641 89.7592C178.982 91.1201 180.136 87.1225 181.006 85.5099C182.514 82.6282 184.17 79.7874 186.558 78.1067C187.45 77.4717 188.486 77.0764 189.569 76.9574C190.652 76.8385 191.747 76.9998 192.752 77.4263C193.236 77.6113 193.704 77.839 194.15 78.1067C194.8 78.492 195.411 78.9422 195.973 79.4506C198.966 82.1111 201.595 86.3944 203.197 90.3784C204.726 94.1854 205.739 98.6355 205.287 101.796C205.104 103.273 204.619 104.746 203.374 104.858C202.655 104.96 201.789 104.637 200.919 104.127C200.133 103.647 199.388 103.101 198.692 102.494C196.884 100.869 195.174 99.1351 193.571 97.3018C191.966 95.5429 185.394 87.7417 183.748 85.5779C186.631 89.7966 189.477 94.0391 192.618 97.9823C192.363 98.1605 192.13 98.3683 191.922 98.6014C191.688 98.8702 191.922 99.6221 192.28 99.8466C192.325 99.8743 192.375 99.8919 192.427 99.8984C192.479 99.9048 192.531 99.8999 192.581 99.8841C192.493 100.139 192.492 100.416 192.578 100.671C192.663 100.927 192.831 101.145 193.053 101.293C193.099 101.321 193.149 101.344 193.2 101.361C192.966 101.731 193.327 102.453 193.742 102.694C193.841 102.76 193.959 102.788 194.076 102.773L196.314 102.249C197.768 103.825 199.421 105.198 201.23 106.331C202.508 107.083 203.776 107.539 204.946 107.522C206.926 107.444 208.137 105.93 208.696 103.817C208.868 103.181 208.98 102.529 209.03 101.871L209.027 101.878ZM197.12 89.2829C197.159 89.9775 197.358 90.6531 197.7 91.2557C198.042 91.8583 198.518 92.3711 199.09 92.7531C200.187 93.3961 201.067 92.8858 201.07 91.6032C201.036 90.9076 200.84 90.2303 200.498 89.6269C200.156 89.0236 199.678 88.5115 199.103 88.1329C198.003 87.4899 197.123 88.0003 197.12 89.2829Z" fill="#171753"/>
<path d="M140.525 231.199C140.525 231.199 142.65 203.847 147.218 201.187C151.786 198.526 154.442 228.325 154.442 228.325L149.768 244.715L142.969 248.333L140.525 231.199Z" fill="#FFF2A0"/>
<path d="M142.544 249.185L139.994 231.305V231.199C140.207 228.325 142.331 203.422 147.006 200.761C147.537 200.442 148.068 200.442 148.599 200.761C152.636 202.889 154.761 225.771 154.973 228.325V228.432L150.193 245.141L142.544 249.185ZM141.057 231.199L143.394 247.482L149.343 244.396L153.911 228.219C153.061 218.215 150.724 202.996 148.068 201.612C147.856 201.506 147.749 201.506 147.537 201.612C144.031 203.741 141.694 223.643 141.057 231.199Z" fill="#171753"/>
<path d="M148.528 201.497L142.549 212.777L143.299 213.176L149.278 201.897L148.528 201.497Z" fill="#171753"/>
<path d="M149.835 204.225L141.326 220.304L142.077 220.703L150.586 204.624L149.835 204.225Z" fill="#171753"/>
<path d="M150.782 207.493L142.788 222.64L143.539 223.038L151.534 207.891L150.782 207.493Z" fill="#171753"/>
<path d="M151.93 210.721L144.89 223.967L145.64 224.367L152.68 211.121L151.93 210.721Z" fill="#171753"/>
<path d="M152.048 215.614L147.006 225.102L147.756 225.502L152.798 216.014L152.048 215.614Z" fill="#171753"/>
<path d="M151.258 222.707L149.022 226.819L149.769 227.226L152.004 223.114L151.258 222.707Z" fill="#171753"/>
<path d="M167.828 197.568C168.147 195.546 168.572 193.417 168.572 193.417L163.685 190.331C163.685 190.331 163.578 190.331 163.366 190.118C162.622 189.799 161.772 189.799 160.923 190.331C151.149 195.972 150.086 246.098 150.086 246.098C150.086 246.098 149.874 243.118 149.237 239.393L149.555 238.755L148.068 225.771L145.625 224.281C144.881 223.855 144.243 223.323 143.606 222.897C142.756 222.259 141.8 222.259 140.631 222.897C133.407 227.367 130.539 261.636 130.539 261.636L135.745 264.829L140.525 255.996L173.352 237.265C173.246 237.052 171.971 210.871 167.828 197.568Z" fill="#FFF2A0"/>
<path d="M159.753 234.923L173.245 226.729C172.395 218.108 171.014 206.827 168.677 199.484C168.996 197.462 169.421 195.333 169.421 195.333L164.534 192.247C164.534 192.247 164.428 192.247 164.215 192.034C163.472 191.715 162.622 191.715 161.772 192.247C156.035 195.759 153.273 214.915 151.998 229.815L159.753 234.923Z" fill="#FFEE81"/>
<path d="M137.869 260.998L148.705 235.562L149.661 233.114L149.023 227.793L146.58 226.303C145.836 225.877 145.199 225.345 144.561 224.919C143.712 224.281 142.755 224.281 141.587 224.919C136.275 228.219 133.407 247.482 132.132 257.592L137.869 260.998Z" fill="#FFEE81"/>
<path d="M135.745 265.361L130.008 261.849V261.53C130.114 260.146 132.982 226.941 140.313 222.472C141.481 221.727 142.756 221.727 143.818 222.472C144.031 222.684 144.35 222.791 144.562 223.004C144.987 223.323 145.412 223.642 145.837 223.855L148.493 225.558L149.874 236.945C150.724 222.046 153.167 194.269 160.604 190.012C161.56 189.48 162.516 189.373 163.472 189.799C163.685 189.905 163.791 189.905 163.791 190.012L168.996 193.311L168.89 193.63C168.89 193.63 168.571 195.652 168.253 197.674C172.396 210.978 173.671 236.945 173.671 237.158V237.478L140.738 256.315L136.063 265.148L135.745 265.361ZM131.176 261.211L135.532 263.978L140.1 255.464L172.715 236.839C172.502 233.753 171.227 210.126 167.297 197.781V197.674V197.568C167.509 195.972 167.828 194.375 167.934 193.737L163.366 190.863C163.366 190.863 163.26 190.757 163.047 190.65C162.516 190.437 161.879 190.437 161.135 190.863C151.68 196.291 150.618 245.672 150.511 246.205H149.449C149.449 246.205 149.237 243.225 148.599 239.5V239.287L148.918 238.648L147.431 226.09L145.2 224.706C144.775 224.387 144.243 224.068 143.818 223.749C143.606 223.536 143.287 223.429 143.075 223.217C142.331 222.684 141.588 222.684 140.738 223.217C134.363 227.261 131.495 257.699 131.176 261.211Z" fill="#171753"/>
<path d="M135.745 264.723C135.745 264.723 138.613 230.454 145.838 225.984C153.062 221.514 155.293 249.291 155.293 249.291C155.293 249.291 156.355 199.165 166.129 193.524C175.902 187.883 178.452 240.245 178.452 240.245L135.745 264.723Z" fill="#FFF2A0"/>
<path d="M135.745 265.362L135.214 264.936C135.32 263.552 138.188 230.028 145.519 225.558C146.581 224.92 147.643 224.813 148.6 225.345C151.999 227.048 154.018 236.094 154.974 242.48C155.611 228.432 158.055 197.568 165.81 193.098C166.872 192.46 167.935 192.46 168.997 192.992C176.752 197.249 178.877 238.542 178.983 240.245V240.564L135.745 265.362ZM147.325 226.09C146.9 226.09 146.475 226.197 146.05 226.516C139.888 230.347 136.914 258.125 136.382 263.765L177.921 240.032C177.177 225.239 174.309 197.036 168.572 193.95C167.935 193.524 167.191 193.63 166.447 194.056C156.886 199.484 155.824 248.227 155.824 248.759L154.761 249.398C154.336 243.651 152.212 228.325 148.175 226.303C147.856 226.197 147.537 226.09 147.325 226.09Z" fill="#171753"/>
<path d="M104.312 275.473V255.334L115.815 262.011V282.151L104.312 275.473Z" fill="#FFF2A0"/>
<path d="M104.312 255.334L114.739 249.303L126.243 255.873L115.707 261.904L104.312 255.334Z" fill="#FFF2A0"/>
<path d="M104.419 258.134L114.739 252.211L126.242 258.78L115.599 264.596L104.419 258.134Z" fill="#FFEE81"/>
<path d="M114.739 248.765L103.773 255.011V275.689L115.706 282.582L126.672 276.227V255.657L114.739 248.765ZM115.276 281.289L104.741 275.258V256.196L115.276 262.227V281.289ZM105.279 255.334L114.739 249.842L125.274 255.873L115.814 261.365L105.279 255.334Z" fill="#171753"/>
<path d="M89.2598 283.874V271.812L100.763 278.489V290.444L89.2598 283.874Z" fill="#FFF2A0"/>
<path d="M89.2598 271.812L99.7952 265.781L111.191 272.458L100.763 278.489L89.2598 271.812Z" fill="#FFF2A0"/>
<path d="M89.4756 274.612L99.796 268.689L111.192 275.366L100.656 281.074L89.4756 274.612Z" fill="#FFEE81"/>
<path d="M74.21 292.382V287.105L85.713 293.782V299.059L74.21 292.382Z" fill="#FFF2A0"/>
<path d="M74.21 286.997L84.6379 280.966L96.1409 287.643L85.6055 293.674L74.21 286.997Z" fill="#FFF2A0"/>
<path d="M74.3174 289.797L84.6378 283.874L96.1409 290.551L85.4979 296.259L74.3174 289.797Z" fill="#FFEE81"/>
<path d="M84.6374 280.428L73.6719 286.782V292.705L85.6049 299.598L96.5704 293.244V287.32L84.6374 280.428ZM85.1749 298.198L74.6394 292.167V287.967L85.1749 293.998V298.198ZM75.1769 286.997L84.6374 281.505L95.1728 287.536L85.7124 293.028L75.1769 286.997Z" fill="#171753"/>
<path d="M99.7956 265.242L88.8301 271.596V284.089L100.763 290.982L111.729 284.628V272.135L99.7956 265.242ZM100.226 289.582L89.7976 283.551V272.673L100.333 278.704V289.582H100.226ZM90.2276 271.812L99.6881 266.319L110.224 272.35L100.763 277.843L90.2276 271.812Z" fill="#171753"/>
<path d="M177.708 231.731L178.557 230.347L174.52 228.325L174.096 228.112C172.714 227.474 171.015 227.367 168.996 228.538C160.179 233.646 160.497 245.885 151.361 253.122C142.225 260.466 138.4 257.912 138.4 257.912L137.338 265.361L141.8 267.703L154.867 258.444L180.576 240.671C180.788 240.671 179.939 235.562 177.708 231.731Z" fill="#FFF2A0"/>
<path d="M178.77 233.433L179.62 232.05L175.583 230.028L175.158 229.815C173.777 229.176 172.077 229.07 170.059 230.241C161.241 235.349 161.56 247.588 152.423 254.825C143.287 262.168 139.463 259.614 139.463 259.614L138.825 264.616L145.093 263.552L155.398 257.486L181.745 242.373C181.851 242.373 181.001 237.265 178.77 233.433Z" fill="#FFEE81"/>
<path d="M141.8 268.235L136.807 265.68L137.975 257.06L138.825 257.486C138.825 257.486 142.543 259.614 151.148 252.697C155.504 249.184 157.629 244.608 159.754 240.138C161.985 235.349 164.109 230.773 168.784 228.006C170.802 226.835 172.714 226.729 174.414 227.474C174.52 227.58 174.627 227.58 174.839 227.686L179.301 230.028L178.239 231.624C180.363 235.456 181.107 240.245 181.213 240.458L181.319 240.777L155.292 258.869L141.8 268.235ZM138.081 265.148L142.012 267.17L154.761 258.124L180.257 240.458C180.045 239.287 179.089 235.243 177.283 232.05L177.07 231.731L177.814 230.56L174.308 228.751C174.308 228.751 174.095 228.644 173.989 228.538H173.883C172.502 227.899 170.908 228.006 169.209 228.964C164.853 231.518 162.728 235.881 160.603 240.564C158.479 245.14 156.248 249.823 151.68 253.442C144.456 259.189 140.419 258.976 138.825 258.55L138.081 265.148Z" fill="#171753"/>
<path d="M185.251 242.906C185.251 242.906 182.382 225.771 173.565 230.773C164.747 235.881 165.066 248.12 155.93 255.357C146.9 262.701 143.075 260.147 143.075 260.147L142.013 267.596L185.251 242.906Z" fill="#FFF2A0"/>
<path d="M138.507 258.018L143.075 260.146L142.012 267.703L137.444 265.361L138.507 258.018Z" fill="#FFF2A0"/>
<path d="M142.437 268.022L185.781 243.225L185.675 242.905C185.569 242.48 183.869 232.369 178.77 229.921C177.07 229.07 175.158 229.283 173.139 230.454C168.465 233.114 166.34 237.691 164.109 242.586C161.985 247.056 159.86 251.632 155.504 255.144C147.749 261.423 143.924 260.253 143.287 260.04L143.181 259.934L142.543 259.508L137.975 257.379L136.807 265.893L141.375 268.235L141.906 268.448L142.437 268.022ZM138.931 258.763L142.437 260.466L141.481 266.851L137.975 265.042L138.931 258.763ZM156.354 255.783C160.922 252.164 163.153 247.482 165.278 242.905C167.509 238.223 169.527 233.859 173.883 231.305C175.583 230.347 177.07 230.134 178.451 230.879C182.488 232.795 184.294 240.883 184.719 242.693L142.65 266.638L143.393 260.998C144.987 261.423 149.13 261.53 156.354 255.783Z" fill="#171753"/>
<path d="M185.258 243.062C185.258 243.062 182.39 225.928 173.572 230.93C164.755 236.038 165.074 248.277 155.937 255.514C146.801 262.858 142.976 260.303 142.976 260.303L141.914 267.753L185.258 243.062Z" fill="#171753"/>
</svg>
