<svg width="375" height="1096" viewBox="0 0 375 1096" fill="none" xmlns="http://www.w3.org/2000/svg">
<g style="mix-blend-mode:color-dodge" opacity="0.9">
<path opacity="0.9" d="M187.5 1095.43C228.096 1095.43 261.006 850.336 261.006 547.992C261.006 245.648 228.096 0.549805 187.5 0.549805C146.904 0.549805 113.995 245.648 113.995 547.992C113.995 850.336 146.904 1095.43 187.5 1095.43Z" stroke="url(#paint0_linear_2119_249)" stroke-miterlimit="10"/>
<path opacity="0.9" d="M187.502 1064.11C237.287 1064.11 277.647 833.036 277.647 547.992C277.647 262.949 237.287 31.875 187.502 31.875C137.716 31.875 97.3569 262.949 97.3569 547.992C97.3569 833.036 137.716 1064.11 187.502 1064.11Z" stroke="url(#paint1_linear_2119_249)" stroke-miterlimit="10"/>
<path opacity="0.9" d="M187.5 1032.75C246.455 1032.75 294.247 815.715 294.247 547.992C294.247 280.27 246.455 63.2383 187.5 63.2383C128.546 63.2383 80.7539 280.27 80.7539 547.992C80.7539 815.715 128.546 1032.75 187.5 1032.75Z" stroke="url(#paint2_linear_2119_249)" stroke-miterlimit="10"/>
<path opacity="0.9" d="M187.502 1001.42C255.626 1001.42 310.851 798.414 310.851 547.992C310.851 297.571 255.626 94.5635 187.502 94.5635C119.379 94.5635 64.1541 297.571 64.1541 547.992C64.1541 798.414 119.379 1001.42 187.502 1001.42Z" stroke="url(#paint3_linear_2119_249)" stroke-miterlimit="10"/>
<path opacity="0.9" d="M187.501 970.058C264.814 970.058 327.488 781.093 327.488 547.992C327.488 314.892 264.814 125.926 187.501 125.926C110.188 125.926 47.5132 314.892 47.5132 547.992C47.5132 781.093 110.188 970.058 187.501 970.058Z" stroke="url(#paint4_linear_2119_249)" stroke-miterlimit="10"/>
<path opacity="0.9" d="M187.5 938.732C273.982 938.732 344.09 763.791 344.09 547.991C344.09 332.191 273.982 157.25 187.5 157.25C101.019 157.25 30.9111 332.191 30.9111 547.991C30.9111 763.791 101.019 938.732 187.5 938.732Z" stroke="url(#paint5_linear_2119_249)" stroke-miterlimit="10"/>
<path opacity="0.9" d="M187.5 907.409C283.151 907.409 360.691 746.493 360.691 547.993C360.691 349.494 283.151 188.578 187.5 188.578C91.8492 188.578 14.3091 349.494 14.3091 547.993C14.3091 746.493 91.8492 907.409 187.5 907.409Z" stroke="url(#paint6_linear_2119_249)" stroke-miterlimit="10"/>
<path opacity="0.9" d="M187.5 876.043C292.341 876.043 377.331 729.169 377.331 547.991C377.331 366.813 292.341 219.939 187.5 219.939C82.6602 219.939 -2.32959 366.813 -2.32959 547.991C-2.32959 729.169 82.6602 876.043 187.5 876.043Z" stroke="url(#paint7_linear_2119_249)" stroke-miterlimit="10"/>
<path opacity="0.9" d="M187.499 844.719C301.509 844.719 393.931 711.869 393.931 547.992C393.931 384.114 301.509 251.265 187.499 251.265C73.4903 251.265 -18.9324 384.114 -18.9324 547.992C-18.9324 711.869 73.4903 844.719 187.499 844.719Z" stroke="url(#paint8_linear_2119_249)" stroke-miterlimit="10"/>
<path opacity="0.9" d="M187.5 813.395C310.678 813.395 410.533 694.571 410.533 547.993C410.533 401.416 310.678 282.592 187.5 282.592C64.3215 282.592 -35.5339 401.416 -35.5339 547.993C-35.5339 694.571 64.3215 813.395 187.5 813.395Z" stroke="url(#paint9_linear_2119_249)" stroke-miterlimit="10"/>
<path opacity="0.9" d="M187.498 782.032C319.866 782.032 427.171 677.249 427.171 547.993C427.171 418.737 319.866 313.955 187.498 313.955C55.1306 313.955 -52.1746 418.737 -52.1746 547.993C-52.1746 677.249 55.1306 782.032 187.498 782.032Z" stroke="url(#paint10_linear_2119_249)" stroke-miterlimit="10"/>
<path opacity="0.9" d="M187.5 750.706C329.037 750.706 443.775 659.948 443.775 547.992C443.775 436.037 329.037 345.279 187.5 345.279C45.964 345.279 -68.7739 436.037 -68.7739 547.992C-68.7739 659.948 45.964 750.706 187.5 750.706Z" stroke="url(#paint11_linear_2119_249)" stroke-miterlimit="10"/>
<path opacity="0.9" d="M187.502 719.344C338.208 719.344 460.378 642.628 460.378 547.993C460.378 453.359 338.208 376.643 187.502 376.643C36.797 376.643 -85.3738 453.359 -85.3738 547.993C-85.3738 642.628 36.797 719.344 187.502 719.344Z" stroke="url(#paint12_linear_2119_249)" stroke-miterlimit="10"/>
<path opacity="0.9" d="M187.501 688.015C347.396 688.015 477.016 625.324 477.016 547.99C477.016 470.657 347.396 407.965 187.501 407.965C27.6058 407.965 -102.015 470.657 -102.015 547.99C-102.015 625.324 27.6058 688.015 187.501 688.015Z" stroke="url(#paint13_linear_2119_249)" stroke-miterlimit="10"/>
<path opacity="0.9" d="M187.5 656.692C356.564 656.692 493.617 608.025 493.617 547.992C493.617 487.959 356.564 439.292 187.5 439.292C18.4366 439.292 -118.617 487.959 -118.617 547.992C-118.617 608.025 18.4366 656.692 187.5 656.692Z" stroke="url(#paint14_linear_2119_249)" stroke-miterlimit="10"/>
<path opacity="0.9" d="M187.499 625.329C365.732 625.329 510.218 590.704 510.218 547.992C510.218 505.28 365.732 470.655 187.499 470.655C9.2666 470.655 -135.219 505.28 -135.219 547.992C-135.219 590.704 9.2666 625.329 187.499 625.329Z" stroke="url(#paint15_linear_2119_249)" stroke-miterlimit="10"/>
<path opacity="0.9" d="M187.501 594.004C374.923 594.004 526.859 573.404 526.859 547.993C526.859 522.581 374.923 501.981 187.501 501.981C0.0783205 501.981 -151.857 522.581 -151.857 547.993C-151.857 573.404 0.0783205 594.004 187.501 594.004Z" stroke="url(#paint16_linear_2119_249)" stroke-miterlimit="10"/>
</g>
<defs>
<linearGradient id="paint0_linear_2119_249" x1="261.006" y1="0.550083" x2="-304.71" y2="677.941" gradientUnits="userSpaceOnUse">
<stop offset="0.00310139" stop-color="#090927"/>
<stop offset="1" stop-color="#23ABA2"/>
</linearGradient>
<linearGradient id="paint1_linear_2119_249" x1="277.647" y1="31.8753" x2="-215.191" y2="799.511" gradientUnits="userSpaceOnUse">
<stop offset="0.00310139" stop-color="#090927"/>
<stop offset="1" stop-color="#23ABA2"/>
</linearGradient>
<linearGradient id="paint2_linear_2119_249" x1="294.248" y1="63.2385" x2="-117.469" y2="871.756" gradientUnits="userSpaceOnUse">
<stop offset="0.00310139" stop-color="#090927"/>
<stop offset="1" stop-color="#23ABA2"/>
</linearGradient>
<linearGradient id="paint3_linear_2119_249" x1="310.851" y1="94.5637" x2="-24.7108" y2="908.62" gradientUnits="userSpaceOnUse">
<stop offset="0.00310139" stop-color="#090927"/>
<stop offset="1" stop-color="#23ABA2"/>
</linearGradient>
<linearGradient id="paint4_linear_2119_249" x1="327.489" y1="125.926" x2="58.5152" y2="921.493" gradientUnits="userSpaceOnUse">
<stop offset="0.00310139" stop-color="#090927"/>
<stop offset="1" stop-color="#23ABA2"/>
</linearGradient>
<linearGradient id="paint5_linear_2119_249" x1="344.09" y1="157.251" x2="131.12" y2="918.367" gradientUnits="userSpaceOnUse">
<stop offset="0.00310139" stop-color="#090927"/>
<stop offset="1" stop-color="#23ABA2"/>
</linearGradient>
<linearGradient id="paint6_linear_2119_249" x1="360.691" y1="188.578" x2="194.041" y2="904.71" gradientUnits="userSpaceOnUse">
<stop offset="0.00310139" stop-color="#090927"/>
<stop offset="1" stop-color="#23ABA2"/>
</linearGradient>
<linearGradient id="paint7_linear_2119_249" x1="377.331" y1="219.939" x2="248.639" y2="884.039" gradientUnits="userSpaceOnUse">
<stop offset="0.00310139" stop-color="#090927"/>
<stop offset="1" stop-color="#23ABA2"/>
</linearGradient>
<linearGradient id="paint8_linear_2119_249" x1="393.932" y1="251.265" x2="296.019" y2="858.726" gradientUnits="userSpaceOnUse">
<stop offset="0.00310139" stop-color="#090927"/>
<stop offset="1" stop-color="#23ABA2"/>
</linearGradient>
<linearGradient id="paint9_linear_2119_249" x1="410.534" y1="282.592" x2="337.451" y2="830.287" gradientUnits="userSpaceOnUse">
<stop offset="0.00310139" stop-color="#090927"/>
<stop offset="1" stop-color="#23ABA2"/>
</linearGradient>
<linearGradient id="paint10_linear_2119_249" x1="427.172" y1="313.955" x2="373.983" y2="799.704" gradientUnits="userSpaceOnUse">
<stop offset="0.00310139" stop-color="#090927"/>
<stop offset="1" stop-color="#23ABA2"/>
</linearGradient>
<linearGradient id="paint11_linear_2119_249" x1="443.776" y1="345.279" x2="406.305" y2="767.733" gradientUnits="userSpaceOnUse">
<stop offset="0.00310139" stop-color="#090927"/>
<stop offset="1" stop-color="#23ABA2"/>
</linearGradient>
<linearGradient id="paint12_linear_2119_249" x1="460.38" y1="376.643" x2="435.162" y2="734.771" gradientUnits="userSpaceOnUse">
<stop offset="0.00310139" stop-color="#090927"/>
<stop offset="1" stop-color="#23ABA2"/>
</linearGradient>
<linearGradient id="paint13_linear_2119_249" x1="477.017" y1="407.965" x2="461.113" y2="701.21" gradientUnits="userSpaceOnUse">
<stop offset="0.00310139" stop-color="#090927"/>
<stop offset="1" stop-color="#23ABA2"/>
</linearGradient>
<linearGradient id="paint14_linear_2119_249" x1="493.619" y1="439.293" x2="484.542" y2="667.243" gradientUnits="userSpaceOnUse">
<stop offset="0.00310139" stop-color="#090927"/>
<stop offset="1" stop-color="#23ABA2"/>
</linearGradient>
<linearGradient id="paint15_linear_2119_249" x1="510.219" y1="470.655" x2="505.857" y2="632.976" gradientUnits="userSpaceOnUse">
<stop offset="0.00310139" stop-color="#090927"/>
<stop offset="1" stop-color="#23ABA2"/>
</linearGradient>
<linearGradient id="paint16_linear_2119_249" x1="526.86" y1="501.981" x2="525.391" y2="598.601" gradientUnits="userSpaceOnUse">
<stop offset="0.00310139" stop-color="#090927"/>
<stop offset="1" stop-color="#23ABA2"/>
</linearGradient>
</defs>
</svg>
