<svg width="128" height="128" viewBox="0 0 128 128" fill="none" xmlns="http://www.w3.org/2000/svg">
<path d="M79.689 64.5691C79.689 61.8283 81.8818 59.6357 84.6228 59.6357C87.3638 59.6357 89.5566 61.8283 89.5566 64.5691C89.5566 67.3098 87.3638 69.5024 84.6228 69.5024C81.8818 69.5024 79.689 67.2184 79.689 64.5691Z" fill="#171753"/>
<path d="M109.475 76.5378C109.292 78.0909 109.109 79.644 108.653 81.1057C107.282 86.3131 104.267 91.0637 99.3332 93.7131C92.572 97.1846 84.5317 95.9056 77.7705 93.2563C72.1971 97.1846 72.1971 97.1847 72.1971 97.1847C70.9179 98.0069 69.2733 96.6365 70.0043 95.2661C68.451 95.5402 67.9942 94.0785 68.451 92.8908C67.1719 93.8958 66.0755 92.0686 66.8064 90.9723C67.2633 90.2415 67.9942 89.4192 68.5424 88.7797C60.6848 84.3032 53.5582 78.8217 46.3402 73.4316C50.4517 75.9897 66.8978 84.3946 70.9179 86.1304C75.1208 87.9575 79.3237 89.7847 83.7094 90.7896C87.3641 91.6118 92.0238 92.0686 95.4044 89.9674C98.5109 88.1402 99.6986 84.3946 100.155 81.0143C101.252 73.7057 98.6936 65.4835 94.8562 59.2712C90.836 52.7848 84.2576 46.9379 76.7654 45.0193C74.0244 44.2885 71.2834 44.2885 68.7251 44.7453C62.7863 45.7502 57.3956 49.4045 53.2841 53.9724C47.3452 60.5502 43.2337 68.681 39.4876 76.7205C36.9293 82.1106 33.366 95.2661 24.9602 90.0587C21.2142 87.6834 18.8386 83.5723 17.194 79.5526C15.3667 75.2588 14.0875 69.5032 15.2753 64.844C17.8336 55.0687 31.5387 63.7477 36.1984 66.8539C35.9243 66.7625 24.9602 61.7378 20.9401 65.6662C19.1127 67.4934 19.2041 70.7822 19.4782 73.1576C20.0264 77.4514 22.1278 83.8464 26.148 86.2217C31.3559 89.2365 34.0056 79.8267 35.3761 76.5378C37.6603 70.965 39.8531 65.3921 42.4114 59.9107C45.2438 53.8811 48.6243 47.9428 53.2841 43.1008C52.279 41.9132 50.8172 40.4515 50.7258 38.8984C50.5431 37.1626 52.279 35.2441 54.1064 36.1576C52.0049 33.7823 54.8373 30.2194 57.5783 31.5898C56.2992 29.5799 58.3093 27.0219 60.4107 27.1132C61.5985 27.1132 62.7863 28.1182 63.6999 28.7577C66.0755 30.3107 68.451 31.9552 70.9179 33.5083C93.6684 29.9453 111.485 55.7996 109.475 76.5378Z" fill="#171753"/>
</svg>
