<svg width="1440" height="797" viewBox="0 0 1440 797" fill="none" xmlns="http://www.w3.org/2000/svg">
<path fill-rule="evenodd" clip-rule="evenodd" d="M1521.85 296.615C1484.72 410.264 1432.57 560.346 1446.15 646.047C1476.62 838.431 1447.65 2169.57 1446.15 2335.25C1465.85 2602.18 175.45 2402.8 162.588 2411.37C149.726 2419.94 -56.6332 943.51 -54.5246 937.093C-52.4161 930.676 -74.8722 263.982 2.63825 297.08C80.1487 330.178 252.607 205.152 415.409 192.803C548.838 182.671 782.494 283.307 904.361 254.694C1062.5 217.564 1203.35 117.488 1306.19 66.1307C1406.03 16.2088 1535.91 -4.66759 1552.68 10.2984C1569.06 24.9478 1556.14 191.854 1521.85 296.615ZM1536.97 552.029C1515.19 429.473 1528.35 434.011 1514.3 434.075C1491.66 434.201 1435.84 790.177 1632.76 738.039C1745.63 708.254 1553.96 647.609 1536.97 552.072V552.029ZM592.042 140.412C576.797 187.801 777.974 226.83 858.648 221.363C1016.79 210.661 1186.34 93.8674 1169.2 40.2937C1144.63 -36.436 1031.25 13.9713 957.454 49.9404C736.056 157.805 602.395 108.221 592.042 140.412ZM509.324 156.729C517.041 150.776 555.332 107.778 600.371 88.7802C678.219 56.2941 634.298 20.5783 552.528 25.9188C518.454 28.1563 460.764 51.2491 455.049 79.4924C449.335 107.736 488.955 172.434 509.324 156.729ZM1546.27 410.665C1551.48 413.832 1613.38 362.432 1613.74 350.295C1614.1 338.157 1574.82 310.653 1564.46 324.225C1554.11 337.798 1536.25 404.586 1546.27 410.665ZM98.8726 217.057C119.789 241.227 280.946 136.654 365.52 143.831C473.373 152.993 396.896 8.52529 332.184 7.87092C267.473 7.21655 77.3443 192.212 98.8726 217.057Z" fill="url(#paint0_linear_567_2924)"/>
<g clip-path="url(#clip0_567_2924)">
<path style="mix-blend-mode:screen" opacity="0.96" d="M1258.48 171.575C1258.48 171.575 1191.37 199.072 1175.41 206.68C1159.45 214.289 1181.6 217.865 1178.74 222.247C1175.88 226.629 1139.64 227.74 1125.67 230.54C1111.71 233.34 1110.38 251.205 1106.29 255.435C1102.21 259.665 1003.73 346.736 989.193 363.307L1081.49 308.77C1081.49 308.77 1138.85 244.737 1258.48 171.575Z" fill="url(#paint1_linear_567_2924)"/>
<path style="mix-blend-mode:screen" opacity="0.96" d="M1186 362.089C1186 362.089 1240.03 329.601 1284.35 289.581C1284.35 289.581 1250.96 321.537 1232.18 338.351C1217.44 351.544 1218.17 357.098 1214.54 364.052C1213.46 366.068 1211.88 367.764 1209.94 368.971C1208.01 370.178 1205.8 370.854 1203.52 370.93L1186 362.089Z" fill="url(#paint2_linear_567_2924)"/>
<path style="mix-blend-mode:screen" opacity="0.96" d="M1207.97 206.665C1207.97 206.665 1162.29 249.272 1153.38 256.424C1144.47 263.576 1147.99 259.467 1139.58 277.941C1131.17 296.414 1111.51 306.974 1111.51 306.974L1118.76 310.459C1125.2 300.803 1132.28 291.591 1139.94 282.886C1152.05 269.282 1156.21 259.254 1167.48 247.507C1178.75 235.76 1207.97 206.665 1207.97 206.665Z" fill="url(#paint3_linear_567_2924)"/>
<path style="mix-blend-mode:screen" opacity="0.96" d="M1245.03 239.031C1245.03 239.031 1206.43 285.321 1197.52 292.549C1188.6 299.777 1192.13 295.683 1183.72 314.065C1175.3 332.447 1155.65 343.114 1155.65 343.114L1162.88 346.599C1169.33 336.947 1176.4 327.736 1184.06 319.026C1196.17 305.407 1201.57 291.636 1212.81 279.843C1224.06 268.05 1245.03 239.031 1245.03 239.031Z" fill="url(#paint4_linear_567_2924)"/>
<path style="mix-blend-mode:screen" opacity="0.96" d="M1238.38 388.81C1238.38 388.81 1280.16 334.654 1293.02 309.85C1302.81 290.966 1317.52 261.719 1317.52 261.719C1317.52 261.719 1301.19 302.12 1298.45 312.072C1295.71 322.024 1295.26 329.023 1289.18 333.862C1283.1 338.701 1285.77 332.569 1283.26 333.041C1280.75 333.512 1275.17 337.256 1273.38 350.023C1271.6 362.79 1250.03 394.775 1250.03 394.775L1238.38 388.81Z" fill="url(#paint5_linear_567_2924)"/>
<path opacity="0.44" fill-rule="evenodd" clip-rule="evenodd" d="M1176.45 308.694L1177.69 305.118C1178.18 303.702 1189.89 270.119 1205.16 247.75C1220.42 225.382 1275.67 169.034 1297.26 158.382C1309.71 152.295 1336.37 146.528 1357.78 141.933C1366.65 140.03 1374.32 138.387 1378.47 137.215L1381.96 136.241L1390.63 145.235L1390.06 148.278C1389.59 150.774 1378.45 209.693 1367.6 230.449C1360.64 243.703 1343.04 269.419 1330.33 281.486C1310.97 299.898 1289.98 321.202 1278.78 328.536C1256.09 343.205 1218.76 345.701 1217.34 346.142L1213.74 347.283L1176.45 308.694Z" fill="#100023"/>
<path fill-rule="evenodd" clip-rule="evenodd" d="M1161.44 291.833L1162.73 288.121C1163.23 286.599 1175.38 251.828 1191.24 228.562C1207.09 205.295 1264.45 146.817 1286.86 135.739C1299.8 129.379 1327.49 123.444 1349.73 118.666C1358.95 116.688 1366.91 114.984 1371.22 113.766L1374.83 112.747L1383.84 122.09L1383.19 125.316C1382.7 127.918 1371.08 189.09 1359.87 210.53C1352.65 224.225 1329.43 247.4 1316.22 259.939C1296.09 279.051 1275.53 296.292 1263.82 303.84C1240.21 319.056 1205.23 330.21 1203.75 330.682L1200.1 331.854L1161.44 291.833Z" fill="url(#paint6_linear_567_2924)"/>
<path fill-rule="evenodd" clip-rule="evenodd" d="M1354.24 208.019C1365.14 187.248 1373.49 128.04 1373.49 128.04L1368.95 123.383C1354.32 127.492 1306.76 132.97 1289.19 141.643C1268.22 151.96 1211.94 209.176 1196.44 231.894C1180.95 254.613 1168.8 289.718 1168.8 289.718L1185.59 307.142L1202.4 324.55C1202.4 324.55 1237.67 313.411 1260.73 298.544C1283.79 283.677 1343.35 228.79 1354.24 208.019Z" fill="url(#paint7_linear_567_2924)"/>
<path fill-rule="evenodd" clip-rule="evenodd" d="M1330.96 216.525C1339.61 200.137 1344.94 152.006 1344.94 152.006C1344.94 152.006 1293.99 157.743 1280.13 164.606C1263.65 172.807 1219.08 218.047 1206.79 235.988C1194.51 253.928 1184.79 281.638 1184.79 281.638L1197.92 295.333L1211.06 308.952C1211.06 308.952 1238.85 300.02 1257.04 288.227C1275.23 276.434 1322.29 232.944 1330.96 216.525Z" fill="url(#paint8_linear_567_2924)"/>
<path opacity="0.2" fill-rule="evenodd" clip-rule="evenodd" d="M1205.84 302.12L1198.98 294.359L1314.96 179.077L1327.31 191.889L1205.84 302.12Z" fill="#570E23"/>
<path opacity="0.2" fill-rule="evenodd" clip-rule="evenodd" d="M1214.37 268.658L1202.63 259.087L1298 167.542L1311.8 170.464L1214.37 268.658Z" fill="#B7592F"/>
<path opacity="0.2" fill-rule="evenodd" clip-rule="evenodd" d="M1312.92 204.946L1321.68 212.524L1292.22 239.381L1279.96 234.892L1312.92 204.946Z" fill="#B7592F"/>
<path opacity="0.2" fill-rule="evenodd" clip-rule="evenodd" d="M1268.25 245.483L1281.01 249.409L1276.91 253.335L1264.83 248.831L1268.25 245.483Z" fill="#8B0E23"/>
<path opacity="0.2" fill-rule="evenodd" clip-rule="evenodd" d="M1292.36 190.063L1298.53 194.72L1283.78 209.495L1276.8 206.239L1292.36 190.063Z" fill="#8B0E23"/>
<path opacity="0.2" fill-rule="evenodd" clip-rule="evenodd" d="M1243.06 210.043L1246.84 216.693L1306.88 158.884L1292.49 161.836L1243.06 210.043Z" fill="#7B3723"/>
<path opacity="0.2" fill-rule="evenodd" clip-rule="evenodd" d="M1207.06 302.561L1236.08 276.86L1245.77 281.729L1216.76 306.837L1212.43 308.115L1207.06 302.561Z" fill="#7B3723"/>
<g style="mix-blend-mode:soft-light" opacity="0.2">
<path fill-rule="evenodd" clip-rule="evenodd" d="M1248.49 215.673L1262.9 219.751L1267.92 214.441L1255.24 209.252L1248.49 215.673Z" fill="#B30E23"/>
</g>
<g style="mix-blend-mode:soft-light" opacity="0.2">
<path fill-rule="evenodd" clip-rule="evenodd" d="M1258.43 205.402L1269.81 212.691L1260.2 203.896L1258.43 205.402Z" fill="#B30E23"/>
</g>
<path d="M1294 159.992L1195.16 256.791L1195.38 257.02L1294.22 160.221L1294 159.992Z" fill="#7D2B3D"/>
<path d="M1308.55 157.319L1187.71 273.33L1187.93 273.561L1308.77 157.551L1308.55 157.319Z" fill="#7D2B3D"/>
<path d="M1193.78 289.627L1193.55 289.399L1327.82 154.091L1328.05 154.319L1193.78 289.627Z" fill="#7D2B3D"/>
<path d="M1337.36 156.864L1197.81 295.067L1198.03 295.294L1337.58 157.092L1337.36 156.864Z" fill="#7D2B3D"/>
<path d="M1340.68 179.206L1206.65 301.258L1206.86 301.495L1340.89 179.443L1340.68 179.206Z" fill="#7D2B3D"/>
<path d="M1336.92 198.352L1219.04 305.769L1219.26 306.005L1337.13 198.589L1336.92 198.352Z" fill="#7D2B3D"/>
<path d="M1331.84 214.397L1292.87 258.457L1293.11 258.669L1332.08 214.609L1331.84 214.397Z" fill="#7D2B3D"/>
<path d="M1313.72 235.09L1305.87 226.949L1306.1 226.721L1313.95 234.862L1313.72 235.09Z" fill="#7D2B3D"/>
<path d="M1315.09 178.982L1314.86 179.205L1327.22 192.019L1327.45 191.796L1315.09 178.982Z" fill="#7D2B3D"/>
<path d="M1202.77 259.002L1202.57 259.251L1214.3 268.814L1214.5 268.566L1202.77 259.002Z" fill="#7D2B3D"/>
<path fill-rule="evenodd" clip-rule="evenodd" d="M1314.72 218.854L1302.39 228.562L1279.71 250.778L1314.72 218.854Z" fill="#71203D"/>
<path fill-rule="evenodd" clip-rule="evenodd" d="M1264.61 189.044L1263.18 189.333L1246.45 206.741L1264.61 189.044Z" fill="#71203D"/>
<path fill-rule="evenodd" clip-rule="evenodd" d="M1292.73 160.528L1276.23 177.692L1295.76 159.812L1292.73 160.528Z" fill="#71203D"/>
<path fill-rule="evenodd" clip-rule="evenodd" d="M1201.74 260.122L1214.24 268.795L1202.81 259.087L1201.74 260.122Z" fill="#71203D"/>
<path fill-rule="evenodd" clip-rule="evenodd" d="M1205.44 287.558L1206.96 284.042L1206.17 286.995L1205.44 287.558Z" fill="#71203D"/>
<path fill-rule="evenodd" clip-rule="evenodd" d="M1280.71 234.162L1278.31 235.029L1276.53 237.951L1280.71 234.162Z" fill="#71203D"/>
<path fill-rule="evenodd" clip-rule="evenodd" d="M1316.63 135.374L1361.61 180.355L1372.26 129.135L1367.54 125.103L1316.63 135.374Z" fill="#F57729"/>
<path fill-rule="evenodd" clip-rule="evenodd" d="M1316.63 135.374L1317.14 137.535L1359.19 180.325L1361.61 180.355L1316.63 135.374Z" fill="#662F3D"/>
<path fill-rule="evenodd" clip-rule="evenodd" d="M1177.5 272.736L1169.99 289.384L1202.55 323.134L1219.3 316.089L1177.5 272.736Z" fill="#BA5D3D"/>
<path fill-rule="evenodd" clip-rule="evenodd" d="M1219.3 316.089L1218.47 314.385L1178.96 273.786L1177.5 272.736L1219.3 316.089Z" fill="#9C2F3D"/>
<path fill-rule="evenodd" clip-rule="evenodd" d="M1300.5 267.73L1315.19 253.396L1320.17 256.272L1304.01 271.367L1300.5 267.73Z" fill="#664351"/>
<path fill-rule="evenodd" clip-rule="evenodd" d="M1241.8 180.02L1238.87 175.364L1223.81 190.566L1227.32 194.157L1241.8 180.02Z" fill="#664351"/>
<path opacity="0.66" fill-rule="evenodd" clip-rule="evenodd" d="M1316.63 135.374L1313.58 156.404L1340.15 183.946L1361.61 180.355L1316.63 135.374Z" fill="#570E23"/>
<path opacity="0.2" fill-rule="evenodd" clip-rule="evenodd" d="M1282.64 145.57L1280.15 164.606L1276.23 166.888L1277.26 149.45L1282.64 145.57Z" fill="#570E23"/>
<path opacity="0.2" fill-rule="evenodd" clip-rule="evenodd" d="M1326.34 223.419L1339.35 227.619L1310.36 257.291L1300.21 251.585C1300.21 251.585 1323.43 227.466 1326.34 223.419Z" fill="#570E23"/>
<path opacity="0.2" fill-rule="evenodd" clip-rule="evenodd" d="M1329.34 219.219L1346.15 219.675L1347.1 218.458L1330.95 216.525L1329.34 219.219Z" fill="#570E23"/>
<g style="mix-blend-mode:soft-light" opacity="0.35">
<path fill-rule="evenodd" clip-rule="evenodd" d="M1194.64 234.664L1204.7 239.229L1193.22 261.004L1181.6 258.798C1181.6 258.798 1190.6 240.553 1194.64 234.664Z" fill="#7CA2D4"/>
</g>
<path opacity="0.39" fill-rule="evenodd" clip-rule="evenodd" d="M1179.65 262.967L1190.54 267.015L1189.48 269.541L1178.75 264.976L1179.65 262.967Z" fill="#944D2F"/>
<g style="mix-blend-mode:soft-light" opacity="0.35">
<path fill-rule="evenodd" clip-rule="evenodd" d="M1229.85 311.463L1226.57 303.124L1241.38 296.672L1251.17 300.979C1251.17 300.979 1238.02 311.402 1229.85 311.463Z" fill="#7CA2D4"/>
</g>
<path opacity="0.2" fill-rule="evenodd" clip-rule="evenodd" d="M1254.27 302.439L1247.48 293.72L1249.02 292.838L1258.4 300.005L1254.27 302.439Z" fill="#570E23"/>
<path opacity="0.66" fill-rule="evenodd" clip-rule="evenodd" d="M1205.37 223.404L1206.81 235.973L1255.45 289.094L1267.69 292.001L1205.37 223.404Z" fill="#570E23"/>
<path fill-rule="evenodd" clip-rule="evenodd" d="M1218.88 207.837L1205.37 223.403L1267.69 292.001L1286.8 276.312L1218.88 207.837Z" fill="#CF5E3D"/>
<path d="M1278.27 283.343L1211.56 216.267L1211.78 216.039L1278.5 283.099L1278.27 283.343Z" fill="#88353D"/>
<path d="M1214.13 233.005L1213.89 232.792L1220.58 225.123L1220.82 225.336L1214.13 233.005Z" fill="#88353D"/>
<path opacity="0.2" fill-rule="evenodd" clip-rule="evenodd" d="M1218.88 207.837L1275.82 265.234L1269.6 269.876L1212.63 215.034L1218.88 207.837Z" fill="#FF974F"/>
<path opacity="0.2" fill-rule="evenodd" clip-rule="evenodd" d="M1232.47 237.053L1226.34 246.472L1262 285.747L1273.12 277.925L1232.47 237.053Z" fill="#8B2C39"/>
<path opacity="0.2" fill-rule="evenodd" clip-rule="evenodd" d="M1223.43 243.292L1228.72 233.294L1227.96 232.518L1222.15 241.953L1223.43 243.292Z" fill="#8B2C39"/>
<path fill-rule="evenodd" clip-rule="evenodd" d="M1223.5 228.045L1229.8 233.005L1247.11 251.844L1223.5 228.045Z" fill="#6F2B3D"/>
<path fill-rule="evenodd" clip-rule="evenodd" d="M1279.3 282.475L1268.66 273.619L1277.82 283.692L1279.3 282.475Z" fill="#6F2B3D"/>
<path opacity="0.2" fill-rule="evenodd" clip-rule="evenodd" d="M1262 285.747L1265.98 290.129L1275.89 281.577L1272.79 278.169L1262 285.747Z" fill="#FF974F"/>
<path fill-rule="evenodd" clip-rule="evenodd" d="M1267.69 292.001L1205.37 223.404L1239.85 260.776L1267.69 292.001Z" fill="#6F2B3D"/>
<path opacity="0.3" fill-rule="evenodd" clip-rule="evenodd" d="M1285.34 274.791L1266.85 291.027L1267.69 292.001L1286.8 276.312L1285.34 274.791Z" fill="#570E23"/>
<path opacity="0.3" fill-rule="evenodd" clip-rule="evenodd" d="M1218.88 207.837L1219.53 208.491L1206.44 224.514L1205.37 223.403L1218.88 207.837Z" fill="#570E23"/>
<path d="M1337.73 131.048L1337.5 131.271L1365.66 160.481L1365.89 160.259L1337.73 131.048Z" fill="#BD353D"/>
<path d="M1369.42 142.572L1355.09 127.705L1355.33 127.477L1369.66 142.343L1369.42 142.572Z" fill="#BD353D"/>
<path d="M1211.68 319.376L1172.99 282.642L1173.2 282.399L1211.9 319.132L1211.68 319.376Z" fill="#88353D"/>
<path fill-rule="evenodd" clip-rule="evenodd" d="M1213.84 318.387L1208.62 316.256L1210.92 319.619L1213.84 318.387Z" fill="#6F2B3D"/>
<path fill-rule="evenodd" clip-rule="evenodd" d="M1337.6 131.144L1342.03 135.74L1336.04 131.464L1337.6 131.144Z" fill="#6F2B3D"/>
<path opacity="0.2" fill-rule="evenodd" clip-rule="evenodd" d="M1336.04 131.463L1316.63 135.374L1361.61 180.355L1365.44 161.943L1336.04 131.463Z" fill="#8B2C39"/>
<path opacity="0.3" fill-rule="evenodd" clip-rule="evenodd" d="M1359.28 178.027L1370.67 131.144L1366.04 126.351L1318.44 137.17L1316.37 135.1L1367.54 125.103L1372.26 129.135L1361.61 180.355L1359.28 178.027Z" fill="#570E23"/>
<path d="M1374.71 112.743L1368.86 123.312L1369.14 123.467L1374.99 112.898L1374.71 112.743Z" fill="#88353D"/>
<path d="M1373.56 128.177L1373.41 127.903L1383.76 122.014L1383.93 122.288L1373.56 128.177Z" fill="#88353D"/>
<path d="M1168.83 289.56L1161.41 291.715L1161.5 292.022L1168.92 289.867L1168.83 289.56Z" fill="#88353D"/>
<path d="M1199.92 331.854L1202.3 324.473L1202.6 324.58L1200.24 331.96L1199.92 331.854Z" fill="#88353D"/>
<g style="mix-blend-mode:soft-light" opacity="0.2">
<path fill-rule="evenodd" clip-rule="evenodd" d="M1249.35 165.336L1258.69 164.606L1275.32 150.956L1267.81 149.084L1249.35 165.336Z" fill="#B30E23"/>
</g>
<g style="mix-blend-mode:soft-light" opacity="0.2">
<path fill-rule="evenodd" clip-rule="evenodd" d="M1246.49 168.121L1252.79 170.54L1261.58 162.506L1253.61 161.182L1246.49 168.121Z" fill="#B30E23"/>
</g>
<g style="mix-blend-mode:soft-light" opacity="0.35">
<path fill-rule="evenodd" clip-rule="evenodd" d="M1351.11 213.086L1354.76 218.625L1345.3 230.251L1329.79 246.776L1321.73 246.137L1340.08 226.629L1351.11 213.086Z" fill="#B30E23"/>
</g>
<g style="mix-blend-mode:soft-light" opacity="0.35">
<path fill-rule="evenodd" clip-rule="evenodd" d="M1248.04 312.817L1243.24 308.024L1220.14 318.204L1224.51 322.739L1248.04 312.817Z" fill="#B30E23"/>
</g>
<g style="mix-blend-mode:soft-light" opacity="0.35">
<path fill-rule="evenodd" clip-rule="evenodd" d="M1249.48 305.057L1252.32 310.611L1244.62 314.507L1240.05 309.424L1249.48 305.057Z" fill="#B30E23"/>
</g>
<g style="mix-blend-mode:soft-light" opacity="0.35">
<path fill-rule="evenodd" clip-rule="evenodd" d="M1348.01 143.865L1335.19 153.924L1348.9 167.649L1359.1 155.369L1348.01 143.865Z" fill="#B30E23"/>
</g>
<path opacity="0.35" fill-rule="evenodd" clip-rule="evenodd" d="M1351.19 169.536L1360.26 156.571L1361.84 158.215L1353.7 172.138L1351.19 169.536Z" fill="#408145"/>
<path opacity="0.5" fill-rule="evenodd" clip-rule="evenodd" d="M1182.73 243.094L1188.04 245.909L1185.5 251.037L1178.87 250.048L1182.73 243.094Z" fill="#B76F2F"/>
<path opacity="0.5" fill-rule="evenodd" clip-rule="evenodd" d="M1175.65 256.667L1182.55 256.546L1179.65 262.967L1173.47 261.415L1175.65 256.667Z" fill="#B76F2F"/>
<path opacity="0.5" fill-rule="evenodd" clip-rule="evenodd" d="M1260.78 298.514L1262.79 304.54L1260.78 305.833L1258.4 300.005L1260.78 298.514Z" fill="#B76F2F"/>
<path fill-rule="evenodd" clip-rule="evenodd" d="M1185.8 278.823L1189.24 268.217L1199.33 247.218L1206.81 235.973L1199.33 248.511L1189.38 270.317L1185.8 278.823Z" fill="#71203D"/>
<path fill-rule="evenodd" clip-rule="evenodd" d="M1214.9 307.492L1233.66 300.035L1221.42 305.483L1214.9 307.492Z" fill="#71203D"/>
<path fill-rule="evenodd" clip-rule="evenodd" d="M1257.6 181.786L1272.25 170.206L1281.81 163.86L1276.95 165.762C1276.95 165.762 1266.06 173.964 1257.6 181.786Z" fill="#6C1A2D"/>
<path opacity="0.2" fill-rule="evenodd" clip-rule="evenodd" d="M1184.26 293.127L1189.77 285.458L1205.84 302.12L1199.19 307.309L1184.26 293.127Z" fill="#8B2C39"/>
<path opacity="0.2" fill-rule="evenodd" clip-rule="evenodd" d="M1199.88 307.933L1209.94 306.365L1210.85 307.324L1200.35 308.389L1199.88 307.933Z" fill="#8B2C39"/>
<path opacity="0.2" fill-rule="evenodd" clip-rule="evenodd" d="M1193.13 313.365L1203.36 311.25L1204.64 312.467L1193.7 313.959L1193.13 313.365Z" fill="#8B2C39"/>
<path fill-rule="evenodd" clip-rule="evenodd" d="M1324.33 256.667C1324.33 256.667 1310.33 276.662 1297.46 294.71C1289.89 305.209 1282.84 315.039 1279.09 319.878C1271.52 329.632 1248.61 373.32 1248.61 373.32C1245.84 371.373 1243.3 369.111 1241.05 366.579C1236.51 361.831 1231.97 356.505 1231.97 356.505L1241.17 342.688L1238.67 340.238C1239.16 339.675 1254.56 321.354 1261.25 313.563L1262.41 312.178C1269.98 303.231 1287.38 282.277 1287.38 282.277L1296.23 275.734L1324.33 256.667Z" fill="#6186B2"/>
<path fill-rule="evenodd" clip-rule="evenodd" d="M1300.81 278.047L1300.27 277.484L1294.82 280.984L1288.77 275.156L1282.72 267.547L1270.36 259.726L1227.64 216.678L1233.29 216.13C1235.36 209.145 1242.15 202.526 1242.15 202.526L1272.04 217.271L1277.39 215.323L1315.92 235.562L1329.22 236.185L1335.63 241.192L1332.79 246.974H1331.73L1324.33 256.591L1320.97 259.391L1317.2 265.478C1312.07 270.849 1300.81 278.047 1300.81 278.047Z" fill="#8BC9B8"/>
<path opacity="0.66" fill-rule="evenodd" clip-rule="evenodd" d="M1329.2 236.185L1326.49 240.751L1332.79 246.974H1331.73L1326.22 241.268L1317.7 249.713C1319.19 252.61 1321.5 255.002 1324.33 256.591L1320.98 259.391L1315.1 250.991L1308.05 256.835L1295.75 270.53L1300.28 277.514L1294.72 270.621L1290.31 275.293L1294.85 281.029L1288.8 275.186L1282.75 267.578L1270.37 259.741L1281.81 266.421C1283.96 265.225 1285.98 263.824 1287.86 262.237L1272.63 248.709L1257.8 239.031L1233.29 216.206L1259.39 238.361L1288.71 260.198C1294.43 256.132 1299.77 251.548 1304.66 246.502L1279.31 226.31L1272.04 217.317L1273.65 216.738L1291.61 235.364L1303.27 243.885L1315.91 235.607L1329.2 236.185Z" fill="#59549E"/>
<path opacity="0.36" fill-rule="evenodd" clip-rule="evenodd" d="M1290.3 275.262L1294.84 280.984L1288.79 275.156L1282.73 267.547L1270.37 259.726L1227.64 216.678L1233.29 216.13C1235.36 209.145 1242.15 202.526 1242.15 202.526L1272.04 217.271L1277.39 215.323L1315.92 235.562L1329.22 236.185L1326.49 240.751L1328.58 243.794L1326.22 241.344L1320.95 245.346L1317.7 249.789L1315.07 250.991L1309.2 258.341L1295.73 270.515L1299.54 276.388L1294.7 270.606L1290.3 275.277V275.262Z" fill="#6568A9"/>
<path fill-rule="evenodd" clip-rule="evenodd" d="M1326.22 241.344L1322.41 241.085L1303.28 243.84L1291.62 235.318L1304.66 246.457L1321.82 241.664L1326.22 241.344Z" fill="#60538E"/>
<path fill-rule="evenodd" clip-rule="evenodd" d="M1295.73 270.499L1290.31 261.765L1288.71 260.122L1272.29 247.887L1287.79 262.252L1294.7 270.591L1297.09 272.599L1295.73 270.499Z" fill="#60538E"/>
<path fill-rule="evenodd" clip-rule="evenodd" d="M1303.28 243.84L1304.66 246.457L1291.62 235.318L1303.28 243.84Z" fill="#604172"/>
<path style="mix-blend-mode:multiply" opacity="0.5" fill-rule="evenodd" clip-rule="evenodd" d="M1259.4 238.286L1277.54 227.999L1233.29 216.13L1259.4 238.286Z" fill="url(#paint9_linear_567_2924)"/>
<path fill-rule="evenodd" clip-rule="evenodd" d="M1259.4 238.286L1248.22 227.969L1233.29 216.13L1259.4 238.286Z" fill="#6C5392"/>
<g style="mix-blend-mode:soft-light" opacity="0.35">
<path fill-rule="evenodd" clip-rule="evenodd" d="M1306.34 256.759L1296.08 268.491L1290.51 260.73L1301.18 251.417L1306.34 256.759Z" fill="#A9B6F9"/>
</g>
<g style="mix-blend-mode:soft-light" opacity="0.35">
<path fill-rule="evenodd" clip-rule="evenodd" d="M1305.46 243.353L1317.78 236.551L1328.19 236.125L1325.92 239.396L1305.46 243.353Z" fill="#A9B6F9"/>
</g>
<g style="mix-blend-mode:soft-light" opacity="0.35">
<path fill-rule="evenodd" clip-rule="evenodd" d="M1275.47 249.485L1283.56 231.758L1298.89 241.527L1283.73 254.933L1275.47 249.485Z" fill="#C7DBF9"/>
</g>
<g style="mix-blend-mode:soft-light" opacity="0.35">
<path fill-rule="evenodd" clip-rule="evenodd" d="M1272.29 247.887L1282.93 229.384L1279.33 226.264L1263.7 241.496L1272.29 247.887Z" fill="#C7DBF9"/>
</g>
<g style="mix-blend-mode:soft-light" opacity="0.35">
<path fill-rule="evenodd" clip-rule="evenodd" d="M1281.16 224.469L1288.72 221.273L1299.97 227.177L1291.61 235.318L1281.16 224.469Z" fill="#C7DBF9"/>
</g>
<g style="mix-blend-mode:soft-light" opacity="0.35">
<path fill-rule="evenodd" clip-rule="evenodd" d="M1273.82 250.048L1270.48 259.696L1280.75 265.813L1285.26 260.015L1273.82 250.048Z" fill="#C7DBF9"/>
</g>
<g style="mix-blend-mode:soft-light" opacity="0.35">
<path fill-rule="evenodd" clip-rule="evenodd" d="M1257.8 239.001L1252.85 242.074L1234.69 223.753L1245.77 227.771L1257.8 239.001Z" fill="#C7DBF9"/>
</g>
<g style="mix-blend-mode:soft-light" opacity="0.62">
<path fill-rule="evenodd" clip-rule="evenodd" d="M1273.65 216.693L1281.82 223.83L1291.61 235.318L1281.16 224.469L1273.65 216.693Z" fill="#C7DBF9"/>
</g>
<path style="mix-blend-mode:multiply" opacity="0.5" fill-rule="evenodd" clip-rule="evenodd" d="M1279.33 226.264L1268.03 225.64L1255.35 215.962L1272.05 217.271L1279.33 226.264Z" fill="url(#paint10_linear_567_2924)"/>
<path opacity="0.35" fill-rule="evenodd" clip-rule="evenodd" d="M1333.72 122.014L1336.27 129.698L1353.71 126.762L1351.96 118.499L1333.72 122.014Z" fill="#408145"/>
<path opacity="0.35" fill-rule="evenodd" clip-rule="evenodd" d="M1358.48 125.711L1359.86 116.581L1363.18 116.429L1361.61 125.088L1358.48 125.711Z" fill="#408145"/>
<path opacity="0.35" fill-rule="evenodd" clip-rule="evenodd" d="M1380.68 138.205L1372.23 138.615L1368.16 159.173L1375.86 159.904L1380.68 138.205Z" fill="#408145"/>
<path opacity="0.36" fill-rule="evenodd" clip-rule="evenodd" d="M1233.39 355.911L1240.96 366.563C1236.42 361.815 1231.88 356.49 1231.88 356.49L1241.08 342.673L1238.58 340.223L1242.47 338.808L1290.56 285.184L1233.39 355.911Z" fill="#6568A9"/>
<path opacity="0.36" fill-rule="evenodd" clip-rule="evenodd" d="M1248.52 373.335C1245.75 371.388 1243.21 369.126 1240.96 366.594L1292.49 287.999C1290.89 290.677 1244.98 366.791 1244.98 368.648C1244.98 370.504 1248.52 373.335 1248.52 373.335Z" fill="#6568A9"/>
<path opacity="0.7" fill-rule="evenodd" clip-rule="evenodd" d="M1297.43 294.725C1289.86 305.224 1282.81 315.054 1279.06 319.893C1271.49 329.647 1248.58 373.335 1248.58 373.335C1245.81 371.388 1243.27 369.126 1241.02 366.594C1236.48 361.846 1231.94 356.52 1231.94 356.52L1241.14 342.703L1238.64 340.253C1239.13 339.69 1254.53 321.369 1261.22 313.578L1262.38 312.194C1267.51 312.711 1271.58 308.237 1271.58 308.237C1276.86 308.907 1282.34 303.946 1282.34 303.946C1288.74 304.372 1296.94 295.333 1297.43 294.725Z" fill="#153A4D"/>
<path fill-rule="evenodd" clip-rule="evenodd" d="M1299.8 291.407C1299.66 293.18 1298.82 294.821 1297.47 295.972C1295.23 297.768 1289.68 302.166 1286.76 303.003C1286.76 303.033 1297.27 296.749 1299.8 291.407Z" fill="#8CE3FF"/>
<path fill-rule="evenodd" clip-rule="evenodd" d="M1279.27 306.183C1279.27 306.183 1275.11 309.302 1271.7 308.222C1271.66 308.222 1276.6 308.191 1279.27 306.183Z" fill="#8CE3FF"/>
<path opacity="0.66" fill-rule="evenodd" clip-rule="evenodd" d="M1256.95 246.092L1242.05 263.241L1245.51 267.121L1261.94 251.235L1256.95 246.092Z" fill="#570E23"/>
<path opacity="0.66" fill-rule="evenodd" clip-rule="evenodd" d="M1301.56 148.385L1290.71 161.03L1279.63 178.438L1280.55 182.881L1242.83 231.986L1245.77 234.862L1283.11 185.711L1291.95 188.024L1313.59 156.404L1301.56 148.385Z" fill="#570E23"/>
<path fill-rule="evenodd" clip-rule="evenodd" d="M1305.69 181.907C1303.31 182.312 1300.9 182.506 1298.48 182.485L1294.08 191.418L1238.72 303.429C1237.14 303.283 1235.6 302.85 1234.18 302.15C1233.13 301.608 1232.16 300.916 1231.3 300.096C1231.01 299.807 1230.73 299.502 1230.47 299.183L1285.12 195.861L1293.52 180.005C1293.52 180.005 1289.24 174.755 1288.83 173.294C1288.42 171.834 1302.15 147.73 1302.15 147.73C1305.24 148.043 1308.24 148.974 1310.97 150.469C1313.08 151.432 1315.02 152.75 1316.7 154.365L1317.1 154.745C1317.22 154.849 1317.33 154.961 1317.44 155.08C1317.78 155.4 1318.02 155.673 1318.17 155.841L1318.31 155.978C1318.31 155.978 1307.11 181.359 1305.69 181.907Z" fill="#E6773D"/>
<path fill-rule="evenodd" clip-rule="evenodd" d="M1230.37 299.183C1230.37 299.183 1235 297.418 1238.64 303.429C1237.04 303.359 1235.47 302.944 1234.04 302.211C1232.62 301.479 1231.36 300.446 1230.37 299.183Z" fill="url(#paint11_linear_567_2924)"/>
<path fill-rule="evenodd" clip-rule="evenodd" d="M1235.19 290.281C1236.74 289.958 1238.34 290.018 1239.86 290.455C1241.38 290.893 1242.78 291.695 1243.92 292.792L1260.57 259.209C1259.65 258.026 1258.39 257.166 1256.96 256.756C1255.53 256.345 1254 256.405 1252.61 256.926L1235.19 290.281Z" fill="#664351"/>
<path fill-rule="evenodd" clip-rule="evenodd" d="M1293.49 179.959C1294.48 179.827 1295.48 179.998 1296.38 180.448C1297.27 180.899 1298 181.609 1298.48 182.485L1297.62 184.251C1297.62 184.251 1294.6 181.557 1292.63 181.694L1293.49 179.959Z" fill="#664351"/>
<path opacity="0.57" fill-rule="evenodd" clip-rule="evenodd" d="M1305.69 181.907C1303.31 182.312 1300.9 182.506 1298.48 182.485L1294.08 191.418H1293.91C1293.02 190.963 1292.03 190.711 1291.02 190.679C1290.02 190.647 1289.01 190.837 1288.09 191.235L1233.91 299.533L1292.58 181.633L1232.85 298.985L1231.21 300.081C1230.91 299.801 1230.63 299.495 1230.38 299.168L1293.45 179.944C1293.45 179.944 1289.16 174.694 1288.75 173.234C1288.35 171.773 1302.15 147.73 1302.15 147.73C1308.37 148.531 1314.13 151.484 1318.43 156.084C1318.43 156.084 1307.11 181.359 1305.69 181.907Z" fill="#570E23"/>
<path opacity="0.57" fill-rule="evenodd" clip-rule="evenodd" d="M1318.35 155.932C1317.52 155.11 1311.06 148.582 1302.19 147.669C1302.19 147.669 1289.57 171.332 1289.74 173.264C1289.91 175.197 1294.52 179.929 1294.52 179.929L1285.09 195.815L1293.49 179.96C1293.49 179.96 1289.21 174.71 1288.8 173.249C1288.39 171.788 1302.15 147.73 1302.15 147.73C1307.2 148.128 1311.98 150.18 1315.76 153.574L1316.66 154.365C1316.8 154.484 1316.93 154.611 1317.05 154.745C1317.17 154.849 1317.29 154.961 1317.4 155.08L1318.12 155.841L1318.35 155.932Z" fill="#570E23"/>
<path fill-rule="evenodd" clip-rule="evenodd" d="M1309.11 149.435L1304.64 157.986L1309.44 149.708L1309.11 149.435Z" fill="#570E23"/>
<path style="mix-blend-mode:screen" opacity="0.96" fill-rule="evenodd" clip-rule="evenodd" d="M1037.28 364.57C1037.28 364.57 1187.18 213.162 1216.75 198.204C1216.75 198.204 1145.83 246.244 1094.88 304.129L1037.28 364.57Z" fill="url(#paint12_linear_567_2924)"/>
<path style="mix-blend-mode:screen" opacity="0.96" fill-rule="evenodd" clip-rule="evenodd" d="M1054.42 382.069C1054.42 382.069 1189.6 218.367 1211.91 202.906L1054.42 382.069Z" fill="url(#paint13_linear_567_2924)"/>
<path style="mix-blend-mode:screen" opacity="0.96" fill-rule="evenodd" clip-rule="evenodd" d="M1165.14 479.959C1165.14 479.959 1285.68 323.363 1309.92 280.619C1309.92 280.619 1269.52 354.268 1237.9 389.358L1165.14 479.959Z" fill="url(#paint14_linear_567_2924)"/>
<path style="mix-blend-mode:screen" opacity="0.96" fill-rule="evenodd" clip-rule="evenodd" d="M1186 362.089L1128.5 389.677C1128.5 389.677 1230.55 331.945 1277.45 294.314C1277.44 294.314 1224.71 340.36 1186 362.089Z" fill="url(#paint15_linear_567_2924)"/>
</g>
<g clip-path="url(#clip1_567_2924)">
<path d="M177.012 470.431C177.012 483.172 169.466 497.091 163.962 514.865C162.509 519.591 160.026 523.948 156.687 527.632C153.348 531.315 149.233 534.237 144.63 536.194C134.411 540.715 120.47 541.637 102.897 536.305C76.5948 528.273 80.9372 466.942 86.8361 453.412C87.0833 452.821 87.3893 452.255 87.7497 451.724C90.0619 448.469 93.8855 449.402 97.8106 451.857C104.42 456.011 111.345 464.554 111.548 464.898C109.288 459.114 107.868 453.044 107.33 446.869C106.936 442.912 106.849 438.931 107.071 434.961C107.071 434.961 123.211 431.084 136.238 434.805C140.511 436.14 144.616 437.948 148.476 440.193C151.379 441.826 154.195 443.606 156.913 445.525C167.583 453.034 177.035 462.821 177.012 470.431Z" fill="#416614"/>
<path d="M111.176 465.52L118.778 433.672L119.24 433.772L111.943 464.287L143.501 438.26L143.806 438.604L111.176 465.52Z" fill="#40611F"/>
<path d="M173.538 487.36L111.48 465.121L111.605 464.676L176.2 476.229L176.121 476.685L114.21 465.609L173.696 486.927L173.538 487.36Z" fill="#40611F"/>
<path d="M127.462 540.215L111.119 463.943L158.581 526.118L158.209 526.396L111.999 465.865L127.925 540.115L127.462 540.215Z" fill="#40611F"/>
<path d="M84.5011 508.222L84.1063 507.989L111.097 465.209L83.2942 469.764L83.2266 469.308L112.033 464.598L84.5011 508.222Z" fill="#40611F"/>
<path opacity="0.2" d="M110.285 461.366C110.285 461.366 117.989 458.144 120.583 459.089C123.177 460.033 126.752 478.962 126.222 482.417C125.692 485.872 106.146 485.516 103.258 483.183C100.371 480.85 103.642 459.355 103.642 459.355L109.552 462.499L110.285 461.366Z" fill="#363D23"/>
<path d="M102.976 536.305C75.2634 527.873 81.4668 460.566 87.7492 451.724C90.0727 448.48 93.885 449.391 97.8101 451.857C95.3798 451.357 92.8791 451.282 90.4224 451.635C87.3658 452.334 79.5155 488.404 88.3921 517.176C97.2687 545.947 143.558 545.603 158.085 522.475C172.613 499.346 175.793 472.041 173.459 464.61C171.124 457.178 141.877 437.727 131.512 434.894C121.146 432.061 111.04 435.316 109.495 437.116C107.95 438.915 107.375 446.536 107.341 446.88C106.942 442.92 106.855 438.934 107.081 434.961C107.081 434.961 123.211 431.084 136.26 434.805C150.619 438.904 177.045 457.711 177.011 470.453C176.978 483.194 169.466 497.114 163.962 514.887C158.457 532.661 137.794 546.903 102.976 536.305Z" fill="#445314"/>
<path opacity="0.44" d="M150.326 451.101C152.209 473.319 139.34 485.205 119.872 484.316C90.547 482.972 85.1895 459.089 85.1895 459.089L86.8587 453.412C87.1059 452.821 87.4119 452.255 87.7723 451.724C90.0845 448.469 93.9081 449.402 97.8332 451.857C104.443 456.011 111.368 464.554 111.571 464.898C109.31 459.114 107.89 453.044 107.353 446.869C106.959 442.912 106.872 438.931 107.093 434.961C107.093 434.961 123.234 431.084 136.261 434.805C140.534 436.14 144.639 437.948 148.499 440.193C151.285 441.748 147.562 449.135 150.326 451.101Z" fill="#102223"/>
<path opacity="0.6" d="M3.34821 479.517C-8.30302 463.743 -14.2696 440.893 -7.37814 432.128C-0.486659 423.363 31.7601 418.886 36.1251 420.664C36.356 420.76 36.5818 420.867 36.8018 420.986C40.9186 423.208 45.825 429.717 46.107 430.084C45.9867 429.471 45.9039 428.851 45.8589 428.229C45.8589 428.229 45.8589 428.151 45.8589 428.095C45.7809 427.197 45.7809 426.294 45.8589 425.396C45.8896 424.995 45.9538 424.598 46.0506 424.207C46.2986 422.443 47.2429 420.847 48.6786 419.764C52.897 416.853 79.5155 415.531 92.6668 445.392C105.818 475.252 97.1784 502.312 74.688 508.6C52.1977 514.887 22.1052 504.945 3.34821 479.517Z" fill="#122200"/>
<path d="M4.76927 480.895C-6.89325 465.121 -12.8599 442.27 -5.95709 433.505C0.94568 424.741 33.1811 420.264 37.5461 422.052C37.7802 422.141 38.0065 422.249 38.2229 422.374C42.3284 424.596 47.2461 431.106 47.5168 431.472C47.3965 430.859 47.3137 430.24 47.2687 429.617C47.2567 429.574 47.2567 429.528 47.2687 429.484C47.1959 428.586 47.1959 427.683 47.2687 426.785C47.3003 426.384 47.3644 425.986 47.4604 425.596C47.7131 423.833 48.6564 422.238 50.0884 421.152C54.3181 418.231 80.9253 416.909 94.0766 446.769C107.228 476.629 98.5882 503.69 76.0979 509.977C53.6075 516.265 23.5376 506.311 4.76927 480.895Z" fill="#677B00"/>
<path d="M46.9639 431.917L55.5021 419.697L55.8969 419.964L48.1369 431.05L72.68 423.085L72.8267 423.519L46.9639 431.917Z" fill="#40611F"/>
<path d="M94.1447 447.747L47.4721 431.694L9.15723 425.929L9.23618 425.474L47.5849 431.261L94.2913 447.313L94.1447 447.747Z" fill="#40611F"/>
<path d="M29.1326 502.534L28.6815 502.423L47.2016 431.883L-7.15201 455.967L-7.34375 455.556L47.9009 431.083L47.7769 431.539L29.1326 502.534Z" fill="#40611F"/>
<path d="M47.7612 431.378L47.3369 431.559L81.0453 508.095L81.4696 507.913L47.7612 431.378Z" fill="#40611F"/>
<path d="M4.76927 480.895C-6.89325 465.121 -12.8599 442.27 -5.95709 433.505C0.945678 424.741 33.1811 420.264 37.5461 422.052C37.7802 422.141 38.0065 422.249 38.2229 422.374C36.125 422.374 4.38578 422.108 -5.58488 436.705C-15.939 451.79 8.40111 489.304 34.0947 502.823C59.7884 516.343 84.5007 504.945 93.0841 494.947C101.667 484.95 97.9679 448.58 87.4445 436.405C76.9212 424.23 55.9873 419.131 51.1712 420.964C50.2124 421.364 49.3741 422.001 48.7363 422.812C48.0985 423.623 47.6825 424.581 47.5281 425.596C47.7807 423.833 48.7241 422.238 50.1561 421.152C54.3857 418.231 80.9929 416.909 94.1443 446.769C107.296 476.629 98.6559 503.69 76.1655 509.977C53.6751 516.265 23.5376 506.311 4.76927 480.895Z" fill="#567723"/>
<path d="M59.7881 421.275C59.7881 421.275 54.1486 420.964 51.0018 422.652C47.8549 424.341 47.3474 430.039 47.3474 430.039C47.3474 430.039 46.6594 423.074 50.1333 421.152C53.6072 419.231 59.7881 421.275 59.7881 421.275Z" fill="#98AE00"/>
<path opacity="0.4" d="M47.6862 428.184C47.6862 428.184 52.8294 429.473 54.6679 433.072C56.5064 436.671 44.0882 451.623 41.8549 449.89C39.6217 448.157 38.0426 430.95 40.4789 429.795C42.9151 428.64 46.5244 430.15 46.5244 430.15L47.4493 430.872L47.6862 428.184Z" fill="#363D23"/>
<path opacity="0.2" d="M33.2719 434.172C36.7797 437.038 32.8997 445.38 28.1625 451.013C23.4253 456.645 9.7326 442.959 12.0786 437.416C14.4247 431.872 30.3958 431.806 33.2719 434.172Z" fill="#363D23"/>
<path opacity="0.2" d="M7.32984 437.593C10.4767 437.96 9.8225 443.359 9.19088 446.058C8.55925 448.757 1.50986 447.269 0.0887021 444.947C-1.33246 442.625 4.37473 437.249 7.32984 437.593Z" fill="#363D23"/>
<path d="M172.635 406.078C171.214 415.32 161.356 433.283 153.258 434.327C145.16 435.371 135.606 431.861 123.729 429.95C111.853 428.04 101.104 416.387 104.972 393.914C108.052 376.029 151.589 374.251 157.769 377.417C163.95 380.583 151.329 393.281 151.329 393.281C157.134 390.22 163.538 388.421 170.109 388.004C170.109 388.004 173.955 397.724 172.635 406.078Z" fill="#415C14"/>
<path opacity="0.6" d="M142.915 378.662C129.583 447.969 67.7851 413.387 65.0894 404.445C64.2999 401.834 85.0984 392.292 85.0984 392.292C85.0984 392.292 63.7359 400.857 60.0364 397.435C59.7758 397.156 59.583 396.822 59.4724 396.458C57.3294 389.793 64.9766 359.366 83.5419 349.335C110.871 334.549 147.798 353.301 142.915 378.662Z" fill="#122200"/>
<path d="M142.588 378.006C129.256 447.313 67.4583 412.732 64.7626 403.79C63.9618 401.168 84.7603 391.637 84.7603 391.637C84.7603 391.637 63.4204 400.201 59.7434 396.78C59.4773 396.504 59.2837 396.169 59.1795 395.802C57.0365 389.137 64.6836 358.711 83.2376 348.679C110.544 333.872 147.472 352.645 142.588 378.006Z" fill="#677B00"/>
<path d="M85.0428 391.981L84.6818 391.737L62.0674 377.073L62.214 376.862L84.4562 391.281L70.7071 360.099L70.944 359.999L85.0428 391.981Z" fill="#567400"/>
<path d="M84.5576 392.07L90.919 345.369L91.1897 345.402L84.9411 391.192L121.587 346.724L121.801 346.891L84.5576 392.07Z" fill="#567400"/>
<path d="M112.135 419.286L84.9186 392.17L80.6438 415.398L80.125 415.309L84.5802 391.092L112.507 418.919L112.135 419.286Z" fill="#567400"/>
<path d="M84.0381 391.859L140.264 362.332L140.388 362.565L85.4592 391.415L102.615 389.126L139.057 391.115L139.046 391.37L102.626 389.382L84.0381 391.859Z" fill="#567400"/>
<path d="M142.588 378.006C129.256 447.313 67.4583 412.732 64.7626 403.79C64.7626 403.79 85.9672 421.797 107.014 418.62C128.061 415.443 144.562 388.56 141.449 367.442C138.336 346.324 101.668 341.437 86.5424 347.569C71.4172 353.701 58.1644 383.316 59.1795 395.791C57.0365 389.126 64.6836 358.7 83.2376 348.668C110.544 333.872 147.472 352.645 142.588 378.006Z" fill="#565E23"/>
<path opacity="0.2" d="M84.7491 391.637C84.7491 391.637 68.6539 397.946 66.8041 395.814C64.9544 393.681 69.1727 379.517 78.0155 375.107C86.8582 370.697 99.4456 381.072 101.07 387.86C102.694 394.647 73.1317 399.024 72.9963 397.769L84.7491 391.637Z" fill="#363D23"/>
<path opacity="0.6" d="M129.008 404.167C178.715 442.759 125.963 476.374 117.729 474.774C115.326 474.318 116.229 454.367 116.229 454.367C116.229 454.367 114.334 474.363 110.104 475.774C109.775 475.855 109.43 475.855 109.1 475.774C102.965 474.73 81.839 456.378 81.433 437.949C80.8239 410.877 110.792 390.048 129.008 404.167Z" fill="#122200"/>
<path d="M128.353 404.145C178.06 442.736 125.308 476.351 117.074 474.763C114.683 474.296 115.586 454.356 115.586 454.356C115.586 454.356 113.679 474.352 109.461 475.763C109.131 475.843 108.787 475.843 108.457 475.763C102.321 474.718 81.1958 456.378 80.7897 437.993C80.1694 410.866 110.172 390.026 128.353 404.145Z" fill="url(#paint16_radial_567_2924)"/>
<path d="M94.7422 465.909L94.6182 465.709L115.18 454.434L84.749 452.312L84.7716 452.09L115.981 454.267L115.642 454.445L94.7422 465.909Z" fill="#567400"/>
<path d="M115.856 454.678L115.518 454.445L81.2861 430.695L81.4215 430.506L115.315 454.023L94.8886 407.578L95.1029 407.478L115.856 454.678Z" fill="#567400"/>
<path d="M132.527 467.587L115.09 454.256L148.634 444.07L148.769 444.503L116.082 454.434L132.809 467.22L132.527 467.587Z" fill="#567400"/>
<path d="M115.473 454.989L114.943 399.535H115.169L115.688 453.712L120.876 439.537L137.344 412.221L137.547 412.332L121.09 439.626L115.473 454.989Z" fill="#567400"/>
<path d="M128.354 404.145C178.06 442.737 125.308 476.351 117.075 474.763C117.075 474.763 140.073 465.743 146.141 448.202C152.209 430.661 137.557 406.944 119.477 400.724C101.397 394.503 82.5946 420.797 81.2524 434.961C79.9102 449.124 98.1032 471.464 108.446 475.774C102.31 474.73 81.1847 456.389 80.7787 438.004C80.1696 410.866 110.172 390.026 128.354 404.145Z" fill="#565E23"/>
<path d="M115.428 463.565C115.428 463.565 115.969 472.73 118.281 472.941C120.594 473.152 144.313 463.21 146.964 442.303C149.614 421.397 129.549 406.189 129.549 406.189C129.549 406.189 153.145 423.163 146.626 446.636C140.106 470.108 118.496 474.974 117.074 474.763C115.653 474.552 115.428 465.476 115.428 463.565Z" fill="#98AE00"/>
<path opacity="0.6" d="M131.32 434.194C131.004 437.06 132.64 438.871 134.467 436.505C136.294 434.139 132.538 429.684 130.846 430.095C129.154 430.506 131.32 434.194 131.32 434.194Z" fill="#B3BD23"/>
<path opacity="0.6" d="M7.02527 505.034C17.7291 443.592 72.8722 473.219 75.41 481.084C76.1431 483.383 57.9162 492.115 57.9162 492.115C57.9162 492.115 76.6394 484.239 79.9329 487.205C80.1711 487.444 80.3455 487.738 80.4404 488.06C82.4368 493.87 76.1431 520.908 59.9013 530.051C36.0236 543.526 3.11145 527.507 7.02527 505.034Z" fill="#122200"/>
<path d="M7.32947 505.612C18.0333 444.17 73.1764 473.841 75.7029 481.617C76.4473 483.916 58.2091 492.648 58.2091 492.648C58.2091 492.648 76.9436 484.772 80.2371 487.738C80.4718 487.98 80.6456 488.273 80.7447 488.593C82.741 494.403 76.4586 521.441 60.2168 530.584C36.3504 544.103 3.40437 528.084 7.32947 505.612Z" fill="url(#paint17_radial_567_2924)"/>
<path d="M70.8981 520.442L57.9385 492.392L78.4776 505.212L78.3535 505.401L58.4799 492.992L71.1124 520.342L70.8981 520.442Z" fill="#567400"/>
<path d="M53.4725 533.661L53.2357 533.639L58.0518 493.081L26.3578 532.928L26.166 532.783L58.3789 492.303L53.4725 533.661Z" fill="#567400"/>
<path d="M58.3678 493.159L33.2607 468.998L33.5878 468.664L58.052 492.215L61.4696 471.63L61.932 471.708L58.3678 493.159Z" fill="#567400"/>
<path d="M9.60791 519.409L9.49512 519.209L57.5889 492.903L42.4637 495.181L10.2283 493.959L10.2395 493.736L42.4412 494.947L58.8296 492.481L9.60791 519.409Z" fill="#567400"/>
<path d="M7.32947 505.612C18.0333 444.17 73.1764 473.841 75.7029 481.617C75.7029 481.617 56.6978 466.065 38.1325 469.142C19.5672 472.219 5.42332 496.258 8.50249 514.876C11.5817 533.494 44.054 537.26 57.3181 531.617C70.5822 525.974 81.8387 499.613 80.7447 488.604C82.741 494.414 76.4586 521.453 60.2168 530.595C36.3504 544.103 3.40437 528.084 7.32947 505.612Z" fill="#565E23"/>
<path d="M66.5111 488.438C66.5111 488.438 74.4064 483.594 73.5154 481.484C72.6243 479.373 52.4011 463.599 32.4823 471.297C12.5635 478.995 8.58203 503.601 8.58203 503.601C8.58203 503.601 12.462 475.074 36.5089 469.52C60.5558 463.965 75.2185 480.328 75.7035 481.617C76.1885 482.905 68.2142 487.527 66.5111 488.438Z" fill="#98AE00"/>
<path opacity="0.6" d="M25.2863 531.184C25.2863 531.184 29.6287 523.297 28.185 511.31C26.7413 499.324 17.109 499.557 17.109 499.557C17.109 499.557 20.0754 494.547 19.5227 491.115C18.9701 487.682 14.3908 487.371 14.3908 487.371C14.3908 487.371 5.62698 505.001 8.85278 516.487C12.0786 527.973 25.2863 531.184 25.2863 531.184Z" fill="#B3BD23"/>
<path opacity="0.6" d="M32.7191 488.693C35.426 487.582 36.2607 485.36 33.283 484.872C30.3054 484.383 28.1172 489.804 29.279 491.059C30.4407 492.314 32.7191 488.693 32.7191 488.693Z" fill="#B3BD23"/>
<path opacity="0.6" d="M51.1147 483.35C53.8104 482.239 46.682 472.063 43.7156 471.608C40.7493 471.152 34.918 480.339 35.7075 481.861C38.1889 486.638 51.1147 483.35 51.1147 483.35Z" fill="#B3BD23"/>
<path opacity="0.6" d="M197.799 413.998C209.901 415.676 222.759 422.885 223.74 429.639C224.722 436.394 212.924 452.423 210.205 453.568C210.064 453.633 209.917 453.685 209.766 453.723C207.014 454.59 201.961 453.934 201.679 453.89C201.757 453.89 202.13 454.19 202.615 454.578H202.682C203.115 454.939 203.519 455.333 203.889 455.756C204.055 455.941 204.206 456.137 204.34 456.345C205.024 457.212 205.339 458.308 205.22 459.4C204.724 462.499 193.941 474.696 174.767 467.642C155.592 460.588 147.28 445.292 154.115 432.739C160.95 420.186 178.297 411.299 197.799 413.998Z" fill="#122200"/>
<path d="M196.513 414.032C208.626 415.698 221.484 422.919 222.454 429.673C223.424 436.427 211.638 452.457 208.92 453.601C208.777 453.662 208.63 453.714 208.48 453.756C205.739 454.623 200.675 453.956 200.393 453.923C200.721 454.135 201.037 454.365 201.34 454.612H201.408C201.837 454.969 202.237 455.359 202.603 455.778C202.773 455.966 202.927 456.167 203.066 456.378C203.751 457.245 204.063 458.342 203.934 459.433C203.438 462.532 192.655 474.729 173.481 467.664C154.307 460.599 146.05 445.325 152.885 432.739C159.72 420.153 177.068 411.332 196.513 414.032Z" fill="#7F9800"/>
<path d="M193.467 468.497L193.253 468.397L200.528 453.567L202.344 462.454L202.118 462.499L200.438 454.278L193.467 468.497Z" fill="#567400"/>
<path d="M173.29 467.542L173.177 467.331L200.427 453.823L219.466 439.537L219.601 439.726L200.551 454.012L173.29 467.542Z" fill="#567400"/>
<path d="M200.54 454.445L200.28 454.045L176.278 415.443L176.673 415.209L200.427 453.39L212.822 419.475L213.262 419.63L200.54 454.445Z" fill="#567400"/>
<path d="M200.438 454.034L151.498 435.938L151.577 435.727L200.517 453.812L200.438 454.034Z" fill="#567400"/>
<path d="M196.513 414.032C208.626 415.698 221.484 422.919 222.454 429.673C223.424 436.427 211.638 452.457 208.92 453.601C208.777 453.663 208.63 453.714 208.48 453.756C209.393 452.856 223.086 439.104 220.808 428.462C218.45 417.464 191.11 412.01 174 417.442C156.889 422.874 151.442 438.548 152.265 446.636C153.088 454.723 171.078 468.653 181.083 469.275C191.087 469.897 202.355 462.921 203.641 460.033C203.871 459.442 203.944 458.804 203.854 458.178C203.763 457.552 203.511 456.959 203.122 456.456C203.807 457.322 204.119 458.42 203.991 459.511C203.494 462.61 192.712 474.807 173.537 467.742C154.363 460.677 146.05 445.325 152.885 432.739C159.72 420.153 177.068 411.332 196.513 414.032Z" fill="#567723"/>
<path d="M210.048 452.179C210.048 452.179 222.455 438.582 220.086 428.606C217.3 417.142 191.618 415.365 191.618 415.365C191.618 415.365 217.785 415.554 220.944 428.462C223.583 439.259 210.048 452.179 210.048 452.179Z" fill="#98AE00"/>
<path d="M199.896 463.654C201.266 462.421 202.341 460.903 203.043 459.211C203.652 457.1 201.284 454.445 201.284 454.445C201.284 454.445 204.667 457.133 204.115 459.5C203.562 461.866 199.896 463.654 199.896 463.654Z" fill="#98AE00"/>
<path opacity="0.6" d="M242.915 523.508C242.915 542.626 227.868 561.133 202.536 550.991C177.203 540.848 179.166 509.277 187.196 508.689C193.298 508.255 200.562 511.866 203.686 513.632H203.754C204.577 514.099 205.096 514.421 205.198 514.476C204.848 513.954 197.844 503.623 201.126 498.124C204.408 492.626 242.926 499.913 242.915 523.508Z" fill="#122200"/>
<path d="M242.915 522.297C242.915 541.415 227.868 559.922 202.536 549.78C177.203 539.638 179.166 508.067 187.196 507.478C193.298 507.034 200.562 510.655 203.686 512.41H203.754L205.198 513.266C204.848 512.744 197.844 502.412 201.126 496.914C204.408 491.415 242.926 498.702 242.915 522.297Z" fill="url(#paint18_radial_567_2924)"/>
<path d="M183.282 528.962L183.136 528.773L204.916 513.41L183.203 511.388L183.226 511.166L205.558 513.243L183.282 528.962Z" fill="#567400"/>
<path d="M201.137 549.146L200.9 549.124L205.153 513.021L205.322 513.254L231.275 547.536L231.094 547.669L205.31 513.621L201.137 549.146Z" fill="#567400"/>
<path d="M242.52 527.196L204.442 513.277L235.403 505.778L235.505 506.223L206.021 513.366L242.678 526.763L242.52 527.196Z" fill="#567400"/>
<path d="M205.345 513.332L205.119 513.321L206.676 495.014L206.901 495.036L205.345 513.332Z" fill="#567400"/>
<path d="M242.915 522.297C242.915 541.415 227.868 559.922 202.536 549.78C177.203 539.637 179.166 508.067 187.196 507.478C193.298 507.033 200.562 510.655 203.686 512.41C202.445 511.866 189.384 506.178 185.301 510.055C181.015 514.121 181.658 540.626 203.179 548.791C224.699 556.956 238.956 544.414 242.001 525.807C245.746 502.879 209.856 490.659 201.148 496.925C204.509 491.304 242.926 498.702 242.915 522.297Z" fill="#567723"/>
<path opacity="0.4" d="M202.863 513.11C202.863 513.11 202.942 517.02 206.021 517.709C209.101 518.398 210.375 514.476 209.146 513.11C207.916 511.744 204.138 511.588 204.138 511.588L204.566 512.921L202.863 513.11Z" fill="#363D23"/>
<path d="M183.215 519.042C183.215 519.042 183.813 532.928 195.566 541.948C207.318 550.968 227.857 551.357 235.042 542.204C239.323 536.559 241.747 529.76 241.99 522.719C242.307 530.263 239.689 537.641 234.67 543.348C226.222 553.035 207.916 554.923 194.72 543.981C181.523 533.039 183.215 519.042 183.215 519.042Z" fill="#98AE00"/>
<path opacity="0.6" d="M223.921 528.273C224.237 526.285 224.767 525.296 226.086 525.529C227.406 525.763 227.406 528.34 226.086 528.862C225.711 529.022 225.292 529.05 224.898 528.943C224.505 528.836 224.16 528.6 223.921 528.273Z" fill="#B3BD23"/>
<path opacity="0.44" d="M110.793 346.769C124.688 355.1 131.602 373.763 113.195 387.215C94.7876 400.668 72.7145 385.527 75.8276 379.606C78.1623 375.162 83.9485 371.574 86.5878 370.13C87.2871 369.753 87.7157 369.53 87.8397 369.486C87.2983 369.486 76.7412 369.941 74.1695 365.231C71.5979 360.521 93.671 336.482 110.793 346.769Z" fill="#102223"/>
<path opacity="0.6" d="M113.386 330.539C129.955 340.537 138.2 362.754 116.251 378.806C94.3023 394.858 67.932 376.784 71.5751 369.73C74.361 364.365 81.275 360.133 84.4332 358.422H84.4896C85.3242 357.977 85.8769 357.7 85.9784 357.655C85.3468 357.655 72.7481 358.2 69.6689 352.579C66.5898 346.958 92.9263 318.32 113.386 330.539Z" fill="#122200"/>
<path d="M112.338 329.906C128.907 339.903 137.152 362.121 115.192 378.173C93.2314 394.225 66.861 376.162 70.5267 369.097C73.3126 363.743 80.2266 359.51 83.3735 357.788H83.4412C84.2758 357.344 84.8172 357.078 84.93 357.022C84.2871 357.022 71.6884 357.566 68.6205 351.945C65.5526 346.324 91.8666 317.642 112.338 329.906Z" fill="url(#paint19_radial_567_2924)"/>
<path d="M86.8923 383.572L84.8733 357.266L71.846 374.485L71.6543 374.352L85.0651 356.633L85.0876 356.944L87.1291 383.55L86.8923 383.572Z" fill="#567400"/>
<path d="M113.781 379.195L84.6699 356.866L128.173 352.812L128.207 353.034L85.279 357.044L113.916 379.017L113.781 379.195Z" fill="#567400"/>
<path d="M84.5234 357.6L94.0993 327.651L94.5392 327.784L85.4258 356.311L116.093 332.427L116.375 332.783L84.5234 357.6Z" fill="#567400"/>
<path d="M84.9067 357.044L69.8379 346.224L69.9732 346.047L85.042 356.866L84.9067 357.044Z" fill="#567400"/>
<path d="M112.337 329.906C128.906 339.904 137.151 362.121 115.191 378.173C93.2306 394.225 66.8602 376.162 70.5259 369.097C73.3118 363.743 80.2258 359.51 83.3727 357.789C82.2448 358.544 70.5371 366.587 71.7666 372.03C73.0749 377.751 96.4 390.981 114.627 377.118C132.854 363.254 129.414 344.736 114.852 332.505C96.9188 317.442 67.6723 341.292 68.6084 351.89C65.4954 346.091 91.8658 317.642 112.337 329.906Z" fill="#567723"/>
<path opacity="0.4" d="M83.5536 358.844C83.5536 358.844 86.9373 360.799 89.1931 358.577C91.4489 356.355 88.6517 353.223 86.8245 353.556C84.9973 353.889 82.8994 356.978 82.8994 356.978L84.2867 357.311L83.5536 358.844Z" fill="#363D23"/>
<path d="M78.4893 378.462C78.4893 378.462 90.8962 385.127 104.781 379.973C118.665 374.818 129.719 357.689 125.455 346.924C122.795 340.365 118.158 334.767 112.168 330.883C118.874 334.542 123.911 340.58 126.256 347.768C130.271 359.921 122.398 376.296 106.044 381.717C89.6893 387.138 78.4893 378.462 78.4893 378.462Z" fill="#98AE00"/>
<path d="M141.46 540.815C141.094 542.142 140.499 543.397 139.701 544.525C137.321 546.914 130.677 548.558 130.677 548.558C131.449 548.711 132.204 548.934 132.933 549.224C134.546 549.869 136.52 551.035 136.994 553.046C137.828 556.589 131.591 574.408 107.871 575.03C84.1515 575.652 68.1353 562.81 69.9173 546.303C71.6994 529.795 86.4637 512.755 108.683 507.234C122.478 503.823 139.543 506.034 143.648 512.899C146.818 518.387 143.975 533.572 141.46 540.815Z" fill="url(#paint20_radial_567_2924)"/>
<path d="M84.8502 570.02L84.7487 569.82L129.47 549.002L76.1541 562.477L76.0977 562.255L130.587 548.48L130.666 548.691L84.8502 570.02Z" fill="#567400"/>
<path d="M130.948 548.802L73.9326 533.383L74.0003 533.161L130.283 548.38L97.9344 511.077L98.1148 510.933L130.948 548.802Z" fill="#567400"/>
<path d="M117.808 573.685L117.604 573.586L130.496 548.558L131.545 506.567L131.771 506.578L130.722 548.635L117.808 573.685Z" fill="#567400"/>
<path d="M129.594 567.243L129.357 567.232L130.497 548.58L130.733 548.591L129.594 567.243Z" fill="#567400"/>
<path d="M141.46 540.815C141.685 539.882 145.971 521.93 143.264 516.098C140.558 510.266 120.244 504.434 101.385 511.01C82.527 517.587 70.6389 538.527 70.5486 546.258C70.4584 553.99 77.598 575.674 105.243 574.43C132.888 573.186 136.824 555.645 136.396 553.401C135.967 551.157 132.786 549.291 132.786 549.291H132.899C134.512 549.935 136.486 551.102 136.96 553.112C137.794 556.656 131.557 574.474 107.837 575.096C84.1173 575.718 68.1011 562.877 69.8832 546.369C71.6653 529.862 86.4295 512.821 108.649 507.3C122.443 503.89 139.509 506.1 143.614 512.966C146.817 518.387 143.975 533.572 141.46 540.815Z" fill="#567723"/>
<path d="M72.0491 540.104C71.8188 544.206 72.1757 548.32 73.1094 552.324C74.6433 558.744 81.6363 570.097 96.0058 573.308C110.375 576.518 124.936 569.253 128.478 566.365C131.063 564.04 133.313 561.379 135.167 558.456C135.167 558.456 131.636 572.297 107.386 574.285C83.1364 576.274 77.1811 564.454 73.9666 559.911C70.752 555.367 69.2519 543.703 72.0491 540.104Z" fill="#98AE00"/>
<path opacity="0.6" d="M198.464 367.62C197.032 368.009 195.52 368.009 194.088 367.62C192.379 367.186 190.77 366.431 189.351 365.398C190.694 366.453 191.954 367.608 193.118 368.853C194.844 370.752 196.355 373.052 195.814 374.896C194.686 378.784 180.079 392.67 167.763 390.848C153.653 388.76 147.709 373.552 147.291 367.52C146.716 359.444 151.419 331.372 166.657 326.718C190.276 319.608 206.664 340.237 207.792 346.991C208.92 353.745 203.28 366.242 198.464 367.62Z" fill="#122200"/>
<path d="M198.464 366.798C197.031 367.175 195.522 367.175 194.088 366.798C192.38 366.359 190.773 365.605 189.351 364.576C190.694 365.631 191.954 366.786 193.118 368.031C194.844 369.941 196.355 372.23 195.814 374.074C194.686 377.962 180.079 391.848 167.763 390.037C153.653 387.937 147.709 372.73 147.291 366.709C146.716 358.622 151.419 330.55 166.657 325.896C190.276 318.786 206.664 339.426 207.792 346.158C208.92 352.89 203.28 365.42 198.464 366.798Z" fill="url(#paint21_linear_567_2924)"/>
<path d="M191.708 379.395L188.843 364.198H201.757V364.476H189.181L191.978 379.339L191.708 379.395Z" fill="#567400"/>
<path d="M188.73 365.009L195.791 331.172L196.073 331.228L189.294 363.665L204.972 340.337L205.198 340.492L188.73 365.009Z" fill="#567400"/>
<path d="M150.393 375.962L150.314 375.696L188.776 364.265L161.289 328.195L161.515 328.028L189.25 364.409L189.058 364.476L150.393 375.962Z" fill="#567400"/>
<path d="M188.962 364.229L153.623 381.484L153.748 381.733L189.087 364.478L188.962 364.229Z" fill="#567400"/>
<path d="M198.464 366.798C197.031 367.175 195.522 367.175 194.088 366.798C201.983 367.797 210.42 354.367 205.897 343.836C201.374 333.305 180.294 323.84 167.785 326.862C155.277 329.884 149.265 347.88 148.712 361.221C148.16 374.563 155.345 387.06 169.184 388.571C183.023 390.081 194.956 375.74 195.385 373.741C195.814 371.741 193.039 367.975 193.039 367.975H193.118C194.844 369.886 196.355 372.174 195.814 374.018C194.686 377.906 180.079 391.792 167.763 389.981C153.653 387.882 147.709 372.674 147.291 366.653C146.716 358.566 151.419 330.495 166.657 325.84C190.276 318.786 206.664 339.426 207.792 346.158C208.92 352.89 203.28 365.42 198.464 366.798Z" fill="#565E23"/>
<path d="M150.54 349.179C150.54 349.179 146.964 363.932 152.525 374.974C154.425 379.015 157.539 382.384 161.447 384.625C165.354 386.866 169.866 387.871 174.372 387.504C184.636 386.704 193.919 374.662 194.742 373.218C195.566 371.774 192.543 367.497 192.543 367.497C192.543 367.497 195.926 371.519 195.34 373.763C194.753 376.007 182.707 389.837 170.131 389.004C157.555 388.171 143.502 375.596 150.54 349.179Z" fill="#98AE00"/>
<path d="M117.368 630.195C113.533 631.862 106.8 632.139 100.709 631.962H100.641C93.7498 631.762 87.7155 630.984 87.7155 630.984C87.8505 634.011 87.7752 637.043 87.4899 640.06C86.9147 645.692 85.3018 651.791 80.9706 651.324C76.335 650.813 58.0404 649.58 48.8254 633.161C36.1027 610.544 56.0778 583.595 75.8049 585.394C131.501 590.482 119.624 629.218 117.368 630.195Z" fill="url(#paint22_linear_567_2924)"/>
<path d="M87.2529 631.217L116.229 604.868L116.387 605.045L88.1101 630.751L119.77 622.164L119.838 622.386L87.2529 631.217Z" fill="#567400"/>
<path d="M87.5686 630.995L81.8389 586.127L82.0645 586.105L87.6363 629.695L89.8583 587.682L90.0838 587.694L87.7942 630.995H87.5686Z" fill="#567400"/>
<path d="M87.9295 631.184L87.6475 631.095L44.7646 618.431L44.821 618.209L87.4332 630.795L62.1795 588.482L62.3825 588.371L87.9295 631.184Z" fill="#567400"/>
<path d="M67.4694 648.591L67.3115 648.414L87.6025 630.906L87.7604 631.073L67.4694 648.591Z" fill="#567400"/>
<path d="M117.368 630.195C113.533 631.862 106.799 632.139 100.709 631.962C101.927 631.895 113.555 631.195 115.281 629.429C117.007 627.663 119.624 623.741 115.281 608.2C110.939 592.659 81.9741 584.05 70.6049 586.127C59.2356 588.205 43.8285 604.001 46.8174 623.897C49.8064 643.792 72.7592 650.102 78.1844 649.313C83.6096 648.525 87.4557 640.082 87.4557 640.082C86.8805 645.714 85.2676 651.813 80.9365 651.346C76.3008 650.835 58.0062 649.602 48.7912 633.184C36.0685 610.566 56.0437 583.617 75.7707 585.416C131.5 590.482 119.624 629.218 117.368 630.195Z" fill="#566B23"/>
<path d="M60.15 591.237C60.15 591.237 46.6716 602.846 47.6303 621.819C48.589 640.793 73.4593 648.925 73.4593 648.925C73.4593 648.925 55.6384 646.625 48.2394 629.362C40.8403 612.099 53.7435 595.936 60.15 591.237Z" fill="#98AE00"/>
</g>
<defs>
<linearGradient id="paint0_linear_567_2924" x1="1668.16" y1="0.126292" x2="1564.29" y2="1291.01" gradientUnits="userSpaceOnUse">
<stop offset="0.1875" stop-color="#8D8DE3"/>
<stop offset="0.71875" stop-color="#79DDD7"/>
<stop offset="1" stop-color="#BAFFFB"/>
</linearGradient>
<linearGradient id="paint1_linear_567_2924" x1="1030.81" y1="394.195" x2="1218.14" y2="141.624" gradientUnits="userSpaceOnUse">
<stop/>
<stop offset="0.96" stop-color="#73649E"/>
<stop offset="0.99" stop-color="#7768A4"/>
</linearGradient>
<linearGradient id="paint2_linear_567_2924" x1="1210.49" y1="374.585" x2="1260.41" y2="277.216" gradientUnits="userSpaceOnUse">
<stop/>
<stop offset="0.96" stop-color="#73649E"/>
<stop offset="0.99" stop-color="#7768A4"/>
</linearGradient>
<linearGradient id="paint3_linear_567_2924" x1="1129.65" y1="316.217" x2="1190.45" y2="197.613" gradientUnits="userSpaceOnUse">
<stop/>
<stop offset="0.96" stop-color="#73649E"/>
<stop offset="0.99" stop-color="#7768A4"/>
</linearGradient>
<linearGradient id="paint4_linear_567_2924" x1="1170.2" y1="350.499" x2="1231.06" y2="231.788" gradientUnits="userSpaceOnUse">
<stop/>
<stop offset="0.96" stop-color="#73649E"/>
<stop offset="0.99" stop-color="#7768A4"/>
</linearGradient>
<linearGradient id="paint5_linear_567_2924" x1="1248.17" y1="393.764" x2="1316.24" y2="260.986" gradientUnits="userSpaceOnUse">
<stop/>
<stop offset="0.96" stop-color="#73649E"/>
<stop offset="0.99" stop-color="#7768A4"/>
</linearGradient>
<linearGradient id="paint6_linear_567_2924" x1="1183.95" y1="313.936" x2="1384.58" y2="119.985" gradientUnits="userSpaceOnUse">
<stop stop-color="#905948"/>
<stop offset="0.06" stop-color="#975B46"/>
<stop offset="0.49" stop-color="#C66737"/>
<stop offset="0.81" stop-color="#E36F2E"/>
<stop offset="1" stop-color="#EE722B"/>
</linearGradient>
<linearGradient id="paint7_linear_567_2924" x1="1188.86" y1="309.121" x2="1376.21" y2="128.004" gradientUnits="userSpaceOnUse">
<stop offset="0.02" stop-color="#751F13"/>
<stop offset="0.6" stop-color="#63132A"/>
<stop offset="1" stop-color="#5A0E35"/>
</linearGradient>
<linearGradient id="paint8_linear_567_2924" x1="1201.15" y1="297.106" x2="1349.29" y2="153.89" gradientUnits="userSpaceOnUse">
<stop offset="0.01" stop-color="#AC493D"/>
<stop offset="0.03" stop-color="#AB483D"/>
<stop offset="0.65" stop-color="#8E3042"/>
<stop offset="1" stop-color="#832744"/>
</linearGradient>
<linearGradient id="paint9_linear_567_2924" x1="1250.22" y1="231.808" x2="1267.27" y2="215.331" gradientUnits="userSpaceOnUse">
<stop offset="0.01" stop-color="#B686C7"/>
<stop offset="0.12" stop-color="#C8A3D4"/>
<stop offset="0.28" stop-color="#DBC4E4"/>
<stop offset="0.45" stop-color="#EBDEF0"/>
<stop offset="0.62" stop-color="#F6F0F8"/>
<stop offset="0.79" stop-color="#FDFBFD"/>
<stop offset="0.99" stop-color="white"/>
</linearGradient>
<linearGradient id="paint10_linear_567_2924" x1="1267.02" y1="226.103" x2="1275.05" y2="218.341" gradientUnits="userSpaceOnUse">
<stop offset="0.01" stop-color="white"/>
<stop offset="0.21" stop-color="#FDFBFD"/>
<stop offset="0.38" stop-color="#F6F0F8"/>
<stop offset="0.55" stop-color="#EBDEF0"/>
<stop offset="0.72" stop-color="#DBC4E4"/>
<stop offset="0.88" stop-color="#C8A3D4"/>
<stop offset="0.99" stop-color="#B686C7"/>
</linearGradient>
<linearGradient id="paint11_linear_567_2924" x1="1230.61" y1="298.835" x2="1238.91" y2="303.04" gradientUnits="userSpaceOnUse">
<stop offset="0.02" stop-color="#893338"/>
<stop offset="0.14" stop-color="#822D38"/>
<stop offset="0.69" stop-color="#651736"/>
<stop offset="1" stop-color="#5A0E35"/>
</linearGradient>
<linearGradient id="paint12_linear_567_2924" x1="1075.06" y1="383.878" x2="1179.94" y2="179.294" gradientUnits="userSpaceOnUse">
<stop/>
<stop offset="0.96" stop-color="#73649E"/>
<stop offset="0.99" stop-color="#7768A4"/>
</linearGradient>
<linearGradient id="paint13_linear_567_2924" x1="1106.74" y1="278.887" x2="1159.78" y2="305.769" gradientUnits="userSpaceOnUse">
<stop/>
<stop offset="0.96" stop-color="#73649E"/>
<stop offset="0.99" stop-color="#7768A4"/>
</linearGradient>
<linearGradient id="paint14_linear_567_2924" x1="1182.53" y1="488.812" x2="1293.6" y2="272.164" gradientUnits="userSpaceOnUse">
<stop/>
<stop offset="0.96" stop-color="#73649E"/>
<stop offset="0.99" stop-color="#7768A4"/>
</linearGradient>
<linearGradient id="paint15_linear_567_2924" x1="1168.46" y1="410.1" x2="1238.18" y2="274.103" gradientUnits="userSpaceOnUse">
<stop/>
<stop offset="0.96" stop-color="#73649E"/>
<stop offset="0.99" stop-color="#7768A4"/>
</linearGradient>
<radialGradient id="paint16_radial_567_2924" cx="0" cy="0" r="1" gradientUnits="userSpaceOnUse" gradientTransform="translate(115.379 452.691) rotate(-87.5226) scale(36.0931 36.6445)">
<stop offset="0.01" stop-color="#687C06"/>
<stop offset="0.07" stop-color="#6D8105"/>
<stop offset="0.36" stop-color="#7F9302"/>
<stop offset="0.66" stop-color="#8A9E01"/>
<stop offset="0.99" stop-color="#8EA100"/>
</radialGradient>
<radialGradient id="paint17_radial_567_2924" cx="0" cy="0" r="1" gradientUnits="userSpaceOnUse" gradientTransform="translate(56.8114 493.681) rotate(154.263) scale(36.5392 36.1971)">
<stop offset="0.01" stop-color="#687C06"/>
<stop offset="0.07" stop-color="#6D8105"/>
<stop offset="0.36" stop-color="#7F9302"/>
<stop offset="0.66" stop-color="#8A9E01"/>
<stop offset="0.99" stop-color="#8EA100"/>
</radialGradient>
<radialGradient id="paint18_radial_567_2924" cx="0" cy="0" r="1" gradientUnits="userSpaceOnUse" gradientTransform="translate(206.213 513.832) scale(29.8781 29.4269)">
<stop offset="0.01" stop-color="#687C06"/>
<stop offset="0.07" stop-color="#6D8105"/>
<stop offset="0.36" stop-color="#7F9302"/>
<stop offset="0.66" stop-color="#8A9E01"/>
<stop offset="0.99" stop-color="#8EA100"/>
</radialGradient>
<radialGradient id="paint19_radial_567_2924" cx="0" cy="0" r="1" gradientUnits="userSpaceOnUse" gradientTransform="translate(85.5703 356.622) rotate(-58.1537) scale(29.4454 29.6474)">
<stop offset="0.01" stop-color="#687C06"/>
<stop offset="0.07" stop-color="#6D8105"/>
<stop offset="0.36" stop-color="#7F9302"/>
<stop offset="0.66" stop-color="#8A9E01"/>
<stop offset="0.99" stop-color="#8EA100"/>
</radialGradient>
<radialGradient id="paint20_radial_567_2924" cx="0" cy="0" r="1" gradientUnits="userSpaceOnUse" gradientTransform="translate(129.121 548.258) scale(36.4538 35.9032)">
<stop offset="0.01" stop-color="#687C06"/>
<stop offset="0.07" stop-color="#6D8105"/>
<stop offset="0.36" stop-color="#7F9302"/>
<stop offset="0.66" stop-color="#8A9E01"/>
<stop offset="0.99" stop-color="#8EA100"/>
</radialGradient>
<linearGradient id="paint21_linear_567_2924" x1="147.257" y1="357.355" x2="207.916" y2="357.355" gradientUnits="userSpaceOnUse">
<stop offset="0.01" stop-color="#7E911F"/>
<stop offset="0.99" stop-color="#729700"/>
</linearGradient>
<linearGradient id="paint22_linear_567_2924" x1="44.7988" y1="618.32" x2="119.974" y2="618.32" gradientUnits="userSpaceOnUse">
<stop offset="0.01" stop-color="#7E911F"/>
<stop offset="0.99" stop-color="#729700"/>
</linearGradient>
<clipPath id="clip0_567_2924">
<rect width="401.529" height="367.227" fill="white" transform="translate(989.193 91.428)"/>
</clipPath>
<clipPath id="clip1_567_2924">
<rect width="253.225" height="326.873" fill="white" transform="translate(-10.3105 324.474)"/>
</clipPath>
</defs>
</svg>
