<svg width="96" height="96" viewBox="0 0 96 96" fill="none" xmlns="http://www.w3.org/2000/svg">
<ellipse cx="47.7235" cy="47.5914" rx="36.7235" ry="36.5914" fill="white"/>
<path d="M48.3165 83.4821C68.2711 83.4821 84.4475 67.3639 84.4475 47.481C84.4475 27.5982 68.2711 11.48 48.3165 11.48C28.3619 11.48 12.1855 27.5982 12.1855 47.481C12.1855 67.3639 28.3619 83.4821 48.3165 83.4821Z" stroke="#222326" stroke-width="4"/>
<path d="M54.1676 60.461C53.9218 60.2161 53.9218 59.7263 53.676 59.2365C53.676 58.7467 53.4302 58.2569 53.4302 57.767C52.9386 58.2569 52.447 58.5018 51.9555 58.9916C51.4639 59.4814 50.7265 59.7263 50.2349 59.9712C49.4976 60.2161 49.006 60.461 48.0228 60.7059C47.2855 60.9508 46.3023 60.9509 45.565 60.9509C44.0902 60.9509 42.8613 60.7059 41.6323 60.2161C40.4034 59.7263 39.4202 59.2365 38.4371 58.5018C37.4539 57.767 36.9623 56.7874 36.4708 55.8078C35.9792 54.8281 35.7334 53.6036 35.7334 52.379C35.7334 49.4401 36.9623 46.9911 39.1744 45.5216C41.3865 43.8072 44.8276 43.0725 49.2518 43.0725H53.4302V41.3582C53.4302 39.8887 52.9386 38.9091 52.2013 38.1743C51.2181 37.4396 49.9892 36.9498 48.2686 36.9498C46.7939 36.9498 45.8107 37.1947 45.0734 37.9294C44.336 38.6642 44.0902 39.3989 44.0902 40.3785H36.7166C36.7166 39.154 36.9623 37.9294 37.4539 36.9498C37.9455 35.9702 38.6829 34.9905 39.9118 34.0109C40.895 33.2762 42.1239 32.5414 43.5986 32.0516C45.0734 31.5618 46.7939 31.3169 48.7602 31.3169C50.4807 31.3169 51.9555 31.5618 53.4302 32.0516C54.9049 32.5414 56.1339 33.0313 57.3628 34.0109C58.346 34.7456 59.3291 35.9702 59.8207 37.1947C60.3123 38.4192 60.8039 39.8887 60.8039 41.6031V53.8485C60.8039 55.318 60.8039 56.5425 61.0497 57.5221C61.2954 58.5018 61.5412 59.4814 61.787 59.9712V60.461H54.1676ZM47.0397 55.318C47.7771 55.318 48.5144 55.318 49.006 55.073C49.7434 54.8281 50.2349 54.5832 50.7265 54.3383C51.2181 54.0934 51.7097 53.8485 51.9555 53.3587C52.2013 53.1138 52.6928 52.624 52.9386 52.379V47.4809H49.2518C48.0228 47.4809 47.0397 47.4809 46.3023 47.7258C45.565 47.9707 44.8276 48.2156 44.336 48.7054C43.8444 49.1952 43.3529 49.4401 43.1071 50.1749C42.8613 50.6647 42.8613 51.3994 42.8613 51.8892C42.8613 52.8689 43.1071 53.6036 43.8444 54.3383C44.5818 55.073 45.8107 55.318 47.0397 55.318Z" fill="#222326"/>
</svg>
