<svg width="96" height="96" viewBox="0 0 96 96" fill="none" xmlns="http://www.w3.org/2000/svg">
<mask id="mask0_2213_7365" style="mask-type:alpha" maskUnits="userSpaceOnUse" x="11" y="11" width="75" height="75">
<path fill-rule="evenodd" clip-rule="evenodd" d="M11 11H85.6707V85.4028H11V11Z" fill="white"/>
</mask>
<g mask="url(#mask0_2213_7365)">
<path fill-rule="evenodd" clip-rule="evenodd" d="M48.3373 85.4024C27.8029 85.4024 11.002 68.6618 11.002 48.015C11.1886 27.5542 27.8029 10.8136 48.524 10.9996C69.0584 11.1856 85.6726 27.7402 85.6726 48.573C85.486 68.8478 68.8717 85.4024 48.3373 85.4024Z" fill="#0090FF"/>
<path fill-rule="evenodd" clip-rule="evenodd" d="M51.8829 43.7362L50.7628 49.6884L61.4034 51.1765L60.6567 53.9666L50.2028 52.4785C49.4561 54.8966 49.0827 57.5007 48.1493 59.7328C47.216 62.3369 46.2826 64.941 45.1625 67.3591C43.6691 70.5213 41.0556 72.7534 37.5088 73.3114C35.4553 73.6834 33.2152 73.4974 31.5351 72.1953C30.9751 71.8233 30.415 71.0793 30.415 70.5213C30.415 69.7772 30.7884 68.8472 31.3484 68.4752C31.7218 68.2892 32.6552 68.4752 33.2152 68.6612C33.7752 69.2192 34.3353 69.9632 34.7086 70.7073C35.8287 72.1953 37.3221 72.3813 38.8155 71.2653C40.4956 69.7772 41.429 67.7312 41.989 65.6851C43.1091 61.2209 44.2291 56.9427 45.1625 52.4785V51.7345L35.2686 50.2465L35.642 47.4563L45.9092 48.9444L47.216 43.1782L36.5754 41.5041L36.9487 38.528L47.9627 40.0161C48.336 38.9 48.5227 37.97 48.896 37.0399C49.8294 33.6918 50.7628 30.3437 53.0029 27.3675C55.2431 24.3914 57.8565 22.5314 61.7767 22.7174C63.4568 22.7174 65.1369 23.2754 66.257 24.5774C66.4437 24.7634 66.817 25.1355 66.817 25.5075C66.817 26.2515 66.817 27.1815 66.257 27.7396C65.5103 28.2976 64.5769 28.1116 63.8302 27.3675C63.2702 26.8095 62.8968 26.2515 62.3368 25.6935C61.2167 24.2054 59.5366 24.0194 58.2299 25.3215C57.2965 26.2515 56.3631 27.5536 55.8031 28.8556C54.4963 32.7618 53.563 36.8539 52.2562 40.9461L62.5234 42.4341L61.7767 45.2243L51.8829 43.7362Z" fill="white"/>
</g>
</svg>
