<svg width="72" height="72" viewBox="0 0 72 72" fill="none" xmlns="http://www.w3.org/2000/svg">
<path d="M21.3438 17.8389C23.9124 17.8389 26.2414 17.8389 28.5618 17.8389C29.1554 17.8389 29.3866 18.1842 29.6149 18.618C32.8971 24.8228 36.322 30.9534 39.3759 37.2781C39.5026 37.5005 39.5664 37.7533 39.5603 38.0092C39.5543 38.2651 39.4787 38.5146 39.3416 38.7308C36.6911 43.6056 34.0511 48.487 31.4215 53.3751C31.3102 53.6325 31.1193 53.8473 30.8768 53.9881C30.6343 54.1289 30.3531 54.1881 30.0744 54.1572H24.8971C23.1846 54.1572 23.2132 54.4426 24.1379 52.8015C26.6866 48.3034 29.1354 43.7483 31.7127 39.2674C32.2664 38.3027 32.2036 37.5977 31.6898 36.6759C28.5503 31.0419 25.4565 25.3794 22.3484 19.7254C22.0573 19.1831 21.7747 18.6437 21.3438 17.8389Z" fill="#E35001"/>
<path d="M41.7186 34.341C40.5228 32.0777 39.4354 29.9885 38.3137 27.9107C38.074 27.4626 38.211 27.1002 38.4136 26.7092C39.8406 23.9788 41.2677 21.2465 42.6947 18.5122C42.9002 18.1155 43.1086 17.8158 43.6451 17.8244C45.9284 17.8501 48.1831 17.8244 50.6576 17.8244L41.7186 34.341Z" fill="#16184F"/>
</svg>
