<svg width="72" height="72" viewBox="0 0 72 72" fill="none" xmlns="http://www.w3.org/2000/svg">
<path d="M33.5224 42.2293C33.4467 42.2293 33.2952 42.3051 33.2952 42.3808C33.1941 42.5135 33.1289 42.67 33.1059 42.8352C32.8299 44.0234 32.3969 45.1695 31.8183 46.2434C31.3286 47.2335 30.7042 48.151 29.9628 48.9699C29.0581 49.9678 27.8898 50.6898 26.5925 51.0526C25.8714 51.2917 25.118 51.4193 24.3583 51.4313C21.4425 51.4692 18.4888 51.4313 15.5729 51.4313C15.4593 51.4313 15.3457 51.3934 15.1942 51.3934V20.8339C15.1898 20.803 15.1927 20.7715 15.2025 20.7419C15.2124 20.7124 15.229 20.6855 15.251 20.6635C15.2731 20.6414 15.3 20.6248 15.3295 20.6149C15.3591 20.6051 15.3906 20.6022 15.4214 20.6066H20.3064V19.9629H5.5V20.6066H10.5743V51.4692H5.53787V52.075H33.7496V42.4944C33.7525 42.462 33.7489 42.4293 33.739 42.3983C33.7291 42.3674 33.7131 42.3387 33.6919 42.3139C33.6707 42.2892 33.6448 42.269 33.6157 42.2545C33.5866 42.24 33.5549 42.2314 33.5224 42.2293Z" fill="black"/>
<path d="M40.5281 11.6318H39.4678V60.3681H40.5281V11.6318Z" fill="black"/>
<path d="M66.0132 32.3456C65.8996 31.9669 65.8239 31.5882 65.7481 31.2096C65.2539 29.4577 64.4595 27.8049 63.4003 26.3246C62.7588 25.4619 62.022 24.6743 61.204 23.9767C60.4451 23.3533 59.6343 22.7958 58.7804 22.3105C57.8301 21.7697 56.8279 21.3257 55.7888 20.9852C54.9055 20.6574 53.9923 20.4164 53.0623 20.2657C52.3428 20.1521 51.5855 20.0385 50.9038 20.0006C50.4115 19.9627 49.9193 19.9249 49.427 19.9249C48.6317 19.887 47.7986 19.8491 47.0034 19.8491C46.5111 19.8491 45.981 19.887 45.5266 19.9249C45.0721 19.9627 44.6556 19.9627 44.2012 20.0006C44.2769 20.5686 44.2769 20.6065 44.8071 20.6065C45.413 20.6065 46.0188 20.5307 46.6247 20.5307C48.0297 20.4931 49.4354 20.5691 50.8281 20.758C51.4718 20.9094 52.1156 20.9852 52.7594 21.1745C53.557 21.4179 54.3303 21.7348 55.0693 22.1212C55.9272 22.5928 56.7171 23.1788 57.4171 23.8631C58.4256 24.8987 59.2231 26.1205 59.765 27.4606C60.347 28.9302 60.7291 30.4713 60.901 32.0427C60.901 32.1941 60.9389 32.6107 60.9389 32.6107C61.1227 34.7011 61.148 36.8025 61.0146 38.8968C61.0146 38.8968 60.9767 39.124 60.9767 39.1997C60.8631 40.0328 60.7495 40.8659 60.5981 41.699C60.3848 42.7426 60.0545 43.7589 59.6135 44.7285C59.3105 45.3722 58.9697 46.016 58.6289 46.6597C58.0271 47.7738 57.1964 48.7479 56.1913 49.5181C55.1862 50.2882 54.0295 50.8369 52.7972 51.1282C51.7266 51.3722 50.6371 51.5243 49.5406 51.5826C48.4803 51.6583 47.42 51.6205 46.3597 51.6205H44.542C44.3526 52.037 44.3905 52.1127 44.8449 52.1506C45.146 52.1946 45.4495 52.2199 45.7538 52.2264C47.7229 52.2642 49.692 52.3021 51.6612 52.1506C52.5905 52.0702 53.5138 51.9311 54.4256 51.7341C55.6137 51.4581 56.7599 51.0252 57.8337 50.4466C58.7091 49.9792 59.5563 49.4608 60.3709 48.894C61.5583 48.0532 62.6062 47.0309 63.476 45.8645C64.2024 44.8709 64.8242 43.8049 65.3316 42.6836C65.7688 41.5949 66.0985 40.4661 66.3161 39.3133C66.3371 39.2008 66.3498 39.0869 66.354 38.9725C66.5903 36.8674 66.5393 34.7399 66.2025 32.6485C66.1523 32.6133 66.1096 32.5684 66.0771 32.5163C66.0445 32.4643 66.0228 32.4062 66.0132 32.3456V32.3456Z" fill="black"/>
</svg>
