<svg width="55" height="46" viewBox="0 0 55 46" fill="none" xmlns="http://www.w3.org/2000/svg">
<path d="M22.0668 35.0976C22.317 34.3577 22.467 33.5879 22.513 32.8083C23.4977 32.8328 24.6893 32.8518 26.0332 32.8518C26.0545 33.6326 26.02 34.414 25.9298 35.1899C25.3095 40.2654 18.3779 43.4426 18.3779 43.4426C19.2973 42.3326 19.8225 40.9499 19.8714 39.5104C20.7322 38.107 21.4669 36.6303 22.0668 35.0976Z" fill="#576FED"/>
<path d="M7.29411 45.1506C7.29411 45.1506 9.81049 41.7208 10.5586 39.2578C12.4629 37.7968 16.4592 32.716 16.4592 32.716C16.4592 32.716 12.4629 32.3331 11.3094 29.1857C10.5613 27.1572 10.5559 23.5454 10.5559 23.5454C9.14207 24.9755 7.61754 26.2921 5.99648 27.483C3.88 28.9169 0.0986328 30.0981 0.0986328 30.0981C0.0986328 30.0981 1.59214 26.0655 2.70478 24.2107C3.81743 22.356 5.32726 20.284 5.32726 20.284L3.36312 9.15009C3.36312 9.15009 6.98671 9.94304 8.60535 11.7706C9.80972 13.2118 10.9011 14.7434 11.8698 16.3518C11.8698 16.3518 11.5788 11.146 14.5032 6.91245C15.331 5.70444 16.4888 4.75905 17.8391 4.18862C19.1894 3.61818 20.6753 3.44667 22.1203 3.69448C22.9346 3.96649 23.7639 4.19136 24.6041 4.36794C25.4202 4.50915 26.5519 3.73521 25.4964 1.65235C27.4714 2.16017 29.2832 4.29191 29.2832 4.29191C29.2832 4.29191 30.5699 3.58314 29.1227 0.348873C32.4062 0.620431 34.15 6.07605 34.15 6.07605C34.1618 4.09595 34.2808 2.11793 34.5064 0.150635C35.4015 0.964166 36.1236 1.94907 36.6297 3.04677C37.1358 4.14448 37.4157 5.33258 37.4526 6.54041C37.4526 6.54041 40.8776 6.58115 42.3493 9.50312C43.821 12.4251 41.389 22.9018 41.389 22.9018L42.9043 24.1238L45.3853 20.0505L47.9234 23.4531L49.251 18.3206C49.251 18.3206 51.0682 19.95 52.5291 21.5793C53.4726 22.723 54.1458 24.0643 54.4986 25.5034C54.4986 25.5034 52.8882 29.3242 44.0087 31.3935C35.1293 33.4627 19.7509 32.7024 19.7509 32.7024C19.7509 32.7024 20.7139 36.9903 16.4864 41.213C15.2909 42.4432 13.863 43.4246 12.2852 44.1005C10.7073 44.7764 9.01097 45.1333 7.29411 45.1506Z" fill="#7699FF"/>
<path d="M27.5554 26.674C31.8689 26.674 35.3657 23.1834 35.3657 18.8775C35.3657 14.5716 31.8689 11.0811 27.5554 11.0811C23.2419 11.0811 19.7451 14.5716 19.7451 18.8775C19.7451 23.1834 23.2419 26.674 27.5554 26.674Z" fill="#1D1D1B"/>
<path opacity="0.1" d="M33.6389 18.6981C33.5101 19.6351 33.1926 20.5364 32.7054 21.3475C32.2182 22.1587 31.5715 22.8629 30.8042 23.4178C31.7545 22.4629 32.3635 21.2223 32.5371 19.8875C32.727 18.6485 32.4165 17.385 31.6739 16.3743C30.9312 15.3636 29.8171 14.6885 28.5762 14.4971C28.2999 14.4547 28.0205 14.4365 27.741 14.4428C26.2398 14.4803 24.8007 15.0484 23.6798 16.046C22.5589 17.0435 21.829 18.4058 21.6201 19.8902C21.5892 20.1606 21.5792 20.433 21.5902 20.7049H21.5739C21.4241 20.0506 21.3891 19.3752 21.4705 18.709C21.7042 17.0551 22.5176 15.5376 23.7663 14.4258C25.0149 13.3141 26.618 12.6803 28.2906 12.6369C29.6902 12.6019 31.0464 13.1232 32.0611 14.0862C33.0758 15.0491 33.6658 16.375 33.7014 17.7721C33.7073 18.082 33.6863 18.3918 33.6389 18.6981Z" fill="white"/>
<path d="M30.2088 12.854C31.5445 13.2559 33.0979 14.6626 32.4668 15.9172C32.0016 16.8541 30.5298 15.3252 29.2023 14.9233C27.8747 14.5214 25.8344 14.5784 26.2425 13.6225C26.8409 12.2104 28.8813 12.4548 30.2088 12.854Z" fill="white"/>
<path d="M48.2887 23.7165C45.1928 24.2222 42.0402 24.2807 38.9277 23.8903L41.202 20.045L43.158 23.0702L45.3805 19.5752L47.9187 22.9751L49.2517 17.8535C49.2517 17.8535 50.9764 19.5833 52.5298 21.1122C52.8997 21.4951 53.1936 22.8366 48.2887 23.7165Z" fill="#F76F60"/>
</svg>
