<svg width="72" height="72" viewBox="0 0 72 72" fill="none" xmlns="http://www.w3.org/2000/svg">
<g clip-path="url(#clip0_2222_3504)">
<path d="M49.2813 64.5602C48.6313 63.6917 48.0034 62.8055 47.3277 61.9573C46.4185 60.8173 45.481 59.6994 44.5365 58.5886C44.332 58.3617 44.2235 58.0643 44.234 57.759C44.2411 44.7876 44.2431 31.8162 44.2402 18.8449V18.255H42.3086V55.9654L42.2104 56.0327C42.061 55.8628 41.9239 55.6789 41.7612 55.5241C40.3691 54.1887 38.9815 52.8488 37.569 51.5336C37.4475 51.4331 37.3511 51.3056 37.2874 51.1613C37.2237 51.017 37.1945 50.8598 37.202 50.7023C37.2097 40.0893 37.2117 29.4764 37.2082 18.8634V18.2443H35.3085V49.5764C35.1537 49.488 35.0573 49.4349 34.9671 49.3739C33.4636 48.3595 31.9769 47.3327 30.4646 46.3377C30.1992 46.1661 30.1754 45.984 30.1754 45.7186C30.1754 36.7566 30.1754 27.7945 30.1754 18.8325V18.2426H28.2597V45.1119C28.0687 45.0235 27.9422 44.9633 27.8113 44.9112C26.4016 44.3593 24.998 43.7897 23.575 43.2732C23.2292 43.1476 23.1328 43.0079 23.1328 42.6541C23.1422 34.7245 23.1446 26.7943 23.1398 18.8634V18.2063H19.8613V13.9771H52.612V18.209H49.3707C49.3618 18.4018 49.3494 18.545 49.3494 18.6883C49.3494 33.9002 49.3494 49.1121 49.3494 64.324C49.3494 64.3965 49.3592 64.47 49.3645 64.5425L49.2813 64.5602Z" fill="#0F141F"/>
<path d="M17 8.04587C17.1893 8.03083 17.3794 8.00342 17.5696 8.00342C30.0103 8.00342 42.4487 8.00342 54.8847 8.00342H55.4419V12.2778H17.3953C17.2636 12.2778 17.13 12.2866 17 12.2919V8.04587Z" fill="#0F141F"/>
</g>
<defs>
<clipPath id="clip0_2222_3504">
<rect width="38.4419" height="56.5573" fill="white" transform="translate(17 8)"/>
</clipPath>
</defs>
</svg>
