<svg width="72" height="72" viewBox="0 0 72 72" fill="none" xmlns="http://www.w3.org/2000/svg">
<path d="M57.5595 42.0577C56.1519 39.857 53.5574 35.7801 53.0444 35.1631H47.8256C47.8256 35.1631 45.3921 35.1631 44.73 35.1186C46.4776 32.2692 48.1417 29.5342 49.7759 26.8883C50.8376 25.1583 51.8873 23.4092 52.9967 21.7173C53.2919 21.3725 53.4615 20.9262 53.4746 20.4594C53.4878 19.9926 53.3436 19.5363 53.0683 19.1732C51.8158 17.2651 50.6229 15.2998 49.4479 13.3281C49.1831 12.883 48.8107 12.5223 48.3698 12.2839C47.929 12.0455 47.436 11.9382 46.9428 11.9733C37.9306 11.9733 28.9184 11.9733 19.9062 11.9733C19.5387 11.9576 19.1748 12.0548 18.8576 12.2532C18.5404 12.4517 18.2833 12.7431 18.1169 13.0927C16.924 15.1281 15.6953 17.1506 14.3891 19.1096C14.083 19.4792 13.9141 19.9553 13.9141 20.4484C13.9141 20.9416 14.083 21.4177 14.3891 21.7873C17.085 26.036 19.6557 30.3738 22.3754 34.6034C22.6953 34.9884 22.872 35.4851 22.872 35.9995C22.872 36.5139 22.6953 37.0105 22.3754 37.3956C19.7153 41.5934 17.1566 45.8612 14.4905 50.0527C14.1416 50.4754 13.9491 51.0192 13.9491 51.5824C13.9491 52.1455 14.1416 52.6893 14.4905 53.112C15.7609 55.0201 16.9359 56.9855 18.1109 58.9572C18.2861 59.305 18.5526 59.5908 18.8779 59.7795C19.2031 59.9681 19.5729 60.0514 19.942 60.0193C22.7333 59.9748 25.5366 59.9748 28.3279 60.0193C28.6638 60.043 28.9987 59.9604 29.2906 59.7815C29.5825 59.6027 29.8182 59.3358 29.9681 59.0144C31.161 57.0681 32.3539 55.1601 33.684 53.0166C34.9663 55.0647 36.195 56.8901 37.2626 58.8172C37.4574 59.222 37.7633 59.5538 38.1394 59.7686C38.5155 59.9833 38.9441 60.0708 39.368 60.0193C42.0401 59.9557 44.736 59.962 47.3842 60.0193C47.7443 60.0537 48.106 59.9743 48.4242 59.7911C48.7423 59.6079 49.0029 59.3289 49.1735 58.9889C51.9211 54.4476 54.7045 49.934 57.5237 45.4478C57.8824 44.9675 58.0807 44.3733 58.0871 43.7593C58.0936 43.1453 57.9079 42.5465 57.5595 42.0577V42.0577ZM45.9885 36.6832C47.7182 36.6832 49.4419 36.6832 51.613 36.6832C50.3127 38.8012 49.269 40.4994 48.1297 42.3439C47.1337 40.7411 46.2748 39.291 45.3504 37.8917C44.7002 36.8995 45.0223 36.6832 45.9885 36.6832ZM18.8206 14.721C18.8206 14.721 19.2203 13.3472 21.2422 13.3472C29.1947 13.3472 37.1473 13.3599 45.0998 13.3853C45.5472 13.3853 46.4001 13.328 46.5253 13.8305L38.5271 26.7484C37.6861 25.3873 34.352 19.6757 34.352 19.6757L26.0495 19.593C26.0495 19.593 20.8843 19.6757 15.8325 19.6757C16.9955 17.7294 18.8206 14.721 18.8206 14.721ZM19.0652 26.5449C18.1348 24.9039 17.1148 23.3265 15.8862 21.323C21.7373 21.323 27.1768 21.323 32.5865 21.323C33.2784 21.323 33.5766 21.8 33.8867 22.277C34.9325 23.9307 35.9604 25.5929 36.9703 27.2635C37.3163 27.8296 37.5668 28.3512 37.0777 29.0636C36.0876 30.5201 35.2884 32.1165 34.2923 33.5666C33.7913 34.2981 33.5348 34.2981 33.0994 33.5666C33.0994 33.5666 31.2087 30.431 30.2365 28.8791C29.1033 27.0791 29.2584 27.378 27.642 27.378C25.3517 27.378 23.0554 27.4099 20.7591 27.4099C19.5423 27.3908 19.5006 27.3018 19.0533 26.5449H19.0652ZM20.944 29.4324C20.944 29.3943 20.944 29.3116 20.944 29.1271H27.5048C26.2702 30.9844 25.2085 32.5935 24.1469 34.2154C24.1469 34.1963 21.9699 31.048 20.944 29.4324ZM28.9124 29.6805C30.1053 31.6268 31.1431 33.3568 32.2465 35.0359C32.4609 35.3184 32.5728 35.6736 32.5618 36.0368C32.5509 36.4 32.4178 36.7468 32.1869 37.014C29.5626 41.233 26.9541 45.4605 24.3616 49.6965C24.2109 50.0189 23.9757 50.2879 23.6846 50.4708C23.3935 50.6536 23.0589 50.7425 22.7214 50.7268C20.5563 50.6696 18.3853 50.7268 15.7908 50.7268L28.9124 29.6805ZM20.5623 58.5565C20.283 58.5801 20.003 58.5207 19.7534 58.3849C19.5039 58.249 19.2945 58.042 19.1487 57.7869C18.1049 56.0696 17.0492 54.3649 15.7848 52.3169H22.7154C23.1389 52.3169 23.6101 52.2215 23.9083 52.7049C25.0058 54.5748 26.3477 56.2858 27.314 58.5501C24.8924 58.5501 22.7273 58.5374 20.5682 58.5565H20.5623ZM28.9124 57.8123C27.8866 56.1586 27.0635 54.594 26.0197 53.2329C24.9759 51.8717 25.2622 51.0322 26.0614 49.7601C32.4434 39.5836 38.7477 29.2989 45.0939 19.0715C46.0541 17.5196 47.074 16.0121 48.0761 14.4793L51.2491 19.0841C51.9887 20.0382 51.8456 20.7506 51.2491 21.7173C47.6287 27.4798 44.0918 33.2868 40.5132 39.0811C36.684 45.2443 32.8788 51.4074 28.9244 57.8123H28.9124ZM45.7619 58.531H40.2746C39.0161 58.4737 38.6344 58.1048 38.199 57.4751C38.199 57.4751 36.7079 55.2173 35.2168 52.6859C34.7695 51.9163 34.5786 51.3438 35.1035 50.5424C36.2069 48.8697 37.2388 47.146 38.4555 45.1934C41.2051 49.6456 43.9726 54.066 46.6804 58.4547C46.3841 58.5322 46.0779 58.558 45.7738 58.531H45.7619ZM56.1698 44.9072C54.4282 47.5912 52.8059 50.3707 51.0881 53.0675C50.1219 54.5876 49.2988 56.2476 48.0224 57.6724C45.2788 53.2201 42.6067 48.876 39.9227 44.5446C39.6364 44.0739 39.374 43.6732 39.7319 43.1072C40.8889 41.2817 42.0222 39.4373 43.2509 37.4719C44.3901 39.3037 45.404 40.9065 46.4001 42.5157C48.1118 45.2824 48.1059 45.2824 49.764 42.592C50.7899 40.9383 51.8277 39.2974 52.9371 37.5037C54.0643 39.2974 55.0723 40.9765 56.1519 42.592C56.4306 42.9023 56.5886 43.3137 56.5942 43.7433C56.5997 44.1729 56.4523 44.5888 56.1817 44.9072H56.1698Z" fill="#461699"/>
</svg>
