<svg width="72" height="72" viewBox="0 0 72 72" fill="none" xmlns="http://www.w3.org/2000/svg">
<path d="M60.8208 50.0659C58.1938 52.121 55.227 53.5885 52.4106 55.3165C47.2375 58.5005 41.978 61.5195 36.791 64.6717C36.128 65.074 35.6767 65.1203 35.0416 64.7353C27.4513 60.1504 19.8556 55.5732 12.2542 51.0037C11.8354 50.7174 11.4335 50.4052 11.0508 50.0688C11.828 48.8241 13.1958 48.4536 14.3184 47.7531C17.5917 45.7009 20.9095 43.7268 24.2413 41.7759C24.5785 41.5238 24.9694 41.36 25.3806 41.2983C25.5846 41.315 25.7844 41.3679 25.9712 41.4546C28.9519 43.0987 31.8212 44.9281 34.7101 46.7574C35.5207 47.2726 36.1726 47.3363 37.0027 46.8211C39.4625 45.2928 41.953 43.8224 44.4072 42.2825C45.0396 41.8859 45.6664 41.472 46.4102 41.3186C48.3435 41.7991 49.8812 43.0929 51.561 44.08C54.3021 45.6913 57.0322 47.3315 59.751 49.0007C60.2095 49.2256 60.585 49.5995 60.8208 50.0659V50.0659Z" fill="#B6BBCC"/>
<path d="M25.5037 41.4782L11.0513 50.0692C11.0401 40.4343 11.0243 30.7984 11.0039 21.1616C11.0039 20.5132 11.1571 20.0993 11.7198 19.7635C19.6573 15.0281 27.5865 10.2821 35.5073 5.52539C36.2511 5.61802 36.1703 6.2577 36.1703 6.74109C36.1703 11.9339 36.304 17.1295 36.1062 22.3223C35.8917 23.0864 35.2705 23.4541 34.6771 23.8159C32.3538 25.2197 30.0584 26.6814 27.6877 27.9956C26.3923 28.7134 25.7934 29.5904 25.8575 31.1795C25.9745 34.0191 25.8993 36.8644 25.8825 39.7068C25.8798 40.3146 25.9884 40.9717 25.5037 41.4782Z" fill="#532373"/>
<path d="M60.8204 50.0659L46.3596 41.4315L46.2064 41.252C45.7941 39.8829 46.0337 38.4762 46.0058 37.0868C45.964 34.9651 45.9501 32.8405 46.0058 30.7188C46.0393 29.561 45.6047 28.8316 44.6464 28.2788C42.1699 26.8518 39.7407 25.3379 37.292 23.8646C36.8129 23.5751 36.2947 23.3262 36.0385 22.7589C35.8045 19.8644 35.98 16.9698 35.9437 14.0927C35.9103 11.6352 35.9187 9.17198 35.9437 6.72031C35.9437 6.32666 35.5927 5.71591 36.331 5.5625C44.2202 10.2844 52.1131 15.0025 60.0097 19.7167C60.6031 20.0699 60.8677 20.4548 60.8649 21.1843C60.8408 30.8115 60.8259 40.4387 60.8204 50.0659Z" fill="#6B758B"/>
<path d="M46.3583 41.4315C43.0656 43.4577 39.7617 45.4838 36.4885 47.5361C35.7865 47.976 35.3742 47.5534 34.8616 47.2466L25.7718 41.7094C25.652 41.1652 26.0503 40.9105 26.3819 40.6934C29.4601 38.7367 32.5467 36.7944 35.7837 35.1214C36.3241 35.0577 36.7782 35.3066 37.2211 35.57C39.9066 37.1736 42.5883 38.7859 45.2663 40.4068C45.7294 40.631 46.1174 40.9939 46.3806 41.4489L46.3583 41.4315Z" fill="#532373"/>
<path d="M35.8598 35.2823C32.7287 37.212 29.5966 39.1349 26.4635 41.0511C26.185 41.2248 25.8869 41.3608 25.7727 41.711L25.4941 41.4795C25.4941 37.6819 25.4941 33.8842 25.4746 30.0866C25.4746 29.3022 25.6195 28.8043 26.3633 28.3672C29.5279 26.5061 32.6423 24.5436 35.7735 22.6216C35.7902 22.8184 35.8041 23.0181 35.818 23.2179C36.2164 23.6347 36.222 24.1759 36.2275 24.6999C36.2554 27.7275 36.2498 30.7581 36.2275 33.7858C36.2331 34.3097 36.2331 34.851 35.8598 35.2823Z" fill="#6B758B"/>
<path d="M35.8606 35.281L35.8271 23.2166L36.3843 22.8809C39.4152 24.7131 42.4266 26.5743 45.4881 28.3457C46.2207 28.7712 46.413 29.2546 46.4074 30.0564C46.3768 33.854 46.3935 37.6516 46.3935 41.4492L35.8606 35.281Z" fill="#B6BBCC"/>
</svg>
