<svg width="173" height="173" viewBox="0 0 173 173" fill="none" xmlns="http://www.w3.org/2000/svg">
<circle cx="86.25" cy="86.25" r="85.75" stroke="url(#paint0_linear_3053_6447)"/>
<path d="M121.324 141.519L118.123 143.047L120.471 139.099L121.324 141.519Z" fill="#171753"/>
<path d="M56.8978 26.2959L53.8112 28.2456L58.7537 28.0674L56.8978 26.2959Z" fill="#171753"/>
<path d="M61.4636 27.2347L61.4528 27.2285L61.4419 27.2226C59.969 26.4214 58.4133 26.3762 57.2134 27.3001C56.0712 28.1796 55.5273 29.7342 55.5273 31.5309V103.447C55.5273 104.521 56.101 105.512 57.0316 106.048L117.524 140.841C119.524 141.991 122.019 140.547 122.019 138.24V68.6419V68.6347L122.019 68.6275C121.993 66.811 121.54 65.026 120.697 63.416C119.854 61.8059 118.644 60.4158 117.164 59.357L117.124 59.3284L117.082 59.3039L61.4636 27.2347Z" fill="#171753" stroke="#171753" stroke-width="2"/>
<path d="M59.276 28.2347L59.2652 28.2285L59.2543 28.2226C57.7814 27.4215 56.2257 27.3762 55.0258 28.3001C53.8836 29.1796 53.3397 30.7343 53.3397 32.5309V104.447C53.3397 105.521 53.9134 106.512 54.844 107.048L115.336 141.841C117.336 142.991 119.832 141.547 119.832 139.24V69.642V69.6348L119.832 69.6276C119.806 67.811 119.353 66.026 118.509 64.416C117.666 62.8059 116.456 61.4158 114.977 60.357L114.937 60.3284L114.894 60.3039L59.276 28.2347Z" fill="#ECFFFE" stroke="#171753" stroke-width="2"/>
<path d="M112.21 128.292L60.909 98.7614C60.375 98.3621 59.9416 97.8443 59.6431 97.2489C59.3446 96.6536 59.1892 95.9972 59.1892 95.3316V37.2642C59.1892 35.9437 59.9975 35.3434 60.909 35.9093L112.21 65.4404C112.745 65.8388 113.179 66.3564 113.478 66.952C113.777 67.5475 113.932 68.2044 113.93 68.8703V126.955C113.982 128.241 113.191 128.858 112.21 128.292Z" fill="#FFE850"/>
<path d="M98.2318 120.236L60.909 98.7614C60.375 98.3621 59.9416 97.8443 59.6431 97.2489C59.3446 96.6536 59.1892 95.9972 59.1892 95.3316V47.7389C59.1892 46.4184 59.9975 45.8181 60.909 46.384L78.4089 64.7848C78.9438 65.1832 79.3778 65.7008 79.6765 66.2963C79.9751 66.8919 79.266 91.2484 79.2647 91.9142L99.9516 118.899C100.003 120.185 99.212 120.802 98.2318 120.236Z" fill="#FFA6A6"/>
<path d="M108.272 106.29L97.9532 83.6872C97.7469 83.2585 97.3513 82.9841 97.1106 83.1213L82.8362 92.0218C82.0795 92.5019 80.8071 90.6841 81.3402 89.8953L86.1213 82.8812C86.2134 82.7005 86.2615 82.5008 86.2615 82.2982C86.2615 82.0955 86.2134 81.8957 86.1213 81.715L79.861 67.3783C79.3107 66.0921 78.1414 65.3375 77.4707 65.9034C74.6674 68.493 67.8571 74.7525 64.985 77.3592C64.5191 77.8515 64.1608 78.435 63.9328 79.0726C63.7049 79.7103 63.6122 80.3881 63.6607 81.0634V92.8621C63.6949 93.547 63.8904 94.2144 64.2309 94.8102C64.5715 95.406 65.0475 95.9136 65.6211 96.2919L107.412 120.301C108.513 120.918 109.39 120.404 109.39 119.152V111.143C109.356 109.466 108.975 107.814 108.272 106.29Z" fill="#ECFFFE"/>
<path d="M83.6838 107.885C84.0977 108.139 84.5736 108.275 85.0597 108.279C85.4445 108.322 85.8333 108.251 86.1774 108.073C86.5332 107.849 86.8218 107.533 87.0125 107.159C87.2032 106.784 87.2891 106.366 87.2611 105.947L87.0125 104.443C86.9751 102.614 83.5409 92.7475 82.7509 91.0957C82.5888 90.9206 82.4602 90.717 82.3721 90.4955L87.136 83.4815C87.3076 83.1593 87.3976 82.8001 87.3976 82.4353C87.3976 82.0705 87.3076 81.7113 87.136 81.3892L80.8761 67.0353C80.6723 66.5145 80.3529 66.0465 79.9419 65.6664C79.5309 65.2862 79.0387 65.0037 78.5026 64.8401C78.2242 64.7671 77.9322 64.765 77.6528 64.8339C77.3734 64.9028 77.1155 65.0406 76.9033 65.2346C74.1001 67.8242 67.3069 74.0665 64.4176 76.6903C63.8306 77.2624 63.3732 77.9534 63.0766 78.7166C62.7799 79.4799 62.6508 80.2977 62.6979 81.1149V92.9136C62.7338 93.7696 62.9781 94.604 63.4095 95.345C63.841 96.0859 64.4465 96.7111 65.1743 97.1666L83.6838 107.885Z" fill="url(#paint1_linear_3053_6447)"/>
<path d="M108.341 121.57C107.855 121.566 107.379 121.43 106.965 121.176L65.1743 97.1666C64.4465 96.7111 63.841 96.0859 63.4095 95.345C62.9781 94.604 62.7338 93.7696 62.6979 92.9136V81.1149C62.6508 80.2977 62.7799 79.4799 63.0766 78.7166C63.3732 77.9534 63.8306 77.2624 64.4176 76.6903C67.3069 74.0665 74.1001 67.8242 76.9033 65.2346C77.1155 65.0406 77.3734 64.9028 77.6528 64.8339C77.9322 64.765 78.2242 64.7671 78.5026 64.8401C79.0387 65.0037 79.5309 65.2862 79.9419 65.6664C80.3529 66.0465 80.6723 66.5145 80.8761 67.0353L87.136 81.3892C87.3076 81.7113 87.3976 82.0705 87.3976 82.4353C87.3976 82.8001 87.3076 83.1593 87.136 83.4815L82.3721 90.4955C82.4602 90.717 82.5888 90.9206 82.7509 91.0957L96.8014 82.3496C96.9613 82.2496 97.1416 82.187 97.3292 82.1662C97.5168 82.1454 97.7066 82.167 97.8847 82.2295C98.1457 82.3207 98.3848 82.4655 98.5863 82.6546C98.7877 82.8436 98.9473 83.0728 99.0544 83.3271L109.287 105.947C110.077 107.599 110.505 109.399 110.543 111.229V119.238C110.571 119.657 110.485 120.075 110.294 120.449C110.103 120.824 109.815 121.14 109.459 121.364C109.115 121.541 108.726 121.613 108.341 121.57ZM78.0727 66.6923C75.2178 69.3161 68.5279 75.4727 65.6731 78.0451C65.3155 78.4509 65.0433 78.924 64.8719 79.4365C64.7006 79.9489 64.634 80.4904 64.6759 81.029V92.8277C64.7162 93.3366 64.8697 93.83 65.1255 94.2721C65.3814 94.7141 65.733 95.0937 66.1546 95.3831L107.946 119.392C108.068 119.474 108.211 119.521 108.358 119.529C108.43 119.398 108.46 119.249 108.444 119.1V111.092C108.4 109.543 108.037 108.019 107.378 106.616L97.1969 84.2703L83.4386 92.8449C83.0737 93.0538 82.6448 93.1221 82.2327 93.0368C81.8207 92.9514 81.4541 92.7185 81.2028 92.3819C80.7848 92.0063 80.5014 91.5047 80.3958 90.9536C80.2902 90.4025 80.3686 89.8321 80.6183 89.3293L85.3818 82.3152C85.3818 82.3152 85.3821 82.3153 85.2617 82.0924L79.0014 67.7555C78.8281 67.3111 78.4977 66.9452 78.0727 66.7266V66.6923Z" fill="#171753"/>
<path d="M95.3392 71.031C95.3392 74.1522 93.1381 75.4211 90.4209 73.8606C88.9942 72.9313 87.8072 71.6802 86.9557 70.2084C86.1041 68.7366 85.6119 67.0855 85.5193 65.3888C85.5193 62.2676 87.7208 60.9987 90.4209 62.5592C91.8516 63.4855 93.0427 64.7356 93.8974 66.2078C94.7521 67.6799 95.2461 69.3325 95.3392 71.031Z" fill="#ECFFFE"/>
<path d="M92.622 75.507C91.6713 75.4841 90.7442 75.2056 89.9391 74.7009C88.3584 73.6918 87.0431 72.3198 86.1036 70.6996C85.164 69.0795 84.6273 67.2583 84.5387 65.3888C84.4158 64.6033 84.534 63.7991 84.8775 63.0816C85.221 62.3641 85.774 61.7668 86.4638 61.3681C87.1537 60.9695 87.9482 60.7881 88.7433 60.8476C89.5384 60.9071 90.2971 61.2049 90.9195 61.7018C92.4995 62.7157 93.8136 64.0911 94.7529 65.7138C95.6922 67.3366 96.2294 69.1596 96.3194 71.031C96.3915 71.811 96.2504 72.5959 95.9113 73.3024C95.5722 74.0089 95.0479 74.6107 94.3935 75.0439C93.8558 75.355 93.2436 75.5151 92.622 75.507ZM88.2365 62.868C87.9589 62.8629 87.6852 62.9341 87.4455 63.0737C87.1021 63.3465 86.8348 63.7027 86.6691 64.1081C86.5035 64.5135 86.4451 64.9545 86.4995 65.3888C86.5974 66.912 87.0474 68.3919 87.8141 69.7128C88.5809 71.0337 89.6438 72.1598 90.9195 73.0031C91.2662 73.271 91.6774 73.4437 92.1119 73.5039C92.5464 73.564 92.989 73.5097 93.3959 73.3461C93.7392 73.0733 94.0066 72.7172 94.1722 72.3118C94.3378 71.9064 94.3962 71.4654 94.3418 71.031C94.2471 69.5091 93.8003 68.0296 93.0365 66.7086C92.2726 65.3876 91.2125 64.261 89.9391 63.4167C89.43 63.0872 88.8426 62.8979 88.2365 62.868Z" fill="#150035"/>
<path d="M92.9225 110.75L98.8411 100.401L71.0686 84.4917C70.0513 84.0637 68.4561 84.5108 66.7189 85.9749C65.5614 87.1445 64.5504 88.7485 64.12 90.3483C63.6913 92.5287 63.9862 93.978 65.0044 94.6963L92.9225 110.75Z" fill="#FFA6A6"/>
<path d="M66.4381 88.8796C65.4253 89.903 64.559 91.3608 63.9829 92.8165C63.9866 93.9777 64.4243 94.7002 65.0066 95.2766L92.7791 111.186L97.543 102.878L70.7878 87.3964C69.7705 86.9684 68.1753 87.4155 66.4381 88.8796Z" fill="#FFA6A6"/>
<path d="M93.0692 111.184L92.9236 111.039L65.1511 95.1303C63.9872 94.2679 63.6915 92.5283 64.1201 90.3479C64.5505 88.7482 65.4159 87.0001 66.7181 85.6842C68.3097 84.076 70.0496 83.4827 71.3581 84.1989L99.2762 100.252L99.2771 100.542L99.1325 100.689L93.0692 111.184ZM70.1988 84.788C69.328 84.7943 68.1687 85.3834 67.1558 86.4068C65.9983 87.5764 65.132 89.0342 64.7016 90.634C64.2721 92.524 64.4222 94.1196 65.4404 94.8379L92.9217 110.459L98.5519 100.693L70.925 84.9278C70.7794 84.7838 70.4891 84.7859 70.1988 84.788Z" fill="#171753"/>
<path d="M67.3329 96.4206C66.169 95.5582 65.8733 93.8185 66.4475 91.7823C66.8779 90.1825 67.7433 88.4344 69.0455 87.1186C70.6371 85.5104 72.377 84.9171 73.6855 85.6333L73.3971 86.216C72.3797 85.788 70.7845 86.235 69.4823 87.5508C68.3248 88.7205 67.4585 90.1783 67.0281 91.778C66.5985 93.6681 66.7487 95.2636 67.7669 95.982L67.3329 96.4206Z" fill="#171753" stroke="#171753" stroke-width="0.5"/>
<path d="M73.003 99.7184C71.8392 98.856 71.5434 97.1164 72.1177 95.0801C72.5481 93.4803 73.4135 91.7322 74.7157 90.4164C76.3073 88.8082 78.0472 88.2149 79.3557 88.9311L79.0672 89.5138C78.0499 89.0858 76.4547 89.5329 75.1525 90.8487C73.995 92.0183 73.1287 93.4761 72.6982 95.0759C72.2687 96.9659 72.4188 98.5615 73.4371 99.2798L73.003 99.7184Z" fill="#171753" stroke="#171753" stroke-width="0.5"/>
<path d="M100.156 103.149C100.165 105.761 98.2883 109.113 96.1152 110.436C93.7975 111.904 91.9065 110.611 91.8984 107.999C91.5999 105.388 93.6219 102.18 95.9397 100.712C98.1127 99.3897 100.148 100.536 100.156 103.149Z" fill="#FFA6A6"/>
<path d="M94.0858 111.321C93.5053 111.325 93.215 111.328 92.9238 111.039C92.0511 110.465 91.6125 109.452 91.4633 108.147C91.4542 105.244 93.4762 102.036 95.794 100.568C97.098 99.8325 98.1135 99.6799 98.9862 100.254C99.8588 100.828 100.297 101.841 100.447 103.147C100.456 106.049 98.4337 109.257 96.116 110.726C95.3917 111.167 94.6664 111.317 94.0858 111.321ZM97.6804 100.409C97.0998 100.413 96.6648 100.561 95.9405 101.002C93.7674 102.324 91.8901 105.386 91.8983 107.999C91.9019 109.16 92.1949 110.029 92.922 110.459C93.649 110.889 94.6646 110.736 95.5336 110.149C97.7067 108.827 99.584 105.765 99.5758 103.153C99.5722 101.992 99.2792 101.123 98.5521 100.693C98.4065 100.549 98.1162 100.551 97.6804 100.409Z" fill="#171753"/>
<path d="M96.5463 109.126L99.289 104.316L97.8349 103.456C97.399 103.314 96.6737 103.465 95.9503 104.196C95.3715 104.78 94.9384 105.509 94.7955 106.236C94.6536 107.253 94.801 107.978 95.0921 108.266L96.5463 109.126Z" fill="#FFA6A6"/>
<path d="M96.5412 107.385L95.087 106.524C94.9414 106.38 94.6511 106.382 94.5065 106.529C94.3636 107.255 94.6557 107.834 94.9469 108.122L95.9642 108.55L96.5412 107.385Z" fill="#FFA6A6"/>
<path d="M96.402 109.272L94.9478 108.412C94.3664 108.126 94.218 107.111 94.36 106.094C94.6476 105.221 95.0807 104.492 95.6595 103.907C96.3829 103.176 97.2529 102.88 97.8344 103.166L99.4341 104.17L99.435 104.46L96.6923 109.27L96.402 109.272ZM97.4003 103.604C97.11 103.607 96.5303 103.901 96.0963 104.34C95.5175 104.924 95.2291 105.507 95.0862 106.234C94.9433 106.961 95.0907 107.685 95.3819 107.974L96.4002 108.692L98.8544 104.465L97.6915 103.893C97.5459 103.748 97.5459 103.748 97.4003 103.604Z" fill="#171753"/>
<path d="M99.7285 105.619C99.7321 106.781 98.8658 108.238 97.8521 108.972C96.6928 109.561 95.9657 109.13 95.962 107.969C95.9584 106.808 96.8247 105.35 97.8385 104.617C98.8522 103.884 99.8695 104.312 99.7285 105.619Z" fill="#FFA6A6"/>
<path d="M56.2269 118.999L55.0594 116.976L69.5473 108.451C71.2854 107.278 73.463 107.407 75.353 108.409L81.8966 112.28C84.9505 114.145 88.5823 115.135 92.2103 114.963C95.984 114.936 99.4647 114.039 102.507 112.13L102.942 111.982C103.231 111.69 103.376 111.543 103.23 111.399C103.23 111.399 103.229 111.109 102.938 110.821L97.5584 107.812C96.9769 107.526 96.8295 106.801 97.1179 106.218C97.4064 105.636 98.1317 105.485 98.7132 105.771L104.093 108.78C104.966 109.355 105.549 110.221 105.697 111.236C105.701 112.397 105.269 113.416 104.254 113.859L103.82 114.298C100.343 116.355 96.4272 117.4 92.3632 117.429C88.2992 117.459 84.3772 116.472 80.8875 114.465L74.3438 110.594C73.1809 110.022 72.0197 110.03 70.8604 110.619L56.2269 118.999Z" fill="#171753"/>
<path d="M96.9832 109.559C96.6929 109.561 96.5473 109.417 96.257 109.419C95.8211 109.277 95.529 108.698 95.5263 107.827C95.5218 106.376 96.3881 104.918 97.5474 104.329C98.1271 104.035 98.7076 104.03 99.1435 104.172C99.5794 104.314 99.8715 104.893 99.8742 105.764C99.8788 107.215 99.0125 108.673 97.8531 109.262C97.5628 109.264 97.4182 109.41 96.9832 109.559ZM98.5639 104.467C98.2736 104.469 98.1289 104.615 97.8386 104.617C96.9696 105.204 96.1033 106.662 95.9613 107.679C95.9631 108.26 96.1087 108.404 96.3999 108.692C96.5455 108.836 97.1261 108.832 97.4154 108.539C98.2845 107.952 99.1508 106.495 99.2927 105.478C99.2909 104.897 99.1453 104.753 98.8541 104.465C98.8541 104.465 98.8541 104.465 98.5639 104.467Z" fill="#171753"/>
<path d="M65.4886 113.097L49.2519 122.809L49.5664 123.337L65.8031 113.625L65.4886 113.097Z" fill="#171753"/>
<path d="M46.0703 120.235L48.9886 125.149L65.3593 115.305C65.9389 115.01 66.0818 114.284 65.6423 112.98C65.4949 112.256 65.2028 111.677 64.6204 111.101C63.7468 110.236 63.0207 110.097 62.441 110.391L46.0703 120.235Z" fill="#ECFFFE"/>
<path d="M65.4982 113.126C65.3508 112.401 64.9131 111.679 64.4763 111.246C63.6027 110.382 62.8766 110.242 62.2969 110.537L46.7953 119.794L48.8382 123.263L65.2088 113.418C65.2088 113.418 65.3535 113.272 65.4982 113.126Z" fill="#ECFFFE"/>
<path d="M48.9901 125.439L48.6989 125.151L45.7806 120.237L45.9253 120.091L62.2959 110.247C63.0203 109.806 64.0376 110.234 64.9112 111.098C65.4936 111.675 65.7857 112.253 66.0787 113.122C66.3726 114.281 66.2306 115.298 65.5063 115.739L48.9901 125.439ZM46.5068 120.377L48.9882 124.858L65.2142 115.16C65.5036 114.868 65.6464 114.141 65.4981 113.126C65.3507 112.402 64.9139 111.969 64.4771 111.537C63.7492 110.817 63.1677 110.531 62.588 110.825L46.5068 120.377Z" fill="#171753"/>
<path d="M47.3925 125.015C46.2296 124.442 45.4989 122.851 45.3496 121.546C45.346 120.385 46.2151 119.798 47.378 120.37C48.541 120.942 49.2717 122.533 49.4209 123.839C49.5701 125.144 48.5555 125.587 47.3925 125.015Z" fill="#ECFFFE"/>
<path d="M48.4096 125.443C48.1193 125.445 47.6834 125.303 47.3923 125.015C46.0837 124.299 45.353 122.707 45.2038 121.402C45.202 120.821 45.4904 120.239 45.9245 119.8C46.5042 119.506 46.94 119.648 47.5215 119.934C48.8301 120.65 49.5608 122.241 49.71 123.546C49.7118 124.127 49.4233 124.71 48.9893 125.148C48.8455 125.585 48.5552 125.587 48.4096 125.443ZM47.6816 124.722C48.1175 124.864 48.5534 125.006 48.6981 124.86C48.9875 124.568 49.1321 124.422 49.1303 123.841C49.1267 122.68 48.2513 121.235 47.233 120.516C46.7972 120.374 46.3613 120.232 46.2166 120.379C45.9272 120.671 45.7825 120.817 45.7844 121.398C45.7889 122.849 46.6643 124.294 47.6816 124.722Z" fill="#171753"/>
<defs>
<linearGradient id="paint0_linear_3053_6447" x1="172.5" y1="4.39174e-05" x2="152.438" y2="178.909" gradientUnits="userSpaceOnUse">
<stop offset="0.00310139" stop-color="#003DAA"/>
<stop offset="1" stop-color="#00EBE6"/>
</linearGradient>
<linearGradient id="paint1_linear_3053_6447" x1="69.3043" y1="72.3382" x2="89.9661" y2="86.4652" gradientUnits="userSpaceOnUse">
<stop stop-color="#FFA6A6"/>
<stop offset="1" stop-color="white" stop-opacity="0"/>
</linearGradient>
</defs>
</svg>
