<svg width="174" height="173" viewBox="0 0 174 173" fill="none"
    xmlns="http://www.w3.org/2000/svg">
    <circle cx="87.1863" cy="86.4033" r="85.75" stroke="url(#paint0_linear_3088_3967)"/>
    <path d="M72.7282 130.713C85.8253 129.694 100.714 117.437 109.655 98.7677C118.597 80.0983 118.806 60.8486 111.419 49.9882L112.627 47.4306L103.682 43.1585C89.0419 36.1323 67.9841 49.6647 56.6031 73.3892C45.222 97.1137 47.9275 121.993 62.5676 129.02L71.5122 133.292L72.7282 130.713Z" fill="#FFE850"/>
    <path d="M55.9202 73.0573C67.4329 49.0145 88.9495 35.2742 104.005 42.4972L113.633 47.1016L112.281 49.9475C119.76 61.3676 119.004 81.0374 110.329 99.1213C101.655 117.205 86.8226 130.107 73.2229 131.44L71.8715 134.286L62.2442 129.681C47.2521 122.485 44.4163 97.0789 55.9202 73.0573ZM111.615 47.8327L103.32 43.854C89.0741 37.0158 68.3126 50.3726 57.2521 73.6829C46.1915 96.9932 48.6204 121.46 62.9012 128.213L71.2055 132.171L72.2898 129.911L72.7208 129.89C85.9078 128.834 100.49 116.176 109.02 98.3808C117.55 80.5853 118.281 61.2777 110.839 50.3698L110.587 50.0171L111.615 47.8327Z" fill="#171753"/>
    <path d="M71.4574 133.244C56.8085 126.239 54.1769 101.241 65.484 77.6353C76.7911 54.0293 97.9052 40.4208 112.563 47.4045C127.221 54.3882 129.843 79.4077 118.536 103.014C107.229 126.62 86.1611 140.297 71.4574 133.244Z" fill="#FFEE81"/>
    <path d="M116.461 102.022C127.809 78.332 125.139 53.4412 110.497 46.4273C95.8549 39.4133 74.7855 52.9322 63.4371 76.6227C52.0887 100.313 54.7588 125.204 69.4009 132.218C84.0429 139.232 105.112 125.713 116.461 102.022Z" fill="#FFEE81"/>
    <path d="M64.7801 77.2937C76.2928 53.2509 97.8006 39.5319 112.865 46.7337C127.93 53.9354 130.702 79.3149 119.253 103.384C107.804 127.453 86.2234 141.167 71.1676 133.944C56.1119 126.721 53.3522 101.372 64.7801 77.2937ZM117.815 102.715C128.969 79.4182 126.446 54.9373 112.187 48.1928C97.9273 41.4484 77.1798 54.7115 66.1104 78.043C55.0411 101.374 57.4788 125.82 71.7596 132.574C86.0403 139.327 106.754 126.025 117.9 102.75L117.815 102.715Z" fill="#171753"/>
    <path d="M113.206 100.463C122.27 81.5429 120.687 61.9272 109.671 56.6503C98.655 51.3734 82.3776 62.4335 73.3142 81.3538C64.2509 100.274 65.8337 119.89 76.8495 125.167C87.8654 130.444 104.143 119.384 113.206 100.463Z" fill="#ECFFFE"/>
    <path d="M72.6174 81.0582C81.8649 61.7698 98.6178 50.5325 110.005 55.9893C121.392 61.446 123.118 81.546 113.837 100.796C104.555 120.045 87.9174 131.305 76.5125 125.891C65.1076 120.477 63.3999 100.334 72.6174 81.0582ZM112.57 100.073C121.42 81.5643 119.996 62.3593 109.376 57.2699C98.7562 52.1804 82.8982 63.117 74.0268 81.6165C65.1553 100.116 66.5923 119.351 77.212 124.44C87.8317 129.53 103.655 118.678 112.492 100.14L112.57 100.073Z" fill="#171753"/>
    <path d="M113.218 100.489C122.286 81.5742 120.687 61.9492 109.638 56.7566C108.652 56.2975 107.611 55.967 106.54 55.7733C115.013 62.8079 115.614 80.5787 107.372 97.7976C99.1299 115.017 84.865 125.767 74.0969 123.499C74.9259 124.204 75.8367 124.806 76.8097 125.293C87.8589 130.485 104.141 119.426 113.218 100.489Z" fill="#FFE850"/>
    <path d="M72.8997 122.308L74.2945 122.662C84.8379 124.812 98.7845 113.93 106.725 97.3809C114.665 80.8324 114.378 63.142 106.091 56.2589L104.756 55.1598L106.738 54.9358C107.869 55.1412 108.967 55.4955 110.005 55.9893C121.371 61.4373 123.118 81.546 113.837 100.796C104.556 120.045 87.9175 131.305 76.5127 125.891C75.4857 125.371 74.524 124.731 73.6477 123.985L72.8997 122.308ZM112.492 100.14C121.343 81.6317 119.918 62.4267 109.298 57.3373L109.192 57.2934C115.982 65.6943 115.673 82.1195 108.048 98.0277C100.422 113.936 87.819 124.454 77.016 124.434L77.1433 124.487C87.8603 129.641 103.655 118.678 112.492 100.14Z" fill="#171753"/>
    <path d="M115.492 94.5714L109.852 91.865L112.618 81.4525L113.084 70.1131L110.387 60.4723L106.584 55.6678L111.751 57.6564L116.311 63.3953L118.667 70.8569L118.833 81.3892L116.262 92.9512L115.492 94.5714Z" fill="#171753"/>
    <path d="M63.4046 82.541L54.299 78.1774L51.099 89.1562L49.2828 100.335L50.8796 113.596L55.6711 123.582L60.1124 127.805L67.2949 131.05L60.527 121.937L58.5994 109.235L60.2777 92.382L63.4046 82.541Z" fill="#171753"/>
    <path d="M98.3513 85.5882C98.619 84.249 99.5561 82.843 100.426 82.4412C101.296 82.0395 101.765 82.843 101.43 84.1151C101.162 85.4543 100.225 86.8603 99.3553 87.2621C98.5521 87.7308 98.0835 86.9273 98.3513 85.5882Z" fill="#171753"/>
    <path d="M106.183 86.9258C105.982 87.6623 105.781 88.3988 105.513 89.1354C104.576 91.7466 103.237 94.4249 101.497 96.4336C99.0875 99.2457 96.6779 100.049 94.7368 100.049C92.4611 103.062 92.4611 103.062 92.4611 103.062C91.9256 103.732 91.524 103.397 91.9256 102.527C91.3901 102.995 91.3232 102.326 91.6579 101.656C91.1224 102.393 90.9216 101.723 91.2563 100.987C91.524 100.518 91.8587 99.9823 92.0595 99.5805C89.7837 98.844 87.7757 97.371 85.6338 95.8979C86.9056 96.5005 91.9925 97.7058 93.1973 97.8397C94.4021 97.9736 95.607 98.1075 96.9456 97.8397C98.0166 97.5718 99.4222 96.9692 100.694 95.4292C101.832 94.0901 102.568 92.0814 103.037 90.4745C104.108 86.8588 104.174 83.3771 103.706 80.8997C103.17 78.2884 101.765 76.2797 99.5561 76.2797C98.7528 76.2797 97.8158 76.6145 96.8787 77.2171C94.7368 78.5563 92.3941 81.3015 90.3861 84.3145C87.441 88.8006 84.9645 93.9562 82.6218 99.0449C81.0154 102.527 78.1372 110.427 75.1252 109.557C73.7196 109.155 73.1172 107.347 72.8494 105.473C72.5148 103.397 72.5817 100.384 73.6527 97.4379C75.9284 91.211 80.8146 93.4875 82.421 94.3579C82.2871 94.3579 78.338 93.6884 76.1292 96.7684C75.1252 98.1744 74.7905 100.049 74.6567 101.388C74.3889 103.732 74.6567 106.812 76.1292 107.214C78.0034 107.682 80.1452 101.924 81.0823 99.8484C82.6218 96.3666 84.0943 92.8849 85.7007 89.4032C87.441 85.6536 89.3821 81.8371 91.6579 78.5563C91.3901 78.0876 91.0555 77.485 91.1893 76.6815C91.3232 75.7441 92.1933 74.4719 92.7288 74.7398C92.1933 73.7354 93.6659 71.4589 94.4691 71.7937C94.2683 70.8563 95.2723 69.2493 95.9416 69.0485C96.3432 68.9146 96.6779 69.3163 96.8787 69.5172C97.548 70.0528 98.1504 70.6554 98.8198 71.1241C106.383 66.705 108.86 77.0163 106.183 86.9258Z" fill="#171753"/>
    <defs>
        <linearGradient id="paint0_linear_3088_3967" x1="173.437" y1="0.153364" x2="153.375" y2="179.063" gradientUnits="userSpaceOnUse">
            <stop offset="0.00310139" stop-color="#00B0D7"/>
            <stop offset="1" stop-color="#1BF6F2"/>
        </linearGradient>
    </defs>
</svg>
