<svg width="286" height="286" viewBox="0 0 286 286" fill="none" xmlns="http://www.w3.org/2000/svg">
<g filter="url(#filter0_d_3053_5458)">
<mask id="mask0_3053_5458" style="mask-type:alpha" maskUnits="userSpaceOnUse" x="14" y="6" width="258" height="258">
<circle cx="143" cy="135" r="129" fill="#D9D9D9"/>
</mask>
<g mask="url(#mask0_3053_5458)">
<path d="M143.665 261.748C212.382 261.748 268.088 206.042 268.088 137.326C268.088 68.609 212.382 12.9031 143.665 12.9031C74.9482 12.9031 19.2424 68.609 19.2424 137.326C19.2424 206.042 74.9482 261.748 143.665 261.748Z" fill="#060230"/>
<path d="M273.497 6.0368H13.8328V265.701H273.497V6.0368Z" fill="url(#paint0_linear_3053_5458)"/>
<path d="M13.8327 117.143H273.497M273.705 118.6H13.8327H273.705ZM273.705 120.056H13.8327H273.705ZM273.705 121.721H13.8327H273.705ZM273.705 123.593H13.8327H273.705ZM273.705 125.466H13.8327H273.705ZM273.705 127.546H13.8327H273.705ZM273.705 129.835H13.8327H273.705ZM273.705 132.332H13.8327H273.705ZM273.705 134.829H13.8327H273.705ZM273.705 137.742H13.8327H273.705ZM273.705 140.863H13.8327H273.705ZM273.705 144.192H13.8327H273.705ZM273.705 147.937H13.8327H273.705ZM273.705 152.098H13.8327H273.705ZM273.705 156.884H13.8327H273.705ZM273.705 161.877H13.8327H273.705ZM273.705 167.703H13.8327H273.705ZM273.705 174.361H13.8327H273.705ZM273.705 181.851H13.8327H273.705ZM273.705 190.59H13.8327H273.705ZM273.705 200.785H13.8327H273.705ZM273.705 213.061H13.8327H273.705ZM273.705 227.626H13.8327H273.705ZM273.705 245.311H13.8327H273.705ZM273.705 267.782H13.8327H273.705ZM13.8327 120.888L23.4037 117.143L13.8327 120.888ZM13.8327 133.58L47.5392 116.935L13.8327 133.58ZM13.8327 154.803L71.4666 116.935L13.8327 154.803ZM13.8327 197.456L95.6021 117.143L13.8327 197.456ZM28.1892 296.703L119.53 117.143L28.1892 296.703ZM143.665 296.703V117.143V296.703ZM259.141 296.703L167.8 117.143L259.141 296.703ZM273.705 197.456L191.936 117.143L273.705 197.456ZM273.705 154.803L216.071 116.935L273.705 154.803ZM273.705 133.58L239.999 116.935L273.705 133.58ZM273.705 120.888L264.134 117.143L273.705 120.888Z" stroke="url(#paint1_linear_3053_5458)" stroke-width="1.04032" stroke-miterlimit="10"/>
<path d="M59.1908 108.405C59.1908 108.821 58.9827 109.029 58.5666 109.029C58.1504 109.029 57.9424 108.821 57.9424 108.405C57.9424 107.989 58.1504 107.78 58.5666 107.78C58.9827 107.78 59.1908 108.197 59.1908 108.405Z" fill="#F4ECD9"/>
<path d="M76.044 115.895C76.044 116.311 75.836 116.519 75.4199 116.519C75.0037 116.519 74.7957 116.311 74.7957 115.895C74.7957 115.479 75.0037 115.271 75.4199 115.271C75.836 115.271 76.044 115.479 76.044 115.895Z" fill="#F4ECD9"/>
<path d="M82.7021 18.5207C82.7021 18.7287 82.494 18.9368 82.2859 18.9368C82.0778 18.9368 81.8698 18.7287 81.8698 18.5207C81.8698 18.3126 82.0778 18.1046 82.2859 18.1046C82.494 18.1046 82.7021 18.3126 82.7021 18.5207Z" fill="#F4ECD9"/>
<path d="M101.844 13.5272C101.844 13.7353 101.636 13.9434 101.428 13.9434C101.22 13.9434 101.012 13.7353 101.012 13.5272C101.012 13.3192 101.22 13.1111 101.428 13.1111C101.636 12.903 101.844 13.1111 101.844 13.5272Z" fill="#F4ECD9"/>
<path d="M123.067 18.3127C123.067 18.5207 122.859 18.7288 122.65 18.7288C122.442 18.7288 122.234 18.5207 122.234 18.3127C122.234 18.1046 122.442 17.8965 122.65 17.8965C122.859 17.8965 123.067 18.1046 123.067 18.3127Z" fill="#F4ECD9"/>
<path d="M146.37 27.8836C146.37 28.2997 146.162 28.5078 145.746 28.5078C145.329 28.5078 145.121 28.2997 145.121 27.8836C145.121 27.4675 145.329 27.2594 145.746 27.2594C146.162 27.2594 146.37 27.6755 146.37 27.8836Z" fill="#F4ECD9"/>
<path d="M165.928 19.7692C165.928 19.9772 165.72 20.1853 165.512 20.1853C165.304 20.1853 165.096 19.9772 165.096 19.7692C165.096 19.5611 165.304 19.353 165.512 19.353C165.72 19.353 165.928 19.5611 165.928 19.7692Z" fill="#F4ECD9"/>
<path d="M245.617 150.434C245.617 150.85 245.201 151.058 244.993 151.058C244.576 151.058 244.368 150.642 244.368 150.434C244.368 150.017 244.784 149.809 244.993 149.809C245.201 149.809 245.617 150.017 245.617 150.434Z" fill="#F4ECD9"/>
<path d="M59.1908 148.353C59.6504 148.353 60.023 147.98 60.023 147.521C60.023 147.061 59.6504 146.688 59.1908 146.688C58.7312 146.688 58.3585 147.061 58.3585 147.521C58.3585 147.98 58.7312 148.353 59.1908 148.353Z" fill="#F4ECD9"/>
<path d="M223.978 16.8562C223.978 17.0643 223.77 17.0643 223.77 17.0643C223.562 17.0643 223.562 16.8562 223.562 16.8562C223.562 16.6481 223.77 16.6481 223.77 16.6481C223.77 16.6481 223.978 16.8562 223.978 16.8562Z" fill="#F4ECD9"/>
<path d="M242.288 19.353C242.403 19.353 242.496 19.2599 242.496 19.145C242.496 19.03 242.403 18.9369 242.288 18.9369C242.173 18.9369 242.08 19.03 242.08 19.145C242.08 19.2599 242.173 19.353 242.288 19.353Z" fill="#F4ECD9"/>
<path d="M208.373 47.6497C208.373 48.0658 208.165 48.2739 207.749 48.2739C207.333 48.2739 207.125 48.0658 207.125 47.6497C207.125 47.2336 207.333 47.0255 207.749 47.0255C208.165 47.0255 208.373 47.4416 208.373 47.6497Z" fill="#F4ECD9"/>
<path d="M203.171 119.848C203.171 120.056 202.963 120.264 202.755 120.264C202.547 120.264 202.339 120.056 202.339 119.848C202.339 119.64 202.547 119.432 202.755 119.432C202.963 119.432 203.171 119.64 203.171 119.848Z" fill="#F4ECD9"/>
<path d="M37.9682 116.519C37.9682 116.935 37.5521 117.351 37.136 117.351C36.7198 117.351 36.3037 116.935 36.3037 116.519C36.3037 116.103 36.7198 115.687 37.136 115.687C37.5521 115.895 37.9682 116.103 37.9682 116.519Z" fill="#F4ECD9"/>
<path d="M62.9359 31.6288C62.9359 31.8369 62.7278 32.045 62.5197 32.045C62.3117 32.045 62.1036 31.8369 62.1036 31.6288C62.1036 31.4208 62.3117 31.2127 62.5197 31.2127C62.7278 31.2127 62.9359 31.4208 62.9359 31.6288Z" fill="#F4ECD9"/>
<path d="M92.273 28.5078C92.6178 28.5078 92.8972 28.2283 92.8972 27.8836C92.8972 27.5389 92.6178 27.2594 92.273 27.2594C91.9283 27.2594 91.6488 27.5389 91.6488 27.8836C91.6488 28.2283 91.9283 28.5078 92.273 28.5078Z" fill="#F4ECD9"/>
<path d="M132.221 38.2868C132.451 38.2868 132.638 38.1936 132.638 38.0787C132.638 37.9638 132.451 37.8707 132.221 37.8707C131.992 37.8707 131.805 37.9638 131.805 38.0787C131.805 38.1936 131.992 38.2868 132.221 38.2868Z" fill="#F4ECD9"/>
<path d="M146.37 47.6497C146.37 48.0658 146.162 48.2739 145.746 48.2739C145.329 48.2739 145.121 48.0658 145.121 47.6497C145.121 47.2336 145.329 47.0255 145.746 47.0255C146.162 47.0255 146.37 47.4416 146.37 47.6497Z" fill="#F4ECD9"/>
<path d="M184.654 31.6288C184.884 31.6288 185.07 31.4425 185.07 31.2127C185.07 30.9829 184.884 30.7966 184.654 30.7966C184.424 30.7966 184.238 30.9829 184.238 31.2127C184.238 31.4425 184.424 31.6288 184.654 31.6288Z" fill="#F4ECD9"/>
<path d="M226.891 28.9239C226.891 29.1319 226.683 29.34 226.475 29.34C226.267 29.34 226.058 29.1319 226.058 28.9239C226.058 28.7158 226.267 28.5078 226.475 28.5078C226.683 28.5078 226.891 28.7158 226.891 28.9239Z" fill="#F4ECD9"/>
<path d="M245.408 34.3336C245.638 34.3336 245.825 34.1473 245.825 33.9175C245.825 33.6877 245.638 33.5013 245.408 33.5013C245.179 33.5013 244.992 33.6877 244.992 33.9175C244.992 34.1473 245.179 34.3336 245.408 34.3336Z" fill="#F4ECD9"/>
<path d="M224.186 63.2546C224.186 63.6707 223.77 64.0869 223.354 64.0869C222.938 64.0869 222.521 63.6707 222.521 63.2546C222.521 62.8385 222.938 62.4224 223.354 62.4224C223.978 62.4224 224.186 62.8385 224.186 63.2546Z" fill="#F4ECD9"/>
<path d="M23.4036 55.7643C23.6335 55.7643 23.8198 55.578 23.8198 55.3481C23.8198 55.1183 23.6335 54.932 23.4036 54.932C23.1738 54.932 22.9875 55.1183 22.9875 55.3481C22.9875 55.578 23.1738 55.7643 23.4036 55.7643Z" fill="#F4ECD9"/>
<path d="M78.7489 78.0272C78.7489 78.2352 78.5408 78.4433 78.3327 78.4433C78.1247 78.4433 77.9166 78.2352 77.9166 78.0272C77.9166 77.8191 78.1247 77.611 78.3327 77.611C78.5408 77.611 78.7489 77.8191 78.7489 78.0272Z" fill="#F4ECD9"/>
<path d="M112.039 48.482C112.039 48.8981 111.623 49.3142 111.207 49.3142C110.791 49.3142 110.375 48.8981 110.375 48.482C110.375 48.0659 110.791 47.6497 111.207 47.6497C111.623 47.6497 112.039 48.0659 112.039 48.482Z" fill="#F4ECD9"/>
<path d="M81.0376 45.9852C81.2674 45.9852 81.4537 45.8921 81.4537 45.7772C81.4537 45.6623 81.2674 45.5691 81.0376 45.5691C80.8078 45.5691 80.6215 45.6623 80.6215 45.7772C80.6215 45.8921 80.8078 45.9852 81.0376 45.9852Z" fill="#F4ECD9"/>
<path d="M60.6472 56.1805C60.6472 56.5966 60.2311 57.0127 59.8149 57.0127C59.3988 57.0127 58.9827 56.5966 58.9827 56.1805C58.9827 55.7643 59.3988 55.3482 59.8149 55.3482C60.2311 55.3482 60.6472 55.7643 60.6472 56.1805Z" fill="#F4ECD9"/>
<path d="M146.578 62.8385C146.578 63.0466 146.37 63.2546 146.162 63.2546C145.954 63.2546 145.746 63.0466 145.746 62.8385C145.746 62.6304 145.954 62.4224 146.162 62.4224C146.37 62.4224 146.578 62.6304 146.578 62.8385Z" fill="#F4ECD9"/>
<path d="M158.229 55.3482C158.229 55.7643 158.021 55.9724 157.605 55.9724C157.189 55.9724 156.981 55.7643 156.981 55.3482C156.981 54.9321 157.189 54.724 157.605 54.724C158.021 54.724 158.229 55.1401 158.229 55.3482Z" fill="#F4ECD9"/>
<path d="M169.257 68.0401C169.257 68.2482 169.049 68.2482 169.049 68.2482L168.841 68.0401C168.841 67.832 169.049 67.832 169.049 67.832C169.049 67.832 169.257 67.832 169.257 68.0401Z" fill="#F4ECD9"/>
<path d="M190.479 68.4562C190.479 68.8724 190.271 69.0804 189.855 69.0804C189.439 69.0804 189.231 68.8724 189.231 68.4562C189.231 68.0401 189.439 67.832 189.855 67.832C190.271 68.0401 190.479 68.2482 190.479 68.4562Z" fill="#F4ECD9"/>
<path d="M245.825 52.6432C245.825 52.8513 245.617 53.0594 245.408 53.0594C245.2 53.0594 244.992 52.8513 244.992 52.6432C244.992 52.4352 245.2 52.2271 245.408 52.2271C245.617 52.4352 245.825 52.4352 245.825 52.6432Z" fill="#F4ECD9"/>
<path d="M264.967 59.0934C264.967 59.3014 264.967 59.3014 264.758 59.3014C264.55 59.3014 264.55 59.3014 264.55 59.0934C264.55 58.8853 264.55 58.8853 264.758 58.8853C264.967 58.8853 264.967 58.8853 264.967 59.0934Z" fill="#F4ECD9"/>
<path d="M51.4923 126.298C51.4923 126.714 51.2843 126.922 50.8681 126.922C50.452 126.922 50.2439 126.714 50.2439 126.298C50.2439 125.882 50.452 125.674 50.8681 125.674C51.2843 125.674 51.4923 125.882 51.4923 126.298Z" fill="#F4ECD9"/>
<path d="M63.5601 88.6384C63.5601 88.8465 63.352 89.0546 63.1439 89.0546C62.9359 89.0546 62.7278 88.8465 62.7278 88.6384C62.7278 88.4304 62.9359 88.2223 63.1439 88.2223C63.352 88.2223 63.5601 88.4304 63.5601 88.6384Z" fill="#F4ECD9"/>
<path d="M103.092 81.1481C103.092 81.3562 102.884 81.5643 102.676 81.5643C102.468 81.5643 102.26 81.3562 102.26 81.1481C102.26 80.9401 102.468 80.732 102.676 80.732C102.884 80.5239 103.092 80.9401 103.092 81.1481Z" fill="#F4ECD9"/>
<path d="M118.865 62.6503C118.865 62.8583 118.656 63.0664 118.448 63.0664C118.24 63.0664 118.032 62.8583 118.032 62.6503C118.032 62.4422 118.24 62.2341 118.448 62.2341C118.656 62.0261 118.865 62.4422 118.865 62.6503Z" fill="#F4ECD9"/>
<path d="M185.902 86.5579C185.902 86.974 185.694 87.1821 185.278 87.1821C184.862 87.1821 184.654 86.974 184.654 86.5579C184.654 86.1418 184.862 85.9337 185.278 85.9337C185.694 85.9337 185.902 86.1418 185.902 86.5579Z" fill="#F4ECD9"/>
<path d="M182.365 51.1869C182.365 51.3949 182.157 51.395 182.157 51.395C181.949 51.395 181.949 51.1869 181.949 51.1869L182.157 50.9788C182.157 50.9788 182.365 51.1869 182.365 51.1869Z" fill="#F4ECD9"/>
<path d="M242.912 74.4902C242.912 74.9063 242.704 75.1144 242.287 75.1144C241.871 75.1144 241.663 74.9063 241.663 74.4902C241.663 74.074 241.871 73.866 242.287 73.866C242.704 73.866 242.912 74.074 242.912 74.4902Z" fill="#F4ECD9"/>
<path d="M75.4198 163.75C75.4198 164.166 75.0036 164.374 74.7956 164.374C74.5875 164.374 74.1714 163.958 74.1714 163.75C74.1714 163.334 74.5875 163.126 74.7956 163.126C75.0036 163.126 75.4198 163.334 75.4198 163.75Z" fill="#F4ECD9"/>
<path d="M92.273 116.519C92.6178 116.519 92.8972 116.24 92.8972 115.895C92.8972 115.55 92.6178 115.271 92.273 115.271C91.9283 115.271 91.6488 115.55 91.6488 115.895C91.6488 116.24 91.9283 116.519 92.273 116.519Z" fill="#F4ECD9"/>
<path d="M44.2102 97.7933C44.2102 98.2094 43.794 98.6256 43.3779 98.6256C42.9618 98.6256 42.5457 98.2094 42.5457 97.7933C42.5457 97.3772 42.9618 96.9611 43.3779 96.9611C43.794 96.9611 44.2102 97.3772 44.2102 97.7933Z" fill="#F4ECD9"/>
<path d="M84.5747 96.1288C84.5747 96.3368 84.3666 96.5449 84.1586 96.5449C83.9505 96.5449 83.7424 96.3368 83.7424 96.1288C83.7424 95.9207 83.9505 95.7126 84.1586 95.7126C84.3666 95.7126 84.5747 95.9207 84.5747 96.1288Z" fill="#F4ECD9"/>
<path d="M226.475 90.3029C226.934 90.3029 227.307 89.9303 227.307 89.4707C227.307 89.011 226.934 88.6384 226.475 88.6384C226.015 88.6384 225.642 89.011 225.642 89.4707C225.642 89.9303 226.015 90.3029 226.475 90.3029Z" fill="#F4ECD9"/>
<path d="M247.905 88.6384C247.905 89.0545 247.697 89.2626 247.281 89.2626C246.865 89.2626 246.657 89.0545 246.657 88.6384C246.657 88.2223 246.865 88.0142 247.281 88.0142C247.697 87.8061 247.905 88.2223 247.905 88.6384Z" fill="#F4ECD9"/>
<path d="M247.489 135.869C247.489 136.285 247.073 136.701 246.657 136.701C246.241 136.701 245.825 136.285 245.825 135.869C245.825 135.453 246.241 135.037 246.657 135.037C247.073 135.245 247.489 135.453 247.489 135.869Z" fill="#F4ECD9"/>
<path d="M232.092 117.351C232.092 117.767 231.676 118.184 231.26 118.184C230.844 118.184 230.428 117.767 230.428 117.351C230.428 116.935 230.844 116.519 231.26 116.519C231.676 116.519 232.092 116.935 232.092 117.351Z" fill="#F4ECD9"/>
<path d="M238.334 106.948C238.334 107.364 238.126 107.572 237.71 107.572C237.294 107.572 237.086 107.364 237.086 106.948C237.086 106.532 237.294 106.324 237.71 106.324C238.126 106.324 238.334 106.532 238.334 106.948Z" fill="#F4ECD9"/>
<path d="M221.689 215.558C216.904 210.772 219.192 200.577 215.655 195.584C211.702 189.966 201.299 188.718 198.594 183.516C195.473 177.066 200.675 167.911 198.802 162.709C195.057 151.682 187.358 155.427 186.11 146.064H143.665H101.22C99.9714 155.635 92.273 151.682 88.5278 162.709C86.6553 167.911 92.0649 177.274 88.7359 183.516C86.0311 188.926 75.6279 190.174 71.6746 195.584C68.1375 200.577 70.4262 210.772 65.6407 215.558C61.2714 219.927 51.0762 217.847 45.6666 221.592C45.6666 221.592 73.9633 242.398 143.665 242.398C213.367 242.398 241.663 221.592 241.663 221.592C236.254 217.847 226.058 219.927 221.689 215.558Z" fill="#5CDAD1"/>
<path d="M238.959 223.464C230.428 228.458 201.091 262.96 143.665 262.96C86.2391 262.96 52.4918 230.71 48.3714 223.464C53.1569 221.592 65.0166 222.216 69.1779 217.222C71.0505 214.934 71.4666 211.397 72.2988 208.692C73.1311 205.987 74.1714 202.866 75.2117 201.618C76.6682 199.953 79.373 198.497 82.0779 197.04C86.0311 194.959 90.4004 192.671 93.3133 188.093C96.6424 182.684 97.0585 176.442 97.2666 171.656C97.4747 169.368 97.4746 166.247 98.0988 165.206C99.9714 161.253 101.636 160.213 103.925 158.756C106.213 157.3 109.126 155.427 111.415 151.474H117.449H169.881H176.123C178.412 155.635 181.325 157.508 183.613 158.756C185.902 160.213 187.567 161.253 189.439 165.206C190.063 166.247 190.063 169.368 190.271 171.656C190.479 176.65 190.896 182.684 194.225 188.093C197.138 192.671 201.507 194.959 205.46 197.04C208.165 198.497 211.078 199.953 212.326 201.618C213.367 202.866 214.199 205.987 215.239 208.692C216.071 211.397 216.279 214.726 218.36 217.222C222.313 222.216 234.173 221.592 238.959 223.464Z" fill="#067A80"/>
<path d="M165.512 226.793H122.026L123.483 179.771H163.847L165.512 226.793Z" fill="#ECFFFE"/>
<path d="M164.766 205.773C158.733 211.807 153.693 213.061 143.914 213.061C133.926 213.061 128.742 211.317 122.708 205.283L123.575 179.771L164.147 179.771L164.766 205.773Z" fill="#99E8C5"/>
<path d="M206.709 157.716C199.01 164.374 187.567 164.79 181.325 158.34C175.083 152.098 176.123 141.487 184.029 134.829C191.728 128.171 203.171 127.755 209.413 134.205C215.655 140.446 214.407 151.058 206.709 157.716Z" fill="#ECFFFE"/>
<path d="M205.876 157.3C205.044 157.924 204.212 158.548 203.172 159.172C198.802 161.877 193.184 162.917 188.191 161.461C187.567 161.253 187.151 161.045 186.526 160.837C184.862 160.213 183.197 159.172 181.949 157.924V157.716C181.949 157.716 181.949 157.716 182.157 157.716C185.07 158.34 189.023 158.964 193.809 158.548C200.467 158.34 202.755 157.508 205.876 156.884C205.876 157.092 206.084 157.092 205.876 157.3C206.084 157.3 205.876 157.3 205.876 157.3Z" fill="#99E8C5"/>
<path d="M205.46 138.158C205.46 138.158 191.104 133.372 185.694 150.225L205.46 138.158Z" fill="#99E8C5"/>
<path d="M80.8295 157.716C88.5279 164.374 99.9714 164.79 106.213 158.34C112.455 152.098 111.415 141.487 103.509 134.829C95.8102 128.171 84.3666 127.755 78.1246 134.205C71.8827 140.446 73.1311 151.058 80.8295 157.716Z" fill="#ECFFFE"/>
<path d="M81.4536 157.3C82.2859 157.924 83.1181 158.548 84.1585 159.172C88.5278 161.877 94.1455 162.917 99.1391 161.461C99.7633 161.253 100.179 161.045 100.804 160.837C102.468 160.213 104.133 159.172 105.381 157.924V157.716C105.381 157.716 105.381 157.716 105.173 157.716C102.26 158.34 98.3068 158.964 93.5214 158.548C86.8633 158.34 84.5746 157.508 81.4536 156.884C81.6617 157.092 81.4536 157.092 81.4536 157.3Z" fill="#99E8C5"/>
<path d="M81.8698 138.158C81.8698 138.158 96.2262 133.372 101.636 150.225L81.8698 138.158Z" fill="#99E8C5"/>
<path d="M143.665 204.738C117.241 204.738 96.2262 183.308 96.8504 157.924L97.8907 120.056C98.5149 96.5449 119.113 77.611 143.665 77.611C168.217 77.611 188.815 96.3368 189.439 120.056L190.479 157.924C191.312 183.308 170.297 204.738 143.665 204.738Z" fill="#ECFFFE"/>
<path d="M143.665 76.5707C88.1117 76.5707 97.6827 131.916 97.6827 131.916C97.6827 131.916 140.544 116.727 143.665 86.974C146.786 116.727 189.647 131.916 189.647 131.916C189.647 131.916 199.426 76.5707 143.665 76.5707Z" fill="#5CDAD1"/>
<path d="M143.673 145.648H96.4423C97.0665 149.185 99.1471 151.474 102.476 153.138C104.141 153.971 106.013 154.387 107.886 154.387H129.733C132.437 154.387 134.934 154.803 136.807 152.93C138.887 151.058 141.384 150.226 143.881 150.226C146.378 150.226 148.875 151.058 150.955 152.93C152.828 154.595 155.325 154.387 158.029 154.387H179.876C181.749 154.387 183.621 153.971 185.286 153.138C188.407 151.474 190.695 149.185 191.32 145.648L191.32 142.412L143.673 145.648Z" fill="#503B8B"/>
<path d="M143.665 137.117H96.2263V143.151C96.2263 143.984 96.4343 144.816 96.4343 145.648C97.6827 150.226 102.052 152.93 107.046 152.93H128.892C131.597 152.93 134.302 153.138 136.175 151.474C138.255 149.601 140.96 148.561 143.457 148.561C145.954 148.561 148.659 149.601 150.739 151.474C152.82 153.347 155.317 152.93 158.021 152.93H179.868C185.07 152.93 189.439 150.226 190.479 145.648C190.688 144.816 190.688 143.984 190.688 143.151V137.117H143.665Z" fill="#8B88C5"/>
<path d="M143.665 145.856H106.629C100.596 145.856 96.0181 141.071 96.2262 135.453L96.8504 125.05C97.0584 119.848 101.636 115.687 107.254 115.687H143.873H180.492C186.11 115.687 190.687 119.848 190.896 125.05L191.52 135.453C191.728 141.071 187.15 145.856 181.117 145.856H143.665Z" fill="#503B8B"/>
<path opacity="0.8" d="M153.868 116.103L114.861 151.474H106.276L102.893 149.393L100.812 148.353L136.698 116.103H153.868Z" fill="#8B88C5"/>
<path opacity="0.8" d="M178.836 116.103L144.505 148.353H138.263L134.962 151.474H128.901L166.895 116.103H178.836Z" fill="#8B88C5"/>
<path d="M70.5303 237.819C70.5303 226.328 79.8457 217.013 91.3368 217.013H195.369C206.86 217.013 216.175 226.328 216.175 237.819V265.701H70.5303V237.819Z" fill="#49CE8B"/>
<path d="M247.697 264.661H215.031C215.031 233.868 191.936 217.014 191.936 217.014H195.473C218.776 216.806 238.958 236.572 247.697 264.661Z" fill="#99E8C5"/>
<path d="M39.6325 264.661H72.2987C72.2987 233.867 95.3938 217.014 95.3938 217.014H91.8567C68.7616 216.806 48.5793 236.572 39.6325 264.661Z" fill="#99E8C5"/>
<path d="M169.881 217.013H117.449C111.831 229.216 120.154 245.311 143.665 245.311C167.176 245.311 175.499 229.216 169.881 217.013Z" fill="#99E8C5"/>
<path d="M165.928 228.686C164.68 231.516 162.391 233.992 159.27 235.937C155.317 238.236 149.907 239.475 143.873 239.475C137.839 239.475 132.43 238.236 128.476 235.937C125.355 234.169 123.067 231.692 121.818 228.686C120.362 225.148 120.778 221.257 123.067 217.897C123.275 217.543 123.483 217.19 123.691 217.013H163.847C164.055 217.366 164.263 217.72 164.471 217.897C166.76 221.434 167.384 225.148 165.928 228.686Z" fill="#ECFFFE"/>
<g style="mix-blend-mode:overlay">
<path d="M149.707 130.459C149.707 129.419 150.539 128.587 151.579 128.587C152.62 128.587 153.452 129.419 153.452 130.459C153.452 131.5 152.62 132.332 151.579 132.332C150.539 132.332 149.707 131.5 149.707 130.459Z" fill="#ECFFFE"/>
<path d="M159.478 135.869C159.478 136.285 159.27 136.909 159.27 137.326C158.853 138.99 157.813 140.655 156.149 141.487C153.86 142.735 151.155 142.319 149.074 141.279C147.202 142.527 147.202 142.527 147.202 142.527C146.786 142.735 146.162 142.319 146.37 141.903C145.954 141.903 145.745 141.487 145.954 141.071C145.537 141.487 145.121 140.863 145.329 140.446C145.537 140.238 145.745 140.03 145.954 139.614C143.249 138.158 140.96 136.285 138.671 134.413C140.128 135.245 145.537 138.158 146.786 138.574C148.242 139.198 149.491 139.822 150.947 140.03C152.195 140.238 153.652 140.447 154.9 139.822C155.941 139.198 156.357 137.95 156.565 136.909C156.981 134.413 156.149 131.708 154.9 129.627C153.652 127.547 151.363 125.466 148.866 124.842C148.034 124.634 146.994 124.634 146.162 124.842C144.289 125.258 142.416 126.298 140.96 127.963C139.087 130.251 137.631 132.956 136.383 135.453C135.55 137.326 134.302 141.695 131.597 139.822C130.349 138.99 129.516 137.742 129.1 136.285C128.476 134.829 128.06 132.956 128.476 131.292C129.308 127.963 133.886 130.876 135.342 131.916C135.342 131.916 131.597 130.251 130.349 131.5C129.724 132.124 129.724 133.164 129.933 133.997C130.141 135.453 130.765 137.534 132.221 138.366C133.886 139.406 134.926 136.285 135.342 135.245C136.174 133.372 136.799 131.5 137.631 129.627C138.671 127.547 139.712 125.674 141.168 124.009C140.752 123.593 140.336 123.177 140.336 122.553C140.336 121.929 140.752 121.305 141.376 121.721C140.752 120.888 141.584 119.848 142.624 120.264C142.208 119.64 142.833 118.808 143.665 118.808C144.081 118.808 144.497 119.224 144.705 119.432C145.537 119.848 146.37 120.472 147.202 121.097C154.276 120.264 160.102 128.795 159.478 135.869Z" fill="#ECFFFE"/>
</g>
<path d="M423.304 220.551C407.699 180.603 367.542 157.092 336.749 144.4C320.936 137.95 304.291 132.54 288.062 127.339C267.255 120.68 245.616 113.814 225.642 104.243C206.084 94.8805 159.894 68.0401 153.028 21.6417C149.075 -5.19859 159.062 -35.1599 182.781 -67.6179C185.07 -70.7389 187.358 -73.6518 189.647 -76.7728L189.023 -77.397C186.734 -74.276 184.237 -71.3631 181.949 -68.2421C158.229 -35.3679 148.034 -5.19858 151.987 21.8498C158.854 68.6643 205.46 95.7127 225.226 105.076C245.408 114.647 266.839 121.513 287.854 128.171C303.875 133.372 320.52 138.574 336.541 145.024C367.334 157.716 407.075 181.019 422.679 220.76C428.297 234.908 430.378 250.513 432.458 265.493C433.291 271.735 434.123 277.977 435.371 284.427L436.204 283.803C435.163 277.769 434.331 271.527 433.499 265.493C431.002 250.305 428.921 234.908 423.304 220.551Z" fill="#99E8C5"/>
<path d="M88.3198 61.382C90.2733 61.382 91.8569 59.7984 91.8569 57.8449C91.8569 55.8914 90.2733 54.3078 88.3198 54.3078C86.3663 54.3078 84.7827 55.8914 84.7827 57.8449C84.7827 59.7984 86.3663 61.382 88.3198 61.382Z" stroke="#41CF8E" stroke-width="2.08065"/>
<path opacity="0.8" d="M35.0553 186.845L38.1763 183.516C50.4521 171.032 63.144 158.34 66.6811 141.279C68.7617 131.292 67.0972 120.889 65.4327 110.693C64.1843 102.371 62.7279 93.8401 63.3521 85.3095C64.6005 68.4562 74.1714 53.0595 82.494 41.6159C84.5746 38.703 86.6553 35.7901 88.944 32.8772C96.2263 22.8901 103.925 12.695 108.918 1.25141C109.126 0.835285 109.334 0.211094 109.542 -0.205035L110.167 -1.03729C109.75 -0.205034 109.542 0.627221 109.126 1.45948C104.133 12.903 96.4343 23.0982 89.1521 33.0853C87.0714 35.9982 84.7827 38.9111 82.7021 41.824C74.5876 53.2675 65.0166 68.6643 63.5601 85.5175C62.9359 93.8401 64.1843 102.579 65.6408 110.901C67.3053 120.889 68.9698 131.5 66.8892 141.487C63.5601 158.34 50.6601 171.24 38.3843 183.724C37.344 184.764 36.3037 185.805 35.2634 187.053C30.4779 192.047 25.2763 197.664 21.115 203.698L20.9069 203.49C25.0682 197.456 30.2698 191.839 35.0553 186.845Z" fill="#99E8C5"/>
<path d="M115.952 18.4839C109.918 24.3097 102.219 27.0145 94.1049 29.3032C86.4065 31.3839 78.5 33.2565 71.842 38.0419C58.3178 47.6129 52.492 64.8823 50.4113 80.6952C48.1226 98.3806 49.1629 116.898 42.921 133.96C39.8 142.282 34.5984 150.189 26.4839 154.35C19.8258 157.887 12.5436 157.679 5.67744 155.39C1.72422 154.142 -2.02094 152.269 -5.7661 150.397L-6.80643 152.061C-5.7661 152.685 -4.72578 153.102 -3.68546 153.726C2.55648 156.639 9.21454 159.344 16.0807 159.135C23.9871 158.927 31.2694 154.766 36.471 148.94C42.7129 141.866 46.042 132.503 47.9146 123.14C49.7871 114.194 50.2032 105.247 50.8274 96.0919C52.0758 78.8226 53.9484 60.0968 65.392 46.3645C68.0968 43.0355 71.2178 40.3306 74.7549 38.25C78.292 36.1694 82.2452 34.7129 86.1984 33.4645C93.8968 31.1758 102.011 29.7194 109.294 25.5581C116.784 21.3968 122.61 14.9468 126.147 7.04032L124.482 6C122.818 10.7855 119.697 14.9468 115.952 18.4839Z" fill="#99E8C5"/>
<path d="M80.2053 21.8497C65.0166 34.5417 60.6472 55.3481 59.6069 70.7449C58.9827 78.6513 59.1908 86.7659 59.1908 94.4642C59.3989 104.451 59.3989 114.855 58.1505 125.05C56.9021 135.037 51.9085 158.964 32.7666 168.743C21.7392 174.361 7.17466 174.361 -10.5108 168.743C-12.1753 168.119 -13.8399 167.703 -15.5044 167.079L-15.7124 167.495C-14.0479 168.119 -12.3834 168.743 -10.7189 169.159C6.96659 174.777 21.7392 174.777 32.9746 169.159C52.5327 159.38 57.5263 135.037 58.5666 125.05C59.815 114.855 59.6069 104.451 59.6069 94.4642C59.3988 86.7659 59.3988 78.6513 60.023 70.7449C61.0634 55.5562 65.4327 34.7497 80.4134 22.0578C85.823 17.4804 92.273 14.3594 98.515 11.2384C101.22 9.99005 103.717 8.74167 106.421 7.28521L106.005 7.07715C103.509 8.5336 101.012 9.78199 98.515 11.0304C92.065 14.1513 85.615 17.2723 80.2053 21.8497Z" fill="#8B88C5"/>
<path d="M165.096 216.182H122.442V224.088H165.096V216.182Z" fill="#ECFFFE"/>
<path d="M143.665 146.48H106.63C100.596 146.48 96.0182 141.695 96.2263 135.869L96.8505 125.466C97.0585 120.056 101.636 115.895 107.254 115.895H143.873H180.492C186.11 115.895 190.688 120.056 190.896 125.466L191.52 135.869C191.728 141.695 187.15 146.48 181.117 146.48H143.665Z" stroke="white" stroke-width="2.08065" stroke-miterlimit="10" stroke-linecap="square" stroke-linejoin="round"/>
</g>
</g>
<defs>
<filter id="filter0_d_3053_5458" x="0" y="0" width="286" height="286" filterUnits="userSpaceOnUse" color-interpolation-filters="sRGB">
<feFlood flood-opacity="0" result="BackgroundImageFix"/>
<feColorMatrix in="SourceAlpha" type="matrix" values="0 0 0 0 0 0 0 0 0 0 0 0 0 0 0 0 0 0 127 0" result="hardAlpha"/>
<feOffset dy="8"/>
<feGaussianBlur stdDeviation="7"/>
<feComposite in2="hardAlpha" operator="out"/>
<feColorMatrix type="matrix" values="0 0 0 0 0.0901961 0 0 0 0 0.0901961 0 0 0 0 0.32549 0 0 0 0.2 0"/>
<feBlend mode="normal" in2="BackgroundImageFix" result="effect1_dropShadow_3053_5458"/>
<feBlend mode="normal" in="SourceGraphic" in2="effect1_dropShadow_3053_5458" result="shape"/>
</filter>
<linearGradient id="paint0_linear_3053_5458" x1="143.739" y1="-30.1157" x2="143.739" y2="290.837" gradientUnits="userSpaceOnUse">
<stop stop-color="#8B88C5"/>
<stop offset="0.6854" stop-color="#3A3673"/>
<stop offset="1" stop-color="#1A1652"/>
</linearGradient>
<linearGradient id="paint1_linear_3053_5458" x1="143.739" y1="116.548" x2="143.739" y2="296.955" gradientUnits="userSpaceOnUse">
<stop stop-color="white" stop-opacity="0"/>
<stop offset="1" stop-color="#F8F6FC"/>
</linearGradient>
</defs>
</svg>
