<svg width="352" height="352" viewBox="0 0 352 352" fill="none" xmlns="http://www.w3.org/2000/svg">
<g filter="url(#filter0_d_3048_5450)">
<mask id="mask0_3048_5450" style="mask-type:alpha" maskUnits="userSpaceOnUse" x="14" y="6" width="324" height="324">
<circle cx="176" cy="168" r="162" fill="#D9D9D9"/>
</mask>
<g mask="url(#mask0_3048_5450)">
<path d="M176 330.249C265.746 330.249 338.499 257.496 338.499 167.751C338.499 78.0054 265.746 5.25238 176 5.25238C86.2547 5.25238 13.5016 78.0054 13.5016 167.751C13.5016 257.496 86.2547 330.249 176 330.249Z" fill="url(#paint0_linear_3048_5450)"/>
<path d="M19.4832 324.766V4.50458M21.9756 4.50458V325.015V4.50458ZM24.7171 4.50458V325.015V4.50458ZM27.4586 4.50458V325.015V4.50458ZM30.4494 4.50458V325.015V4.50458ZM33.6894 4.50458V325.015V4.50458ZM37.1786 4.50458V325.015V4.50458ZM40.9171 4.50458V325.015V4.50458ZM44.9048 4.50458V325.015V4.50458ZM49.3909 4.50458V325.015V4.50458ZM54.1263 4.50458V325.015V4.50458ZM59.3602 4.50458V325.015V4.50458ZM65.0925 4.50458V325.015V4.50458ZM71.3232 4.50458V325.015V4.50458ZM78.3017 4.50458V325.015V4.50458ZM86.0279 4.50458V325.015V4.50458ZM94.7509 4.50458V325.015V4.50458ZM104.471 4.50458V325.015V4.50458ZM115.437 4.50458V325.015V4.50458ZM128.148 4.50458V325.015V4.50458ZM142.603 4.50458V325.015V4.50458ZM159.8 4.50458V325.015V4.50458ZM179.988 4.50458V325.015V4.50458ZM204.412 4.50458V325.015V4.50458ZM234.071 4.50458V325.015V4.50458ZM271.705 4.50458V325.015V4.50458ZM25.9632 324.766L19.7325 312.803L25.9632 324.766ZM47.1479 324.766L19.4832 283.145L47.1479 324.766ZM82.7879 324.766L19.4832 253.486L82.7879 324.766ZM153.819 324.766L19.4832 223.828L153.819 324.766ZM320.056 307.071L19.4832 194.169L320.056 307.071ZM320.056 164.511H19.4832H320.056ZM320.056 22.2L19.4832 134.852L320.056 22.2ZM153.819 4.50458L19.4832 105.194L153.819 4.50458ZM82.7879 4.50458L19.4832 75.5354L82.7879 4.50458ZM47.1479 4.50458L19.4832 45.8769L47.1479 4.50458ZM25.9632 4.50458L19.7325 16.4677L25.9632 4.50458Z" stroke="url(#paint1_linear_3048_5450)" stroke-width="0.623077" stroke-miterlimit="10"/>
<path opacity="0.8" d="M-91.923 98.2154L-79.4614 101.206C-31.1106 112.422 18.9848 123.886 64.8432 106.938C92.2586 96.72 114.689 77.28 136.622 58.3385C154.815 42.6369 173.508 26.4369 194.942 15.4708C237.809 -6.46153 289.151 -6.46153 329.028 -3.72C339.246 -2.9723 349.465 -2.22461 359.434 -1.47692C394.326 1.51385 430.465 4.50462 465.606 -0.479993C467.102 -0.729224 468.846 -0.978458 470.342 -1.22769L473.332 -0.729225C470.84 -0.230764 468.348 0.267698 465.606 0.516929C430.465 5.50154 394.326 2.51078 359.185 -0.479993C349.216 -1.22769 338.997 -2.22461 328.779 -2.72307C288.902 -5.21538 237.809 -5.46461 194.942 16.4677C173.508 27.4338 155.065 43.6339 136.871 59.3354C114.939 78.2769 92.2586 97.9662 64.8432 108.185C19.234 124.883 -30.8614 113.169 -79.4614 101.954C-83.6983 100.957 -87.9353 99.96 -91.923 98.9631C-111.114 94.7262 -132.298 90.7385 -153.483 89.4923V88.4954C-132.298 89.9908 -111.114 93.9785 -91.923 98.2154Z" fill="#E8A3A3"/>
<path d="M368.157 -41.8523C314.822 -58.8 257.997 -37.3661 219.616 -16.4308C199.926 -5.71383 180.736 6.99694 162.293 18.96C138.616 34.6616 113.693 50.8616 87.5233 63.3231C61.8525 75.5354 -3.1967 100.458 -56.0336 69.0554C-86.4398 51.36 -108.621 16.4677 -122.08 -34.3754C-123.326 -39.1107 -124.572 -44.0954 -125.569 -48.8307H-126.566C-125.32 -43.8461 -124.323 -39.1108 -122.827 -34.1261C-109.369 16.9662 -86.9382 52.1077 -56.2829 70.3016C-2.94747 101.954 62.6002 76.7816 88.271 64.5693C114.44 52.1077 139.363 35.9077 163.289 19.9569C181.733 7.74464 200.674 -4.7169 220.363 -15.4338C258.246 -36.3692 314.572 -57.5538 367.659 -40.8554C386.6 -34.8738 404.046 -24.1569 420.994 -13.9384C427.973 -9.70152 435.2 -5.4646 442.428 -1.22768V-2.47383C435.449 -6.46152 428.471 -10.4492 421.492 -14.6861C404.545 -25.1538 387.099 -35.8708 368.157 -41.8523Z" fill="#8DD7CF"/>
<path d="M139.862 61.5785C142.477 61.5785 144.597 59.4584 144.597 56.8431C144.597 54.2278 142.477 52.1077 139.862 52.1077C137.246 52.1077 135.126 54.2278 135.126 56.8431C135.126 59.4584 137.246 61.5785 139.862 61.5785Z" stroke="#E8A3A3" stroke-width="4.98462"/>
<path opacity="0.3" d="M241.298 50.6123V133.855V192.923C291.892 203.142 323.794 218.095 323.794 234.545V92.2338C324.043 75.5354 292.141 60.8308 241.298 50.6123Z" fill="#FEA5A6"/>
<path opacity="0.3" d="M214.88 32.9169V116.16V175.228C265.474 185.446 297.375 200.4 297.375 216.849V74.5384C297.375 58.0892 265.474 43.1353 214.88 32.9169Z" fill="#53E392"/>
<path d="M272.452 93.2308V110.677C272.452 111.674 272.951 112.422 273.948 112.92C282.172 116.908 288.403 121.145 292.391 125.382C295.631 129.12 297.375 132.858 297.375 136.597V113.668C297.375 105.443 289.649 97.9662 275.941 90.9877C274.446 90.4892 272.452 91.4861 272.452 93.2308Z" fill="#FEA5A6"/>
<path d="M297.375 216.849C297.375 200.4 265.474 185.446 214.88 175.228" stroke="#5CDAD1" stroke-width="4.98462" stroke-miterlimit="10" stroke-linejoin="round"/>
<path d="M261.237 187.44V175.477C261.237 172.486 258.744 169.994 255.754 169.994H250.769H250.52H245.535H245.286H239.803V168L242.544 165.259C245.784 162.019 245.784 156.785 242.544 153.545C241.547 152.548 239.803 152.548 238.806 153.545L230.332 162.019C229.335 163.015 228.837 164.262 228.837 165.757V178.468V198.406C228.837 198.655 228.837 198.905 228.837 198.905L193.695 227.068L142.603 161.52L114.44 188.686L179.489 255.231C182.978 258.72 187.714 261.212 193.197 261.212C199.926 261.212 209.147 253.735 212.637 249.748L252.015 205.385C256.751 203.889 259.741 198.905 258.744 193.671L257.997 189.932C258.246 189.932 258.495 189.932 258.744 189.932C260.24 190.182 261.237 188.935 261.237 187.44Z" fill="#AD6319"/>
<path d="M177.246 193.671L144.348 159.775C136.372 151.551 123.412 150.554 114.44 158.031C104.969 165.757 103.474 179.714 110.951 189.185C111.449 189.683 111.698 190.182 112.197 190.68L112.446 190.929L145.095 224.825L177.246 193.671Z" fill="#5CDAD1"/>
<path d="M194.194 227.317L184.225 243.517" stroke="#1A1652" stroke-width="1.24615" stroke-miterlimit="10" stroke-linecap="round" stroke-linejoin="round"/>
<path d="M255.505 189.434C256.502 189.932 257.498 190.182 258.745 190.182C259.991 190.182 260.988 189.185 261.237 188.188" stroke="#1A1652" stroke-width="1.24615" stroke-miterlimit="10" stroke-linecap="round"/>
<path d="M251.018 189.683C251.766 189.932 252.763 190.182 253.511 190.182C255.006 190.182 256.003 188.935 256.003 187.689V175.726C256.003 173.483 254.508 171.24 252.265 170.492" stroke="#1A1652" stroke-width="1.24615" stroke-miterlimit="10" stroke-linecap="round" stroke-linejoin="round"/>
<path d="M240.551 184.699C240.301 183.702 240.052 182.705 240.052 181.708V170.991" stroke="#1A1652" stroke-width="1.24615" stroke-miterlimit="10" stroke-linecap="round" stroke-linejoin="round"/>
<path d="M247.28 170.492C249.274 171.24 250.769 173.234 250.769 175.726V181.209" stroke="#1A1652" stroke-width="1.24615" stroke-miterlimit="10" stroke-linecap="round" stroke-linejoin="round"/>
<path d="M245.535 197.409L253.261 186.194C254.258 184.948 253.76 182.954 252.514 182.206L252.015 181.957C248.277 179.465 243.541 180.462 241.049 183.951L237.311 189.434" stroke="#1A1652" stroke-width="1.24615" stroke-miterlimit="10" stroke-linecap="round" stroke-linejoin="round"/>
<path d="M38.4247 191.178V296.603L46.8985 293.612C74.8124 283.643 105.468 283.643 133.631 293.363C138.117 294.858 142.603 291.618 142.603 286.883V170.492C142.603 161.271 135.375 153.545 126.154 152.797L90.5139 150.055L64.5939 157.034C49.1416 161.271 38.4247 175.228 38.4247 191.178Z" fill="#58C4B9" stroke="#5CDAD1" stroke-width="2.49231" stroke-miterlimit="10"/>
<path d="M108.957 119.4H77.3043V155.788L96.2458 169.745C101.48 173.732 108.957 169.994 108.957 163.265V155.538V119.4Z" fill="#AD6319"/>
<path d="M116.683 96.72L107.711 87.7477V81.2677H91.7597C85.7782 81.2677 80.7936 86.2523 80.7936 92.2339V105.443H88.0213L106.714 124.135L116.434 114.415C121.667 109.431 121.667 101.455 116.683 96.72Z" fill="#FEA5A6"/>
<path d="M116.185 104.197C113.443 95.9724 105.717 90.2401 96.7445 90.2401C85.2799 90.2401 76.3076 99.4616 76.3076 110.677V127.126C76.3076 139.837 86.5261 150.055 99.2368 150.055H105.966C116.185 150.055 123.661 140.834 121.917 130.865L117.181 106.939C116.683 105.942 116.434 105.194 116.185 104.197Z" fill="#AD6319"/>
<path d="M73.5659 127.625C70.3259 126.378 68.5813 122.64 69.8275 119.4C71.0736 116.16 74.8121 114.415 78.0521 115.662C81.2921 116.908 83.0367 120.646 81.7905 123.886C80.7936 127.375 77.0552 128.871 73.5659 127.625Z" fill="#AD6319"/>
<path d="M113.194 75.7846L108.957 71.5477L91.2615 89.4923H84.283C83.2861 88.2461 81.5415 87.4984 79.7969 87.4984C76.5569 87.4984 73.8153 90.24 73.8153 93.48V115.412H79.5476C83.0368 115.412 86.0276 112.422 86.0276 108.932V105.194C91.2615 104.695 95.2492 100.957 96.7445 96.2215L101.978 101.455C105.218 104.695 110.203 104.695 113.194 101.455C120.421 94.4769 120.421 83.0123 113.194 75.7846Z" fill="#FEA5A6"/>
<path d="M91.2612 128.123L109.455 127.375C114.689 127.126 118.926 122.64 118.677 117.406C118.427 112.172 113.941 107.935 108.707 108.185L90.5135 108.932C85.2796 109.182 81.0427 113.668 81.292 118.902C81.5412 124.135 86.0273 128.372 91.2612 128.123Z" fill="#503B8B"/>
<path d="M95.9966 127.874L114.19 127.126C119.424 126.877 123.661 122.391 123.412 117.157C123.163 111.923 118.677 107.686 113.443 107.935L95.2489 108.683C90.0151 108.932 85.7782 113.419 86.0274 118.652C86.2766 123.886 90.7628 128.123 95.9966 127.874Z" fill="#39346E"/>
<path d="M122.913 116.908C122.664 111.923 118.427 108.185 113.692 108.434L95.498 109.182C90.5134 109.431 86.775 113.668 87.0242 118.403C87.2734 123.388 91.5103 127.126 96.2457 126.877L114.44 126.129C119.175 126.129 123.163 121.892 122.913 116.908Z" fill="#8B88C5"/>
<path d="M120.172 117.157C119.923 113.419 116.932 110.677 113.193 110.677L97.4919 111.425C93.7534 111.674 91.0119 114.665 91.0119 118.403C91.2611 122.142 94.2519 124.883 97.9904 124.883L113.692 124.135C117.43 123.886 120.421 120.895 120.172 117.157Z" fill="#503B8B"/>
<path d="M79.3907 133.367C84.1183 132.44 86.8993 126.324 85.6023 119.705C84.3053 113.087 79.4214 108.472 74.6939 109.399C69.9663 110.325 67.1854 116.442 68.4824 123.06C69.7794 129.679 74.6632 134.293 79.3907 133.367Z" fill="#503B8B"/>
<path d="M69.8276 122.889C70.5753 126.877 73.5661 129.619 76.3076 129.12C79.0491 128.622 80.7937 124.883 80.0461 120.895C79.2984 116.908 76.3076 114.166 73.5661 114.665C70.8245 115.163 69.0799 118.902 69.8276 122.889Z" fill="#8B88C5"/>
<path d="M116.185 113.668C116.185 114.415 116.932 114.914 117.68 114.914C118.428 114.914 118.926 114.166 118.926 113.419C118.926 112.671 118.178 112.172 117.431 112.172C116.683 112.172 116.185 112.92 116.185 113.668Z" fill="#5CDAD1"/>
<path d="M116.434 117.655C116.434 118.403 117.181 118.902 117.929 118.902C118.677 118.902 119.175 118.154 119.175 117.406C119.175 116.659 118.428 116.16 117.68 116.16C116.932 116.16 116.434 116.908 116.434 117.655Z" fill="#FEA5A6"/>
<path d="M131.637 286.135C131.637 286.135 134.628 285.886 137.868 285.388C142.105 284.889 147.339 283.643 147.339 282.148C147.339 278.409 125.655 280.154 125.655 280.154C125.655 280.154 127.899 279.157 129.643 277.662C130.889 276.665 131.886 275.169 131.388 273.674C130.142 269.437 116.932 275.668 110.702 278.908C110.702 278.908 75.8093 263.954 61.3539 253.486C60.6062 249.249 65.84 220.089 71.3231 200.151C76.557 180.212 70.077 169.994 61.8524 167.252C54.8739 165.009 42.6616 165.259 34.437 179.465C23.72 212.114 19.2339 264.702 25.9631 275.668C32.6923 286.883 102.228 298.846 107.711 299.345C115.686 302.834 136.871 310.311 140.36 308.068C144.846 305.326 129.145 299.594 129.145 299.594C129.145 299.594 133.382 300.84 138.117 301.837C142.603 302.834 147.588 303.332 148.585 301.837C150.579 298.846 131.637 292.865 131.637 292.865C131.637 292.865 135.874 293.363 140.609 293.862C146.342 294.36 152.822 294.36 153.569 292.615C154.566 289.375 131.637 286.135 131.637 286.135Z" fill="#AD6319"/>
<path d="M25.963 198.157C25.963 198.157 22.2246 221.086 20.2307 241.523C20.2307 241.523 43.9077 246.258 69.8277 244.514C69.8277 244.514 69.5784 222.582 72.5692 201.148C75.56 179.714 73.5661 163.015 60.1077 159.526C42.9107 155.538 30.4492 171.24 25.963 198.157Z" fill="#5CDAD1"/>
<path opacity="0.3" d="M214.88 116.16C193.695 120.397 169.271 123.886 142.354 126.378V268.689C233.323 260.465 297.375 240.277 297.375 216.849V74.5385C297.375 90.9877 265.474 105.942 214.88 116.16Z" fill="#BDF1ED" stroke="#BDF1ED" stroke-width="2.49231" stroke-miterlimit="10"/>
<path d="M141.5 269C232.469 260.775 297.375 240.277 297.375 216.849" stroke="#5CDAD1" stroke-width="4.98462" stroke-miterlimit="10" stroke-linejoin="round"/>
<path d="M142.354 126.378C233.323 118.154 297.375 97.9661 297.375 74.5384C297.375 58.0892 265.474 43.1353 214.88 32.9169" stroke="#5CDAD1" stroke-width="4.98462" stroke-miterlimit="10" stroke-linecap="round" stroke-linejoin="round"/>
<path d="M292.391 152.548C287.655 147.314 279.431 142.329 268.714 137.843" stroke="#5CDAD1" stroke-width="2.49231" stroke-miterlimit="10" stroke-linecap="round" stroke-linejoin="round"/>
<path d="M292.391 160.772C287.655 155.538 279.431 150.554 268.714 146.068" stroke="#5CDAD1" stroke-width="2.49231" stroke-miterlimit="10" stroke-linecap="round" stroke-linejoin="round"/>
<path d="M292.391 168.748C287.655 163.514 279.431 158.529 268.714 154.043" stroke="#5CDAD1" stroke-width="2.49231" stroke-miterlimit="10" stroke-linecap="round" stroke-linejoin="round"/>
<path d="M292.391 176.972C287.655 171.738 279.431 166.754 268.714 162.268" stroke="#5CDAD1" stroke-width="2.49231" stroke-miterlimit="10" stroke-linecap="round" stroke-linejoin="round"/>
<path d="M283.169 177.471C279.181 174.978 274.197 172.486 268.714 169.994" stroke="#5CDAD1" stroke-width="2.49231" stroke-miterlimit="10" stroke-linecap="round" stroke-linejoin="round"/>
<path d="M260.24 69.5538C250.271 65.8154 238.308 62.5754 225.098 59.5846" stroke="#5CDAD1" stroke-width="4.98462" stroke-miterlimit="10" stroke-linecap="round" stroke-linejoin="round"/>
<path d="M260.24 84.5077C250.271 80.7692 238.308 77.5292 225.098 74.5385" stroke="#5CDAD1" stroke-width="2.49231" stroke-miterlimit="10" stroke-linecap="round" stroke-linejoin="round"/>
<path d="M260.24 91.4861C250.271 87.7477 238.308 84.5077 225.098 81.5169" stroke="#5CDAD1" stroke-width="2.49231" stroke-miterlimit="10" stroke-linecap="round" stroke-linejoin="round"/>
<path d="M260.24 98.4646C250.271 94.7261 238.308 91.4861 225.098 88.4954" stroke="#5CDAD1" stroke-width="2.49231" stroke-miterlimit="10" stroke-linecap="round" stroke-linejoin="round"/>
<path d="M260.24 105.443C250.271 101.705 238.308 98.4646 225.098 95.4738" stroke="#5CDAD1" stroke-width="2.49231" stroke-miterlimit="10" stroke-linecap="round" stroke-linejoin="round"/>
<path d="M260.24 112.422C250.271 108.683 238.308 105.443 225.098 102.452" stroke="#5CDAD1" stroke-width="2.49231" stroke-miterlimit="10" stroke-linecap="round" stroke-linejoin="round"/>
<path d="M215.379 194.418C232.575 190.929 247.779 186.942 259.991 182.455" stroke="#5CDAD1" stroke-width="2.49231" stroke-miterlimit="10" stroke-linecap="round" stroke-linejoin="round"/>
<path d="M215.379 202.145C232.575 198.655 247.779 194.668 259.991 190.182" stroke="#5CDAD1" stroke-width="2.49231" stroke-miterlimit="10" stroke-linecap="round" stroke-linejoin="round"/>
<path d="M215.379 209.871C232.575 206.382 247.779 202.394 259.991 197.908" stroke="#5CDAD1" stroke-width="2.49231" stroke-miterlimit="10" stroke-linecap="round" stroke-linejoin="round"/>
<path d="M215.379 217.597C232.575 214.108 247.779 210.12 259.991 205.634" stroke="#5CDAD1" stroke-width="2.49231" stroke-miterlimit="10" stroke-linecap="round" stroke-linejoin="round"/>
<path d="M215.379 225.074C226.594 222.831 237.062 220.338 246.283 217.597" stroke="#5CDAD1" stroke-width="2.49231" stroke-miterlimit="10" stroke-linecap="round" stroke-linejoin="round"/>
<path d="M247.28 155.788C247.28 160.274 244.539 164.012 241.299 164.012C238.059 164.012 235.317 160.274 235.317 155.788C235.317 151.302 238.059 147.563 241.299 147.563C244.539 147.563 247.28 151.302 247.28 155.788Z" fill="#FEA5A6"/>
<path d="M241.299 172.486C248.043 172.486 253.511 165.01 253.511 155.788C253.511 146.565 248.043 139.089 241.299 139.089C234.554 139.089 229.086 146.565 229.086 155.788C229.086 165.01 234.554 172.486 241.299 172.486Z" stroke="#FEA5A6" stroke-width="2.49231" stroke-miterlimit="10" stroke-linecap="round" stroke-linejoin="round"/>
<path d="M241.298 176.972C232.825 176.972 225.846 167.501 225.846 155.788" stroke="#FEA5A6" stroke-width="2.49231" stroke-miterlimit="10" stroke-linecap="round" stroke-linejoin="round"/>
<path d="M241.298 134.603C249.772 134.603 256.751 144.074 256.751 155.788" stroke="#FEA5A6" stroke-width="2.49231" stroke-miterlimit="10" stroke-linecap="round" stroke-linejoin="round"/>
<path d="M155.065 203.391L182.231 238.532L209.646 203.391" stroke="#5CDAD1" stroke-width="2.49231" stroke-miterlimit="10" stroke-linecap="round" stroke-linejoin="round"/>
<path d="M182.231 238.532V192.175" stroke="#5CDAD1" stroke-width="2.49231" stroke-miterlimit="10" stroke-linecap="round" stroke-linejoin="round"/>
<path d="M182.231 214.606L209.646 203.391L182.231 192.175L155.065 203.391L182.231 214.606Z" stroke="#5CDAD1" stroke-width="2.49231" stroke-miterlimit="10" stroke-linecap="round" stroke-linejoin="round"/>
<path d="M155.065 194.917L182.231 159.526L209.646 194.917" stroke="#5CDAD1" stroke-width="2.49231" stroke-miterlimit="10" stroke-linecap="round" stroke-linejoin="round"/>
<path d="M182.231 159.526V206.132" stroke="#5CDAD1" stroke-width="2.49231" stroke-miterlimit="10" stroke-linecap="round" stroke-linejoin="round"/>
<path d="M182.231 183.702L209.646 194.917L182.231 206.132L155.065 194.917L182.231 183.702Z" stroke="#5CDAD1" stroke-width="2.49231" stroke-miterlimit="10" stroke-linecap="round" stroke-linejoin="round"/>
<path d="M292.391 126.877V144.572C292.391 145.818 293.886 146.317 294.634 145.32C296.378 142.578 297.375 139.837 297.375 136.846V113.917C297.375 117.406 296.129 120.646 293.388 123.886C292.64 124.883 292.391 125.88 292.391 126.877Z" fill="#FEA5A6"/>
<path opacity="0.3" d="M241.298 131.363C220.114 135.6 195.689 139.089 168.772 141.581V283.892C259.741 275.668 323.794 255.48 323.794 232.052V89.7415C324.043 106.191 292.141 121.145 241.298 131.363Z" fill="#FEA5A6"/>
<g opacity="0.45">
<path d="M47.1477 111.175C46.6493 111.175 46.4 110.926 46.4 110.428C46.4 109.929 46.6493 109.68 47.1477 109.68C47.6462 109.68 47.8954 109.929 47.8954 110.428C47.8954 110.677 47.6462 111.175 47.1477 111.175Z" stroke="#FEA5A6" stroke-width="2.49231" stroke-miterlimit="10"/>
<path d="M142.852 84.2585C142.354 84.2585 142.105 84.0093 142.105 83.5108C142.105 83.0123 142.354 82.7631 142.852 82.5139C143.351 82.2646 143.6 82.7631 143.6 83.2616C143.6 83.76 143.351 84.2585 142.852 84.2585Z" stroke="#FEA5A6" stroke-width="2.49231" stroke-miterlimit="10"/>
<path d="M116.683 30.4247C116.434 30.4247 115.935 30.1755 115.935 29.9262C115.935 29.677 116.185 29.1785 116.434 29.1785C116.683 29.1785 117.182 29.4278 117.182 29.677C117.182 30.1755 116.932 30.4247 116.683 30.4247Z" stroke="#FEA5A6" stroke-width="2.49231" stroke-miterlimit="10"/>
<path d="M306.846 137.345C306.597 137.345 306.348 137.095 306.348 136.846C306.348 136.597 306.597 136.348 306.846 136.348C307.096 136.348 307.345 136.597 307.345 136.846C307.345 137.095 307.096 137.345 306.846 137.345Z" stroke="#FEA5A6" stroke-width="2.49231" stroke-miterlimit="10"/>
<path d="M294.883 190.431C294.385 190.431 294.135 190.182 294.135 189.683C294.135 189.185 294.385 188.935 294.883 188.935C295.382 188.935 295.631 189.185 295.631 189.683C295.631 190.182 295.382 190.431 294.883 190.431Z" stroke="#FEA5A6" stroke-width="2.49231" stroke-miterlimit="10"/>
<path d="M266.222 189.683C265.972 189.683 265.723 189.434 265.723 189.185C265.723 188.935 265.972 188.686 266.222 188.686C266.471 188.686 266.72 188.935 266.72 189.185C266.72 189.434 266.471 189.683 266.222 189.683Z" stroke="#FEA5A6" stroke-width="2.49231" stroke-miterlimit="10"/>
<path d="M189.994 42.8845C190.544 42.8605 190.971 42.3951 190.947 41.845C190.923 41.295 190.457 40.8686 189.907 40.8927C189.357 40.9168 188.931 41.3822 188.955 41.9322C188.979 42.4822 189.444 42.9086 189.994 42.8845Z" stroke="#FEA5A6" stroke-width="2.49231" stroke-miterlimit="10"/>
<path d="M270.957 221.585C270.708 221.585 270.708 221.335 270.708 221.335C270.708 221.086 270.708 221.086 270.957 221.086C271.206 221.086 271.206 221.335 271.206 221.335C271.206 221.335 271.206 221.335 270.957 221.585Z" stroke="#FEA5A6" stroke-width="2.49231" stroke-miterlimit="10"/>
<path d="M282.664 239.521C282.802 239.515 282.908 239.399 282.902 239.261C282.896 239.124 282.78 239.017 282.642 239.023C282.505 239.029 282.398 239.146 282.404 239.283C282.41 239.421 282.527 239.527 282.664 239.521Z" stroke="#FEA5A6" stroke-width="2.49231" stroke-miterlimit="10"/>
<path d="M234.071 243.517C233.572 243.517 233.323 243.268 233.323 242.769C233.323 242.271 233.572 242.022 234.071 242.022C234.569 242.022 234.819 242.271 234.819 242.769C234.819 243.268 234.32 243.517 234.071 243.517Z" stroke="#FEA5A6" stroke-width="2.49231" stroke-miterlimit="10"/>
<path d="M148.336 234.046C148.086 234.046 147.837 233.797 147.837 233.548C147.837 233.298 148.086 233.049 148.336 233.049C148.585 233.049 148.834 233.298 148.834 233.548C148.834 233.797 148.585 234.046 148.336 234.046Z" stroke="#FEA5A6" stroke-width="2.49231" stroke-miterlimit="10"/>
<path d="M139.862 37.1538C139.363 37.1538 138.865 36.6554 138.865 36.1569C138.865 35.6584 139.363 35.16 139.862 35.16C140.36 35.16 140.859 35.6584 140.859 36.1569C140.859 36.6554 140.36 37.1538 139.862 37.1538Z" stroke="#FEA5A6" stroke-width="2.49231" stroke-miterlimit="10"/>
<path d="M246.034 63.5723C245.785 63.5723 245.286 63.3231 245.286 63.0739C245.286 62.8246 245.536 62.3262 245.785 62.3262C246.034 62.3262 246.532 62.5754 246.532 62.8246C246.532 63.0739 246.283 63.3231 246.034 63.5723Z" stroke="#FEA5A6" stroke-width="2.49231" stroke-miterlimit="10"/>
<path d="M252.037 100.204C252.449 100.186 252.769 99.8367 252.751 99.4242C252.733 99.0117 252.384 98.6919 251.971 98.71C251.559 98.728 251.239 99.0771 251.257 99.4896C251.275 99.9022 251.624 100.222 252.037 100.204Z" stroke="#FEA5A6" stroke-width="2.49231" stroke-miterlimit="10"/>
<path d="M241.56 149.8C241.835 149.788 242.048 149.556 242.036 149.281C242.024 149.006 241.791 148.792 241.516 148.804C241.241 148.817 241.028 149.049 241.04 149.324C241.052 149.599 241.285 149.812 241.56 149.8Z" stroke="#FEA5A6" stroke-width="2.49231" stroke-miterlimit="10"/>
<path d="M230.582 167.252C230.083 167.252 229.834 167.003 229.834 166.505C229.834 166.006 230.083 165.757 230.582 165.508C231.08 165.508 231.33 165.757 231.33 166.255C231.33 166.754 231.08 167.003 230.582 167.252Z" stroke="#FEA5A6" stroke-width="2.49231" stroke-miterlimit="10"/>
<path d="M253.026 214.101C253.301 214.089 253.515 213.856 253.503 213.581C253.491 213.306 253.258 213.093 252.983 213.105C252.708 213.117 252.495 213.35 252.507 213.625C252.519 213.9 252.751 214.113 253.026 214.101Z" stroke="#FEA5A6" stroke-width="2.49231" stroke-miterlimit="10"/>
<path d="M258.246 265.449C257.997 265.449 257.748 265.2 257.748 264.951C257.748 264.702 257.997 264.452 258.246 264.452C258.496 264.452 258.745 264.702 258.745 264.951C258.745 265.2 258.496 265.449 258.246 265.449Z" stroke="#FEA5A6" stroke-width="2.49231" stroke-miterlimit="10"/>
<path d="M237.571 273.41C237.846 273.398 238.059 273.165 238.047 272.89C238.035 272.615 237.803 272.402 237.528 272.414C237.253 272.426 237.039 272.659 237.051 272.934C237.063 273.209 237.296 273.422 237.571 273.41Z" stroke="#FEA5A6" stroke-width="2.49231" stroke-miterlimit="10"/>
<path d="M215.628 263.954C215.129 263.954 214.631 263.455 214.631 262.957C214.631 262.459 215.129 261.96 215.628 261.96C216.126 261.96 216.625 262.459 216.625 262.957C216.625 263.455 216.126 263.954 215.628 263.954Z" stroke="#FEA5A6" stroke-width="2.49231" stroke-miterlimit="10"/>
<path d="M214.644 16.4644C214.919 16.4524 215.132 16.2197 215.12 15.9447C215.108 15.6697 214.875 15.4565 214.6 15.4685C214.325 15.4805 214.112 15.7132 214.124 15.9883C214.136 16.2633 214.369 16.4765 214.644 16.4644Z" stroke="#FEA5A6" stroke-width="2.49231" stroke-miterlimit="10"/>
<path d="M189.459 85.5046C189.209 85.5046 188.96 85.2554 188.96 85.0062C188.96 84.7569 189.209 84.5077 189.459 84.5077C189.708 84.5077 189.957 84.7569 189.957 85.0062C189.957 85.2554 189.708 85.5046 189.459 85.5046Z" stroke="#FEA5A6" stroke-width="2.49231" stroke-miterlimit="10"/>
<path d="M214.631 132.111C214.133 132.111 213.634 131.612 213.634 131.114C213.634 130.615 214.133 130.117 214.631 130.117C215.13 130.117 215.628 130.615 215.628 131.114C215.628 131.612 215.13 132.111 214.631 132.111Z" stroke="#FEA5A6" stroke-width="2.49231" stroke-miterlimit="10"/>
<path d="M229.345 86.9961C229.62 86.9841 229.833 86.7513 229.821 86.4763C229.809 86.2013 229.577 85.9881 229.302 86.0002C229.027 86.0122 228.813 86.2449 228.825 86.5199C228.837 86.7949 229.07 87.0081 229.345 86.9961Z" stroke="#FEA5A6" stroke-width="2.49231" stroke-miterlimit="10"/>
<path d="M215.628 62.077C215.129 62.077 214.631 61.5785 214.631 61.0801C214.631 60.5816 215.129 60.0831 215.628 60.0831C216.126 60.0831 216.625 60.5816 216.625 61.0801C216.625 61.5785 216.126 62.077 215.628 62.077Z" stroke="#FEA5A6" stroke-width="2.49231" stroke-miterlimit="10"/>
<path d="M185.72 149.806C185.471 149.806 184.973 149.557 184.973 149.308C184.973 149.059 185.222 148.56 185.471 148.56C185.72 148.56 186.219 148.809 186.219 149.059C186.219 149.308 186.219 149.806 185.72 149.806Z" stroke="#FEA5A6" stroke-width="2.49231" stroke-miterlimit="10"/>
<path d="M160.049 153.295C159.8 153.295 159.551 153.046 159.551 152.797C159.551 152.548 159.8 152.298 160.049 152.298C160.299 152.298 160.548 152.548 160.548 152.797C160.548 153.046 160.299 153.295 160.049 153.295Z" stroke="#FEA5A6" stroke-width="2.49231" stroke-miterlimit="10"/>
<path d="M221.859 182.206C221.36 182.206 221.111 181.957 221.111 181.458C221.111 180.96 221.36 180.711 221.859 180.711C222.357 180.711 222.606 180.96 222.606 181.458C222.606 181.708 222.108 182.206 221.859 182.206Z" stroke="#FEA5A6" stroke-width="2.49231" stroke-miterlimit="10"/>
<path d="M226.594 290.372C226.345 290.372 226.096 290.123 226.096 289.874C226.096 289.625 226.345 289.375 226.594 289.375C226.843 289.375 227.093 289.625 227.093 289.874C227.093 290.123 226.843 290.372 226.594 290.372Z" stroke="#FEA5A6" stroke-width="2.49231" stroke-miterlimit="10"/>
<path d="M115.188 63.5724C114.689 63.5724 114.44 63.3231 114.44 62.8247C114.44 62.3262 114.689 62.077 115.188 62.077C115.686 62.077 115.936 62.3262 115.936 62.8247C115.936 63.3231 115.686 63.5724 115.188 63.5724Z" stroke="#FEA5A6" stroke-width="2.49231" stroke-miterlimit="10"/>
<path d="M175.751 67.3108C175.502 67.3108 175.253 67.0616 175.253 66.8124C175.253 66.5631 175.502 66.3139 175.751 66.3139C176 66.3139 176.249 66.5631 176.249 66.8124C176.249 67.0616 176 67.3108 175.751 67.3108Z" stroke="#FEA5A6" stroke-width="2.49231" stroke-miterlimit="10"/>
<path d="M187.216 115.662C186.966 115.662 186.717 115.412 186.717 115.163C186.717 114.914 186.966 114.665 187.216 114.415C187.465 114.415 187.714 114.665 187.714 114.914C187.714 115.412 187.465 115.662 187.216 115.662Z" stroke="#FEA5A6" stroke-width="2.49231" stroke-miterlimit="10"/>
<path d="M202.917 287.382C202.418 287.382 202.169 287.132 202.169 286.634C202.169 286.135 202.418 285.886 202.917 285.886C203.415 285.886 203.665 286.135 203.665 286.634C203.665 287.132 203.415 287.382 202.917 287.382Z" stroke="#FEA5A6" stroke-width="2.49231" stroke-miterlimit="10"/>
<path d="M185.748 293.495C185.249 293.495 185 293.246 185 292.748C185 292.249 185.249 292 185.748 292C186.246 292 186.495 292.249 186.495 292.748C186.495 293.246 186.246 293.495 185.748 293.495Z" stroke="#FEA5A6" stroke-width="2.49231" stroke-miterlimit="10"/>
<path d="M83.7849 86.0032C83.2864 86.0032 82.788 85.7539 82.788 85.2555C82.788 84.757 83.0372 84.2585 83.5357 84.2585C84.0341 84.2585 84.5326 84.5078 84.5326 85.0062C84.5326 85.5047 84.2834 86.0032 83.7849 86.0032Z" stroke="#FEA5A6" stroke-width="2.49231" stroke-miterlimit="10"/>
<path d="M149.107 104.688C149.52 104.67 149.84 104.321 149.822 103.908C149.804 103.496 149.454 103.176 149.042 103.194C148.629 103.212 148.31 103.561 148.328 103.974C148.346 104.386 148.695 104.706 149.107 104.688Z" stroke="#FEA5A6" stroke-width="2.49231" stroke-miterlimit="10"/>
<path d="M68.1119 142.568C68.5244 142.55 68.8442 142.201 68.8262 141.789C68.8081 141.376 68.459 141.056 68.0465 141.074C67.634 141.092 67.3142 141.441 67.3323 141.854C67.3503 142.267 67.6994 142.586 68.1119 142.568Z" stroke="#FEA5A6" stroke-width="2.49231" stroke-miterlimit="10"/>
<path d="M163.289 43.8831C162.791 43.8831 162.292 43.3847 162.292 42.8862C162.292 42.3877 162.791 41.8893 163.289 41.8893C163.788 41.8893 164.286 42.3877 164.286 42.8862C164.286 43.3847 164.037 43.8831 163.289 43.8831Z" stroke="#FEA5A6" stroke-width="2.49231" stroke-miterlimit="10"/>
<path d="M167.526 93.48C167.277 93.48 167.028 93.2308 167.028 92.9816C167.028 92.7323 167.277 92.4831 167.526 92.4831C167.775 92.4831 168.025 92.7323 168.025 92.9816C168.025 93.2308 167.775 93.48 167.526 93.48Z" stroke="#FEA5A6" stroke-width="2.49231" stroke-miterlimit="10"/>
<path d="M46.4002 141.083C46.1509 141.083 45.9017 140.834 45.9017 140.585C45.9017 140.335 46.1509 140.086 46.4002 140.086C46.6494 140.086 46.8986 140.335 46.8986 140.585C46.8986 140.834 46.6494 141.083 46.4002 141.083Z" stroke="#FEA5A6" stroke-width="2.49231" stroke-miterlimit="10"/>
<path d="M183.513 269.174C184.063 269.15 184.49 268.685 184.466 268.135C184.441 267.585 183.976 267.158 183.426 267.183C182.876 267.207 182.45 267.672 182.474 268.222C182.498 268.772 182.963 269.198 183.513 269.174Z" stroke="#FEA5A6" stroke-width="2.49231" stroke-miterlimit="10"/>
<path d="M159.551 261.96C159.052 261.96 158.554 261.462 158.554 260.963C158.554 260.465 159.052 259.966 159.551 259.966C160.049 259.966 160.548 260.465 160.548 260.963C160.299 261.462 160.049 261.96 159.551 261.96Z" stroke="#FEA5A6" stroke-width="2.49231" stroke-miterlimit="10"/>
<path d="M168.772 300.591C168.274 300.591 168.025 300.341 168.025 299.843C168.025 299.345 168.274 299.095 168.772 299.095C169.271 299.095 169.52 299.345 169.52 299.843C169.52 300.092 169.271 300.591 168.772 300.591Z" stroke="#FEA5A6" stroke-width="2.49231" stroke-miterlimit="10"/>
</g>
<g opacity="0.5">
<path d="M112.696 197.658C112.696 196.412 113.443 195.166 114.689 195.166C115.936 195.166 116.933 196.163 116.933 197.409C116.933 198.655 116.185 199.901 114.939 199.901C113.693 199.901 112.696 198.905 112.696 197.658Z" fill="#ECFFFE"/>
<path d="M126.154 202.643C126.154 203.391 126.154 204.138 125.905 204.886C125.406 207.378 124.16 209.622 122.166 211.117C119.176 212.862 115.686 212.612 112.446 211.366C109.954 213.36 109.954 213.36 109.954 213.36C109.456 213.858 108.708 213.111 108.957 212.612C108.209 212.862 107.96 212.114 108.209 211.615C107.711 212.114 107.212 211.366 107.462 210.868C107.711 210.618 107.96 210.12 108.209 209.871C104.471 207.877 101.231 205.634 97.9909 203.142C99.9847 204.138 107.462 207.877 109.206 208.625C111.2 209.372 112.945 210.12 114.939 210.618C116.683 210.868 118.677 211.117 120.172 209.871C121.419 208.874 121.917 207.129 121.917 205.385C122.166 201.895 120.92 198.157 118.926 195.166C116.932 192.175 113.942 189.683 110.452 188.935C109.206 188.686 107.96 188.686 106.963 188.935C104.471 189.683 101.979 191.428 100.234 193.671C97.7417 196.911 96.2463 200.898 94.7509 204.886C93.754 207.628 92.5078 213.858 88.7694 211.615C87.0247 210.618 85.7786 208.625 85.0309 206.88C84.034 204.886 83.2863 202.145 83.7847 199.902C84.5324 195.166 91.0124 198.905 93.2555 200.4C93.2555 200.4 88.0217 198.157 86.5263 200.151C85.7786 201.148 85.7786 202.643 86.0278 203.64C86.2771 205.634 87.5232 208.625 89.2678 209.622C91.7601 210.868 92.5078 206.382 93.0063 204.886C93.754 202.145 94.7509 199.403 95.7478 196.911C96.7447 193.92 98.2401 191.178 100.234 188.686C99.7355 188.188 98.9878 187.44 98.9878 186.692C98.7386 185.945 99.4863 184.948 100.483 185.197C99.4863 184.2 100.732 182.455 101.979 182.954C101.231 181.957 102.228 180.711 103.225 180.711C103.723 180.711 104.222 181.209 104.72 181.458C105.717 182.206 106.963 182.954 107.96 183.452C117.929 180.96 126.652 192.674 126.154 202.643Z" fill="#ECFFFE"/>
</g>
</g>
</g>
<defs>
<filter id="filter0_d_3048_5450" x="0" y="0" width="352" height="352" filterUnits="userSpaceOnUse" color-interpolation-filters="sRGB">
<feFlood flood-opacity="0" result="BackgroundImageFix"/>
<feColorMatrix in="SourceAlpha" type="matrix" values="0 0 0 0 0 0 0 0 0 0 0 0 0 0 0 0 0 0 127 0" result="hardAlpha"/>
<feOffset dy="8"/>
<feGaussianBlur stdDeviation="7"/>
<feComposite in2="hardAlpha" operator="out"/>
<feColorMatrix type="matrix" values="0 0 0 0 0.0901961 0 0 0 0 0.0901961 0 0 0 0 0.32549 0 0 0 0.2 0"/>
<feBlend mode="normal" in2="BackgroundImageFix" result="effect1_dropShadow_3048_5450"/>
<feBlend mode="normal" in="SourceGraphic" in2="effect1_dropShadow_3048_5450" result="shape"/>
</filter>
<linearGradient id="paint0_linear_3048_5450" x1="347.384" y1="167.752" x2="22.2427" y2="167.622" gradientUnits="userSpaceOnUse">
<stop stop-color="#503B8B"/>
<stop offset="0.4003" stop-color="#312365"/>
<stop offset="1" stop-color="#060230"/>
</linearGradient>
<linearGradient id="paint1_linear_3048_5450" x1="19.2692" y1="164.621" x2="320.118" y2="164.621" gradientUnits="userSpaceOnUse">
<stop stop-color="#FEA5A6"/>
<stop offset="0.0437016" stop-color="#FEA5A6" stop-opacity="0.9563"/>
<stop offset="1" stop-color="#FEA5A6" stop-opacity="0"/>
</linearGradient>
</defs>
</svg>
