<svg width="375" height="349" viewBox="0 0 375 349" fill="none" xmlns="http://www.w3.org/2000/svg">
<ellipse cx="239.61" cy="173.386" rx="216.432" ry="160.363" transform="rotate(-3.25681 239.61 173.386)" fill="url(#paint0_linear_3389_5111)"/>
<g opacity="0.6">
<g opacity="0.6">
<path opacity="0.6" d="M78.7733 235.611L50.3884 252.089L21.8105 235.611L50.2068 219.133L78.7733 235.611Z" fill="#5ED9D1"/>
</g>
</g>
<g opacity="0.6">
<g opacity="0.6">
<path opacity="0.6" d="M239.609 304.714L211.213 321.192L182.646 304.714L211.031 288.235L239.609 304.714Z" fill="#5ED9D1"/>
</g>
</g>
<g opacity="0.6">
<g opacity="0.6">
<path opacity="0.6" d="M140.599 284.943L112.203 301.421L83.6367 284.943L112.022 268.464L140.599 284.943Z" fill="#5ED9D1"/>
</g>
</g>
<g opacity="0.6">
<g opacity="0.6">
<path opacity="0.6" d="M140.599 234.357L112.203 250.836L83.6367 234.357L112.022 217.879L140.599 234.357Z" fill="#5ED9D1"/>
</g>
</g>
<g opacity="0.6">
<g opacity="0.6">
<path opacity="0.6" d="M260.565 253.396L209.6 282.983L158.289 253.396L209.254 223.809L260.565 253.396Z" fill="#5ED9D1"/>
</g>
</g>
<g opacity="0.3">
<g opacity="0.3">
<path opacity="0.3" d="M31.7396 304.718L14.9585 314.448L-1.9248 304.718L14.845 294.976L31.7396 304.718Z" fill="#5ED9D1"/>
</g>
</g>
<g opacity="0.3">
<g opacity="0.3">
<path opacity="0.3" d="M258.133 331.517L241.363 341.258L224.469 331.517L241.25 321.786L258.133 331.517Z" fill="#5ED9D1"/>
</g>
</g>
<g opacity="0.3">
<g opacity="0.3">
<path opacity="0.3" d="M81.6049 178.789L64.8237 188.519L47.9404 178.789L64.7216 169.047L81.6049 178.789Z" fill="#5ED9D1"/>
</g>
</g>
<g opacity="0.3">
<g opacity="0.3">
<path opacity="0.3" d="M241.301 152.353L224.531 162.084L207.637 152.353L224.418 142.611L241.301 152.353Z" fill="#5ED9D1"/>
</g>
</g>
<g opacity="0.9">
<g opacity="0.6">
<path opacity="0.3" d="M199.478 282.977L182.697 292.719L165.813 282.977L182.583 273.247L199.478 282.977Z" fill="#5ED9D1"/>
</g>
</g>
<g opacity="0.3">
<g opacity="0.3">
<path opacity="0.3" d="M294.266 200.582L277.485 210.324L260.602 200.582L277.371 190.84L294.266 200.582Z" fill="#5ED9D1"/>
</g>
</g>
<g opacity="0.3">
<g opacity="0.3">
<path opacity="0.3" d="M86.308 315.868L69.5269 325.598L52.6436 315.868L69.4247 306.126L86.308 315.868Z" fill="#5ED9D1"/>
</g>
</g>
<g opacity="0.3">
<path opacity="0.3" d="M233.211 280.195L268.578 259.804L303.708 280.195L268.34 300.586L233.211 280.195Z" fill="#5ED9D1"/>
<g opacity="0.3">
<g opacity="0.3">
<path opacity="0.3" d="M233.212 280.196L268.568 259.805L303.697 280.196L268.341 300.587L233.212 280.196ZM301.358 280.196L268.568 261.166L235.562 280.196L268.352 299.226L301.358 280.196Z" fill="#5ED9D1"/>
</g>
</g>
</g>
<g opacity="0.3">
<path opacity="0.3" d="M233.224 228.446L268.591 208.044L303.72 228.446L268.364 248.837L233.224 228.446Z" fill="#5ED9D1"/>
<g opacity="0.3">
<g opacity="0.3">
<path opacity="0.3" d="M233.226 228.449L268.582 208.058L303.711 228.449L268.366 248.84L233.226 228.449ZM301.372 228.449L268.582 209.419L235.576 228.449L268.366 247.479L301.372 228.449Z" fill="#5ED9D1"/>
</g>
</g>
</g>
<g opacity="0.3">
<path opacity="0.3" d="M308.62 228.779L343.988 208.376L379.117 228.779L343.761 249.17L308.62 228.779Z" fill="#5ED9D1"/>
<g opacity="0.3">
<g opacity="0.3">
<path opacity="0.3" d="M308.621 228.781L343.977 208.39L379.106 228.781L343.762 249.172L308.621 228.781ZM376.767 228.781L343.977 209.751L310.971 228.781L343.762 247.811L376.767 228.781Z" fill="#5ED9D1"/>
</g>
</g>
</g>
<g opacity="0.3">
<path opacity="0.3" d="M230.567 184.917L265.935 164.526L301.064 184.917L265.708 205.308L230.567 184.917Z" fill="#5ED9D1"/>
<g opacity="0.3">
<g opacity="0.3">
<path opacity="0.3" d="M230.568 184.918L265.925 164.527L301.054 184.918L265.697 205.309L230.568 184.918ZM298.726 184.918L265.936 165.888L232.93 184.918L265.72 203.948L298.726 184.918Z" fill="#5ED9D1"/>
</g>
</g>
</g>
<path d="M341.376 155.53L192.161 72.7534C190.871 72.031 189.581 71.9277 188.721 72.3406C183.238 74.7145 179.476 77.5012 179.476 77.5012L186.678 84.21V187.216C186.678 191.138 189.151 195.782 192.268 197.537L337.183 277.836L332.13 280.21L335.785 285.68C335.785 285.68 340.301 284.545 345.353 280.313C346.428 279.59 347.073 278.146 347.073 276.081V165.748C346.966 161.825 344.493 157.181 341.376 155.53Z" fill="#171753"/>
<path d="M335.462 286.402L331.162 280.003L335.784 277.835L191.837 198.052C188.612 196.298 185.925 191.447 185.925 187.215V84.6223L178.399 77.6039L178.937 77.1911C179.044 77.0878 182.807 74.3011 188.29 71.9272C189.58 71.308 190.977 71.5144 192.375 72.2369L341.59 154.91C344.815 156.768 347.502 161.515 347.502 165.747V276.081C347.502 278.248 346.75 279.9 345.567 280.725C340.514 284.957 335.999 286.196 335.784 286.196L335.462 286.402ZM332.989 280.416L335.999 284.957C337.182 284.544 340.837 283.202 344.922 279.796C345.89 279.177 346.427 277.732 346.427 276.081V165.747C346.427 162.031 344.062 157.593 341.16 155.942L191.837 73.269C190.762 72.6497 189.687 72.5465 188.935 72.9594H188.827C184.742 74.714 181.517 76.7782 180.334 77.7071L187.215 84.1063V187.215C187.215 190.931 189.58 195.369 192.482 197.02L338.472 277.939L332.989 280.416Z" fill="#171753"/>
<path d="M184.851 80.08L186.678 132.305L281.926 185.15L337.935 153.567L195.063 74.4033L184.851 80.08Z" fill="#171753"/>
<path d="M281.927 185.77L186.034 132.719L184.206 79.771L195.064 73.7847L339.226 153.568L281.927 185.77ZM187.216 131.996L281.927 184.428L336.753 153.568L195.064 75.1264L185.496 80.3902L187.216 131.996Z" fill="#171753"/>
<path d="M302.675 279.59C302.352 278.248 301.385 277.113 300.202 276.39L294.397 273.191C288.484 269.888 283.647 261.837 283.647 255.335V218.385C283.647 218.385 283.647 218.282 283.539 218.282L277.734 215.082C277.626 214.979 277.519 215.082 277.519 215.186C277.949 216.63 278.272 218.075 278.272 219.52V246.252C278.272 247.904 277.949 249.245 277.304 250.278L276.659 245.943C276.659 245.839 276.551 245.839 276.551 245.839L264.404 247.181H264.296C261.716 243.982 259.996 239.853 259.996 236.241V209.509C259.996 208.064 260.318 206.825 260.748 205.896C260.748 205.793 260.748 205.793 260.748 205.69L254.836 202.387C254.728 202.387 254.621 202.387 254.621 202.49V239.131C254.621 245.736 249.676 248.523 243.763 245.117L237.743 241.814C237.098 241.505 236.668 241.401 236.238 241.608L236.13 241.711C236.13 241.711 230.648 243.775 224.842 248.007C224.735 248.007 224.735 248.11 224.842 248.213L229.357 252.135L285.152 281.861L290.634 288.053C290.634 288.053 290.742 288.156 290.742 288.053C291.602 287.744 298.267 285.266 302.245 281.551C302.675 281.241 302.89 280.519 302.675 279.59Z" fill="#BEF0ED"/>
<path d="M290.741 288.672C290.526 288.672 290.311 288.569 290.203 288.466L284.828 282.376L229.034 252.651L228.926 252.548L224.411 248.626C224.196 248.523 224.196 248.316 224.196 248.11C224.196 247.903 224.304 247.697 224.519 247.594C230.324 243.362 235.699 241.298 235.914 241.194H236.022C236.774 240.782 237.527 241.091 238.064 241.401L244.084 244.704C246.772 246.149 249.245 246.458 251.18 245.426C253.007 244.394 254.082 242.227 254.082 239.233V202.593C254.082 202.387 254.19 202.077 254.405 201.974C254.62 201.871 254.942 201.871 255.157 201.974L261.07 205.277C261.392 205.483 261.5 205.896 261.392 206.206C260.962 207.134 260.64 208.27 260.64 209.612V236.344C260.64 239.646 262.145 243.568 264.618 246.768L276.443 245.426C276.873 245.426 277.195 245.633 277.303 246.045L277.518 247.903C277.625 247.49 277.625 246.974 277.625 246.458V219.726C277.625 218.488 277.41 217.043 276.98 215.598C276.873 215.288 276.98 214.979 277.195 214.875C277.41 214.669 277.733 214.669 278.055 214.772L283.861 217.972C284.076 218.075 284.183 218.385 284.183 218.591V255.335C284.183 261.734 288.913 269.475 294.611 272.674L300.416 275.874C301.921 276.699 302.889 278.041 303.211 279.486C303.426 280.518 303.211 281.447 302.674 281.963C298.589 285.782 291.708 288.362 290.956 288.569C290.956 288.672 290.848 288.672 290.741 288.672ZM229.679 251.619L285.581 281.447L285.688 281.55L290.956 287.434C292.568 286.814 298.374 284.544 301.921 281.138C302.244 280.931 302.244 280.415 302.136 279.693C301.921 278.557 301.061 277.525 299.879 276.906L294.073 273.706C287.946 270.3 283.001 262.043 283.001 255.335V218.694L278.378 216.114C278.7 217.249 278.808 218.385 278.808 219.52V246.252C278.808 248.006 278.485 249.451 277.733 250.587L276.873 252.032L276.12 246.355L264.51 247.697C264.295 247.697 263.973 247.594 263.865 247.387C261.07 243.878 259.457 239.646 259.457 236.034V209.302C259.457 207.96 259.672 206.825 260.102 205.793L255.265 203.109V238.924C255.265 242.33 253.975 244.91 251.717 246.149C249.46 247.387 246.557 247.181 243.439 245.426L237.419 242.123C236.774 241.814 236.667 241.917 236.559 241.917L236.344 242.02C236.237 242.02 231.076 244.084 225.594 247.903L229.679 251.619Z" fill="#171753"/>
<path d="M290.743 288.776C290.528 288.776 290.313 288.673 290.206 288.57L286.658 284.544L290.528 284.028C291.281 283.719 297.839 281.035 301.816 277.939L302.354 277.526L302.784 278.042C303.214 278.558 303.214 278.764 303.321 279.177C303.321 279.28 303.321 279.384 303.429 279.59C303.644 280.622 303.429 281.551 302.891 282.067C298.806 285.886 291.926 288.466 291.173 288.673C290.958 288.776 290.851 288.776 290.743 288.776ZM289.023 285.37L290.958 287.537C292.571 286.918 298.376 284.648 301.924 281.242C302.246 281.035 302.246 280.519 302.139 279.797C302.139 279.59 302.031 279.487 302.031 279.28C297.624 282.377 291.173 284.957 290.958 285.06H290.851L289.023 285.37Z" fill="#171753"/>
<path d="M283.647 255.335V240.988C281.175 240.163 279.347 239.543 279.132 239.543C279.025 239.543 278.81 239.647 278.272 239.75V246.149C278.272 247.8 277.95 249.142 277.305 250.174L276.66 245.839C276.66 245.736 276.552 245.736 276.552 245.736L264.404 247.078H264.297C263.652 246.355 263.114 245.427 262.577 244.601C262.254 244.704 262.039 244.807 262.039 244.807L263.329 269.785L269.672 273.5L269.887 273.707L275.047 276.493L275.799 275.564C275.799 275.564 282.25 272.158 288.7 268.34C285.69 264.521 283.647 259.67 283.647 255.335Z" fill="#171753"/>
<path d="M289.126 282.996L282.891 279.487C276.979 276.184 272.248 268.236 272.248 261.734V224.681L266.013 221.275C266.551 222.823 266.873 224.371 266.873 225.92V252.651C266.873 258.225 262.788 260.496 257.735 257.709C252.683 254.922 248.598 248.11 248.598 242.537V215.805C248.598 214.36 248.92 213.121 249.458 212.089L243.223 208.683V245.736C243.223 252.239 238.492 254.922 232.58 251.619L226.344 248.11C225.162 247.388 224.087 248.007 224.087 249.349C224.087 250.69 225.054 252.342 226.344 253.064L289.234 287.95C290.416 288.672 291.492 288.053 291.492 286.711C291.384 285.37 290.416 283.718 289.126 282.996Z" fill="#BEF0ED"/>
<path d="M290.204 288.776C289.774 288.776 289.344 288.672 288.914 288.363L226.024 253.58C224.627 252.755 223.444 250.897 223.444 249.349C223.444 248.42 223.767 247.8 224.412 247.491C225.057 247.181 225.809 247.181 226.562 247.594L232.797 251.103C235.485 252.548 237.957 252.858 239.677 251.826C241.505 250.794 242.472 248.626 242.472 245.736V207.651L250.105 211.883L249.89 212.399C249.353 213.328 249.138 214.463 249.138 215.805V242.537C249.138 247.904 253.115 254.509 257.953 257.193C260.21 258.431 262.253 258.638 263.758 257.812C265.263 256.986 266.123 255.128 266.123 252.651V225.919C266.123 224.578 265.908 223.029 265.371 221.481L264.833 220.036L272.681 224.371V261.837C272.681 268.133 277.304 275.874 283.001 279.074L289.236 282.583C290.634 283.409 291.816 285.266 291.816 286.815C291.816 287.743 291.494 288.363 290.849 288.672C290.741 288.776 290.526 288.776 290.204 288.776ZM225.272 248.42C225.164 248.42 225.057 248.42 224.949 248.523C224.734 248.626 224.627 248.936 224.627 249.349C224.627 250.484 225.487 251.929 226.562 252.548L289.451 287.434C289.881 287.64 290.204 287.743 290.419 287.537C290.634 287.434 290.741 287.124 290.741 286.711C290.741 285.576 289.881 284.131 288.806 283.512L282.571 280.003C276.551 276.597 271.606 268.443 271.606 261.734V224.991L266.983 222.41C267.306 223.546 267.413 224.681 267.413 225.816V252.548C267.413 255.438 266.338 257.709 264.403 258.741C262.468 259.773 259.995 259.567 257.308 258.122C252.04 255.232 247.848 248.213 247.848 242.433V215.701C247.848 214.36 248.063 213.224 248.493 212.192L243.655 209.509V245.53C243.655 248.936 242.472 251.413 240.215 252.651C237.957 253.89 235.055 253.58 232.045 251.929L225.809 248.42C225.702 248.523 225.487 248.42 225.272 248.42Z" fill="#171753"/>
<path d="M248.597 215.805V242.537C248.597 248.11 252.682 254.922 257.734 257.709C262.787 260.496 266.872 258.225 266.872 252.651V225.919C266.872 224.474 266.55 222.823 266.012 221.275L269.237 223.03V212.812H249.027C248.704 213.74 248.597 214.669 248.597 215.805Z" fill="#BEF0ED"/>
<path d="M261.823 259.566C260.425 259.566 258.92 259.154 257.415 258.328C252.148 255.438 247.955 248.419 247.955 242.64V215.908C247.955 214.772 248.17 213.74 248.493 212.811L248.6 212.398H269.886V224.268L266.983 222.72C267.306 223.855 267.413 224.99 267.413 226.126V252.858C267.413 255.748 266.338 258.018 264.403 259.05C263.651 259.36 262.791 259.566 261.823 259.566ZM249.46 213.534C249.245 214.256 249.138 214.979 249.138 215.908V242.64C249.138 248.007 253.115 254.612 257.953 257.296C260.21 258.534 262.253 258.741 263.758 257.915C265.263 257.089 266.123 255.231 266.123 252.754V226.022C266.123 224.681 265.908 223.133 265.371 221.584L264.833 220.139L268.488 222.204V213.534H249.46Z" fill="#171753"/>
<path d="M262.038 212.915H249.03C248.707 213.74 248.6 214.772 248.6 215.804V242.536C248.6 246.665 250.857 251.516 254.082 254.922C257.307 255.128 259.672 252.858 259.672 248.626V221.894C259.672 220.449 259.35 218.798 258.812 217.249L262.038 219.004V212.915Z" fill="#171753"/>
<path d="M254.511 255.542C254.296 255.542 254.188 255.542 253.973 255.542H253.758L253.543 255.335C250.103 251.723 247.846 246.769 247.846 242.64V215.908C247.846 214.773 248.061 213.741 248.383 212.812L248.491 212.399H262.574V220.243L259.671 218.695C259.994 219.83 260.101 220.966 260.101 222.101V248.833C260.101 251.31 259.349 253.168 258.059 254.406C257.198 255.129 255.908 255.542 254.511 255.542ZM254.296 254.303C255.478 254.303 256.446 253.993 257.198 253.374C258.274 252.342 258.919 250.794 258.919 248.73V221.998C258.919 220.656 258.704 219.108 258.166 217.56L257.629 216.115L261.284 218.179V213.637H249.351C249.136 214.36 249.028 215.082 249.028 216.011V242.743C249.136 246.459 251.178 251 254.296 254.303Z" fill="#171753"/>
<path d="M251.611 214.36V241.092C251.611 246.665 255.696 253.477 260.749 256.264C262.362 257.193 263.867 257.502 265.264 257.399C266.232 256.367 266.877 254.716 266.877 252.548V225.816C266.877 224.371 266.554 222.72 266.017 221.172L269.242 222.926V220.139C269.242 219.933 269.134 219.83 269.134 219.623L269.242 219.727V212.605H251.826C251.719 213.327 251.611 213.844 251.611 214.36Z" fill="#BEF0ED"/>
<path d="M264.942 258.121C263.545 258.121 262.04 257.709 260.534 256.883C255.267 253.993 251.074 246.975 251.074 241.195V214.463C251.074 213.947 251.074 213.431 251.182 212.914L251.289 212.398H269.995V224.268L267.092 222.72C267.415 223.855 267.522 224.99 267.522 226.126V252.858C267.522 255.025 266.877 256.78 265.802 258.018L265.587 258.225H265.372C265.157 258.121 265.05 258.121 264.942 258.121ZM252.364 213.534C252.364 213.843 252.364 214.153 252.364 214.463V241.195C252.364 246.562 256.342 253.167 261.18 255.851C262.577 256.573 263.867 256.986 265.05 256.986C265.91 255.954 266.34 254.509 266.34 252.754V226.022C266.34 224.681 266.125 223.133 265.587 221.584L265.05 220.139L268.705 222.204V220.449C268.705 220.346 268.705 220.243 268.597 220.139L268.06 218.694L268.705 219.004V213.534H252.364Z" fill="#171753"/>
<path d="M305.254 180.197L303.534 259.567L336.323 277.733L346.966 271.849V166.16C346.966 163.58 345.89 160.793 344.385 158.729L326.002 168.947L305.254 180.197Z" fill="#171753"/>
<path d="M336.323 278.455L302.89 259.877V259.567L304.61 179.887L325.68 168.328L344.601 157.903L344.923 158.316C346.644 160.587 347.611 163.58 347.611 166.16V272.262L336.323 278.455ZM304.18 259.258L336.323 277.113L346.321 271.643V166.16C346.321 163.993 345.568 161.516 344.171 159.452L326.218 169.36L305.792 180.507L304.18 259.258Z" fill="#171753"/>
<path d="M332.346 285.266L183.131 202.594C180.014 200.839 177.541 196.298 177.541 192.272V81.9386C177.541 78.0165 180.014 76.1587 183.131 77.9133L332.346 160.586C335.463 162.341 337.936 166.882 337.936 170.907V281.241C337.936 285.163 335.463 287.021 332.346 285.266Z" fill="#ECFFFE"/>
<path d="M334.604 286.505C333.851 286.505 332.991 286.299 332.024 285.783L182.809 203.11C179.584 201.355 176.896 196.504 176.896 192.273V81.9389C176.896 79.6682 177.757 77.9136 179.154 77.0879C180.337 76.3654 181.842 76.4686 183.454 77.3975L332.669 160.07C335.894 161.825 338.582 166.676 338.582 170.908V281.241C338.582 283.512 337.721 285.267 336.324 286.092C335.786 286.402 335.141 286.505 334.604 286.505ZM332.669 284.854C333.851 285.473 334.926 285.576 335.679 285.163C336.754 284.544 337.291 283.202 337.291 281.345V170.908C337.291 167.192 334.926 162.754 332.024 161.103L182.809 78.4297C181.627 77.8104 180.552 77.7072 179.799 78.12C178.724 78.7393 178.187 80.0811 178.187 81.9389V192.376C178.187 196.091 180.552 200.53 183.454 202.181L332.669 284.854Z" fill="#171753"/>
<path d="M331.81 273.602L183.67 191.446C182.81 190.93 182.058 189.691 182.058 188.556V84.3114C182.058 83.1761 182.81 82.66 183.67 83.1761L331.917 165.333C332.777 165.849 333.53 167.088 333.53 168.223V272.467C333.422 273.602 332.67 274.119 331.81 273.602Z" fill="#BEF0ED"/>
<path d="M332.455 274.326C332.133 274.326 331.81 274.222 331.488 274.016L183.348 191.962C182.273 191.343 181.413 189.898 181.413 188.556V84.3122C181.413 83.4865 181.736 82.8672 182.273 82.5576C182.703 82.2479 183.348 82.3511 183.886 82.6608L332.133 164.818C333.208 165.437 334.068 166.882 334.068 168.224V272.468C334.068 273.294 333.745 273.913 333.208 274.222C332.993 274.326 332.778 274.326 332.455 274.326ZM332.133 273.087C332.24 273.087 332.455 273.19 332.563 273.19C332.67 273.087 332.778 272.881 332.778 272.468V168.224C332.778 167.295 332.133 166.159 331.488 165.85L183.348 83.5897C183.241 83.5897 183.026 83.4865 182.918 83.4865C182.811 83.5897 182.703 83.7961 182.703 84.209V188.453C182.703 189.382 183.348 190.517 183.993 190.827L332.133 273.087Z" fill="#171753"/>
<path d="M333.207 272.778L185.068 190.621C184.208 190.105 183.455 188.867 183.455 187.731V83.487C183.455 83.3837 183.455 83.1773 183.455 83.0741C182.703 82.7645 182.058 83.2805 182.058 84.3127V188.557C182.058 189.692 182.81 191.034 183.67 191.447L331.917 273.604C332.67 274.017 333.315 273.707 333.53 272.881C333.315 272.778 333.315 272.778 333.207 272.778Z" fill="#171753"/>
<path d="M332.455 274.326C332.133 274.326 331.81 274.223 331.488 274.016L183.348 191.963C182.273 191.343 181.413 189.898 181.413 188.557V84.3125C181.413 83.59 181.736 82.9708 182.166 82.6611C182.596 82.3515 183.133 82.3515 183.671 82.5579L184.101 82.7644V83.074C184.101 83.1772 184.101 83.2804 184.101 83.3836V187.628C184.101 188.557 184.746 189.692 185.391 190.002L333.53 272.262L333.208 272.778L333.53 272.262L334.068 272.468V272.984C333.96 273.604 333.638 274.016 333.1 274.223C332.885 274.326 332.67 274.326 332.455 274.326ZM182.811 83.59C182.703 83.6933 182.703 83.8997 182.703 84.2093V188.454C182.703 189.382 183.348 190.518 183.993 190.827L332.24 272.984C332.455 273.087 332.563 273.087 332.67 273.087C332.67 273.087 332.67 273.087 332.778 273.087L184.746 191.137C183.671 190.518 182.811 189.073 182.811 187.731V83.59Z" fill="#171753"/>
<path d="M263.113 242.123L252.363 236.137C251.933 235.827 251.503 235.208 251.503 234.588C251.503 233.969 251.933 233.659 252.363 233.969L263.113 239.955C263.543 240.265 263.973 240.884 263.973 241.504C263.973 242.123 263.543 242.433 263.113 242.123Z" fill="#171753"/>
<path d="M263.435 242.845C263.22 242.845 263.005 242.742 262.79 242.639L252.04 236.653C251.395 236.24 250.857 235.414 250.857 234.588C250.857 234.072 251.072 233.66 251.502 233.453C251.825 233.247 252.255 233.247 252.685 233.453L263.435 239.439C264.08 239.852 264.618 240.678 264.618 241.504C264.618 242.02 264.403 242.433 263.973 242.639C263.758 242.742 263.65 242.845 263.435 242.845ZM252.147 234.485C252.147 234.588 252.147 234.588 252.147 234.485C252.147 235.001 252.47 235.517 252.685 235.621L263.328 241.504V241.4C263.328 240.988 263.005 240.472 262.79 240.368L252.147 234.485Z" fill="#171753"/>
<path d="M253.476 249.66L251.333 250.843L251.923 251.827L254.066 250.644L253.476 249.66Z" fill="#BEF0ED"/>
<path d="M343.738 248.11L341.158 249.555C340.728 249.762 340.298 249.555 340.298 248.936V242.227C340.298 241.608 340.62 240.989 341.158 240.679L343.738 239.234C344.168 239.028 344.598 239.234 344.598 239.853V246.562C344.598 247.181 344.168 247.904 343.738 248.11Z" fill="#171753"/>
<path d="M343.738 235.002L341.158 236.447C340.728 236.653 340.298 236.447 340.298 235.828V229.119C340.298 228.5 340.62 227.88 341.158 227.571L343.738 226.126C344.168 225.919 344.598 226.126 344.598 226.745V233.454C344.598 233.97 344.168 234.692 343.738 235.002Z" fill="#171753"/>
<path d="M188.99 185.838L182.566 189.398L183.158 190.382L189.581 186.821L188.99 185.838Z" fill="#BEF0ED"/>
<path d="M208.09 85.7014L207.499 86.6846L314.655 146.083L315.246 145.1L208.09 85.7014Z" fill="#171753"/>
<path d="M192.808 96.8064C192.808 97.1837 192.412 97.4297 192.074 97.2621L189.758 96.1148C189.585 96.029 189.476 95.8524 189.476 95.6591C189.476 95.2817 189.872 95.0358 190.21 95.2033L192.525 96.3506C192.699 96.4364 192.808 96.6131 192.808 96.8064Z" fill="#171753" stroke="#171753" stroke-width="0.377369"/>
<path d="M192.808 106.806C192.808 107.184 192.406 107.426 192.072 107.25L189.744 106.025C189.579 105.938 189.476 105.767 189.476 105.58C189.476 105.202 189.877 104.96 190.212 105.136L192.54 106.361C192.705 106.448 192.808 106.619 192.808 106.806Z" fill="#171753" stroke="#171753" stroke-width="0.377369"/>
<path d="M192.808 116.726C192.808 117.104 192.412 117.35 192.074 117.182L189.758 116.035C189.585 115.949 189.476 115.772 189.476 115.579C189.476 115.202 189.872 114.956 190.21 115.123L192.525 116.271C192.699 116.356 192.808 116.533 192.808 116.726Z" fill="#171753" stroke="#171753" stroke-width="0.377369"/>
<path d="M192.808 126.634C192.808 127.012 192.412 127.258 192.074 127.09L189.758 125.943C189.585 125.857 189.476 125.681 189.476 125.487C189.476 125.11 189.872 124.864 190.21 125.031L192.525 126.179C192.699 126.265 192.808 126.441 192.808 126.634Z" fill="#171753" stroke="#171753" stroke-width="0.377369"/>
<path d="M192.808 136.543C192.808 136.921 192.412 137.166 192.074 136.999L189.758 135.852C189.585 135.766 189.476 135.589 189.476 135.396C189.476 135.019 189.872 134.773 190.21 134.94L192.525 136.087C192.699 136.173 192.808 136.35 192.808 136.543Z" fill="#171753" stroke="#171753" stroke-width="0.377369"/>
<path d="M192.808 156.463C192.808 156.84 192.412 157.086 192.074 156.919L189.758 155.772C189.585 155.686 189.476 155.509 189.476 155.316C189.476 154.938 189.872 154.693 190.21 154.86L192.525 156.007C192.699 156.093 192.808 156.27 192.808 156.463Z" fill="#171753" stroke="#171753" stroke-width="0.377369"/>
<path d="M192.808 166.372C192.808 166.749 192.412 166.995 192.074 166.828L189.758 165.68C189.585 165.594 189.476 165.418 189.476 165.224C189.476 164.847 189.872 164.601 190.21 164.769L192.525 165.916C192.699 166.002 192.808 166.178 192.808 166.372Z" fill="#171753" stroke="#171753" stroke-width="0.377369"/>
<path d="M192.808 176.349C192.808 176.694 192.445 176.92 192.135 176.766L189.753 175.586C189.583 175.502 189.476 175.328 189.476 175.139C189.476 174.764 189.874 174.523 190.206 174.698L192.559 175.937C192.712 176.017 192.808 176.176 192.808 176.349Z" fill="#171753" stroke="#171753" stroke-width="0.377369"/>
<path d="M192.808 186.291C192.808 186.669 192.412 186.915 192.074 186.747L189.758 185.6C189.585 185.514 189.476 185.337 189.476 185.144C189.476 184.767 189.872 184.521 190.21 184.688L192.525 185.835C192.699 185.921 192.808 186.098 192.808 186.291Z" fill="#171753" stroke="#171753" stroke-width="0.377369"/>
<path d="M257.309 132.803C257.309 133.182 256.903 133.421 256.572 133.237L196.072 99.5228C195.915 99.4352 195.817 99.2695 195.817 99.0896C195.817 98.7112 196.224 98.4723 196.555 98.6564L257.055 132.37C257.212 132.458 257.309 132.624 257.309 132.803Z" fill="#171753" stroke="#171753" stroke-width="0.377369"/>
<path d="M237.529 131.771C237.529 132.149 237.122 132.388 236.791 132.204L196.072 109.534C195.915 109.446 195.817 109.281 195.817 109.101C195.817 108.722 196.224 108.483 196.555 108.667L237.274 131.338C237.431 131.425 237.529 131.591 237.529 131.771Z" fill="#171753" stroke="#171753" stroke-width="0.377369"/>
<path d="M212.91 127.851C212.91 128.229 212.505 128.469 212.173 128.287L196.075 119.442C195.916 119.354 195.817 119.187 195.817 119.006C195.817 118.627 196.223 118.387 196.554 118.57L212.652 127.415C212.812 127.503 212.91 127.67 212.91 127.851Z" fill="#171753" stroke="#171753" stroke-width="0.377369"/>
<path d="M257.309 162.631C257.309 163.01 256.903 163.249 256.572 163.065L196.072 129.351C195.915 129.263 195.817 129.098 195.817 128.918C195.817 128.539 196.224 128.3 196.555 128.485L257.055 162.198C257.212 162.286 257.309 162.452 257.309 162.631Z" fill="#171753" stroke="#171753" stroke-width="0.377369"/>
<path d="M231.724 158.194C231.724 158.572 231.317 158.811 230.986 158.628L196.073 139.259C195.915 139.171 195.817 139.005 195.817 138.824C195.817 138.446 196.224 138.207 196.555 138.39L231.468 157.76C231.626 157.847 231.724 158.013 231.724 158.194Z" fill="#171753" stroke="#171753" stroke-width="0.377369"/>
<path d="M231.724 168.103C231.724 168.482 231.318 168.721 230.986 168.538L196.074 149.27C195.916 149.183 195.817 149.016 195.817 148.835C195.817 148.457 196.223 148.217 196.555 148.4L231.467 167.668C231.625 167.756 231.724 167.922 231.724 168.103Z" fill="#171753" stroke="#171753" stroke-width="0.377369"/>
<path d="M239.141 182.242C239.141 182.621 238.735 182.86 238.404 182.676L196.073 159.179C195.915 159.091 195.817 158.925 195.817 158.745C195.817 158.367 196.224 158.127 196.555 158.311L238.886 181.808C239.043 181.896 239.141 182.062 239.141 182.242Z" fill="#171753" stroke="#171753" stroke-width="0.377369"/>
<path d="M218.286 180.692C218.286 181.07 217.878 181.309 217.548 181.124L196.07 169.087C195.914 169 195.817 168.834 195.817 168.655C195.817 168.277 196.225 168.038 196.555 168.223L218.032 180.26C218.189 180.348 218.286 180.513 218.286 180.692Z" fill="#171753" stroke="#171753" stroke-width="0.377369"/>
<path d="M257.309 212.277C257.309 212.655 256.903 212.894 256.572 212.71L196.049 178.983C195.906 178.903 195.817 178.752 195.817 178.589C195.817 178.245 196.187 178.027 196.488 178.194L257.054 211.843C257.212 211.931 257.309 212.097 257.309 212.277Z" fill="#171753" stroke="#171753" stroke-width="0.377369"/>
<path d="M220.866 201.955C220.866 202.333 220.459 202.572 220.128 202.388L196.072 189.007C195.915 188.919 195.817 188.753 195.817 188.573C195.817 188.195 196.224 187.956 196.555 188.14L220.611 201.521C220.768 201.609 220.866 201.775 220.866 201.955Z" fill="#171753" stroke="#171753" stroke-width="0.377369"/>
<path d="M299.127 156.131C299.127 156.51 298.721 156.749 298.39 156.567L259.178 134.925C259.019 134.837 258.921 134.67 258.921 134.489C258.921 134.111 259.327 133.871 259.658 134.054L298.87 155.696C299.029 155.784 299.127 155.95 299.127 156.131Z" fill="#171753" stroke="#171753" stroke-width="0.377369"/>
<path d="M279.991 155.098C279.991 155.477 279.585 155.716 279.254 155.533L240.041 133.789C239.883 133.702 239.785 133.536 239.785 133.355C239.785 132.977 240.191 132.737 240.522 132.921L279.736 154.664C279.893 154.752 279.991 154.918 279.991 155.098Z" fill="#171753" stroke="#171753" stroke-width="0.377369"/>
<path d="M255.482 151.177C255.482 151.555 255.075 151.795 254.744 151.611L215.639 129.97C215.481 129.883 215.383 129.717 215.383 129.536C215.383 129.158 215.789 128.918 216.12 129.101L255.225 150.742C255.383 150.83 255.482 150.996 255.482 151.177Z" fill="#171753" stroke="#171753" stroke-width="0.377369"/>
<path d="M297.407 173.882C297.407 174.26 297.001 174.5 296.67 174.316L257.564 152.574C257.406 152.486 257.309 152.32 257.309 152.14C257.309 151.762 257.715 151.522 258.046 151.706L297.152 173.448C297.31 173.536 297.407 173.702 297.407 173.882Z" fill="#171753" stroke="#171753" stroke-width="0.377369"/>
<path d="M299.127 185.961C299.127 186.339 298.721 186.578 298.39 186.396L259.178 164.754C259.019 164.666 258.921 164.5 258.921 164.319C258.921 163.94 259.327 163.701 259.658 163.883L298.87 185.525C299.029 185.613 299.127 185.78 299.127 185.961Z" fill="#171753" stroke="#171753" stroke-width="0.377369"/>
<path d="M273.325 181.004C273.325 181.382 272.919 181.622 272.588 181.438L233.482 159.696C233.324 159.608 233.227 159.442 233.227 159.262C233.227 158.884 233.633 158.644 233.964 158.828L273.07 180.57C273.228 180.658 273.325 180.824 273.325 181.004Z" fill="#171753" stroke="#171753" stroke-width="0.377369"/>
<path d="M273.325 190.914C273.325 191.292 272.919 191.531 272.588 191.348L233.483 169.707C233.325 169.62 233.227 169.453 233.227 169.273C233.227 168.894 233.633 168.655 233.964 168.838L273.069 190.479C273.227 190.566 273.325 190.733 273.325 190.914Z" fill="#171753" stroke="#171753" stroke-width="0.377369"/>
<path d="M281.388 206.189C281.388 206.567 280.982 206.806 280.651 206.623L241.437 184.88C241.28 184.792 241.182 184.626 241.182 184.445C241.182 184.067 241.588 183.828 241.919 184.011L281.132 205.755C281.29 205.842 281.388 206.008 281.388 206.189Z" fill="#171753" stroke="#171753" stroke-width="0.377369"/>
<path d="M261.284 205.052C261.284 205.431 260.878 205.67 260.547 205.486L221.441 183.744C221.283 183.656 221.186 183.49 221.186 183.31C221.186 182.932 221.592 182.693 221.923 182.877L261.029 204.619C261.187 204.706 261.284 204.872 261.284 205.052Z" fill="#171753" stroke="#171753" stroke-width="0.377369"/>
<path d="M299.127 235.707C299.127 236.086 298.721 236.325 298.39 236.141L259.177 214.398C259.019 214.311 258.921 214.144 258.921 213.964C258.921 213.586 259.327 213.346 259.658 213.53L298.871 235.273C299.029 235.361 299.127 235.527 299.127 235.707Z" fill="#171753" stroke="#171753" stroke-width="0.377369"/>
<path d="M264.189 226.108C264.189 226.486 263.782 226.725 263.451 226.541L224.345 204.799C224.187 204.712 224.09 204.546 224.09 204.365C224.09 203.987 224.496 203.748 224.827 203.932L263.934 225.674C264.091 225.761 264.189 225.927 264.189 226.108Z" fill="#171753" stroke="#171753" stroke-width="0.377369"/>
<path d="M159.76 170.575L159.76 170.575L159.755 170.572L81.6702 123.883C81.6701 123.883 81.6701 123.883 81.6701 123.883C80.6927 123.299 79.898 123.292 79.3776 123.588C78.857 123.885 78.4491 124.578 78.4491 125.751L78.4491 125.753L78.1759 183.55C78.1759 183.551 78.1759 183.551 78.1759 183.552C78.1763 184.725 78.5748 186.056 79.2388 187.255C79.9036 188.454 80.8107 189.477 81.7849 190.059L81.785 190.059L159.87 236.748C159.87 236.748 159.87 236.748 159.87 236.748C160.847 237.333 161.642 237.34 162.162 237.043C162.683 236.746 163.091 236.053 163.091 234.88L163.091 234.877L163.432 177.081C163.432 177.081 163.432 177.08 163.432 177.08C163.432 175.907 163.033 174.576 162.362 173.379C161.69 172.181 160.767 171.158 159.76 170.575Z" fill="#F5F5F5" stroke="#171753" stroke-width="0.889559"/>
<path d="M88.4956 197.698H86.2412V194.534H88.4956V197.698Z" fill="#F5F5F5"/>
<path d="M80.5801 195.018L80.6684 194.871L80.5801 195.018C79.5543 194.405 78.1863 194.094 76.8086 194.094C75.4309 194.094 74.0629 194.405 73.0371 195.018L73.0373 195.019L73.0292 195.023L17.8538 224.155V229.177C17.9185 229.88 18.3555 230.607 19.3422 231.217C19.3426 231.217 19.343 231.217 19.3433 231.218L97.494 277.906L97.4057 278.053L97.4941 277.906C98.5199 278.519 99.8881 278.831 101.267 278.839C102.644 278.848 104.013 278.553 105.039 277.975C105.04 277.974 105.04 277.974 105.041 277.974L158.663 246.124C158.663 246.124 158.663 246.124 158.664 246.124C159.65 245.514 160.087 244.787 160.152 244.083V239.13H158.515V241.279V241.582L158.255 241.426L80.5801 195.018Z" fill="#171753" stroke="#171753" stroke-width="0.34446"/>
<path d="M87.6402 194.575L86.8055 195.044L86.1343 195.421L86.7959 195.814L143.566 229.565L143.794 229.701L144.021 229.565L145.091 228.928L158.594 237.018L158.604 237.024L158.604 237.024C159.57 237.569 159.966 238.268 159.966 238.895C159.966 239.526 159.566 240.245 158.595 240.825C158.595 240.825 158.595 240.825 158.595 240.825L104.968 272.677L104.967 272.678C103.994 273.26 102.678 273.564 101.338 273.555C99.9983 273.547 98.6847 273.226 97.7128 272.613L97.7037 272.608L97.7036 272.608L19.5507 225.918C18.5795 225.338 18.1791 224.619 18.1791 223.989C18.1791 223.361 18.5757 222.662 19.5412 222.117L19.5498 222.112L73.1774 190.259L73.1784 190.259C74.1519 189.677 75.4683 189.373 76.8101 189.373C78.1516 189.373 79.4678 189.677 80.4412 190.258L87.6402 194.575ZM87.6402 194.575L80.4417 190.259L87.6402 194.575Z" fill="#F5F5F5" stroke="#171753" stroke-width="0.889559"/>
<path d="M80.7358 122.236C81.0774 122.025 81.4873 121.814 81.8289 121.603C82.512 121.181 83.5367 121.251 84.5615 121.884L162.714 168.573C164.832 169.839 166.54 172.933 166.54 175.464L166.267 233.193C166.267 234.459 165.857 235.302 165.105 235.724C164.149 236.287 163.261 236.849 162.373 237.342C163.056 236.92 163.466 236.076 163.466 234.81L163.807 177.152C163.807 174.62 162.1 171.527 159.982 170.261L81.8289 123.501C80.7358 122.869 79.7794 122.798 79.0962 123.22C79.1646 123.15 80.3259 122.447 80.7358 122.236Z" fill="#171753"/>
<path d="M79.7126 205.63L74.2473 208.865L79.8492 212.24L85.3145 209.005L79.7126 205.63Z" fill="#171753"/>
<path d="M71.0388 208.372L65.6418 211.536L71.2437 214.911L76.6406 211.747L71.0388 208.372Z" fill="#171753"/>
<path d="M63.2493 204.083L56.9643 207.81L53.3435 209.92L51.499 211.045L60.9949 216.67L66.3918 213.506L63.5225 211.748L69.7393 208.021L63.2493 204.083Z" fill="#171753"/>
<path d="M77.32 212.167L71.9231 215.332L77.525 218.707L82.9219 215.543L77.32 212.167Z" fill="#171753"/>
<path d="M50.2672 211.748L44.8703 214.983L56.4156 221.944L61.8125 218.709L50.2672 211.748Z" fill="#171753"/>
<path d="M62.3572 219.06L56.9603 222.224L65.7047 227.497L71.1699 224.263L62.3572 219.06Z" fill="#171753"/>
<path d="M79.6452 221.451L74.2483 224.686L79.8501 228.061L85.2471 224.826L79.6452 221.451Z" fill="#171753"/>
<path d="M76.8435 195.997L71.4466 199.232L77.0484 202.607L82.5137 199.372L76.8435 195.997Z" fill="#171753"/>
<path d="M83.5388 200.004L78.1418 203.239L83.7437 206.614L89.1406 203.38L83.5388 200.004Z" fill="#171753"/>
<path d="M70.2165 199.935L64.8196 203.17L73.4957 208.373L78.8926 205.209L70.2165 199.935Z" fill="#171753"/>
<path d="M90.2311 204.013L84.7659 207.247L90.3678 210.622L95.833 207.388L90.2311 204.013Z" fill="#171753"/>
<path d="M96.8571 208.093L91.4602 211.257L97.0621 214.632L102.459 211.468L96.8571 208.093Z" fill="#171753"/>
<path d="M86.0651 209.497L80.6682 212.661L86.2701 216.036L91.667 212.801L86.0651 209.497Z" fill="#171753"/>
<path d="M103.553 212.098L98.0882 215.262L103.758 218.637L109.155 215.403L103.553 212.098Z" fill="#171753"/>
<path d="M92.4177 213.293L87.0207 216.527L92.6226 219.903L98.0195 216.668L92.4177 213.293Z" fill="#171753"/>
<path d="M67.1393 213.926L61.6741 217.16L67.276 220.535L72.7412 217.301L67.1393 213.926Z" fill="#171753"/>
<path d="M110.252 216.036L104.786 219.271L110.388 222.646L115.854 219.482L110.252 216.036Z" fill="#171753"/>
<path d="M83.6745 215.967L78.2092 219.131L83.8111 222.506L89.208 219.272L83.6745 215.967Z" fill="#171753"/>
<path d="M98.8395 217.162L93.3743 220.326L98.9762 223.701L104.441 220.537L98.8395 217.162Z" fill="#171753"/>
<path d="M73.4265 217.724L68.0295 220.959L73.5631 224.263L79.0283 221.099L73.4265 217.724Z" fill="#171753"/>
<path d="M89.9567 219.692L84.4915 222.927L90.0934 226.302L95.5586 223.068L89.9567 219.692Z" fill="#171753"/>
<path d="M116.877 220.114L111.48 223.278L117.082 226.654L122.479 223.489L116.877 220.114Z" fill="#171753"/>
<path d="M105.193 220.958L99.7961 224.193L105.398 227.568L110.795 224.333L105.193 220.958Z" fill="#171753"/>
<path d="M96.2438 223.489L90.8469 226.723L96.4488 230.098L101.846 226.864L96.2438 223.489Z" fill="#171753"/>
<path d="M123.57 224.123L118.173 227.287L123.775 230.662L129.172 227.498L123.57 224.123Z" fill="#171753"/>
<path d="M111.546 224.825L106.149 227.989L111.751 231.365L117.216 228.2L111.546 224.825Z" fill="#171753"/>
<path d="M86.2018 225.388L80.7366 228.552L86.3385 231.927L91.8037 228.763L86.2018 225.388Z" fill="#171753"/>
<path d="M102.529 227.287L97.1321 230.522L102.734 233.897L108.199 230.662L102.529 227.287Z" fill="#171753"/>
<path d="M130.266 228.131L124.801 231.296L130.403 234.671L135.868 231.506L130.266 228.131Z" fill="#171753"/>
<path d="M117.966 228.622L112.501 231.856L118.103 235.231L123.568 231.997L117.966 228.622Z" fill="#171753"/>
<path d="M92.4177 229.115L86.9524 232.349L92.5543 235.724L98.0195 232.49L92.4177 229.115Z" fill="#171753"/>
<path d="M108.883 231.083L103.418 234.318L109.02 237.693L114.485 234.459L108.883 231.083Z" fill="#171753"/>
<path d="M98.7038 232.911L93.3069 236.146L98.9087 239.45L104.306 236.286L98.7038 232.911Z" fill="#171753"/>
<path d="M139.419 233.614L134.022 236.849L139.624 240.224L145.021 236.989L139.419 233.614Z" fill="#171753"/>
<path d="M115.17 234.88L109.704 238.114L115.306 241.49L120.771 238.255L115.17 234.88Z" fill="#171753"/>
<path d="M71.717 224.616L66.2517 227.85L90.9136 242.616L96.3105 239.452L71.717 224.616Z" fill="#171753"/>
<path d="M104.919 236.639L99.5218 239.873L105.124 243.248L110.589 240.014L104.919 236.639Z" fill="#171753"/>
<path d="M124.595 232.63L119.198 235.864L132.998 244.162L138.395 240.927L124.595 232.63Z" fill="#171753"/>
<path d="M121.455 238.678L116.058 241.913L126.305 248.1L131.771 244.866L121.455 238.678Z" fill="#171753"/>
<path d="M97.1306 239.943L91.6654 243.108L100.478 248.381L105.875 245.147L97.1306 239.943Z" fill="#171753"/>
<path d="M111.342 240.506L105.877 243.67L119.676 251.967L125.142 248.803L111.342 240.506Z" fill="#171753"/>
<path d="M106.561 245.64L101.164 248.804L113.051 255.976L118.448 252.742L106.561 245.64Z" fill="#171753"/>
<path d="M79.8483 245.427C79.575 245.99 79.0968 246.482 78.3453 246.974L73.4949 249.927C71.3772 251.193 68.1663 251.334 66.3218 250.209L53.6835 242.685C53.2052 242.404 52.8637 242.052 52.6587 241.701C52.1122 240.646 52.6587 239.38 54.1617 238.466L59.0121 235.513C61.1298 234.247 64.3407 234.107 66.1852 235.232L78.8236 242.685C80.0532 243.388 80.3265 244.443 79.8483 245.427Z" fill="#171753"/>
<path d="M79.8477 245.427C79.5744 245.989 79.0962 246.481 78.3447 246.974L73.4943 249.927C71.3765 251.193 68.1657 251.333 66.3212 250.208L53.6828 242.684C53.2046 242.403 52.8631 242.052 52.6581 241.7C52.9314 241.138 53.4096 240.645 54.161 240.153L59.0114 237.2C61.1292 235.934 64.3401 235.794 66.1846 236.919L78.8229 244.372C79.3011 244.724 79.6427 245.075 79.8477 245.427Z" fill="#FFEE81"/>
<path d="M81.8286 185.519L158.547 231.927V178.136L81.8286 131.728V185.519Z" fill="#FFEE81"/>
<g style="mix-blend-mode:multiply">
<path d="M83.1266 132.501V184.746L158.547 230.38V231.927L81.8286 185.519V131.728L83.1266 132.501Z" fill="#353570"/>
</g>
<path d="M89.943 142.87C89.943 143.072 89.7261 143.201 89.5484 143.104L88.464 142.511C88.3784 142.464 88.3252 142.374 88.3252 142.277C88.3252 142.074 88.5421 141.946 88.7198 142.043L89.8042 142.635C89.8898 142.682 89.943 142.772 89.943 142.87Z" fill="#171753" stroke="#171753" stroke-width="0.301895"/>
<path d="M89.943 148.222C89.943 148.424 89.7234 148.551 89.5482 148.449L88.456 147.815C88.375 147.768 88.3252 147.681 88.3252 147.587C88.3252 147.385 88.5448 147.258 88.72 147.36L89.8122 147.994C89.8932 148.041 89.943 148.128 89.943 148.222Z" fill="#171753" stroke="#171753" stroke-width="0.301895"/>
<path d="M89.943 153.535C89.943 153.737 89.7261 153.866 89.5484 153.769L88.464 153.176C88.3784 153.129 88.3252 153.039 88.3252 152.942C88.3252 152.739 88.5421 152.611 88.7198 152.708L89.8042 153.301C89.8898 153.347 89.943 153.437 89.943 153.535Z" fill="#171753" stroke="#171753" stroke-width="0.301895"/>
<path d="M89.943 158.84C89.943 159.042 89.7261 159.171 89.5484 159.074L88.464 158.481C88.3784 158.434 88.3252 158.345 88.3252 158.247C88.3252 158.045 88.5421 157.916 88.7198 158.013L89.8042 158.606C89.8898 158.652 89.943 158.742 89.943 158.84Z" fill="#171753" stroke="#171753" stroke-width="0.301895"/>
<path d="M89.943 164.145C89.943 164.348 89.7261 164.477 89.5484 164.379L88.464 163.787C88.3784 163.74 88.3252 163.65 88.3252 163.553C88.3252 163.35 88.5421 163.222 88.7198 163.319L89.8042 163.911C89.8898 163.958 89.943 164.048 89.943 164.145Z" fill="#171753" stroke="#171753" stroke-width="0.301895"/>
<path d="M89.943 174.811C89.943 175.013 89.7261 175.142 89.5484 175.045L88.464 174.452C88.3784 174.406 88.3252 174.316 88.3252 174.218C88.3252 174.016 88.5421 173.887 88.7198 173.984L89.8042 174.577C89.8898 174.624 89.943 174.713 89.943 174.811Z" fill="#171753" stroke="#171753" stroke-width="0.301895"/>
<path d="M89.943 180.116C89.943 180.318 89.7261 180.447 89.5484 180.35L88.464 179.757C88.3784 179.71 88.3252 179.62 88.3252 179.523C88.3252 179.32 88.5421 179.192 88.7198 179.289L89.8042 179.882C89.8898 179.928 89.943 180.018 89.943 180.116Z" fill="#171753" stroke="#171753" stroke-width="0.301895"/>
<path d="M123.6 163.706C123.6 163.908 123.378 164.032 123.206 163.926L93.8724 145.898C93.7957 145.85 93.749 145.767 93.749 145.677C93.749 145.474 93.971 145.35 94.1436 145.456L123.477 163.485C123.554 163.532 123.6 163.616 123.6 163.706Z" fill="#171753" stroke="#171753" stroke-width="0.301895"/>
<path d="M113.998 163.154C113.998 163.357 113.776 163.481 113.603 163.375L93.8725 151.259C93.7958 151.212 93.749 151.128 93.749 151.038C93.749 150.836 93.971 150.711 94.1436 150.817L113.874 162.933C113.951 162.98 113.998 163.064 113.998 163.154Z" fill="#171753" stroke="#171753" stroke-width="0.301895"/>
<path d="M102.047 161.055C102.047 161.257 101.825 161.382 101.652 161.277L93.8742 156.563C93.7965 156.516 93.749 156.432 93.749 156.341C93.749 156.138 93.9704 156.014 94.1437 156.119L101.922 160.832C101.999 160.879 102.047 160.964 102.047 161.055Z" fill="#171753" stroke="#171753" stroke-width="0.301895"/>
<path d="M123.6 179.676C123.6 179.879 123.378 180.003 123.206 179.897L93.8724 161.868C93.7957 161.821 93.749 161.738 93.749 161.648C93.749 161.445 93.971 161.321 94.1436 161.427L123.477 179.456C123.554 179.503 123.6 179.586 123.6 179.676Z" fill="#171753" stroke="#171753" stroke-width="0.301895"/>
<path d="M111.18 177.301C111.18 177.504 110.958 177.628 110.785 177.522L93.873 167.174C93.796 167.127 93.749 167.043 93.749 166.953C93.749 166.75 93.9708 166.626 94.1436 166.732L111.056 177.08C111.133 177.127 111.18 177.211 111.18 177.301Z" fill="#171753" stroke="#171753" stroke-width="0.301895"/>
<path d="M111.18 182.607C111.18 182.81 110.958 182.934 110.785 182.829L93.8737 172.535C93.7963 172.488 93.749 172.404 93.749 172.313C93.749 172.111 93.9706 171.986 94.1436 172.091L111.055 182.386C111.133 182.433 111.18 182.517 111.18 182.607Z" fill="#171753" stroke="#171753" stroke-width="0.301895"/>
<path d="M114.781 190.178C114.781 190.38 114.559 190.504 114.386 190.399L93.8729 177.84C93.7959 177.793 93.749 177.709 93.749 177.619C93.749 177.416 93.9709 177.292 94.1436 177.398L114.657 189.957C114.734 190.004 114.781 190.087 114.781 190.178Z" fill="#171753" stroke="#171753" stroke-width="0.301895"/>
<path d="M104.656 189.347C104.656 189.549 104.434 189.673 104.262 189.566L93.8716 183.144C93.7954 183.097 93.749 183.014 93.749 182.924C93.749 182.722 93.9713 182.598 94.1435 182.704L104.534 189.127C104.61 189.174 104.656 189.257 104.656 189.347Z" fill="#171753" stroke="#171753" stroke-width="0.301895"/>
<path d="M147.907 179.168C147.907 179.371 147.685 179.495 147.512 179.39L128.513 167.825C128.436 167.778 128.389 167.694 128.389 167.603C128.389 167.401 128.61 167.276 128.783 167.381L147.782 178.947C147.86 178.994 147.907 179.078 147.907 179.168Z" fill="#171753" stroke="#171753" stroke-width="0.301895"/>
<path d="M138.618 178.615C138.618 178.817 138.396 178.942 138.223 178.836L119.224 167.216C119.147 167.169 119.1 167.086 119.1 166.995C119.1 166.793 119.321 166.668 119.494 166.774L138.494 178.394C138.571 178.441 138.618 178.524 138.618 178.615Z" fill="#171753" stroke="#171753" stroke-width="0.301895"/>
<path d="M126.717 176.515C126.717 176.717 126.495 176.842 126.322 176.736L107.375 165.172C107.298 165.124 107.251 165.041 107.251 164.95C107.251 164.748 107.473 164.623 107.646 164.729L126.593 176.293C126.67 176.34 126.717 176.424 126.717 176.515Z" fill="#171753" stroke="#171753" stroke-width="0.301895"/>
<path d="M147.072 188.672C147.072 188.875 146.851 188.999 146.678 188.893L127.73 177.274C127.653 177.227 127.606 177.143 127.606 177.053C127.606 176.851 127.828 176.726 128.001 176.832L146.949 188.451C147.026 188.498 147.072 188.582 147.072 188.672Z" fill="#171753" stroke="#171753" stroke-width="0.301895"/>
<path d="M147.907 195.14C147.907 195.342 147.685 195.467 147.512 195.361L128.513 183.796C128.436 183.749 128.389 183.665 128.389 183.574C128.389 183.372 128.61 183.247 128.783 183.353L147.782 194.918C147.86 194.965 147.907 195.049 147.907 195.14Z" fill="#171753" stroke="#171753" stroke-width="0.301895"/>
<path d="M135.38 192.485C135.38 192.688 135.158 192.812 134.986 192.706L116.038 181.088C115.961 181.04 115.914 180.957 115.914 180.867C115.914 180.664 116.136 180.54 116.309 180.646L135.256 192.265C135.333 192.312 135.38 192.395 135.38 192.485Z" fill="#171753" stroke="#171753" stroke-width="0.301895"/>
<path d="M135.38 197.791C135.38 197.994 135.158 198.118 134.986 198.013L116.038 186.448C115.961 186.401 115.914 186.317 115.914 186.226C115.914 186.024 116.136 185.899 116.309 186.005L135.256 197.57C135.333 197.617 135.38 197.701 135.38 197.791Z" fill="#171753" stroke="#171753" stroke-width="0.301895"/>
<path d="M139.296 205.97C139.296 206.172 139.074 206.297 138.901 206.191L119.901 194.571C119.824 194.524 119.777 194.441 119.777 194.35C119.777 194.148 119.999 194.023 120.172 194.129L139.172 205.748C139.249 205.796 139.296 205.879 139.296 205.97Z" fill="#171753" stroke="#171753" stroke-width="0.301895"/>
<path d="M129.535 205.362C129.535 205.565 129.313 205.689 129.141 205.583L110.193 193.964C110.116 193.917 110.069 193.834 110.069 193.744C110.069 193.541 110.291 193.417 110.464 193.523L129.412 205.142C129.489 205.189 129.535 205.272 129.535 205.362Z" fill="#171753" stroke="#171753" stroke-width="0.301895"/>
<path d="M205.391 328.933C205.317 328.933 205.317 328.933 205.244 328.859L177.597 312.903C175.979 311.8 175.023 310.036 175.023 308.05V236.433C175.023 236.286 175.023 236.213 175.097 236.066C175.465 233.419 178.626 231.948 181.053 233.345H181.126C181.126 233.345 181.2 233.345 181.2 233.419L208.773 249.374C210.391 250.404 211.347 252.242 211.347 254.154L211.273 325.55C211.273 325.697 211.273 325.844 211.273 325.918C211.053 328.712 207.891 330.403 205.391 328.933Z" fill="#8989C7"/>
<path d="M205.316 329.08L205.39 329.007L205.316 329.08C205.243 329.08 205.243 329.08 205.169 329.007L177.523 313.051C175.831 311.948 174.876 310.11 174.876 308.125V236.508C174.876 236.36 174.876 236.287 174.949 236.14C175.096 234.89 175.978 233.787 177.155 233.199C178.405 232.611 179.875 232.611 181.125 233.346H181.199C181.199 233.346 181.199 233.346 181.273 233.346L208.919 249.228C209.655 249.743 210.316 250.404 210.758 251.14C211.272 252.022 211.566 253.052 211.566 254.081L211.493 325.477C211.493 325.625 211.493 325.772 211.419 325.845C211.346 327.169 210.537 328.419 209.287 329.08C208.037 329.816 206.566 329.742 205.316 329.08ZM204.802 257.39C204.802 257.39 208.258 256.36 209.361 254.963C210.463 253.566 209.875 251.949 209.875 251.949C209.434 251.066 208.772 250.331 207.963 249.816L180.317 233.86C180.317 233.86 180.243 233.86 180.243 233.787H180.17C179.214 233.272 178.258 233.125 177.302 233.346C176.199 233.86 175.39 234.89 175.243 236.066C175.243 236.213 175.17 236.287 175.17 236.434V308.051C175.17 308.419 175.243 308.86 175.317 309.228C175.537 309.963 176.273 311.875 178.625 312.904C178.846 312.978 179.067 313.051 179.214 313.198C179.214 313.125 179.287 313.125 179.287 313.051L204.802 257.39Z" fill="#171753"/>
<path d="M210.686 262.61V261.507C210.686 261.213 210.465 261.066 210.097 261.286C209.803 261.433 209.509 261.875 209.509 262.169V263.272C209.509 263.566 209.73 263.713 210.097 263.492C210.465 263.345 210.686 262.904 210.686 262.61Z" fill="#8989C7"/>
<path d="M209.584 262.17C209.584 261.876 209.804 261.434 210.172 261.287C210.246 261.214 210.319 261.214 210.393 261.214C210.393 261.287 210.393 261.287 210.393 261.361V262.464C210.393 262.758 210.172 263.199 209.804 263.346C209.731 263.42 209.657 263.42 209.584 263.42C209.584 263.346 209.584 263.346 209.584 263.273V262.17Z" fill="#ECFFFE"/>
<path d="M210.393 261.14C210.246 261.14 210.173 261.214 210.099 261.214C209.731 261.434 209.511 261.802 209.511 262.17V263.272C209.511 263.346 209.511 263.346 209.511 263.42V263.493H209.584C209.658 263.493 209.731 263.42 209.805 263.42C210.173 263.199 210.393 262.831 210.393 262.464V261.361C210.467 261.287 210.393 261.287 210.393 261.14ZM209.658 262.17C209.658 261.875 209.878 261.508 210.173 261.361C210.173 261.361 210.246 261.361 210.32 261.361C210.32 261.361 210.32 261.361 210.32 261.434V262.537C210.32 262.831 210.099 263.199 209.805 263.346C209.731 263.346 209.731 263.42 209.658 263.42C209.658 263.42 209.658 263.42 209.658 263.346V262.17Z" fill="#171753"/>
<path d="M211.201 262.831C211.201 262.537 210.981 262.39 210.613 262.611C210.319 262.758 210.025 263.199 210.025 263.493C210.025 263.787 210.245 263.934 210.613 263.714C210.907 263.493 211.201 263.125 211.201 262.831Z" fill="#ECFFFE"/>
<path d="M211.201 262.61C211.201 262.537 211.127 262.537 211.054 262.463C210.907 262.39 210.76 262.39 210.539 262.537C210.171 262.757 209.951 263.125 209.951 263.493C209.951 263.64 210.024 263.787 210.098 263.86C210.245 263.934 210.392 263.934 210.613 263.787C210.98 263.566 211.274 263.199 211.274 262.831C211.274 262.757 211.274 262.61 211.201 262.61ZM210.171 263.64C210.171 263.566 210.171 263.566 210.171 263.493C210.171 263.199 210.392 262.831 210.686 262.684C210.833 262.61 210.98 262.61 211.054 262.61C211.127 262.684 211.127 262.757 211.127 262.831C211.127 263.125 210.907 263.493 210.613 263.64C210.466 263.713 210.319 263.713 210.171 263.64C210.245 263.64 210.171 263.64 210.171 263.64Z" fill="#171753"/>
<path d="M210.613 262.611C210.319 262.759 210.025 263.2 210.025 263.494C210.025 263.641 210.098 263.714 210.172 263.788L209.804 263.567C209.804 263.567 209.804 263.567 209.73 263.567C209.657 263.494 209.583 263.42 209.583 263.273C209.583 262.979 209.804 262.538 210.172 262.391C210.319 262.317 210.466 262.317 210.539 262.317L210.98 262.538C210.907 262.464 210.76 262.538 210.613 262.611Z" fill="#8989C7"/>
<path d="M211.055 262.463L210.614 262.243C210.614 262.243 210.614 262.243 210.54 262.243C210.393 262.169 210.246 262.243 210.099 262.316C209.731 262.537 209.511 262.905 209.511 263.272C209.511 263.419 209.511 263.566 209.658 263.64H209.731H209.805L210.246 263.86L210.319 263.713L210.246 263.64C210.172 263.566 210.172 263.493 210.172 263.419C210.172 263.125 210.393 262.758 210.687 262.611C210.834 262.537 210.908 262.537 210.981 262.537L211.055 262.463ZM210.54 262.39L210.687 262.463C210.687 262.463 210.614 262.463 210.614 262.537C210.246 262.758 210.025 263.125 210.025 263.493V263.566L209.878 263.493H209.805C209.805 263.493 209.731 263.419 209.731 263.272C209.731 262.978 209.952 262.611 210.246 262.463C210.319 262.39 210.393 262.39 210.54 262.39Z" fill="#171753"/>
<path d="M210.682 264.743C210.388 264.89 210.094 265.331 210.094 265.625V268.861C210.094 269.008 210.168 269.081 210.241 269.155L209.727 268.934H209.653C209.506 268.861 209.432 268.787 209.432 268.64V265.405C209.432 265.111 209.653 264.669 210.021 264.522C210.168 264.449 210.315 264.375 210.388 264.449L210.977 264.743C210.977 264.596 210.83 264.669 210.682 264.743Z" fill="#8989C7"/>
<path d="M211.125 264.596L210.537 264.302C210.39 264.228 210.243 264.302 210.096 264.375C209.728 264.596 209.507 264.964 209.507 265.331V268.567C209.507 268.787 209.654 268.934 209.728 268.934L210.243 269.228L210.316 269.081C210.243 269.008 210.243 268.934 210.243 268.861V265.625C210.243 265.331 210.463 264.964 210.757 264.817C210.904 264.743 210.978 264.743 211.051 264.743L211.125 264.596ZM209.654 268.714C209.654 268.714 209.654 268.64 209.654 268.567V265.331C209.654 265.037 209.875 264.67 210.169 264.523C210.316 264.449 210.39 264.449 210.463 264.449L210.757 264.596C210.757 264.596 210.684 264.596 210.684 264.67C210.316 264.89 210.022 265.258 210.022 265.625V268.861V268.934L209.728 268.787C209.728 268.787 209.728 268.787 209.654 268.714Z" fill="#171753"/>
<path d="M211.275 268.199V264.964C211.275 264.669 211.055 264.522 210.687 264.743C210.393 264.89 210.099 265.331 210.099 265.625V268.861C210.099 269.155 210.32 269.302 210.687 269.081C210.981 268.934 211.275 268.493 211.275 268.199Z" fill="#ECFFFE"/>
<path d="M211.273 264.743C211.273 264.669 211.199 264.669 211.126 264.596C210.979 264.522 210.832 264.522 210.611 264.669C210.317 264.89 210.023 265.257 210.023 265.625V268.86C210.023 269.007 210.097 269.154 210.17 269.228C210.317 269.302 210.464 269.302 210.685 269.154C211.052 268.934 211.273 268.566 211.273 268.199V264.963C211.347 264.89 211.347 264.816 211.273 264.743ZM210.244 269.007C210.244 268.934 210.244 268.934 210.244 268.86V265.625C210.244 265.331 210.464 264.963 210.758 264.816C210.905 264.743 211.052 264.743 211.126 264.743C211.199 264.816 211.199 264.89 211.199 264.963V268.199C211.199 268.493 210.979 268.86 210.685 269.007C210.538 269.081 210.391 269.081 210.244 269.007C210.317 269.007 210.244 269.007 210.244 269.007Z" fill="#171753"/>
<path d="M210.682 269.962C210.388 270.109 210.094 270.55 210.094 270.844V274.079C210.094 274.226 210.168 274.3 210.241 274.374L209.727 274.153H209.653C209.506 274.079 209.432 274.006 209.432 273.859V270.624C209.432 270.329 209.653 269.888 210.021 269.741C210.168 269.668 210.315 269.594 210.388 269.668L210.977 269.962C210.977 269.888 210.83 269.888 210.682 269.962Z" fill="#8989C7"/>
<path d="M211.125 269.816L210.463 269.522C210.316 269.448 210.169 269.522 210.022 269.595C209.654 269.816 209.434 270.183 209.434 270.551V273.786C209.434 274.007 209.581 274.154 209.654 274.154L210.169 274.448L210.243 274.301C210.169 274.228 210.169 274.154 210.169 274.08V270.845C210.169 270.551 210.39 270.183 210.684 270.036C210.831 269.963 210.904 269.963 210.978 269.963L211.125 269.816ZM209.654 273.933C209.654 273.933 209.654 273.86 209.654 273.786V270.551C209.654 270.257 209.875 269.889 210.169 269.742C210.316 269.669 210.39 269.669 210.463 269.669L210.757 269.816C210.757 269.816 210.684 269.816 210.684 269.889C210.316 270.11 210.022 270.551 210.022 270.845V274.08V274.154L209.728 274.007C209.728 274.007 209.654 274.007 209.654 273.933Z" fill="#171753"/>
<path d="M211.271 273.419V270.183C211.271 269.889 211.051 269.742 210.683 269.963C210.389 270.11 210.095 270.551 210.095 270.845V274.08C210.095 274.374 210.316 274.521 210.683 274.301C210.977 274.154 211.271 273.713 211.271 273.419Z" fill="#ECFFFE"/>
<path d="M211.273 269.963C211.273 269.889 211.199 269.889 211.126 269.816C210.979 269.742 210.832 269.742 210.611 269.889C210.317 270.11 210.023 270.551 210.023 270.845V274.081C210.023 274.228 210.097 274.375 210.17 274.448C210.317 274.522 210.464 274.522 210.685 274.375C211.052 274.154 211.273 273.786 211.273 273.419V270.184C211.347 270.11 211.347 270.036 211.273 269.963ZM210.244 274.228C210.244 274.154 210.244 274.154 210.244 274.081V270.845C210.244 270.551 210.464 270.184 210.758 270.036C210.905 269.963 211.052 269.963 211.126 269.963C211.199 270.036 211.199 270.11 211.199 270.184V273.419C211.199 273.713 210.979 274.081 210.685 274.228C210.464 274.301 210.391 274.375 210.244 274.228C210.244 274.301 210.244 274.228 210.244 274.228Z" fill="#171753"/>
<path d="M175.463 236.212V307.829C175.463 309.741 176.419 311.579 178.036 312.682L205.683 328.565C207.301 329.3 209.213 328.491 209.213 326.653L209.286 255.33C209.286 253.418 208.33 251.653 206.713 250.55L179.139 234.595C177.154 233.492 175.61 234.521 175.463 236.212Z" fill="#ECFFFE"/>
<path d="M208.47 252.684C208.025 251.948 207.432 251.287 206.616 250.772L178.805 234.816C177.84 234.228 176.876 234.154 176.135 234.596C175.467 234.963 175.022 235.625 174.948 236.507V308.124C174.948 310.11 175.912 311.948 177.618 313.051L205.504 328.933C206.394 329.374 207.506 329.301 208.248 328.786C208.915 328.345 209.212 327.757 209.212 326.948L209.286 255.625C209.286 254.522 208.989 253.566 208.47 252.684ZM175.171 236.507C175.245 235.699 175.616 235.11 176.209 234.743C176.876 234.375 177.766 234.449 178.73 234.963L206.542 250.919C208.1 251.948 209.064 253.713 209.064 255.625L208.989 327.021C208.989 327.757 208.693 328.345 208.1 328.713C207.358 329.154 206.394 329.227 205.578 328.86L177.692 312.904C176.061 311.874 175.096 310.036 175.096 308.124L175.171 236.507Z" fill="#171753" stroke="#171753" stroke-width="1.00203"/>
<path d="M204.802 326.727L178.111 311.213C177.009 310.478 176.273 309.154 176.273 307.831L176.42 237.61C176.494 236.434 177.597 235.699 178.994 236.508L184.435 239.669V240.625C184.435 241.728 185.097 243.052 185.979 243.566L198.038 250.552C198.847 251.066 199.582 250.552 199.582 249.375V248.419L205.611 252.022C206.714 252.757 207.376 254.007 207.376 255.331L207.302 325.404C207.302 326.654 205.905 327.389 204.802 326.727Z" fill="#8989C7"/>
<path d="M196.945 246.89L187.286 241.291C187.054 241.174 186.821 241.291 186.821 241.641C186.821 241.991 187.054 242.457 187.286 242.574L196.945 248.29C197.177 248.407 197.41 248.29 197.41 247.94C197.41 247.474 197.177 247.007 196.945 246.89Z" fill="#171753"/>
<path d="M196.943 247.357C196.827 247.24 196.71 247.007 196.594 247.007L186.936 241.407C186.819 241.291 186.587 241.291 186.47 241.407C186.354 241.524 186.238 241.641 186.238 241.991C186.238 242.457 186.47 242.924 186.819 243.04L196.478 248.757C196.594 248.873 196.827 248.873 196.943 248.757C197.059 248.64 197.176 248.523 197.176 248.173C197.176 247.823 197.059 247.59 196.943 247.357ZM186.587 242.341C186.47 242.224 186.47 241.991 186.47 241.757C186.47 241.641 186.47 241.524 186.587 241.524C186.703 241.524 186.703 241.524 186.819 241.524L196.478 247.123C196.71 247.24 196.943 247.707 196.943 247.94C196.943 248.057 196.943 248.173 196.827 248.29C196.71 248.29 196.71 248.29 196.594 248.29L186.936 242.691C186.819 242.574 186.703 242.574 186.587 242.341Z" fill="#171753"/>
<path d="M180.349 251.404C180.349 251.584 180.152 251.696 179.998 251.603L179.155 251.095C179.086 251.053 179.043 250.978 179.043 250.897C179.043 250.717 179.24 250.606 179.394 250.699L180.237 251.206C180.306 251.248 180.349 251.323 180.349 251.404Z" fill="#ECFFFE" stroke="#ECFFFE" stroke-width="0.301895"/>
<path d="M180.349 256.163C180.349 256.343 180.15 256.452 179.998 256.355L179.148 255.811C179.083 255.769 179.043 255.697 179.043 255.619C179.043 255.44 179.242 255.331 179.393 255.428L180.244 255.972C180.309 256.014 180.349 256.086 180.349 256.163Z" fill="#ECFFFE" stroke="#ECFFFE" stroke-width="0.301895"/>
<path d="M180.349 260.103C180.349 260.283 180.152 260.394 179.998 260.301L179.155 259.794C179.086 259.752 179.043 259.677 179.043 259.596C179.043 259.416 179.24 259.304 179.394 259.397L180.237 259.905C180.306 259.947 180.349 260.022 180.349 260.103Z" fill="#ECFFFE" stroke="#ECFFFE" stroke-width="0.301895"/>
<path d="M180.349 265.604C180.349 265.784 180.152 265.895 179.998 265.802L179.155 265.295C179.086 265.253 179.043 265.178 179.043 265.097C179.043 264.917 179.24 264.805 179.394 264.898L180.237 265.406C180.306 265.448 180.349 265.523 180.349 265.604Z" fill="#ECFFFE" stroke="#ECFFFE" stroke-width="0.301895"/>
<path d="M180.349 270.321C180.349 270.501 180.152 270.612 179.998 270.519L179.155 270.012C179.086 269.97 179.043 269.895 179.043 269.813C179.043 269.633 179.24 269.522 179.394 269.615L180.237 270.122C180.306 270.164 180.349 270.24 180.349 270.321Z" fill="#ECFFFE" stroke="#ECFFFE" stroke-width="0.301895"/>
<path d="M180.349 279.803C180.349 279.983 180.152 280.094 179.998 280.002L179.155 279.494C179.086 279.452 179.043 279.377 179.043 279.296C179.043 279.116 179.24 279.005 179.394 279.098L180.237 279.605C180.306 279.647 180.349 279.722 180.349 279.803Z" fill="#ECFFFE" stroke="#ECFFFE" stroke-width="0.301895"/>
<path d="M180.349 284.52C180.349 284.7 180.152 284.811 179.998 284.718L179.155 284.211C179.086 284.169 179.043 284.093 179.043 284.012C179.043 283.832 179.24 283.721 179.394 283.814L180.237 284.321C180.306 284.363 180.349 284.438 180.349 284.52Z" fill="#ECFFFE" stroke="#ECFFFE" stroke-width="0.301895"/>
<path d="M180.349 290.479C180.349 290.66 180.152 290.771 179.998 290.678L179.155 290.17C179.086 290.129 179.043 290.053 179.043 289.972C179.043 289.792 179.24 289.681 179.394 289.774L180.237 290.281C180.306 290.323 180.349 290.398 180.349 290.479Z" fill="#ECFFFE" stroke="#ECFFFE" stroke-width="0.301895"/>
<path d="M180.349 295.239C180.349 295.419 180.15 295.527 179.998 295.43L179.148 294.886C179.083 294.845 179.043 294.772 179.043 294.695C179.043 294.515 179.242 294.406 179.393 294.503L180.244 295.047C180.309 295.089 180.349 295.161 180.349 295.239Z" fill="#ECFFFE" stroke="#ECFFFE" stroke-width="0.301895"/>
<path d="M180.349 299.179C180.349 299.359 180.152 299.47 179.998 299.377L179.155 298.87C179.086 298.828 179.043 298.753 179.043 298.671C179.043 298.491 179.24 298.38 179.394 298.473L180.237 298.98C180.306 299.022 180.349 299.098 180.349 299.179Z" fill="#ECFFFE" stroke="#ECFFFE" stroke-width="0.301895"/>
<path d="M180.349 304.678C180.349 304.858 180.152 304.969 179.998 304.876L179.155 304.369C179.086 304.327 179.043 304.252 179.043 304.17C179.043 303.99 179.24 303.879 179.394 303.972L180.237 304.479C180.306 304.521 180.349 304.597 180.349 304.678Z" fill="#ECFFFE" stroke="#ECFFFE" stroke-width="0.301895"/>
<path d="M205.429 264.94C205.429 265.08 205.278 265.169 205.156 265.1L182.822 252.606C182.764 252.573 182.729 252.512 182.729 252.445C182.729 252.305 182.879 252.217 183.002 252.285L205.335 264.78C205.393 264.812 205.429 264.873 205.429 264.94Z" fill="#ECFFFE" stroke="#ECFFFE" stroke-width="0.301895"/>
<path d="M201.588 267.932C201.588 268.111 201.395 268.222 201.24 268.132L182.844 257.453C182.772 257.411 182.729 257.335 182.729 257.253C182.729 257.074 182.922 256.963 183.076 257.052L201.473 267.732C201.544 267.774 201.588 267.85 201.588 267.932Z" fill="#ECFFFE" stroke="#ECFFFE" stroke-width="0.301895"/>
<path d="M190.457 266.086C190.457 266.264 190.264 266.376 190.109 266.288L182.845 262.126C182.773 262.084 182.729 262.007 182.729 261.924C182.729 261.746 182.921 261.634 183.076 261.723L190.34 265.885C190.412 265.926 190.457 266.003 190.457 266.086Z" fill="#ECFFFE" stroke="#ECFFFE" stroke-width="0.301895"/>
<path d="M203.652 277.923C203.652 278.051 203.514 278.132 203.402 278.07L182.815 266.628C182.762 266.599 182.729 266.542 182.729 266.481C182.729 266.353 182.866 266.271 182.979 266.334L203.566 277.775C203.619 277.805 203.652 277.861 203.652 277.923Z" fill="#ECFFFE" stroke="#ECFFFE" stroke-width="0.301895"/>
<path d="M198.963 280.39C198.963 280.569 198.77 280.68 198.616 280.591L182.844 271.467C182.773 271.426 182.729 271.35 182.729 271.267C182.729 271.088 182.922 270.977 183.076 271.066L198.848 280.19C198.919 280.231 198.963 280.308 198.963 280.39Z" fill="#ECFFFE" stroke="#ECFFFE" stroke-width="0.301895"/>
<path d="M198.963 285.062C198.963 285.24 198.77 285.352 198.616 285.263L182.845 276.187C182.773 276.146 182.729 276.069 182.729 275.986C182.729 275.808 182.922 275.696 183.076 275.785L198.847 284.861C198.919 284.902 198.963 284.979 198.963 285.062Z" fill="#ECFFFE" stroke="#ECFFFE" stroke-width="0.301895"/>
<path d="M202.317 291.73C202.317 291.908 202.124 292.019 201.97 291.93L182.844 280.86C182.773 280.819 182.729 280.743 182.729 280.66C182.729 280.482 182.922 280.37 183.076 280.46L202.202 291.529C202.273 291.571 202.317 291.647 202.317 291.73Z" fill="#ECFFFE" stroke="#ECFFFE" stroke-width="0.301895"/>
<path d="M192.887 290.998C192.887 291.176 192.694 291.287 192.54 291.197L182.843 285.531C182.772 285.489 182.729 285.413 182.729 285.331C182.729 285.153 182.922 285.042 183.076 285.132L192.773 290.798C192.844 290.84 192.887 290.916 192.887 290.998Z" fill="#ECFFFE" stroke="#ECFFFE" stroke-width="0.301895"/>
<path d="M205.429 304.016C205.429 304.156 205.278 304.244 205.156 304.176L182.822 291.681C182.764 291.649 182.729 291.588 182.729 291.521C182.729 291.381 182.879 291.292 183.002 291.361L205.335 303.855C205.393 303.888 205.429 303.949 205.429 304.016Z" fill="#ECFFFE" stroke="#ECFFFE" stroke-width="0.301895"/>
<path d="M201.588 307.008C201.588 307.187 201.395 307.298 201.24 307.209L182.844 296.529C182.772 296.488 182.729 296.411 182.729 296.329C182.729 296.15 182.922 296.039 183.076 296.129L201.473 306.808C201.544 306.85 201.588 306.926 201.588 307.008Z" fill="#ECFFFE" stroke="#ECFFFE" stroke-width="0.301895"/>
<path d="M190.457 305.161C190.457 305.34 190.264 305.451 190.109 305.363L182.845 301.201C182.773 301.159 182.729 301.083 182.729 300.999C182.729 300.821 182.921 300.709 183.076 300.798L190.34 304.96C190.412 305.001 190.457 305.078 190.457 305.161Z" fill="#ECFFFE" stroke="#ECFFFE" stroke-width="0.301895"/>
<path d="M203.652 316.998C203.652 317.126 203.514 317.207 203.402 317.145L182.815 305.703C182.762 305.674 182.729 305.617 182.729 305.556C182.729 305.428 182.866 305.347 182.979 305.409L203.566 316.851C203.619 316.88 203.652 316.937 203.652 316.998Z" fill="#ECFFFE" stroke="#ECFFFE" stroke-width="0.301895"/>
<path d="M86.0672 40.8855V41.7548L85.2544 41.4465C81.6421 40.0762 78.5605 40.3919 76.4097 41.9737C74.2539 43.5591 72.8851 46.5248 72.9378 50.7658V50.7733V50.9837C72.9378 55.6869 74.656 60.9194 77.4506 65.5859C80.2447 70.2516 84.0819 74.296 88.2579 76.6532L88.3057 76.6802L88.3478 76.7155L125.141 107.482L125.257 107.417L126.537 106.704C127.608 106.108 129.067 105.296 130.613 104.435C133.705 102.712 137.15 100.793 138.56 100.004C141.128 98.5676 142.81 95.45 142.81 90.7451V90.4296C142.81 86.1879 141.41 81.4999 139.071 77.1856C136.734 72.8732 133.48 68.9747 129.818 66.2998L129.584 66.1289L129.573 65.8393C129.307 59.181 126.746 51.8906 122.758 45.4211C118.77 38.9527 113.387 33.3545 107.527 30.0489C101.557 26.7421 96.2507 26.3979 92.4801 28.3699L80.1261 35.2682L85.9773 37.1589L86.4394 37.3083L86.3896 37.7914C86.3487 38.1874 86.2973 38.5595 86.2476 38.9191C86.1544 39.593 86.0672 40.2231 86.0672 40.8855Z" fill="#5ED9D1" stroke="#171753" stroke-width="1.2"/>
<path d="M71.7954 48.459C72.3379 35.5208 82.1036 30.4717 94.1479 37.2038C106.192 43.9359 115.958 59.9246 116.5 73.494C123.987 78.9638 129.738 89.3776 129.738 98.1083V98.4238C129.738 108.101 122.794 111.993 114.113 107.155L74.1825 84.8544C65.6105 80.0157 58.666 68.3397 58.666 58.6623V58.3468C58.666 49.6161 64.3084 45.6189 71.7954 48.459Z" fill="#BEF0ED" stroke="#171753" stroke-width="1.2"/>
<path d="M335.688 93.3047V94.174L334.875 93.8657C332.449 92.9451 330.415 93.1692 329.012 94.2013C327.604 95.237 326.682 97.1949 326.717 100.053L326.717 100.053V100.061V100.205C326.717 103.375 327.877 106.917 329.774 110.084C331.67 113.251 334.27 115.988 337.088 117.579L337.136 117.606L337.178 117.641L362.218 138.579L363.058 138.112L365.843 136.561C367.956 135.384 370.31 134.072 371.273 133.534L371.566 134.057L371.273 133.534C372.948 132.597 374.08 130.545 374.08 127.373V127.157C374.08 124.298 373.135 121.126 371.548 118.198C369.962 115.273 367.756 112.632 365.281 110.823L365.047 110.652L365.035 110.363C364.855 105.853 363.119 100.903 360.406 96.5035C357.695 92.1047 354.038 88.3056 350.069 86.066C346.023 83.8254 342.469 83.6144 339.97 84.9201L331.912 89.4197L335.495 90.5775L335.957 90.7269L335.908 91.21C335.878 91.4956 335.842 91.7563 335.808 92.0042C335.745 92.4552 335.688 92.8642 335.688 93.3047Z" fill="#5ED9D1" stroke="#171753" stroke-width="1.2"/>
<path d="M325.746 98.4798C326.117 89.6393 332.79 86.1893 341.02 90.7893C349.249 95.3892 355.922 106.314 356.293 115.586C361.408 119.323 365.338 126.439 365.338 132.404V132.62C365.338 139.232 360.593 141.892 354.662 138.585L327.378 123.348C321.52 120.042 316.775 112.064 316.775 105.452V105.236C316.775 99.2704 320.631 96.5392 325.746 98.4798Z" fill="#BEF0ED" stroke="#171753" stroke-width="1.2"/>
<path d="M130.079 300.964V301.834L129.266 301.525C126.839 300.605 124.806 300.829 123.403 301.861C121.994 302.897 121.072 304.855 121.108 307.713L121.108 307.713V307.72V307.864C121.108 311.035 122.267 314.577 124.164 317.744C126.061 320.911 128.661 323.647 131.479 325.238L131.527 325.265L131.569 325.301L156.609 346.239L157.449 345.771L160.234 344.22C162.347 343.043 164.7 341.732 165.664 341.193L165.956 341.717L165.664 341.193C167.338 340.256 168.47 338.205 168.47 335.033V334.817C168.47 331.958 167.526 328.786 165.939 325.858C164.353 322.933 162.147 320.292 159.671 318.483L159.437 318.312L159.426 318.022C159.245 313.513 157.509 308.563 154.797 304.163C152.086 299.764 148.429 295.965 144.459 293.726C140.413 291.485 136.86 291.274 134.361 292.58L126.303 297.079L129.886 298.237L130.348 298.387L130.298 298.87C130.269 299.155 130.233 299.416 130.198 299.664C130.136 300.115 130.079 300.524 130.079 300.964Z" fill="#5ED9D1" stroke="#171753" stroke-width="1.2"/>
<path d="M120.137 306.139C120.508 297.299 127.181 293.849 135.41 298.449C143.64 303.049 150.313 313.974 150.683 323.245C155.799 326.983 159.729 334.098 159.729 340.064V340.28C159.729 346.892 154.983 349.551 149.052 346.245L121.768 331.008C115.911 327.702 111.166 319.724 111.166 313.111V312.896C111.166 306.93 115.021 304.199 120.137 306.139Z" fill="#BEF0ED" stroke="#171753" stroke-width="1.2"/>
<defs>
<linearGradient id="paint0_linear_3389_5111" x1="23.1779" y1="173.386" x2="456.041" y2="173.386" gradientUnits="userSpaceOnUse">
<stop stop-color="#BEF0ED"/>
<stop offset="1" stop-color="white"/>
</linearGradient>
</defs>
</svg>
