<svg width="745" height="374" viewBox="0 0 745 374" fill="none" xmlns="http://www.w3.org/2000/svg">
<ellipse cx="436.952" cy="-19.179" rx="416.221" ry="369.2" transform="rotate(-3.25681 436.952 -19.179)" fill="url(#paint0_linear_3504_5857)"/>
<g opacity="0.9">
<g opacity="0.6">
<g opacity="0.6">
<path opacity="0.6" d="M193.565 182.383L161.516 200.989L129.248 182.383L161.31 163.777L193.565 182.383Z" fill="#5ED9D1"/>
</g>
</g>
<g opacity="0.6">
<g opacity="0.6">
<path opacity="0.6" d="M375.167 260.407L343.104 279.013L310.85 260.407L342.899 241.801L375.167 260.407Z" fill="#5ED9D1"/>
</g>
</g>
<g opacity="0.6">
<g opacity="0.6">
<path opacity="0.6" d="M263.376 238.085L231.313 256.691L199.059 238.085L231.108 219.479L263.376 238.085Z" fill="#5ED9D1"/>
</g>
</g>
<g opacity="0.6">
<g opacity="0.6">
<path opacity="0.6" d="M263.376 180.969L231.313 199.575L199.059 180.969L231.108 162.363L263.376 180.969Z" fill="#5ED9D1"/>
</g>
</g>
<g opacity="0.6">
<g opacity="0.6">
<path opacity="0.6" d="M398.83 202.465L341.285 235.872L283.349 202.465L340.894 169.058L398.83 202.465Z" fill="#5ED9D1"/>
</g>
</g>
<g opacity="0.3">
<g opacity="0.3">
<path opacity="0.3" d="M140.458 260.413L121.51 271.4L102.447 260.413L121.382 249.414L140.458 260.413Z" fill="#5ED9D1"/>
</g>
</g>
<g opacity="0.3">
<g opacity="0.3">
<path opacity="0.3" d="M396.08 290.672L377.145 301.671L358.069 290.672L377.017 279.685L396.08 290.672Z" fill="#5ED9D1"/>
</g>
</g>
<g opacity="0.3">
<g opacity="0.3">
<path opacity="0.3" d="M196.764 118.226L177.816 129.212L158.753 118.226L177.701 107.226L196.764 118.226Z" fill="#5ED9D1"/>
</g>
</g>
<g opacity="0.3">
<g opacity="0.3">
<path opacity="0.3" d="M377.074 88.3768L358.139 99.3636L339.063 88.3768L358.011 77.3772L377.074 88.3768Z" fill="#5ED9D1"/>
</g>
</g>
<g opacity="0.9">
<g opacity="0.6">
<path opacity="0.3" d="M329.855 235.865L310.907 246.865L291.844 235.865L310.779 224.879L329.855 235.865Z" fill="#5ED9D1"/>
</g>
</g>
<g opacity="0.3">
<g opacity="0.3">
<path opacity="0.3" d="M436.881 142.832L417.933 153.832L398.87 142.832L417.805 131.833L436.881 142.832Z" fill="#5ED9D1"/>
</g>
</g>
<g opacity="0.3">
<g opacity="0.3">
<path opacity="0.3" d="M202.071 273.001L183.124 283.988L164.061 273.001L183.008 262.002L202.071 273.001Z" fill="#5ED9D1"/>
</g>
</g>
<g opacity="0.3">
<path opacity="0.3" d="M367.941 232.725L407.875 209.701L447.54 232.725L407.606 255.748L367.941 232.725Z" fill="#5ED9D1"/>
<g opacity="0.3">
<g opacity="0.3">
<path opacity="0.3" d="M367.94 232.725L407.861 209.701L447.526 232.725L407.605 255.749L367.94 232.725ZM444.885 232.725L407.861 211.238L370.594 232.725L407.618 254.212L444.885 232.725Z" fill="#5ED9D1"/>
</g>
</g>
</g>
<g opacity="0.3">
<path opacity="0.3" d="M367.956 174.294L407.89 151.258L447.554 174.294L407.633 197.318L367.956 174.294Z" fill="#5ED9D1"/>
<g opacity="0.3">
<g opacity="0.3">
<path opacity="0.3" d="M367.957 174.296L407.878 151.272L447.543 174.296L407.634 197.32L367.957 174.296ZM444.902 174.296L407.878 152.809L370.611 174.296L407.634 195.783L444.902 174.296Z" fill="#5ED9D1"/>
</g>
</g>
</g>
<g opacity="0.3">
<path opacity="0.3" d="M453.086 174.669L493.02 151.633L532.684 174.669L492.763 197.693L453.086 174.669Z" fill="#5ED9D1"/>
<g opacity="0.3">
<g opacity="0.3">
<path opacity="0.3" d="M453.088 174.671L493.009 151.648L532.674 174.671L492.765 197.695L453.088 174.671ZM530.033 174.671L493.009 153.184L455.742 174.671L492.765 196.158L530.033 174.671Z" fill="#5ED9D1"/>
</g>
</g>
</g>
<g opacity="0.3">
<path opacity="0.3" d="M364.957 125.145L404.891 102.121L444.556 125.145L404.634 148.169L364.957 125.145Z" fill="#5ED9D1"/>
<g opacity="0.3">
<g opacity="0.3">
<path opacity="0.3" d="M364.957 125.145L404.878 102.121L444.543 125.145L404.622 148.168L364.957 125.145ZM441.915 125.145L404.891 103.658L367.624 125.145L404.647 146.632L441.915 125.145Z" fill="#5ED9D1"/>
</g>
</g>
</g>
</g>
<path d="M594.455 132.78L403.525 26.8619C401.874 25.9374 400.223 25.8054 399.123 26.3336C392.107 29.3712 387.293 32.937 387.293 32.937L396.509 41.5213V173.324C396.509 178.343 399.673 184.286 403.662 186.531L589.091 289.279L582.625 292.317L587.302 299.316C587.302 299.316 593.08 297.863 599.545 292.449C600.921 291.524 601.746 289.675 601.746 287.034V145.854C601.608 140.836 598.445 134.893 594.455 132.78Z" fill="#171753"/>
<path d="M586.889 300.241L581.387 292.053L587.302 289.279L403.112 187.191C398.985 184.946 395.546 178.739 395.546 173.324V42.0496L385.917 33.0691L386.605 32.5408C386.742 32.4087 391.557 28.8429 398.572 25.8054C400.223 25.013 402.011 25.2771 403.8 26.2016L594.73 131.987C598.857 134.364 602.296 140.44 602.296 145.854V287.034C602.296 289.807 601.333 291.92 599.82 292.977C593.354 298.392 587.577 299.977 587.302 299.977L586.889 300.241ZM583.725 292.581L587.577 298.392C589.09 297.863 593.767 296.147 598.994 291.788C600.232 290.996 600.92 289.147 600.92 287.034V145.854C600.92 141.1 597.894 135.421 594.18 133.308L403.112 27.5222C401.736 26.7298 400.361 26.5978 399.398 27.126H399.26C394.033 29.3712 389.906 32.0125 388.393 33.2011L397.197 41.3893V173.324C397.197 178.079 400.223 183.758 403.937 185.871L590.741 289.411L583.725 292.581Z" fill="#171753"/>
<path d="M394.171 36.2385L396.509 103.064L518.386 170.683L590.053 130.27L407.239 28.9749L394.171 36.2385Z" fill="#171753"/>
<path d="M518.386 171.476L395.684 103.593L393.346 35.8428L407.239 28.1829L591.704 130.271L518.386 171.476ZM397.197 102.669L518.386 169.759L588.54 130.271L407.239 29.8997L394.996 36.6352L397.197 102.669Z" fill="#171753"/>
<path d="M544.935 291.524C544.523 289.808 543.285 288.355 541.772 287.43L534.343 283.336C526.778 279.11 520.588 268.809 520.588 260.489V213.209C520.588 213.209 520.588 213.077 520.45 213.077L513.022 208.983C512.884 208.85 512.747 208.983 512.747 209.115C513.297 210.964 513.71 212.812 513.71 214.661V248.867C513.71 250.98 513.297 252.697 512.472 254.017L511.646 248.471C511.646 248.338 511.509 248.338 511.509 248.338L495.965 250.055H495.827C492.526 245.961 490.325 240.679 490.325 236.056V201.851C490.325 200.002 490.738 198.417 491.288 197.229C491.288 197.097 491.288 197.096 491.288 196.964L483.722 192.738C483.585 192.738 483.447 192.738 483.447 192.87V239.754C483.447 248.206 477.119 251.772 469.554 247.414L461.85 243.188C461.025 242.792 460.475 242.66 459.925 242.924L459.787 243.056C459.787 243.056 452.772 245.697 445.343 251.112C445.206 251.112 445.206 251.244 445.343 251.376L451.121 256.395L522.513 294.43L529.529 302.354C529.529 302.354 529.666 302.486 529.666 302.354C530.767 301.958 539.295 298.788 544.385 294.034C544.935 293.637 545.21 292.713 544.935 291.524Z" fill="#BEF0ED"/>
<path d="M529.666 303.146C529.391 303.146 529.116 303.014 528.978 302.882L522.1 295.09L450.708 257.055L450.57 256.922L444.793 251.904C444.518 251.772 444.518 251.508 444.518 251.244C444.518 250.979 444.655 250.715 444.93 250.583C452.358 245.169 459.236 242.527 459.511 242.395H459.649C460.612 241.867 461.575 242.263 462.263 242.659L469.966 246.885C473.405 248.734 476.569 249.131 479.045 247.81C481.383 246.489 482.759 243.716 482.759 239.886V193.002C482.759 192.738 482.896 192.342 483.171 192.21C483.446 192.078 483.859 192.078 484.134 192.21L491.7 196.436C492.113 196.7 492.25 197.228 492.113 197.624C491.562 198.813 491.15 200.266 491.15 201.983V236.188C491.15 240.414 493.076 245.433 496.239 249.527L511.371 247.81C511.921 247.81 512.334 248.074 512.471 248.602L512.746 250.979C512.884 250.451 512.884 249.791 512.884 249.131V214.925C512.884 213.34 512.609 211.491 512.059 209.642C511.921 209.246 512.059 208.85 512.334 208.718C512.609 208.454 513.021 208.454 513.434 208.586L520.862 212.68C521.137 212.812 521.275 213.208 521.275 213.472V260.488C521.275 268.676 527.327 278.581 534.618 282.676L542.046 286.77C543.972 287.826 545.21 289.543 545.623 291.392C545.898 292.713 545.623 293.901 544.935 294.562C539.708 299.448 530.904 302.75 529.941 303.014C529.941 303.146 529.804 303.146 529.666 303.146ZM451.533 255.734L523.063 293.901L523.201 294.033L529.941 301.561C532.004 300.769 539.433 297.863 543.972 293.505C544.385 293.241 544.385 292.581 544.247 291.656C543.972 290.203 542.872 288.883 541.358 288.09L533.93 283.996C526.089 279.638 519.762 269.073 519.762 260.488V213.605L513.847 210.303C514.259 211.756 514.397 213.208 514.397 214.661V248.866C514.397 251.112 513.984 252.96 513.021 254.413L511.921 256.262L510.958 248.998L496.102 250.715C495.827 250.715 495.414 250.583 495.276 250.319C491.7 245.829 489.637 240.414 489.637 235.792V201.586C489.637 199.87 489.912 198.417 490.462 197.096L484.272 193.662V239.49C484.272 243.848 482.621 247.15 479.732 248.734C476.844 250.319 473.13 250.055 469.14 247.81L461.437 243.584C460.612 243.188 460.474 243.32 460.337 243.32L460.062 243.452C459.924 243.452 453.321 246.093 446.306 250.979L451.533 255.734Z" fill="#171753"/>
<path d="M529.668 303.278C529.393 303.278 529.117 303.146 528.98 303.014L524.44 297.863L529.393 297.203C530.355 296.807 538.746 293.373 543.836 289.411L544.524 288.883L545.074 289.543C545.624 290.203 545.624 290.467 545.762 290.996C545.762 291.128 545.762 291.26 545.899 291.524C546.175 292.845 545.899 294.033 545.212 294.694C539.984 299.58 531.181 302.882 530.218 303.146C529.943 303.278 529.805 303.278 529.668 303.278ZM527.467 298.92L529.943 301.693C532.006 300.901 539.434 297.995 543.974 293.637C544.386 293.373 544.386 292.713 544.249 291.788C544.249 291.524 544.111 291.392 544.111 291.128C538.471 295.09 530.218 298.391 529.943 298.523H529.805L527.467 298.92Z" fill="#171753"/>
<path d="M520.588 260.488V242.131C517.424 241.074 515.085 240.282 514.81 240.282C514.673 240.282 514.398 240.414 513.71 240.546V248.734C513.71 250.847 513.297 252.564 512.472 253.885L511.646 248.338C511.646 248.206 511.509 248.206 511.509 248.206L495.965 249.923H495.827C495.002 248.998 494.314 247.81 493.626 246.753C493.214 246.885 492.938 247.017 492.938 247.017L494.589 278.977L502.705 283.732L502.98 283.996L509.583 287.562L510.546 286.373C510.546 286.373 518.799 282.015 527.053 277.128C523.201 272.242 520.588 266.035 520.588 260.488Z" fill="#171753"/>
<path d="M527.601 295.882L519.622 291.392C512.056 287.166 506.004 276.997 506.004 268.676V221.264L498.026 216.906C498.713 218.887 499.126 220.868 499.126 222.849V257.054C499.126 264.186 493.899 267.092 487.434 263.526C480.968 259.96 475.741 251.244 475.741 244.112V209.907C475.741 208.058 476.154 206.473 476.842 205.152L468.863 200.794V248.206C468.863 256.526 462.811 259.96 455.245 255.734L447.267 251.244C445.754 250.319 444.378 251.111 444.378 252.828C444.378 254.545 445.616 256.658 447.267 257.583L527.738 302.221C529.251 303.146 530.627 302.353 530.627 300.637C530.489 298.92 529.251 296.807 527.601 295.882Z" fill="#BEF0ED"/>
<path d="M528.978 303.278C528.428 303.278 527.878 303.146 527.327 302.75L446.856 258.243C445.068 257.187 443.555 254.809 443.555 252.828C443.555 251.64 443.967 250.847 444.793 250.451C445.618 250.055 446.581 250.055 447.544 250.583L455.522 255.074C458.961 256.923 462.125 257.319 464.326 255.998C466.664 254.677 467.902 251.904 467.902 248.206V199.473L477.669 204.888L477.394 205.548C476.706 206.737 476.431 208.19 476.431 209.907V244.112C476.431 250.98 481.521 259.432 487.711 262.866C490.6 264.45 493.213 264.715 495.139 263.658C497.065 262.601 498.165 260.224 498.165 257.055V222.849C498.165 221.132 497.89 219.151 497.202 217.17L496.515 215.321L506.556 220.868V268.809C506.556 276.865 512.471 286.77 519.762 290.864L527.74 295.354C529.528 296.411 531.042 298.788 531.042 300.769C531.042 301.957 530.629 302.75 529.804 303.146C529.666 303.278 529.391 303.278 528.978 303.278ZM445.893 251.64C445.756 251.64 445.618 251.64 445.481 251.772C445.205 251.904 445.068 252.3 445.068 252.828C445.068 254.281 446.168 256.13 447.544 256.923L528.015 301.561C528.566 301.825 528.978 301.957 529.253 301.693C529.528 301.561 529.666 301.165 529.666 300.637C529.666 299.184 528.566 297.335 527.19 296.543L519.212 292.052C511.508 287.694 505.181 277.261 505.181 268.677V221.661L499.266 218.359C499.678 219.812 499.816 221.264 499.816 222.717V256.923C499.816 260.62 498.44 263.526 495.964 264.847C493.488 266.167 490.324 265.903 486.885 264.054C480.145 260.356 474.78 251.376 474.78 243.98V209.775C474.78 208.058 475.055 206.605 475.606 205.284L469.416 201.851V247.942C469.416 252.3 467.902 255.47 465.014 257.055C462.125 258.639 458.411 258.243 454.559 256.13L446.581 251.64C446.443 251.772 446.168 251.64 445.893 251.64Z" fill="#171753"/>
<path d="M475.739 209.907V244.112C475.739 251.244 480.966 259.96 487.432 263.526C493.897 267.092 499.124 264.186 499.124 257.055V222.849C499.124 221 498.711 218.887 498.024 216.906L502.15 219.151V206.077H476.289C475.877 207.265 475.739 208.454 475.739 209.907Z" fill="#BEF0ED"/>
<path d="M492.662 265.903C490.874 265.903 488.948 265.374 487.022 264.318C480.282 260.62 474.917 251.64 474.917 244.244V210.038C474.917 208.586 475.192 207.265 475.605 206.076L475.742 205.548H502.979V220.736L499.265 218.755C499.677 220.208 499.815 221.66 499.815 223.113V257.318C499.815 261.016 498.439 263.922 495.963 265.242C495 265.639 493.9 265.903 492.662 265.903ZM476.843 207.001C476.568 207.925 476.43 208.85 476.43 210.038V244.244C476.43 251.111 481.52 259.564 487.71 262.997C490.599 264.582 493.212 264.846 495.138 263.79C497.064 262.733 498.164 260.356 498.164 257.186V222.981C498.164 221.264 497.889 219.283 497.201 217.302L496.514 215.453L501.191 218.094V207.001H476.843Z" fill="#171753"/>
<path d="M492.937 206.208H476.292C475.88 207.265 475.742 208.586 475.742 209.906V244.112C475.742 249.394 478.631 255.602 482.758 259.96C486.884 260.224 489.911 257.318 489.911 251.904V217.698C489.911 215.849 489.498 213.736 488.81 211.755L492.937 214V206.208Z" fill="#171753"/>
<path d="M483.307 260.752C483.032 260.752 482.894 260.752 482.619 260.752H482.344L482.069 260.488C477.667 255.866 474.778 249.526 474.778 244.244V210.038C474.778 208.586 475.053 207.265 475.466 206.076L475.604 205.548H493.624V215.585L489.91 213.604C490.322 215.057 490.46 216.51 490.46 217.962V252.168C490.46 255.337 489.497 257.715 487.846 259.299C486.746 260.224 485.095 260.752 483.307 260.752ZM483.032 259.167C484.545 259.167 485.783 258.771 486.746 257.979C488.121 256.658 488.947 254.677 488.947 252.036V217.83C488.947 216.113 488.672 214.132 487.984 212.151L487.296 210.303L491.973 212.944V207.133H476.704C476.429 208.057 476.291 208.982 476.291 210.17V244.376C476.429 249.13 479.043 254.941 483.032 259.167Z" fill="#171753"/>
<path d="M479.595 208.058V242.263C479.595 249.395 484.822 258.111 491.287 261.677C493.351 262.866 495.276 263.262 497.065 263.13C498.303 261.809 499.128 259.696 499.128 256.923V222.717C499.128 220.868 498.715 218.755 498.028 216.774L502.154 219.019V215.454C502.154 215.189 502.017 215.057 502.017 214.793L502.154 214.925V205.813H479.87C479.732 206.737 479.595 207.398 479.595 208.058Z" fill="#BEF0ED"/>
<path d="M496.652 264.054C494.864 264.054 492.938 263.526 491.012 262.469C484.272 258.771 478.907 249.791 478.907 242.395V208.19C478.907 207.529 478.907 206.869 479.045 206.209L479.182 205.548H503.117V220.736L499.403 218.755C499.816 220.208 499.954 221.661 499.954 223.113V257.319C499.954 260.092 499.128 262.337 497.753 263.922L497.478 264.186H497.202C496.927 264.054 496.79 264.054 496.652 264.054ZM480.558 207.001C480.558 207.397 480.558 207.793 480.558 208.19V242.395C480.558 249.263 485.648 257.715 491.838 261.149C493.626 262.073 495.277 262.601 496.79 262.601C497.89 261.281 498.44 259.432 498.44 257.187V222.981C498.44 221.264 498.165 219.283 497.478 217.302L496.79 215.453L501.467 218.095V215.85C501.467 215.718 501.467 215.585 501.329 215.453L500.641 213.604L501.467 214.001V207.001H480.558Z" fill="#171753"/>
<path d="M548.235 164.343L546.034 265.903L587.989 289.147L601.608 281.619V146.382C601.608 143.081 600.232 139.515 598.306 136.874L574.784 149.948L548.235 164.343Z" fill="#171753"/>
<path d="M587.99 290.071L545.209 266.299V265.903L547.41 163.947L574.371 149.156L598.581 135.817L598.994 136.345C601.195 139.251 602.433 143.081 602.433 146.382V282.147L587.99 290.071ZM546.86 265.507L587.99 288.354L600.782 281.355V146.382C600.782 143.609 599.819 140.439 598.031 137.798L575.059 150.476L548.923 164.74L546.86 265.507Z" fill="#171753"/>
<path d="M582.901 298.788L391.97 193.002C387.981 190.757 384.817 184.946 384.817 179.795V38.6158C384.817 33.5972 387.981 31.22 391.97 33.4652L582.901 139.251C586.89 141.496 590.054 147.307 590.054 152.458V293.637C590.054 298.656 586.89 301.033 582.901 298.788Z" fill="#ECFFFE"/>
<path d="M585.79 300.372C584.827 300.372 583.726 300.108 582.488 299.448L391.558 193.662C387.431 191.417 383.992 185.21 383.992 179.795V38.6156C383.992 35.7101 385.093 33.465 386.881 32.4084C388.394 31.484 390.32 31.616 392.383 32.8046L583.314 138.59C587.44 140.835 590.879 147.043 590.879 152.457V293.637C590.879 296.543 589.779 298.788 587.991 299.844C587.303 300.24 586.477 300.372 585.79 300.372ZM583.314 298.259C584.827 299.052 586.202 299.184 587.165 298.656C588.541 297.863 589.229 296.146 589.229 293.769V152.457C589.229 147.703 586.202 142.024 582.488 139.911L391.558 34.1253C390.045 33.3329 388.669 33.2008 387.706 33.7291C386.331 34.5215 385.643 36.2384 385.643 38.6156V179.927C385.643 184.682 388.669 190.361 392.383 192.474L583.314 298.259Z" fill="#171753"/>
<path d="M582.214 283.864L392.659 178.739C391.559 178.078 390.596 176.494 390.596 175.041V41.6532C390.596 40.2004 391.559 39.5401 392.659 40.2004L582.352 145.326C583.452 145.986 584.415 147.571 584.415 149.024V282.411C584.277 283.864 583.314 284.524 582.214 283.864Z" fill="#BEF0ED"/>
<path d="M583.039 284.789C582.627 284.789 582.214 284.657 581.801 284.393L392.247 179.399C390.871 178.607 389.771 176.758 389.771 175.041V41.6533C389.771 40.5968 390.183 39.8044 390.871 39.4082C391.421 39.012 392.247 39.144 392.934 39.5402L582.627 144.666C584.002 145.458 585.103 147.307 585.103 149.024V282.412C585.103 283.468 584.69 284.26 584.002 284.657C583.727 284.789 583.452 284.789 583.039 284.789ZM582.627 283.204C582.764 283.204 583.039 283.336 583.177 283.336C583.315 283.204 583.452 282.94 583.452 282.412V149.024C583.452 147.835 582.627 146.382 581.801 145.986L392.247 40.7288C392.109 40.7288 391.834 40.5968 391.696 40.5968C391.559 40.7288 391.421 40.993 391.421 41.5212V174.909C391.421 176.098 392.247 177.55 393.072 177.947L582.627 283.204Z" fill="#171753"/>
<path d="M584.002 282.807L394.447 177.682C393.347 177.022 392.384 175.437 392.384 173.984V40.5966C392.384 40.4645 392.384 40.2004 392.384 40.0683C391.421 39.6721 390.596 40.3324 390.596 41.6531V175.041C390.596 176.494 391.559 178.21 392.659 178.739L582.352 283.864C583.314 284.392 584.14 283.996 584.415 282.94C584.14 282.808 584.14 282.807 584.002 282.807Z" fill="#171753"/>
<path d="M583.039 284.789C582.627 284.789 582.214 284.657 581.801 284.393L392.247 179.399C390.871 178.607 389.771 176.758 389.771 175.041V41.6533C389.771 40.7289 390.183 39.9365 390.733 39.5403C391.284 39.1441 391.971 39.1441 392.659 39.4082L393.209 39.6723V40.0685C393.209 40.2006 393.209 40.3327 393.209 40.4647V173.852C393.209 175.041 394.035 176.494 394.86 176.89L584.415 282.147L584.002 282.808L584.415 282.147L585.103 282.412V283.072C584.965 283.864 584.553 284.393 583.865 284.657C583.59 284.789 583.315 284.789 583.039 284.789ZM391.559 40.7289C391.421 40.8609 391.421 41.1251 391.421 41.5213V174.909C391.421 176.098 392.247 177.55 393.072 177.947L582.764 283.072C583.039 283.204 583.177 283.204 583.315 283.204C583.315 283.204 583.315 283.204 583.452 283.204L394.035 178.343C392.659 177.55 391.559 175.701 391.559 173.984V40.7289Z" fill="#171753"/>
<path d="M494.312 243.584L480.557 235.924C480.006 235.528 479.456 234.735 479.456 233.943C479.456 233.151 480.006 232.754 480.557 233.151L494.312 240.81C494.863 241.207 495.413 241.999 495.413 242.791C495.413 243.584 494.863 243.98 494.312 243.584Z" fill="#171753"/>
<path d="M494.725 244.508C494.45 244.508 494.175 244.376 493.9 244.244L480.144 236.584C479.319 236.056 478.631 235 478.631 233.943C478.631 233.283 478.906 232.754 479.456 232.49C479.869 232.226 480.419 232.226 480.969 232.49L494.725 240.15C495.55 240.678 496.238 241.735 496.238 242.792C496.238 243.452 495.963 243.98 495.413 244.244C495.138 244.376 495 244.508 494.725 244.508ZM480.282 233.811C480.282 233.943 480.282 233.943 480.282 233.811C480.282 234.471 480.694 235.132 480.969 235.264L494.588 242.792V242.659C494.588 242.131 494.175 241.471 493.9 241.339L480.282 233.811Z" fill="#171753"/>
<path d="M481.983 253.225L479.24 254.74L479.995 255.999L482.737 254.485L481.983 253.225Z" fill="#BEF0ED"/>
<path d="M597.479 251.243L594.178 253.092C593.627 253.357 593.077 253.092 593.077 252.3V243.716C593.077 242.923 593.49 242.131 594.178 241.735L597.479 239.886C598.029 239.622 598.579 239.886 598.579 240.678V249.262C598.579 250.055 598.029 250.979 597.479 251.243Z" fill="#171753"/>
<path d="M597.479 234.471L594.178 236.32C593.627 236.584 593.077 236.32 593.077 235.528V226.943C593.077 226.151 593.49 225.359 594.178 224.962L597.479 223.113C598.029 222.849 598.579 223.113 598.579 223.906V232.49C598.579 233.151 598.029 234.075 597.479 234.471Z" fill="#171753"/>
<path d="M399.467 171.562L391.247 176.118L392.004 177.376L400.223 172.82L399.467 171.562Z" fill="#BEF0ED"/>
<path d="M423.907 43.4302L423.15 44.6882L560.263 120.693L561.02 119.435L423.907 43.4302Z" fill="#171753"/>
<path d="M404.35 57.6405C404.35 58.1233 403.843 58.438 403.41 58.2236L400.448 56.7556C400.226 56.6458 400.086 56.4198 400.086 56.1724C400.086 55.6896 400.593 55.3749 401.026 55.5892L403.988 57.0573C404.21 57.1671 404.35 57.3931 404.35 57.6405Z" fill="#171753" stroke="#171753" stroke-width="0.5"/>
<path d="M404.35 70.4354C404.35 70.9191 403.836 71.2294 403.408 71.0041L400.429 69.4357C400.218 69.3246 400.086 69.1056 400.086 68.867C400.086 68.3833 400.6 68.0729 401.028 68.2983L404.007 69.8666C404.218 69.9778 404.35 70.1968 404.35 70.4354Z" fill="#171753" stroke="#171753" stroke-width="0.5"/>
<path d="M404.35 83.129C404.35 83.6118 403.843 83.9265 403.41 83.7122L400.448 82.2441C400.226 82.1343 400.086 81.9083 400.086 81.6609C400.086 81.1781 400.593 80.8634 401.026 81.0778L403.988 82.5458C404.21 82.6556 404.35 82.8816 404.35 83.129Z" fill="#171753" stroke="#171753" stroke-width="0.5"/>
<path d="M404.35 95.8077C404.35 96.2905 403.843 96.6052 403.41 96.3909L400.448 94.9228C400.226 94.813 400.086 94.587 400.086 94.3396C400.086 93.8568 400.593 93.5421 401.026 93.7565L403.988 95.2245C404.21 95.3344 404.35 95.5603 404.35 95.8077Z" fill="#171753" stroke="#171753" stroke-width="0.5"/>
<path d="M404.35 108.486C404.35 108.969 403.843 109.284 403.41 109.069L400.448 107.601C400.226 107.491 400.086 107.265 400.086 107.018C400.086 106.535 400.593 106.221 401.026 106.435L403.988 107.903C404.21 108.013 404.35 108.239 404.35 108.486Z" fill="#171753" stroke="#171753" stroke-width="0.5"/>
<path d="M404.35 133.975C404.35 134.458 403.843 134.773 403.41 134.559L400.448 133.091C400.226 132.981 400.086 132.755 400.086 132.507C400.086 132.025 400.593 131.71 401.026 131.924L403.988 133.392C404.21 133.502 404.35 133.728 404.35 133.975Z" fill="#171753" stroke="#171753" stroke-width="0.5"/>
<path d="M404.35 146.654C404.35 147.137 403.843 147.451 403.41 147.237L400.448 145.769C400.226 145.659 400.086 145.433 400.086 145.186C400.086 144.703 400.593 144.388 401.026 144.603L403.988 146.071C404.21 146.181 404.35 146.407 404.35 146.654Z" fill="#171753" stroke="#171753" stroke-width="0.5"/>
<path d="M404.35 159.42C404.35 159.863 403.886 160.151 403.489 159.955L400.441 158.444C400.223 158.336 400.086 158.115 400.086 157.872C400.086 157.392 400.596 157.084 401.021 157.308L404.032 158.893C404.228 158.996 404.35 159.199 404.35 159.42Z" fill="#171753" stroke="#171753" stroke-width="0.5"/>
<path d="M404.35 172.143C404.35 172.626 403.843 172.94 403.41 172.726L400.448 171.258C400.226 171.148 400.086 170.922 400.086 170.675C400.086 170.192 400.593 169.877 401.026 170.092L403.988 171.56C404.21 171.67 404.35 171.896 404.35 172.143Z" fill="#171753" stroke="#171753" stroke-width="0.5"/>
<path d="M486.885 103.701C486.885 104.185 486.365 104.491 485.942 104.255L408.528 61.1161C408.327 61.0041 408.202 60.792 408.202 60.5619C408.202 60.0777 408.723 59.7719 409.146 60.0076L486.56 103.147C486.761 103.259 486.885 103.471 486.885 103.701Z" fill="#171753" stroke="#171753" stroke-width="0.5"/>
<path d="M461.575 102.38C461.575 102.865 461.054 103.17 460.631 102.935L408.528 73.9264C408.327 73.8144 408.202 73.6022 408.202 73.3719C408.202 72.8878 408.722 72.5819 409.145 72.8174L461.249 101.826C461.45 101.938 461.575 102.15 461.575 102.38Z" fill="#171753" stroke="#171753" stroke-width="0.5"/>
<path d="M430.074 97.3654C430.074 97.8495 429.555 98.1564 429.131 97.9233L408.532 86.6048C408.329 86.4929 408.202 86.2791 408.202 86.0469C408.202 85.5628 408.721 85.2558 409.145 85.489L429.744 96.8075C429.947 96.9193 430.074 97.1331 430.074 97.3654Z" fill="#171753" stroke="#171753" stroke-width="0.5"/>
<path d="M486.885 141.868C486.885 142.352 486.365 142.658 485.942 142.422L408.528 99.2834C408.327 99.1714 408.202 98.9593 408.202 98.7291C408.202 98.245 408.723 97.9392 409.146 98.1749L486.56 141.314C486.761 141.426 486.885 141.638 486.885 141.868Z" fill="#171753" stroke="#171753" stroke-width="0.5"/>
<path d="M454.147 136.191C454.147 136.675 453.627 136.981 453.203 136.746L408.529 111.962C408.327 111.85 408.202 111.637 408.202 111.407C408.202 110.922 408.722 110.616 409.145 110.851L453.819 135.635C454.021 135.747 454.147 135.96 454.147 136.191Z" fill="#171753" stroke="#171753" stroke-width="0.5"/>
<path d="M454.147 148.87C454.147 149.355 453.627 149.661 453.203 149.427L408.531 124.772C408.328 124.66 408.202 124.447 408.202 124.216C408.202 123.731 408.722 123.425 409.145 123.659L453.818 148.314C454.021 148.426 454.147 148.639 454.147 148.87Z" fill="#171753" stroke="#171753" stroke-width="0.5"/>
<path d="M463.638 166.962C463.638 167.446 463.118 167.752 462.695 167.517L408.529 137.451C408.327 137.339 408.202 137.126 408.202 136.896C408.202 136.411 408.722 136.105 409.145 136.34L463.311 166.407C463.513 166.519 463.638 166.731 463.638 166.962Z" fill="#171753" stroke="#171753" stroke-width="0.5"/>
<path d="M436.952 164.979C436.952 165.463 436.431 165.768 436.008 165.532L408.526 150.13C408.326 150.018 408.202 149.806 408.202 149.577C408.202 149.093 408.723 148.787 409.146 149.024L436.628 164.426C436.828 164.538 436.952 164.75 436.952 164.979Z" fill="#171753" stroke="#171753" stroke-width="0.5"/>
<path d="M486.885 205.393C486.885 205.877 486.365 206.183 485.942 205.947L408.499 162.791C408.316 162.69 408.202 162.497 408.202 162.287C408.202 161.847 408.675 161.568 409.06 161.782L486.559 204.839C486.76 204.951 486.885 205.163 486.885 205.393Z" fill="#171753" stroke="#171753" stroke-width="0.5"/>
<path d="M440.253 192.186C440.253 192.671 439.733 192.977 439.31 192.741L408.528 175.618C408.327 175.506 408.202 175.294 408.202 175.064C408.202 174.579 408.722 174.274 409.145 174.509L439.927 191.632C440.128 191.744 440.253 191.956 440.253 192.186Z" fill="#171753" stroke="#171753" stroke-width="0.5"/>
<path d="M540.394 133.551C540.394 134.035 539.875 134.341 539.451 134.108L489.276 106.415C489.073 106.303 488.947 106.09 488.947 105.858C488.947 105.374 489.467 105.068 489.89 105.302L540.065 132.994C540.268 133.106 540.394 133.319 540.394 133.551Z" fill="#171753" stroke="#171753" stroke-width="0.5"/>
<path d="M515.909 132.229C515.909 132.713 515.389 133.019 514.965 132.784L464.789 104.962C464.587 104.85 464.462 104.638 464.462 104.407C464.462 103.923 464.982 103.616 465.405 103.851L515.581 131.673C515.783 131.785 515.909 131.998 515.909 132.229Z" fill="#171753" stroke="#171753" stroke-width="0.5"/>
<path d="M484.546 127.211C484.546 127.695 484.027 128.001 483.603 127.767L433.565 100.076C433.363 99.9641 433.237 99.7512 433.237 99.52C433.237 99.0358 433.757 98.7295 434.181 98.9639L484.219 126.655C484.421 126.767 484.546 126.98 484.546 127.211Z" fill="#171753" stroke="#171753" stroke-width="0.5"/>
<path d="M538.193 156.264C538.193 156.749 537.673 157.054 537.25 156.819L487.21 128.999C487.009 128.887 486.884 128.674 486.884 128.444C486.884 127.96 487.404 127.654 487.827 127.889L537.867 155.71C538.068 155.822 538.193 156.034 538.193 156.264Z" fill="#171753" stroke="#171753" stroke-width="0.5"/>
<path d="M540.394 171.718C540.394 172.202 539.875 172.509 539.451 172.275L489.276 144.583C489.073 144.471 488.947 144.257 488.947 144.026C488.947 143.542 489.467 143.235 489.89 143.469L540.065 171.162C540.268 171.273 540.394 171.487 540.394 171.718Z" fill="#171753" stroke="#171753" stroke-width="0.5"/>
<path d="M507.379 165.377C507.379 165.861 506.859 166.167 506.436 165.932L456.397 138.111C456.195 137.999 456.07 137.787 456.07 137.556C456.07 137.072 456.59 136.766 457.014 137.002L507.053 164.822C507.255 164.934 507.379 165.146 507.379 165.377Z" fill="#171753" stroke="#171753" stroke-width="0.5"/>
<path d="M507.379 178.057C507.379 178.541 506.86 178.847 506.436 178.613L456.398 150.922C456.196 150.81 456.07 150.597 456.07 150.366C456.07 149.882 456.59 149.575 457.014 149.81L507.052 177.501C507.254 177.613 507.379 177.826 507.379 178.057Z" fill="#171753" stroke="#171753" stroke-width="0.5"/>
<path d="M517.695 197.602C517.695 198.086 517.175 198.393 516.751 198.158L466.575 170.336C466.373 170.224 466.248 170.011 466.248 169.78C466.248 169.296 466.768 168.99 467.191 169.225L517.368 197.047C517.569 197.159 517.695 197.371 517.695 197.602Z" fill="#171753" stroke="#171753" stroke-width="0.5"/>
<path d="M491.973 196.149C491.973 196.633 491.453 196.939 491.03 196.704L440.99 168.883C440.789 168.771 440.664 168.559 440.664 168.328C440.664 167.844 441.184 167.538 441.607 167.773L491.647 195.594C491.848 195.706 491.973 195.918 491.973 196.149Z" fill="#171753" stroke="#171753" stroke-width="0.5"/>
<path d="M540.394 235.374C540.394 235.858 539.874 236.164 539.451 235.929L489.274 208.107C489.073 207.995 488.947 207.783 488.947 207.552C488.947 207.068 489.467 206.761 489.891 206.996L540.067 234.818C540.269 234.93 540.394 235.143 540.394 235.374Z" fill="#171753" stroke="#171753" stroke-width="0.5"/>
<path d="M495.689 223.091C495.689 223.575 495.169 223.881 494.746 223.645L444.706 195.825C444.505 195.713 444.38 195.5 444.38 195.27C444.38 194.786 444.9 194.48 445.323 194.715L495.363 222.536C495.564 222.648 495.689 222.86 495.689 223.091Z" fill="#171753" stroke="#171753" stroke-width="0.5"/>
<path d="M362.056 152.049L362.056 152.049L362.049 152.045L262.134 92.3031C260.887 91.5578 259.879 91.5517 259.221 91.9267C258.564 92.3018 258.043 93.1802 258.043 94.6764L258.043 94.6792L257.694 168.634C257.694 168.635 257.694 168.635 257.694 168.635C257.694 170.132 258.203 171.833 259.051 173.365C259.901 174.897 261.059 176.203 262.302 176.946L262.302 176.946L362.217 236.688C362.217 236.688 362.217 236.688 362.217 236.688C363.464 237.433 364.472 237.439 365.13 237.064C365.787 236.689 366.308 235.811 366.308 234.315L366.308 234.311L366.745 160.357C366.745 160.356 366.745 160.356 366.745 160.355C366.744 158.859 366.236 157.159 365.378 155.629C364.519 154.098 363.341 152.793 362.056 152.049Z" fill="#F5F5F5" stroke="#171753" stroke-width="1.17863"/>
<path d="M270.878 186.737H267.993V182.689H270.878V186.737Z" fill="#F5F5F5"/>
<path d="M260.746 183.316L260.863 183.12L260.746 183.316C259.435 182.532 257.686 182.133 255.924 182.133C254.163 182.133 252.414 182.532 251.103 183.316L251.103 183.316L251.092 183.322L180.496 220.596V227.016C180.578 227.914 181.136 228.842 182.396 229.621C182.397 229.621 182.397 229.621 182.398 229.622L282.397 289.362L282.28 289.558L282.397 289.362C283.708 290.146 285.457 290.545 287.22 290.556C288.982 290.567 290.732 290.19 292.044 289.45C292.044 289.45 292.045 289.45 292.046 289.449L360.658 248.696C360.659 248.696 360.659 248.695 360.66 248.695C361.92 247.916 362.478 246.988 362.56 246.091V239.761H360.482V242.502V242.904L360.137 242.698L260.746 183.316Z" fill="#171753" stroke="#171753" stroke-width="0.456397"/>
<path d="M269.743 182.742L268.705 183.324L267.816 183.824L268.692 184.345L341.334 227.532L341.635 227.711L341.937 227.531L343.295 226.722L360.563 237.068L360.57 237.072L360.576 237.076C361.808 237.771 362.309 238.659 362.309 239.453C362.309 240.251 361.803 241.164 360.564 241.905L291.945 282.662L291.943 282.663C290.702 283.405 289.022 283.793 287.311 283.782C285.599 283.772 283.922 283.362 282.682 282.58L282.676 282.576L282.67 282.573L182.668 222.83C181.429 222.09 180.923 221.176 180.923 220.378C180.923 219.585 181.424 218.696 182.656 218.001L182.667 217.995L182.667 217.995L251.287 177.237L251.288 177.236C252.53 176.494 254.211 176.105 255.925 176.105C257.639 176.105 259.319 176.494 260.561 177.236L269.743 182.742ZM269.743 182.742L260.562 177.236L269.743 182.742Z" fill="#F5F5F5" stroke="#171753" stroke-width="1.17863"/>
<path d="M260.95 90.1781C261.387 89.9082 261.911 89.6383 262.348 89.3683C263.223 88.8285 264.534 88.9185 265.845 89.7282L365.847 149.47C368.557 151.09 370.742 155.049 370.742 158.288L370.393 232.156C370.393 233.775 369.868 234.855 368.906 235.395C367.683 236.114 366.546 236.834 365.41 237.464C366.284 236.924 366.809 235.844 366.809 234.225L367.246 160.447C367.246 157.208 365.06 153.249 362.35 151.63L262.348 91.7976C260.95 90.9879 259.726 90.8979 258.852 91.4377C258.939 91.3477 260.425 90.448 260.95 90.1781Z" fill="#171753"/>
<path d="M259.642 196.888L252.648 201.026L259.816 205.345L266.81 201.206L259.642 196.888Z" fill="#171753"/>
<path d="M248.539 200.396L241.633 204.445L248.801 208.763L255.707 204.714L248.539 200.396Z" fill="#171753"/>
<path d="M238.574 194.909L230.531 199.678L225.898 202.377L223.538 203.817L235.689 211.014L242.595 206.966L238.923 204.716L246.878 199.948L238.574 194.909Z" fill="#171753"/>
<path d="M256.579 205.253L249.673 209.302L256.841 213.621L263.747 209.572L256.579 205.253Z" fill="#171753"/>
<path d="M221.963 204.716L215.058 208.855L229.831 217.762L236.736 213.623L221.963 204.716Z" fill="#171753"/>
<path d="M237.434 214.073L230.529 218.122L241.718 224.87L248.711 220.731L237.434 214.073Z" fill="#171753"/>
<path d="M259.553 217.131L252.647 221.27L259.815 225.589L266.721 221.45L259.553 217.131Z" fill="#171753"/>
<path d="M255.967 184.562L249.062 188.701L256.23 193.019L263.223 188.88L255.967 184.562Z" fill="#171753"/>
<path d="M264.535 189.689L257.629 193.828L264.797 198.147L271.703 194.008L264.535 189.689Z" fill="#171753"/>
<path d="M247.489 189.6L240.583 193.739L251.685 200.397L258.591 196.348L247.489 189.6Z" fill="#171753"/>
<path d="M273.098 194.819L266.105 198.958L273.272 203.277L280.266 199.138L273.098 194.819Z" fill="#171753"/>
<path d="M281.579 200.038L274.673 204.087L281.841 208.406L288.747 204.357L281.579 200.038Z" fill="#171753"/>
<path d="M267.767 201.835L260.861 205.884L268.029 210.203L274.935 206.064L267.767 201.835Z" fill="#171753"/>
<path d="M290.145 205.164L283.152 209.213L290.408 213.531L297.313 209.393L290.145 205.164Z" fill="#171753"/>
<path d="M275.897 206.693L268.992 210.832L276.16 215.151L283.065 211.012L275.897 206.693Z" fill="#171753"/>
<path d="M243.553 207.503L236.56 211.641L243.728 215.96L250.721 211.821L243.553 207.503Z" fill="#171753"/>
<path d="M298.716 210.204L291.723 214.343L298.891 218.662L305.884 214.613L298.716 210.204Z" fill="#171753"/>
<path d="M264.708 210.114L257.714 214.163L264.882 218.482L271.788 214.343L264.708 210.114Z" fill="#171753"/>
<path d="M284.115 211.644L277.122 215.693L284.29 220.012L291.283 215.963L284.115 211.644Z" fill="#171753"/>
<path d="M251.597 212.364L244.691 216.503L251.772 220.731L258.765 216.682L251.597 212.364Z" fill="#171753"/>
<path d="M272.75 214.881L265.757 219.02L272.925 223.339L279.918 219.2L272.75 214.881Z" fill="#171753"/>
<path d="M307.193 215.422L300.288 219.47L307.456 223.789L314.361 219.74L307.193 215.422Z" fill="#171753"/>
<path d="M292.244 216.502L285.338 220.64L292.506 224.959L299.412 220.82L292.244 216.502Z" fill="#171753"/>
<path d="M280.793 219.74L273.887 223.878L281.055 228.197L287.961 224.058L280.793 219.74Z" fill="#171753"/>
<path d="M315.758 220.551L308.852 224.6L316.02 228.919L322.926 224.87L315.758 220.551Z" fill="#171753"/>
<path d="M300.372 221.449L293.466 225.498L300.634 229.817L307.627 225.768L300.372 221.449Z" fill="#171753"/>
<path d="M267.944 222.17L260.951 226.218L268.119 230.537L275.112 226.488L267.944 222.17Z" fill="#171753"/>
<path d="M288.835 224.6L281.93 228.738L289.098 233.057L296.091 228.918L288.835 224.6Z" fill="#171753"/>
<path d="M324.326 225.679L317.333 229.728L324.501 234.047L331.494 229.998L324.326 225.679Z" fill="#171753"/>
<path d="M308.59 226.307L301.597 230.446L308.765 234.765L315.758 230.626L308.59 226.307Z" fill="#171753"/>
<path d="M275.897 226.938L268.904 231.077L276.072 235.396L283.065 231.257L275.897 226.938Z" fill="#171753"/>
<path d="M296.967 229.457L289.974 233.596L297.142 237.915L304.135 233.776L296.967 229.457Z" fill="#171753"/>
<path d="M283.941 231.797L277.036 235.935L284.204 240.164L291.109 236.115L283.941 231.797Z" fill="#171753"/>
<path d="M336.039 232.695L329.133 236.834L336.301 241.152L343.207 237.014L336.039 232.695Z" fill="#171753"/>
<path d="M305.008 234.315L298.015 238.454L305.183 242.773L312.176 238.634L305.008 234.315Z" fill="#171753"/>
<path d="M249.41 221.182L242.417 225.321L273.973 244.215L280.879 240.166L249.41 221.182Z" fill="#171753"/>
<path d="M291.894 236.567L284.988 240.706L292.156 245.024L299.149 240.886L291.894 236.567Z" fill="#171753"/>
<path d="M317.071 231.435L310.165 235.574L327.823 246.191L334.729 242.052L317.071 231.435Z" fill="#171753"/>
<path d="M313.051 239.175L306.146 243.314L319.258 251.232L326.251 247.093L313.051 239.175Z" fill="#171753"/>
<path d="M281.929 240.794L274.936 244.842L286.212 251.59L293.118 247.452L281.929 240.794Z" fill="#171753"/>
<path d="M300.112 241.514L293.119 245.563L310.776 256.18L317.77 252.131L300.112 241.514Z" fill="#171753"/>
<path d="M293.993 248.083L287.087 252.132L302.297 261.309L309.203 257.171L293.993 248.083Z" fill="#171753"/>
<path d="M259.813 247.811C259.463 248.531 258.851 249.16 257.889 249.79L251.683 253.569C248.973 255.189 244.865 255.369 242.505 253.929L226.333 244.302C225.721 243.942 225.284 243.492 225.022 243.042C224.322 241.693 225.022 240.073 226.945 238.903L233.151 235.125C235.861 233.505 239.97 233.325 242.33 234.765L258.501 244.302C260.075 245.202 260.424 246.551 259.813 247.811Z" fill="#171753"/>
<path d="M259.812 247.811C259.463 248.53 258.851 249.16 257.889 249.79L251.683 253.569C248.973 255.188 244.865 255.368 242.504 253.929L226.333 244.302C225.721 243.942 225.284 243.492 225.022 243.042C225.371 242.322 225.983 241.692 226.945 241.063L233.151 237.284C235.861 235.664 239.969 235.484 242.33 236.924L258.501 246.461C259.113 246.911 259.55 247.361 259.812 247.811Z" fill="#FFEE81"/>
<path d="M262.348 171.154L360.515 230.536V161.707L262.348 102.325V171.154Z" fill="#FFEE81"/>
<g style="mix-blend-mode:multiply">
<path d="M264.009 103.314V170.164L360.515 228.557V230.536L262.348 171.154V102.325L264.009 103.314Z" fill="#353570"/>
</g>
<path d="M416.753 343.001C416.668 343.001 416.668 343.001 416.582 342.916L384.559 324.434C382.686 323.157 381.578 321.113 381.578 318.813V235.859C381.578 235.689 381.578 235.604 381.664 235.434C382.089 232.368 385.752 230.664 388.562 232.282H388.647C388.647 232.282 388.732 232.282 388.732 232.368L420.67 250.849C422.544 252.041 423.651 254.171 423.651 256.385L423.566 339.083C423.566 339.253 423.566 339.424 423.566 339.509C423.311 342.745 419.648 344.704 416.753 343.001Z" fill="#8989C7"/>
<path d="M416.667 343.171L416.752 343.086L416.667 343.171C416.582 343.171 416.582 343.171 416.497 343.086L384.473 324.604C382.515 323.327 381.407 321.198 381.407 318.898V235.944C381.407 235.774 381.407 235.689 381.493 235.519C381.663 234.071 382.685 232.793 384.048 232.112C385.495 231.431 387.199 231.431 388.647 232.282H388.732C388.732 232.282 388.732 232.282 388.817 232.282L420.84 250.678C421.692 251.275 422.458 252.041 422.969 252.893C423.566 253.915 423.906 255.107 423.906 256.3L423.821 338.998C423.821 339.168 423.821 339.338 423.736 339.424C423.651 340.957 422.714 342.404 421.266 343.171C419.818 344.023 418.115 343.938 416.667 343.171ZM416.071 260.132C416.071 260.132 420.074 258.94 421.351 257.322C422.629 255.703 421.947 253.83 421.947 253.83C421.436 252.808 420.67 251.956 419.733 251.36L387.71 232.878C387.71 232.878 387.625 232.878 387.625 232.793H387.539C386.432 232.197 385.325 232.027 384.218 232.282C382.94 232.878 382.004 234.071 381.833 235.433C381.833 235.604 381.748 235.689 381.748 235.859V318.813C381.748 319.239 381.833 319.75 381.918 320.176C382.174 321.027 383.026 323.242 385.751 324.434C386.006 324.519 386.262 324.604 386.432 324.775C386.432 324.69 386.517 324.69 386.517 324.604L416.071 260.132Z" fill="#171753"/>
<path d="M422.886 266.179V264.902C422.886 264.561 422.63 264.391 422.204 264.646C421.864 264.817 421.523 265.328 421.523 265.668V266.946C421.523 267.286 421.779 267.457 422.204 267.201C422.63 267.031 422.886 266.52 422.886 266.179Z" fill="#8989C7"/>
<path d="M421.608 265.668C421.608 265.328 421.864 264.817 422.289 264.646C422.375 264.561 422.46 264.561 422.545 264.561C422.545 264.646 422.545 264.646 422.545 264.732V266.009C422.545 266.35 422.289 266.861 421.864 267.031C421.778 267.116 421.693 267.116 421.608 267.116C421.608 267.031 421.608 267.031 421.608 266.946V265.668Z" fill="#ECFFFE"/>
<path d="M422.546 264.476C422.376 264.476 422.291 264.561 422.205 264.561C421.78 264.817 421.524 265.243 421.524 265.668V266.946C421.524 267.031 421.524 267.031 421.524 267.116V267.201H421.609C421.694 267.201 421.78 267.116 421.865 267.116C422.291 266.861 422.546 266.435 422.546 266.009V264.732C422.631 264.646 422.546 264.646 422.546 264.476ZM421.694 265.668C421.694 265.328 421.95 264.902 422.291 264.732C422.291 264.732 422.376 264.732 422.461 264.732C422.461 264.732 422.461 264.732 422.461 264.817V266.094C422.461 266.435 422.205 266.861 421.865 267.031C421.78 267.031 421.78 267.116 421.694 267.116C421.694 267.116 421.694 267.116 421.694 267.031V265.668Z" fill="#171753"/>
<path d="M423.481 266.435C423.481 266.094 423.226 265.924 422.8 266.179C422.459 266.35 422.119 266.861 422.119 267.201C422.119 267.542 422.374 267.712 422.8 267.457C423.141 267.201 423.481 266.776 423.481 266.435Z" fill="#ECFFFE"/>
<path d="M423.482 266.179C423.482 266.094 423.397 266.094 423.312 266.009C423.142 265.923 422.971 265.923 422.716 266.094C422.29 266.349 422.034 266.775 422.034 267.201C422.034 267.371 422.12 267.542 422.205 267.627C422.375 267.712 422.545 267.712 422.801 267.542C423.227 267.286 423.567 266.86 423.567 266.434C423.567 266.349 423.567 266.179 423.482 266.179ZM422.29 267.371C422.29 267.286 422.29 267.286 422.29 267.201C422.29 266.86 422.545 266.434 422.886 266.264C423.056 266.179 423.227 266.179 423.312 266.179C423.397 266.264 423.397 266.349 423.397 266.434C423.397 266.775 423.142 267.201 422.801 267.371C422.631 267.456 422.46 267.456 422.29 267.371C422.375 267.371 422.29 267.371 422.29 267.371Z" fill="#171753"/>
<path d="M422.803 266.179C422.462 266.35 422.121 266.861 422.121 267.201C422.121 267.372 422.206 267.457 422.292 267.542L421.866 267.286C421.866 267.286 421.866 267.286 421.781 267.286C421.695 267.201 421.61 267.116 421.61 266.946C421.61 266.605 421.866 266.094 422.292 265.924C422.462 265.839 422.632 265.839 422.718 265.839L423.229 266.094C423.143 266.009 422.973 266.094 422.803 266.179Z" fill="#8989C7"/>
<path d="M423.312 266.009L422.801 265.753C422.801 265.753 422.801 265.753 422.716 265.753C422.546 265.668 422.376 265.753 422.205 265.838C421.779 266.094 421.524 266.52 421.524 266.946C421.524 267.116 421.524 267.286 421.694 267.371H421.779H421.865L422.376 267.627L422.461 267.457L422.376 267.371C422.29 267.286 422.29 267.201 422.29 267.116C422.29 266.775 422.546 266.349 422.887 266.179C423.057 266.094 423.142 266.094 423.227 266.094L423.312 266.009ZM422.716 265.924L422.887 266.009C422.887 266.009 422.801 266.009 422.801 266.094C422.376 266.349 422.12 266.775 422.12 267.201V267.286L421.95 267.201H421.865C421.865 267.201 421.779 267.116 421.779 266.946C421.779 266.605 422.035 266.179 422.376 266.009C422.461 265.924 422.546 265.924 422.716 265.924Z" fill="#171753"/>
<path d="M422.883 268.649C422.542 268.819 422.202 269.33 422.202 269.671V273.418C422.202 273.588 422.287 273.674 422.372 273.759L421.776 273.503H421.691C421.52 273.418 421.435 273.333 421.435 273.163V269.415C421.435 269.074 421.691 268.563 422.116 268.393C422.287 268.308 422.457 268.223 422.542 268.308L423.224 268.649C423.224 268.478 423.053 268.563 422.883 268.649Z" fill="#8989C7"/>
<path d="M423.395 268.479L422.713 268.138C422.543 268.053 422.373 268.138 422.202 268.223C421.776 268.479 421.521 268.905 421.521 269.33V273.078C421.521 273.333 421.691 273.504 421.776 273.504L422.373 273.844L422.458 273.674C422.373 273.589 422.373 273.504 422.373 273.418V269.671C422.373 269.33 422.628 268.905 422.969 268.734C423.139 268.649 423.224 268.649 423.309 268.649L423.395 268.479ZM421.691 273.248C421.691 273.248 421.691 273.163 421.691 273.078V269.33C421.691 268.99 421.947 268.564 422.287 268.394C422.458 268.308 422.543 268.308 422.628 268.308L422.969 268.479C422.969 268.479 422.884 268.479 422.884 268.564C422.458 268.819 422.117 269.245 422.117 269.671V273.418V273.504L421.776 273.333C421.776 273.333 421.776 273.333 421.691 273.248Z" fill="#171753"/>
<path d="M423.566 272.652V268.905C423.566 268.564 423.311 268.394 422.885 268.649C422.544 268.82 422.204 269.331 422.204 269.671V273.419C422.204 273.759 422.459 273.93 422.885 273.674C423.226 273.504 423.566 272.993 423.566 272.652Z" fill="#ECFFFE"/>
<path d="M423.565 268.649C423.565 268.564 423.48 268.564 423.395 268.479C423.224 268.394 423.054 268.394 422.799 268.564C422.458 268.819 422.117 269.245 422.117 269.671V273.419C422.117 273.589 422.202 273.759 422.288 273.844C422.458 273.93 422.628 273.93 422.884 273.759C423.31 273.504 423.565 273.078 423.565 272.652V268.905C423.65 268.819 423.65 268.734 423.565 268.649ZM422.373 273.589C422.373 273.504 422.373 273.504 422.373 273.419V269.671C422.373 269.33 422.628 268.905 422.969 268.734C423.139 268.649 423.31 268.649 423.395 268.649C423.48 268.734 423.48 268.819 423.48 268.905V272.652C423.48 272.993 423.224 273.419 422.884 273.589C422.713 273.674 422.543 273.674 422.373 273.589C422.458 273.589 422.373 273.589 422.373 273.589Z" fill="#171753"/>
<path d="M422.883 274.696C422.542 274.867 422.202 275.378 422.202 275.718V279.466C422.202 279.636 422.287 279.721 422.372 279.806L421.776 279.551H421.691C421.52 279.466 421.435 279.381 421.435 279.21V275.463C421.435 275.122 421.691 274.611 422.116 274.441C422.287 274.356 422.457 274.27 422.542 274.356L423.224 274.696C423.224 274.611 423.053 274.611 422.883 274.696Z" fill="#8989C7"/>
<path d="M423.395 274.526L422.628 274.185C422.458 274.1 422.287 274.185 422.117 274.271C421.691 274.526 421.436 274.952 421.436 275.378V279.125C421.436 279.381 421.606 279.551 421.691 279.551L422.287 279.892L422.373 279.721C422.287 279.636 422.287 279.551 422.287 279.466V275.718C422.287 275.378 422.543 274.952 422.884 274.782C423.054 274.696 423.139 274.696 423.224 274.696L423.395 274.526ZM421.691 279.296C421.691 279.296 421.691 279.21 421.691 279.125V275.378C421.691 275.037 421.947 274.611 422.287 274.441C422.458 274.356 422.543 274.356 422.628 274.356L422.969 274.526C422.969 274.526 422.884 274.526 422.884 274.611C422.458 274.867 422.117 275.378 422.117 275.718V279.466V279.551L421.776 279.381C421.776 279.381 421.691 279.381 421.691 279.296Z" fill="#171753"/>
<path d="M423.564 278.699V274.951C423.564 274.611 423.309 274.44 422.883 274.696C422.542 274.866 422.202 275.377 422.202 275.718V279.465C422.202 279.806 422.457 279.976 422.883 279.721C423.224 279.55 423.564 279.039 423.564 278.699Z" fill="#ECFFFE"/>
<path d="M423.565 274.696C423.565 274.611 423.48 274.611 423.395 274.526C423.224 274.441 423.054 274.441 422.799 274.611C422.458 274.867 422.117 275.378 422.117 275.719V279.466C422.117 279.636 422.202 279.807 422.288 279.892C422.458 279.977 422.628 279.977 422.884 279.807C423.31 279.551 423.565 279.125 423.565 278.699V274.952C423.65 274.867 423.65 274.782 423.565 274.696ZM422.373 279.636C422.373 279.551 422.373 279.551 422.373 279.466V275.719C422.373 275.378 422.628 274.952 422.969 274.782C423.139 274.696 423.31 274.696 423.395 274.696C423.48 274.782 423.48 274.867 423.48 274.952V278.699C423.48 279.04 423.224 279.466 422.884 279.636C422.628 279.721 422.543 279.807 422.373 279.636C422.373 279.721 422.373 279.636 422.373 279.636Z" fill="#171753"/>
<path d="M382.088 235.604V318.557C382.088 320.772 383.196 322.901 385.069 324.179L417.092 342.575C418.966 343.427 421.18 342.49 421.18 340.36L421.266 257.747C421.266 255.533 420.158 253.489 418.285 252.212L386.347 233.73C384.047 232.453 382.259 233.645 382.088 235.604Z" fill="#ECFFFE"/>
<path d="M420.321 254.681C419.805 253.83 419.118 253.063 418.173 252.467L385.959 233.986C384.842 233.304 383.726 233.219 382.867 233.73C382.093 234.156 381.578 234.922 381.492 235.944V318.898C381.492 321.198 382.609 323.327 384.585 324.604L416.885 343.001C417.915 343.512 419.204 343.427 420.063 342.83C420.836 342.319 421.18 341.638 421.18 340.701L421.266 258.088C421.266 256.811 420.922 255.703 420.321 254.681ZM381.75 235.944C381.836 235.008 382.265 234.326 382.952 233.9C383.726 233.475 384.756 233.56 385.873 234.156L418.087 252.637C419.891 253.83 421.008 255.874 421.008 258.088L420.922 340.786C420.922 341.638 420.578 342.319 419.891 342.745C419.032 343.256 417.915 343.341 416.97 342.916L384.671 324.434C382.781 323.242 381.664 321.113 381.664 318.898L381.75 235.944Z" fill="#171753" stroke="#171753" stroke-width="1.32765"/>
<path d="M416.071 340.446L385.155 322.475C383.877 321.623 383.026 320.09 383.026 318.557L383.196 237.222C383.281 235.859 384.559 235.007 386.177 235.944L392.479 239.607V240.714C392.479 241.991 393.246 243.524 394.268 244.12L408.235 252.211C409.172 252.808 410.024 252.211 410.024 250.849V249.742L417.008 253.915C418.285 254.766 419.052 256.214 419.052 257.747L418.967 338.912C418.967 340.36 417.348 341.212 416.071 340.446Z" fill="#8989C7"/>
<path d="M406.971 247.972L395.784 241.486C395.514 241.351 395.244 241.486 395.244 241.891C395.244 242.296 395.514 242.837 395.784 242.972L406.971 249.593C407.24 249.728 407.51 249.593 407.51 249.188C407.51 248.647 407.24 248.107 406.971 247.972Z" fill="#171753"/>
<path d="M406.97 248.511C406.835 248.376 406.7 248.106 406.565 248.106L395.378 241.62C395.244 241.485 394.974 241.485 394.839 241.62C394.704 241.755 394.57 241.89 394.57 242.296C394.57 242.836 394.839 243.377 395.244 243.512L406.431 250.133C406.565 250.268 406.835 250.268 406.97 250.133C407.104 249.998 407.239 249.863 407.239 249.457C407.239 249.052 407.104 248.782 406.97 248.511ZM394.974 242.701C394.839 242.566 394.839 242.296 394.839 242.026C394.839 241.89 394.839 241.755 394.974 241.755C395.109 241.755 395.109 241.755 395.244 241.755L406.431 248.241C406.7 248.376 406.97 248.917 406.97 249.187C406.97 249.322 406.97 249.457 406.835 249.592C406.7 249.592 406.7 249.592 406.565 249.592L395.378 243.106C395.244 242.971 395.109 242.971 394.974 242.701Z" fill="#171753"/>
<path d="M272.732 116.581C272.732 116.84 272.455 117.005 272.227 116.881L270.84 116.122C270.73 116.062 270.662 115.948 270.662 115.823C270.662 115.564 270.94 115.399 271.167 115.523L272.555 116.282C272.664 116.341 272.732 116.456 272.732 116.581Z" fill="#171753" stroke="#171753" stroke-width="0.4"/>
<path d="M272.732 123.431C272.732 123.69 272.451 123.852 272.227 123.722L270.83 122.91C270.726 122.85 270.662 122.739 270.662 122.619C270.662 122.36 270.943 122.198 271.167 122.329L272.565 123.14C272.668 123.2 272.732 123.311 272.732 123.431Z" fill="#171753" stroke="#171753" stroke-width="0.4"/>
<path d="M272.732 130.228C272.732 130.487 272.455 130.652 272.227 130.528L270.84 129.769C270.73 129.709 270.662 129.594 270.662 129.47C270.662 129.211 270.94 129.046 271.167 129.17L272.555 129.929C272.664 129.988 272.732 130.103 272.732 130.228Z" fill="#171753" stroke="#171753" stroke-width="0.4"/>
<path d="M272.732 137.016C272.732 137.276 272.455 137.44 272.227 137.316L270.84 136.558C270.73 136.498 270.662 136.383 270.662 136.258C270.662 135.999 270.94 135.834 271.167 135.959L272.555 136.717C272.664 136.777 272.732 136.892 272.732 137.016Z" fill="#171753" stroke="#171753" stroke-width="0.4"/>
<path d="M272.732 143.805C272.732 144.064 272.455 144.229 272.227 144.104L270.84 143.346C270.73 143.286 270.662 143.171 270.662 143.047C270.662 142.787 270.94 142.623 271.167 142.747L272.555 143.506C272.664 143.565 272.732 143.68 272.732 143.805Z" fill="#171753" stroke="#171753" stroke-width="0.4"/>
<path d="M272.732 157.452C272.732 157.712 272.455 157.876 272.227 157.752L270.84 156.994C270.73 156.934 270.662 156.819 270.662 156.694C270.662 156.435 270.94 156.27 271.167 156.395L272.555 157.153C272.664 157.213 272.732 157.328 272.732 157.452Z" fill="#171753" stroke="#171753" stroke-width="0.4"/>
<path d="M272.732 164.24C272.732 164.499 272.455 164.664 272.227 164.54L270.84 163.781C270.73 163.722 270.662 163.607 270.662 163.482C270.662 163.223 270.94 163.058 271.167 163.182L272.555 163.941C272.664 164.001 272.732 164.115 272.732 164.24Z" fill="#171753" stroke="#171753" stroke-width="0.4"/>
<path d="M315.799 143.242C315.799 143.502 315.514 143.66 315.294 143.525L277.759 120.456C277.661 120.395 277.602 120.288 277.602 120.173C277.602 119.914 277.886 119.755 278.106 119.891L315.641 142.96C315.739 143.02 315.799 143.127 315.799 143.242Z" fill="#171753" stroke="#171753" stroke-width="0.4"/>
<path d="M303.511 142.535C303.511 142.794 303.227 142.953 303.007 142.818L277.76 127.315C277.661 127.254 277.602 127.147 277.602 127.032C277.602 126.773 277.886 126.614 278.106 126.75L303.353 142.253C303.452 142.313 303.511 142.42 303.511 142.535Z" fill="#171753" stroke="#171753" stroke-width="0.4"/>
<path d="M288.219 139.85C288.219 140.109 287.936 140.269 287.714 140.134L277.762 134.103C277.662 134.042 277.602 133.935 277.602 133.818C277.602 133.559 277.885 133.399 278.107 133.534L288.059 139.565C288.159 139.626 288.219 139.734 288.219 139.85Z" fill="#171753" stroke="#171753" stroke-width="0.4"/>
<path d="M315.799 163.678C315.799 163.937 315.514 164.096 315.294 163.96L277.759 140.891C277.661 140.831 277.602 140.724 277.602 140.609C277.602 140.35 277.886 140.191 278.106 140.327L315.641 163.396C315.739 163.456 315.799 163.563 315.799 163.678Z" fill="#171753" stroke="#171753" stroke-width="0.4"/>
<path d="M299.905 160.638C299.905 160.897 299.622 161.056 299.401 160.921L277.76 147.68C277.662 147.619 277.602 147.512 277.602 147.397C277.602 147.137 277.885 146.978 278.106 147.114L299.747 160.355C299.845 160.415 299.905 160.522 299.905 160.638Z" fill="#171753" stroke="#171753" stroke-width="0.4"/>
<path d="M299.905 167.427C299.905 167.686 299.622 167.846 299.4 167.711L277.761 154.539C277.662 154.478 277.602 154.371 277.602 154.255C277.602 153.996 277.885 153.836 278.107 153.971L299.746 167.143C299.845 167.204 299.905 167.311 299.905 167.427Z" fill="#171753" stroke="#171753" stroke-width="0.4"/>
<path d="M304.513 177.114C304.513 177.373 304.229 177.532 304.008 177.397L277.76 161.327C277.662 161.267 277.602 161.16 277.602 161.044C277.602 160.785 277.885 160.626 278.106 160.761L304.355 176.831C304.453 176.891 304.513 176.999 304.513 177.114Z" fill="#171753" stroke="#171753" stroke-width="0.4"/>
<path d="M291.558 176.051C291.558 176.31 291.274 176.469 291.053 176.333L277.758 168.115C277.661 168.055 277.602 167.948 277.602 167.833C277.602 167.574 277.886 167.416 278.106 167.552L291.401 175.77C291.499 175.83 291.558 175.937 291.558 176.051Z" fill="#171753" stroke="#171753" stroke-width="0.4"/>
<path d="M346.9 163.028C346.9 163.287 346.616 163.447 346.395 163.312L322.084 148.513C321.985 148.453 321.925 148.345 321.925 148.23C321.925 147.97 322.208 147.811 322.43 147.946L346.74 162.744C346.839 162.805 346.9 162.912 346.9 163.028Z" fill="#171753" stroke="#171753" stroke-width="0.4"/>
<path d="M335.013 162.32C335.013 162.579 334.729 162.738 334.508 162.603L310.197 147.735C310.098 147.675 310.038 147.568 310.038 147.452C310.038 147.193 310.322 147.034 310.543 147.169L334.854 162.037C334.953 162.097 335.013 162.205 335.013 162.32Z" fill="#171753" stroke="#171753" stroke-width="0.4"/>
<path d="M319.786 159.633C319.786 159.893 319.502 160.052 319.281 159.917L295.037 145.119C294.938 145.059 294.878 144.951 294.878 144.836C294.878 144.577 295.162 144.417 295.383 144.552L319.627 159.35C319.726 159.41 319.786 159.518 319.786 159.633Z" fill="#171753" stroke="#171753" stroke-width="0.4"/>
<path d="M345.831 175.19C345.831 175.449 345.547 175.608 345.326 175.472L321.081 160.605C320.983 160.545 320.923 160.438 320.923 160.323C320.923 160.064 321.207 159.905 321.428 160.04L345.673 174.907C345.771 174.967 345.831 175.075 345.831 175.19Z" fill="#171753" stroke="#171753" stroke-width="0.4"/>
<path d="M346.9 183.464C346.9 183.723 346.616 183.882 346.395 183.748L322.084 168.949C321.985 168.889 321.925 168.781 321.925 168.665C321.925 168.406 322.208 168.247 322.43 168.382L346.74 183.18C346.839 183.24 346.9 183.348 346.9 183.464Z" fill="#171753" stroke="#171753" stroke-width="0.4"/>
<path d="M330.87 180.069C330.87 180.328 330.586 180.487 330.365 180.352L306.12 165.484C306.022 165.424 305.962 165.317 305.962 165.202C305.962 164.943 306.246 164.784 306.467 164.919L330.712 179.786C330.81 179.847 330.87 179.954 330.87 180.069Z" fill="#171753" stroke="#171753" stroke-width="0.4"/>
<path d="M330.87 186.858C330.87 187.117 330.586 187.276 330.365 187.141L306.121 172.343C306.022 172.283 305.962 172.176 305.962 172.06C305.962 171.801 306.246 171.641 306.467 171.776L330.711 186.574C330.81 186.635 330.87 186.742 330.87 186.858Z" fill="#171753" stroke="#171753" stroke-width="0.4"/>
<path d="M335.88 197.323C335.88 197.582 335.596 197.741 335.375 197.606L311.064 182.738C310.965 182.677 310.905 182.57 310.905 182.455C310.905 182.195 311.189 182.036 311.41 182.172L335.722 197.04C335.82 197.1 335.88 197.207 335.88 197.323Z" fill="#171753" stroke="#171753" stroke-width="0.4"/>
<path d="M323.393 196.545C323.393 196.804 323.109 196.963 322.888 196.827L298.643 181.96C298.544 181.9 298.484 181.793 298.484 181.678C298.484 181.419 298.768 181.26 298.989 181.395L323.234 196.262C323.333 196.322 323.393 196.429 323.393 196.545Z" fill="#171753" stroke="#171753" stroke-width="0.4"/>
<path d="M387.749 253.198C387.749 253.407 387.521 253.535 387.342 253.428L386.366 252.84C386.286 252.791 386.236 252.704 386.236 252.61C386.236 252.402 386.464 252.273 386.643 252.38L387.619 252.968C387.699 253.017 387.749 253.104 387.749 253.198Z" fill="#ECFFFE" stroke="#ECFFFE" stroke-width="0.4"/>
<path d="M387.749 258.711C387.749 258.919 387.518 259.045 387.343 258.933L386.358 258.303C386.282 258.254 386.236 258.17 386.236 258.081C386.236 257.872 386.467 257.746 386.642 257.858L387.627 258.489C387.703 258.537 387.749 258.621 387.749 258.711Z" fill="#ECFFFE" stroke="#ECFFFE" stroke-width="0.4"/>
<path d="M387.749 263.274C387.749 263.483 387.521 263.611 387.342 263.504L386.366 262.916C386.286 262.868 386.236 262.78 386.236 262.686C386.236 262.478 386.464 262.349 386.643 262.457L387.619 263.044C387.699 263.093 387.749 263.18 387.749 263.274Z" fill="#ECFFFE" stroke="#ECFFFE" stroke-width="0.4"/>
<path d="M387.749 269.645C387.749 269.854 387.521 269.982 387.342 269.875L386.366 269.287C386.286 269.239 386.236 269.152 386.236 269.057C386.236 268.849 386.464 268.72 386.643 268.828L387.619 269.415C387.699 269.464 387.749 269.551 387.749 269.645Z" fill="#ECFFFE" stroke="#ECFFFE" stroke-width="0.4"/>
<path d="M387.749 275.109C387.749 275.317 387.521 275.446 387.342 275.339L386.366 274.751C386.286 274.702 386.236 274.615 386.236 274.521C386.236 274.312 386.464 274.184 386.643 274.291L387.619 274.879C387.699 274.928 387.749 275.015 387.749 275.109Z" fill="#ECFFFE" stroke="#ECFFFE" stroke-width="0.4"/>
<path d="M387.749 286.093C387.749 286.301 387.521 286.43 387.342 286.322L386.366 285.735C386.286 285.686 386.236 285.599 386.236 285.505C386.236 285.296 386.464 285.168 386.643 285.275L387.619 285.863C387.699 285.911 387.749 285.999 387.749 286.093Z" fill="#ECFFFE" stroke="#ECFFFE" stroke-width="0.4"/>
<path d="M387.749 291.556C387.749 291.764 387.521 291.893 387.342 291.786L386.366 291.198C386.286 291.149 386.236 291.062 386.236 290.968C386.236 290.76 386.464 290.631 386.643 290.738L387.619 291.326C387.699 291.375 387.749 291.462 387.749 291.556Z" fill="#ECFFFE" stroke="#ECFFFE" stroke-width="0.4"/>
<path d="M387.749 298.459C387.749 298.667 387.521 298.796 387.342 298.689L386.366 298.101C386.286 298.052 386.236 297.965 386.236 297.871C386.236 297.663 386.464 297.534 386.643 297.641L387.619 298.229C387.699 298.278 387.749 298.365 387.749 298.459Z" fill="#ECFFFE" stroke="#ECFFFE" stroke-width="0.4"/>
<path d="M387.749 303.972C387.749 304.18 387.518 304.306 387.343 304.194L386.358 303.564C386.282 303.515 386.236 303.431 386.236 303.342C386.236 303.133 386.467 303.007 386.642 303.119L387.627 303.75C387.703 303.798 387.749 303.882 387.749 303.972Z" fill="#ECFFFE" stroke="#ECFFFE" stroke-width="0.4"/>
<path d="M387.749 308.535C387.749 308.744 387.521 308.872 387.342 308.765L386.366 308.177C386.286 308.129 386.236 308.041 386.236 307.947C386.236 307.739 386.464 307.61 386.643 307.718L387.619 308.305C387.699 308.354 387.749 308.441 387.749 308.535Z" fill="#ECFFFE" stroke="#ECFFFE" stroke-width="0.4"/>
<path d="M387.749 314.906C387.749 315.115 387.521 315.243 387.342 315.136L386.366 314.548C386.286 314.5 386.236 314.413 386.236 314.318C386.236 314.11 386.464 313.981 386.643 314.089L387.619 314.676C387.699 314.725 387.749 314.812 387.749 314.906Z" fill="#ECFFFE" stroke="#ECFFFE" stroke-width="0.4"/>
<path d="M416.8 268.877C416.8 269.04 416.625 269.142 416.483 269.063L390.615 254.591C390.547 254.553 390.506 254.482 390.506 254.405C390.506 254.242 390.681 254.14 390.822 254.219L416.691 268.692C416.758 268.729 416.8 268.8 416.8 268.877Z" fill="#ECFFFE" stroke="#ECFFFE" stroke-width="0.4"/>
<path d="M412.351 272.345C412.351 272.551 412.127 272.68 411.948 272.577L390.639 260.206C390.557 260.158 390.506 260.07 390.506 259.974C390.506 259.768 390.73 259.639 390.909 259.743L412.217 272.113C412.3 272.161 412.351 272.249 412.351 272.345Z" fill="#ECFFFE" stroke="#ECFFFE" stroke-width="0.4"/>
<path d="M399.458 270.205C399.458 270.411 399.234 270.541 399.055 270.438L390.641 265.617C390.557 265.569 390.506 265.48 390.506 265.384C390.506 265.177 390.729 265.048 390.909 265.151L399.323 269.971C399.406 270.019 399.458 270.108 399.458 270.205Z" fill="#ECFFFE" stroke="#ECFFFE" stroke-width="0.4"/>
<path d="M414.742 283.915C414.742 284.064 414.582 284.158 414.452 284.085L390.606 270.833C390.544 270.798 390.506 270.733 390.506 270.662C390.506 270.514 390.666 270.42 390.796 270.492L414.641 283.745C414.703 283.779 414.742 283.844 414.742 283.915Z" fill="#ECFFFE" stroke="#ECFFFE" stroke-width="0.4"/>
<path d="M409.31 286.774C409.31 286.981 409.087 287.11 408.908 287.006L390.64 276.439C390.557 276.391 390.506 276.302 390.506 276.207C390.506 276 390.73 275.871 390.909 275.974L409.177 286.542C409.259 286.59 409.31 286.678 409.31 286.774Z" fill="#ECFFFE" stroke="#ECFFFE" stroke-width="0.4"/>
<path d="M409.31 292.185C409.31 292.392 409.087 292.521 408.908 292.418L390.641 281.906C390.557 281.858 390.506 281.769 390.506 281.673C390.506 281.466 390.729 281.337 390.909 281.44L409.176 291.953C409.259 292.001 409.31 292.089 409.31 292.185Z" fill="#ECFFFE" stroke="#ECFFFE" stroke-width="0.4"/>
<path d="M413.195 299.907C413.195 300.114 412.971 300.243 412.793 300.139L390.64 287.318C390.557 287.27 390.506 287.181 390.506 287.085C390.506 286.879 390.73 286.75 390.909 286.853L413.061 299.675C413.144 299.723 413.195 299.812 413.195 299.907Z" fill="#ECFFFE" stroke="#ECFFFE" stroke-width="0.4"/>
<path d="M402.273 299.06C402.273 299.267 402.049 299.396 401.87 299.291L390.638 292.728C390.556 292.68 390.506 292.592 390.506 292.497C390.506 292.29 390.73 292.162 390.909 292.266L402.14 298.829C402.222 298.877 402.273 298.965 402.273 299.06Z" fill="#ECFFFE" stroke="#ECFFFE" stroke-width="0.4"/>
<path d="M416.8 314.138C416.8 314.301 416.625 314.403 416.483 314.324L390.615 299.851C390.547 299.814 390.506 299.743 390.506 299.666C390.506 299.503 390.681 299.401 390.822 299.48L416.691 313.952C416.758 313.99 416.8 314.061 416.8 314.138Z" fill="#ECFFFE" stroke="#ECFFFE" stroke-width="0.4"/>
<path d="M412.351 317.606C412.351 317.812 412.127 317.941 411.948 317.838L390.639 305.467C390.557 305.419 390.506 305.331 390.506 305.235C390.506 305.029 390.73 304.9 390.909 305.004L412.217 317.374C412.3 317.422 412.351 317.51 412.351 317.606Z" fill="#ECFFFE" stroke="#ECFFFE" stroke-width="0.4"/>
<path d="M399.458 315.466C399.458 315.672 399.234 315.802 399.055 315.699L390.641 310.878C390.557 310.83 390.506 310.741 390.506 310.645C390.506 310.438 390.729 310.309 390.909 310.412L399.323 315.232C399.406 315.28 399.458 315.369 399.458 315.466Z" fill="#ECFFFE" stroke="#ECFFFE" stroke-width="0.4"/>
<path d="M414.742 329.176C414.742 329.325 414.582 329.419 414.452 329.346L390.606 316.094C390.544 316.059 390.506 315.994 390.506 315.923C390.506 315.775 390.666 315.681 390.796 315.753L414.641 329.005C414.703 329.04 414.742 329.105 414.742 329.176Z" fill="#ECFFFE" stroke="#ECFFFE" stroke-width="0.4"/>
<path d="M148.424 56.9293V58.0884L147.34 57.6773C143.195 56.1046 139.679 56.4738 137.234 58.2719C134.782 60.0749 133.21 63.4591 133.27 68.3319H133.27V68.3418V68.5846C133.27 73.9888 135.245 80.0093 138.464 85.3834C141.681 90.7563 146.098 95.4093 150.898 98.1189L150.962 98.1549L151.018 98.2018L193.428 133.665L193.497 133.626L194.975 132.804C196.211 132.115 197.894 131.178 199.679 130.184C203.248 128.196 207.224 125.98 208.851 125.07C211.771 123.437 213.702 119.884 213.702 114.477V114.113C213.702 109.24 212.093 103.846 209.4 98.8781C206.708 93.9127 202.962 89.4259 198.751 86.3493L198.439 86.1214L198.423 85.7353C198.117 78.0729 195.169 69.6761 190.573 62.2207C185.978 54.7667 179.777 48.3199 173.033 44.5154C166.161 40.7094 160.078 40.3259 155.77 42.5784L141.727 50.4194L148.246 52.5258L148.862 52.7249L148.796 53.3691C148.748 53.8347 148.688 54.2678 148.63 54.6841C148.523 55.4567 148.424 56.1717 148.424 56.9293Z" fill="#5ED9D1" stroke="#171753" stroke-width="1.6"/>
<path d="M131.844 65.6707C132.47 50.7373 143.742 44.9097 157.643 52.6799C171.545 60.4501 182.816 78.9043 183.442 94.5661C192.084 100.879 198.722 112.899 198.722 122.976V123.34C198.722 134.51 190.706 139.002 180.687 133.417L134.599 107.678C124.705 102.093 116.69 88.617 116.69 77.4474V77.0831C116.69 67.0062 123.202 62.3926 131.844 65.6707Z" fill="#BEF0ED" stroke="#171753" stroke-width="1.6"/>
<path d="M634.893 83.0122V84.1713L633.809 83.7602C630.977 82.6857 628.622 82.9534 627.005 84.1426C625.381 85.3367 624.304 87.6047 624.345 90.9459L624.345 90.9459V90.9559V91.1249C624.345 94.8316 625.702 98.9792 627.926 102.693C630.149 106.405 633.195 109.61 636.491 111.471L636.555 111.507L636.611 111.553L666.003 136.13L666.933 135.612C667.794 135.133 668.965 134.481 670.208 133.789C672.692 132.405 675.459 130.863 676.592 130.23C678.521 129.15 679.844 126.777 679.844 123.069V122.815C679.844 119.473 678.739 115.759 676.878 112.327C675.019 108.897 672.434 105.804 669.537 103.686L669.225 103.458L669.209 103.072C668.998 97.7902 666.964 91.9858 663.781 86.8229C660.599 81.6614 656.311 77.2074 651.66 74.5837C646.92 71.9586 642.778 71.7226 639.878 73.2372L630.594 78.4212L634.601 79.7158L635.217 79.9149L635.15 80.5591C635.115 80.9025 635.072 81.2121 635.031 81.5046C634.958 82.03 634.893 82.5003 634.893 83.0122Z" fill="#5ED9D1" stroke="#171753" stroke-width="1.6"/>
<path d="M623.109 89.0965C623.545 78.7022 631.39 74.6458 641.066 80.0543C650.743 85.4627 658.588 98.3078 659.024 109.209C665.039 113.604 669.659 121.97 669.659 128.984V129.237C669.659 137.012 664.08 140.139 657.106 136.252L625.027 118.336C618.14 114.449 612.561 105.068 612.561 97.2937V97.0402C612.561 90.0261 617.094 86.8148 623.109 89.0965Z" fill="#BEF0ED" stroke="#171753" stroke-width="1.6"/>
<defs>
<linearGradient id="paint0_linear_3504_5857" x1="20.7313" y1="-19.1788" x2="853.173" y2="-19.1788" gradientUnits="userSpaceOnUse">
<stop stop-color="#BEF0ED"/>
<stop offset="1" stop-color="white"/>
</linearGradient>
</defs>
</svg>
