<svg width="565" height="660" viewBox="0 0 565 660" fill="none" xmlns="http://www.w3.org/2000/svg">
<path d="M850.703 274.843C861.302 461.116 683.847 622.707 454.346 635.766C224.845 648.825 30.2049 508.408 19.6053 322.135C9.00573 135.862 186.461 -25.7288 415.962 -38.7882C645.463 -51.8476 840.103 88.5698 850.703 274.843Z" fill="url(#paint0_linear_3383_5101)"/>
<g style="mix-blend-mode:multiply">
<g opacity="0.6">
<g opacity="0.6">
<path opacity="0.6" d="M147.138 414.47L115.088 433.075L82.8203 414.47L114.883 395.864L147.138 414.47Z" fill="#5ED9D1"/>
</g>
</g>
<g opacity="0.6">
<g opacity="0.6">
<path opacity="0.6" d="M328.739 492.494L296.677 511.1L264.422 492.494L296.472 473.888L328.739 492.494Z" fill="#5ED9D1"/>
</g>
</g>
<g opacity="0.6">
<g opacity="0.6">
<path opacity="0.6" d="M216.948 470.171L184.886 488.777L152.631 470.171L184.68 451.565L216.948 470.171Z" fill="#5ED9D1"/>
</g>
</g>
<g opacity="0.6">
<g opacity="0.6">
<path opacity="0.6" d="M216.948 413.056L184.886 431.661L152.631 413.056L184.68 394.45L216.948 413.056Z" fill="#5ED9D1"/>
</g>
</g>
<g opacity="0.6">
<g opacity="0.6">
<path opacity="0.6" d="M352.402 434.552L294.857 467.959L236.921 434.552L294.466 401.145L352.402 434.552Z" fill="#5ED9D1"/>
</g>
</g>
<g opacity="0.3">
<g opacity="0.3">
<path opacity="0.3" d="M94.0304 492.5L75.0826 503.487L56.0195 492.5L74.9544 481.5L94.0304 492.5Z" fill="#5ED9D1"/>
</g>
</g>
<g opacity="0.3">
<g opacity="0.3">
<path opacity="0.3" d="M349.652 522.758L330.718 533.758L311.642 522.758L330.589 511.771L349.652 522.758Z" fill="#5ED9D1"/>
</g>
</g>
<g opacity="0.3">
<g opacity="0.3">
<path opacity="0.3" d="M150.336 350.312L131.388 361.299L112.325 350.312L131.273 339.312L150.336 350.312Z" fill="#5ED9D1"/>
</g>
</g>
<g opacity="0.3">
<g opacity="0.3">
<path opacity="0.3" d="M330.647 320.463L311.712 331.45L292.636 320.463L311.583 309.464L330.647 320.463Z" fill="#5ED9D1"/>
</g>
</g>
<g opacity="0.9">
<g opacity="0.6">
<path opacity="0.3" d="M283.427 467.952L264.479 478.952L245.416 467.952L264.351 456.965L283.427 467.952Z" fill="#5ED9D1"/>
</g>
</g>
<g opacity="0.3">
<g opacity="0.3">
<path opacity="0.3" d="M390.453 374.919L371.506 385.919L352.442 374.919L371.377 363.919L390.453 374.919Z" fill="#5ED9D1"/>
</g>
</g>
<g opacity="0.3">
<g opacity="0.3">
<path opacity="0.3" d="M155.644 505.088L136.696 516.075L117.633 505.088L136.581 494.088L155.644 505.088Z" fill="#5ED9D1"/>
</g>
</g>
<g opacity="0.3">
<path opacity="0.3" d="M321.514 464.811L361.448 441.788L401.112 464.811L361.178 487.835L321.514 464.811Z" fill="#5ED9D1"/>
<g opacity="0.3">
<g opacity="0.3">
<path opacity="0.3" d="M321.513 464.811L361.434 441.788L401.098 464.811L361.177 487.835L321.513 464.811ZM398.457 464.811L361.434 443.324L324.166 464.811L361.19 486.298L398.457 464.811Z" fill="#5ED9D1"/>
</g>
</g>
</g>
<g opacity="0.3">
<path opacity="0.3" d="M321.528 406.381L361.462 383.344L401.127 406.381L361.206 429.404L321.528 406.381Z" fill="#5ED9D1"/>
<g opacity="0.3">
<g opacity="0.3">
<path opacity="0.3" d="M321.529 406.383L361.45 383.359L401.115 406.383L361.207 429.407L321.529 406.383ZM398.474 406.383L361.45 384.896L324.183 406.383L361.207 427.87L398.474 406.383Z" fill="#5ED9D1"/>
</g>
</g>
</g>
<g opacity="0.3">
<path opacity="0.3" d="M406.658 406.756L446.592 383.72L486.257 406.756L446.336 429.78L406.658 406.756Z" fill="#5ED9D1"/>
<g opacity="0.3">
<g opacity="0.3">
<path opacity="0.3" d="M406.66 406.758L446.581 383.734L486.246 406.758L446.338 429.782L406.66 406.758ZM483.605 406.758L446.581 385.271L409.314 406.758L446.338 428.245L483.605 406.758Z" fill="#5ED9D1"/>
</g>
</g>
</g>
<g opacity="0.3">
<path opacity="0.3" d="M318.528 357.231L358.462 334.208L398.127 357.231L358.206 380.255L318.528 357.231Z" fill="#5ED9D1"/>
<g opacity="0.3">
<g opacity="0.3">
<path opacity="0.3" d="M318.528 357.231L358.449 334.208L398.114 357.231L358.193 380.255L318.528 357.231ZM395.486 357.231L358.462 335.744L321.195 357.231L358.219 378.718L395.486 357.231Z" fill="#5ED9D1"/>
</g>
</g>
</g>
</g>
<path d="M499.114 231.32L308.183 125.403C306.532 124.478 304.882 124.346 303.781 124.874C296.766 127.912 291.951 131.478 291.951 131.478L301.168 140.062V271.865C301.168 276.884 304.331 282.827 308.321 285.072L493.749 387.82L487.284 390.857L491.961 397.857C491.961 397.857 497.738 396.404 504.203 390.989C505.579 390.065 506.404 388.216 506.404 385.575V244.395C506.267 239.377 503.103 233.434 499.114 231.32Z" fill="#171753"/>
<path d="M491.547 398.781L486.045 390.593L491.96 387.82L307.77 285.732C303.643 283.487 300.204 277.28 300.204 271.865V140.59L290.575 131.61L291.263 131.082C291.401 130.95 296.215 127.384 303.231 124.346C304.881 123.554 306.669 123.818 308.458 124.742L499.388 230.528C503.515 232.905 506.954 238.98 506.954 244.395V385.575C506.954 388.348 505.991 390.461 504.478 391.518C498.013 396.933 492.235 398.517 491.96 398.517L491.547 398.781ZM488.384 391.122L492.235 396.932C493.748 396.404 498.425 394.687 503.653 390.329C504.891 389.537 505.578 387.688 505.578 385.575V244.395C505.578 239.641 502.552 233.962 498.838 231.849L307.77 126.063C306.394 125.271 305.019 125.139 304.056 125.667H303.918C298.691 127.912 294.564 130.553 293.051 131.742L301.855 139.93V271.865C301.855 276.619 304.881 282.298 308.595 284.411L495.399 387.952L488.384 391.122Z" fill="#171753"/>
<path d="M298.829 134.779L301.168 201.605L423.044 269.224L494.712 228.811L311.897 127.516L298.829 134.779Z" fill="#171753"/>
<path d="M423.044 270.016L300.342 202.134L298.004 134.384L311.897 126.724L496.363 228.811L423.044 270.016ZM301.856 201.209L423.044 268.3L493.199 228.811L311.897 128.441L299.655 135.176L301.856 201.209Z" fill="#171753"/>
<path d="M449.594 390.065C449.181 388.348 447.943 386.895 446.43 385.971L439.002 381.877C431.436 377.651 425.246 367.349 425.246 359.029V311.749C425.246 311.749 425.246 311.617 425.108 311.617L417.68 307.523C417.543 307.391 417.405 307.523 417.405 307.655C417.955 309.504 418.368 311.353 418.368 313.202V347.407C418.368 349.52 417.955 351.237 417.13 352.558L416.305 347.011C416.305 346.879 416.167 346.879 416.167 346.879L400.623 348.596H400.485C397.184 344.502 394.983 339.219 394.983 334.597V300.391C394.983 298.543 395.396 296.958 395.946 295.769C395.946 295.637 395.946 295.637 395.946 295.505L388.38 291.279C388.243 291.279 388.105 291.279 388.105 291.411V338.295C388.105 346.747 381.777 350.313 374.212 345.955L366.509 341.728C365.683 341.332 365.133 341.2 364.583 341.464L364.445 341.596C364.445 341.596 357.43 344.238 350.002 349.652C349.864 349.652 349.864 349.784 350.002 349.917L355.779 354.935L427.172 392.97L434.187 400.894C434.187 400.894 434.325 401.026 434.325 400.894C435.425 400.498 443.954 397.329 449.043 392.574C449.594 392.178 449.869 391.254 449.594 390.065Z" fill="#BEF0ED"/>
<path d="M434.324 401.687C434.049 401.687 433.774 401.555 433.636 401.423L426.758 393.631L355.366 355.595L355.228 355.463L349.451 350.445C349.176 350.313 349.176 350.049 349.176 349.784C349.176 349.52 349.313 349.256 349.588 349.124C357.017 343.709 363.894 341.068 364.17 340.936H364.307C365.27 340.408 366.233 340.804 366.921 341.2L374.624 345.426C378.063 347.275 381.227 347.671 383.703 346.351C386.041 345.03 387.417 342.257 387.417 338.427V291.543C387.417 291.279 387.554 290.882 387.83 290.75C388.105 290.618 388.517 290.618 388.792 290.75L396.358 294.977C396.771 295.241 396.908 295.769 396.771 296.165C396.221 297.354 395.808 298.806 395.808 300.523V334.729C395.808 338.955 397.734 343.973 400.898 348.067L416.029 346.351C416.579 346.351 416.992 346.615 417.129 347.143L417.405 349.52C417.542 348.992 417.542 348.332 417.542 347.671V313.466C417.542 311.881 417.267 310.032 416.717 308.183C416.579 307.787 416.717 307.391 416.992 307.259C417.267 306.995 417.68 306.995 418.092 307.127L425.52 311.221C425.796 311.353 425.933 311.749 425.933 312.013V359.029C425.933 367.217 431.986 377.122 439.276 381.216L446.704 385.31C448.63 386.367 449.868 388.084 450.281 389.933C450.556 391.253 450.281 392.442 449.593 393.102C444.366 397.989 435.562 401.291 434.599 401.555C434.599 401.687 434.462 401.687 434.324 401.687ZM356.191 354.275L427.721 392.442L427.859 392.574L434.599 400.102C436.663 399.31 444.091 396.404 448.63 392.046C449.043 391.782 449.043 391.121 448.905 390.197C448.63 388.744 447.53 387.423 446.017 386.631L438.588 382.537C430.748 378.179 424.42 367.613 424.42 359.029V312.145L418.505 308.844C418.918 310.296 419.055 311.749 419.055 313.202V347.407C419.055 349.652 418.643 351.501 417.68 352.954L416.579 354.803L415.616 347.539L400.76 349.256C400.485 349.256 400.072 349.124 399.935 348.86C396.358 344.37 394.295 338.955 394.295 334.333V300.127C394.295 298.41 394.57 296.958 395.12 295.637L388.93 292.203V338.03C388.93 342.389 387.279 345.69 384.391 347.275C381.502 348.86 377.788 348.596 373.799 346.351L366.095 342.124C365.27 341.728 365.133 341.86 364.995 341.86L364.72 341.992C364.582 341.992 357.979 344.634 350.964 349.52L356.191 354.275Z" fill="#171753"/>
<path d="M434.326 401.819C434.051 401.819 433.776 401.687 433.638 401.555L429.099 396.404L434.051 395.744C435.014 395.347 443.405 391.914 448.494 387.952L449.182 387.423L449.732 388.084C450.283 388.744 450.283 389.008 450.42 389.536C450.42 389.668 450.42 389.801 450.558 390.065C450.833 391.385 450.558 392.574 449.87 393.234C444.643 398.121 435.839 401.422 434.876 401.687C434.601 401.819 434.463 401.819 434.326 401.819ZM432.125 397.46L434.601 400.234C436.664 399.441 444.092 396.536 448.632 392.178C449.045 391.914 449.045 391.253 448.907 390.329C448.907 390.065 448.769 389.933 448.769 389.668C443.13 393.63 434.876 396.932 434.601 397.064H434.463L432.125 397.46Z" fill="#171753"/>
<path d="M425.246 359.029V340.672C422.082 339.615 419.744 338.823 419.468 338.823C419.331 338.823 419.056 338.955 418.368 339.087V347.275C418.368 349.388 417.955 351.105 417.13 352.426L416.305 346.879C416.305 346.747 416.167 346.747 416.167 346.747L400.623 348.464H400.485C399.66 347.539 398.972 346.351 398.284 345.294C397.872 345.426 397.597 345.558 397.597 345.558L399.247 377.518L407.363 382.273L407.638 382.537L414.241 386.103L415.204 384.914C415.204 384.914 423.458 380.556 431.711 375.669C427.859 370.783 425.246 364.576 425.246 359.029Z" fill="#171753"/>
<path d="M432.259 394.423L424.28 389.932C416.715 385.706 410.662 375.537 410.662 367.217V319.805L402.684 315.447C403.372 317.428 403.784 319.409 403.784 321.39V355.595C403.784 362.727 398.557 365.632 392.092 362.066C385.627 358.5 380.399 349.784 380.399 342.652V308.447C380.399 306.598 380.812 305.013 381.5 303.693L373.521 299.334V346.747C373.521 355.067 367.469 358.5 359.903 354.274L351.925 349.784C350.412 348.86 349.036 349.652 349.036 351.369C349.036 353.086 350.274 355.199 351.925 356.123L432.396 400.762C433.909 401.686 435.285 400.894 435.285 399.177C435.147 397.46 433.909 395.347 432.259 394.423Z" fill="#BEF0ED"/>
<path d="M433.636 401.819C433.086 401.819 432.536 401.687 431.986 401.291L351.514 356.784C349.726 355.727 348.213 353.35 348.213 351.369C348.213 350.181 348.626 349.388 349.451 348.992C350.276 348.596 351.239 348.596 352.202 349.124L360.18 353.614C363.619 355.463 366.783 355.86 368.984 354.539C371.323 353.218 372.561 350.445 372.561 346.747V298.014L382.327 303.429L382.052 304.089C381.364 305.278 381.089 306.731 381.089 308.447V342.653C381.089 349.52 386.179 357.973 392.369 361.406C395.258 362.991 397.871 363.255 399.797 362.199C401.723 361.142 402.823 358.765 402.823 355.595V321.39C402.823 319.673 402.548 317.692 401.861 315.711L401.173 313.862L411.214 319.409V367.349C411.214 375.405 417.129 385.31 424.42 389.405L432.398 393.895C434.187 394.951 435.7 397.329 435.7 399.31C435.7 400.498 435.287 401.291 434.462 401.687C434.324 401.819 434.049 401.819 433.636 401.819ZM350.551 350.181C350.414 350.181 350.276 350.181 350.139 350.313C349.864 350.445 349.726 350.841 349.726 351.369C349.726 352.822 350.826 354.671 352.202 355.463L432.673 400.102C433.224 400.366 433.636 400.498 433.911 400.234C434.187 400.102 434.324 399.706 434.324 399.178C434.324 397.725 433.224 395.876 431.848 395.083L423.87 390.593C416.167 386.235 409.839 375.802 409.839 367.217V320.201L403.924 316.9C404.337 318.352 404.474 319.805 404.474 321.258V355.463C404.474 359.161 403.099 362.067 400.622 363.387C398.146 364.708 394.983 364.444 391.544 362.595C384.803 358.897 379.439 349.917 379.439 342.521V308.315C379.439 306.599 379.714 305.146 380.264 303.825L374.074 300.391V346.483C374.074 350.841 372.561 354.011 369.672 355.595C366.783 357.18 363.069 356.784 359.218 354.671L351.239 350.181C351.102 350.313 350.826 350.181 350.551 350.181Z" fill="#171753"/>
<path d="M380.397 308.448V342.653C380.397 349.785 385.625 358.501 392.09 362.067C398.555 365.633 403.782 362.727 403.782 355.596V321.39C403.782 319.541 403.37 317.428 402.682 315.447L406.809 317.692V304.618H380.948C380.535 305.806 380.397 306.995 380.397 308.448Z" fill="#BEF0ED"/>
<path d="M397.32 364.444C395.532 364.444 393.606 363.916 391.68 362.859C384.94 359.161 379.575 350.181 379.575 342.785V308.58C379.575 307.127 379.85 305.806 380.263 304.618L380.401 304.089H407.637V319.277L403.923 317.296C404.336 318.749 404.473 320.202 404.473 321.654V355.86C404.473 359.558 403.098 362.463 400.622 363.784C399.659 364.18 398.558 364.444 397.32 364.444ZM381.501 305.542C381.226 306.467 381.088 307.391 381.088 308.58V342.785C381.088 349.653 386.178 358.105 392.368 361.539C395.257 363.123 397.87 363.387 399.796 362.331C401.722 361.274 402.822 358.897 402.822 355.728V321.522C402.822 319.805 402.547 317.824 401.86 315.843L401.172 313.994L405.849 316.636V305.542H381.501Z" fill="#171753"/>
<path d="M397.595 304.75H380.951C380.538 305.807 380.4 307.127 380.4 308.448V342.653C380.4 347.936 383.289 354.143 387.416 358.501C391.543 358.765 394.569 355.86 394.569 350.445V316.24C394.569 314.391 394.156 312.278 393.468 310.297L397.595 312.542V304.75Z" fill="#171753"/>
<path d="M387.965 359.293C387.69 359.293 387.552 359.293 387.277 359.293H387.002L386.727 359.029C382.325 354.407 379.437 348.068 379.437 342.785V308.58C379.437 307.127 379.712 305.806 380.124 304.618L380.262 304.089H398.282V314.126L394.568 312.145C394.981 313.598 395.118 315.051 395.118 316.504V350.709C395.118 353.879 394.155 356.256 392.505 357.841C391.404 358.765 389.753 359.293 387.965 359.293ZM387.69 357.709C389.203 357.709 390.441 357.312 391.404 356.52C392.78 355.199 393.605 353.218 393.605 350.577V316.372C393.605 314.655 393.33 312.674 392.642 310.693L391.954 308.844L396.631 311.485V305.674H381.362C381.087 306.599 380.95 307.523 380.95 308.712V342.917C381.087 347.671 383.701 353.482 387.69 357.709Z" fill="#171753"/>
<path d="M384.253 306.599V340.804C384.253 347.936 389.48 356.653 395.945 360.218C398.009 361.407 399.935 361.803 401.723 361.671C402.961 360.35 403.786 358.237 403.786 355.464V321.259C403.786 319.41 403.373 317.297 402.686 315.316L406.812 317.561V313.995C406.812 313.731 406.675 313.599 406.675 313.335L406.812 313.467V304.354H384.528C384.39 305.278 384.253 305.939 384.253 306.599Z" fill="#BEF0ED"/>
<path d="M401.31 362.595C399.522 362.595 397.596 362.067 395.671 361.01C388.93 357.312 383.565 348.332 383.565 340.936V306.731C383.565 306.07 383.565 305.41 383.703 304.75L383.841 304.089H407.776V319.277L404.062 317.296C404.474 318.749 404.612 320.202 404.612 321.654V355.86C404.612 358.633 403.786 360.878 402.411 362.463L402.136 362.727H401.861C401.586 362.595 401.448 362.595 401.31 362.595ZM385.216 305.542C385.216 305.938 385.216 306.334 385.216 306.731V340.936C385.216 347.804 390.306 356.256 396.496 359.69C398.284 360.614 399.935 361.142 401.448 361.142C402.548 359.822 403.099 357.973 403.099 355.728V321.522C403.099 319.805 402.824 317.824 402.136 315.843L401.448 313.994L406.125 316.636V314.391C406.125 314.259 406.125 314.126 405.987 313.994L405.3 312.145L406.125 312.542V305.542H385.216Z" fill="#171753"/>
<path d="M452.893 262.884L450.692 364.444L492.648 387.688L506.266 380.16V244.923C506.266 241.622 504.89 238.056 502.964 235.415L479.442 248.489L452.893 262.884Z" fill="#171753"/>
<path d="M492.648 388.612L449.867 364.84V364.444L452.068 262.488L479.029 247.697L503.24 234.358L503.652 234.886C505.853 237.792 507.091 241.622 507.091 244.923V380.688L492.648 388.612ZM451.518 364.048L492.648 386.895L505.441 379.896V244.923C505.441 242.15 504.478 238.98 502.689 236.339L479.717 249.017L453.581 263.281L451.518 364.048Z" fill="#171753"/>
<path d="M487.559 397.329L296.629 291.543C292.639 289.298 289.476 283.487 289.476 278.336V137.157C289.476 132.138 292.639 129.761 296.629 132.006L487.559 237.792C491.548 240.037 494.712 245.848 494.712 250.998V392.178C494.712 397.197 491.548 399.574 487.559 397.329Z" fill="#ECFFFE"/>
<path d="M490.448 398.913C489.485 398.913 488.385 398.649 487.147 397.989L296.216 292.203C292.089 289.958 288.65 283.751 288.65 278.336V137.157C288.65 134.251 289.751 132.006 291.539 130.949C293.052 130.025 294.978 130.157 297.041 131.346L487.972 237.131C492.099 239.376 495.538 245.584 495.538 250.998V392.178C495.538 395.084 494.437 397.329 492.649 398.385C491.961 398.781 491.136 398.913 490.448 398.913ZM487.972 396.8C489.485 397.593 490.861 397.725 491.823 397.197C493.199 396.404 493.887 394.687 493.887 392.31V250.998C493.887 246.244 490.861 240.565 487.147 238.452L296.216 132.666C294.703 131.874 293.327 131.742 292.364 132.27C290.989 133.063 290.301 134.779 290.301 137.157V278.468C290.301 283.223 293.327 288.902 297.041 291.015L487.972 396.8Z" fill="#171753"/>
<path d="M486.872 382.405L297.317 277.28C296.217 276.619 295.254 275.035 295.254 273.582V140.194C295.254 138.741 296.217 138.081 297.317 138.741L487.01 243.867C488.11 244.527 489.073 246.112 489.073 247.565V380.952C488.936 382.405 487.973 383.065 486.872 382.405Z" fill="#BEF0ED"/>
<path d="M487.698 383.33C487.285 383.33 486.872 383.198 486.46 382.934L296.905 277.94C295.529 277.148 294.429 275.299 294.429 273.582V140.194C294.429 139.138 294.841 138.345 295.529 137.949C296.079 137.553 296.905 137.685 297.593 138.081L487.285 243.207C488.661 243.999 489.761 245.848 489.761 247.565V380.953C489.761 382.009 489.348 382.802 488.661 383.198C488.385 383.33 488.11 383.33 487.698 383.33ZM487.285 381.745C487.423 381.745 487.698 381.877 487.835 381.877C487.973 381.745 488.11 381.481 488.11 380.953V247.565C488.11 246.376 487.285 244.924 486.46 244.527L296.905 139.27C296.767 139.27 296.492 139.138 296.355 139.138C296.217 139.27 296.079 139.534 296.079 140.062V273.45C296.079 274.639 296.905 276.091 297.73 276.488L487.285 381.745Z" fill="#171753"/>
<path d="M488.66 381.349L299.106 276.223C298.005 275.563 297.042 273.978 297.042 272.525V139.138C297.042 139.006 297.042 138.741 297.042 138.609C296.079 138.213 295.254 138.873 295.254 140.194V273.582C295.254 275.035 296.217 276.751 297.317 277.28L487.01 382.405C487.973 382.933 488.798 382.537 489.073 381.481C488.798 381.349 488.798 381.349 488.66 381.349Z" fill="#171753"/>
<path d="M487.698 383.33C487.285 383.33 486.872 383.198 486.46 382.934L296.905 277.94C295.529 277.148 294.429 275.299 294.429 273.582V140.194C294.429 139.27 294.841 138.477 295.392 138.081C295.942 137.685 296.63 137.685 297.317 137.949L297.868 138.213V138.61C297.868 138.742 297.868 138.874 297.868 139.006V272.393C297.868 273.582 298.693 275.035 299.518 275.431L489.073 380.688L488.661 381.349L489.073 380.688L489.761 380.953V381.613C489.623 382.405 489.211 382.934 488.523 383.198C488.248 383.33 487.973 383.33 487.698 383.33ZM296.217 139.27C296.079 139.402 296.079 139.666 296.079 140.062V273.45C296.079 274.639 296.905 276.091 297.73 276.488L487.423 381.613C487.698 381.745 487.835 381.745 487.973 381.745C487.973 381.745 487.973 381.745 488.11 381.745L298.693 276.884C297.317 276.091 296.217 274.242 296.217 272.526V139.27Z" fill="#171753"/>
<path d="M398.971 342.124L385.215 334.464C384.664 334.068 384.114 333.276 384.114 332.483C384.114 331.691 384.664 331.295 385.215 331.691L398.971 339.351C399.521 339.747 400.071 340.54 400.071 341.332C400.071 342.124 399.521 342.521 398.971 342.124Z" fill="#171753"/>
<path d="M399.383 343.049C399.108 343.049 398.833 342.917 398.558 342.785L384.802 335.125C383.977 334.597 383.289 333.54 383.289 332.484C383.289 331.823 383.564 331.295 384.114 331.031C384.527 330.767 385.077 330.767 385.628 331.031L399.383 338.691C400.209 339.219 400.896 340.276 400.896 341.332C400.896 341.993 400.621 342.521 400.071 342.785C399.796 342.917 399.658 343.049 399.383 343.049ZM384.94 332.352C384.94 332.484 384.94 332.484 384.94 332.352C384.94 333.012 385.352 333.672 385.628 333.804L399.246 341.332V341.2C399.246 340.672 398.833 340.012 398.558 339.88L384.94 332.352Z" fill="#171753"/>
<path d="M386.641 351.767L383.898 353.281L384.653 354.54L387.395 353.026L386.641 351.767Z" fill="#BEF0ED"/>
<path d="M502.137 349.784L498.836 351.633C498.286 351.898 497.735 351.633 497.735 350.841V342.257C497.735 341.464 498.148 340.672 498.836 340.276L502.137 338.427C502.687 338.163 503.238 338.427 503.238 339.219V347.803C503.238 348.596 502.687 349.52 502.137 349.784Z" fill="#171753"/>
<path d="M502.137 333.013L498.836 334.861C498.286 335.126 497.735 334.861 497.735 334.069V325.485C497.735 324.692 498.148 323.9 498.836 323.504L502.137 321.655C502.687 321.391 503.238 321.655 503.238 322.447V331.032C503.238 331.692 502.687 332.616 502.137 333.013Z" fill="#171753"/>
<path d="M304.125 270.103L295.905 274.659L296.662 275.917L304.881 271.361L304.125 270.103Z" fill="#BEF0ED"/>
<path d="M328.565 141.971L327.809 143.229L464.922 219.234L465.678 217.976L328.565 141.971Z" fill="#171753"/>
<path d="M309.008 156.181C309.008 156.664 308.501 156.979 308.069 156.765L305.106 155.297C304.884 155.187 304.744 154.961 304.744 154.713C304.744 154.231 305.251 153.916 305.684 154.13L308.647 155.598C308.868 155.708 309.008 155.934 309.008 156.181Z" fill="#171753" stroke="#171753" stroke-width="0.5"/>
<path d="M309.008 168.976C309.008 169.46 308.494 169.77 308.066 169.545L305.087 167.977C304.876 167.866 304.744 167.647 304.744 167.408C304.744 166.924 305.258 166.614 305.686 166.839L308.665 168.408C308.876 168.519 309.008 168.738 309.008 168.976Z" fill="#171753" stroke="#171753" stroke-width="0.5"/>
<path d="M309.008 181.67C309.008 182.153 308.501 182.468 308.069 182.253L305.106 180.785C304.884 180.676 304.744 180.45 304.744 180.202C304.744 179.719 305.251 179.405 305.684 179.619L308.647 181.087C308.868 181.197 309.008 181.423 309.008 181.67Z" fill="#171753" stroke="#171753" stroke-width="0.5"/>
<path d="M309.008 194.348C309.008 194.831 308.501 195.146 308.069 194.932L305.106 193.464C304.884 193.354 304.744 193.128 304.744 192.88C304.744 192.398 305.251 192.083 305.684 192.297L308.647 193.765C308.868 193.875 309.008 194.101 309.008 194.348Z" fill="#171753" stroke="#171753" stroke-width="0.5"/>
<path d="M309.008 207.027C309.008 207.51 308.501 207.825 308.069 207.61L305.106 206.142C304.884 206.032 304.744 205.806 304.744 205.559C304.744 205.076 305.251 204.762 305.684 204.976L308.647 206.444C308.868 206.554 309.008 206.78 309.008 207.027Z" fill="#171753" stroke="#171753" stroke-width="0.5"/>
<path d="M309.008 232.516C309.008 232.999 308.501 233.314 308.069 233.1L305.106 231.632C304.884 231.522 304.744 231.296 304.744 231.048C304.744 230.566 305.251 230.251 305.684 230.465L308.647 231.933C308.868 232.043 309.008 232.269 309.008 232.516Z" fill="#171753" stroke="#171753" stroke-width="0.5"/>
<path d="M309.008 245.195C309.008 245.677 308.501 245.992 308.069 245.778L305.106 244.31C304.884 244.2 304.744 243.974 304.744 243.727C304.744 243.244 305.251 242.929 305.684 243.143L308.647 244.611C308.868 244.721 309.008 244.947 309.008 245.195Z" fill="#171753" stroke="#171753" stroke-width="0.5"/>
<path d="M309.008 257.961C309.008 258.404 308.544 258.692 308.148 258.496L305.099 256.985C304.882 256.877 304.744 256.656 304.744 256.413C304.744 255.933 305.254 255.625 305.679 255.849L308.69 257.434C308.886 257.537 309.008 257.74 309.008 257.961Z" fill="#171753" stroke="#171753" stroke-width="0.5"/>
<path d="M309.008 270.684C309.008 271.167 308.501 271.481 308.069 271.267L305.106 269.799C304.884 269.689 304.744 269.463 304.744 269.216C304.744 268.733 305.251 268.418 305.684 268.633L308.647 270.101C308.868 270.211 309.008 270.437 309.008 270.684Z" fill="#171753" stroke="#171753" stroke-width="0.5"/>
<path d="M391.544 202.242C391.544 202.726 391.023 203.032 390.6 202.796L313.186 159.657C312.985 159.545 312.86 159.333 312.86 159.103C312.86 158.619 313.381 158.313 313.804 158.549L391.218 201.688C391.419 201.8 391.544 202.012 391.544 202.242Z" fill="#171753" stroke="#171753" stroke-width="0.5"/>
<path d="M366.233 200.921C366.233 201.405 365.712 201.711 365.289 201.476L313.186 172.467C312.985 172.355 312.86 172.143 312.86 171.913C312.86 171.429 313.381 171.123 313.804 171.358L365.907 200.367C366.108 200.479 366.233 200.691 366.233 200.921Z" fill="#171753" stroke="#171753" stroke-width="0.5"/>
<path d="M334.732 195.906C334.732 196.39 334.213 196.697 333.789 196.464L313.19 185.146C312.987 185.034 312.86 184.82 312.86 184.588C312.86 184.104 313.379 183.797 313.804 184.03L334.402 195.348C334.606 195.46 334.732 195.674 334.732 195.906Z" fill="#171753" stroke="#171753" stroke-width="0.5"/>
<path d="M391.544 240.409C391.544 240.893 391.023 241.199 390.6 240.963L313.186 197.824C312.985 197.712 312.86 197.5 312.86 197.27C312.86 196.786 313.381 196.48 313.804 196.716L391.218 239.855C391.419 239.967 391.544 240.179 391.544 240.409Z" fill="#171753" stroke="#171753" stroke-width="0.5"/>
<path d="M358.805 234.732C358.805 235.216 358.285 235.522 357.861 235.287L313.187 210.503C312.986 210.391 312.86 210.178 312.86 209.947C312.86 209.463 313.38 209.157 313.804 209.392L358.478 234.176C358.68 234.288 358.805 234.501 358.805 234.732Z" fill="#171753" stroke="#171753" stroke-width="0.5"/>
<path d="M358.805 247.411C358.805 247.896 358.285 248.202 357.861 247.968L313.189 223.313C312.986 223.201 312.86 222.988 312.86 222.757C312.86 222.272 313.38 221.966 313.804 222.2L358.476 246.855C358.679 246.967 358.805 247.18 358.805 247.411Z" fill="#171753" stroke="#171753" stroke-width="0.5"/>
<path d="M368.296 265.503C368.296 265.987 367.776 266.293 367.353 266.058L313.187 235.992C312.985 235.88 312.86 235.667 312.86 235.436C312.86 234.952 313.38 234.646 313.804 234.881L367.969 264.948C368.171 265.06 368.296 265.272 368.296 265.503Z" fill="#171753" stroke="#171753" stroke-width="0.5"/>
<path d="M341.61 263.52C341.61 264.004 341.089 264.309 340.667 264.072L313.184 248.67C312.984 248.558 312.86 248.347 312.86 248.118C312.86 247.633 313.381 247.328 313.804 247.565L341.286 262.967C341.486 263.079 341.61 263.29 341.61 263.52Z" fill="#171753" stroke="#171753" stroke-width="0.5"/>
<path d="M391.544 303.934C391.544 304.418 391.023 304.724 390.601 304.488L313.157 261.332C312.974 261.231 312.86 261.038 312.86 260.828C312.86 260.388 313.333 260.109 313.718 260.323L391.217 303.38C391.419 303.492 391.544 303.704 391.544 303.934Z" fill="#171753" stroke="#171753" stroke-width="0.5"/>
<path d="M344.911 290.727C344.911 291.211 344.391 291.517 343.968 291.282L313.187 274.159C312.985 274.047 312.86 273.835 312.86 273.604C312.86 273.12 313.381 272.814 313.804 273.05L344.585 290.173C344.787 290.285 344.911 290.497 344.911 290.727Z" fill="#171753" stroke="#171753" stroke-width="0.5"/>
<path d="M445.052 232.092C445.052 232.576 444.533 232.883 444.109 232.649L393.934 204.956C393.731 204.844 393.605 204.631 393.605 204.4C393.605 203.916 394.125 203.609 394.549 203.843L444.724 231.535C444.926 231.647 445.052 231.86 445.052 232.092Z" fill="#171753" stroke="#171753" stroke-width="0.5"/>
<path d="M420.567 230.77C420.567 231.254 420.047 231.56 419.623 231.325L369.447 203.503C369.245 203.391 369.12 203.179 369.12 202.948C369.12 202.464 369.64 202.157 370.063 202.392L420.24 230.214C420.442 230.326 420.567 230.539 420.567 230.77Z" fill="#171753" stroke="#171753" stroke-width="0.5"/>
<path d="M389.205 225.752C389.205 226.236 388.685 226.542 388.261 226.308L338.223 198.617C338.021 198.505 337.896 198.292 337.896 198.061C337.896 197.577 338.415 197.271 338.839 197.505L388.877 225.196C389.079 225.308 389.205 225.521 389.205 225.752Z" fill="#171753" stroke="#171753" stroke-width="0.5"/>
<path d="M442.851 254.806C442.851 255.29 442.331 255.596 441.908 255.36L391.868 227.54C391.667 227.428 391.542 227.216 391.542 226.985C391.542 226.501 392.062 226.195 392.485 226.43L442.525 254.251C442.726 254.363 442.851 254.575 442.851 254.806Z" fill="#171753" stroke="#171753" stroke-width="0.5"/>
<path d="M445.052 270.26C445.052 270.744 444.533 271.05 444.109 270.816L393.934 243.124C393.731 243.012 393.605 242.799 393.605 242.567C393.605 242.083 394.125 241.776 394.549 242.01L444.724 269.703C444.926 269.815 445.052 270.028 445.052 270.26Z" fill="#171753" stroke="#171753" stroke-width="0.5"/>
<path d="M412.038 263.918C412.038 264.402 411.517 264.708 411.094 264.473L361.055 236.652C360.853 236.54 360.729 236.328 360.729 236.097C360.729 235.613 361.249 235.307 361.672 235.543L411.711 263.363C411.913 263.475 412.038 263.687 412.038 263.918Z" fill="#171753" stroke="#171753" stroke-width="0.5"/>
<path d="M412.038 276.598C412.038 277.082 411.518 277.388 411.094 277.154L361.056 249.463C360.854 249.351 360.729 249.138 360.729 248.907C360.729 248.423 361.248 248.116 361.672 248.351L411.71 276.042C411.912 276.154 412.038 276.366 412.038 276.598Z" fill="#171753" stroke="#171753" stroke-width="0.5"/>
<path d="M422.353 296.143C422.353 296.627 421.833 296.934 421.41 296.699L371.233 268.877C371.032 268.765 370.906 268.552 370.906 268.321C370.906 267.837 371.426 267.531 371.85 267.766L422.026 295.588C422.228 295.7 422.353 295.912 422.353 296.143Z" fill="#171753" stroke="#171753" stroke-width="0.5"/>
<path d="M396.631 294.69C396.631 295.174 396.111 295.48 395.688 295.245L345.649 267.424C345.447 267.312 345.322 267.1 345.322 266.869C345.322 266.385 345.842 266.079 346.266 266.315L396.305 294.135C396.506 294.247 396.631 294.459 396.631 294.69Z" fill="#171753" stroke="#171753" stroke-width="0.5"/>
<path d="M445.052 333.915C445.052 334.399 444.532 334.705 444.109 334.47L393.933 306.648C393.731 306.536 393.605 306.324 393.605 306.093C393.605 305.609 394.125 305.302 394.549 305.537L444.725 333.359C444.927 333.471 445.052 333.684 445.052 333.915Z" fill="#171753" stroke="#171753" stroke-width="0.5"/>
<path d="M400.347 321.631C400.347 322.115 399.827 322.421 399.404 322.186L349.364 294.366C349.163 294.254 349.038 294.041 349.038 293.811C349.038 293.327 349.558 293.021 349.981 293.256L400.021 321.076C400.222 321.188 400.347 321.401 400.347 321.631Z" fill="#171753" stroke="#171753" stroke-width="0.5"/>
<path d="M296.767 288.927L296.767 288.927L296.76 288.922L196.845 229.18C195.598 228.435 194.59 228.429 193.932 228.804C193.275 229.179 192.754 230.057 192.754 231.554L192.754 231.556L192.405 305.511C192.405 305.512 192.405 305.512 192.405 305.513C192.405 307.009 192.914 308.71 193.762 310.242C194.612 311.774 195.77 313.08 197.013 313.823L197.013 313.823L296.928 373.565C296.928 373.565 296.928 373.565 296.928 373.565C298.175 374.31 299.183 374.316 299.841 373.941C300.498 373.566 301.019 372.688 301.019 371.192L301.019 371.188L301.456 297.234C301.456 297.233 301.456 297.233 301.456 297.232C301.455 295.736 300.947 294.036 300.089 292.506C299.23 290.975 298.052 289.67 296.767 288.927Z" fill="#F5F5F5" stroke="#171753" stroke-width="1.17863"/>
<path d="M205.589 323.615H202.704V319.566H205.589V323.615Z" fill="#F5F5F5"/>
<path d="M195.457 320.193L195.574 319.997L195.457 320.193C194.146 319.409 192.397 319.01 190.635 319.01C188.874 319.01 187.125 319.409 185.814 320.193L185.814 320.193L185.803 320.199L115.206 357.473V363.893C115.289 364.791 115.846 365.719 117.107 366.498C117.108 366.498 117.108 366.498 117.109 366.499L217.108 426.239L216.991 426.435L217.108 426.239C218.419 427.023 220.168 427.422 221.931 427.433C223.693 427.444 225.443 427.067 226.755 426.327C226.755 426.327 226.756 426.327 226.757 426.326L295.369 385.573C295.37 385.573 295.37 385.572 295.371 385.572C296.631 384.793 297.189 383.865 297.271 382.968V376.638H295.193V379.379V379.781L294.847 379.575L195.457 320.193Z" fill="#171753" stroke="#171753" stroke-width="0.456397"/>
<path d="M204.454 319.619L203.416 320.202L202.527 320.701L203.403 321.222L276.045 364.409L276.346 364.588L276.647 364.409L278.006 363.599L295.274 373.945L295.281 373.949L295.287 373.953C296.519 374.648 297.02 375.537 297.02 376.33C297.02 377.128 296.514 378.042 295.275 378.782L226.656 419.539L226.654 419.54C225.413 420.282 223.733 420.671 222.021 420.66C220.31 420.649 218.633 420.239 217.393 419.457L217.387 419.454L217.381 419.45L117.379 359.708C116.14 358.967 115.634 358.054 115.634 357.256C115.634 356.462 116.135 355.574 117.367 354.879L117.378 354.872L117.378 354.872L185.998 314.114L185.999 314.114C187.241 313.371 188.922 312.982 190.636 312.982C192.35 312.982 194.03 313.371 195.272 314.113L204.454 319.619ZM204.454 319.619L195.273 314.114L204.454 319.619Z" fill="#F5F5F5" stroke="#171753" stroke-width="1.17863"/>
<path d="M195.661 227.055C196.098 226.785 196.622 226.515 197.059 226.246C197.933 225.706 199.245 225.796 200.556 226.605L300.558 286.348C303.268 287.967 305.453 291.926 305.453 295.165L305.103 369.033C305.103 370.652 304.579 371.732 303.617 372.272C302.394 372.992 301.257 373.711 300.121 374.341C300.995 373.801 301.519 372.722 301.519 371.102L301.957 297.324C301.957 294.085 299.771 290.126 297.061 288.507L197.059 228.675C195.661 227.865 194.437 227.775 193.563 228.315C193.65 228.225 195.136 227.325 195.661 227.055Z" fill="#171753"/>
<path d="M194.353 333.765L187.359 337.904L194.527 342.223L201.521 338.084L194.353 333.765Z" fill="#171753"/>
<path d="M183.25 337.273L176.344 341.322L183.512 345.64L190.418 341.592L183.25 337.273Z" fill="#171753"/>
<path d="M173.284 331.787L165.242 336.555L160.609 339.254L158.249 340.694L170.4 347.892L177.306 343.843L173.634 341.594L181.589 336.825L173.284 331.787Z" fill="#171753"/>
<path d="M191.29 342.13L184.384 346.179L191.552 350.498L198.458 346.449L191.29 342.13Z" fill="#171753"/>
<path d="M156.674 341.593L149.769 345.732L164.542 354.639L171.447 350.5L156.674 341.593Z" fill="#171753"/>
<path d="M172.145 350.95L165.24 354.999L176.429 361.747L183.422 357.608L172.145 350.95Z" fill="#171753"/>
<path d="M194.264 354.008L187.358 358.147L194.526 362.466L201.432 358.327L194.264 354.008Z" fill="#171753"/>
<path d="M190.678 321.439L183.772 325.578L190.94 329.896L197.934 325.758L190.678 321.439Z" fill="#171753"/>
<path d="M199.246 326.566L192.34 330.705L199.508 335.024L206.414 330.885L199.246 326.566Z" fill="#171753"/>
<path d="M182.2 326.478L175.294 330.616L186.396 337.274L193.302 333.226L182.2 326.478Z" fill="#171753"/>
<path d="M207.809 331.696L200.815 335.835L207.983 340.154L214.977 336.015L207.809 331.696Z" fill="#171753"/>
<path d="M216.29 336.916L209.384 340.964L216.552 345.283L223.458 341.234L216.29 336.916Z" fill="#171753"/>
<path d="M202.478 338.712L195.572 342.761L202.74 347.08L209.646 342.941L202.478 338.712Z" fill="#171753"/>
<path d="M224.856 342.041L217.863 346.09L225.119 350.408L232.024 346.27L224.856 342.041Z" fill="#171753"/>
<path d="M210.608 343.57L203.703 347.709L210.871 352.028L217.776 347.889L210.608 343.57Z" fill="#171753"/>
<path d="M178.264 344.38L171.271 348.519L178.438 352.837L185.432 348.699L178.264 344.38Z" fill="#171753"/>
<path d="M233.427 347.082L226.434 351.22L233.602 355.539L240.595 351.49L233.427 347.082Z" fill="#171753"/>
<path d="M199.418 346.991L192.425 351.04L199.593 355.359L206.499 351.22L199.418 346.991Z" fill="#171753"/>
<path d="M218.826 348.521L211.833 352.57L219.001 356.888L225.994 352.84L218.826 348.521Z" fill="#171753"/>
<path d="M186.308 349.241L179.402 353.379L186.482 357.608L193.476 353.559L186.308 349.241Z" fill="#171753"/>
<path d="M207.461 351.758L200.468 355.897L207.636 360.216L214.629 356.077L207.461 351.758Z" fill="#171753"/>
<path d="M241.904 352.299L234.999 356.348L242.167 360.666L249.072 356.618L241.904 352.299Z" fill="#171753"/>
<path d="M226.955 353.379L220.049 357.518L227.217 361.836L234.123 357.698L226.955 353.379Z" fill="#171753"/>
<path d="M215.504 356.617L208.598 360.756L215.766 365.075L222.672 360.936L215.504 356.617Z" fill="#171753"/>
<path d="M250.469 357.428L243.563 361.477L250.731 365.796L257.637 361.747L250.469 357.428Z" fill="#171753"/>
<path d="M235.082 358.327L228.177 362.375L235.345 366.694L242.338 362.645L235.082 358.327Z" fill="#171753"/>
<path d="M202.655 359.047L195.662 363.096L202.83 367.414L209.823 363.366L202.655 359.047Z" fill="#171753"/>
<path d="M223.546 361.477L216.641 365.616L223.809 369.935L230.802 365.796L223.546 361.477Z" fill="#171753"/>
<path d="M259.037 362.557L252.044 366.605L259.212 370.924L266.205 366.875L259.037 362.557Z" fill="#171753"/>
<path d="M243.301 363.185L236.308 367.323L243.476 371.642L250.469 367.503L243.301 363.185Z" fill="#171753"/>
<path d="M210.608 363.815L203.615 367.954L210.783 372.273L217.776 368.134L210.608 363.815Z" fill="#171753"/>
<path d="M231.678 366.334L224.685 370.473L231.853 374.792L238.846 370.653L231.678 366.334Z" fill="#171753"/>
<path d="M218.652 368.674L211.747 372.813L218.915 377.041L225.82 372.993L218.652 368.674Z" fill="#171753"/>
<path d="M270.75 369.572L263.844 373.711L271.012 378.03L277.918 373.891L270.75 369.572Z" fill="#171753"/>
<path d="M239.719 371.193L232.726 375.332L239.894 379.65L246.887 375.512L239.719 371.193Z" fill="#171753"/>
<path d="M184.121 358.059L177.128 362.198L208.684 381.092L215.59 377.043L184.121 358.059Z" fill="#171753"/>
<path d="M226.605 373.444L219.699 377.583L226.867 381.901L233.86 377.763L226.605 373.444Z" fill="#171753"/>
<path d="M251.782 368.312L244.876 372.451L262.534 383.068L269.439 378.929L251.782 368.312Z" fill="#171753"/>
<path d="M247.762 376.052L240.857 380.191L253.969 388.109L260.962 383.97L247.762 376.052Z" fill="#171753"/>
<path d="M216.64 377.671L209.647 381.72L220.923 388.468L227.829 384.329L216.64 377.671Z" fill="#171753"/>
<path d="M234.823 378.391L227.83 382.44L245.487 393.057L252.48 389.008L234.823 378.391Z" fill="#171753"/>
<path d="M228.704 384.96L221.798 389.009L237.008 398.186L243.914 394.048L228.704 384.96Z" fill="#171753"/>
<path d="M194.524 384.688C194.174 385.408 193.562 386.037 192.6 386.667L186.394 390.446C183.684 392.066 179.576 392.245 177.215 390.806L161.044 381.179C160.432 380.819 159.995 380.369 159.733 379.919C159.033 378.57 159.733 376.95 161.656 375.78L167.862 372.002C170.572 370.382 174.68 370.202 177.041 371.642L193.212 381.179C194.786 382.079 195.135 383.428 194.524 384.688Z" fill="#171753"/>
<path d="M194.523 384.688C194.174 385.407 193.562 386.037 192.6 386.667L186.394 390.446C183.684 392.065 179.576 392.245 177.215 390.806L161.044 381.179C160.432 380.819 159.995 380.369 159.733 379.919C160.082 379.199 160.694 378.569 161.656 377.94L167.862 374.161C170.572 372.541 174.68 372.361 177.041 373.801L193.212 383.338C193.824 383.788 194.261 384.238 194.523 384.688Z" fill="#FFEE81"/>
<path d="M197.059 308.031L295.226 367.413V298.584L197.059 239.202V308.031Z" fill="#FFEE81"/>
<g style="mix-blend-mode:multiply">
<path d="M198.72 240.191V307.041L295.226 365.434V367.413L197.059 308.031V239.202L198.72 240.191Z" fill="#353570"/>
</g>
<path d="M207.443 253.458C207.443 253.717 207.166 253.882 206.938 253.758L205.551 252.999C205.441 252.94 205.373 252.825 205.373 252.7C205.373 252.441 205.651 252.276 205.878 252.4L207.266 253.159C207.375 253.219 207.443 253.334 207.443 253.458Z" fill="#171753" stroke="#171753" stroke-width="0.4"/>
<path d="M207.443 260.308C207.443 260.568 207.162 260.729 206.938 260.599L205.54 259.788C205.437 259.727 205.373 259.617 205.373 259.497C205.373 259.238 205.654 259.076 205.878 259.206L207.276 260.017C207.379 260.078 207.443 260.188 207.443 260.308Z" fill="#171753" stroke="#171753" stroke-width="0.4"/>
<path d="M207.443 267.105C207.443 267.364 207.166 267.529 206.938 267.405L205.551 266.646C205.441 266.587 205.373 266.472 205.373 266.347C205.373 266.088 205.651 265.923 205.878 266.047L207.266 266.806C207.375 266.866 207.443 266.98 207.443 267.105Z" fill="#171753" stroke="#171753" stroke-width="0.4"/>
<path d="M207.443 273.893C207.443 274.153 207.166 274.317 206.938 274.193L205.551 273.434C205.441 273.375 205.373 273.26 205.373 273.135C205.373 272.876 205.651 272.711 205.878 272.836L207.266 273.594C207.375 273.654 207.443 273.769 207.443 273.893Z" fill="#171753" stroke="#171753" stroke-width="0.4"/>
<path d="M207.443 280.682C207.443 280.942 207.166 281.106 206.938 280.982L205.551 280.224C205.441 280.164 205.373 280.049 205.373 279.924C205.373 279.665 205.651 279.5 205.878 279.625L207.266 280.383C207.375 280.443 207.443 280.558 207.443 280.682Z" fill="#171753" stroke="#171753" stroke-width="0.4"/>
<path d="M207.443 294.329C207.443 294.589 207.166 294.753 206.938 294.629L205.551 293.871C205.441 293.811 205.373 293.696 205.373 293.571C205.373 293.312 205.651 293.147 205.878 293.272L207.266 294.03C207.375 294.09 207.443 294.205 207.443 294.329Z" fill="#171753" stroke="#171753" stroke-width="0.4"/>
<path d="M207.443 301.117C207.443 301.377 207.166 301.541 206.938 301.417L205.551 300.659C205.441 300.599 205.373 300.484 205.373 300.359C205.373 300.1 205.651 299.935 205.878 300.06L207.266 300.818C207.375 300.878 207.443 300.993 207.443 301.117Z" fill="#171753" stroke="#171753" stroke-width="0.4"/>
<path d="M250.509 280.12C250.509 280.379 250.225 280.538 250.005 280.402L212.47 257.333C212.372 257.273 212.312 257.166 212.312 257.051C212.312 256.791 212.597 256.633 212.817 256.768L250.352 279.837C250.45 279.898 250.509 280.004 250.509 280.12Z" fill="#171753" stroke="#171753" stroke-width="0.4"/>
<path d="M238.222 279.412C238.222 279.672 237.938 279.83 237.717 279.695L212.47 264.192C212.372 264.131 212.312 264.025 212.312 263.909C212.312 263.65 212.597 263.491 212.817 263.627L238.064 279.13C238.163 279.19 238.222 279.297 238.222 279.412Z" fill="#171753" stroke="#171753" stroke-width="0.4"/>
<path d="M222.93 276.727C222.93 276.986 222.647 277.146 222.425 277.012L212.473 270.98C212.373 270.92 212.312 270.812 212.312 270.695C212.312 270.436 212.596 270.277 212.817 270.411L222.77 276.443C222.869 276.503 222.93 276.611 222.93 276.727Z" fill="#171753" stroke="#171753" stroke-width="0.4"/>
<path d="M250.509 300.555C250.509 300.814 250.225 300.973 250.005 300.837L212.47 277.768C212.372 277.708 212.312 277.601 212.312 277.486C212.312 277.227 212.597 277.068 212.817 277.204L250.352 300.273C250.45 300.333 250.509 300.44 250.509 300.555Z" fill="#171753" stroke="#171753" stroke-width="0.4"/>
<path d="M234.616 297.515C234.616 297.775 234.332 297.934 234.111 297.798L212.471 284.557C212.373 284.497 212.312 284.39 212.312 284.274C212.312 284.015 212.596 283.856 212.817 283.991L234.458 297.232C234.556 297.293 234.616 297.4 234.616 297.515Z" fill="#171753" stroke="#171753" stroke-width="0.4"/>
<path d="M234.616 304.304C234.616 304.564 234.333 304.723 234.111 304.588L212.472 291.416C212.373 291.356 212.312 291.248 212.312 291.132C212.312 290.873 212.596 290.714 212.817 290.848L234.457 304.021C234.556 304.081 234.616 304.188 234.616 304.304Z" fill="#171753" stroke="#171753" stroke-width="0.4"/>
<path d="M239.224 313.991C239.224 314.25 238.94 314.409 238.719 314.274L212.471 298.204C212.373 298.144 212.312 298.037 212.312 297.922C212.312 297.662 212.596 297.503 212.817 297.639L239.066 313.708C239.164 313.769 239.224 313.876 239.224 313.991Z" fill="#171753" stroke="#171753" stroke-width="0.4"/>
<path d="M226.269 312.928C226.269 313.188 225.985 313.346 225.764 313.21L212.469 304.992C212.372 304.932 212.312 304.825 212.312 304.711C212.312 304.451 212.597 304.293 212.817 304.429L226.112 312.647C226.21 312.707 226.269 312.814 226.269 312.928Z" fill="#171753" stroke="#171753" stroke-width="0.4"/>
<path d="M281.611 299.905C281.611 300.164 281.327 300.323 281.106 300.189L256.795 285.39C256.696 285.33 256.636 285.222 256.636 285.106C256.636 284.847 256.919 284.688 257.141 284.823L281.451 299.621C281.55 299.681 281.611 299.789 281.611 299.905Z" fill="#171753" stroke="#171753" stroke-width="0.4"/>
<path d="M269.724 299.197C269.724 299.456 269.44 299.615 269.219 299.48L244.908 284.612C244.809 284.552 244.749 284.445 244.749 284.329C244.749 284.07 245.033 283.911 245.254 284.046L269.565 298.914C269.664 298.974 269.724 299.082 269.724 299.197Z" fill="#171753" stroke="#171753" stroke-width="0.4"/>
<path d="M254.497 296.51C254.497 296.77 254.213 296.929 253.992 296.794L229.748 281.996C229.649 281.936 229.589 281.828 229.589 281.713C229.589 281.453 229.873 281.294 230.094 281.429L254.338 296.227C254.437 296.287 254.497 296.395 254.497 296.51Z" fill="#171753" stroke="#171753" stroke-width="0.4"/>
<path d="M280.542 312.067C280.542 312.326 280.258 312.485 280.037 312.349L255.792 297.482C255.694 297.422 255.634 297.315 255.634 297.2C255.634 296.941 255.918 296.782 256.139 296.917L280.384 311.784C280.482 311.844 280.542 311.951 280.542 312.067Z" fill="#171753" stroke="#171753" stroke-width="0.4"/>
<path d="M281.611 320.341C281.611 320.6 281.327 320.759 281.106 320.625L256.795 305.826C256.696 305.766 256.636 305.658 256.636 305.542C256.636 305.283 256.919 305.124 257.141 305.259L281.451 320.057C281.55 320.117 281.611 320.225 281.611 320.341Z" fill="#171753" stroke="#171753" stroke-width="0.4"/>
<path d="M265.581 316.946C265.581 317.205 265.297 317.364 265.076 317.228L240.831 302.361C240.733 302.301 240.673 302.194 240.673 302.079C240.673 301.819 240.957 301.66 241.178 301.796L265.423 316.663C265.521 316.723 265.581 316.83 265.581 316.946Z" fill="#171753" stroke="#171753" stroke-width="0.4"/>
<path d="M265.581 323.735C265.581 323.994 265.297 324.153 265.076 324.018L240.832 309.22C240.733 309.16 240.673 309.052 240.673 308.937C240.673 308.678 240.957 308.518 241.178 308.653L265.422 323.451C265.521 323.511 265.581 323.619 265.581 323.735Z" fill="#171753" stroke="#171753" stroke-width="0.4"/>
<path d="M270.591 334.2C270.591 334.459 270.307 334.618 270.086 334.483L245.775 319.615C245.676 319.554 245.616 319.447 245.616 319.332C245.616 319.072 245.9 318.913 246.121 319.049L270.432 333.916C270.531 333.977 270.591 334.084 270.591 334.2Z" fill="#171753" stroke="#171753" stroke-width="0.4"/>
<path d="M258.103 333.422C258.103 333.681 257.82 333.84 257.599 333.704L233.354 318.837C233.255 318.777 233.195 318.67 233.195 318.555C233.195 318.295 233.479 318.137 233.7 318.272L257.945 333.139C258.044 333.199 258.103 333.306 258.103 333.422Z" fill="#171753" stroke="#171753" stroke-width="0.4"/>
<path d="M439.304 515.222C439.218 515.222 439.218 515.222 439.133 515.137L407.11 496.656C405.236 495.378 404.129 493.334 404.129 491.035V408.081C404.129 407.911 404.129 407.826 404.214 407.655C404.64 404.589 408.302 402.886 411.113 404.504H411.198C411.198 404.504 411.283 404.504 411.283 404.589L443.221 423.071C445.095 424.263 446.202 426.392 446.202 428.607L446.117 511.305C446.117 511.475 446.117 511.645 446.117 511.731C445.861 514.967 442.199 516.926 439.304 515.222Z" fill="#8989C7"/>
<path d="M439.218 515.393L439.303 515.308L439.218 515.393C439.133 515.393 439.133 515.393 439.047 515.308L407.024 496.826C405.065 495.549 403.958 493.42 403.958 491.12V408.166C403.958 407.996 403.958 407.911 404.043 407.741C404.214 406.293 405.236 405.015 406.598 404.334C408.046 403.652 409.75 403.652 411.197 404.504H411.283C411.283 404.504 411.283 404.504 411.368 404.504L443.391 422.9C444.243 423.497 445.009 424.263 445.52 425.115C446.116 426.137 446.457 427.329 446.457 428.522L446.372 511.22C446.372 511.39 446.372 511.56 446.287 511.646C446.202 513.179 445.265 514.626 443.817 515.393C442.369 516.245 440.666 516.159 439.218 515.393ZM438.622 432.354C438.622 432.354 442.624 431.162 443.902 429.544C445.18 427.925 444.498 426.052 444.498 426.052C443.987 425.03 443.221 424.178 442.284 423.582L410.261 405.1C410.261 405.1 410.175 405.1 410.175 405.015H410.09C408.983 404.419 407.876 404.249 406.769 404.504C405.491 405.1 404.554 406.293 404.384 407.655C404.384 407.826 404.299 407.911 404.299 408.081V491.035C404.299 491.461 404.384 491.972 404.469 492.398C404.725 493.249 405.576 495.464 408.302 496.656C408.557 496.741 408.813 496.826 408.983 496.997C408.983 496.911 409.068 496.911 409.068 496.826L438.622 432.354Z" fill="#171753"/>
<path d="M445.437 438.401V437.124C445.437 436.783 445.181 436.613 444.755 436.868C444.415 437.038 444.074 437.549 444.074 437.89V439.168C444.074 439.508 444.329 439.679 444.755 439.423C445.181 439.253 445.437 438.742 445.437 438.401Z" fill="#8989C7"/>
<path d="M444.159 437.891C444.159 437.55 444.414 437.039 444.84 436.869C444.925 436.784 445.011 436.784 445.096 436.784C445.096 436.869 445.096 436.869 445.096 436.954V438.232C445.096 438.572 444.84 439.083 444.414 439.254C444.329 439.339 444.244 439.339 444.159 439.339C444.159 439.254 444.159 439.254 444.159 439.168V437.891Z" fill="#ECFFFE"/>
<path d="M445.097 436.698C444.927 436.698 444.841 436.783 444.756 436.783C444.33 437.039 444.075 437.465 444.075 437.891V439.168C444.075 439.253 444.075 439.253 444.075 439.338V439.424H444.16C444.245 439.424 444.33 439.338 444.416 439.338C444.841 439.083 445.097 438.657 445.097 438.231V436.954C445.182 436.869 445.097 436.869 445.097 436.698ZM444.245 437.891C444.245 437.55 444.501 437.124 444.841 436.954C444.841 436.954 444.927 436.954 445.012 436.954C445.012 436.954 445.012 436.954 445.012 437.039V438.316C445.012 438.657 444.756 439.083 444.416 439.253C444.33 439.253 444.33 439.338 444.245 439.338C444.245 439.338 444.245 439.338 444.245 439.253V437.891Z" fill="#171753"/>
<path d="M446.032 438.657C446.032 438.317 445.777 438.146 445.351 438.402C445.01 438.572 444.67 439.083 444.67 439.424C444.67 439.765 444.925 439.935 445.351 439.679C445.692 439.424 446.032 438.998 446.032 438.657Z" fill="#ECFFFE"/>
<path d="M446.033 438.401C446.033 438.316 445.948 438.316 445.863 438.231C445.692 438.146 445.522 438.146 445.266 438.316C444.841 438.571 444.585 438.997 444.585 439.423C444.585 439.593 444.67 439.764 444.755 439.849C444.926 439.934 445.096 439.934 445.352 439.764C445.777 439.508 446.118 439.082 446.118 438.657C446.118 438.571 446.118 438.401 446.033 438.401ZM444.841 439.593C444.841 439.508 444.841 439.508 444.841 439.423C444.841 439.082 445.096 438.657 445.437 438.486C445.607 438.401 445.777 438.401 445.863 438.401C445.948 438.486 445.948 438.571 445.948 438.657C445.948 438.997 445.692 439.423 445.352 439.593C445.181 439.679 445.011 439.679 444.841 439.593C444.926 439.593 444.841 439.593 444.841 439.593Z" fill="#171753"/>
<path d="M445.353 438.402C445.013 438.572 444.672 439.083 444.672 439.424C444.672 439.594 444.757 439.679 444.842 439.764L444.417 439.509C444.417 439.509 444.417 439.509 444.331 439.509C444.246 439.424 444.161 439.339 444.161 439.168C444.161 438.828 444.417 438.317 444.842 438.146C445.013 438.061 445.183 438.061 445.268 438.061L445.779 438.317C445.694 438.231 445.524 438.317 445.353 438.402Z" fill="#8989C7"/>
<path d="M445.863 438.231L445.352 437.976C445.352 437.976 445.352 437.976 445.267 437.976C445.097 437.891 444.926 437.976 444.756 438.061C444.33 438.316 444.075 438.742 444.075 439.168C444.075 439.338 444.075 439.509 444.245 439.594H444.33H444.415L444.926 439.849L445.012 439.679L444.926 439.594C444.841 439.509 444.841 439.424 444.841 439.338C444.841 438.998 445.097 438.572 445.437 438.402C445.608 438.316 445.693 438.316 445.778 438.316L445.863 438.231ZM445.267 438.146L445.437 438.231C445.437 438.231 445.352 438.231 445.352 438.316C444.926 438.572 444.671 438.998 444.671 439.424V439.509L444.501 439.424H444.415C444.415 439.424 444.33 439.338 444.33 439.168C444.33 438.827 444.586 438.402 444.926 438.231C445.012 438.146 445.097 438.146 445.267 438.146Z" fill="#171753"/>
<path d="M445.434 440.871C445.093 441.041 444.752 441.552 444.752 441.893V445.64C444.752 445.81 444.838 445.895 444.923 445.981L444.327 445.725H444.241C444.071 445.64 443.986 445.555 443.986 445.384V441.637C443.986 441.296 444.241 440.785 444.667 440.615C444.838 440.53 445.008 440.445 445.093 440.53L445.774 440.871C445.774 440.7 445.604 440.785 445.434 440.871Z" fill="#8989C7"/>
<path d="M445.945 440.701L445.264 440.36C445.094 440.275 444.923 440.36 444.753 440.445C444.327 440.701 444.072 441.126 444.072 441.552V445.3C444.072 445.555 444.242 445.726 444.327 445.726L444.923 446.066L445.008 445.896C444.923 445.811 444.923 445.726 444.923 445.64V441.893C444.923 441.552 445.179 441.126 445.519 440.956C445.69 440.871 445.775 440.871 445.86 440.871L445.945 440.701ZM444.242 445.47C444.242 445.47 444.242 445.385 444.242 445.3V441.552C444.242 441.212 444.497 440.786 444.838 440.615C445.008 440.53 445.094 440.53 445.179 440.53L445.519 440.701C445.519 440.701 445.434 440.701 445.434 440.786C445.008 441.041 444.668 441.467 444.668 441.893V445.64V445.726L444.327 445.555C444.327 445.555 444.327 445.555 444.242 445.47Z" fill="#171753"/>
<path d="M446.117 444.874V441.127C446.117 440.786 445.862 440.616 445.436 440.872C445.095 441.042 444.754 441.553 444.754 441.894V445.641C444.754 445.982 445.01 446.152 445.436 445.896C445.777 445.726 446.117 445.215 446.117 444.874Z" fill="#ECFFFE"/>
<path d="M446.116 440.871C446.116 440.786 446.031 440.786 445.945 440.701C445.775 440.616 445.605 440.616 445.349 440.786C445.009 441.042 444.668 441.467 444.668 441.893V445.641C444.668 445.811 444.753 445.981 444.838 446.067C445.009 446.152 445.179 446.152 445.434 445.981C445.86 445.726 446.116 445.3 446.116 444.874V441.127C446.201 441.042 446.201 440.956 446.116 440.871ZM444.923 445.811C444.923 445.726 444.923 445.726 444.923 445.641V441.893C444.923 441.553 445.179 441.127 445.52 440.956C445.69 440.871 445.86 440.871 445.945 440.871C446.031 440.956 446.031 441.042 446.031 441.127V444.874C446.031 445.215 445.775 445.641 445.434 445.811C445.264 445.896 445.094 445.896 444.923 445.811C445.009 445.811 444.923 445.811 444.923 445.811Z" fill="#171753"/>
<path d="M445.434 446.918C445.093 447.088 444.752 447.599 444.752 447.94V451.687C444.752 451.858 444.838 451.943 444.923 452.028L444.327 451.773H444.241C444.071 451.687 443.986 451.602 443.986 451.432V447.684C443.986 447.344 444.241 446.833 444.667 446.662C444.838 446.577 445.008 446.492 445.093 446.577L445.774 446.918C445.774 446.833 445.604 446.833 445.434 446.918Z" fill="#8989C7"/>
<path d="M445.945 446.748L445.179 446.407C445.008 446.322 444.838 446.407 444.668 446.493C444.242 446.748 443.986 447.174 443.986 447.6V451.347C443.986 451.603 444.157 451.773 444.242 451.773L444.838 452.114L444.923 451.943C444.838 451.858 444.838 451.773 444.838 451.688V447.94C444.838 447.6 445.094 447.174 445.434 447.004C445.605 446.918 445.69 446.918 445.775 446.918L445.945 446.748ZM444.242 451.517C444.242 451.517 444.242 451.432 444.242 451.347V447.6C444.242 447.259 444.497 446.833 444.838 446.663C445.008 446.578 445.094 446.578 445.179 446.578L445.519 446.748C445.519 446.748 445.434 446.748 445.434 446.833C445.008 447.089 444.668 447.6 444.668 447.94V451.688V451.773L444.327 451.603C444.327 451.603 444.242 451.603 444.242 451.517Z" fill="#171753"/>
<path d="M446.115 450.921V447.173C446.115 446.833 445.86 446.662 445.434 446.918C445.093 447.088 444.753 447.599 444.753 447.94V451.687C444.753 452.028 445.008 452.198 445.434 451.943C445.775 451.773 446.115 451.262 446.115 450.921Z" fill="#ECFFFE"/>
<path d="M446.116 446.919C446.116 446.833 446.031 446.833 445.945 446.748C445.775 446.663 445.605 446.663 445.349 446.833C445.009 447.089 444.668 447.6 444.668 447.941V451.688C444.668 451.858 444.753 452.029 444.838 452.114C445.009 452.199 445.179 452.199 445.434 452.029C445.86 451.773 446.116 451.347 446.116 450.922V447.174C446.201 447.089 446.201 447.004 446.116 446.919ZM444.923 451.858C444.923 451.773 444.923 451.773 444.923 451.688V447.941C444.923 447.6 445.179 447.174 445.52 447.004C445.69 446.919 445.86 446.919 445.945 446.919C446.031 447.004 446.031 447.089 446.031 447.174V450.922C446.031 451.262 445.775 451.688 445.434 451.858C445.179 451.944 445.094 452.029 444.923 451.858C444.923 451.944 444.923 451.858 444.923 451.858Z" fill="#171753"/>
<path d="M404.639 407.825V490.779C404.639 492.994 405.746 495.123 407.62 496.4L439.643 514.797C441.517 515.648 443.731 514.711 443.731 512.582L443.816 429.969C443.816 427.755 442.709 425.711 440.836 424.433L408.898 405.952C406.598 404.674 404.809 405.867 404.639 407.825Z" fill="#ECFFFE"/>
<path d="M442.871 426.903C442.356 426.052 441.669 425.285 440.724 424.689L408.51 406.208C407.393 405.526 406.276 405.441 405.417 405.952C404.644 406.378 404.129 407.144 404.043 408.166V491.12C404.043 493.42 405.16 495.549 407.135 496.826L439.435 515.223C440.466 515.734 441.755 515.648 442.614 515.052C443.387 514.541 443.731 513.86 443.731 512.923L443.816 430.31C443.816 429.033 443.473 427.925 442.871 426.903ZM404.301 408.166C404.386 407.23 404.816 406.548 405.503 406.122C406.276 405.697 407.307 405.782 408.424 406.378L440.638 424.859C442.442 426.052 443.559 428.096 443.559 430.31L443.473 513.008C443.473 513.86 443.129 514.541 442.442 514.967C441.583 515.478 440.466 515.563 439.521 515.137L407.221 496.656C405.331 495.464 404.215 493.334 404.215 491.12L404.301 408.166Z" fill="#171753" stroke="#171753" stroke-width="1.32765"/>
<path d="M438.622 512.668L407.706 494.697C406.428 493.846 405.576 492.313 405.576 490.779L405.747 409.444C405.832 408.081 407.109 407.23 408.728 408.166L415.03 411.829V412.936C415.03 414.213 415.797 415.746 416.819 416.343L430.786 424.434C431.723 425.03 432.575 424.434 432.575 423.071V421.964L439.559 426.137C440.836 426.989 441.603 428.436 441.603 429.97L441.517 511.135C441.517 512.583 439.899 513.434 438.622 512.668Z" fill="#8989C7"/>
<path d="M429.521 420.193L418.334 413.707C418.065 413.572 417.795 413.707 417.795 414.113C417.795 414.518 418.065 415.059 418.334 415.194L429.521 421.815C429.791 421.95 430.061 421.815 430.061 421.409C430.061 420.869 429.791 420.328 429.521 420.193Z" fill="#171753"/>
<path d="M429.52 420.733C429.386 420.598 429.251 420.327 429.116 420.327L417.929 413.842C417.794 413.706 417.525 413.706 417.39 413.842C417.255 413.977 417.12 414.112 417.12 414.517C417.12 415.058 417.39 415.598 417.794 415.733L428.981 422.354C429.116 422.489 429.386 422.489 429.52 422.354C429.655 422.219 429.79 422.084 429.79 421.679C429.79 421.273 429.655 421.003 429.52 420.733ZM417.525 414.923C417.39 414.787 417.39 414.517 417.39 414.247C417.39 414.112 417.39 413.977 417.525 413.977C417.659 413.977 417.659 413.977 417.794 413.977L428.981 420.463C429.251 420.598 429.52 421.138 429.52 421.408C429.52 421.543 429.52 421.679 429.386 421.814C429.251 421.814 429.251 421.814 429.116 421.814L417.929 415.328C417.794 415.193 417.659 415.193 417.525 414.923Z" fill="#171753"/>
<path d="M410.299 425.42C410.299 425.629 410.072 425.757 409.893 425.65L408.917 425.062C408.836 425.014 408.787 424.926 408.787 424.832C408.787 424.624 409.015 424.495 409.194 424.603L410.17 425.19C410.25 425.239 410.299 425.326 410.299 425.42Z" fill="#ECFFFE" stroke="#ECFFFE" stroke-width="0.4"/>
<path d="M410.299 430.933C410.299 431.141 410.069 431.268 409.894 431.155L408.909 430.525C408.833 430.477 408.787 430.393 408.787 430.303C408.787 430.095 409.017 429.969 409.193 430.081L410.178 430.711C410.254 430.759 410.299 430.843 410.299 430.933Z" fill="#ECFFFE" stroke="#ECFFFE" stroke-width="0.4"/>
<path d="M410.299 435.496C410.299 435.705 410.072 435.834 409.893 435.726L408.917 435.138C408.836 435.09 408.787 435.003 408.787 434.909C408.787 434.7 409.015 434.571 409.194 434.679L410.17 435.266C410.25 435.315 410.299 435.402 410.299 435.496Z" fill="#ECFFFE" stroke="#ECFFFE" stroke-width="0.4"/>
<path d="M410.299 441.867C410.299 442.076 410.072 442.205 409.893 442.097L408.917 441.509C408.836 441.461 408.787 441.374 408.787 441.28C408.787 441.071 409.015 440.942 409.194 441.05L410.17 441.638C410.25 441.686 410.299 441.773 410.299 441.867Z" fill="#ECFFFE" stroke="#ECFFFE" stroke-width="0.4"/>
<path d="M410.299 447.331C410.299 447.539 410.072 447.668 409.893 447.56L408.917 446.973C408.836 446.924 408.787 446.837 408.787 446.743C408.787 446.534 409.015 446.406 409.194 446.513L410.17 447.101C410.25 447.149 410.299 447.237 410.299 447.331Z" fill="#ECFFFE" stroke="#ECFFFE" stroke-width="0.4"/>
<path d="M410.299 458.315C410.299 458.524 410.072 458.652 409.893 458.545L408.917 457.957C408.836 457.909 408.787 457.821 408.787 457.727C408.787 457.519 409.015 457.39 409.194 457.498L410.17 458.085C410.25 458.134 410.299 458.221 410.299 458.315Z" fill="#ECFFFE" stroke="#ECFFFE" stroke-width="0.4"/>
<path d="M410.299 463.778C410.299 463.987 410.072 464.115 409.893 464.008L408.917 463.42C408.836 463.372 408.787 463.284 408.787 463.19C408.787 462.982 409.015 462.853 409.194 462.961L410.17 463.548C410.25 463.597 410.299 463.684 410.299 463.778Z" fill="#ECFFFE" stroke="#ECFFFE" stroke-width="0.4"/>
<path d="M410.299 470.681C410.299 470.889 410.072 471.018 409.893 470.911L408.917 470.323C408.836 470.274 408.787 470.187 408.787 470.093C408.787 469.885 409.015 469.756 409.194 469.863L410.17 470.451C410.25 470.5 410.299 470.587 410.299 470.681Z" fill="#ECFFFE" stroke="#ECFFFE" stroke-width="0.4"/>
<path d="M410.299 476.194C410.299 476.402 410.069 476.528 409.894 476.416L408.909 475.786C408.833 475.737 408.787 475.654 408.787 475.564C408.787 475.355 409.017 475.229 409.193 475.342L410.178 475.972C410.254 476.02 410.299 476.104 410.299 476.194Z" fill="#ECFFFE" stroke="#ECFFFE" stroke-width="0.4"/>
<path d="M410.299 480.757C410.299 480.966 410.072 481.094 409.893 480.987L408.917 480.399C408.836 480.351 408.787 480.263 408.787 480.169C408.787 479.961 409.015 479.832 409.194 479.94L410.17 480.527C410.25 480.576 410.299 480.663 410.299 480.757Z" fill="#ECFFFE" stroke="#ECFFFE" stroke-width="0.4"/>
<path d="M410.299 487.128C410.299 487.337 410.072 487.465 409.893 487.358L408.917 486.77C408.836 486.722 408.787 486.634 408.787 486.54C408.787 486.332 409.015 486.203 409.194 486.311L410.17 486.898C410.25 486.947 410.299 487.034 410.299 487.128Z" fill="#ECFFFE" stroke="#ECFFFE" stroke-width="0.4"/>
<path d="M439.351 441.1C439.351 441.262 439.176 441.364 439.034 441.285L413.165 426.813C413.098 426.775 413.057 426.704 413.057 426.627C413.057 426.465 413.231 426.362 413.373 426.442L439.242 440.914C439.309 440.952 439.351 441.023 439.351 441.1Z" fill="#ECFFFE" stroke="#ECFFFE" stroke-width="0.4"/>
<path d="M434.902 444.567C434.902 444.774 434.678 444.902 434.499 444.799L413.19 432.428C413.107 432.38 413.057 432.292 413.057 432.197C413.057 431.99 413.281 431.861 413.459 431.965L434.768 444.335C434.851 444.383 434.902 444.471 434.902 444.567Z" fill="#ECFFFE" stroke="#ECFFFE" stroke-width="0.4"/>
<path d="M422.009 442.427C422.009 442.634 421.785 442.764 421.606 442.661L413.192 437.84C413.108 437.792 413.057 437.703 413.057 437.607C413.057 437.4 413.28 437.271 413.459 437.373L421.873 442.194C421.957 442.242 422.009 442.331 422.009 442.427Z" fill="#ECFFFE" stroke="#ECFFFE" stroke-width="0.4"/>
<path d="M437.293 456.137C437.293 456.286 437.133 456.38 437.003 456.308L413.157 443.055C413.095 443.021 413.057 442.956 413.057 442.885C413.057 442.736 413.216 442.642 413.346 442.714L437.192 455.967C437.254 456.001 437.293 456.067 437.293 456.137Z" fill="#ECFFFE" stroke="#ECFFFE" stroke-width="0.4"/>
<path d="M431.861 458.997C431.861 459.203 431.637 459.332 431.459 459.229L413.191 448.661C413.108 448.613 413.057 448.525 413.057 448.429C413.057 448.222 413.28 448.093 413.459 448.197L431.727 458.764C431.81 458.812 431.861 458.901 431.861 458.997Z" fill="#ECFFFE" stroke="#ECFFFE" stroke-width="0.4"/>
<path d="M431.861 464.408C431.861 464.614 431.638 464.744 431.459 464.641L413.191 454.128C413.108 454.08 413.057 453.991 413.057 453.895C413.057 453.689 413.28 453.559 413.459 453.662L431.727 464.175C431.81 464.223 431.861 464.312 431.861 464.408Z" fill="#ECFFFE" stroke="#ECFFFE" stroke-width="0.4"/>
<path d="M435.746 472.13C435.746 472.337 435.522 472.466 435.343 472.362L413.191 459.54C413.108 459.492 413.057 459.404 413.057 459.308C413.057 459.101 413.28 458.972 413.459 459.076L435.612 471.898C435.695 471.946 435.746 472.034 435.746 472.13Z" fill="#ECFFFE" stroke="#ECFFFE" stroke-width="0.4"/>
<path d="M424.824 471.283C424.824 471.489 424.599 471.618 424.421 471.514L413.189 464.95C413.107 464.902 413.057 464.814 413.057 464.719C413.057 464.513 413.281 464.384 413.459 464.488L424.691 471.052C424.773 471.1 424.824 471.188 424.824 471.283Z" fill="#ECFFFE" stroke="#ECFFFE" stroke-width="0.4"/>
<path d="M439.351 486.36C439.351 486.523 439.176 486.625 439.034 486.546L413.165 472.074C413.098 472.036 413.057 471.965 413.057 471.888C413.057 471.726 413.231 471.623 413.373 471.702L439.242 486.175C439.309 486.212 439.351 486.283 439.351 486.36Z" fill="#ECFFFE" stroke="#ECFFFE" stroke-width="0.4"/>
<path d="M434.902 489.828C434.902 490.034 434.678 490.163 434.499 490.059L413.19 477.689C413.107 477.641 413.057 477.553 413.057 477.457C413.057 477.251 413.281 477.122 413.459 477.225L434.768 489.596C434.851 489.644 434.902 489.732 434.902 489.828Z" fill="#ECFFFE" stroke="#ECFFFE" stroke-width="0.4"/>
<path d="M422.009 487.688C422.009 487.895 421.785 488.024 421.606 487.922L413.192 483.101C413.108 483.053 413.057 482.964 413.057 482.867C413.057 482.661 413.28 482.531 413.459 482.634L421.873 487.455C421.957 487.503 422.009 487.592 422.009 487.688Z" fill="#ECFFFE" stroke="#ECFFFE" stroke-width="0.4"/>
<path d="M437.293 501.398C437.293 501.547 437.133 501.641 437.003 501.569L413.157 488.316C413.095 488.282 413.057 488.216 413.057 488.146C413.057 487.997 413.216 487.903 413.346 487.975L437.192 501.228C437.254 501.262 437.293 501.327 437.293 501.398Z" fill="#ECFFFE" stroke="#ECFFFE" stroke-width="0.4"/>
<path d="M52.4315 116.653V117.812L51.3478 117.401C45.8985 115.333 41.2303 115.803 37.9636 118.206C34.6903 120.613 32.6267 125.105 32.7062 131.498H32.7062V131.508V131.824C32.7062 138.913 35.2951 146.792 39.5005 153.814C43.7052 160.835 49.4817 166.926 55.7742 170.478L55.838 170.514L55.8941 170.56L111.225 216.828L111.46 216.697L113.383 215.626C114.993 214.73 117.183 213.51 119.506 212.216C124.153 209.628 129.328 206.744 131.446 205.559C135.348 203.377 137.884 198.652 137.884 191.561V191.086C137.884 184.693 135.774 177.633 132.254 171.141C128.736 164.651 123.838 158.781 118.323 154.753L118.011 154.525L117.996 154.139C117.595 144.114 113.741 133.144 107.742 123.414C101.745 113.684 93.6448 105.26 84.823 100.283C75.8352 95.3052 67.8253 94.7753 62.1193 97.7602L43.3545 108.238L52.3666 111.15L52.9828 111.349L52.9164 111.994C52.8558 112.581 52.779 113.136 52.7046 113.675C52.564 114.693 52.4315 115.651 52.4315 116.653Z" fill="#5ED9D1" stroke="#171753" stroke-width="1.6"/>
<path d="M31.0925 128.031C31.9076 108.593 46.5793 101.007 64.6744 111.121C82.7694 121.235 97.4411 145.257 98.2562 165.643C109.505 173.861 118.145 189.506 118.145 202.623V203.097C118.145 217.636 107.711 223.483 94.6698 216.214L34.6789 182.711C21.8004 175.441 11.3672 157.899 11.3672 143.36V142.886C11.3672 129.769 19.8442 123.764 31.0925 128.031Z" fill="#BEF0ED" stroke="#171753" stroke-width="1.6"/>
<path d="M495.382 474.228V475.387L494.299 474.976C491.466 473.901 489.111 474.169 487.494 475.358C485.87 476.552 484.793 478.82 484.834 482.162L484.834 482.162V482.171V482.34C484.834 486.047 486.191 490.195 488.415 493.908C490.638 497.621 493.684 500.825 496.981 502.686L497.044 502.722L497.101 502.769L526.492 527.346L527.423 526.828C528.283 526.348 529.455 525.696 530.697 525.004C533.182 523.62 535.949 522.079 537.081 521.445C539.011 520.366 540.333 517.993 540.333 514.284V514.031C540.333 510.689 539.228 506.974 537.368 503.542C535.508 500.113 532.924 497.019 530.026 494.902L529.714 494.674L529.698 494.288C529.487 489.006 527.453 483.201 524.27 478.038C521.089 472.877 516.8 468.423 512.15 465.799C507.409 463.174 503.267 462.938 500.368 464.453L491.084 469.637L495.09 470.931L495.706 471.13L495.64 471.775C495.604 472.118 495.561 472.428 495.521 472.72C495.448 473.246 495.382 473.716 495.382 474.228Z" fill="#5ED9D1" stroke="#171753" stroke-width="1.6"/>
<path d="M483.598 480.312C484.034 469.918 491.879 465.862 501.556 471.27C511.232 476.679 519.077 489.524 519.513 500.425C525.528 504.819 530.148 513.186 530.148 520.2V520.453C530.148 528.228 524.569 531.355 517.596 527.467L485.516 509.552C478.629 505.664 473.05 496.284 473.05 488.51V488.256C473.05 481.242 477.583 478.031 483.598 480.312Z" fill="#BEF0ED" stroke="#171753" stroke-width="1.6"/>
<path d="M389.404 102.591V103.75L388.32 103.339C385.488 102.264 383.133 102.532 381.516 103.721C379.892 104.915 378.814 107.183 378.856 110.524L378.856 110.524V110.534V110.703C378.856 114.41 380.212 118.558 382.436 122.271C384.659 125.983 387.706 129.188 391.002 131.049L391.066 131.085L391.122 131.132L420.513 155.709L421.444 155.191C422.305 154.711 423.476 154.059 424.718 153.367C427.203 151.983 429.97 150.441 431.103 149.808C433.032 148.729 434.354 146.356 434.354 142.647V142.393C434.354 139.051 433.25 135.337 431.389 131.905C429.53 128.476 426.945 125.382 424.047 123.265L423.735 123.037L423.72 122.651C423.509 117.369 421.474 111.564 418.292 106.401C415.11 101.24 410.821 96.7857 406.171 94.1621C401.431 91.537 397.289 91.301 394.389 92.8155L385.105 97.9995L389.111 99.2941L389.728 99.4933L389.661 100.137C389.626 100.481 389.583 100.79 389.542 101.083C389.469 101.608 389.404 102.079 389.404 102.591Z" fill="#5ED9D1" stroke="#171753" stroke-width="1.6"/>
<path d="M377.62 108.675C378.055 98.2808 385.901 94.2244 395.577 99.6329C405.253 105.041 413.099 117.886 413.535 128.788C419.55 133.182 424.17 141.548 424.17 148.563V148.816C424.17 156.591 418.591 159.717 411.617 155.83L379.537 137.915C372.651 134.027 367.072 124.647 367.072 116.872V116.619C367.072 109.605 371.605 106.393 377.62 108.675Z" fill="#BEF0ED" stroke="#171753" stroke-width="1.6"/>
<defs>
<linearGradient id="paint0_linear_3383_5101" x1="19.6053" y1="322.135" x2="850.703" y2="274.843" gradientUnits="userSpaceOnUse">
<stop stop-color="#BEF0ED"/>
<stop offset="1" stop-color="white"/>
</linearGradient>
</defs>
</svg>
