<svg width="483" height="563" viewBox="0 0 483 563" fill="none" xmlns="http://www.w3.org/2000/svg">
<g opacity="0.9">
<g opacity="0.9">
<g opacity="0.6">
<g opacity="0.6">
<path opacity="0.6" d="M451.756 476.863L412.147 499.857L372.27 476.863L411.894 453.869L451.756 476.863Z" fill="#5ED9D1"/>
</g>
</g>
<g opacity="0.6">
<g opacity="0.6">
<path opacity="0.6" d="M288.5 539.56L248.876 562.554L209.014 539.56L248.622 516.566L288.5 539.56Z" fill="#5ED9D1"/>
</g>
</g>
<g opacity="0.6">
<g opacity="0.6">
<path opacity="0.6" d="M255.737 453.295L216.113 476.289L176.251 453.295L215.86 430.301L255.737 453.295Z" fill="#5ED9D1"/>
</g>
</g>
<g opacity="0.6">
<g opacity="0.6">
<path opacity="0.6" d="M208.882 425.823L169.258 448.817L129.396 425.823L169.004 402.829L208.882 425.823Z" fill="#5ED9D1"/>
</g>
</g>
<g opacity="0.6">
<g opacity="0.6">
<path opacity="0.6" d="M340.835 452.803L301.227 475.797L261.35 452.803L300.958 429.809L340.835 452.803Z" fill="#5ED9D1"/>
</g>
</g>
<g opacity="0.3">
<g opacity="0.3">
<path opacity="0.3" d="M56.9755 524.003L33.559 537.581L10 524.003L33.4006 510.41L56.9755 524.003Z" fill="#5ED9D1"/>
</g>
</g>
<g opacity="0.3">
<g opacity="0.3">
<path opacity="0.3" d="M277.088 531.663L253.687 545.257L230.112 531.663L253.529 518.085L277.088 531.663Z" fill="#5ED9D1"/>
</g>
</g>
<g opacity="0.3">
<g opacity="0.3">
<path opacity="0.3" d="M126.561 348.281L103.144 361.859L79.5853 348.281L103.002 334.688L126.561 348.281Z" fill="#5ED9D1"/>
</g>
</g>
<g opacity="0.3">
<g opacity="0.3">
<path opacity="0.3" d="M349.397 311.393L325.996 324.971L302.421 311.393L325.838 297.799L349.397 311.393Z" fill="#5ED9D1"/>
</g>
</g>
<g opacity="0.9">
<g opacity="0.6">
<path opacity="0.3" d="M436.17 525.958L412.754 539.552L389.195 525.958L412.595 512.38L436.17 525.958Z" fill="#5ED9D1"/>
</g>
</g>
<g opacity="0.3">
<g opacity="0.3">
<path opacity="0.3" d="M423.259 378.681L399.842 392.275L376.283 378.681L399.684 365.088L423.259 378.681Z" fill="#5ED9D1"/>
</g>
</g>
<g opacity="0.3">
<g opacity="0.3">
<path opacity="0.3" d="M133.12 539.56L109.704 553.137L86.1449 539.56L109.561 525.966L133.12 539.56Z" fill="#5ED9D1"/>
</g>
</g>
<g opacity="0.3">
<path opacity="0.3" d="M79.5853 528.31L128.937 499.857L177.957 528.31L128.605 556.764L79.5853 528.31Z" fill="#5ED9D1"/>
<g opacity="0.3">
<g opacity="0.3">
<path opacity="0.3" d="M79.5853 528.31L128.921 499.857L177.941 528.31L128.605 556.764L79.5853 528.31ZM174.677 528.31L128.921 501.756L82.8649 528.31L128.62 554.865L174.677 528.31Z" fill="#5ED9D1"/>
</g>
</g>
</g>
<g opacity="0.3">
<path opacity="0.3" d="M363.497 385.59L412.849 357.12L461.868 385.59L412.532 414.043L363.497 385.59Z" fill="#5ED9D1"/>
<g opacity="0.3">
<g opacity="0.3">
<path opacity="0.3" d="M363.497 385.592L412.833 357.139L461.852 385.592L412.532 414.046L363.497 385.592ZM458.589 385.592L412.833 359.038L366.776 385.592L412.532 412.147L458.589 385.592Z" fill="#5ED9D1"/>
</g>
</g>
</g>
<g opacity="0.3">
<path opacity="0.3" d="M255.738 387.055L305.09 358.585L354.109 387.055L304.773 415.508L255.738 387.055Z" fill="#5ED9D1"/>
<g opacity="0.3">
<g opacity="0.3">
<path opacity="0.3" d="M255.737 387.057L305.074 358.604L354.093 387.057L304.773 415.511L255.737 387.057ZM350.829 387.057L305.074 360.503L259.017 387.057L304.773 413.612L350.829 387.057Z" fill="#5ED9D1"/>
</g>
</g>
</g>
<g opacity="0.3">
<path opacity="0.3" d="M253.235 505.316L302.587 476.863L351.607 505.316L302.271 533.77L253.235 505.316Z" fill="#5ED9D1"/>
<g opacity="0.3">
<g opacity="0.3">
<path opacity="0.3" d="M253.235 505.316L302.572 476.863L351.591 505.316L302.255 533.77L253.235 505.316ZM348.343 505.316L302.587 478.762L256.531 505.316L302.286 531.871L348.343 505.316Z" fill="#5ED9D1"/>
</g>
</g>
</g>
</g>
</g>
<path d="M195.434 210.787L187.177 208.557L177.92 212.025L175.668 218.715C176.419 224.166 176.419 226.396 179.672 227.635L195.434 210.787Z" fill="white"/>
<path d="M228.21 231.104L236.466 245.475C221.454 248.448 206.693 247.209 192.181 242.749L185.176 223.423C185.176 223.423 205.692 217.972 205.942 217.477C206.192 216.981 215.95 193.938 215.95 193.938L228.21 231.104Z" fill="#49CE8B"/>
<path d="M241.72 418.668C242.971 422.136 243.221 426.596 242.221 431.552L235.215 436.507L232.963 436.507C226.959 448.4 218.952 452.612 210.195 454.099C206.192 454.099 202.69 452.612 199.687 449.887C198.937 445.923 198.937 442.702 200.438 440.719C204.441 435.764 211.196 432.543 215.7 422.136L217.451 415.447L239.468 411.73L241.72 418.668Z" fill="#42E8E0"/>
<path d="M271.744 277.685L239.218 347.557C247.725 360.193 245.723 390.917 244.222 417.676C240.97 427.835 218.202 431.799 214.949 420.897C217.701 397.855 213.698 374.068 213.698 347.309C213.198 313.116 220.203 280.906 236.216 250.926L271.744 277.685Z" fill="#171753"/>
<path d="M280.5 455.09C283.002 457.816 287.006 459.054 291.759 459.054C302.768 457.568 311.525 451.621 315.528 437.251C319.031 436.012 321.533 433.038 323.284 428.331C323.284 428.083 323.284 428.083 323.534 427.835C323.034 424.614 322.033 422.136 320.782 419.906C319.531 417.677 318.03 415.694 316.278 413.96L314.527 414.951L296.513 423.623C296.263 425.357 295.762 426.844 295.512 428.331C291.759 440.967 283.002 443.445 280.5 447.905C279.5 449.887 279.5 452.365 280.5 455.09Z" fill="#42E8E0"/>
<path d="M259.984 287.348L260.485 288.091C258.733 301.471 258.233 314.107 258.984 326.496C258.984 326.744 258.984 326.992 258.984 326.992C260.235 341.362 263.487 354.99 269.242 368.37C280.501 387.2 289.508 409.5 293.261 425.853C293.511 426.596 294.261 427.339 295.262 428.083C299.766 431.304 310.274 431.799 316.279 427.092C318.28 425.357 320.031 423.127 320.532 419.906C320.782 418.42 321.032 416.685 320.782 414.703C317.78 388.935 309.523 366.14 291.759 356.477C293.761 343.097 295.762 329.965 296.763 317.329C297.764 304.94 298.264 293.542 297.514 282.888C298.515 277.189 299.265 271.491 299.515 265.792C299.515 265.049 299.515 264.305 299.515 263.562C299.515 261.332 299.515 259.35 299.515 257.368C299.515 256.377 299.515 255.138 299.265 254.147C299.265 253.899 299.265 253.899 299.265 253.651L299.265 253.403C299.015 249.439 298.264 245.227 297.514 241.262C296.763 241.262 291.009 242.006 283.253 242.997C270.743 244.483 253.229 246.713 245.973 247.705C243.722 247.952 242.471 248.2 242.471 248.2L238.217 248.696L237.967 249.934L236.466 255.633L235.966 257.12L250.227 275.951L258.233 286.357L259.984 287.348Z" fill="#171753"/>
<path d="M212.948 203.601C213.198 209.052 213.948 214.751 215.45 219.954C217.451 227.388 220.954 234.573 225.708 241.263C228.46 245.227 231.712 249.192 235.465 252.908C235.465 253.156 235.715 253.156 235.966 253.404C236.216 253.899 236.716 254.395 237.217 254.642C243.472 261.828 252.979 265.792 266.49 266.536C280.751 267.527 292.26 263.562 300.016 253.156C299.515 248.696 298.765 244.484 298.264 240.272C297.514 235.564 296.513 231.104 295.512 226.644C293.26 217.972 291.009 210.539 287.006 204.593C287.006 204.593 287.006 204.593 287.006 204.345C286.505 203.601 286.005 202.858 285.254 201.867C279.5 194.929 270.993 189.231 259.484 186.753C242.971 169.657 226.708 170.895 215.95 180.559C213.448 188.735 212.697 196.416 212.948 203.601Z" fill="#9BE7C4"/>
<path d="M232.635 208.498L220.75 200.332L241.293 179.988C241.335 180.015 241.385 180.048 241.442 180.088C241.644 180.231 241.913 180.438 242.227 180.692C242.856 181.199 243.649 181.876 244.43 182.557C245.21 183.237 245.975 183.917 246.545 184.428C246.83 184.683 247.066 184.895 247.231 185.044L247.422 185.217L247.473 185.262L247.485 185.274L247.489 185.277L247.489 185.278L247.49 185.278L247.725 185.019L247.49 185.278L247.52 185.305L247.556 185.325C249.654 186.479 250.628 188.806 250.655 191.665C250.681 194.521 249.756 197.839 248.136 200.833C246.516 203.828 244.22 206.466 241.536 207.989C238.871 209.501 235.824 209.918 232.635 208.498ZM241.154 179.909C241.154 179.909 241.154 179.909 241.154 179.909L241.154 179.909Z" fill="white" stroke="#171753" stroke-width="0.7"/>
<path d="M225.207 160.489C236.216 160.489 242.471 165.692 242.971 177.09C242.721 188.983 242.221 200.133 232.463 206.575C227.709 210.291 224.707 212.521 218.952 212.026C212.197 211.778 205.442 195.673 204.441 184.028C202.94 172.63 212.948 163.71 225.207 160.489Z" fill="white" stroke="#171753" stroke-width="0.7"/>
<path d="M203.44 185.018C205.942 190.965 218.702 193.69 229.461 188.983L230.461 196.416L234.965 192.204L239.468 196.911L241.22 194.681C247.725 185.266 248.475 167.674 234.464 161.232C216.2 154.295 197.936 172.382 203.44 185.018Z" fill="#171753"/>
<path d="M236.466 196.416C237.467 195.425 238.468 194.434 239.218 193.195C239.719 191.956 239.969 190.47 239.218 189.231C238.468 187.992 236.966 187.249 235.715 187.744C234.715 187.992 234.214 188.983 233.714 189.726C233.464 190.717 233.213 191.461 233.213 192.452C233.213 193.195 233.213 194.186 232.963 194.929C232.963 195.425 232.963 196.168 233.213 196.664C233.714 197.159 234.214 197.159 234.715 196.912C235.465 197.159 235.966 196.912 236.466 196.416Z" fill="white"/>
<path opacity="0.2" d="M297.764 240.519C298.515 244.484 299.015 248.448 299.515 252.66C299.265 248.696 298.765 244.731 297.764 240.519Z" fill="#1D1D1B"/>
<path d="M204.815 187.069C204.216 186.44 203.75 185.754 203.44 185.019C197.936 172.382 216.2 154.295 234.465 161.233C241.285 164.369 244.608 170.147 245.471 176.338C250.039 178.459 254.751 181.853 259.484 186.753C270.993 189.231 279.5 194.93 285.254 201.867C286.005 202.858 286.505 203.601 287.005 204.344L287.006 204.593C291.009 210.539 293.261 217.972 295.512 226.644C296.513 231.104 297.514 235.564 298.264 240.272C298.498 242.234 298.785 244.196 299.076 246.183L299.077 246.187C299.41 248.464 299.749 250.776 300.016 253.156C299.769 253.487 299.519 253.811 299.265 254.129V254.147C299.515 255.138 299.515 256.377 299.515 257.368V265.793C299.265 271.491 298.515 277.19 297.514 282.889C298.265 293.543 297.764 304.941 296.763 317.329C295.801 329.479 293.914 342.087 291.99 354.933L291.759 356.477C309.523 366.14 317.78 388.935 320.782 414.704C321.013 416.537 320.817 418.158 320.588 419.567C320.654 419.679 320.718 419.793 320.782 419.907C322.033 422.137 323.034 424.615 323.534 427.836C323.284 428.083 323.284 428.083 323.284 428.331C321.533 433.039 319.031 436.012 315.528 437.251C311.525 451.622 302.768 457.568 291.759 459.055C287.006 459.055 283.003 457.816 280.501 455.091C279.5 452.365 279.5 449.887 280.501 447.905C281.335 446.417 282.866 445.15 284.675 443.652C288.289 440.661 293.012 436.752 295.512 428.331L295.524 428.263C295.435 428.204 295.347 428.144 295.262 428.083C294.261 427.34 293.511 426.597 293.261 425.853C289.508 409.5 280.501 387.201 269.242 368.37C263.487 354.991 260.235 341.363 258.984 326.992V326.497C258.562 319.528 258.535 312.481 258.905 305.267L239.218 347.557C247.484 359.836 245.828 389.19 244.351 415.392L244.222 417.677C243.845 418.854 243.206 419.948 242.366 420.945C243.021 424.005 243.014 427.623 242.221 431.552L235.215 436.508H232.963C226.959 448.401 218.952 452.613 210.196 454.099C206.192 454.099 202.69 452.613 199.687 449.887C198.937 445.923 198.937 442.702 200.438 440.72C201.696 439.162 203.226 437.776 204.872 436.285C208.417 433.073 212.502 429.372 215.576 422.419C215.322 421.948 215.111 421.442 214.949 420.898C216.645 406.701 215.776 392.222 214.859 376.94C214.288 367.417 213.698 357.582 213.698 347.31C213.208 313.797 219.928 282.188 235.272 252.716C233.264 250.714 231.401 248.642 229.682 246.537C217.002 248.001 204.501 246.536 192.181 242.75L185.176 223.423C185.176 223.423 205.692 217.972 205.942 217.477C206.069 217.226 208.636 211.188 211.138 205.29C208.167 200.308 205.804 193.331 204.815 187.069Z" stroke="#171753" stroke-width="0.7"/>
<path d="M187.177 208.556L195.434 210.786L179.672 227.635C176.703 226.504 176.444 224.548 175.851 220.071C175.794 219.643 175.734 219.191 175.668 218.715L177.92 212.025L187.177 208.556Z" stroke="#171753" stroke-width="0.7"/>
<path d="M174.668 420.402C176.669 420.898 178.17 421.641 178.42 423.871L177.92 429.322C176.419 432.543 167.162 431.8 167.912 427.34L169.413 422.632C170.164 420.65 172.166 420.155 174.668 420.402Z" fill="#171753"/>
<path d="M176.669 423.375C176.169 425.357 171.415 424.366 171.415 422.88L178.921 363.91C180.672 361.184 182.424 360.937 184.175 363.91L176.669 423.375Z" fill="#5ED9D1"/>
<path d="M183.925 375.059C183.174 377.042 176.669 375.803 176.669 373.821L185.926 300.232C189.679 284.375 191.931 284.127 193.182 300.232L183.925 375.059Z" fill="#5ED9D1"/>
<path d="M189.679 255.881L181.673 324.019C182.173 326.744 190.18 328.231 190.93 324.762L198.686 255.881L189.679 255.881Z" fill="#5ED9D1"/>
<path d="M187.427 324.266L195.684 339.876L198.436 337.894L189.679 322.036C188.678 320.55 186.427 322.036 187.427 324.266Z" fill="#5ED9D1"/>
<path d="M194.433 290.57L194.433 357.22C194.433 358.211 194.933 358.955 196.184 359.698C198.436 360.937 202.439 360.937 204.691 359.698C205.942 358.955 206.442 358.211 206.442 357.22L206.442 290.57L194.433 290.57Z" fill="#171753"/>
<path d="M206.442 346.07C209.695 348.053 209.695 351.026 206.442 353.008C203.19 354.99 197.686 354.99 194.183 353.008C190.93 351.026 190.93 348.053 194.183 346.07C197.686 344.088 203.19 344.088 206.442 346.07Z" fill="#5ED9D1"/>
<path d="M208.944 342.354L191.681 342.354L191.681 349.539L208.944 349.539L208.944 342.354Z" fill="#5ED9D1"/>
<path d="M206.442 338.885C209.695 340.867 209.695 343.841 206.442 345.823C203.19 347.805 197.686 347.805 194.183 345.823C190.93 343.841 190.93 340.867 194.183 338.885C197.686 336.903 203.19 336.903 206.442 338.885Z" fill="#5ED9D1"/>
<path d="M194.433 274.96L194.433 341.61C194.433 342.602 194.933 343.345 196.184 344.088C198.436 345.327 202.439 345.327 204.691 344.088C205.942 343.345 206.442 342.602 206.442 341.61L206.442 274.96L194.433 274.96Z" fill="#171753"/>
<path d="M208.194 346.566L243.221 351.769L243.221 354.99L207.693 349.539C206.693 349.044 206.943 346.566 208.194 346.566Z" fill="#171753"/>
<path d="M300.516 493.743C301.017 495.725 296.263 496.964 295.512 495.725L270.493 425.605C270.743 422.384 272.244 421.393 274.996 423.375L300.516 493.743Z" fill="#5ED9D1"/>
<path d="M276.497 424.366C277.248 427.092 270.743 428.826 269.492 427.092L244.722 357.22C245.223 352.512 247.224 351.273 251.228 353.999L276.497 424.366Z" fill="#5ED9D1"/>
<path d="M252.979 356.477C253.98 359.945 245.973 361.928 244.472 359.698L209.945 263.562C210.446 257.863 213.198 256.377 217.951 259.598L252.979 356.477Z" fill="#BEF0ED"/>
<path d="M296.763 492.999C293.761 494.238 293.761 496.22 293.761 496.22L295.512 502.662C296.763 505.883 306.271 504.149 306.02 501.671L301.767 492.999C302.017 492.999 301.016 491.265 296.763 492.999Z" fill="#171753"/>
<path d="M218.702 261.828L181.923 261.828L181.923 269.013L218.702 269.013L218.702 261.828Z" fill="#5ED9D1"/>
<path d="M200.438 279.42C210.663 279.42 218.952 274.76 218.952 269.013C218.952 263.266 210.663 258.607 200.438 258.607C190.212 258.607 181.923 263.266 181.923 269.013C181.923 274.76 190.212 279.42 200.438 279.42Z" fill="#5ED9D1"/>
<path d="M200.438 272.234C210.663 272.234 218.952 267.575 218.952 261.828C218.952 256.081 210.663 251.421 200.438 251.421C190.212 251.421 181.923 256.081 181.923 261.828C181.923 267.575 190.212 272.234 200.438 272.234Z" fill="#BEF0ED"/>
<path d="M186.677 254.89C186.427 253.404 186.427 252.165 187.177 251.174L196.435 249.439L197.435 253.156L189.679 254.89L188.678 253.899L186.677 254.89Z" fill="#171753"/>
<path d="M194.433 230.856L194.433 261.828C194.433 262.819 194.933 263.562 196.184 264.306C198.436 265.545 202.439 265.545 204.691 264.306C205.942 263.562 206.442 262.819 206.442 261.828L206.442 230.856L194.433 230.856Z" fill="#171753"/>
<path d="M215.95 234.077L215.95 241.758L200.438 250.925L200.438 243.244L215.95 234.077Z" fill="#5ED9D1"/>
<path d="M200.438 243.244L200.438 250.925L184.675 241.758L184.925 234.077L200.438 243.244Z" fill="#171753"/>
<path d="M215.95 234.078L200.438 243.245L184.925 234.078L200.438 225.158L215.95 234.078Z" fill="#171753"/>
<path d="M210.696 268.518L213.948 269.013L213.948 276.199C217.201 277.19 219.202 275.455 220.453 272.234L224.206 263.067C224.457 258.607 218.952 256.129 216.45 258.111L210.696 268.518Z" fill="#171753"/>
<path d="M169.163 361.928L192.431 348.3C194.183 347.309 195.684 350.282 194.183 351.274L168.663 366.14L169.163 361.928Z" fill="#171753"/>
<path d="M129.132 519.511C125.379 518.52 124.128 520.998 124.128 520.998L121.626 527.44C121.626 530.413 129.132 531.404 131.634 528.926L133.135 522.732C133.135 522.732 133.385 520.502 129.132 519.511Z" fill="#171753"/>
<path d="M130.883 522.236C130.133 524.218 125.629 522.732 125.629 521.245L144.644 442.701C146.646 439.976 148.397 440.224 149.648 443.197L130.883 522.236Z" fill="#5ED9D1"/>
<path d="M150.899 445.427C149.898 448.152 143.393 446.17 143.393 443.94L164.41 355.238C167.412 351.521 169.914 351.521 171.665 355.981L150.899 445.427Z" fill="#5ED9D1"/>
<path d="M169.163 371.095C168.162 374.316 160.156 372.086 160.156 369.361L183.174 273.721C186.677 269.261 189.679 269.261 191.931 274.712L169.163 371.095Z" fill="#BEF0ED"/>
<path d="M184.675 263.066C184.675 263.066 176.419 264.305 178.921 273.225C185.176 277.437 191.431 279.915 191.431 279.915L193.432 278.676L193.432 271.491L195.684 269.508L184.675 263.066Z" fill="#171753"/>
<path d="M214.699 224.662C214.699 224.166 214.449 223.423 213.698 223.175L212.447 222.432L197.185 213.76L194.183 211.778L192.682 211.035C191.18 210.291 188.929 210.291 187.678 211.035L183.925 213.264L180.672 214.999C179.671 215.494 179.171 216.238 179.171 216.981L179.171 234.077C179.171 236.307 184.425 238.042 187.678 236.06L188.929 235.316L202.189 242.997L204.691 242.254L207.443 243.74C208.944 244.484 211.196 244.484 212.447 243.74L213.698 242.997C214.449 242.502 214.699 242.006 214.699 241.511L214.699 224.662Z" fill="#171753"/>
<path d="M204.941 225.157L204.941 242.254L202.189 242.997L202.439 225.901L204.941 225.157Z" fill="#BEF0ED"/>
<path d="M202.439 225.901L202.189 242.997L188.929 235.316L188.929 218.22L202.439 225.901Z" fill="#5ED9D1"/>
<path d="M213.698 223.175C215.199 223.919 215.199 225.158 213.698 226.149L212.697 226.644C211.196 227.387 208.944 227.387 207.693 226.644L204.941 225.158L202.439 225.901L189.179 218.22L187.928 218.963C185.926 219.954 182.924 219.954 180.922 218.963C178.921 217.724 178.921 215.99 180.922 214.999L184.175 213.264L187.928 211.035C189.429 210.291 191.681 210.291 192.932 211.035L194.183 211.778L197.185 213.512L212.447 222.184L213.698 223.175Z" fill="#5ED9D1"/>
<path d="M213.698 225.901L212.697 226.644C211.196 227.388 208.944 227.388 207.693 226.644L204.941 225.158L204.941 242.254L207.693 243.741C209.195 244.484 211.446 244.484 212.697 243.741L213.948 242.997C214.699 242.502 214.949 242.006 214.949 241.511L214.949 224.414C214.699 225.158 214.449 225.653 213.698 225.901Z" fill="#171753"/>
<path d="M207.193 217.725C206.943 218.468 207.193 219.211 206.943 219.955L200.938 221.937C200.188 221.937 199.437 221.937 198.686 221.937L192.682 218.22C192.682 217.725 192.431 216.981 192.431 216.486L195.934 213.017C197.185 213.017 197.686 212.769 198.937 212.769L207.193 217.725Z" fill="#BEF0ED"/>
<path d="M206.693 219.459L200.688 221.441C199.937 221.441 199.187 221.441 198.436 221.193L192.431 217.724C192.431 217.229 192.181 216.981 192.181 216.486L192.181 218.468C192.181 218.963 192.431 219.211 192.431 219.707L198.436 223.175C199.187 223.175 199.937 223.175 200.688 223.423L206.693 221.441C206.943 220.698 206.943 220.45 207.193 219.707L207.193 217.724C206.943 218.468 206.943 218.716 206.693 219.459Z" fill="#171753"/>
<path d="M187.678 218.964C184.675 220.698 179.171 219.459 179.171 216.981L179.171 234.078C179.171 236.308 184.425 238.042 187.678 236.06L188.929 235.317L188.929 218.22L187.678 218.964Z" fill="#171753"/>
<path d="M180.922 214.999L180.922 216.734C180.922 217.229 181.173 217.725 181.923 217.973C183.174 218.716 185.176 218.716 186.427 217.973C186.927 217.725 187.428 217.229 187.428 216.734L187.428 214.999L180.922 214.999Z" fill="#171753"/>
<path d="M184.175 216.734C185.971 216.734 187.428 215.957 187.428 214.999C187.428 214.041 185.971 213.265 184.175 213.265C182.379 213.265 180.922 214.041 180.922 214.999C180.922 215.957 182.379 216.734 184.175 216.734Z" fill="#5ED9D1"/>
<path d="M188.428 212.273L188.428 213.265C188.428 213.512 188.679 213.76 188.929 214.008C189.679 214.503 190.93 214.503 191.681 214.008C191.931 213.76 192.181 213.512 192.181 213.265L192.181 212.273L188.428 212.273Z" fill="#171753"/>
<path d="M191.681 211.53C192.431 212.026 192.431 212.769 191.681 213.017C190.93 213.513 189.679 213.513 188.929 213.017C188.178 212.521 188.178 211.778 188.929 211.53C189.679 211.035 190.93 211.035 191.681 211.53Z" fill="#5ED9D1"/>
<path d="M207.693 222.68L207.693 224.166C207.693 224.414 207.944 224.91 208.444 225.157C209.195 225.653 210.696 225.653 211.697 225.157C212.197 224.91 212.447 224.662 212.447 224.166L212.447 222.927L207.693 222.927L207.693 222.68Z" fill="#171753"/>
<path d="M209.945 223.919C211.189 223.919 212.197 223.364 212.197 222.68C212.197 221.996 211.189 221.441 209.945 221.441C208.702 221.441 207.693 221.996 207.693 222.68C207.693 223.364 208.702 223.919 209.945 223.919Z" fill="#5ED9D1"/>
<path d="M207.944 221.441L207.944 222.432C207.944 222.68 208.194 222.928 208.444 223.175C209.195 223.671 210.446 223.671 211.196 223.175C211.446 222.928 211.697 222.68 211.697 222.432L211.697 221.441L207.944 221.441Z" fill="#171753"/>
<path d="M211.196 220.698C211.947 221.193 211.947 221.689 211.196 222.184C210.446 222.68 209.195 222.68 208.444 222.184C207.693 221.689 207.693 221.193 208.444 220.698C209.195 220.45 210.446 220.45 211.196 220.698Z" fill="#5ED9D1"/>
<path d="M184.175 215.99C185.142 215.99 185.926 215.547 185.926 214.999C185.926 214.452 185.142 214.008 184.175 214.008C183.208 214.008 182.424 214.452 182.424 214.999C182.424 215.547 183.208 215.99 184.175 215.99Z" fill="#5ED9D1"/>
<path d="M209.945 221.937C210.498 221.937 210.946 221.715 210.946 221.441C210.946 221.167 210.498 220.946 209.945 220.946C209.392 220.946 208.944 221.167 208.944 221.441C208.944 221.715 209.392 221.937 209.945 221.937Z" fill="#171753"/>
<path opacity="0.75" d="M193.432 216.486L200.688 220.45L205.942 217.477L199.187 213.265L193.432 216.486Z" fill="#171753"/>
<path d="M205.942 212.026L205.942 217.477L200.688 220.45L200.188 213.76L205.942 212.026Z" fill="#5ED9D1"/>
<path d="M200.688 220.45L199.187 219.707L200.188 213.76L201.689 214.504L200.688 220.45Z" fill="#171753"/>
<path d="M201.689 214.504L200.188 213.76L204.441 211.283L205.942 212.026L201.689 214.504Z" fill="#171753"/>
<path d="M200.188 208.805L200.188 214.256L194.933 217.229L194.683 210.54L200.188 208.805Z" fill="#5ED9D1"/>
<path d="M194.933 217.229L193.432 216.486L194.683 210.54L195.934 211.283L194.933 217.229Z" fill="#171753"/>
<path d="M195.934 211.283L194.683 210.539L198.937 208.062L200.188 208.805L195.934 211.283Z" fill="#171753"/>
<path d="M205.942 210.044C205.942 209.053 205.692 208.309 204.941 208.062L197.936 204.097C197.435 203.85 196.685 203.85 195.684 204.345L191.681 206.575L191.681 212.026L198.686 215.99L205.692 212.026L205.942 210.044Z" fill="#5ED9D1"/>
<path d="M198.937 216.238L191.931 212.026L191.931 206.575L198.937 210.539L198.937 216.238Z" fill="#171753"/>
<path d="M198.186 214.256L198.186 214.751L192.682 211.53L192.682 208.061L193.182 208.309L198.186 211.035L198.186 214.256Z" fill="#5ED9D1"/>
<path d="M198.186 214.256L193.182 211.53L193.182 208.309L198.186 211.035L198.186 214.256Z" fill="#5ED9D1"/>
<path d="M197.936 204.097C197.435 203.85 196.685 203.85 195.684 204.345L191.681 206.575L198.686 210.539L202.69 208.309C203.44 207.814 204.191 207.814 204.941 208.062L197.936 204.097Z" fill="#BEF0ED"/>
<path d="M202.94 208.309C204.691 207.318 205.942 208.061 205.942 210.044L205.942 212.026L198.937 215.99L198.937 210.539L202.94 208.309Z" fill="#5ED9D1"/>
<path d="M190.18 216.981C190.43 217.229 190.43 217.477 190.18 217.725C189.93 217.972 189.429 217.972 189.179 217.725C188.929 217.477 188.929 217.229 189.179 216.981C189.429 216.733 189.93 216.733 190.18 216.981Z" fill="#171753"/>
<path d="M205.942 228.626C205.942 228.131 206.442 227.883 206.943 228.131C207.443 228.379 207.944 229.122 207.944 229.618C207.944 230.113 207.443 230.361 206.943 230.113C206.192 229.865 205.942 229.122 205.942 228.626Z" fill="#BEF0ED"/>
<path d="M203.69 236.803L206.693 235.069C206.943 234.821 207.193 234.573 207.193 234.326C207.193 233.582 206.693 232.344 205.942 232.096C205.692 231.848 205.191 231.848 204.941 232.096L201.939 233.83L203.69 236.803Z" fill="#171753"/>
<path d="M201.439 234.326C201.439 233.582 201.939 233.087 202.69 233.582C203.44 234.078 203.941 235.069 203.941 235.812C203.941 236.556 203.44 237.051 202.69 236.556C202.189 236.06 201.439 235.069 201.439 234.326Z" fill="#5ED9D1"/>
<path d="M201.439 234.821C201.439 234.078 201.939 233.83 202.439 234.326C202.94 234.573 203.44 235.317 203.44 236.06C203.44 236.803 202.94 237.051 202.439 236.556C201.939 236.06 201.439 235.317 201.439 234.821Z" fill="#5ED9D1"/>
<path d="M213.948 237.051C213.948 237.546 213.698 238.29 213.198 238.537C212.697 238.785 212.447 238.537 212.447 238.042L212.447 231.352C212.447 230.856 212.697 230.113 213.198 229.865C213.698 229.617 213.948 229.865 213.948 230.361L213.948 237.051Z" fill="#BEF0ED"/>
<path d="M206.192 228.627C206.192 228.379 206.442 228.131 206.693 228.379C206.943 228.627 207.193 229.122 207.193 229.37C207.193 229.618 206.943 229.865 206.693 229.618C206.442 229.618 206.192 229.122 206.192 228.627Z" fill="#5ED9D1"/>
<path d="M193.682 240.767L198.186 238.041C199.437 237.298 200.188 236.059 200.188 233.829C200.188 229.865 197.185 224.909 193.682 222.679C191.931 221.688 190.18 221.688 189.179 222.184L184.675 224.909L193.682 240.767Z" fill="#171753"/>
<path d="M187.928 244.732L194.933 240.767C196.184 240.024 196.935 238.537 196.935 236.307C196.935 232.095 193.933 226.644 190.18 224.662C188.178 223.671 186.677 223.423 185.426 224.167L178.421 228.131L187.928 244.732Z" fill="#5ED9D1"/>
<path d="M176.169 232.59C176.169 228.378 179.171 226.396 182.924 228.626C186.677 230.856 189.679 236.059 189.679 240.271C189.679 244.484 186.677 246.466 182.924 244.236C179.421 242.006 176.169 236.803 176.169 232.59Z" fill="#171753"/>
<path d="M189.429 243.244L196.435 239.28C196.435 239.528 196.184 239.775 196.184 239.775L189.179 243.74C189.179 243.492 189.429 243.492 189.429 243.244Z" fill="#171753"/>
<path d="M189.93 242.006L196.935 238.042C196.935 238.29 196.935 238.29 196.685 238.537L189.679 242.502C189.679 242.254 189.679 242.254 189.93 242.006Z" fill="#171753"/>
<path d="M189.93 241.015L196.935 237.051C196.935 237.298 196.935 237.298 196.935 237.546L189.93 241.51C189.93 241.263 189.93 241.263 189.93 241.015Z" fill="#171753"/>
<path d="M189.93 240.024L196.935 236.059L196.935 236.307C196.935 236.307 196.935 236.307 196.935 236.555L189.93 240.519C189.93 240.519 189.93 240.519 189.93 240.271C189.93 240.271 189.93 240.271 189.93 240.024Z" fill="#171753"/>
<path d="M189.93 239.281L196.935 235.316C196.935 235.564 196.935 235.564 196.935 235.812L189.93 239.776C189.93 239.528 189.93 239.281 189.93 239.281Z" fill="#171753"/>
<path d="M189.679 238.289L196.685 234.325L196.685 234.573L189.679 238.537C189.93 238.537 189.93 238.537 189.679 238.289Z" fill="#171753"/>
<path d="M189.679 237.546L196.685 233.581L196.685 233.829L189.679 237.793C189.679 237.793 189.679 237.793 189.679 237.546Z" fill="#171753"/>
<path d="M189.429 236.802L196.435 232.838L196.435 233.086L189.429 237.05C189.429 237.05 189.429 236.802 189.429 236.802Z" fill="#171753"/>
<path d="M189.179 236.059L196.184 232.095L196.184 232.343L189.179 236.307L189.179 236.059Z" fill="#171753"/>
<path d="M188.929 235.316L195.934 231.351C195.934 231.351 195.934 231.599 196.184 231.599L189.179 235.563C188.929 235.563 188.929 235.316 188.929 235.316Z" fill="#171753"/>
<path d="M188.428 234.573L195.434 230.608C195.434 230.608 195.434 230.856 195.684 230.856L188.679 234.82L188.428 234.573Z" fill="#171753"/>
<path d="M188.178 233.829L195.184 229.865C195.184 229.865 195.184 230.113 195.434 230.113L188.178 234.077L188.178 233.829Z" fill="#171753"/>
<path d="M187.678 233.086L194.683 229.122C194.683 229.122 194.683 229.37 194.933 229.37L187.928 233.334C187.928 233.334 187.678 233.334 187.678 233.086Z" fill="#171753"/>
<path d="M187.177 232.591L194.183 228.626L194.433 228.874L187.428 232.838C187.428 232.591 187.428 232.591 187.177 232.591Z" fill="#171753"/>
<path d="M186.677 231.847L193.682 227.883L193.933 228.13L186.927 232.095C186.927 232.095 186.927 231.847 186.677 231.847Z" fill="#171753"/>
<path d="M186.177 231.351L193.182 227.387L193.432 227.635L186.427 231.599C186.427 231.351 186.427 231.351 186.177 231.351Z" fill="#171753"/>
<path d="M185.676 230.608L192.682 226.644L192.932 226.892L185.926 230.856C185.926 230.856 185.676 230.608 185.676 230.608Z" fill="#171753"/>
<path d="M185.176 230.113L192.181 226.148L192.432 226.396L185.426 230.36C185.426 230.113 185.176 230.113 185.176 230.113Z" fill="#171753"/>
<path d="M184.425 229.617L191.431 225.653L191.681 225.9L184.675 229.865C184.675 229.617 184.675 229.617 184.425 229.617Z" fill="#171753"/>
<path d="M183.675 229.121L190.68 225.157L190.93 225.405L184.175 229.121C183.925 229.121 183.925 229.121 183.675 229.121Z" fill="#171753"/>
<path d="M182.924 228.626L189.93 224.661C189.93 224.661 190.18 224.661 190.18 224.909L183.174 228.874C183.174 228.626 183.174 228.626 182.924 228.626C183.174 228.626 183.174 228.626 182.924 228.626Z" fill="#171753"/>
<path d="M182.173 228.131L189.179 224.166C189.429 224.166 189.429 224.166 189.679 224.414L182.674 228.378C182.424 228.131 182.173 228.131 182.173 228.131Z" fill="#171753"/>
<path d="M181.173 227.883L188.178 223.918C188.428 223.918 188.428 223.918 188.679 224.166L181.673 227.883C181.423 227.883 181.173 227.883 181.173 227.883Z" fill="#171753"/>
<path d="M179.672 227.635L186.677 223.671C186.927 223.671 187.177 223.671 187.428 223.671L180.422 227.635C180.172 227.635 179.922 227.635 179.672 227.635Z" fill="#171753"/>
<path d="M185.176 246.218L187.678 244.731C188.929 243.988 189.679 242.502 189.679 240.519C189.679 236.307 186.677 231.104 182.924 229.122C181.173 228.131 179.421 227.883 178.17 228.626L175.668 230.113L185.176 246.218Z" fill="#5ED9D1"/>
<path d="M173.667 234.325C173.667 230.113 176.669 228.378 180.422 230.608C184.175 232.838 187.177 237.794 187.177 242.006C187.177 246.218 184.175 247.952 180.422 245.722C176.669 243.493 173.667 238.537 173.667 234.325Z" fill="#171753"/>
<path d="M180.422 249.192L184.675 246.714C185.926 245.971 186.677 244.484 186.677 242.254C186.677 238.042 183.675 232.591 179.922 230.609C177.92 229.618 176.419 229.37 175.168 230.113L170.915 232.591L180.422 249.192Z" fill="#5ED9D1"/>
<path d="M168.663 236.803C168.663 232.591 171.665 230.609 175.418 232.839C179.171 235.069 182.173 240.272 182.173 244.484C182.173 248.696 179.171 250.678 175.418 248.448C171.665 246.466 168.663 241.263 168.663 236.803Z" fill="#5ED9D1"/>
<path d="M181.673 247.458L185.926 244.98C185.926 245.228 185.676 245.476 185.676 245.476L181.423 247.953C181.423 247.953 181.673 247.705 181.673 247.458Z" fill="#171753"/>
<path d="M182.173 246.466L186.427 243.989C186.427 244.236 186.427 244.236 186.177 244.484L181.923 246.962C182.173 246.714 182.173 246.466 182.173 246.466Z" fill="#171753"/>
<path d="M182.424 245.475L186.677 242.998C186.677 243.245 186.677 243.245 186.677 243.493L182.424 245.971C182.173 245.723 182.173 245.475 182.424 245.475Z" fill="#171753"/>
<path d="M182.424 244.484L186.677 242.006L186.677 242.254C186.677 242.254 186.677 242.254 186.677 242.502L182.424 244.979C182.424 244.979 182.424 244.979 182.424 244.732C182.424 244.732 182.424 244.484 182.424 244.484Z" fill="#171753"/>
<path d="M182.173 243.493L186.427 241.016C186.427 241.263 186.427 241.263 186.427 241.511L182.173 243.989C182.173 243.741 182.173 243.741 182.173 243.493Z" fill="#171753"/>
<path d="M182.173 242.75L186.427 240.272L186.427 240.52L182.173 242.997L182.173 242.75Z" fill="#171753"/>
<path d="M181.923 242.007L186.176 239.529L186.176 239.777L181.923 242.254C181.923 242.254 181.923 242.007 181.923 242.007Z" fill="#171753"/>
<path d="M181.673 241.263L185.926 238.786L185.926 239.033L181.673 241.511C181.673 241.263 181.673 241.263 181.673 241.263Z" fill="#171753"/>
<path d="M181.423 240.272L185.676 237.794L185.676 238.042L181.423 240.52C181.423 240.52 181.423 240.52 181.423 240.272Z" fill="#171753"/>
<path d="M181.173 239.776L185.426 237.299C185.426 237.299 185.426 237.546 185.676 237.546L181.423 240.024C181.173 239.776 181.173 239.776 181.173 239.776Z" fill="#171753"/>
<path d="M180.922 239.033L185.176 236.556C185.176 236.556 185.176 236.803 185.426 236.803L181.173 239.281C180.922 239.033 180.922 239.033 180.922 239.033Z" fill="#171753"/>
<path d="M180.422 238.29L184.675 235.812C184.675 235.812 184.675 236.06 184.926 236.06L180.672 238.538C180.422 238.538 180.422 238.29 180.422 238.29Z" fill="#171753"/>
<path d="M179.922 237.547L184.175 235.069C184.175 235.069 184.175 235.317 184.425 235.317L180.172 237.794C180.172 237.794 180.172 237.547 179.922 237.547Z" fill="#171753"/>
<path d="M179.671 236.803L183.925 234.326L184.175 234.573L179.922 237.051C179.671 237.051 179.671 237.051 179.671 236.803Z" fill="#171753"/>
<path d="M179.171 236.308L183.424 233.83L183.675 234.078L179.421 236.556C179.171 236.556 179.171 236.308 179.171 236.308Z" fill="#171753"/>
<path d="M178.671 235.564L182.924 233.086L183.174 233.334L178.921 235.812C178.671 235.812 178.671 235.812 178.671 235.564Z" fill="#171753"/>
<path d="M178.17 235.069L182.424 232.591L182.674 232.839L178.421 235.317C178.17 235.317 178.17 235.069 178.17 235.069Z" fill="#171753"/>
<path d="M177.42 234.326L181.673 231.848L181.923 232.096L177.67 234.574C177.67 234.574 177.67 234.574 177.42 234.326Z" fill="#171753"/>
<path d="M176.919 233.83L181.173 231.353L181.423 231.6L177.17 234.078C176.919 234.078 176.919 234.078 176.919 233.83Z" fill="#171753"/>
<path d="M176.169 233.335L180.422 230.857L180.672 231.105L176.419 233.582C176.419 233.582 176.169 233.335 176.169 233.335Z" fill="#171753"/>
<path d="M175.418 232.839L179.671 230.361C179.671 230.361 179.922 230.361 179.922 230.609L175.668 233.087C175.668 233.087 175.668 233.087 175.418 232.839Z" fill="#171753"/>
<path d="M174.417 232.591L178.671 230.113C178.921 230.113 178.921 230.113 179.171 230.361L174.918 232.839C174.667 232.591 174.667 232.591 174.417 232.591Z" fill="#171753"/>
<path d="M173.417 232.096L177.67 229.618C177.92 229.618 177.92 229.618 178.17 229.866L173.917 232.343C173.667 232.343 173.667 232.096 173.417 232.096Z" fill="#171753"/>
<path d="M171.915 232.095L176.169 229.618C176.419 229.618 176.669 229.618 176.919 229.618L172.666 232.095C172.416 232.095 172.166 232.095 171.915 232.095Z" fill="#171753"/>
<path d="M175.919 251.669L179.671 249.687C180.922 248.943 181.673 247.457 181.673 245.227C181.673 241.015 178.671 235.564 174.918 233.582C172.916 232.59 171.415 232.343 170.164 233.086L166.411 235.068L175.919 251.669Z" fill="#5ED9D1"/>
<path d="M164.159 239.528C164.159 235.316 167.162 233.334 170.915 235.564C174.668 237.794 177.67 242.997 177.67 247.209C177.67 251.421 174.668 253.403 170.915 251.173C167.162 248.943 164.159 243.74 164.159 239.528Z" fill="#171753"/>
<path d="M172.666 253.652L175.418 252.165C176.669 251.422 177.42 249.935 177.42 247.705C177.42 243.493 174.417 238.042 170.664 236.06C168.663 235.069 167.162 234.821 165.911 235.564L163.159 237.051L172.666 253.652Z" fill="#5ED9D1"/>
<path d="M160.907 241.263C160.907 237.051 163.909 235.069 167.662 237.299C171.415 239.529 174.417 244.732 174.417 248.944C174.417 253.156 171.415 255.139 167.662 252.909C163.909 250.926 160.907 245.723 160.907 241.263Z" fill="#171753"/>
<path d="M173.917 251.917L176.669 250.43C176.669 250.678 176.419 250.926 176.419 250.926L173.667 252.413C173.917 252.413 173.917 252.165 173.917 251.917Z" fill="#171753"/>
<path d="M174.417 250.926L177.17 249.44C177.17 249.687 177.17 249.687 176.919 249.935L174.167 251.422C174.417 251.174 174.417 250.926 174.417 250.926Z" fill="#171753"/>
<path d="M174.668 249.687L177.42 248.201C177.42 248.448 177.42 248.448 177.42 248.696L174.668 250.183C174.668 250.183 174.668 249.935 174.668 249.687Z" fill="#171753"/>
<path d="M174.668 248.944L177.42 247.457L177.42 247.705C177.42 247.705 177.42 247.705 177.42 247.953L174.668 249.439C174.668 249.439 174.668 249.439 174.668 249.192C174.668 248.944 174.668 248.944 174.668 248.944Z" fill="#171753"/>
<path d="M174.668 247.953L177.42 246.467C177.42 246.714 177.42 246.714 177.42 246.962L174.668 248.449C174.668 248.201 174.668 248.201 174.668 247.953Z" fill="#171753"/>
<path d="M174.417 247.21L177.17 245.723L177.17 245.971L174.417 247.457L174.417 247.21Z" fill="#171753"/>
<path d="M174.167 246.466L176.919 244.98L176.919 245.228L174.167 246.714C174.417 246.466 174.167 246.466 174.167 246.466Z" fill="#171753"/>
<path d="M173.917 245.475L176.669 243.988L176.669 244.236L174.167 245.97C174.167 245.723 174.167 245.723 173.917 245.475Z" fill="#171753"/>
<path d="M173.667 244.732L176.419 243.245L176.419 243.493L173.667 244.98C173.917 244.98 173.667 244.98 173.667 244.732Z" fill="#171753"/>
<path d="M173.417 243.988L176.169 242.502C176.169 242.502 176.169 242.749 176.419 242.749L173.667 244.236C173.417 244.236 173.417 244.236 173.417 243.988Z" fill="#171753"/>
<path d="M173.166 243.245L175.919 241.759C175.919 241.759 175.919 242.006 176.169 242.006L173.417 243.493C173.166 243.493 173.166 243.493 173.166 243.245Z" fill="#171753"/>
<path d="M172.666 242.75L175.418 241.263C175.418 241.263 175.418 241.511 175.668 241.511L172.916 242.997C172.916 242.75 172.666 242.75 172.666 242.75Z" fill="#171753"/>
<path d="M172.416 242.006L175.168 240.52C175.168 240.52 175.168 240.768 175.418 240.768L172.666 242.254C172.416 242.254 172.416 242.006 172.416 242.006Z" fill="#171753"/>
<path d="M171.915 241.263L174.668 239.777L174.918 240.024L172.166 241.511C171.915 241.511 171.915 241.511 171.915 241.263Z" fill="#171753"/>
<path d="M171.415 240.767L174.167 239.033L174.417 239.281L171.665 241.015C171.665 240.767 171.415 240.767 171.415 240.767Z" fill="#171753"/>
<path d="M170.915 240.024L173.667 238.538L173.917 238.785L171.165 240.272L170.915 240.024Z" fill="#171753"/>
<path d="M170.414 239.529L173.166 238.042L173.417 238.29L170.664 239.777C170.414 239.529 170.414 239.529 170.414 239.529Z" fill="#171753"/>
<path d="M169.664 238.785L172.416 237.299L172.666 237.546L169.914 239.033C169.914 239.033 169.914 239.033 169.664 238.785Z" fill="#171753"/>
<path d="M169.163 238.29L171.915 236.803L172.166 237.051L169.413 238.537L169.163 238.29Z" fill="#171753"/>
<path d="M168.413 237.794L171.165 236.308L171.415 236.555L168.663 238.042L168.413 237.794Z" fill="#171753"/>
<path d="M167.662 237.299L170.414 235.812C170.414 235.812 170.664 235.812 170.664 236.06L167.912 237.546C167.912 237.546 167.912 237.546 167.662 237.299Z" fill="#171753"/>
<path d="M166.661 236.804L169.414 235.317C169.664 235.317 169.664 235.317 169.914 235.565L167.162 237.051C166.912 237.051 166.912 237.051 166.661 236.804Z" fill="#171753"/>
<path d="M165.661 236.555L168.413 235.069C168.663 235.069 168.663 235.069 168.913 235.316L166.161 236.803C166.161 236.555 165.911 236.555 165.661 236.555Z" fill="#171753"/>
<path d="M164.41 236.555L167.162 235.069C167.412 235.069 167.662 235.069 167.912 235.069L164.91 236.555C164.66 236.555 164.66 236.555 164.41 236.555Z" fill="#171753"/>
<path d="M169.163 255.881L171.665 254.395C172.916 253.651 173.667 252.165 173.667 249.687C173.667 245.227 170.414 239.776 166.411 237.298C164.41 236.06 162.658 236.06 161.407 236.803L158.905 238.29L169.163 255.881Z" fill="#5ED9D1"/>
<path d="M156.904 243.245C156.904 238.785 160.156 236.803 164.159 239.033C168.162 241.263 171.415 246.714 171.415 251.422C171.415 255.882 168.162 257.864 164.159 255.634C160.156 253.156 156.904 247.705 156.904 243.245Z" fill="#171753"/>
<path d="M164.159 240.024C167.662 242.006 170.664 246.961 170.664 251.174C170.664 251.174 170.664 251.174 170.664 251.421C170.664 255.386 167.662 256.872 164.159 254.89C160.657 252.908 157.654 247.952 157.654 243.988C157.654 239.528 160.657 238.042 164.159 240.024Z" fill="#BEF0ED"/>
<path d="M164.159 240.024C167.662 242.006 170.664 246.962 170.664 251.174C170.664 251.174 170.664 251.174 170.664 251.422C170.414 254.643 167.912 255.881 164.66 254.147C161.407 252.165 158.655 247.705 158.655 243.988C158.655 240.024 160.907 238.537 164.159 240.024Z" fill="#171753"/>
<path d="M161.908 241.263C162.658 241.015 163.409 241.263 164.159 241.511C166.911 242.997 169.163 246.962 169.163 249.935C169.163 250.926 168.663 251.669 168.413 252.165C167.662 252.908 166.161 253.156 164.66 252.165C162.158 250.678 160.156 247.209 160.156 244.236C159.906 242.749 160.657 241.511 161.908 241.263Z" fill="#5ED9D1"/>
<path d="M161.908 241.263C162.658 241.015 163.409 241.263 164.159 241.511C166.911 242.997 169.163 246.962 169.163 249.935C169.163 250.926 168.663 251.669 168.413 252.165C167.662 252.413 166.661 252.165 165.661 251.669C163.159 250.183 161.157 246.714 161.157 243.741C160.907 242.749 161.407 241.758 161.908 241.263Z" fill="#171753"/>
<path d="M162.158 245.723C162.572 245.723 162.908 244.946 162.908 243.988C162.908 243.03 162.572 242.254 162.158 242.254C161.743 242.254 161.407 243.03 161.407 243.988C161.407 244.946 161.743 245.723 162.158 245.723Z" fill="white"/>
<path d="M162.658 246.962C162.658 247.21 162.658 247.705 162.408 247.705C162.158 247.705 161.908 247.457 161.908 247.21C161.908 246.962 161.908 246.466 162.158 246.466C162.408 246.466 162.658 246.714 162.658 246.962Z" fill="white"/>
<mask id="path-193-outside-1_3155_3701" maskUnits="userSpaceOnUse" x="120.025" y="202.934" width="187" height="329" fill="black">
<rect fill="white" x="120.025" y="202.934" width="187" height="329"/>
<path fill-rule="evenodd" clip-rule="evenodd" d="M204.654 207.899C205.013 207.965 205.311 208.156 205.529 208.458C205.829 208.825 205.942 209.379 205.942 210.044V216.974L207.193 217.725V219.199L209.517 220.52C210.113 220.489 210.745 220.549 211.196 220.698C211.697 221.028 211.863 221.359 211.697 221.689V221.758L212.447 222.184L213.698 223.176C213.939 223.255 214.129 223.386 214.275 223.543C214.729 223.923 214.902 224.375 214.792 224.838C214.847 224.707 214.898 224.566 214.949 224.414V233.502L215.95 234.077V241.758L214.308 242.728C214.204 242.818 214.084 242.908 213.948 242.997L212.697 243.741C212.539 243.835 212.365 243.917 212.178 243.987L206.442 247.377V251.981C211.331 252.922 215.296 254.981 217.373 257.616C220.093 256.698 224.429 259.097 224.206 263.066L221.551 269.553L252.979 356.477C253.159 357.102 253.047 357.679 252.733 358.191L276.497 424.366C276.674 425.008 276.448 425.596 275.983 426.096L299.967 492.228C301.538 492.215 301.935 492.999 301.767 492.999L306.02 501.671C306.271 504.149 296.763 505.883 295.512 502.662L293.761 496.22C293.761 496.22 293.761 495.16 294.935 494.106L271.27 427.783C270.473 427.751 269.811 427.535 269.492 427.092L245.894 360.524C245.26 360.384 244.753 360.114 244.472 359.698L242.756 354.918L208.876 349.72C208.801 350.898 207.989 352.065 206.442 353.008L206.442 357.22C206.442 358.211 205.942 358.954 204.691 359.698C202.439 360.936 198.436 360.936 196.184 359.698C194.933 358.954 194.433 358.211 194.433 357.22V353.144C194.349 353.1 194.265 353.054 194.183 353.008C193.677 352.7 193.251 352.368 192.902 352.019L186.299 355.866L183.925 375.059C183.753 375.512 183.282 375.797 182.656 375.943L176.932 421.29C177.738 421.824 178.279 422.61 178.421 423.871L177.92 429.322C176.419 432.543 167.162 431.799 167.912 427.339L169.413 422.632C169.832 421.525 170.641 420.882 171.709 420.573L177.508 375.011C176.994 374.67 176.669 374.264 176.669 373.821L178.345 360.5L170.6 365.011L169.163 371.095C168.964 371.736 168.487 372.162 167.851 372.41L150.899 445.427C150.596 446.252 149.788 446.646 148.809 446.732L131.34 520.31C133.287 521.377 133.135 522.732 133.135 522.732L131.634 528.926C129.132 531.404 121.626 530.413 121.626 527.439L124.128 520.997C124.128 520.997 124.656 519.952 126.054 519.491L144.044 445.181C143.639 444.799 143.393 444.374 143.393 443.94L160.755 370.661C160.379 370.256 160.156 369.815 160.156 369.361L182.723 275.596C181.492 274.883 180.206 274.091 178.921 273.225C177.421 267.878 179.787 265.291 181.923 264.077V261.828C181.923 259.151 183.72 256.711 186.673 254.868C186.427 253.391 186.431 252.159 187.177 251.173L194.433 249.814V247.433L188.871 244.198L187.928 244.732L187.861 244.615C187.801 244.656 187.74 244.695 187.678 244.732L185.814 245.839C185.667 245.975 185.509 246.096 185.342 246.2C185.14 246.399 184.917 246.57 184.675 246.714L180.422 249.192L180.385 249.127C180.17 249.346 179.932 249.533 179.671 249.687L176.222 251.509C175.984 251.77 175.715 251.988 175.418 252.165L172.666 253.652L172.615 253.562C172.344 253.905 172.025 254.181 171.665 254.395L170.214 255.257C168.915 256.771 166.687 257.042 164.159 255.634C160.156 253.156 156.904 247.705 156.904 243.245C156.904 240.984 157.739 239.36 159.085 238.599L158.905 238.29L161.407 236.803C162.185 236.341 163.155 236.166 164.259 236.397C164.303 236.392 164.347 236.388 164.392 236.384L165.225 235.935C165.69 235.351 166.291 234.95 166.993 234.761L169.595 233.387C170.186 232.552 171.03 232.043 172.041 231.935L175.168 230.113C175.377 229.989 175.593 229.892 175.817 229.822L176.169 229.618H176.502L177.002 229.321C177.477 228.585 178.135 228.078 178.925 227.846L179.171 227.706L179.171 216.981C179.171 216.238 179.671 215.495 180.672 214.999L180.933 214.86C181.059 214.013 182.326 213.337 183.914 213.27L183.925 213.265L187.678 211.035C188.353 210.633 189.321 210.449 190.305 210.481C190.777 210.465 191.246 210.5 191.681 210.585V206.575L195.684 204.345C196.685 203.849 197.435 203.849 197.936 204.097L204.654 207.899ZM171.677 360.456L178.881 356.236L182.751 325.472C182.171 325.056 181.773 324.562 181.673 324.018L183.048 312.316L171.677 360.456ZM191.681 348.74V342.354H191.743C191.743 341.115 192.557 339.876 194.183 338.885C194.265 338.838 194.349 338.793 194.433 338.748V337.511L189.682 328.527L186.829 351.581L191.681 348.74ZM213.948 276.198V276.128C211.903 277.355 209.334 278.303 206.442 278.86V338.885C208.069 339.876 208.882 341.115 208.882 342.354H208.944V346.677L241.535 351.518L214.539 276.351C214.347 276.311 214.15 276.26 213.948 276.198ZM194.433 293.654V330.645L190.973 324.379L194.433 293.654Z"/>
</mask>
<path fill-rule="evenodd" clip-rule="evenodd" d="M204.654 207.899C205.013 207.965 205.311 208.156 205.529 208.458C205.829 208.825 205.942 209.379 205.942 210.044V216.974L207.193 217.725V219.199L209.517 220.52C210.113 220.489 210.745 220.549 211.196 220.698C211.697 221.028 211.863 221.359 211.697 221.689V221.758L212.447 222.184L213.698 223.176C213.939 223.255 214.129 223.386 214.275 223.543C214.729 223.923 214.902 224.375 214.792 224.838C214.847 224.707 214.898 224.566 214.949 224.414V233.502L215.95 234.077V241.758L214.308 242.728C214.204 242.818 214.084 242.908 213.948 242.997L212.697 243.741C212.539 243.835 212.365 243.917 212.178 243.987L206.442 247.377V251.981C211.331 252.922 215.296 254.981 217.373 257.616C220.093 256.698 224.429 259.097 224.206 263.066L221.551 269.553L252.979 356.477C253.159 357.102 253.047 357.679 252.733 358.191L276.497 424.366C276.674 425.008 276.448 425.596 275.983 426.096L299.967 492.228C301.538 492.215 301.935 492.999 301.767 492.999L306.02 501.671C306.271 504.149 296.763 505.883 295.512 502.662L293.761 496.22C293.761 496.22 293.761 495.16 294.935 494.106L271.27 427.783C270.473 427.751 269.811 427.535 269.492 427.092L245.894 360.524C245.26 360.384 244.753 360.114 244.472 359.698L242.756 354.918L208.876 349.72C208.801 350.898 207.989 352.065 206.442 353.008L206.442 357.22C206.442 358.211 205.942 358.954 204.691 359.698C202.439 360.936 198.436 360.936 196.184 359.698C194.933 358.954 194.433 358.211 194.433 357.22V353.144C194.349 353.1 194.265 353.054 194.183 353.008C193.677 352.7 193.251 352.368 192.902 352.019L186.299 355.866L183.925 375.059C183.753 375.512 183.282 375.797 182.656 375.943L176.932 421.29C177.738 421.824 178.279 422.61 178.421 423.871L177.92 429.322C176.419 432.543 167.162 431.799 167.912 427.339L169.413 422.632C169.832 421.525 170.641 420.882 171.709 420.573L177.508 375.011C176.994 374.67 176.669 374.264 176.669 373.821L178.345 360.5L170.6 365.011L169.163 371.095C168.964 371.736 168.487 372.162 167.851 372.41L150.899 445.427C150.596 446.252 149.788 446.646 148.809 446.732L131.34 520.31C133.287 521.377 133.135 522.732 133.135 522.732L131.634 528.926C129.132 531.404 121.626 530.413 121.626 527.439L124.128 520.997C124.128 520.997 124.656 519.952 126.054 519.491L144.044 445.181C143.639 444.799 143.393 444.374 143.393 443.94L160.755 370.661C160.379 370.256 160.156 369.815 160.156 369.361L182.723 275.596C181.492 274.883 180.206 274.091 178.921 273.225C177.421 267.878 179.787 265.291 181.923 264.077V261.828C181.923 259.151 183.72 256.711 186.673 254.868C186.427 253.391 186.431 252.159 187.177 251.173L194.433 249.814V247.433L188.871 244.198L187.928 244.732L187.861 244.615C187.801 244.656 187.74 244.695 187.678 244.732L185.814 245.839C185.667 245.975 185.509 246.096 185.342 246.2C185.14 246.399 184.917 246.57 184.675 246.714L180.422 249.192L180.385 249.127C180.17 249.346 179.932 249.533 179.671 249.687L176.222 251.509C175.984 251.77 175.715 251.988 175.418 252.165L172.666 253.652L172.615 253.562C172.344 253.905 172.025 254.181 171.665 254.395L170.214 255.257C168.915 256.771 166.687 257.042 164.159 255.634C160.156 253.156 156.904 247.705 156.904 243.245C156.904 240.984 157.739 239.36 159.085 238.599L158.905 238.29L161.407 236.803C162.185 236.341 163.155 236.166 164.259 236.397C164.303 236.392 164.347 236.388 164.392 236.384L165.225 235.935C165.69 235.351 166.291 234.95 166.993 234.761L169.595 233.387C170.186 232.552 171.03 232.043 172.041 231.935L175.168 230.113C175.377 229.989 175.593 229.892 175.817 229.822L176.169 229.618H176.502L177.002 229.321C177.477 228.585 178.135 228.078 178.925 227.846L179.171 227.706L179.171 216.981C179.171 216.238 179.671 215.495 180.672 214.999L180.933 214.86C181.059 214.013 182.326 213.337 183.914 213.27L183.925 213.265L187.678 211.035C188.353 210.633 189.321 210.449 190.305 210.481C190.777 210.465 191.246 210.5 191.681 210.585V206.575L195.684 204.345C196.685 203.849 197.435 203.849 197.936 204.097L204.654 207.899ZM171.677 360.456L178.881 356.236L182.751 325.472C182.171 325.056 181.773 324.562 181.673 324.018L183.048 312.316L171.677 360.456ZM191.681 348.74V342.354H191.743C191.743 341.115 192.557 339.876 194.183 338.885C194.265 338.838 194.349 338.793 194.433 338.748V337.511L189.682 328.527L186.829 351.581L191.681 348.74ZM213.948 276.198V276.128C211.903 277.355 209.334 278.303 206.442 278.86V338.885C208.069 339.876 208.882 341.115 208.882 342.354H208.944V346.677L241.535 351.518L214.539 276.351C214.347 276.311 214.15 276.26 213.948 276.198ZM194.433 293.654V330.645L190.973 324.379L194.433 293.654Z" stroke="#171753" stroke-width="1.4" mask="url(#path-193-outside-1_3155_3701)"/>
<path d="M230.962 243.741C228.209 244.732 224.957 244.484 221.204 242.997L216.45 240.272C214.949 241.015 212.947 239.776 210.946 238.29C209.695 236.803 209.695 235.812 210.946 234.821C210.446 233.086 210.696 231.847 211.947 231.104C211.697 229.617 211.947 228.379 213.448 227.635C213.448 225.901 213.948 224.662 215.7 224.167L225.457 225.405C228.46 227.14 233.964 230.856 235.966 234.077L240.719 241.263L237.717 245.475L230.962 243.741Z" fill="white" stroke="#171753" stroke-width="0.7"/>
<path d="M235.275 237.77C236.12 236.15 236.567 234.497 236.005 232.904L265.827 248.511L266.512 248.87L266.329 248.118L261.088 226.615C261.845 216.566 266.24 209.01 271.386 205.279C273.963 203.411 276.713 202.511 279.285 202.708C281.835 202.904 284.251 204.18 286.192 206.742C289.287 215.736 290.782 231.756 290.19 245.894C289.893 252.973 289.074 259.556 287.681 264.529C286.984 267.016 286.148 269.084 285.174 270.607C284.198 272.132 283.107 273.073 281.914 273.383L281.896 273.387L281.878 273.394C278.861 274.529 275.217 274.184 271.153 272.745C267.093 271.308 262.657 268.794 258.087 265.659C249.032 259.446 239.511 250.832 231.425 243.442C231.775 242.944 232.144 242.441 232.514 241.936C233.532 240.544 234.563 239.137 235.275 237.77Z" fill="#49CE8B" stroke="#171753" stroke-width="0.7"/>
<path d="M223.223 41.2694V41.9939L222.546 41.7369C218.334 40.1393 214.704 40.4953 212.155 42.3703C209.601 44.2484 208.008 47.7408 208.069 52.6757V52.6819V52.9247C208.069 58.3966 210.067 64.47 213.305 69.8776C216.543 75.2844 220.994 79.9796 225.849 82.7202L225.889 82.7427L225.924 82.7721L268.492 118.367L268.742 118.228L270.219 117.406C271.456 116.717 273.139 115.78 274.924 114.786C278.493 112.798 282.469 110.582 284.097 109.672C287.142 107.969 289.101 104.291 289.101 98.8174V98.4532C289.101 93.5178 287.473 88.0754 284.762 83.0752C282.052 78.0767 278.279 73.5538 274.027 70.4472L273.832 70.3047L273.822 70.0634C273.513 62.3378 270.544 53.8915 265.928 46.4033C261.312 38.9162 255.076 32.4285 248.279 28.5938C241.353 24.758 235.156 24.3362 230.726 26.6545L216.079 34.8332L223.252 37.1514L223.638 37.2758L223.596 37.6784C223.55 38.1207 223.492 38.5434 223.435 38.9558C223.327 39.7429 223.223 40.4925 223.223 41.2694Z" fill="#5ED9D1" stroke="#171753"/>
<path d="M206.943 50.0108C207.569 35.0774 218.841 29.2498 232.742 37.02C246.644 44.7902 257.915 63.2444 258.542 78.9062C267.183 85.2195 273.821 97.239 273.821 107.316V107.68C273.821 118.85 265.805 123.342 255.786 117.757L209.698 92.0184C199.804 86.4335 191.789 72.9571 191.789 61.7875V61.4232C191.789 51.3463 198.302 46.7327 206.943 50.0108Z" fill="#BEF0ED" stroke="#171753"/>
<path d="M19.3491 126.267V126.992L18.6718 126.735C16.2662 125.822 14.2328 126.039 12.8217 127.077C11.4064 128.117 10.4935 130.075 10.5287 132.904L10.5287 132.904V132.91V133.051C10.5287 136.189 11.6757 139.687 13.5467 142.812C15.4172 145.935 17.9839 148.638 20.7715 150.212L20.8114 150.234L20.8465 150.264L45.5132 170.89L45.533 170.879L46.3929 170.4L49.131 168.875C51.2087 167.718 53.5227 166.429 54.4698 165.899C56.1545 164.957 57.2755 162.902 57.2755 159.763V159.551C57.2755 156.722 56.3411 153.588 54.7755 150.7C53.2108 147.814 51.0337 145.206 48.5873 143.419L48.3923 143.277L48.3826 143.035C48.2046 138.583 46.4913 133.701 43.8186 129.365C41.1464 125.03 37.5408 121.283 33.6217 119.072C29.6279 116.86 26.1002 116.641 23.6065 117.945L15.5024 122.47L19.2216 123.672L19.6067 123.796L19.5652 124.199C19.537 124.472 19.5019 124.726 19.4683 124.968C19.4062 125.416 19.3491 125.829 19.3491 126.267Z" fill="#5ED9D1" stroke="#171753"/>
<path d="M9.66433 131.355C10.0288 122.663 16.5894 119.271 24.6809 123.794C32.7723 128.317 39.3329 139.058 39.6974 148.174C44.7272 151.849 48.5907 158.845 48.5907 164.71V164.922C48.5907 171.423 43.9254 174.038 38.0937 170.787L11.268 155.806C5.50926 152.555 0.843938 144.711 0.843938 138.21V137.998C0.843938 132.133 4.63451 129.447 9.66433 131.355Z" fill="#BEF0ED" stroke="#171753"/>
<g clip-path="url(#clip0_3155_3701)">
<path fill-rule="evenodd" clip-rule="evenodd" d="M129.941 250.183L118.64 270.564L141.941 270.968L129.941 250.183Z" fill="#5ED9D1"/>
<path opacity="0.9" fill-rule="evenodd" clip-rule="evenodd" d="M102.504 266.024L91.2133 286.399L114.504 286.809L102.504 266.024Z" fill="#5ED9D1"/>
<path opacity="0.8" fill-rule="evenodd" clip-rule="evenodd" d="M75.0765 281.859L63.7756 302.24L87.0765 302.644L75.0765 281.859Z" fill="#5ED9D1"/>
<path opacity="0.7" fill-rule="evenodd" clip-rule="evenodd" d="M59.6388 318.485L47.6388 297.7L36.3485 318.075L59.6388 318.485Z" fill="#5ED9D1"/>
</g>
<path d="M402.412 423.051C392.771 402.926 395.04 381.78 407.478 375.822C419.917 369.863 437.816 381.348 447.457 401.474C457.098 421.599 454.83 442.745 442.391 448.704C429.952 454.662 412.053 443.177 402.412 423.051Z" fill="#ECFFFE"/>
<path d="M418.238 415.031C410.346 394.157 414.407 373.282 427.308 368.404C440.209 363.526 457.065 376.493 464.957 397.367C472.849 418.24 468.789 439.116 455.888 443.994C442.987 448.872 426.13 435.905 418.238 415.031Z" fill="#ECFFFE"/>
<path d="M444.344 442.67C433.217 441.805 420.569 431.392 412.973 415.532C405.377 399.672 405.199 383.318 411.474 374.092L410.449 371.919L418.048 368.29C430.485 362.321 448.374 373.817 458.043 393.972C467.711 414.127 465.413 435.263 452.975 441.232L445.377 444.861L444.344 442.67Z" fill="#FF4141"/>
<path d="M458.623 393.69C448.842 373.265 430.563 361.592 417.773 367.728L409.594 371.64L410.742 374.057C404.389 383.759 405.031 400.469 412.401 415.832C419.77 431.195 432.37 442.156 443.924 443.288L445.072 445.705L453.25 441.794C465.987 435.68 468.396 414.097 458.623 393.69ZM411.308 372.261L418.355 368.881C430.458 363.072 448.095 374.419 457.491 394.221C466.888 414.024 464.824 434.81 452.692 440.547L445.637 443.909L444.716 441.989L444.35 441.971C433.147 441.074 420.76 430.321 413.513 415.203C406.266 400.085 405.645 383.683 411.968 374.416L412.181 374.117L411.308 372.261Z" fill="#171753"/>
<path d="M445.423 444.821C457.868 438.87 460.104 417.633 450.498 397.579C440.892 377.525 422.955 365.964 410.503 371.897C398.051 377.83 395.823 399.085 405.428 419.139C415.034 439.193 432.932 450.812 445.423 444.821Z" fill="#FFA6A6"/>
<path d="M407.192 418.297C397.551 398.171 399.819 377.026 412.258 371.067C424.697 365.108 442.596 376.593 452.237 396.719C461.878 416.845 459.609 437.99 447.17 443.949C434.732 449.907 416.832 438.423 407.192 418.297Z" fill="#FFA6A6"/>
<path d="M451.096 397.289C441.316 376.864 423.044 365.209 410.246 371.327C397.448 377.445 395.093 399.006 404.82 419.453C414.546 439.901 432.879 451.551 445.67 445.415C458.46 439.279 460.804 417.744 451.096 397.289ZM406.041 418.885C396.565 399.094 398.708 378.296 410.822 372.567C422.936 366.837 440.562 378.105 449.966 397.925C459.37 417.746 457.299 438.514 445.167 444.251C433.035 449.988 415.438 438.688 405.969 418.915L406.041 418.885Z" fill="#171753"/>
<path d="M409.956 416.972C402.257 400.899 403.601 384.235 412.96 379.752C422.318 375.269 436.146 384.665 443.846 400.738C451.546 416.811 450.201 433.476 440.843 437.959C431.484 442.441 417.656 433.045 409.956 416.972Z" fill="#ECFFFE"/>
<path d="M444.438 400.487C436.582 384.101 422.35 374.555 412.676 379.19C403.002 383.826 401.536 400.901 409.421 417.255C417.305 433.608 431.44 443.174 441.129 438.574C450.818 433.974 452.268 416.863 444.438 400.487ZM410.497 416.64C402.978 400.917 404.189 384.602 413.21 380.278C422.232 375.955 435.704 385.245 443.241 400.961C450.777 416.677 449.556 433.018 440.535 437.342C431.513 441.665 418.071 432.447 410.563 416.698L410.497 416.64Z" fill="#171753"/>
<path d="M409.947 416.995C402.243 400.925 403.601 384.253 412.988 379.842C413.826 379.452 414.71 379.171 415.619 379.007C408.421 384.983 407.911 400.08 414.913 414.708C421.915 429.336 434.033 438.469 443.181 436.542C442.477 437.141 441.703 437.652 440.876 438.066C431.49 442.477 417.658 433.082 409.947 416.995Z" fill="#FF4141"/>
<path d="M444.198 435.531L443.013 435.831C434.056 437.657 422.208 428.412 415.463 414.354C408.718 400.295 408.961 385.267 416.001 379.419L417.135 378.486L415.451 378.295C414.491 378.47 413.557 378.771 412.676 379.19C403.02 383.819 401.536 400.902 409.421 417.255C417.305 433.608 431.44 443.174 441.129 438.574C442.001 438.132 442.818 437.589 443.563 436.955L444.198 435.531ZM410.563 416.698C403.044 400.974 404.254 384.659 413.276 380.335L413.366 380.298C407.599 387.435 407.861 401.389 414.339 414.903C420.817 428.418 431.524 437.354 440.701 437.336L440.593 437.381C431.489 441.76 418.071 432.447 410.563 416.698Z" fill="#171753"/>
<path d="M408.014 411.967L412.806 409.668L410.456 400.822L410.06 391.189L412.351 382.999L415.582 378.917L411.192 380.606L407.319 385.482L405.317 391.821L405.176 400.768L407.361 410.59L408.014 411.967Z" fill="#171753"/>
<path d="M452.264 401.747L460 398.04L462.719 407.366L464.261 416.863L462.905 428.129L458.834 436.612L455.061 440.2L448.96 442.957L454.709 435.215L456.347 424.424L454.921 410.107L452.264 401.747Z" fill="#171753"/>
<path d="M417.461 398.021C417.195 389.939 426.537 393.98 429 402.373C431.414 396.985 440.877 403.331 440.563 412.242C440.345 418.639 430.207 423.587 429.048 424.105C427.817 422.11 417.678 404.678 417.461 398.021Z" fill="#FFA6A6"/>
<path d="M429.011 424.106L428.794 424.106L428.432 424.106L427.997 423.329C426.163 420.246 416.652 403.72 416.434 396.934C416.289 392.556 418.655 391.753 419.669 391.469C422.687 390.925 427.153 394.059 429.325 399.11C429.907 398.649 430.582 398.342 431.296 398.216C432.009 398.09 432.74 398.148 433.429 398.384C435.889 399.286 438.013 401.016 439.483 403.317C440.953 405.618 441.691 408.367 441.588 411.155C441.347 417.811 432.149 422.707 429.711 423.873L429.542 424.106L429.011 424.106ZM418.486 396.753C418.655 401.752 425.221 414.341 429.398 421.516C433.405 419.469 439.392 415.325 439.536 410.973C439.608 408.689 439.007 406.44 437.82 404.543C436.633 402.646 434.919 401.198 432.922 400.405C432.37 400.162 431.754 400.146 431.193 400.361C430.631 400.577 430.164 401.007 429.88 401.571L428.746 404.161L427.973 401.571C426.404 396.183 422.107 393.23 419.959 393.618C418.631 393.852 418.39 395.509 418.438 396.83L418.486 396.753Z" fill="#171753"/>
<path d="M402.078 219.129C392.329 198.778 394.623 177.396 407.201 171.371C419.779 165.345 437.879 176.959 447.628 197.31C457.376 217.661 455.083 239.043 442.504 245.068C429.926 251.093 411.827 239.48 402.078 219.129Z" fill="#ECFFFE"/>
<path d="M418.081 211.019C410.101 189.912 414.207 168.803 427.252 163.87C440.298 158.938 457.343 172.05 465.323 193.157C473.304 214.264 469.198 235.374 456.152 240.306C443.107 245.238 426.062 232.126 418.081 211.019Z" fill="#ECFFFE"/>
<path d="M444.479 238.967C433.228 238.092 420.439 227.563 412.757 211.525C405.076 195.488 404.896 178.951 411.242 169.622L410.205 167.425L417.889 163.755C430.465 157.719 448.555 169.344 458.331 189.724C468.108 210.104 465.784 231.477 453.208 237.513L445.524 241.183L444.479 238.967Z" fill="#5ED9D1"/>
<path d="M458.918 189.439C449.028 168.785 430.544 156.982 417.611 163.187L409.341 167.142L410.502 169.587C404.077 179.397 404.727 196.294 412.179 211.829C419.63 227.364 432.372 238.447 444.054 239.592L445.215 242.037L453.485 238.081C466.364 231.899 468.8 210.075 458.918 189.439ZM411.074 167.77L418.2 164.352C430.437 158.478 448.272 169.952 457.774 189.976C467.275 210.001 465.189 231.019 452.921 236.82L445.787 240.22L444.856 238.278L444.486 238.261C433.157 237.353 420.631 226.48 413.303 211.193C405.975 195.906 405.348 179.32 411.741 169.95L411.957 169.647L411.074 167.77Z" fill="#171753"/>
<path d="M445.571 241.142C458.155 235.125 460.416 213.65 450.702 193.372C440.989 173.093 422.851 161.403 410.26 167.402C397.668 173.402 395.415 194.894 405.128 215.173C414.842 235.451 432.94 247.201 445.571 241.142Z" fill="#BEF0ED"/>
<path d="M406.911 214.321C397.163 193.97 399.456 172.588 412.034 166.563C424.613 160.537 442.712 172.151 452.461 192.502C462.209 212.853 459.916 234.235 447.338 240.26C434.759 246.286 416.66 234.672 406.911 214.321Z" fill="#BEF0ED"/>
<path d="M451.307 193.078C441.417 172.424 422.941 160.639 410 166.826C397.059 173.013 394.678 194.815 404.513 215.491C414.348 236.167 432.886 247.948 445.82 241.743C458.753 235.538 461.124 213.762 451.307 193.078ZM405.748 214.916C396.166 194.903 398.333 173.873 410.583 168.079C422.832 162.286 440.655 173.679 450.164 193.722C459.673 213.765 457.579 234.764 445.311 240.566C433.044 246.367 415.25 234.94 405.675 214.946L405.748 214.916Z" fill="#171753"/>
<path d="M409.707 212.982C401.921 196.729 403.281 179.878 412.744 175.345C422.207 170.812 436.19 180.313 443.976 196.566C451.762 212.819 450.402 229.67 440.939 234.203C431.476 238.736 417.493 229.235 409.707 212.982Z" fill="#ECFFFE"/>
<path d="M444.574 196.312C436.63 179.743 422.239 170.089 412.457 174.777C402.675 179.464 401.193 196.731 409.165 213.267C417.138 229.803 431.431 239.476 441.228 234.825C451.026 230.174 452.493 212.871 444.574 196.312ZM410.254 212.646C402.651 196.747 403.875 180.249 412.997 175.877C422.12 171.505 435.743 180.9 443.364 196.792C450.985 212.683 449.75 229.207 440.627 233.579C431.505 237.951 417.912 228.629 410.32 212.704L410.254 212.646Z" fill="#171753"/>
<path d="M409.697 213.004C401.907 196.756 403.281 179.897 412.772 175.436C413.619 175.042 414.514 174.758 415.433 174.592C408.155 180.635 407.638 195.9 414.719 210.692C421.799 225.484 434.053 234.719 443.303 232.771C442.591 233.376 441.809 233.893 440.973 234.311C431.481 238.772 417.495 229.272 409.697 213.004Z" fill="#5ED9D1"/>
<path d="M444.332 231.748L443.134 232.051C434.077 233.898 422.096 224.55 415.275 210.334C408.454 196.118 408.7 180.922 415.819 175.009L416.966 174.065L415.264 173.872C414.292 174.049 413.348 174.353 412.457 174.777C402.693 179.457 401.192 196.731 409.165 213.268C417.138 229.804 431.431 239.476 441.228 234.825C442.11 234.379 442.937 233.829 443.689 233.188L444.332 231.748ZM410.32 212.704C402.717 196.805 403.941 180.307 413.064 175.935L413.155 175.897C407.323 183.114 407.588 197.224 414.139 210.89C420.689 224.556 431.516 233.591 440.796 233.574L440.686 233.619C431.48 238.047 417.912 228.629 410.32 212.704Z" fill="#171753"/>
<path d="M407.743 207.92L412.589 205.596L410.212 196.651L409.812 186.91L412.128 178.628L415.396 174.501L410.957 176.209L407.04 181.139L405.016 187.549L404.873 196.596L407.082 206.529L407.743 207.92Z" fill="#171753"/>
<path d="M452.489 197.586L460.311 193.837L463.06 203.269L464.62 212.871L463.248 224.264L459.132 232.841L455.317 236.47L449.147 239.257L454.961 231.429L456.616 220.517L455.175 206.04L452.489 197.586Z" fill="#171753"/>
<path d="M416.149 194.569C415.417 203.43 420.715 214.668 427.971 219.781C435.227 224.893 441.712 221.763 442.448 212.856C443.184 203.949 437.888 192.699 430.627 187.644C423.365 182.589 416.878 185.754 416.149 194.569Z" stroke="#171753" stroke-width="1.4" stroke-miterlimit="10"/>
<path d="M422.961 198.744C422.905 200.724 423.316 202.689 424.16 204.481C425.004 206.273 426.258 207.84 427.821 209.057C430.809 211.126 433.466 209.858 433.765 206.241C433.826 204.26 433.418 202.293 432.573 200.501C431.728 198.708 430.472 197.141 428.906 195.928C425.934 193.811 423.266 195.053 422.961 198.744Z" fill="#171753"/>
<path d="M422.777 195.73C422.753 196.556 422.924 197.376 423.275 198.124C423.626 198.872 424.149 199.526 424.8 200.035C426.054 200.895 427.163 200.367 427.288 198.853C427.314 198.027 427.142 197.207 426.788 196.461C426.434 195.714 425.908 195.062 425.252 194.559C424.011 193.689 422.902 194.217 422.777 195.73Z" fill="#ECFFFE"/>
<path d="M401.89 321.569C392.081 301.091 394.389 279.575 407.045 273.512C419.702 267.449 437.914 279.135 447.723 299.613C457.533 320.091 455.225 341.607 442.568 347.669C429.912 353.732 411.7 342.046 401.89 321.569Z" fill="#ECFFFE"/>
<path d="M417.993 313.408C409.963 292.169 414.094 270.928 427.221 265.965C440.348 261.002 457.499 274.196 465.53 295.435C473.56 316.673 469.428 337.914 456.301 342.877C443.175 347.841 426.023 334.647 417.993 313.408Z" fill="#ECFFFE"/>
<path d="M444.555 341.531C433.234 340.65 420.365 330.055 412.636 313.917C404.907 297.78 404.726 281.14 411.111 271.753L410.067 269.542L417.799 265.849C430.454 259.776 448.656 271.473 458.494 291.98C468.332 312.488 465.993 333.994 453.338 340.067L445.607 343.76L444.555 341.531Z" fill="#FFE850"/>
<path d="M459.084 291.693C449.133 270.911 430.534 259.034 417.52 265.277L409.198 269.257L410.366 271.717C403.902 281.589 404.555 298.591 412.053 314.223C419.552 329.855 432.372 341.007 444.128 342.159L445.296 344.619L453.618 340.639C466.577 334.418 469.028 312.458 459.084 291.693ZM410.942 269.889L418.112 266.45C430.426 260.539 448.372 272.085 457.933 292.234C467.494 312.383 465.394 333.533 453.05 339.37L445.872 342.791L444.934 340.837L444.562 340.819C433.163 339.906 420.559 328.965 413.185 313.583C405.811 298.201 405.18 281.511 411.613 272.082L411.83 271.778L410.942 269.889Z" fill="#171753"/>
<path d="M445.654 343.719C458.316 337.664 460.591 316.055 450.817 295.651C441.044 275.246 422.793 263.483 410.123 269.519C397.453 275.556 395.185 297.183 404.959 317.588C414.733 337.992 432.944 349.815 445.654 343.719Z" fill="#FFEE81"/>
<path d="M406.753 316.731C396.944 296.253 399.252 274.737 411.908 268.674C424.565 262.612 442.777 274.297 452.587 294.775C462.396 315.253 460.088 336.769 447.432 342.831C434.775 348.894 416.563 337.209 406.753 316.731Z" fill="#FFEE81"/>
<path d="M451.426 295.355C441.474 274.573 422.883 262.714 409.861 268.939C396.84 275.164 394.443 297.102 404.34 317.908C414.236 338.713 432.89 350.567 445.904 344.324C458.919 338.08 461.304 316.168 451.426 295.355ZM405.583 317.329C395.941 297.192 398.122 276.03 410.448 270.201C422.773 264.371 440.708 275.835 450.276 296.003C459.844 316.171 457.737 337.301 445.393 343.139C433.049 348.976 415.144 337.478 405.51 317.359L405.583 317.329Z" fill="#171753"/>
<path d="M409.566 315.383C401.732 299.028 403.1 282.073 412.622 277.511C422.144 272.95 436.215 282.51 444.049 298.865C451.883 315.219 450.515 332.175 440.993 336.737C431.471 341.298 417.401 331.738 409.566 315.383Z" fill="#ECFFFE"/>
<path d="M444.651 298.609C436.658 281.937 422.177 272.223 412.333 276.94C402.49 281.657 400.999 299.031 409.022 315.67C417.044 332.31 431.426 342.043 441.284 337.362C451.143 332.682 452.619 315.271 444.651 298.609ZM410.116 315.045C402.466 299.047 403.698 282.446 412.877 278.047C422.057 273.648 435.765 283.101 443.433 299.092C451.101 315.083 449.859 331.709 440.68 336.109C431.5 340.508 417.823 331.128 410.184 315.104L410.116 315.045Z" fill="#171753"/>
<path d="M409.557 315.406C401.718 299.055 403.1 282.092 412.651 277.603C413.503 277.206 414.403 276.921 415.328 276.753C408.005 282.834 407.485 298.195 414.609 313.079C421.734 327.963 434.064 337.255 443.372 335.295C442.656 335.904 441.868 336.425 441.027 336.845C431.477 341.334 417.403 331.774 409.557 315.406Z" fill="#FFE850"/>
<path d="M444.407 334.266L443.202 334.571C434.088 336.43 422.033 327.023 415.169 312.719C408.306 298.414 408.554 283.123 415.717 277.173L416.871 276.223L415.158 276.029C414.18 276.207 413.23 276.513 412.333 276.94C402.509 281.649 400.999 299.031 409.021 315.67C417.044 332.309 431.426 342.043 441.284 337.362C442.172 336.913 443.003 336.36 443.761 335.715L444.407 334.266ZM410.183 315.103C402.533 299.105 403.765 282.504 412.944 278.105L413.036 278.067C407.168 285.329 407.434 299.527 414.026 313.278C420.617 327.029 431.511 336.121 440.849 336.103L440.739 336.149C431.475 340.604 417.823 331.128 410.183 315.103Z" fill="#171753"/>
<path d="M407.59 310.29L412.466 307.951L410.075 298.95L409.672 289.149L412.003 280.815L415.291 276.662L410.824 278.381L406.883 283.342L404.846 289.791L404.702 298.896L406.925 308.89L407.59 310.29Z" fill="#171753"/>
<path d="M452.615 299.891L460.486 296.119L463.252 305.609L464.822 315.272L463.441 326.735L459.3 335.366L455.46 339.017L449.252 341.822L455.102 333.945L456.768 322.965L455.318 308.398L452.615 299.891Z" fill="#171753"/>
<path d="M444.492 317.83C444.526 317.473 444.541 317.099 444.544 316.716C444.544 309.945 439.893 299.589 433.767 296.066C433.341 295.821 432.897 295.606 432.441 295.423C431.671 294.434 430.924 293.403 430.182 292.414C429.897 292.02 429.525 291.445 429.152 291.231C428.471 290.84 427.866 291.393 428.259 292.328C428.148 292.195 428.015 292.082 427.866 291.993C427.164 291.586 426.608 292.299 427.164 293.343C427.08 293.24 426.979 293.152 426.865 293.082C426.417 292.821 426.055 293.173 426.102 293.714C426.15 294.254 426.585 295.076 426.889 295.684C425.424 296.582 424.355 298.104 423.461 299.759C422.654 301.265 421.96 302.868 421.237 304.458C420.862 305.267 420.189 307.546 418.952 306.838C418.712 306.689 418.503 306.497 418.333 306.272C417.076 304.706 416.423 302.017 416.253 300.375C416.172 299.475 416.145 298.287 416.719 297.95C417.076 297.76 417.6 297.919 418.176 298.248C419.649 299.096 421.444 301.069 421.507 301.119C420.545 299.83 418.349 296.958 416.732 296.029C415.899 295.549 415.221 295.588 414.945 296.624C414.843 297.052 414.793 297.49 414.796 297.929C414.839 299.402 415.09 300.862 415.543 302.265C416.067 304.006 416.795 305.919 417.967 307.439C418.278 307.873 418.669 308.244 419.119 308.532C420.954 309.576 421.858 306.509 422.539 305.272C423.721 303.061 425.018 300.882 426.889 299.592C427.588 299.105 428.399 298.802 429.248 298.71C430.096 298.619 430.954 298.743 431.741 299.07C432.121 299.212 432.487 299.387 432.837 299.592C433.346 299.888 433.824 300.233 434.265 300.623C436.61 302.664 438.669 305.951 439.924 309.007C441.122 311.928 441.916 315.343 441.562 317.768C441.418 318.9 441.038 320.031 440.063 320.117C439.5 320.195 438.821 319.947 438.14 319.556C437.524 319.188 436.94 318.769 436.395 318.303C434.979 317.056 433.639 315.726 432.383 314.319C431.126 312.97 425.977 306.984 424.688 305.324C426.946 308.561 429.176 311.816 431.637 314.841C431.437 314.978 431.254 315.138 431.091 315.317C430.908 315.523 431.091 316.1 431.372 316.272C431.407 316.293 431.446 316.307 431.487 316.312C431.527 316.317 431.569 316.313 431.608 316.301C431.539 316.496 431.538 316.709 431.605 316.905C431.672 317.101 431.803 317.268 431.977 317.381C432.014 317.403 432.052 317.42 432.092 317.434C431.909 317.718 432.192 318.271 432.517 318.457C432.594 318.507 432.687 318.529 432.779 318.517L434.532 318.115C435.671 319.324 436.966 320.378 438.384 321.247C439.385 321.824 440.378 322.174 441.295 322.161C442.846 322.101 443.795 320.939 444.232 319.318C444.367 318.83 444.455 318.33 444.494 317.825L444.492 317.83ZM435.163 308.167C435.194 308.7 435.35 309.218 435.618 309.681C435.886 310.143 436.259 310.536 436.707 310.829C437.566 311.323 438.255 310.931 438.258 309.947C438.231 309.413 438.078 308.894 437.81 308.431C437.542 307.968 437.167 307.575 436.717 307.285C435.855 306.791 435.166 307.183 435.163 308.167Z" fill="#171753"/>
<defs>
<clipPath id="clip0_3155_3701">
<rect width="115" height="24" fill="white" transform="translate(141.941 270.968) rotate(150)"/>
</clipPath>
</defs>
</svg>
