<svg width="463" height="405" viewBox="0 0 463 405" fill="none" xmlns="http://www.w3.org/2000/svg">
<path d="M71.5669 118.007L71.5669 118.007L71.5756 118.002L264.611 5.82445C264.611 5.82442 264.611 5.8244 264.611 5.82437C267.098 4.38014 269.222 4.30832 270.674 5.11358C272.119 5.91474 273.152 7.72512 273.152 10.6056L273.152 10.6091L273.827 149.476C273.827 149.476 273.827 149.476 273.827 149.476C273.827 152.362 272.821 155.618 271.157 158.536C269.493 161.455 267.21 163.966 264.73 165.407L264.73 165.407L71.6937 277.584C69.2072 279.029 67.0833 279.1 65.6308 278.295C64.1857 277.494 63.1532 275.684 63.1532 272.803L63.1532 272.799L62.3087 133.933C62.3087 133.932 62.3087 133.932 62.3087 133.931C62.3092 131.046 63.3156 127.791 64.9985 124.876C66.6819 121.96 69.0041 119.449 71.5669 118.007Z" fill="#F5F5F5" stroke="#171753" stroke-width="1.4456"/>
<path d="M247.943 183.468H253.517V175.866H247.943V183.468Z" fill="#F5F5F5"/>
<path d="M286.287 176.842L422.814 246.901V259.111C422.649 260.892 421.514 262.7 419.02 264.197C419.02 264.197 419.02 264.197 419.02 264.197L225.818 376.373C223.235 377.873 219.807 378.629 216.368 378.65C212.93 378.671 209.502 377.957 206.919 376.541C206.919 376.541 206.918 376.54 206.917 376.54L74.3485 300.013C74.3481 300.013 74.3477 300.012 74.3472 300.012C71.8547 298.516 70.7195 296.708 70.5547 294.927V282.79H75.0792V288.178V288.502L75.3595 288.339L267.382 176.838C269.964 175.338 273.392 174.582 276.83 174.582C280.269 174.582 283.696 175.338 286.279 176.838L286.278 176.838L286.287 176.842Z" fill="#171753" stroke="#171753" stroke-width="0.373183"/>
<path d="M251.927 177.39L249.337 175.977L267.651 165.303C270.131 163.863 273.46 163.12 276.83 163.12C280.2 163.12 283.528 163.863 286.008 165.303L286.01 165.304L418.585 241.835L418.592 241.839L418.599 241.843C421.069 243.198 422.15 244.978 422.15 246.636C422.15 248.3 421.063 250.125 418.584 251.565L225.379 363.742L225.371 363.747L225.364 363.751C222.886 365.27 219.562 366.053 216.195 366.073C212.829 366.094 209.501 365.352 207.021 363.911L207.019 363.91L74.4459 287.381C74.4457 287.381 74.4455 287.381 74.4453 287.38C71.9662 285.94 70.8791 284.116 70.8791 282.452C70.8791 280.793 71.9599 279.014 74.4305 277.658L74.4386 277.654L74.4465 277.649L108.03 258.094L110.875 259.742L111.237 259.952L111.599 259.743L251.943 178.651L253.057 178.007L251.927 177.39Z" fill="#F5F5F5" stroke="#171753" stroke-width="1.4456"/>
<path d="M267.12 2.15939C266.275 1.65256 265.262 1.14574 264.418 0.63891C262.729 -0.374741 260.196 -0.205799 257.662 1.31468L64.4576 113.492C59.2221 116.533 55 123.966 55 130.048L55.6755 268.75C55.6755 271.79 56.6889 273.818 58.5466 274.831C60.911 276.183 63.1065 277.535 65.302 278.717C63.6131 277.703 62.5998 275.676 62.5998 272.635L61.7554 134.103C61.7554 128.021 65.9775 120.588 71.213 117.547L264.418 5.20034C267.12 3.67986 269.484 3.51092 271.173 4.52457C271.004 4.35563 268.133 2.66621 267.12 2.15939Z" fill="#171753"/>
<path d="M269.652 202.528L283.163 210.299L269.315 218.408L255.804 210.637L269.652 202.528Z" fill="#171753"/>
<path d="M291.1 209.114L304.441 216.716L290.593 224.825L277.251 217.223L291.1 209.114Z" fill="#171753"/>
<path d="M310.353 198.812L325.89 207.766L334.841 212.834L339.401 215.538L315.926 229.053L302.584 221.45L309.677 217.227L294.309 208.273L310.353 198.812Z" fill="#171753"/>
<path d="M275.562 218.235L288.904 225.838L275.056 233.947L261.714 226.344L275.562 218.235Z" fill="#171753"/>
<path d="M342.443 217.226L355.785 224.998L327.243 241.723L313.901 233.952L342.443 217.226Z" fill="#171753"/>
<path d="M312.55 234.797L325.892 242.399L304.274 255.07L290.764 247.299L312.55 234.797Z" fill="#171753"/>
<path d="M269.822 240.539L283.164 248.31L269.316 256.42L255.974 248.648L269.822 240.539Z" fill="#171753"/>
<path d="M276.746 179.383L290.088 187.155L276.239 195.264L262.729 187.492L276.746 179.383Z" fill="#171753"/>
<path d="M260.194 189.011L273.536 196.783L259.688 204.892L246.346 197.121L260.194 189.011Z" fill="#171753"/>
<path d="M293.125 188.843L306.467 196.615L285.019 209.116L271.677 201.514L293.125 188.843Z" fill="#171753"/>
<path d="M243.644 198.644L257.155 206.416L243.307 214.525L229.796 206.754L243.644 198.644Z" fill="#171753"/>
<path d="M227.262 208.443L240.604 216.045L226.755 224.155L213.413 216.552L227.262 208.443Z" fill="#171753"/>
<path d="M253.946 211.818L267.288 219.42L253.44 227.529L240.098 219.758L253.946 211.818Z" fill="#171753"/>
<path d="M210.709 218.067L224.22 225.67L210.202 233.779L196.86 226.008L210.709 218.067Z" fill="#171753"/>
<path d="M238.241 220.94L251.583 228.711L237.735 236.82L224.393 229.049L238.241 220.94Z" fill="#171753"/>
<path d="M300.727 222.46L314.238 230.231L300.39 238.341L286.879 230.569L300.727 222.46Z" fill="#171753"/>
<path d="M194.16 227.533L207.671 235.304L193.822 243.414L180.312 235.811L194.16 227.533Z" fill="#171753"/>
<path d="M259.857 227.363L273.368 234.965L259.52 243.074L246.178 235.303L259.857 227.363Z" fill="#171753"/>
<path d="M222.364 230.235L235.875 237.837L222.026 245.946L208.516 238.344L222.364 230.235Z" fill="#171753"/>
<path d="M285.188 231.587L298.53 239.358L284.851 247.298L271.34 239.696L285.188 231.587Z" fill="#171753"/>
<path d="M244.32 236.314L257.831 244.086L243.982 252.195L230.472 244.423L244.32 236.314Z" fill="#171753"/>
<path d="M177.778 237.329L191.12 244.931L177.272 253.04L163.93 245.438L177.778 237.329Z" fill="#171753"/>
<path d="M206.657 239.357L219.999 247.128L206.151 255.238L192.809 247.466L206.657 239.357Z" fill="#171753"/>
<path d="M228.781 245.437L242.123 253.208L228.275 261.317L214.933 253.546L228.781 245.437Z" fill="#171753"/>
<path d="M161.227 246.959L174.568 254.561L160.72 262.671L147.378 255.068L161.227 246.959Z" fill="#171753"/>
<path d="M190.952 248.647L204.294 256.249L190.445 264.358L176.935 256.756L190.952 248.647Z" fill="#171753"/>
<path d="M253.608 249.999L267.119 257.602L253.271 265.711L239.76 258.108L253.608 249.999Z" fill="#171753"/>
<path d="M213.244 254.562L226.586 262.333L212.737 270.442L199.227 262.671L213.244 254.562Z" fill="#171753"/>
<path d="M144.678 256.589L158.189 264.192L144.34 272.301L130.829 264.699L144.678 256.589Z" fill="#171753"/>
<path d="M175.077 257.769L188.588 265.54L174.739 273.649L161.229 265.878L175.077 257.769Z" fill="#171753"/>
<path d="M238.241 258.953L251.752 266.724L237.903 274.834L224.393 267.062L238.241 258.953Z" fill="#171753"/>
<path d="M197.538 263.684L211.049 271.455L197.2 279.564L183.689 271.793L197.538 263.684Z" fill="#171753"/>
<path d="M222.701 268.076L236.043 275.847L222.194 283.787L208.853 276.185L222.701 268.076Z" fill="#171753"/>
<path d="M122.047 269.763L135.389 277.534L121.54 285.644L108.198 277.872L122.047 269.763Z" fill="#171753"/>
<path d="M181.999 272.806L195.51 280.577L181.661 288.686L168.15 280.915L181.999 272.806Z" fill="#171753"/>
<path d="M289.413 248.144L302.924 255.915L241.956 291.393L228.614 283.791L289.413 248.144Z" fill="#171753"/>
<path d="M207.334 277.033L220.676 284.804L206.827 292.913L193.316 285.142L207.334 277.033Z" fill="#171753"/>
<path d="M158.694 267.397L172.036 275.168L137.921 295.103L124.579 287.332L158.694 267.397Z" fill="#171753"/>
<path d="M166.463 281.93L179.805 289.702L154.472 304.568L140.961 296.797L166.463 281.93Z" fill="#171753"/>
<path d="M226.586 284.969L240.097 292.572L218.311 305.242L204.969 297.471L226.586 284.969Z" fill="#171753"/>
<path d="M191.458 286.322L204.968 293.924L170.854 313.859L157.343 306.257L191.458 286.322Z" fill="#171753"/>
<path d="M203.28 298.657L216.622 306.26L187.235 323.492L173.894 315.72L203.28 298.657Z" fill="#171753"/>
<path d="M269.315 298.145C269.99 299.497 271.172 300.679 273.03 301.862L285.021 308.957C290.256 311.998 298.194 312.336 302.754 309.633L333.998 291.556C335.18 290.881 336.024 290.036 336.531 289.191C337.882 286.657 336.531 283.616 332.815 281.42L320.825 274.324C315.589 271.283 307.651 270.945 303.092 273.649L271.848 291.556C268.808 293.246 268.132 295.78 269.315 298.145Z" fill="#171753"/>
<path d="M269.314 298.145C269.99 299.497 271.172 300.68 273.03 301.862L285.021 308.958C290.256 311.999 298.194 312.337 302.754 309.633L333.997 291.557C335.18 290.881 336.024 290.036 336.531 289.192C335.855 287.84 334.673 286.657 332.815 285.475L320.824 278.379C315.589 275.338 307.651 275 303.091 277.703L271.848 295.611C270.666 296.456 269.821 297.301 269.314 298.145Z" fill="#5ED9D1"/>
<path d="M264.417 154.208L74.7588 265.71V136.469L264.417 24.9675V154.208Z" fill="#5ED9D1"/>
<g style="mix-blend-mode:multiply">
<path d="M261.208 26.8259V152.35L74.7588 261.993V265.71L264.417 154.208V24.9675L261.208 26.8259Z" fill="#353570"/>
</g>
<path d="M8.45868 311.446C12.5608 306.374 16.9042 307.34 28.2454 304.925C37.8975 302.751 48.0322 302.751 57.443 305.408C66.8537 307.823 72.645 309.514 76.7471 313.862L81.8145 316.519V327.146V327.388C81.5732 334.392 75.7819 341.155 64.1994 345.986C52.6169 350.817 40.0692 351.541 28.0041 348.643C10.8717 344.537 2.42611 336.083 2.18481 327.388V326.905V316.76L8.45868 311.446Z" fill="#171753"/>
<path d="M42.2405 351.3C49.9622 351.3 57.6838 349.851 64.6816 346.952C76.2641 342.121 82.7792 335.117 83.0205 327.146V315.553L77.4706 312.654C73.1271 307.823 66.612 306.133 57.6838 303.959C48.0317 301.543 37.6558 301.302 27.7624 303.476C24.6255 304.2 21.9711 304.683 19.7994 304.925C14.0082 305.891 10.63 306.374 7.25172 310.48L0.253967 315.794V327.146C0.49527 337.291 10.6299 345.745 27.2798 349.851C32.3471 350.817 37.1732 351.3 42.2405 351.3ZM80.1249 317.243V326.905C79.8836 333.909 74.0923 339.948 63.475 344.295C52.6165 348.884 40.0688 349.609 28.0037 346.711C13.043 343.088 3.63219 335.358 3.39088 326.905V326.422V317.243L9.42343 312.413C12.0778 309.273 14.7321 308.79 20.282 307.823C22.695 307.34 25.1081 307.099 28.4863 306.374C37.8971 304.2 47.7904 304.442 57.2012 306.857C66.8533 309.273 72.1619 310.963 75.7815 314.828L76.2641 315.069L80.1249 317.243Z" fill="#171753"/>
<path d="M13.5258 300.094C-2.15882 309.031 -2.15882 323.764 13.5258 332.701C29.2104 341.638 54.3058 341.638 69.9904 332.701C85.6751 323.764 85.6751 309.031 69.9904 300.094C54.5471 290.915 29.2104 290.915 13.5258 300.094Z" fill="white"/>
<path d="M41.7579 340.913C52.1339 340.913 62.7511 338.498 70.7141 333.909C78.6771 329.319 83.0205 323.04 83.0205 316.277C83.0205 309.514 78.6771 303.234 70.7141 298.644C54.7882 289.466 28.7276 289.466 12.8017 298.644C4.83869 303.234 0.495255 309.514 0.495255 316.277C0.495255 323.04 4.83869 329.319 12.8017 333.909C20.7646 338.498 31.3819 340.913 41.7579 340.913ZM41.7579 294.78C51.6513 294.78 61.5446 296.954 69.2663 301.301C76.2641 305.407 80.1249 310.721 80.1249 316.277C80.1249 321.832 76.2641 327.146 69.2663 331.252C54.0643 339.947 29.4515 339.947 14.2495 331.252C7.2517 327.146 3.39088 321.832 3.39088 316.277C3.39088 310.721 7.2517 305.407 14.2495 301.301C21.9711 296.954 31.8645 294.78 41.7579 294.78Z" fill="#171753"/>
<path d="M22.2123 306.373C33.0709 300.818 50.686 300.818 61.5445 306.373C72.4031 311.928 72.4031 320.865 61.5445 326.179C50.686 331.734 33.0709 331.734 22.2123 326.179C11.3538 320.624 11.3538 311.928 22.2123 306.373Z" fill="#171753"/>
<path d="M41.7575 331.735C49.2379 331.735 56.477 330.286 62.0269 327.387C67.8182 324.489 70.9551 320.383 70.9551 316.035C70.9551 311.688 67.8182 307.582 62.0269 304.683C50.6857 299.128 32.5881 299.128 21.2469 304.683C15.4556 307.582 12.3187 311.688 12.3187 316.035C12.3187 320.383 15.4556 324.489 21.2469 327.387C27.0381 330.286 34.5185 331.735 41.7575 331.735ZM41.7575 303.717C48.7553 303.717 55.5118 304.925 60.8204 307.582C65.6464 309.997 68.0595 313.137 68.0595 316.277C68.0595 319.417 65.4051 322.557 60.8204 324.972C50.4444 330.286 33.312 330.286 22.6947 324.972C17.8687 322.557 15.4556 319.417 15.4556 316.277C15.4556 313.137 18.11 309.997 22.6947 307.582C28.0033 304.925 35.0011 303.717 41.7575 303.717Z" fill="#171753"/>
<path d="M22.2109 312.413C33.0695 306.858 50.6845 306.858 61.5431 312.413C65.4039 314.345 68.0582 316.761 69.0234 319.417C67.8169 322.074 65.4039 324.49 61.5431 326.422C50.6845 331.977 33.0695 331.977 22.2109 326.422C18.35 324.49 15.6957 322.074 14.7305 319.417C15.6957 316.761 18.1087 314.345 22.2109 312.413Z" fill="#FFE850"/>
<path d="M41.7577 331.735C49.2381 331.735 56.4771 330.286 62.0271 327.388C66.1292 325.214 69.0248 322.557 70.2314 319.658L70.4727 319.175L70.2314 318.692C69.0248 315.794 66.1292 313.137 62.0271 310.963C50.6859 305.408 32.5883 305.408 21.2471 310.963C17.1449 313.137 14.2493 315.794 13.0428 318.692L12.8015 319.175L13.0428 319.658C14.2493 322.557 17.1449 325.214 21.2471 327.388C27.0383 330.286 34.5187 331.735 41.7577 331.735ZM67.3357 319.175C66.1292 321.349 63.9575 323.281 60.8206 324.731C50.4446 330.045 33.3122 330.045 22.6949 324.731C19.5579 323.04 17.3862 321.108 16.1797 319.175C17.3862 317.002 19.5579 315.069 22.6949 313.62C33.0709 308.306 50.2033 308.306 60.8206 313.62C63.9575 315.311 66.3705 317.243 67.3357 319.175Z" fill="#171753"/>
<path d="M13.5255 333.668H15.6973V342.363H13.5255V333.668Z" fill="#FFE850"/>
<path d="M74.8175 328.836H76.9893V337.531H74.8175V328.836Z" fill="#FFE850"/>
<path d="M37.172 302.508H39.3438V308.064H37.172V302.508Z" fill="#FFE850"/>
<path d="M23.4191 337.532H25.5908V346.227H23.4191V337.532Z" fill="#FFE850"/>
<path d="M25.8317 281.738C29.9339 276.666 34.2773 277.632 45.6185 275.216C55.2706 273.043 65.4052 273.043 74.816 275.7C84.2268 278.115 90.018 279.806 94.1202 284.153L99.1875 286.81V297.438V297.679C98.9462 304.684 93.1549 311.447 81.5725 316.278C69.99 321.108 57.4423 321.833 45.3772 318.935C28.2447 314.828 19.7992 306.375 19.5579 297.679V297.196V287.052L25.8317 281.738Z" fill="#171753"/>
<path d="M59.6135 321.833C67.3352 321.833 75.0569 320.384 82.0546 317.485C93.6371 312.654 100.152 305.65 100.394 297.679V286.085L94.8436 283.187C90.5002 278.356 83.985 276.666 75.0569 274.492C65.4048 272.076 55.0288 271.835 45.1354 274.009C41.9985 274.733 39.3442 275.216 37.1725 275.458C31.3812 276.424 28.003 276.907 24.6248 281.013L17.627 286.327V297.679C17.8683 307.824 28.003 316.277 44.6528 320.384C49.7202 321.108 54.7875 321.833 59.6135 321.833ZM97.7392 287.535V297.196C97.4979 304.201 91.7067 310.239 81.0894 314.587C70.2308 319.176 57.6831 319.901 45.618 317.002C30.6573 313.379 21.2465 305.65 21.0052 297.196V296.713V287.535L27.0378 282.704C29.6921 279.564 32.3464 279.081 37.8964 278.115C40.3094 277.632 42.7224 277.39 46.1006 276.666C55.5114 274.492 65.4048 274.733 74.8156 277.149C84.4676 279.564 89.7763 281.255 93.3958 285.119L93.8784 285.361L97.7392 287.535Z" fill="#171753"/>
<path d="M59.1315 309.514C37.1424 309.514 19.3167 299.241 19.3167 286.568C19.3167 273.895 37.1424 263.622 59.1315 263.622C81.1206 263.622 98.9463 273.895 98.9463 286.568C98.9463 299.241 81.1206 309.514 59.1315 309.514Z" fill="white"/>
<path d="M59.1309 311.205C69.5069 311.205 80.1242 308.789 88.0872 304.2C96.0501 299.611 100.394 293.331 100.394 286.568C100.394 279.805 96.0501 273.525 88.0872 268.936C72.1612 259.758 46.1006 259.758 30.1747 268.936C22.2118 273.525 17.8683 279.805 17.8683 286.568C17.8683 293.331 22.2118 299.611 30.1747 304.2C38.379 308.789 48.7549 311.205 59.1309 311.205ZM59.1309 265.071C69.0243 265.071 78.9177 267.245 86.6393 271.593C93.6371 275.699 97.4979 281.013 97.4979 286.568C97.4979 292.123 93.6371 297.437 86.6393 301.543C71.4373 310.239 46.8245 310.239 31.6225 301.543C24.6248 297.437 20.7639 292.123 20.7639 286.568C20.7639 281.013 24.6248 275.699 31.6225 271.593C39.3442 267.245 49.2376 265.071 59.1309 265.071Z" fill="#171753"/>
<path d="M39.5863 276.665C50.4449 271.109 68.06 271.109 78.9186 276.665C89.7771 282.22 89.7771 291.157 78.9186 296.471C68.06 302.026 50.4449 302.026 39.5863 296.471C28.7278 291.157 28.7278 282.22 39.5863 276.665Z" fill="#171753"/>
<path d="M59.1316 302.267C66.6119 302.267 73.851 300.818 79.4009 297.92C85.1922 295.021 88.3291 290.915 88.3291 286.568C88.3291 282.22 85.1922 278.114 79.4009 275.215C68.0597 269.66 49.9621 269.66 38.6209 275.215C32.8297 278.114 29.6927 282.22 29.6927 286.568C29.6927 290.915 32.8297 295.021 38.6209 297.92C44.4122 300.818 51.8925 302.267 59.1316 302.267ZM59.1316 274.008C66.1293 274.008 72.8858 275.215 78.1944 277.872C83.0205 280.288 85.4335 283.428 85.4335 286.568C85.4335 289.707 82.7792 292.847 78.1944 295.263C67.8184 300.577 50.686 300.577 40.0687 295.263C35.2427 292.847 32.8297 289.707 32.8297 286.568C32.8297 283.428 35.484 280.288 40.0687 277.872C45.3774 275.457 52.3751 274.008 59.1316 274.008Z" fill="#171753"/>
<path d="M39.5859 282.703C50.4445 277.148 68.0595 277.148 78.9181 282.703C82.7789 284.636 85.4332 287.051 86.3984 289.708C85.1919 292.365 82.7789 294.78 78.9181 296.712C68.0595 302.268 50.4445 302.268 39.5859 296.712C35.725 294.78 33.0707 292.365 32.1055 289.708C33.0707 287.051 35.725 284.636 39.5859 282.703Z" fill="#FFE850"/>
<path d="M59.1318 302.268C66.6121 302.268 73.8512 300.819 79.4011 297.92C83.5032 295.747 86.3989 293.09 87.6054 290.191L87.8467 289.708L87.6054 289.225C86.3989 286.327 83.5032 283.67 79.4011 281.496C68.0599 275.941 49.9623 275.941 38.6211 281.496C34.519 283.67 31.6233 286.327 30.4168 289.225L30.1755 289.708L30.4168 290.191C31.6233 293.09 34.519 295.747 38.6211 297.92C44.4123 300.819 51.8927 302.268 59.1318 302.268ZM84.7098 289.708C83.5032 291.882 81.3315 293.814 78.1946 295.264C67.8186 300.577 50.6862 300.577 40.0689 295.264C36.932 293.573 34.7603 291.641 33.5537 289.708C34.7603 287.534 36.932 285.602 40.0689 284.153C50.4449 278.839 67.5773 278.839 78.1946 284.153C81.3315 285.602 83.7445 287.534 84.7098 289.708Z" fill="#171753"/>
<path d="M30.8996 303.958H33.0713V312.653H30.8996V303.958Z" fill="#FFE850"/>
<path d="M92.1896 299.369H94.3613V308.064H92.1896V299.369Z" fill="#FFE850"/>
<path d="M54.5461 273.041H56.7178V278.597H54.5461V273.041Z" fill="#FFE850"/>
<path d="M40.7931 308.065H42.9648V316.76H40.7931V308.065Z" fill="#FFE850"/>
<path d="M11.3542 254.686C15.4563 249.613 19.7997 250.579 31.1409 248.164C40.793 245.99 50.9277 245.99 60.3385 248.647C69.7492 251.063 75.5405 252.753 79.6426 257.101L84.71 259.758V270.385V270.627C84.4687 277.632 78.6774 284.395 67.0949 289.225C55.5124 294.056 42.9647 294.781 30.8996 291.882C13.7672 287.776 5.32165 279.322 5.08035 270.627V270.144V259.999L11.3542 254.686Z" fill="#171753"/>
<path d="M45.137 294.78C52.8586 294.78 60.5803 293.331 67.578 290.433C79.1605 285.602 85.6757 278.598 85.917 270.627V259.033L80.367 256.135C76.0236 251.304 69.5085 249.613 60.5803 247.439C50.9282 245.024 40.5522 244.782 30.6589 246.956C27.5219 247.681 24.8676 248.164 22.6959 248.406C16.9047 249.372 13.5264 249.855 10.1482 253.961L3.15045 259.275V270.627C3.39175 280.771 13.5264 289.225 30.1763 293.331C35.2436 294.056 40.0696 294.78 45.137 294.78ZM83.0214 260.482V270.144C82.7801 277.148 76.9888 283.187 66.3715 287.534C55.513 292.124 42.9653 292.848 30.9002 289.95C15.9395 286.327 6.52869 278.598 6.28738 270.144V269.661V260.482L12.3199 255.652C14.9743 252.512 17.6286 252.029 23.1785 251.062C25.5915 250.579 28.0046 250.338 31.3828 249.613C40.7936 247.439 50.6869 247.681 60.0977 250.096C69.7498 252.512 75.0584 254.202 78.6779 258.067L79.1605 258.308L83.0214 260.482Z" fill="#171753"/>
<path d="M44.6549 282.704C22.6658 282.704 4.84012 272.43 4.84012 259.758C4.84012 247.085 22.6658 236.812 44.6549 236.812C66.644 236.812 84.4697 247.085 84.4697 259.758C84.4697 272.43 66.644 282.704 44.6549 282.704Z" fill="white"/>
<path d="M44.6544 284.152C55.0303 284.152 65.6476 281.737 73.6106 277.148C81.5736 272.559 85.917 266.279 85.917 259.516C85.917 252.753 81.5736 246.473 73.6106 241.884C57.6847 232.705 31.6241 232.705 15.6982 241.884C7.73519 246.473 3.39174 252.753 3.39174 259.516C3.39174 266.279 7.73519 272.559 15.6982 277.148C23.6611 281.979 34.2784 284.152 44.6544 284.152ZM44.6544 238.019C54.5477 238.019 64.4411 240.193 72.1628 244.54C79.1605 248.647 83.0214 253.96 83.0214 259.516C83.0214 265.071 79.1605 270.385 72.1628 274.491C56.9608 283.186 32.348 283.186 17.146 274.491C10.1482 270.385 6.28738 265.071 6.28738 259.516C6.28738 253.96 10.1482 248.647 17.146 244.54C24.8676 240.193 34.761 238.019 44.6544 238.019Z" fill="#171753"/>
<path d="M44.6536 273.766C29.3279 273.766 16.9039 267.494 16.9039 259.757C16.9039 252.02 29.3279 245.748 44.6536 245.748C59.9793 245.748 72.4033 252.02 72.4033 259.757C72.4033 267.494 59.9793 273.766 44.6536 273.766Z" fill="#171753"/>
<path d="M44.654 275.215C52.1344 275.215 59.3734 273.766 64.9234 270.867C70.7146 267.969 73.8516 263.863 73.8516 259.515C73.8516 255.167 70.7146 251.061 64.9234 248.163C53.5822 242.608 35.4846 242.608 24.1434 248.163C18.3521 251.061 15.2152 255.167 15.2152 259.515C15.2152 263.863 18.3521 267.969 24.1434 270.867C29.9346 273.766 37.415 275.215 44.654 275.215ZM44.654 247.197C51.6518 247.197 58.4082 248.404 63.7169 251.061C68.5429 253.477 70.9559 256.617 70.9559 259.757C70.9559 262.897 68.3016 266.037 63.7169 268.452C53.3409 273.766 36.2085 273.766 25.5912 268.452C20.7651 266.037 18.3521 262.897 18.3521 259.757C18.3521 256.617 21.0064 253.477 25.5912 251.061C30.8998 248.404 37.8976 247.197 44.654 247.197Z" fill="#171753"/>
<path d="M25.1093 255.651C35.9679 250.096 53.5829 250.096 64.4415 255.651C68.3024 257.583 70.9567 259.999 71.9219 262.656C70.7154 265.313 68.3024 267.728 64.4415 269.66C53.5829 275.216 35.9679 275.216 25.1093 269.66C21.2485 267.728 18.5942 265.313 17.629 262.656C18.5942 259.999 21.0072 257.583 25.1093 255.651Z" fill="#FFEE81"/>
<path d="M44.6532 275.216C52.1336 275.216 59.3727 273.767 64.9226 270.868C69.0247 268.694 71.9203 266.038 73.1269 263.139L73.3682 262.656L73.1269 262.173C71.9203 259.275 69.0247 256.618 64.9226 254.444C53.5814 248.889 35.4838 248.889 24.1426 254.444C20.0405 256.618 17.1448 259.275 15.9383 262.173L15.697 262.656L15.9383 263.139C17.1448 266.038 20.0405 268.694 24.1426 270.868C29.9338 273.767 37.4142 275.216 44.6532 275.216ZM70.2312 262.656C69.0247 264.83 66.853 266.762 63.7161 268.211C53.3401 273.525 36.2077 273.525 25.5904 268.211C22.4535 266.521 20.2817 264.588 19.0752 262.656C20.2817 260.482 22.4535 258.55 25.5904 257.101C35.9664 251.787 53.0988 251.787 63.7161 257.101C66.853 258.55 69.266 260.482 70.2312 262.656Z" fill="#171753"/>
<path d="M16.4211 277.148H18.5928V285.843H16.4211V277.148Z" fill="#FFE850"/>
<path d="M77.7121 272.318H79.8838V281.013H77.7121V272.318Z" fill="#FFE850"/>
<path d="M40.0685 245.99H42.2402V251.545H40.0685V245.99Z" fill="#FFE850"/>
<path d="M26.3146 281.012H28.4863V289.708H26.3146V281.012Z" fill="#FFE850"/>
<path d="M64.991 286.592C64.4985 286.1 64.5976 285.446 65.2141 285.122C65.8305 284.798 66.7177 284.932 67.2102 285.425C67.7027 285.917 67.6035 286.571 66.9871 286.895C66.3706 287.219 65.467 287.068 64.991 286.592Z" fill="#171753"/>
<path d="M73.8412 285.218C74.0792 285.519 74.3172 285.82 74.4771 286.137C75.1046 287.234 75.2802 288.445 74.6467 289.505C73.7499 290.929 71.7119 291.65 69.7152 291.974C69.1677 293.339 69.1677 293.339 69.1677 293.339C69.0277 293.639 68.4116 293.587 68.3298 293.254C68.0297 293.487 67.6643 293.279 67.5536 293.011C67.4465 293.343 66.8716 293.144 66.839 292.861C66.8104 292.676 66.8271 292.441 66.8354 292.262C64.2639 292.387 61.6762 292.245 59.0843 292.131C60.4686 292.104 65.6776 291.668 66.8936 291.504C68.1672 291.335 69.4407 291.166 70.6076 290.828C71.5773 290.543 72.7073 290.074 73.09 289.297C73.4603 288.601 73.0544 287.787 72.5497 287.126C71.483 285.683 69.4302 284.508 67.4508 283.846C65.3812 283.156 62.8511 282.883 60.8214 283.425C60.0736 283.618 59.4571 283.942 58.9639 284.327C57.8088 285.211 57.2531 286.505 57.1493 287.812C56.9956 289.697 57.532 291.645 58.1342 293.532C58.5274 294.804 60.09 297.589 57.2638 297.648C55.9945 297.665 54.7215 297.207 53.6293 296.679C52.4468 296.124 51.1249 295.241 50.5548 294.263C49.3736 292.204 54.0154 292.142 55.6215 292.149C55.5434 292.165 52.1747 292.559 51.9765 293.741C51.8939 294.285 52.5054 294.865 52.9939 295.26C53.8888 295.967 55.5105 296.867 56.8414 296.818C58.5544 296.744 57.4594 294.739 57.1767 293.986C56.689 292.714 56.1808 291.454 55.7711 290.166C55.3246 288.747 55.0179 287.28 55.1957 285.859C54.7563 285.764 54.1649 285.675 53.8652 285.406C53.5122 285.116 53.5579 284.566 54.133 284.514C53.2336 284.336 53.2304 283.36 54.0931 283.282C53.4442 283.072 53.4366 282.375 53.9256 282.143C54.1928 282.002 54.6405 282.042 54.9609 282.049C55.7742 282.047 56.604 282.061 57.4378 282.049C61.9141 278.716 70.5668 281.254 73.8412 285.218Z" fill="#171753"/>
<path d="M49.2767 319.626L49.8243 318.261L50.7166 317.115C49.5498 317.453 48.2762 317.622 47.0027 317.791L47.0027 317.791C45.7866 317.955 40.5777 318.391 39.1933 318.418C41.7852 318.532 44.3729 318.674 46.9445 318.548C46.9361 318.728 46.9195 318.962 46.9481 319.148C46.9807 319.431 47.5556 319.63 47.6627 319.298C47.7733 319.565 48.1387 319.774 48.4388 319.541C48.5207 319.874 49.1368 319.925 49.2767 319.626Z" fill="#171753"/>
<path d="M37.3728 323.935C40.199 323.876 38.6364 321.091 38.2432 319.819C38.1089 319.398 37.9779 318.974 37.857 318.548L35.8802 316.453C36.2898 317.741 36.798 319.001 37.2857 320.273C37.5685 321.026 38.6635 323.031 36.9505 323.105C35.6195 323.154 33.9978 322.253 33.1029 321.547C32.6145 321.152 32.0029 320.572 32.0856 320.028C32.2838 318.846 35.6525 318.452 35.7305 318.436C34.1244 318.429 29.4826 318.491 30.6638 320.55C31.2339 321.528 32.5558 322.411 33.7384 322.966C34.8306 323.494 36.1036 323.952 37.3728 323.935Z" fill="#171753"/>
<path d="M49.2351 260.549C48.7426 260.056 48.8418 259.403 49.4582 259.079C50.0747 258.754 50.9618 258.889 51.4543 259.381C51.9468 259.874 51.8476 260.527 51.2312 260.852C50.6148 261.176 49.7112 261.025 49.2351 260.549Z" fill="#171753"/>
<path d="M58.0854 259.175C58.3234 259.476 58.5613 259.777 58.7213 260.094C59.3488 261.191 59.5243 262.402 58.8908 263.462C57.9941 264.886 55.956 265.607 53.9594 265.931C53.4118 267.296 53.4118 267.296 53.4118 267.296C53.2719 267.595 52.6558 267.544 52.5739 267.211C52.2738 267.444 51.9084 267.235 51.7978 266.968C51.6907 267.3 51.1158 267.101 51.0832 266.818C51.0546 266.632 51.0712 266.398 51.0796 266.218C48.508 266.344 45.9203 266.202 43.3284 266.088C44.7128 266.061 49.9217 265.625 51.1378 265.461C52.4113 265.292 53.6849 265.123 54.8517 264.785C55.8214 264.5 56.9515 264.031 57.3342 263.253C57.7045 262.558 57.2985 261.744 56.7939 261.083C55.7271 259.639 53.6743 258.465 51.695 257.802C49.6253 257.113 47.0952 256.84 45.0655 257.382C44.3177 257.575 43.7013 257.899 43.208 258.284C42.053 259.167 41.4973 260.462 41.3934 261.769C41.2398 263.654 41.7762 265.602 42.3783 267.489C42.7715 268.761 44.3341 271.546 41.5079 271.605C40.2386 271.622 38.9657 271.164 37.8735 270.636C36.6909 270.081 35.369 269.198 34.7989 268.22C33.6177 266.161 38.2595 266.099 39.8656 266.106C39.7876 266.122 36.4189 266.516 36.2207 267.698C36.138 268.242 36.7496 268.822 37.238 269.217C38.1329 269.923 39.7546 270.824 41.0856 270.775C42.7986 270.701 41.7036 268.696 41.4208 267.943C40.9331 266.671 40.4249 265.411 40.0153 264.123C39.5688 262.704 39.262 261.237 39.4399 259.816C39.0004 259.721 38.409 259.632 38.1094 259.363C37.7564 259.073 37.8021 258.523 38.3772 258.471C37.4778 258.293 37.4745 257.317 38.3372 257.239C37.6884 257.029 37.6808 256.332 38.1698 256.1C38.4369 255.959 38.8846 255.999 39.205 256.006C40.0183 256.004 40.8481 256.018 41.682 256.006C46.1582 252.673 54.8109 255.211 58.0854 259.175Z" fill="#171753"/>
<path d="M56.0927 364.477C60.1384 359.475 64.4221 360.428 75.6073 358.046C85.1266 355.902 95.1219 355.902 104.403 358.522C113.685 360.904 119.396 362.572 123.442 366.859L128.439 369.48V379.961V380.199C128.201 387.108 122.49 393.778 111.067 398.542C99.6436 403.306 87.2684 404.021 75.3693 401.162C58.4725 397.113 50.1431 388.775 49.9051 380.199V379.723V369.718L56.0927 364.477Z" fill="#171753"/>
<path d="M89.4088 404.02C97.0243 404.02 104.64 402.591 111.541 399.732C122.964 394.968 129.39 388.06 129.628 380.199V379.961V368.526L124.154 365.668C119.871 360.903 113.445 359.236 104.64 357.092C95.1204 354.71 84.8872 354.472 75.1299 356.616C72.0361 357.33 69.4183 357.807 67.2764 358.045C61.5648 358.998 58.2331 359.474 54.9013 363.524L47.9998 368.765V379.961C48.2378 389.966 58.2331 398.303 74.6539 402.353C79.6515 403.544 84.6492 404.02 89.4088 404.02ZM127.01 370.432V379.961C126.772 386.631 121.061 392.824 110.589 397.112C99.8801 401.638 87.505 402.353 75.6058 399.494C60.8509 395.921 51.5696 388.298 51.3316 379.961V379.484V370.432L57.2811 365.668C59.899 362.571 62.5168 362.095 67.9904 361.142C70.3702 360.665 72.75 360.427 76.0818 359.712C85.3631 357.568 95.1204 357.807 104.402 360.189C113.921 362.571 119.157 364.238 122.726 368.05L123.202 368.288L127.01 370.432Z" fill="#171753"/>
<path d="M61.3275 353.28C45.8586 362.093 45.8586 376.624 61.3275 385.438C76.7964 394.252 101.547 394.252 117.016 385.438C132.484 376.624 132.484 362.093 117.016 353.28C101.547 344.466 76.5584 344.466 61.3275 353.28Z" fill="white"/>
<path d="M88.9329 393.538C99.1661 393.538 109.637 391.156 117.491 386.63C125.344 382.104 129.628 375.91 129.628 369.24C129.628 362.57 125.344 356.376 117.491 351.85C101.784 342.798 76.0818 342.798 60.3749 351.85C52.5215 356.376 48.2378 362.57 48.2378 369.24C48.2378 375.91 52.5215 382.104 60.3749 386.63C68.4664 391.394 78.6996 393.538 88.9329 393.538ZM88.9329 348.277C98.6902 348.277 108.447 350.421 116.063 354.709C122.964 358.759 126.772 363.999 126.772 369.478C126.772 374.957 122.964 380.198 116.063 384.247C101.07 392.823 76.7957 392.823 61.8028 384.247C54.9013 380.198 51.0936 374.957 51.0936 369.478C51.0936 363.999 54.9013 358.759 61.8028 354.709C69.4183 350.421 79.1756 348.277 88.9329 348.277Z" fill="#171753"/>
<path d="M69.6544 359.712C80.3636 354.233 97.7364 354.233 108.446 359.712C119.155 365.191 119.155 374.004 108.446 379.245C97.7364 384.724 80.3636 384.724 69.6544 379.245C58.9452 373.766 58.9452 364.952 69.6544 359.712Z" fill="#171753"/>
<path d="M88.9316 384.724C96.3091 384.724 103.449 383.295 108.922 380.436C114.634 377.578 117.728 373.528 117.728 369.24C117.728 364.952 114.634 360.903 108.922 358.044C97.737 352.565 79.8883 352.565 68.7031 358.044C62.9915 360.903 59.8977 364.952 59.8977 369.24C59.8977 373.528 62.9915 377.578 68.7031 380.436C74.4147 383.295 81.7921 384.724 88.9316 384.724ZM88.9316 357.091C95.8331 357.091 102.497 358.282 107.732 360.903C112.492 363.285 114.872 366.382 114.872 369.478C114.872 372.575 112.254 375.672 107.732 378.054C97.499 383.295 80.6022 383.295 70.131 378.054C65.3713 375.672 62.9915 372.575 62.9915 369.478C62.9915 366.382 65.6093 363.285 70.131 360.903C75.3666 358.282 82.2681 357.091 88.9316 357.091Z" fill="#171753"/>
<path d="M69.6565 365.429C80.3657 359.95 97.7385 359.95 108.448 365.429C112.255 367.335 114.873 369.717 115.825 372.337C114.635 374.958 112.255 377.34 108.448 379.246C97.7385 384.724 80.3657 384.724 69.6565 379.246C65.8488 377.34 63.231 374.958 62.279 372.337C63.231 369.955 65.8488 367.573 69.6565 365.429Z" fill="#FFEE81"/>
<path d="M88.933 384.724C96.3105 384.724 103.45 383.295 108.924 380.436C112.969 378.292 115.825 375.672 117.015 372.813L117.253 372.337L117.015 371.86C115.825 369.002 112.969 366.381 108.924 364.237C97.7383 358.759 79.8896 358.759 68.7044 364.237C64.6587 366.381 61.8029 369.002 60.613 371.86L60.375 372.337L60.613 372.813C61.8029 375.672 64.6587 378.292 68.7044 380.436C74.416 383.295 81.7935 384.724 88.933 384.724ZM114.159 372.337C112.969 374.481 110.827 376.386 107.734 377.816C97.5004 383.056 80.6036 383.056 70.1323 377.816C67.0385 376.148 64.8967 374.242 63.7068 372.337C64.8967 370.193 67.0385 368.287 70.1323 366.858C80.3656 361.617 97.2624 361.617 107.734 366.858C110.827 368.287 113.207 370.431 114.159 372.337Z" fill="#171753"/>
<path d="M61.0886 386.63H63.2305V395.206H61.0886V386.63Z" fill="#FFEE81"/>
<path d="M121.535 381.866H123.677V390.442H121.535V381.866Z" fill="#FFEE81"/>
<path d="M84.4109 355.901H86.5527V361.38H84.4109V355.901Z" fill="#FFEE81"/>
<path d="M70.8454 390.442H72.9873V399.017H70.8454V390.442Z" fill="#FFEE81"/>
<path d="M73.2254 335.414C77.2712 330.411 81.5548 331.364 92.74 328.982C102.259 326.838 112.255 326.838 121.536 329.458C130.817 331.841 136.529 333.508 140.575 337.796L145.572 340.416V350.898V351.136C145.334 358.044 139.623 364.714 128.2 369.478C116.776 374.243 104.401 374.957 92.5021 372.099C75.6053 368.049 67.2759 359.712 67.0379 351.136V350.66V340.655L73.2254 335.414Z" fill="#171753"/>
<path d="M106.544 374.72C114.159 374.72 121.774 373.29 128.676 370.432C140.099 365.667 146.525 358.759 146.763 350.898V350.66V339.226L141.289 336.367C137.005 331.603 130.58 329.935 121.774 327.791C112.255 325.409 102.022 325.171 92.2646 327.315C89.1708 328.03 86.553 328.506 84.4111 328.744C78.6996 329.697 75.3678 330.174 72.036 334.223L65.1346 339.464V350.66C65.3725 360.665 75.3678 369.002 91.7886 373.052C96.7863 374.243 101.784 374.72 106.544 374.72ZM144.145 341.131V350.66C143.907 357.33 138.195 363.523 127.724 367.811C117.015 372.337 104.64 373.052 92.7406 370.193C77.9856 366.62 68.7043 358.997 68.4663 350.66V350.184V341.131L74.4159 336.367C77.0337 333.27 79.6515 332.794 85.1251 331.841C87.5049 331.365 89.8848 331.126 93.2165 330.412C102.498 328.268 112.255 328.506 121.536 330.888C131.056 333.27 136.291 334.938 139.861 338.749L140.337 338.987L144.145 341.131Z" fill="#171753"/>
<path d="M106.305 362.808C84.6184 362.808 67.0379 352.676 67.0379 340.178C67.0379 327.68 84.6184 317.548 106.305 317.548C127.992 317.548 145.572 327.68 145.572 340.178C145.572 352.676 127.992 362.808 106.305 362.808Z" fill="white"/>
<path d="M106.304 364.477C116.537 364.477 127.008 362.094 134.862 357.568C142.715 353.042 146.999 346.849 146.999 340.179C146.999 333.509 142.715 327.315 134.862 322.789C119.155 313.737 93.4529 313.737 77.746 322.789C69.8926 327.315 65.6089 333.509 65.6089 340.179C65.6089 346.849 69.8926 353.042 77.746 357.568C85.5995 362.094 95.8327 364.477 106.304 364.477ZM106.304 318.978C116.061 318.978 125.819 321.122 133.434 325.409C140.336 329.459 144.143 334.7 144.143 340.179C144.143 345.658 140.336 350.898 133.434 354.948C118.441 363.524 94.1668 363.524 79.1739 354.948C72.2724 350.898 68.4647 345.658 68.4647 340.179C68.4647 334.7 72.2724 329.459 79.1739 325.409C86.5514 321.122 96.3087 318.978 106.304 318.978Z" fill="#171753"/>
<path d="M86.7931 330.411C97.5023 324.932 114.875 324.932 125.584 330.411C136.294 335.89 136.294 344.704 125.584 349.945C114.875 355.424 97.5023 355.424 86.7931 349.945C76.0838 344.704 76.0838 335.89 86.7931 330.411Z" fill="#171753"/>
<path d="M106.307 355.662C113.684 355.662 120.824 354.233 126.297 351.374C132.009 348.516 135.103 344.466 135.103 340.178C135.103 335.89 132.009 331.841 126.297 328.982C115.112 323.503 97.2633 323.503 86.0781 328.982C80.3665 331.841 77.2727 335.89 77.2727 340.178C77.2727 344.466 80.3665 348.516 86.0781 351.374C91.5517 354.233 98.9292 355.662 106.307 355.662ZM106.307 327.791C113.208 327.791 119.872 328.982 125.107 331.602C129.867 333.985 132.247 337.081 132.247 340.178C132.247 343.275 129.629 346.372 125.107 348.754C114.874 353.995 97.9772 353.995 87.506 348.754C82.7463 346.372 80.3665 343.275 80.3665 340.178C80.3665 337.081 82.9843 333.985 87.506 331.602C92.5036 329.22 99.4051 327.791 106.307 327.791Z" fill="#171753"/>
<path d="M86.7922 336.367C97.5015 330.888 114.874 330.888 125.583 336.367C129.391 338.273 132.009 340.655 132.961 343.275C131.771 345.896 129.391 348.278 125.583 350.184C114.874 355.663 97.5015 355.663 86.7922 350.184C82.9845 348.278 80.3667 345.896 79.4148 343.275C80.3667 340.655 82.9845 338.273 86.7922 336.367Z" fill="#FFE850"/>
<path d="M106.306 355.662C113.683 355.662 120.823 354.233 126.297 351.375C130.342 349.231 133.198 346.61 134.388 343.752L134.626 343.275L134.388 342.799C133.198 339.94 130.342 337.32 126.297 335.176C115.111 329.697 97.2627 329.697 86.0775 335.176C82.0318 337.32 79.176 339.94 77.986 342.799L77.7481 343.275L77.986 343.752C79.176 346.61 82.0318 349.231 86.0775 351.375C91.5511 354.233 98.9286 355.662 106.306 355.662ZM131.294 343.275C130.104 345.419 127.962 347.325 124.869 348.754C114.635 353.995 97.7386 353.995 87.2674 348.754C84.1736 347.087 82.0317 345.181 80.8418 343.275C82.0317 341.131 84.1736 339.226 87.2674 337.796C97.5007 332.556 114.397 332.556 124.869 337.796C128.2 339.226 130.342 341.131 131.294 343.275Z" fill="#171753"/>
<path d="M78.4607 357.33H80.6025V365.906H78.4607V357.33Z" fill="#FFE850"/>
<path d="M138.672 352.565H140.813V361.141H138.672V352.565Z" fill="#FFE850"/>
<path d="M101.545 326.6H103.687V332.079H101.545V326.6Z" fill="#FFE850"/>
<path d="M87.9792 361.38H90.1211V369.955H87.9792V361.38Z" fill="#FFE850"/>
<path d="M108.936 341C108.486 340.551 108.577 339.954 109.139 339.659C109.702 339.363 110.511 339.485 110.96 339.935C111.409 340.384 111.319 340.98 110.757 341.276C110.194 341.572 109.37 341.434 108.936 341Z" fill="#171753"/>
<path d="M117.01 339.747C117.227 340.022 117.444 340.296 117.59 340.585C118.163 341.586 118.323 342.691 117.745 343.658C116.927 344.956 115.067 345.615 113.246 345.91C112.746 347.156 112.746 347.156 112.746 347.156C112.619 347.429 112.057 347.382 111.982 347.078C111.708 347.291 111.375 347.1 111.274 346.856C111.176 347.159 110.652 346.978 110.622 346.719C110.596 346.55 110.611 346.336 110.619 346.172C108.273 346.287 105.912 346.158 103.548 346.053C104.811 346.029 109.563 345.631 110.672 345.482C111.834 345.328 112.996 345.173 114.06 344.865C114.945 344.605 115.976 344.177 116.325 343.468C116.663 342.833 116.292 342.09 115.832 341.487C114.859 340.171 112.986 339.099 111.18 338.495C109.292 337.865 106.984 337.617 105.132 338.111C104.45 338.287 103.888 338.583 103.438 338.934C102.384 339.74 101.877 340.921 101.782 342.114C101.642 343.833 102.132 345.61 102.681 347.332C103.04 348.492 104.465 351.033 101.887 351.087C100.729 351.102 99.5676 350.684 98.5712 350.203C97.4924 349.696 96.2865 348.891 95.7664 347.999C94.6888 346.12 98.9234 346.063 100.389 346.07C100.317 346.084 97.2442 346.444 97.0634 347.522C96.988 348.019 97.5459 348.548 97.9915 348.908C98.8079 349.552 100.287 350.374 101.502 350.329C103.064 350.261 102.065 348.433 101.807 347.746C101.362 346.586 100.899 345.435 100.525 344.261C100.118 342.966 99.8379 341.628 100 340.331C99.5993 340.245 99.0598 340.163 98.7864 339.919C98.4644 339.654 98.506 339.152 99.0307 339.104C98.2102 338.942 98.2072 338.052 98.9942 337.981C98.4023 337.789 98.3954 337.153 98.8415 336.941C99.0852 336.813 99.4936 336.85 99.7859 336.856C100.528 336.854 101.285 336.867 102.046 336.855C106.129 333.816 114.023 336.131 117.01 339.747Z" fill="#171753"/>
<path d="M97.9013 372.519L98.4801 371.076L99.4235 369.865C98.19 370.222 96.8437 370.401 95.4974 370.58L95.4974 370.58C94.2119 370.753 88.7054 371.213 87.242 371.242C89.9819 371.363 92.7174 371.512 95.4359 371.38C95.427 371.57 95.4094 371.818 95.4397 372.014C95.4741 372.313 96.0819 372.523 96.1951 372.172C96.3121 372.455 96.6983 372.676 97.0156 372.429C97.1021 372.781 97.7534 372.836 97.9013 372.519Z" fill="#171753"/>
<path d="M85.3175 377.074C88.3051 377.012 86.6533 374.067 86.2376 372.723C86.0956 372.278 85.9571 371.83 85.8293 371.38L83.7396 369.165C84.1726 370.526 84.7099 371.859 85.2254 373.203C85.5243 373.999 86.6818 376.118 84.871 376.197C83.464 376.248 81.7497 375.297 80.8037 374.549C80.2873 374.133 79.6409 373.519 79.7282 372.944C79.9378 371.695 83.4989 371.278 83.5814 371.261C81.8835 371.253 76.9766 371.319 78.2253 373.496C78.8279 374.53 80.2254 375.463 81.4754 376.05C82.63 376.608 83.9757 377.092 85.3175 377.074Z" fill="#171753"/>
<path d="M360.98 228.344C356.47 222.767 351.694 223.829 339.225 221.174C328.613 218.784 317.47 218.784 307.123 221.705C296.776 224.36 290.409 226.219 285.899 231L280.327 233.655V245.34V245.605C280.592 253.307 286.96 260.743 299.695 266.054C312.429 271.365 326.225 272.162 339.49 268.975C358.327 264.461 367.613 255.166 367.878 245.605V245.074V233.655L360.98 228.344Z" fill="#171753"/>
<path d="M323.837 272.162C315.347 272.162 306.857 270.569 299.163 267.382C286.429 262.071 279.265 254.369 279 245.606V245.34V232.593L285.102 229.406C289.878 224.095 297.041 222.236 306.857 219.846C317.469 217.19 328.878 216.925 339.755 219.315C343.204 220.112 346.122 220.643 348.51 220.908C354.878 221.97 358.592 222.502 362.306 227.016L370 232.859V245.34C369.735 256.494 358.592 265.788 340.286 270.303C334.714 271.631 329.408 272.162 323.837 272.162ZM282.184 234.718V245.34C282.449 253.041 288.816 259.681 300.49 264.461C312.429 269.506 326.224 270.303 339.49 267.116C355.939 263.133 366.286 254.635 366.551 245.34V244.809V234.718L359.918 229.406C357 225.954 354.082 225.423 347.98 224.361C345.327 223.829 342.673 223.564 338.959 222.767C328.612 220.377 317.735 220.643 307.388 223.298C296.775 225.954 290.939 227.813 286.959 232.062L286.429 232.327L282.184 234.718Z" fill="#171753"/>
<path d="M355.407 215.861C372.652 225.687 372.652 241.887 355.407 251.712C338.162 261.538 310.57 261.538 293.325 251.712C276.08 241.887 276.08 225.687 293.325 215.861C310.305 205.77 338.162 205.77 355.407 215.861Z" fill="white"/>
<path d="M324.367 260.742C312.959 260.742 301.286 258.086 292.531 253.041C283.776 247.995 279 241.09 279 233.654C279 226.219 283.776 219.314 292.531 214.268C310.041 204.177 338.694 204.177 356.204 214.268C364.959 219.314 369.735 226.219 369.735 233.654C369.735 241.09 364.959 247.995 356.204 253.041C347.449 258.086 335.776 260.742 324.367 260.742ZM324.367 210.019C313.49 210.019 302.612 212.409 294.122 217.189C286.429 221.704 282.184 227.546 282.184 233.654C282.184 239.762 286.429 245.605 294.122 250.119C310.837 259.68 337.898 259.68 354.612 250.119C362.306 245.605 366.551 239.762 366.551 233.654C366.551 227.546 362.306 221.704 354.612 217.189C346.122 212.409 335.245 210.019 324.367 210.019Z" fill="#171753"/>
<path d="M345.857 222.767C333.918 216.659 314.551 216.659 302.612 222.767C290.674 228.875 290.674 238.701 302.612 244.543C314.551 250.651 333.918 250.651 345.857 244.543C357.796 238.701 357.796 228.875 345.857 222.767Z" fill="#171753"/>
<path d="M324.369 250.651C316.144 250.651 308.185 249.058 302.083 245.871C295.716 242.684 292.267 238.17 292.267 233.389C292.267 228.609 295.716 224.095 302.083 220.908C314.552 214.8 334.45 214.8 346.92 220.908C353.287 224.095 356.736 228.609 356.736 233.389C356.736 238.17 353.287 242.684 346.92 245.871C340.552 249.058 332.328 250.651 324.369 250.651ZM324.369 219.846C316.675 219.846 309.246 221.174 303.409 224.095C298.103 226.75 295.45 230.203 295.45 233.655C295.45 237.107 298.369 240.56 303.409 243.215C314.818 249.058 333.654 249.058 345.328 243.215C350.634 240.56 353.287 237.107 353.287 233.655C353.287 230.203 350.369 226.75 345.328 224.095C339.491 221.174 331.797 219.846 324.369 219.846Z" fill="#171753"/>
<path d="M345.857 229.406C333.918 223.298 314.551 223.298 302.612 229.406C298.367 231.53 295.449 234.186 294.388 237.107C295.714 240.028 298.367 242.684 302.612 244.808C314.551 250.916 333.918 250.916 345.857 244.808C350.102 242.684 353.02 240.028 354.082 237.107C353.02 234.186 350.367 231.53 345.857 229.406Z" fill="#FFE850"/>
<path d="M324.367 250.651C316.143 250.651 308.184 249.058 302.082 245.871C297.571 243.481 294.388 240.56 293.061 237.373L292.796 236.842L293.061 236.311C294.388 233.124 297.571 230.203 302.082 227.813C314.551 221.705 334.449 221.705 346.918 227.813C351.429 230.203 354.612 233.124 355.939 236.311L356.204 236.842L355.939 237.373C354.612 240.56 351.429 243.481 346.918 245.871C340.551 249.058 332.327 250.651 324.367 250.651ZM296.245 236.842C297.571 239.232 299.959 241.356 303.408 242.95C314.816 248.792 333.653 248.792 345.327 242.95C348.776 241.091 351.163 238.966 352.49 236.842C351.163 234.452 348.776 232.327 345.327 230.734C333.918 224.891 315.082 224.891 303.408 230.734C299.959 232.593 297.306 234.717 296.245 236.842Z" fill="#171753"/>
<path d="M355.409 252.775H353.021V262.336H355.409V252.775Z" fill="#FFE850"/>
<path d="M288.022 247.464H285.634V257.025H288.022V247.464Z" fill="#FFE850"/>
<path d="M329.408 218.518H327.021V224.626H329.408V218.518Z" fill="#FFE850"/>
<path d="M344.531 257.025H342.144V266.585H344.531V257.025Z" fill="#FFE850"/>
<path d="M328.044 234.543C327.521 234.02 327.626 233.327 328.28 232.982C328.935 232.638 329.876 232.781 330.399 233.304C330.922 233.826 330.817 234.52 330.162 234.864C329.508 235.208 328.549 235.048 328.044 234.543Z" fill="#171753"/>
<path d="M337.438 233.085C337.69 233.404 337.943 233.723 338.113 234.059C338.779 235.225 338.965 236.509 338.293 237.634C337.341 239.146 335.178 239.912 333.058 240.256C332.477 241.705 332.477 241.705 332.477 241.705C332.328 242.022 331.674 241.967 331.588 241.614C331.269 241.862 330.881 241.64 330.764 241.356C330.65 241.709 330.04 241.498 330.005 241.197C329.975 241 329.993 240.752 330.001 240.561C327.272 240.694 324.525 240.543 321.774 240.422C323.243 240.393 328.772 239.931 330.063 239.757C331.415 239.578 332.767 239.398 334.005 239.039C335.035 238.737 336.234 238.239 336.64 237.413C337.033 236.675 336.603 235.811 336.067 235.109C334.935 233.577 332.756 232.33 330.655 231.627C328.458 230.895 325.772 230.606 323.618 231.181C322.824 231.386 322.17 231.73 321.646 232.139C320.42 233.076 319.83 234.45 319.72 235.838C319.557 237.839 320.126 239.906 320.765 241.91C321.183 243.259 322.841 246.216 319.841 246.278C318.494 246.296 317.143 245.81 315.984 245.25C314.728 244.66 313.325 243.723 312.72 242.685C311.466 240.5 316.393 240.434 318.098 240.441C318.015 240.458 314.44 240.877 314.229 242.131C314.141 242.709 314.791 243.325 315.309 243.743C316.259 244.493 317.98 245.449 319.393 245.397C321.211 245.318 320.049 243.191 319.749 242.391C319.231 241.041 318.692 239.703 318.257 238.336C317.783 236.83 317.457 235.273 317.646 233.764C317.18 233.664 316.552 233.569 316.234 233.284C315.859 232.976 315.908 232.392 316.518 232.337C315.564 232.148 315.56 231.112 316.476 231.03C315.787 230.807 315.779 230.066 316.298 229.82C316.582 229.671 317.057 229.713 317.397 229.72C318.26 229.718 319.141 229.734 320.026 229.72C324.778 226.183 333.962 228.877 337.438 233.085Z" fill="#171753"/>
<path d="M215.809 130.578L214.454 92.2927L118.909 144.47V179.028L215.809 130.578Z" fill="#ECFFFE"/>
<path d="M116.198 182.416V142.349L216.825 87.8594V129.901L116.198 182.416ZM120.942 145.486V175.733L213.437 126.174V94.9596L120.942 145.486Z" fill="#FFE850"/>
<path d="M211.12 126.379L222.887 133.057L119.336 192.765V178.35L211.12 126.379Z" fill="#171753"/>
<path d="M116.198 196.693V175.874L211.12 124.022L228.986 132.733C230.555 133.518 230.555 135.875 228.986 137.054L116.198 196.693ZM120.334 179.301V189.907L218.572 133.057L210.728 128.343L120.334 179.301Z" fill="#FFE850"/>
<path d="M228.233 84.0857L214.981 91.0728V124.804L227.269 132.513L228.233 84.0857Z" fill="#171753"/>
<path d="M230.162 135.806L213.51 127.165V89.8469L230.162 79.0261V135.806ZM216.807 125.593L226.417 130.307V86.8825L216.807 92.5966V125.593Z" fill="#FFE850"/>
<path d="M172.825 293.294C178.254 286.572 184.001 287.852 199.01 284.651C211.783 281.77 225.195 281.77 237.648 285.291C250.102 288.492 257.766 290.733 263.195 296.495L269.9 300.016V314.101V314.421C269.581 323.704 261.917 332.667 246.59 339.069C231.262 345.472 214.657 346.432 198.69 342.591C176.018 337.149 164.842 325.945 164.522 314.421V313.781V300.336L172.825 293.294Z" fill="#171753"/>
<path d="M217.531 346.112C227.749 346.112 237.968 344.191 247.228 340.35C262.556 333.948 271.178 324.665 271.497 314.101V298.736L264.153 294.894C258.405 288.492 249.783 286.251 237.968 283.37C225.195 280.169 211.464 279.849 198.371 282.73C194.22 283.691 190.707 284.331 187.833 284.651C180.17 285.931 175.699 286.572 171.228 292.013L161.968 299.056V314.101C162.287 327.545 175.699 338.749 197.732 344.191C204.438 345.472 210.825 346.112 217.531 346.112ZM267.665 300.976V313.781C267.346 323.064 259.682 331.067 245.632 336.829C231.262 342.911 214.657 343.871 198.69 340.03C178.892 335.228 166.438 324.985 166.119 313.781V313.141V300.976L174.102 294.574C177.615 290.413 181.127 289.773 188.472 288.492C191.665 287.852 194.859 287.532 199.329 286.572C211.783 283.691 224.875 284.011 237.329 287.212C250.102 290.413 257.127 292.654 261.917 297.775L262.556 298.095L267.665 300.976Z" fill="#171753"/>
<path d="M179.531 278.249C158.774 290.093 158.774 309.62 179.531 321.464C200.287 333.308 233.497 333.308 254.253 321.464C275.009 309.62 275.009 290.093 254.253 278.249C233.816 266.085 200.287 266.085 179.531 278.249Z" fill="white"/>
<path d="M216.892 332.347C230.623 332.347 244.674 329.146 255.211 323.064C265.749 316.982 271.497 308.659 271.497 299.696C271.497 290.733 265.749 282.41 255.211 276.328C234.136 264.164 199.648 264.164 178.573 276.328C168.035 282.41 162.287 290.733 162.287 299.696C162.287 308.659 168.035 316.982 178.573 323.064C189.111 329.146 203.161 332.347 216.892 332.347ZM216.892 271.206C229.985 271.206 243.077 274.087 253.295 279.849C262.556 285.291 267.665 292.334 267.665 299.696C267.665 307.059 262.556 314.101 253.295 319.543C233.178 331.067 200.606 331.067 180.489 319.543C171.228 314.101 166.119 307.059 166.119 299.696C166.119 292.334 171.228 285.291 180.489 279.849C190.707 274.087 203.8 271.206 216.892 271.206Z" fill="#171753"/>
<path d="M191.027 286.572C205.397 279.209 228.707 279.209 243.077 286.572C257.447 293.934 257.447 305.778 243.077 312.821C228.707 320.183 205.397 320.183 191.027 312.821C176.657 305.458 176.657 293.934 191.027 286.572Z" fill="#171753"/>
<path d="M216.893 320.183C226.792 320.183 236.372 318.262 243.716 314.421C251.38 310.58 255.531 305.138 255.531 299.376C255.531 293.614 251.38 288.172 243.716 284.331C228.708 276.968 204.758 276.968 189.75 284.331C182.086 288.172 177.935 293.614 177.935 299.376C177.935 305.138 182.086 310.58 189.75 314.421C197.414 318.262 207.313 320.183 216.893 320.183ZM216.893 283.05C226.153 283.05 235.094 284.651 242.12 288.172C248.506 291.373 251.699 295.535 251.699 299.696C251.699 303.857 248.187 308.019 242.12 311.22C228.388 318.262 205.716 318.262 191.666 311.22C185.279 308.019 182.086 303.857 182.086 299.696C182.086 295.535 185.599 291.373 191.666 288.172C198.691 284.651 207.951 283.05 216.893 283.05Z" fill="#171753"/>
<path d="M191.027 294.574C205.397 287.212 228.708 287.212 243.077 294.574C248.187 297.135 251.699 300.336 252.977 303.858C251.38 307.379 248.187 310.58 243.077 313.141C228.708 320.503 205.397 320.503 191.027 313.141C185.918 310.58 182.405 307.379 181.128 303.858C182.405 300.336 185.599 297.135 191.027 294.574Z" fill="#FFE850"/>
<path d="M216.893 320.183C226.792 320.183 236.372 318.262 243.716 314.421C249.145 311.54 252.977 308.019 254.573 304.178L254.893 303.537L254.573 302.897C252.977 299.056 249.145 295.535 243.716 292.654C228.708 285.291 204.758 285.291 189.75 292.654C184.321 295.535 180.489 299.056 178.893 302.897L178.573 303.537L178.893 304.178C180.489 308.019 184.321 311.54 189.75 314.421C197.414 318.262 207.313 320.183 216.893 320.183ZM250.741 303.537C249.145 306.418 246.271 308.979 242.119 310.9C228.388 317.942 205.716 317.942 191.666 310.9C187.515 308.659 184.641 306.098 183.044 303.537C184.641 300.656 187.515 298.095 191.666 296.175C205.397 289.132 228.069 289.132 242.119 296.175C246.271 298.416 249.464 300.976 250.741 303.537Z" fill="#171753"/>
<path d="M179.532 322.744H182.406V334.268H179.532V322.744Z" fill="#FFE850"/>
<path d="M260.642 316.342H263.516V327.866H260.642V316.342Z" fill="#FFE850"/>
<path d="M210.826 281.45H213.7V288.812H210.826V281.45Z" fill="#FFE850"/>
<path d="M192.625 327.866H195.499V339.39H192.625V327.866Z" fill="#FFE850"/>
<path d="M195.817 253.921C201.246 247.198 206.994 248.479 222.002 245.278C234.775 242.397 248.187 242.397 260.641 245.918C273.094 249.119 280.758 251.36 286.187 257.122L292.893 260.643V274.728V275.048C292.573 284.331 284.909 293.294 269.582 299.696C254.254 306.098 237.649 307.059 221.683 303.217C199.01 297.775 187.834 286.572 187.515 275.048V274.408V260.963L195.817 253.921Z" fill="#171753"/>
<path d="M240.523 307.059C250.741 307.059 260.96 305.138 270.22 301.297C285.548 294.895 294.17 285.611 294.489 275.048V259.683L287.145 255.841C281.397 249.439 272.775 247.198 260.96 244.317C248.187 241.116 234.456 240.796 221.363 243.677C217.212 244.637 213.699 245.278 210.826 245.598C203.162 246.878 198.691 247.518 194.221 252.96L184.96 260.003V275.048C185.279 288.492 198.691 299.696 220.725 305.138C227.431 306.098 234.136 307.059 240.523 307.059ZM290.977 261.603V274.408C290.657 283.691 282.993 291.693 268.943 297.455C254.573 303.537 237.968 304.498 222.002 300.656C202.204 295.855 189.75 285.611 189.431 274.408V273.767V261.603L197.414 255.201C200.926 251.04 204.439 250.399 211.784 249.119C214.977 248.479 218.17 248.159 222.641 247.198C235.094 244.317 248.187 244.637 260.641 247.839C273.414 251.04 280.439 253.28 285.229 258.402L285.867 258.722L290.977 261.603Z" fill="#171753"/>
<path d="M239.884 290.733C210.785 290.733 187.195 277.118 187.195 260.323C187.195 243.528 210.785 229.912 239.884 229.912C268.984 229.912 292.573 243.528 292.573 260.323C292.573 277.118 268.984 290.733 239.884 290.733Z" fill="white"/>
<path d="M239.884 292.974C253.615 292.974 267.666 289.773 278.204 283.691C288.741 277.608 294.489 269.286 294.489 260.323C294.489 251.36 288.741 243.037 278.204 236.955C257.128 224.791 222.641 224.791 201.565 236.955C191.027 243.037 185.279 251.36 185.279 260.323C185.279 269.286 191.027 277.608 201.565 283.691C212.422 289.773 226.153 292.974 239.884 292.974ZM239.884 231.833C252.977 231.833 266.069 234.714 276.288 240.476C285.548 245.918 290.657 252.96 290.657 260.323C290.657 267.685 285.548 274.727 276.288 280.169C256.17 291.693 223.599 291.693 203.481 280.169C194.221 274.727 189.111 267.685 189.111 260.323C189.111 252.96 194.221 245.918 203.481 240.476C213.699 234.714 226.792 231.833 239.884 231.833Z" fill="#171753"/>
<path d="M214.019 247.198C228.389 239.836 251.7 239.836 266.069 247.198C280.439 254.561 280.439 266.405 266.069 273.447C251.7 280.81 228.389 280.81 214.019 273.447C199.649 266.405 199.649 254.561 214.019 247.198Z" fill="#171753"/>
<path d="M239.885 281.13C249.784 281.13 259.364 279.209 266.708 275.368C274.372 271.527 278.523 266.085 278.523 260.323C278.523 254.561 274.372 249.119 266.708 245.278C251.7 237.915 227.75 237.915 212.742 245.278C205.078 249.119 200.927 254.561 200.927 260.323C200.927 266.085 205.078 271.527 212.742 275.368C220.406 279.209 230.305 281.13 239.885 281.13ZM239.885 243.677C249.145 243.677 258.086 245.278 265.112 248.799C271.498 252 274.692 256.161 274.692 260.323C274.692 264.484 271.179 268.646 265.112 271.847C251.381 278.889 228.708 278.889 214.658 271.847C208.271 268.646 205.078 264.484 205.078 260.323C205.078 256.161 208.591 252 214.658 248.799C221.683 245.598 230.944 243.677 239.885 243.677Z" fill="#171753"/>
<path d="M214.02 255.201C228.39 247.838 251.701 247.838 266.071 255.201C271.18 257.762 274.692 260.963 275.97 264.484C274.373 268.005 271.18 271.206 266.071 273.767C251.701 281.13 228.39 281.13 214.02 273.767C208.911 271.206 205.398 268.005 204.121 264.484C205.398 260.963 208.911 257.762 214.02 255.201Z" fill="#FFE850"/>
<path d="M239.886 281.13C249.785 281.13 259.365 279.209 266.709 275.368C272.138 272.487 275.97 268.965 277.566 265.124L277.886 264.484L277.566 263.844C275.97 260.002 272.138 256.481 266.709 253.6C251.701 246.238 227.751 246.238 212.743 253.6C207.314 256.481 203.483 260.002 201.886 263.844L201.567 264.484L201.886 265.124C203.483 268.965 207.314 272.487 212.743 275.368C220.407 279.209 230.306 281.13 239.886 281.13ZM273.734 264.484C272.138 267.365 269.264 269.926 265.113 271.846C251.382 278.889 228.709 278.889 214.659 271.846C210.508 269.606 207.634 267.045 206.037 264.484C207.634 261.603 210.508 259.042 214.659 257.121C228.39 250.079 251.062 250.079 265.113 257.121C269.264 259.042 272.457 261.603 273.734 264.484Z" fill="#171753"/>
<path d="M202.523 283.371H205.396V294.895H202.523V283.371Z" fill="#FFE850"/>
<path d="M283.632 277.288H286.506V288.812H283.632V277.288Z" fill="#FFE850"/>
<path d="M233.817 242.397H236.691V249.759H233.817V242.397Z" fill="#FFE850"/>
<path d="M215.615 288.812H218.489V300.336H215.615V288.812Z" fill="#FFE850"/>
<path d="M176.658 218.068C182.087 211.346 187.834 212.626 202.843 209.425C215.616 206.544 229.028 206.544 241.481 210.066C253.935 213.267 261.599 215.507 267.028 221.269L273.733 224.791V238.875V239.195C273.414 248.479 265.75 257.442 250.423 263.844C235.095 270.246 218.49 271.206 202.523 267.365C179.851 261.923 168.675 250.719 168.355 239.195V238.555V225.111L176.658 218.068Z" fill="#171753"/>
<path d="M221.364 271.206C231.582 271.206 241.801 269.286 251.061 265.444C266.389 259.042 275.011 249.759 275.33 239.195V223.83L267.986 219.989C262.238 213.587 253.616 211.346 241.801 208.465C229.028 205.264 215.297 204.944 202.204 207.825C198.053 208.785 194.54 209.425 191.666 209.745C184.003 211.026 179.532 211.666 175.061 217.108L165.801 224.15V239.195C166.12 252.64 179.532 263.844 201.566 269.286C208.271 270.246 214.658 271.206 221.364 271.206ZM271.498 225.751V238.555C271.179 247.838 263.515 255.841 249.465 261.603C235.095 267.685 218.49 268.646 202.523 264.804C182.725 260.003 170.271 249.759 169.952 238.555V237.915V225.751L177.935 219.349C181.448 215.187 184.961 214.547 192.305 213.267C195.498 212.626 198.692 212.306 203.162 211.346C215.616 208.465 228.708 208.785 241.162 211.986C253.935 215.187 260.96 217.428 265.75 222.55L266.389 222.87L271.498 225.751Z" fill="#171753"/>
<path d="M220.725 255.201C191.626 255.201 168.036 241.586 168.036 224.791C168.036 207.995 191.626 194.38 220.725 194.38C249.824 194.38 273.414 207.995 273.414 224.791C273.414 241.586 249.824 255.201 220.725 255.201Z" fill="white"/>
<path d="M220.725 257.122C234.456 257.122 248.507 253.92 259.044 247.838C269.582 241.756 275.33 233.433 275.33 224.47C275.33 215.507 269.582 207.185 259.044 201.102C237.969 188.938 203.481 188.938 182.406 201.102C171.868 207.185 166.12 215.507 166.12 224.47C166.12 233.433 171.868 241.756 182.406 247.838C192.944 254.241 206.994 257.122 220.725 257.122ZM220.725 195.981C233.818 195.981 246.91 198.862 257.128 204.624C266.389 210.066 271.498 217.108 271.498 224.47C271.498 231.833 266.389 238.875 257.128 244.317C237.011 255.841 204.439 255.841 184.322 244.317C175.061 238.875 169.952 231.833 169.952 224.47C169.952 217.108 175.061 210.066 184.322 204.624C194.54 198.862 207.633 195.981 220.725 195.981Z" fill="#171753"/>
<path d="M220.725 243.357C200.443 243.357 184.002 235.045 184.002 224.791C184.002 214.537 200.443 206.224 220.725 206.224C241.006 206.224 257.447 214.537 257.447 224.791C257.447 235.045 241.006 243.357 220.725 243.357Z" fill="#171753"/>
<path d="M220.725 245.278C230.624 245.278 240.204 243.357 247.548 239.516C255.212 235.674 259.363 230.233 259.363 224.471C259.363 218.709 255.212 213.267 247.548 209.425C232.54 202.063 208.59 202.063 193.582 209.425C185.918 213.267 181.767 218.709 181.767 224.471C181.767 230.233 185.918 235.674 193.582 239.516C201.246 243.357 211.145 245.278 220.725 245.278ZM220.725 208.145C229.985 208.145 238.926 209.746 245.952 213.267C252.338 216.468 255.531 220.629 255.531 224.791C255.531 228.952 252.019 233.114 245.952 236.315C232.22 243.357 209.548 243.357 195.498 236.315C189.111 233.114 185.918 228.952 185.918 224.791C185.918 220.629 189.431 216.468 195.498 213.267C202.523 209.746 211.784 208.145 220.725 208.145Z" fill="#171753"/>
<path d="M194.859 219.349C209.229 211.986 232.54 211.986 246.909 219.349C252.019 221.91 255.531 225.111 256.809 228.632C255.212 232.153 252.019 235.354 246.909 237.915C232.54 245.278 209.229 245.278 194.859 237.915C189.75 235.354 186.237 232.153 184.96 228.632C186.237 225.111 189.431 221.91 194.859 219.349Z" fill="#FFE850"/>
<path d="M220.725 245.278C230.624 245.278 240.204 243.357 247.548 239.516C252.977 236.635 256.809 233.113 258.405 229.272L258.725 228.632L258.405 227.992C256.809 224.15 252.977 220.629 247.548 217.748C232.54 210.386 208.59 210.386 193.582 217.748C188.153 220.629 184.321 224.15 182.725 227.992L182.405 228.632L182.725 229.272C184.321 233.113 188.153 236.635 193.582 239.516C201.246 243.357 211.145 245.278 220.725 245.278ZM254.573 228.632C252.977 231.513 250.103 234.074 245.952 235.994C232.22 243.037 209.548 243.037 195.498 235.994C191.347 233.754 188.473 231.193 186.876 228.632C188.473 225.751 191.347 223.19 195.498 221.269C209.229 214.227 231.901 214.227 245.952 221.269C250.103 223.19 253.296 225.751 254.573 228.632Z" fill="#171753"/>
<path d="M183.364 247.839H186.238V259.362H183.364V247.839Z" fill="#FFE850"/>
<path d="M264.473 241.436H267.347V252.96H264.473V241.436Z" fill="#FFE850"/>
<path d="M214.657 206.544H217.531V213.907H214.657V206.544Z" fill="#FFE850"/>
<path d="M196.456 252.96H199.33V264.484H196.456V252.96Z" fill="#FFE850"/>
<mask id="mask0_4235_7742" style="mask-type:alpha" maskUnits="userSpaceOnUse" x="120" y="102" width="146" height="106">
<path d="M120.604 145.486L197.513 102.457L238.185 105.56L265.642 156.626L216.612 207.692L120.604 187.837V145.486Z" fill="#D9D9D9"/>
</mask>
<g mask="url(#mask0_4235_7742)">
<path d="M210.952 128.655C205.329 121.692 199.376 123.018 183.83 119.703C170.599 116.719 156.707 116.719 143.807 120.366C130.908 123.682 122.969 126.003 117.346 131.971L110.4 135.287V149.876V150.207C110.731 159.823 118.669 169.107 134.546 175.739C150.423 182.37 167.622 183.365 184.161 179.386C207.645 173.749 219.222 162.144 219.552 150.207V149.544V135.287L210.952 128.655Z" fill="#171753"/>
<path d="M164.646 183.364C154.062 183.364 143.477 181.375 133.885 177.396C118.008 170.765 109.078 161.149 108.747 150.207V149.876V133.96L116.355 129.981C122.308 123.35 131.239 121.029 143.477 118.045C156.708 114.729 170.931 114.397 184.492 117.381C188.792 118.376 192.43 119.039 195.407 119.371C203.345 120.697 207.976 121.36 212.607 126.997L222.199 134.292V149.876C221.868 163.802 207.976 175.407 185.153 181.043C178.207 182.701 171.592 183.364 164.646 183.364ZM112.716 136.613V149.876C113.047 159.491 120.985 167.781 135.539 173.749C150.423 180.049 167.623 181.043 184.161 177.065C204.668 172.091 217.568 161.481 217.899 149.876V149.212V136.613L209.63 129.981C205.992 125.671 202.353 125.008 194.746 123.681C191.438 123.018 188.13 122.687 183.5 121.692C170.6 118.708 157.039 119.039 144.139 122.355C130.908 125.671 123.631 127.992 118.67 133.297L118.008 133.628L112.716 136.613Z" fill="#171753"/>
<path d="M204.007 113.071C225.506 125.339 225.506 145.565 204.007 157.833C182.507 170.102 148.108 170.102 126.608 157.833C105.108 145.565 105.108 125.339 126.608 113.071C147.777 100.471 182.507 100.471 204.007 113.071Z" fill="white"/>
<path d="M165.308 169.107C151.085 169.107 136.531 165.791 125.616 159.491C114.701 153.191 108.747 144.571 108.747 135.287C108.747 126.002 114.701 117.382 125.616 111.082C147.446 98.4819 183.169 98.4819 204.999 111.082C215.914 117.382 221.868 126.002 221.868 135.287C221.868 144.571 215.914 153.191 204.999 159.491C194.084 165.791 179.53 169.107 165.308 169.107ZM165.308 105.777C151.746 105.777 138.185 108.761 127.601 114.729C118.008 120.366 112.716 127.66 112.716 135.287C112.716 142.913 118.008 150.207 127.601 155.844C148.439 167.781 182.177 167.781 203.015 155.844C212.607 150.207 217.899 142.913 217.899 135.287C217.899 127.66 212.607 120.366 203.015 114.729C192.43 108.761 178.869 105.777 165.308 105.777Z" fill="#171753"/>
<path d="M192.099 121.692C177.215 114.066 153.069 114.066 138.185 121.692C123.3 129.318 123.3 141.586 138.185 148.881C153.069 156.507 177.215 156.507 192.099 148.881C206.984 141.586 206.984 129.318 192.099 121.692Z" fill="#171753"/>
<path d="M165.308 156.507C155.054 156.507 145.131 154.518 137.523 150.539C129.585 146.56 125.285 140.923 125.285 134.955C125.285 128.986 129.585 123.35 137.523 119.371C153.069 111.745 177.877 111.745 193.422 119.371C201.361 123.35 205.661 128.986 205.661 134.955C205.661 140.923 201.361 146.56 193.422 150.539C185.484 154.518 175.23 156.507 165.308 156.507ZM165.308 118.044C155.715 118.044 146.454 119.702 139.177 123.35C132.562 126.665 129.254 130.976 129.254 135.286C129.254 139.597 132.893 143.907 139.177 147.223C153.4 154.518 176.884 154.518 191.438 147.223C198.053 143.907 201.361 139.597 201.361 135.286C201.361 130.976 197.722 126.665 191.438 123.35C184.161 119.702 174.569 118.044 165.308 118.044Z" fill="#171753"/>
<path d="M192.099 129.981C177.214 122.355 153.069 122.355 138.184 129.981C132.892 132.634 129.254 135.949 127.931 139.597C129.584 143.244 132.892 146.56 138.184 149.212C153.069 156.839 177.214 156.839 192.099 149.212C197.391 146.56 201.029 143.244 202.352 139.597C201.029 135.949 197.722 132.634 192.099 129.981Z" fill="#FFE850"/>
<path d="M165.307 156.507C155.053 156.507 145.131 154.518 137.523 150.539C131.9 147.555 127.931 143.907 126.277 139.928L125.946 139.265L126.277 138.602C127.931 134.623 131.9 130.976 137.523 127.992C153.069 120.366 177.876 120.366 193.422 127.992C199.045 130.976 203.014 134.623 204.668 138.602L204.999 139.265L204.668 139.928C203.014 143.907 199.045 147.555 193.422 150.539C185.484 154.518 175.23 156.507 165.307 156.507ZM130.246 139.265C131.9 142.249 134.877 144.902 139.177 146.891C153.4 154.186 176.884 154.186 191.437 146.891C195.737 144.57 198.714 141.918 200.368 139.265C198.714 136.281 195.737 133.628 191.437 131.639C177.215 124.344 153.73 124.344 139.177 131.639C134.877 133.96 131.569 136.613 130.246 139.265Z" fill="#171753"/>
</g>
<path d="M187.285 164.045H184.308V175.982H187.285V164.045Z" fill="#FFE850"/>
<path d="M173.723 165.422H170.746V177.359H173.723V165.422Z" fill="#FFE850"/>
<path d="M249.261 260.893C248.61 260.241 248.741 259.376 249.557 258.946C250.372 258.516 251.546 258.694 252.197 259.347C252.848 259.999 252.717 260.864 251.901 261.294C251.086 261.724 249.891 261.524 249.261 260.893Z" fill="#171753"/>
<path d="M261.814 260.29C261.603 259.871 261.288 259.472 260.973 259.074C258.609 259.278 254.26 259.688 255.777 259.688C257.294 259.688 258.734 260.963 259.264 261.601C259.932 262.478 260.469 263.556 259.979 264.478C259.472 265.509 257.977 266.131 256.694 266.508C255.149 266.956 253.464 267.18 251.779 267.404C250.169 267.621 243.276 268.199 241.444 268.234C244.874 268.386 248.299 268.574 251.702 268.408C251.691 268.646 251.669 268.956 251.706 269.202C251.75 269.578 252.51 269.841 252.652 269.401C252.799 269.756 253.282 270.032 253.679 269.723C253.788 270.164 254.603 270.233 254.788 269.836L255.513 268.027C258.155 267.597 260.852 266.641 262.039 264.754C262.877 263.35 262.645 261.745 261.814 260.29Z" fill="#171753"/>
<path d="M240.187 270.092C239.39 267.59 238.68 265.009 238.884 262.511L235.987 254.873C235.563 254.864 234.971 254.811 234.618 254.997C233.97 255.305 233.98 256.229 234.839 256.507C233.697 256.611 233.702 257.904 234.892 258.14C234.131 258.209 234.07 258.938 234.538 259.323C234.934 259.678 235.717 259.797 236.298 259.922C236.063 261.806 236.469 263.75 237.06 265.63C237.602 267.337 238.274 269.008 238.92 270.693C239.294 271.691 240.743 274.348 238.476 274.447C236.715 274.511 234.569 273.318 233.384 272.381C232.738 271.859 231.929 271.09 232.038 270.368C232.3 268.802 236.758 268.279 236.862 268.258C234.736 268.249 228.594 268.331 230.157 271.061C230.911 272.356 232.66 273.527 234.225 274.263C235.671 274.962 237.355 275.568 239.035 275.547C242.775 275.469 240.707 271.777 240.187 270.092Z" fill="#171753"/>
<path d="M221.087 296.962C220.436 296.31 220.567 295.444 221.383 295.014C222.198 294.585 223.372 294.763 224.023 295.415C224.674 296.067 224.543 296.933 223.727 297.362C222.912 297.792 221.717 297.592 221.087 296.962Z" fill="#171753"/>
<path d="M233.64 296.359C233.429 295.939 233.114 295.54 232.799 295.142C230.435 295.347 226.086 295.756 227.603 295.756C229.121 295.756 230.56 297.032 231.09 297.669C231.758 298.546 232.295 299.624 231.805 300.546C231.298 301.577 229.803 302.199 228.52 302.576C226.976 303.025 225.29 303.249 223.605 303.473C221.996 303.69 215.102 304.267 213.27 304.303C216.7 304.454 220.125 304.642 223.528 304.476C223.517 304.714 223.495 305.025 223.533 305.27C223.576 305.646 224.337 305.909 224.478 305.469C224.625 305.824 225.108 306.1 225.505 305.791C225.614 306.232 226.429 306.301 226.614 305.904L227.339 304.095C229.981 303.666 232.678 302.709 233.865 300.822C234.703 299.418 234.471 297.814 233.64 296.359Z" fill="#171753"/>
<path d="M212.013 306.16C211.216 303.658 210.506 301.077 210.71 298.579L207.814 290.941C207.39 290.932 206.797 290.879 206.444 291.065C205.797 291.373 205.807 292.298 206.665 292.576C205.524 292.679 205.528 293.972 206.718 294.208C205.957 294.277 205.897 295.006 206.364 295.391C206.76 295.746 207.543 295.865 208.124 295.99C207.889 297.874 208.295 299.819 208.886 301.699C209.428 303.405 210.101 305.076 210.746 306.762C211.12 307.76 212.569 310.416 210.302 310.515C208.541 310.58 206.395 309.386 205.211 308.45C204.564 307.927 203.755 307.158 203.864 306.436C204.127 304.87 208.585 304.348 208.688 304.326C206.562 304.317 200.42 304.4 201.983 307.129C202.737 308.425 204.487 309.595 206.052 310.331C207.497 311.03 209.182 311.637 210.861 311.615C214.601 311.537 212.533 307.845 212.013 306.16Z" fill="#171753"/>
<path d="M168.249 136.153C167.598 135.501 167.73 134.635 168.545 134.206C169.361 133.776 170.534 133.954 171.185 134.606C171.837 135.258 171.705 136.124 170.89 136.554C170.074 136.983 168.879 136.783 168.249 136.153Z" fill="#171753"/>
<path d="M179.96 134.333C180.275 134.732 180.59 135.13 180.802 135.55C181.632 137.005 181.864 138.609 181.026 140.014C179.839 141.901 177.142 142.857 174.5 143.286C173.775 145.096 173.775 145.096 173.775 145.096C173.59 145.492 172.775 145.424 172.667 144.983C172.269 145.292 171.786 145.015 171.639 144.661C171.498 145.101 170.737 144.837 170.694 144.462C170.656 144.216 170.678 143.906 170.689 143.667C167.286 143.833 163.861 143.646 160.432 143.494C162.263 143.458 169.157 142.881 170.766 142.664C172.451 142.44 174.137 142.216 175.681 141.768C176.964 141.39 178.46 140.768 178.966 139.738C179.456 138.815 178.919 137.737 178.251 136.861C176.839 134.948 174.123 133.391 171.503 132.513C168.764 131.599 165.416 131.238 162.73 131.956C161.741 132.212 160.925 132.642 160.272 133.152C158.744 134.323 158.008 136.038 157.871 137.771C157.667 140.269 158.377 142.85 159.174 145.352C159.695 147.036 161.762 150.728 158.022 150.806C156.343 150.828 154.658 150.221 153.213 149.522C151.648 148.786 149.898 147.616 149.144 146.32C147.581 143.591 153.724 143.509 155.849 143.518C155.746 143.539 151.288 144.062 151.025 145.628C150.916 146.349 151.725 147.118 152.372 147.641C153.556 148.577 155.702 149.771 157.463 149.706C159.73 149.607 158.281 146.951 157.907 145.953C157.262 144.268 156.589 142.596 156.047 140.89C155.456 139.01 155.05 137.066 155.286 135.182C154.704 135.056 153.921 134.938 153.525 134.582C153.058 134.197 153.118 133.468 153.879 133.399C152.689 133.163 152.685 131.87 153.826 131.767C152.968 131.489 152.958 130.565 153.605 130.257C153.958 130.07 154.551 130.124 154.975 130.133C156.051 130.13 157.149 130.149 158.253 130.132C164.176 125.716 175.627 129.079 179.96 134.333Z" fill="#171753"/>
<path d="M223.763 225.842C223.112 225.19 223.243 224.324 224.059 223.895C224.874 223.465 226.048 223.643 226.699 224.295C227.35 224.947 227.219 225.813 226.403 226.243C225.588 226.672 224.393 226.472 223.763 225.842Z" fill="#171753"/>
<path d="M235.475 224.022C235.79 224.421 236.105 224.819 236.316 225.239C237.147 226.694 237.379 228.298 236.541 229.703C235.354 231.59 232.657 232.546 230.015 232.975C229.29 234.785 229.29 234.785 229.29 234.785C229.105 235.181 228.29 235.113 228.181 234.672C227.784 234.981 227.301 234.704 227.154 234.35C227.012 234.79 226.252 234.526 226.208 234.151C226.171 233.905 226.193 233.594 226.204 233.356C222.801 233.522 219.376 233.335 215.946 233.183C217.778 233.147 224.671 232.57 226.281 232.353C227.966 232.129 229.651 231.905 231.196 231.456C232.479 231.079 233.974 230.457 234.481 229.427C234.971 228.504 234.434 227.426 233.766 226.55C232.354 224.637 229.637 223.08 227.018 222.202C224.279 221.288 220.931 220.927 218.245 221.645C217.255 221.901 216.44 222.331 215.787 222.841C214.258 224.012 213.523 225.727 213.385 227.46C213.182 229.957 213.892 232.539 214.689 235.041C215.209 236.725 217.277 240.417 213.537 240.495C211.857 240.517 210.173 239.91 208.727 239.211C207.162 238.475 205.413 237.305 204.659 236.009C203.096 233.28 209.238 233.198 211.364 233.207C211.26 233.228 206.802 233.751 206.54 235.317C206.431 236.038 207.24 236.807 207.886 237.33C209.071 238.266 211.217 239.46 212.978 239.395C215.245 239.296 213.796 236.64 213.422 235.642C212.776 233.956 212.104 232.285 211.562 230.579C210.971 228.699 210.565 226.754 210.8 224.871C210.219 224.745 209.436 224.627 209.04 224.271C208.572 223.886 208.633 223.157 209.394 223.088C208.204 222.852 208.199 221.559 209.341 221.456C208.482 221.178 208.472 220.253 209.119 219.946C209.473 219.759 210.065 219.812 210.489 219.822C211.566 219.819 212.664 219.838 213.767 219.821C219.691 215.405 231.142 218.768 235.475 224.022Z" fill="#171753"/>
<path d="M454.554 275.887C450.39 270.739 445.982 271.72 434.471 269.268C424.675 267.062 414.389 267.062 404.838 269.759C395.287 272.21 389.409 273.926 385.246 278.339L380.103 281.035V291.822V292.067C380.347 299.176 386.225 306.04 397.981 310.943C409.736 315.845 422.471 316.581 434.716 313.639C452.104 309.472 460.676 300.892 460.921 292.067V291.576V281.28L454.554 275.887Z" fill="#171753"/>
<path d="M420.267 316.581C412.43 316.581 404.593 315.11 397.491 312.168C385.735 307.266 379.123 300.156 378.878 292.067V291.822V280.055L384.511 277.113C388.919 272.21 395.531 270.494 404.593 268.288C414.389 265.837 424.92 265.591 434.961 267.798C438.145 268.533 440.839 269.023 443.043 269.268C448.921 270.249 452.349 270.739 455.778 274.907L462.88 280.3V291.822C462.635 302.118 452.349 310.698 435.451 314.865C430.308 316.091 425.165 316.581 420.267 316.581ZM381.572 282.016V291.822C381.817 298.686 387.694 305.059 398.47 309.472C409.491 314.13 422.226 314.865 434.471 311.923C449.655 308.246 459.207 300.402 459.452 291.822V291.331V282.016L453.329 277.113C450.635 273.926 447.941 273.436 442.308 272.455C439.859 271.965 437.41 271.72 433.981 270.985C424.43 268.778 414.389 269.023 404.838 271.475C395.042 273.926 389.654 275.642 385.98 279.564L385.49 279.81L381.572 282.016Z" fill="#171753"/>
<path d="M449.166 264.365C465.085 273.435 465.085 288.389 449.166 297.459C433.247 306.529 407.777 306.529 391.858 297.459C375.939 288.389 375.939 273.435 391.858 264.365C407.777 255.295 433.492 255.295 449.166 264.365Z" fill="white"/>
<path d="M420.757 305.794C410.226 305.794 399.45 303.343 391.368 298.685C383.286 294.027 378.878 287.654 378.878 280.79C378.878 273.926 383.286 267.552 391.368 262.894C407.532 253.579 433.981 253.579 450.145 262.894C458.227 267.552 462.635 273.926 462.635 280.79C462.635 287.654 458.227 294.027 450.145 298.685C441.818 303.588 431.288 305.794 420.757 305.794ZM420.757 259.217C410.716 259.217 400.674 261.424 392.837 265.836C385.735 270.004 381.817 275.397 381.817 281.035C381.817 286.673 385.735 292.066 392.837 296.234C408.266 305.059 433.247 305.059 448.676 296.234C455.778 292.066 459.696 286.673 459.696 281.035C459.696 275.397 455.778 270.004 448.676 265.836C440.839 261.424 430.798 259.217 420.757 259.217Z" fill="#171753"/>
<path d="M440.593 270.984C429.572 265.345 411.694 265.345 400.674 270.984C389.653 276.622 389.653 285.692 400.674 291.085C411.694 296.724 429.572 296.724 440.593 291.085C451.614 285.447 451.614 276.377 440.593 270.984Z" fill="#171753"/>
<path d="M420.756 296.724C413.164 296.724 405.817 295.253 400.185 292.311C394.307 289.369 391.123 285.202 391.123 280.789C391.123 276.377 394.307 272.209 400.185 269.268C411.695 263.629 430.063 263.629 441.573 269.268C447.451 272.209 450.635 276.377 450.635 280.789C450.635 285.202 447.451 289.369 441.573 292.311C435.696 295.253 428.104 296.724 420.756 296.724ZM420.756 268.287C413.654 268.287 406.797 269.513 401.409 272.21C396.511 274.661 394.062 277.848 394.062 281.035C394.062 284.221 396.756 287.408 401.409 289.86C411.94 295.253 429.328 295.253 440.104 289.86C445.002 287.408 447.451 284.221 447.451 281.035C447.451 277.848 444.757 274.661 440.104 272.21C434.716 269.513 427.614 268.287 420.756 268.287Z" fill="#171753"/>
<path d="M440.595 276.868C429.574 271.23 411.696 271.23 400.675 276.868C396.757 278.829 394.063 281.281 393.083 283.977C394.308 286.674 396.757 289.125 400.675 291.086C411.696 296.725 429.574 296.725 440.595 291.086C444.513 289.125 447.207 286.674 448.187 283.977C447.207 281.526 444.513 279.074 440.595 276.868Z" fill="#FFE850"/>
<path d="M420.757 296.724C413.165 296.724 405.818 295.253 400.185 292.311C396.022 290.105 393.083 287.409 391.858 284.467L391.613 283.977L391.858 283.486C393.083 280.545 396.022 277.848 400.185 275.642C411.695 270.004 430.063 270.004 441.574 275.642C445.737 277.848 448.676 280.545 449.901 283.486L450.145 283.977L449.901 284.467C448.676 287.409 445.737 290.105 441.574 292.311C435.696 295.253 428.104 296.724 420.757 296.724ZM394.797 283.977C396.022 286.183 398.226 288.144 401.409 289.615C411.94 295.008 429.329 295.008 440.104 289.615C443.288 287.899 445.492 285.938 446.717 283.977C445.492 281.77 443.288 279.809 440.104 278.338C429.574 272.945 412.185 272.945 401.409 278.338C398.226 279.809 395.777 282.015 394.797 283.977Z" fill="#171753"/>
<path d="M449.41 298.685H447.206V307.51H449.41V298.685Z" fill="#FFE850"/>
<path d="M387.204 293.783H385V302.608H387.204V293.783Z" fill="#FFE850"/>
<path d="M425.41 267.061H423.206V272.7H425.41V267.061Z" fill="#FFE850"/>
<path d="M439.37 302.607H437.166V311.432H439.37V302.607Z" fill="#FFE850"/>
<path d="M436.92 245.98C432.756 240.832 428.348 241.813 416.838 239.361C407.041 237.155 396.755 237.155 387.204 239.851C377.653 242.303 371.775 244.019 367.612 248.431L362.469 251.128V261.914V262.159C362.714 269.268 368.591 276.132 380.347 281.035C392.102 285.938 404.837 286.674 417.082 283.732C434.471 279.564 443.042 270.984 443.287 262.159V261.669V251.373L436.92 245.98Z" fill="#171753"/>
<path d="M402.633 286.428C394.796 286.428 386.959 284.957 379.857 282.015C368.101 277.113 361.489 270.003 361.244 261.914V261.669V249.902L366.877 246.96C371.285 242.057 377.898 240.341 386.959 238.135C396.755 235.683 407.286 235.438 417.327 237.645C420.511 238.38 423.205 238.87 425.409 239.115C431.287 240.096 434.716 240.586 438.144 244.754L445.246 250.147V261.669C445.002 271.965 434.716 280.544 417.817 284.712C412.674 285.938 407.531 286.428 402.633 286.428ZM363.938 251.863V261.669C364.183 268.533 370.061 274.906 380.837 279.319C391.857 283.976 404.592 284.712 416.838 281.77C432.022 278.093 441.573 270.249 441.818 261.669V261.178V251.863L435.695 246.96C433.001 243.773 430.307 243.283 424.674 242.302C422.225 241.812 419.776 241.567 416.348 240.831C406.796 238.625 396.755 238.87 387.204 241.322C377.408 243.773 372.02 245.489 368.346 249.411L367.857 249.657L363.938 251.863Z" fill="#171753"/>
<path d="M402.878 274.17C425.195 274.17 443.287 263.744 443.287 250.882C443.287 238.02 425.195 227.593 402.878 227.593C380.561 227.593 362.469 238.02 362.469 250.882C362.469 263.744 380.561 274.17 402.878 274.17Z" fill="white"/>
<path d="M402.879 275.886C392.348 275.886 381.572 273.435 373.49 268.777C365.408 264.12 361 257.746 361 250.882C361 244.018 365.408 237.644 373.49 232.987C389.654 223.671 416.104 223.671 432.267 232.987C440.349 237.644 444.757 244.018 444.757 250.882C444.757 257.746 440.349 264.12 432.267 268.777C424.185 273.435 413.654 275.886 402.879 275.886ZM402.879 229.064C392.838 229.064 382.797 231.271 374.96 235.683C367.857 239.851 363.939 245.244 363.939 250.882C363.939 256.52 367.857 261.913 374.96 266.081C390.389 274.906 415.369 274.906 430.798 266.081C437.9 261.913 441.819 256.52 441.819 250.882C441.819 245.244 437.9 239.851 430.798 235.683C423.206 231.271 413.165 229.064 402.879 229.064Z" fill="#171753"/>
<path d="M422.961 240.832C411.941 235.194 394.063 235.194 383.042 240.832C372.021 246.47 372.021 255.541 383.042 260.934C394.063 266.572 411.941 266.572 422.961 260.934C433.982 255.541 433.982 246.47 422.961 240.832Z" fill="#171753"/>
<path d="M402.879 266.816C395.287 266.816 387.939 265.346 382.307 262.404C376.429 259.462 373.245 255.295 373.245 250.882C373.245 246.47 376.429 242.302 382.307 239.361C393.817 233.722 412.185 233.722 423.695 239.361C429.573 242.302 432.757 246.47 432.757 250.882C432.757 255.295 429.573 259.462 423.695 262.404C418.063 265.346 410.471 266.816 402.879 266.816ZM402.879 238.135C395.776 238.135 388.919 239.361 383.531 242.057C378.633 244.509 376.184 247.695 376.184 250.882C376.184 254.069 378.878 257.256 383.531 259.707C394.062 265.1 411.45 265.1 422.226 259.707C427.124 257.256 429.573 254.069 429.573 250.882C429.573 247.695 426.879 244.509 422.226 242.057C417.083 239.606 409.981 238.135 402.879 238.135Z" fill="#171753"/>
<path d="M422.962 246.959C411.941 241.321 394.063 241.321 383.042 246.959C379.124 248.921 376.43 251.372 375.45 254.069C376.675 256.765 379.124 259.217 383.042 261.178C394.063 266.816 411.941 266.816 422.962 261.178C426.88 259.217 429.574 256.765 430.554 254.069C429.574 251.372 426.88 248.921 422.962 246.959Z" fill="#FFEE81"/>
<path d="M402.879 266.816C395.287 266.816 387.94 265.345 382.307 262.404C378.144 260.197 375.205 257.501 373.98 254.559L373.735 254.069L373.98 253.578C375.205 250.637 378.144 247.94 382.307 245.734C393.818 240.096 412.185 240.096 423.696 245.734C427.859 247.94 430.798 250.637 432.023 253.578L432.268 254.069L432.023 254.559C430.798 257.501 427.859 260.197 423.696 262.404C418.063 265.345 410.471 266.816 402.879 266.816ZM377.164 254.069C378.389 256.275 380.593 258.236 383.776 259.707C394.307 265.1 411.696 265.1 422.471 259.707C425.655 257.991 427.859 256.03 429.084 254.069C427.859 251.862 425.655 249.901 422.471 248.43C411.94 243.037 394.552 243.037 383.776 248.43C380.348 249.901 378.144 251.862 377.164 254.069Z" fill="#171753"/>
<path d="M431.533 268.532H429.329V277.357H431.533V268.532Z" fill="#FFEE81"/>
<path d="M369.571 263.63H367.367V272.455H369.571V263.63Z" fill="#FFEE81"/>
<path d="M407.776 236.909H405.572V242.548H407.776V236.909Z" fill="#FFEE81"/>
<path d="M421.737 272.699H419.533V281.524H421.737V272.699Z" fill="#FFEE81"/>
<path d="M423.415 280.926C422.974 280.486 423.063 279.901 423.615 279.611C424.166 279.321 424.959 279.442 425.4 279.882C425.84 280.323 425.752 280.907 425.2 281.197C424.649 281.487 423.841 281.352 423.415 280.926Z" fill="#171753"/>
<path d="M431.899 280.519C431.756 280.236 431.543 279.967 431.33 279.698C429.733 279.836 426.793 280.112 427.819 280.112C428.844 280.112 429.817 280.973 430.175 281.404C430.627 281.995 430.99 282.723 430.659 283.345C430.316 284.041 429.305 284.461 428.438 284.715C427.394 285.018 426.255 285.169 425.116 285.32L425.116 285.32C424.029 285.467 419.369 285.856 418.131 285.88C420.449 285.983 422.764 286.11 425.064 285.997C425.057 286.158 425.042 286.368 425.067 286.534C425.097 286.787 425.611 286.965 425.707 286.668C425.806 286.907 426.132 287.094 426.401 286.885C426.474 287.183 427.025 287.229 427.15 286.961L427.64 285.74C429.426 285.451 431.249 284.805 432.051 283.532C432.618 282.584 432.461 281.501 431.899 280.519Z" fill="#171753"/>
<path d="M417.281 287.134C416.743 285.446 416.263 283.704 416.4 282.018L414.443 276.863C414.156 276.857 413.756 276.821 413.517 276.947C413.08 277.154 413.086 277.778 413.667 277.966C412.895 278.036 412.898 278.908 413.703 279.068C413.188 279.114 413.147 279.606 413.463 279.866C413.731 280.106 414.26 280.186 414.653 280.27C414.494 281.542 414.768 282.854 415.168 284.123C415.534 285.275 415.989 286.403 416.425 287.54C416.678 288.214 417.657 290.006 416.125 290.073C414.935 290.117 413.484 289.311 412.684 288.679C412.247 288.326 411.7 287.807 411.774 287.32C411.951 286.264 414.964 285.911 415.034 285.896C413.597 285.89 409.445 285.946 410.502 287.788C411.012 288.662 412.194 289.452 413.252 289.949C414.229 290.421 415.368 290.83 416.503 290.815C419.031 290.763 417.633 288.271 417.281 287.134Z" fill="#171753"/>
<path d="M404.829 251.735C404.389 251.295 404.477 250.71 405.029 250.42C405.58 250.13 406.373 250.25 406.814 250.691C407.255 251.131 407.166 251.716 406.614 252.006C406.063 252.296 405.255 252.161 404.829 251.735Z" fill="#171753"/>
<path d="M412.745 250.507C412.957 250.776 413.17 251.045 413.313 251.328C413.875 252.31 414.032 253.392 413.465 254.34C412.663 255.614 410.84 256.259 409.054 256.549C408.564 257.77 408.564 257.77 408.564 257.77C408.439 258.038 407.888 257.992 407.815 257.694C407.546 257.902 407.22 257.716 407.121 257.477C407.025 257.774 406.511 257.596 406.481 257.342C406.456 257.177 406.471 256.967 406.478 256.806C404.178 256.918 401.864 256.792 399.545 256.689C400.783 256.665 405.443 256.275 406.53 256.129C407.669 255.978 408.808 255.827 409.852 255.524C410.72 255.269 411.73 254.85 412.073 254.154C412.404 253.532 412.041 252.804 411.589 252.212C410.635 250.922 408.799 249.871 407.029 249.279C405.177 248.662 402.914 248.418 401.099 248.903C400.43 249.075 399.879 249.365 399.438 249.709C398.404 250.5 397.907 251.657 397.814 252.827C397.677 254.512 398.157 256.254 398.695 257.943C399.047 259.08 400.445 261.572 397.917 261.624C396.782 261.639 395.643 261.23 394.666 260.758C393.608 260.261 392.426 259.471 391.916 258.597C390.86 256.755 395.011 256.699 396.448 256.705C396.378 256.72 393.365 257.072 393.188 258.129C393.114 258.616 393.661 259.135 394.098 259.488C394.898 260.12 396.349 260.926 397.539 260.882C399.071 260.815 398.092 259.022 397.839 258.349C397.403 257.211 396.948 256.084 396.582 254.932C396.182 253.663 395.908 252.351 396.067 251.079C395.674 250.995 395.145 250.915 394.877 250.675C394.561 250.415 394.602 249.923 395.117 249.876C394.312 249.717 394.309 248.845 395.081 248.775C394.501 248.587 394.494 247.963 394.931 247.755C395.17 247.63 395.57 247.666 395.857 247.672C396.585 247.67 397.327 247.683 398.073 247.671C402.076 244.691 409.816 246.961 412.745 250.507Z" fill="#171753"/>
</svg>
