<svg width="533" height="515" viewBox="0 0 533 515" fill="none" xmlns="http://www.w3.org/2000/svg">
<path d="M447.412 119.363C437.771 99.237 440.04 78.0915 452.478 72.1329C464.917 66.1743 482.817 77.6591 492.457 97.7848C502.098 117.911 499.83 139.056 487.391 145.015C474.952 150.973 457.053 139.489 447.412 119.363Z" fill="#ECFFFE"/>
<path d="M463.238 111.342C455.346 90.4688 459.407 69.5932 472.308 64.7153C485.209 59.8375 502.065 72.8046 509.957 93.6782C517.849 114.552 513.789 135.427 500.888 140.305C487.987 145.183 471.13 132.216 463.238 111.342Z" fill="#ECFFFE"/>
<path d="M489.344 138.982C478.217 138.116 465.569 127.703 457.973 111.843C450.377 95.9829 450.199 79.6296 456.474 70.4034L455.449 68.2307L463.048 64.6013C475.485 58.6324 493.374 70.1286 503.043 90.2833C512.711 110.438 510.413 131.574 497.975 137.543L490.377 141.172L489.344 138.982Z" fill="#FF4141"/>
<path d="M503.623 90.0012C493.842 69.5761 475.563 57.9033 462.773 64.0395L454.594 67.951L455.742 70.3687C449.389 80.0705 450.031 96.7806 457.401 112.143C464.77 127.506 477.37 138.467 488.924 139.599L490.072 142.017L498.25 138.105C510.987 131.991 513.396 110.408 503.623 90.0012ZM456.308 68.5722L463.355 65.192C475.458 59.3828 493.095 70.7298 502.491 90.5327C511.888 110.335 509.824 131.121 497.692 136.858L490.637 140.22L489.716 138.3L489.35 138.282C478.147 137.385 465.76 126.632 458.513 111.514C451.266 96.3965 450.645 79.9941 456.968 70.7275L457.181 70.4279L456.308 68.5722Z" fill="#171753"/>
<path d="M490.424 141.132C502.868 135.181 505.104 113.944 495.498 93.8903C485.892 73.8363 467.955 62.2754 455.503 68.2083C443.051 74.1412 440.823 95.3961 450.429 115.45C460.034 135.504 477.932 147.123 490.424 141.132Z" fill="#FFA6A6"/>
<path d="M452.192 114.608C442.551 94.4824 444.819 73.3368 457.258 67.3783C469.697 61.4197 487.596 72.9044 497.237 93.0302C506.878 113.156 504.609 134.302 492.17 140.26C479.732 146.219 461.832 134.734 452.192 114.608Z" fill="#FFA6A6"/>
<path d="M496.096 93.6001C486.316 73.175 468.044 61.5203 455.246 67.6384C442.449 73.7565 440.093 95.3172 449.82 115.765C459.546 136.212 477.879 147.863 490.67 141.727C503.46 135.59 505.804 114.055 496.096 93.6001ZM451.041 115.196C441.566 95.405 443.709 74.6077 455.822 68.878C467.936 63.1484 485.562 74.4158 494.966 94.2367C504.37 114.058 502.299 134.825 490.167 140.562C478.035 146.299 460.438 134.999 450.969 115.226L451.041 115.196Z" fill="#171753"/>
<path d="M454.956 113.283C447.257 97.2099 448.602 80.5458 457.96 76.0629C467.318 71.58 481.146 80.9759 488.846 97.0493C496.546 113.123 495.201 129.787 485.843 134.27C476.484 138.753 462.656 129.357 454.956 113.283Z" fill="#ECFFFE"/>
<path d="M489.438 96.7984C481.582 80.4123 467.35 70.8659 457.676 75.5015C448.002 80.1372 446.536 97.2128 454.421 113.566C462.305 129.919 476.44 139.485 486.129 134.885C495.818 130.286 497.268 113.174 489.438 96.7984ZM455.497 112.952C447.978 97.2284 449.189 80.9131 458.21 76.5895C467.232 72.2658 480.704 81.5567 488.241 97.2727C495.777 112.989 494.556 129.329 485.535 133.653C476.513 137.977 463.071 128.758 455.563 113.009L455.497 112.952Z" fill="#171753"/>
<path d="M454.947 113.306C447.243 97.2368 448.601 80.5646 457.988 76.1534C458.826 75.7634 459.71 75.4826 460.619 75.318C453.422 81.2941 452.911 96.391 459.913 111.019C466.915 125.647 479.033 134.78 488.181 132.853C487.477 133.452 486.703 133.963 485.877 134.377C476.49 138.788 462.658 129.393 454.947 113.306Z" fill="#FF4141"/>
<path d="M489.198 131.842L488.013 132.142C479.056 133.968 467.208 124.724 460.463 110.665C453.717 96.6065 453.961 81.578 461.001 75.7306L462.135 74.7969L460.451 74.6066C459.491 74.7811 458.557 75.0821 457.676 75.5016C448.02 80.1298 446.536 97.2128 454.421 113.566C462.305 129.919 476.44 139.485 486.129 134.885C487.001 134.444 487.818 133.9 488.563 133.266L489.198 131.842ZM455.563 113.009C448.044 97.2856 449.254 80.9703 458.276 76.6467L458.366 76.6094C452.599 83.7463 452.861 97.7 459.339 111.215C465.817 124.729 476.524 133.665 485.701 133.647L485.593 133.692C476.489 138.071 463.071 128.758 455.563 113.009Z" fill="#171753"/>
<path d="M453.014 108.278L457.806 105.979L455.456 97.1332L455.06 87.5L457.351 79.3099L460.582 75.2283L456.192 76.9177L452.319 81.7931L450.317 88.1319L450.176 97.0794L452.361 106.902L453.014 108.278Z" fill="#171753"/>
<path d="M497.264 98.0579L505 94.3508L507.719 103.678L509.261 113.174L507.905 124.44L503.834 132.923L500.061 136.511L493.96 139.268L499.709 131.526L501.347 120.735L499.921 106.418L497.264 98.0579Z" fill="#171753"/>
<path d="M462.461 94.3323C462.195 86.2507 471.537 90.2915 474 98.684C476.414 93.2962 485.877 99.6424 485.563 108.553C485.346 114.951 475.207 119.898 474.048 120.416C472.817 118.422 462.678 100.989 462.461 94.3323Z" fill="#FFA6A6"/>
<path d="M474.011 120.417L473.794 120.417L473.432 120.417L472.997 119.64C471.163 116.558 461.652 100.032 461.434 93.2452C461.29 88.8677 463.655 88.0647 464.669 87.7798C467.687 87.2359 472.153 90.37 474.325 95.421C474.907 94.9598 475.582 94.6536 476.296 94.5275C477.009 94.4014 477.74 94.459 478.429 94.6958C480.889 95.5974 483.013 97.3275 484.483 99.6285C485.953 101.929 486.691 104.678 486.588 107.466C486.347 114.123 477.15 119.018 474.711 120.184L474.542 120.417L474.011 120.417ZM463.486 93.064C463.655 98.0632 470.221 110.652 474.398 117.827C478.405 115.781 484.392 111.636 484.536 107.284C484.608 105.001 484.007 102.751 482.82 100.854C481.633 98.9569 479.919 97.5092 477.922 96.7162C477.37 96.473 476.754 96.4575 476.193 96.6728C475.631 96.888 475.164 97.3187 474.88 97.8818L473.746 100.472L472.973 97.8818C471.404 92.4941 467.107 89.5412 464.959 89.9297C463.631 90.1628 463.39 91.8206 463.438 93.1417L463.486 93.064Z" fill="#171753"/>
<path d="M447.078 220.941C437.329 200.59 439.623 179.208 452.201 173.183C464.779 167.158 482.879 178.771 492.627 199.122C502.376 219.473 500.082 240.855 487.504 246.88C474.926 252.906 456.827 241.292 447.078 220.941Z" fill="#ECFFFE"/>
<path d="M463.081 212.831C455.101 191.724 459.207 170.615 472.252 165.682C485.298 160.75 502.343 173.862 510.323 194.969C518.304 216.076 514.198 237.186 501.152 242.118C488.107 247.051 471.062 233.938 463.081 212.831Z" fill="#ECFFFE"/>
<path d="M489.479 240.78C478.228 239.905 465.438 229.375 457.757 213.337C450.076 197.3 449.896 180.763 456.242 171.434L455.205 169.237L462.888 165.567C475.465 159.531 493.554 171.156 503.331 191.536C513.108 211.917 510.784 233.289 498.207 239.325L490.524 242.995L489.479 240.78Z" fill="#5ED9D1"/>
<path d="M503.918 191.251C494.028 170.598 475.544 158.794 462.611 164.999L454.341 168.954L455.501 171.399C449.077 181.209 449.727 198.107 457.178 213.641C464.63 229.176 477.371 240.259 489.054 241.404L490.215 243.849L498.485 239.894C511.364 233.711 513.8 211.887 503.918 191.251ZM456.074 169.582L463.2 166.164C475.437 160.29 493.272 171.764 502.774 191.789C512.275 211.813 510.189 232.831 497.921 238.633L490.787 242.032L489.856 240.09L489.485 240.073C478.157 239.166 465.631 228.292 458.303 213.005C450.975 197.718 450.347 181.132 456.74 171.762L456.957 171.459L456.074 169.582Z" fill="#171753"/>
<path d="M490.571 242.955C503.155 236.937 505.415 215.463 495.702 195.184C485.989 174.906 467.851 163.215 455.26 169.215C442.668 175.214 440.415 196.707 450.128 216.985C459.841 237.264 477.94 249.013 490.571 242.955Z" fill="#BEF0ED"/>
<path d="M451.911 216.133C442.162 195.782 444.456 174.4 457.034 168.375C469.612 162.35 487.712 173.963 497.46 194.314C507.209 214.665 504.915 236.047 492.337 242.073C479.759 248.098 461.66 236.484 451.911 216.133Z" fill="#BEF0ED"/>
<path d="M496.307 194.89C486.417 174.237 467.941 162.452 455 168.638C442.059 174.825 439.677 196.627 449.513 217.303C459.348 237.979 477.886 249.76 490.82 243.555C503.753 237.351 506.124 215.574 496.307 194.89ZM450.748 216.728C441.166 196.716 443.333 175.685 455.582 169.892C467.832 164.098 485.655 175.491 495.164 195.534C504.673 215.577 502.579 236.577 490.311 242.378C478.043 248.179 460.249 236.752 450.675 216.758L450.748 216.728Z" fill="#171753"/>
<path d="M454.707 214.794C446.921 198.541 448.281 181.69 457.744 177.157C467.207 172.624 481.19 182.125 488.976 198.378C496.761 214.632 495.402 231.482 485.939 236.015C476.476 240.549 462.493 231.047 454.707 214.794Z" fill="#ECFFFE"/>
<path d="M489.574 198.124C481.63 181.555 467.239 171.902 457.457 176.589C447.675 181.277 446.192 198.543 454.165 215.08C462.138 231.616 476.431 241.288 486.228 236.637C496.025 231.986 497.492 214.683 489.574 198.124ZM455.253 214.458C447.651 198.559 448.875 182.061 457.997 177.689C467.12 173.317 480.743 182.712 488.364 198.604C495.984 214.496 494.75 231.019 485.627 235.391C476.505 239.763 462.912 230.441 455.32 214.516L455.253 214.458Z" fill="#171753"/>
<path d="M454.697 214.817C446.907 198.568 448.28 181.709 457.772 177.248C458.619 176.854 459.514 176.57 460.433 176.404C453.155 182.447 452.638 197.713 459.719 212.504C466.799 227.296 479.053 236.531 488.303 234.583C487.591 235.188 486.809 235.705 485.973 236.124C476.481 240.584 462.495 231.084 454.697 214.817Z" fill="#5ED9D1"/>
<path d="M489.332 233.56L488.134 233.864C479.076 235.711 467.096 226.362 460.275 212.146C453.454 197.931 453.7 182.734 460.819 176.821L461.966 175.877L460.263 175.684C459.292 175.861 458.348 176.165 457.457 176.589C447.693 181.269 446.192 198.544 454.165 215.08C462.138 231.616 476.431 241.289 486.228 236.638C487.11 236.191 487.936 235.641 488.689 235L489.332 233.56ZM455.32 214.517C447.717 198.617 448.941 182.119 458.064 177.747L458.155 177.71C452.323 184.926 452.588 199.036 459.138 212.702C465.689 226.368 476.516 235.404 485.796 235.386L485.686 235.431C476.48 239.859 462.912 230.442 455.32 214.517Z" fill="#171753"/>
<path d="M452.743 209.733L457.589 207.408L455.212 198.463L454.811 188.722L457.128 180.44L460.396 176.313L455.957 178.021L452.04 182.951L450.016 189.361L449.873 198.409L452.082 208.341L452.743 209.733Z" fill="#171753"/>
<path d="M497.488 199.398L505.311 195.65L508.059 205.081L509.62 214.684L508.248 226.076L504.132 234.654L500.317 238.282L494.147 241.069L499.96 233.241L501.616 222.329L500.175 207.852L497.488 199.398Z" fill="#171753"/>
<path d="M461.149 196.381C460.417 205.242 465.715 216.481 472.971 221.593C480.227 226.706 486.712 223.575 487.448 214.668C488.184 205.761 482.888 194.511 475.627 189.456C468.365 184.401 461.878 187.566 461.149 196.381Z" stroke="#171753" stroke-width="1.4" stroke-miterlimit="10"/>
<path d="M467.961 200.557C467.905 202.536 468.316 204.502 469.16 206.293C470.004 208.085 471.258 209.653 472.821 210.87C475.809 212.938 478.466 211.671 478.765 208.053C478.826 206.072 478.418 204.106 477.573 202.313C476.729 200.521 475.472 198.954 473.906 197.74C470.934 195.623 468.266 196.865 467.961 200.557Z" fill="#171753"/>
<path d="M467.777 197.542C467.753 198.368 467.924 199.188 468.275 199.936C468.626 200.684 469.149 201.339 469.8 201.847C471.054 202.707 472.163 202.179 472.288 200.666C472.314 199.84 472.142 199.02 471.788 198.273C471.434 197.526 470.908 196.875 470.252 196.372C469.011 195.501 467.902 196.029 467.777 197.542Z" fill="#ECFFFE"/>
<path d="M446.89 323.381C437.081 302.903 439.389 281.387 452.045 275.325C464.702 269.262 482.914 280.947 492.723 301.425C502.533 321.903 500.225 343.419 487.568 349.482C474.912 355.544 456.7 343.859 446.89 323.381Z" fill="#ECFFFE"/>
<path d="M462.993 315.22C454.963 293.981 459.094 272.74 472.221 267.777C485.348 262.814 502.499 276.008 510.53 297.247C518.56 318.486 514.428 339.727 501.301 344.69C488.175 349.653 471.023 336.459 462.993 315.22Z" fill="#ECFFFE"/>
<path d="M489.555 343.343C478.234 342.462 465.365 331.867 457.636 315.73C449.907 299.592 449.726 282.953 456.111 273.565L455.067 271.354L462.799 267.661C475.454 261.588 493.656 273.285 503.494 293.793C513.332 314.3 510.993 335.806 498.338 341.879L490.607 345.572L489.555 343.343Z" fill="#FFE850"/>
<path d="M504.084 293.506C494.133 272.723 475.534 260.846 462.52 267.09L454.198 271.07L455.366 273.53C448.902 283.401 449.555 300.404 457.053 316.035C464.552 331.667 477.372 342.819 489.128 343.971L490.296 346.431L498.618 342.451C511.577 336.23 514.028 314.27 504.084 293.506ZM455.942 271.702L463.112 268.262C475.426 262.352 493.372 273.897 502.933 294.046C512.494 314.196 510.394 335.345 498.05 341.182L490.872 344.603L489.935 342.649L489.562 342.632C478.163 341.719 465.559 330.778 458.185 315.395C450.811 300.013 450.18 283.323 456.613 273.895L456.83 273.59L455.942 271.702Z" fill="#171753"/>
<path d="M490.654 345.531C503.317 339.476 505.591 317.868 495.817 297.463C486.044 277.058 467.793 265.295 455.123 271.332C442.453 277.368 440.186 298.995 449.959 319.4C459.733 339.805 477.944 351.627 490.654 345.531Z" fill="#FFEE81"/>
<path d="M451.753 318.543C441.944 298.065 444.252 276.55 456.908 270.487C469.565 264.424 487.777 276.11 497.587 296.587C507.396 317.065 505.088 338.581 492.432 344.644C479.775 350.707 461.563 339.021 451.753 318.543Z" fill="#FFEE81"/>
<path d="M496.426 297.167C486.474 276.385 467.883 264.526 454.861 270.752C441.84 276.977 439.443 298.915 449.34 319.72C459.237 340.525 477.89 352.379 490.905 346.136C503.919 339.892 506.304 317.98 496.426 297.167ZM450.583 319.141C440.941 299.004 443.122 277.843 455.448 272.013C467.774 266.183 485.708 277.647 495.276 297.815C504.844 317.983 502.737 339.114 490.393 344.951C478.049 350.789 460.144 339.29 450.51 319.172L450.583 319.141Z" fill="#171753"/>
<path d="M454.567 317.195C446.732 300.841 448.101 283.885 457.623 279.323C467.145 274.762 481.215 284.322 489.049 300.677C496.883 317.032 495.515 333.987 485.993 338.549C476.471 343.11 462.401 333.55 454.567 317.195Z" fill="#ECFFFE"/>
<path d="M489.651 300.422C481.658 283.749 467.177 274.035 457.333 278.752C447.49 283.469 445.999 300.843 454.022 317.482C462.044 334.122 476.426 343.855 486.284 339.175C496.143 334.495 497.619 317.084 489.651 300.422ZM455.116 316.858C447.466 300.859 448.698 284.258 457.877 279.859C467.057 275.46 480.765 284.913 488.433 300.904C496.101 316.895 494.859 333.522 485.68 337.921C476.5 342.32 462.823 332.94 455.184 316.916L455.116 316.858Z" fill="#171753"/>
<path d="M454.557 317.218C446.718 300.868 448.1 283.904 457.651 279.415C458.503 279.019 459.403 278.733 460.329 278.565C453.005 284.646 452.485 300.007 459.61 314.891C466.734 329.775 479.065 339.068 488.373 337.107C487.656 337.716 486.869 338.237 486.028 338.658C476.477 343.146 462.403 333.586 454.557 317.218Z" fill="#FFE850"/>
<path d="M489.407 336.078L488.202 336.383C479.088 338.242 467.033 328.835 460.169 314.531C453.306 300.226 453.554 284.935 460.717 278.985L461.871 278.035L460.158 277.841C459.18 278.019 458.23 278.325 457.333 278.752C447.509 283.461 445.999 300.843 454.021 317.482C462.044 334.122 476.426 343.855 486.284 339.175C487.172 338.725 488.003 338.172 488.761 337.527L489.407 336.078ZM455.183 316.916C447.533 300.917 448.765 284.316 457.944 279.917L458.036 279.879C452.168 287.141 452.434 301.339 459.026 315.09C465.617 328.841 476.511 337.933 485.849 337.915L485.739 337.961C476.475 342.416 462.823 332.94 455.183 316.916Z" fill="#171753"/>
<path d="M452.591 312.102L457.466 309.763L455.075 300.763L454.672 290.961L457.003 282.627L460.291 278.474L455.824 280.193L451.883 285.154L449.846 291.604L449.703 300.708L451.925 310.702L452.591 312.102Z" fill="#171753"/>
<path d="M497.615 301.703L505.486 297.931L508.252 307.421L509.822 317.084L508.441 328.547L504.3 337.179L500.46 340.829L494.252 343.634L500.102 335.757L501.768 324.777L500.318 310.21L497.615 301.703Z" fill="#171753"/>
<path d="M489.492 319.643C489.526 319.285 489.541 318.912 489.544 318.528C489.544 311.757 484.893 301.402 478.767 297.878C478.341 297.633 477.897 297.418 477.441 297.236C476.671 296.246 475.924 295.215 475.182 294.226C474.897 293.832 474.525 293.258 474.152 293.043C473.471 292.652 472.866 293.205 473.259 294.14C473.148 294.007 473.015 293.894 472.866 293.806C472.164 293.398 471.608 294.111 472.164 295.155C472.08 295.052 471.979 294.964 471.865 294.894C471.417 294.633 471.055 294.986 471.102 295.526C471.15 296.066 471.585 296.888 471.889 297.497C470.424 298.395 469.355 299.916 468.461 301.571C467.654 303.078 466.96 304.68 466.237 306.27C465.862 307.079 465.189 309.358 463.952 308.651C463.712 308.501 463.503 308.309 463.333 308.084C462.076 306.518 461.423 303.829 461.253 302.187C461.172 301.287 461.145 300.099 461.719 299.762C462.076 299.572 462.6 299.731 463.176 300.06C464.649 300.908 466.444 302.882 466.507 302.931C465.545 301.642 463.349 298.771 461.732 297.841C460.899 297.361 460.221 297.4 459.945 298.436C459.843 298.864 459.793 299.302 459.796 299.742C459.839 301.215 460.09 302.674 460.543 304.077C461.067 305.818 461.795 307.732 462.967 309.251C463.278 309.685 463.669 310.056 464.119 310.345C465.954 311.389 466.858 308.322 467.539 307.084C468.721 304.873 470.018 302.694 471.889 301.404C472.588 300.917 473.399 300.614 474.248 300.523C475.096 300.431 475.954 300.555 476.741 300.882C477.121 301.024 477.487 301.199 477.837 301.404C478.346 301.7 478.824 302.045 479.265 302.435C481.61 304.477 483.669 307.763 484.924 310.82C486.122 313.741 486.916 317.155 486.562 319.58C486.418 320.713 486.038 321.843 485.063 321.929C484.5 322.007 483.821 321.759 483.14 321.368C482.524 321 481.94 320.581 481.395 320.115C479.979 318.868 478.639 317.538 477.383 316.132C476.126 314.782 470.977 308.797 469.688 307.137C471.946 310.373 474.176 313.628 476.637 316.654C476.437 316.79 476.254 316.95 476.091 317.129C475.908 317.335 476.091 317.912 476.372 318.084C476.407 318.105 476.446 318.119 476.487 318.124C476.527 318.129 476.569 318.125 476.608 318.113C476.539 318.308 476.538 318.521 476.605 318.717C476.672 318.913 476.803 319.081 476.977 319.194C477.014 319.215 477.052 319.233 477.092 319.246C476.909 319.53 477.192 320.084 477.517 320.269C477.594 320.32 477.687 320.341 477.779 320.329L479.532 319.927C480.671 321.136 481.966 322.19 483.384 323.059C484.385 323.636 485.378 323.986 486.295 323.973C487.846 323.913 488.795 322.751 489.232 321.13C489.367 320.642 489.455 320.142 489.494 319.637L489.492 319.643ZM480.163 309.979C480.194 310.512 480.35 311.03 480.618 311.493C480.886 311.955 481.259 312.349 481.707 312.642C482.566 313.135 483.255 312.743 483.258 311.759C483.231 311.226 483.078 310.706 482.81 310.243C482.542 309.78 482.167 309.387 481.717 309.097C480.855 308.604 480.166 308.995 480.163 309.979Z" fill="#171753"/>
<path d="M46.8054 33.5204V34.2448L46.128 33.9879C41.9166 32.3903 38.2867 32.7463 35.7371 34.6213C33.1834 36.4994 31.59 39.9918 31.6514 44.9267V44.9329V45.1757C31.6514 50.6476 33.6489 56.721 36.8874 62.1286C40.1254 67.5354 44.5764 72.2306 49.4317 74.9712L49.4715 74.9937L49.5066 75.023L92.0748 110.618L92.3243 110.479L93.8018 109.657C95.0385 108.968 96.7214 108.031 98.506 107.037C102.075 105.049 106.051 102.833 107.679 101.923C110.725 100.22 112.683 96.5417 112.683 91.0684V90.7042C112.683 85.7688 111.055 80.3264 108.345 75.3262C105.635 70.3277 101.861 65.8048 97.609 62.6981L97.414 62.5557L97.4043 62.3144C97.0954 54.5888 94.1259 46.1424 89.5099 38.6543C84.8946 31.1671 78.6586 24.6794 71.8607 20.8446C64.9355 17.0089 58.7384 16.5872 54.3081 18.9055L39.661 27.0842L46.8348 29.4023L47.22 29.5268L47.1784 29.9294C47.1328 30.3717 47.0745 30.7944 47.0175 31.2068C46.9089 31.9938 46.8054 32.7435 46.8054 33.5204Z" fill="#5ED9D1" stroke="#171753"/>
<path d="M30.5253 42.2617C31.1515 27.3284 42.4231 21.5007 56.3246 29.2709C70.2262 37.0411 81.4977 55.4954 82.1239 71.1572C90.7654 77.4704 97.4031 89.49 97.4031 99.5669V99.9312C97.4031 111.101 89.3878 115.593 79.3686 110.008L33.2806 84.2693C23.3867 78.6845 15.3714 65.2081 15.3714 54.0384V53.6742C15.3714 43.5972 21.8838 38.9837 30.5253 42.2617Z" fill="#BEF0ED" stroke="#171753"/>
<path d="M338.435 9.96663V10.6911L337.758 10.4341C335.352 9.52158 333.319 9.73797 331.907 10.7758C330.492 11.8166 329.579 13.774 329.615 16.6031H329.615V16.6093V16.7506C329.615 19.8884 330.762 23.3865 332.632 26.5107C334.503 29.6342 337.07 32.3376 339.857 33.9112L339.897 33.9337L339.932 33.963L364.599 54.5892L364.619 54.5782L365.479 54.0994L368.217 52.5746C370.294 51.4174 372.608 50.1279 373.556 49.5982C375.24 48.656 376.361 46.6017 376.361 43.4626V43.2506C376.361 40.421 375.427 37.2874 373.861 34.3994C372.297 31.513 370.12 28.9057 367.673 27.1184L367.478 26.9759L367.468 26.7346C367.29 22.2819 365.577 17.4002 362.904 13.0645C360.232 8.72968 356.627 4.98204 352.708 2.77109C348.714 0.559161 345.186 0.340323 342.692 1.64382L334.588 6.16905L338.307 7.37085L338.693 7.49531L338.651 7.89793C338.623 8.17161 338.588 8.42487 338.554 8.66763C338.492 9.11561 338.435 9.52784 338.435 9.96663Z" fill="#5ED9D1" stroke="#171753"/>
<path d="M328.75 15.0546C329.115 6.36264 335.675 2.97064 343.767 7.4933C351.858 12.016 358.419 22.7573 358.783 31.8733C363.813 35.548 367.677 42.5439 367.677 48.4093V48.6213C367.677 55.1226 363.011 57.7373 357.18 54.4866L330.354 39.5053C324.595 36.2546 319.93 28.4106 319.93 21.9093V21.6973C319.93 15.832 323.72 13.1466 328.75 15.0546Z" fill="#BEF0ED" stroke="#171753"/>
<g opacity="0.9">
<g opacity="0.6">
<g opacity="0.6">
<path opacity="0.6" d="M113.183 367.409L73.5747 390.403L33.697 367.409L73.3212 344.415L113.183 367.409Z" fill="#5ED9D1"/>
</g>
</g>
<g opacity="0.6">
<g opacity="0.6">
<path opacity="0.6" d="M337.613 463.834L297.989 486.828L258.127 463.834L297.736 440.84L337.613 463.834Z" fill="#5ED9D1"/>
</g>
</g>
<g opacity="0.6">
<g opacity="0.6">
<path opacity="0.6" d="M199.457 436.247L159.833 459.241L119.971 436.247L159.579 413.253L199.457 436.247Z" fill="#5ED9D1"/>
</g>
</g>
<g opacity="0.6">
<g opacity="0.6">
<path opacity="0.6" d="M199.457 365.661L159.833 388.655L119.971 365.661L159.579 342.667L199.457 365.661Z" fill="#5ED9D1"/>
</g>
</g>
<g opacity="0.6">
<g opacity="0.6">
<path opacity="0.6" d="M366.858 392.227L295.742 433.513L224.141 392.227L295.258 350.942L366.858 392.227Z" fill="#5ED9D1"/>
</g>
</g>
<g opacity="0.3">
<g opacity="0.3">
<path opacity="0.3" d="M47.5504 463.842L24.134 477.42L0.574951 463.842L23.9756 450.248L47.5504 463.842Z" fill="#5ED9D1"/>
</g>
</g>
<g opacity="0.3">
<g opacity="0.3">
<path opacity="0.3" d="M363.459 501.237L340.059 514.83L316.484 501.237L339.9 487.659L363.459 501.237Z" fill="#5ED9D1"/>
</g>
</g>
<g opacity="0.3">
<g opacity="0.3">
<path opacity="0.3" d="M117.136 288.12L93.7193 301.698L70.1603 288.12L93.5767 274.526L117.136 288.12Z" fill="#5ED9D1"/>
</g>
</g>
<g opacity="0.3">
<g opacity="0.3">
<path opacity="0.3" d="M339.972 251.231L316.571 264.809L292.996 251.231L316.413 237.638L339.972 251.231Z" fill="#5ED9D1"/>
</g>
</g>
<g opacity="0.9">
<g opacity="0.6">
<path opacity="0.3" d="M281.615 433.504L258.199 447.098L234.64 433.504L258.04 419.927L281.615 433.504Z" fill="#5ED9D1"/>
</g>
</g>
<g opacity="0.3">
<g opacity="0.3">
<path opacity="0.3" d="M413.834 318.52L390.417 332.114L366.858 318.52L390.259 304.926L413.834 318.52Z" fill="#5ED9D1"/>
</g>
</g>
<g opacity="0.3">
<g opacity="0.3">
<path opacity="0.3" d="M123.695 479.398L100.279 492.976L76.7198 479.398L100.136 465.805L123.695 479.398Z" fill="#5ED9D1"/>
</g>
</g>
<g opacity="0.3">
<path opacity="0.3" d="M328.685 429.623L378.037 401.169L427.057 429.623L377.705 458.077L328.685 429.623Z" fill="#5ED9D1"/>
<g opacity="0.3">
<g opacity="0.3">
<path opacity="0.3" d="M328.685 429.623L378.021 401.169L427.041 429.623L377.705 458.077L328.685 429.623ZM423.777 429.623L378.021 403.068L331.965 429.623L377.72 456.178L423.777 429.623Z" fill="#5ED9D1"/>
</g>
</g>
</g>
<g opacity="0.3">
<path opacity="0.3" d="M328.701 357.412L378.053 328.942L427.073 357.412L377.737 385.865L328.701 357.412Z" fill="#5ED9D1"/>
<g opacity="0.3">
<g opacity="0.3">
<path opacity="0.3" d="M328.701 357.414L378.038 328.961L427.057 357.414L377.737 385.868L328.701 357.414ZM423.793 357.414L378.038 330.86L331.981 357.414L377.737 383.969L423.793 357.414Z" fill="#5ED9D1"/>
</g>
</g>
</g>
<g opacity="0.3">
<path opacity="0.3" d="M433.861 357.867L483.213 329.397L532.232 357.867L482.896 386.32L433.861 357.867Z" fill="#5ED9D1"/>
<g opacity="0.3">
<g opacity="0.3">
<path opacity="0.3" d="M433.861 357.869L483.197 329.416L532.216 357.869L482.896 386.323L433.861 357.869ZM528.953 357.869L483.197 331.315L437.14 357.869L482.896 384.424L528.953 357.869Z" fill="#5ED9D1"/>
</g>
</g>
</g>
<g opacity="0.3">
<path opacity="0.3" d="M324.997 296.671L374.349 268.217L423.368 296.671L374.032 325.124L324.997 296.671Z" fill="#5ED9D1"/>
<g opacity="0.3">
<g opacity="0.3">
<path opacity="0.3" d="M324.997 296.671L374.333 268.217L423.352 296.671L374.016 325.124L324.997 296.671ZM420.104 296.671L374.349 270.116L328.292 296.671L374.048 323.225L420.104 296.671Z" fill="#5ED9D1"/>
</g>
</g>
</g>
</g>
<path d="M275.545 395.803C284.582 401.073 299.465 401.073 308.767 395.803C317.804 390.533 318.07 382.101 308.767 376.831C299.731 371.561 284.847 371.561 275.545 376.831C266.243 382.101 266.243 390.533 275.545 395.803Z" fill="#171753"/>
<path d="M272.621 383.42H311.425V384.474H272.621V383.42Z" fill="#171753"/>
<path d="M275.545 394.486C284.582 399.756 299.465 399.756 308.767 394.486C317.804 389.215 318.07 380.783 308.767 375.513C299.731 370.243 284.847 370.243 275.545 375.513C266.243 380.783 266.243 389.215 275.545 394.486Z" fill="#5ED9D1"/>
<path d="M283.519 388.426C288.037 391.061 295.744 391.061 300.263 388.426C305.047 385.791 305.047 381.312 300.263 378.677C295.744 376.042 288.037 376.042 283.519 378.677C279 381.575 279 385.791 283.519 388.426Z" fill="#BEF0ED"/>
<path d="M306.641 371.034C310.894 368.662 313.286 365.237 313.286 361.548C313.286 357.859 310.894 354.697 306.907 352.325C298.668 347.582 285.911 347.582 277.937 352.325C273.685 354.697 271.293 358.122 271.293 361.811C271.293 365.5 273.685 368.662 277.671 371.034C281.658 373.405 286.974 374.459 292.023 374.459C297.073 374.459 302.389 373.405 306.641 371.034ZM305.047 355.224C308.236 357.068 309.831 359.176 309.831 361.548C309.831 363.919 308.236 366.291 305.047 367.872C297.871 371.824 286.442 372.088 279.266 367.872C276.077 366.027 274.482 363.919 274.482 361.548C274.482 359.176 276.077 356.805 279.266 355.224C282.721 353.116 287.505 352.062 292.289 352.062C296.807 352.325 301.326 353.379 305.047 355.224Z" fill="#5ED9D1"/>
<path d="M306.11 369.453C310.096 367.345 312.223 364.183 312.223 361.021C312.223 357.859 310.096 354.96 306.376 352.589C298.668 348.109 286.176 348.109 278.203 352.589C274.216 354.697 272.09 357.859 272.09 361.021C272.09 364.183 274.216 367.082 277.937 369.453C281.658 371.561 286.708 372.879 292.024 372.879C297.073 372.879 302.123 371.825 306.11 369.453ZM305.312 353.906C308.768 355.751 310.628 358.386 310.628 361.021C310.628 363.656 308.768 366.291 305.312 368.399C297.871 372.615 285.911 372.615 278.735 368.399C275.279 366.555 273.419 363.92 273.419 361.285C273.419 358.649 275.279 356.014 278.735 353.906C282.455 351.798 287.24 350.744 292.289 350.744C297.073 350.744 301.857 351.798 305.312 353.906Z" fill="#BEF0ED"/>
<path d="M287.771 286.978V383.157C287.771 383.684 288.303 384.474 289.1 385.001C290.695 386.055 293.618 386.055 295.213 385.001C296.01 384.474 296.542 383.947 296.542 383.157V286.978H287.771Z" fill="#5ED9D1"/>
<path d="M292.023 374.461C286.708 374.461 281.658 373.407 277.671 371.036C273.419 368.664 271.293 365.239 271.293 361.813C271.293 358.124 273.685 354.962 277.937 352.327L279.532 355.226C276.342 357.07 274.748 359.178 274.748 361.55C274.748 363.921 276.342 366.029 279.532 367.874C286.708 371.826 298.136 371.826 305.312 367.874C308.502 366.029 310.096 363.921 310.096 361.55C310.096 359.178 308.502 357.07 305.312 355.226L306.907 352.327C311.159 354.699 313.286 358.124 313.286 361.55C313.286 365.239 310.894 368.401 306.641 371.036C302.389 373.407 297.073 374.461 292.023 374.461Z" fill="#5ED9D1"/>
<path d="M292.024 372.881C286.974 372.881 281.924 371.827 277.937 369.455C274.216 367.347 272.09 364.185 272.09 361.023C272.09 357.861 274.216 354.699 278.203 352.591L279 353.645C275.545 355.753 273.685 358.124 273.685 361.023C273.685 363.658 275.545 366.293 279 368.137C286.442 372.354 298.402 372.354 305.578 368.137C309.033 366.029 310.894 363.658 310.894 360.759C310.894 358.124 309.033 355.489 305.578 353.645L306.376 352.591C310.096 354.699 312.223 357.861 312.223 361.023C312.223 364.185 310.096 367.347 306.11 369.455C302.123 371.827 297.073 372.881 292.024 372.881Z" fill="#BEF0ED"/>
<path d="M288.834 288.823C290.429 289.877 293.352 289.877 294.947 288.823C296.542 287.769 296.807 286.188 294.947 285.398C293.352 284.344 290.429 284.344 288.834 285.398C287.239 286.188 287.239 287.769 288.834 288.823Z" fill="#171753"/>
<path d="M286.442 342.578V330.194H287.771L288.037 329.93C290.163 328.613 293.884 328.613 296.01 329.93C296.276 329.93 296.276 330.194 296.542 330.194H297.87V342.578C297.87 343.369 297.339 344.159 296.276 344.95C294.15 346.267 290.429 346.267 288.302 344.95C286.974 344.423 286.442 343.369 286.442 342.578Z" fill="#171753"/>
<path d="M288.036 332.565C290.163 333.883 293.884 333.883 296.01 332.565C298.136 331.248 298.136 329.403 296.01 328.086C293.884 326.768 290.163 326.768 288.036 328.086C285.91 329.403 285.91 331.248 288.036 332.565Z" fill="#171753"/>
<path d="M287.239 329.666V307.005H288.302L288.568 306.741C290.429 305.687 293.352 305.687 295.213 306.741L295.478 307.005H296.542V329.666C296.542 330.457 296.01 330.984 295.213 331.511C293.352 332.565 290.429 332.565 288.568 331.511C287.771 330.984 287.239 330.193 287.239 329.666Z" fill="#5ED9D1"/>
<path d="M253.22 300.153V293.038H261.99C262.788 292.511 263.585 291.984 264.648 291.457C279.797 282.762 304.249 282.762 319.398 291.457C320.462 291.984 321.259 292.511 322.056 293.302H330.827V300.416C330.827 305.95 326.84 311.747 319.398 315.963C304.249 324.659 279.797 324.659 264.648 315.963C256.941 311.747 253.22 305.95 253.22 300.153Z" fill="#171753"/>
<path d="M253.22 295.938V288.823H261.99C262.788 288.296 263.585 287.769 264.648 287.242C279.797 278.546 304.249 278.546 319.398 287.242C320.462 287.769 321.259 288.296 322.056 289.086H330.827V296.201C330.827 301.735 326.84 307.532 319.398 311.748C304.249 320.443 279.797 320.443 264.648 311.748C256.941 307.268 253.22 301.735 253.22 295.938Z" fill="#FFA54B"/>
<path d="M264.648 304.633C279.797 313.328 304.249 313.328 319.398 304.633C334.547 295.937 334.547 281.971 319.664 273.276C304.514 264.58 280.063 264.58 264.913 273.276C249.498 281.971 249.498 295.937 264.648 304.633Z" fill="#FFC78F"/>
<path d="M318.069 272.749C303.717 264.581 280.595 264.581 266.243 272.749C251.891 280.918 251.891 294.356 265.977 302.525C280.329 310.694 303.452 310.694 317.804 302.525C332.156 294.356 332.421 280.918 318.069 272.749Z" fill="#FFA54B"/>
<path d="M331.143 288.736C331.081 282.977 327.251 277.304 319.841 272.974L319.838 272.973L319.838 272.973C316.19 270.879 312.014 269.288 307.565 268.197C296.394 265.261 283.211 265.684 272.613 269.472C269.807 270.418 267.158 271.585 264.741 272.972C257.186 277.234 253.224 282.8 252.981 288.473H252.87V288.823V300.154C252.87 306.116 256.698 312.013 264.477 316.269C270.801 319.898 278.715 322.018 286.889 322.641V328.55C286.508 328.946 286.253 329.383 286.147 329.843H286.092V330.193V342.578C286.092 343.335 286.498 344.25 287.421 344.878V348.772C283.895 349.287 280.547 350.368 277.762 352.024C273.442 354.435 270.943 357.958 270.943 361.813C270.943 362.649 271.06 363.459 271.288 364.24C271.288 364.24 271.288 364.24 271.288 364.24L271.624 364.143C272.372 366.745 274.388 369.205 277.671 371.036L331.143 288.736ZM331.143 288.736H331.177V289.086V300.417C331.177 306.125 327.073 312.018 319.572 316.268C313.18 319.937 305.161 322.063 296.892 322.66V328.297C297.421 328.759 297.771 329.283 297.9 329.843H298.22V330.193V342.578C298.22 343.412 297.733 344.187 296.892 344.906V348.723C300.573 349.216 304.11 350.314 307.079 352.023C310.424 353.888 312.512 356.414 313.291 359.123C313.518 359.904 313.636 360.714 313.636 361.55C313.636 365.406 311.135 368.931 306.812 371.341C305.768 371.924 304.662 372.427 303.515 372.855C305.465 373.468 307.297 374.253 308.942 375.212C313.91 378.027 316.279 381.792 315.968 385.586C316.284 389.429 313.835 393.255 308.944 396.107L308.94 396.11C304.224 398.781 298.115 400.108 292.057 400.108C286 400.108 279.955 398.782 275.371 396.109C270.372 393.276 267.927 389.481 268.246 385.66C267.927 381.839 270.372 378.044 275.373 375.211C277.016 374.28 278.829 373.512 280.747 372.908C279.606 372.467 278.518 371.946 277.496 371.339L331.143 288.736ZM304.884 367.564L304.891 367.56C308.002 366.018 309.48 363.748 309.48 361.55C309.48 359.365 308.019 357.352 304.881 355.534C302.486 354.348 299.75 353.492 296.892 352.967V370.176C297.204 370.131 297.515 370.082 297.823 370.028C300.401 369.528 302.821 368.7 304.878 367.567L304.884 367.564ZM287.421 352.79C284.651 353.228 282.061 354.047 279.938 355.238L280.004 355.357L279.707 355.529C276.562 357.348 275.098 359.363 275.098 361.55C275.098 363.736 276.561 365.75 279.704 367.569C281.936 368.798 284.596 369.642 287.421 370.095V352.79Z" stroke="#171753" stroke-width="0.7"/>
<path d="M250.743 198.958L250.744 198.954C251.009 191.862 250.478 185.056 249.164 180.362C247.051 174.212 243.615 168.182 240.7 163.683C239.243 161.434 237.918 159.57 236.958 158.27C236.478 157.62 236.089 157.11 235.821 156.764C235.719 156.632 235.635 156.524 235.569 156.441C231.918 158 229.274 160.538 227.654 163.876C225.996 167.293 225.4 171.572 225.927 176.532C226.456 181.521 228.048 190.201 229.51 197.88C229.83 199.555 230.142 201.183 230.437 202.713C230.816 204.686 231.164 206.496 231.454 208.038C231.712 209.407 231.924 210.568 232.072 211.445C232.217 212.305 232.307 212.929 232.307 213.196C232.307 213.337 232.245 213.474 232.195 213.57C232.137 213.681 232.056 213.807 231.959 213.944C231.764 214.219 231.483 214.566 231.133 214.974C230.431 215.789 229.429 216.868 228.223 218.127C225.972 220.479 222.997 223.472 219.909 226.579C219.69 226.8 219.469 227.021 219.249 227.243C215.926 230.587 212.524 234.018 209.786 236.893C208.417 238.33 207.216 239.626 206.276 240.701C205.332 241.781 204.667 242.619 204.353 243.148C202.341 246.642 203.836 251.157 207.906 252.925C209.182 253.43 210.729 253.689 212.555 253.689C213.485 253.689 214.722 253.371 216.201 252.773C217.672 252.179 219.354 251.319 221.162 250.262C224.778 248.148 228.875 245.259 232.77 242.17C236.664 239.081 240.348 235.798 243.138 232.897C244.533 231.446 245.699 230.096 246.556 228.917C247.42 227.729 247.943 226.75 248.093 226.035L248.093 226.033C248.885 222.37 250.478 210.272 250.743 198.958Z" fill="#FFC78F" stroke="#171753" stroke-width="0.7"/>
<path d="M192.845 392.033C192.816 392.012 192.748 391.971 192.608 391.923C192.418 391.857 192.152 391.797 191.813 391.744C191.136 391.639 190.214 391.572 189.122 391.535C186.942 391.461 184.127 391.51 181.339 391.609C178.552 391.708 175.798 391.856 173.74 391.979C172.711 392.041 171.856 392.097 171.259 392.137C170.96 392.157 170.726 392.173 170.566 392.184L170.544 392.186C170.121 393.281 169.359 395.081 168.449 396.854C167.486 398.73 166.331 400.631 165.211 401.603C164.149 402.524 160.164 406.013 156.114 409.7C154.089 411.543 152.048 413.435 150.349 415.078C148.644 416.727 147.3 418.111 146.653 418.944L146.651 418.947C143.795 422.551 143.292 427.176 144.054 429.695L144.056 429.703L144.058 429.711C144.449 431.259 145.153 432.82 146.429 433.838C147.689 434.844 149.567 435.367 152.413 434.725C155.277 434.08 159.422 431.998 163.107 429.793C164.944 428.694 166.655 427.571 168.021 426.593C169.396 425.608 170.396 424.789 170.832 424.295L170.834 424.293C171.913 423.089 173.988 421.166 176.217 419.286C178.447 417.405 180.855 415.547 182.606 414.478L182.606 414.478L182.616 414.473C182.979 414.267 183.618 413.986 184.402 413.642C184.664 413.527 184.943 413.405 185.233 413.276C186.405 412.754 187.797 412.109 189.162 411.343C190.528 410.576 191.854 409.695 192.901 408.705C193.947 407.716 194.689 406.642 194.936 405.49C195.32 403.06 194.804 399.697 194.174 396.903C193.861 395.512 193.522 394.276 193.262 393.388C193.132 392.944 193.022 392.587 192.944 392.341C192.905 392.219 192.875 392.124 192.854 392.06L192.845 392.033Z" fill="#FFEE81" stroke="#171753" stroke-width="0.7"/>
<path d="M260.395 381.311C260.73 381.414 260.73 381.414 260.73 381.414L260.73 381.415L260.729 381.418L260.725 381.43L260.711 381.476L260.655 381.658C260.606 381.817 260.534 382.052 260.443 382.352C260.259 382.953 259.995 383.818 259.676 384.871C259.036 386.979 258.173 389.844 257.276 392.873C255.48 398.941 253.559 405.642 253.031 408.258C252.5 410.889 252.106 413.303 252.041 415.38C251.975 417.463 252.242 419.16 252.987 420.392L252.991 420.398L252.995 420.405C253.352 421.055 254.192 421.887 255.414 422.597C256.627 423.302 258.188 423.869 259.959 424.012C263.479 424.298 267.888 422.914 272.078 417.461C279.864 407.33 282.045 395.862 282.965 391.022C283.043 390.611 283.112 390.248 283.175 389.938C283.383 388.908 283.846 387.742 284.404 386.511C284.719 385.816 285.074 385.082 285.435 384.333C285.71 383.765 285.989 383.187 286.258 382.612C287.523 379.905 288.612 377.147 288.484 374.742C288.353 372.28 287.832 370.619 287.229 369.486C286.628 368.357 285.936 367.735 285.436 367.363L285.435 367.363L285.427 367.356C284.761 366.828 281.902 364.521 279.212 362.348C277.866 361.261 276.562 360.207 275.595 359.425L274.432 358.485L274.252 358.339L262.043 371.732C261.66 373.29 261.337 375.656 261.109 377.662C260.993 378.68 260.902 379.6 260.839 380.265C260.808 380.598 260.785 380.867 260.769 381.052C260.762 381.126 260.757 381.186 260.753 381.232C260.752 381.244 260.751 381.256 260.75 381.266L260.746 381.321L260.745 381.335L260.744 381.338L260.744 381.339L260.744 381.339L260.395 381.311ZM260.395 381.311L260.744 381.34L260.741 381.378L260.73 381.414L260.395 381.311Z" fill="#FFEE81" stroke="#171753" stroke-width="0.7"/>
<path d="M169.234 394.751C167.639 399.494 164.184 403.71 162.324 407.399C160.463 411.088 163.653 413.196 166.842 412.669C170.031 412.142 176.676 407.399 181.725 404.237C184.649 402.392 187.573 400.811 189.433 399.494C192.357 397.649 193.685 393.96 192.091 391.062C192.091 391.062 192.091 391.062 192.091 390.798C189.699 386.582 169.234 394.751 169.234 394.751Z" fill="#171753"/>
<path d="M252.984 245.716C252.756 245.707 252.571 245.702 252.434 245.699C251.88 248.017 250.899 250.316 249.732 252.245C248.522 254.244 247.091 255.88 245.691 256.713C245.341 256.921 244.316 257.39 242.808 258.054C241.287 258.723 239.247 259.604 236.839 260.643L236.837 260.644C229.456 263.829 218.618 268.506 208.674 273.181C203.702 275.519 198.957 277.854 194.981 280.001C190.999 282.151 187.811 284.101 185.936 285.666C180.887 289.882 177.859 292.757 176.026 295.224C174.208 297.67 173.563 299.716 173.303 302.296L173.302 302.305L173.301 302.314C173.276 302.477 173.268 302.672 173.279 302.898L173.28 302.929L173.276 302.96C172.355 310.075 170.341 331.387 168.87 351.512C168.134 361.574 167.535 371.334 167.276 378.872C167.146 382.641 167.102 385.85 167.168 388.26C167.201 389.466 167.261 390.466 167.351 391.233C167.442 392.019 167.56 392.511 167.682 392.741L167.686 392.747C167.977 393.324 168.559 393.883 169.406 394.4C170.249 394.915 171.326 395.372 172.564 395.757C175.041 396.529 178.124 397.002 181.172 397.1C184.222 397.198 187.211 396.919 189.507 396.202C191.827 395.477 193.314 394.349 193.607 392.838C194.235 389.604 196.413 375.494 198.505 360.77C200.597 346.042 202.599 330.737 202.877 325.103L202.888 324.877L203.099 324.794C203.626 324.588 204.157 324.352 204.691 324.083L204.765 324.046H204.848C205.109 324.046 205.242 324.039 205.399 323.884L205.433 323.85L205.474 323.827C209.784 321.406 215.761 318.177 222.411 314.585L222.415 314.583C231.404 309.728 241.626 304.206 250.644 299.105C259.664 294.003 267.456 289.333 271.607 286.177C271.887 285.946 272.15 285.731 272.396 285.53L272.4 285.526C273.57 284.572 274.314 283.961 274.716 283.367C277.841 277.936 279.171 267.25 275.217 256.533L275.216 256.53C273.286 251.173 267.599 248.446 262.268 247.067C259.617 246.381 257.087 246.038 255.218 245.866C254.284 245.78 253.517 245.737 252.984 245.716Z" fill="#FFE850" stroke="#171753" stroke-width="0.7"/>
<path d="M260.13 375.777C260.396 381.047 259.864 386.581 260.13 388.689C260.396 390.797 264.648 393.959 269.698 391.061C274.748 388.162 279 383.155 280.329 379.203C281.658 375.25 282.721 368.399 282.721 368.399L277.671 361.812L271.824 360.231L260.13 375.777Z" fill="#171753"/>
<path d="M275.013 319.389C274.863 319.073 274.863 319.073 274.863 319.073L274.864 319.072L274.868 319.071L274.881 319.064L274.935 319.039L275.146 318.938C275.332 318.849 275.607 318.718 275.961 318.548C276.67 318.207 277.697 317.711 278.971 317.09C281.52 315.847 285.056 314.102 289.007 312.094C296.914 308.076 306.469 303.01 313.098 298.804C326.197 290.492 325.96 276.996 324.897 266.99C324.372 262.173 322 255.826 319.742 250.656C318.615 248.077 317.522 245.802 316.71 244.171C316.304 243.356 315.968 242.702 315.734 242.252C315.617 242.027 315.526 241.853 315.464 241.736C315.433 241.677 315.409 241.633 315.393 241.603L315.388 241.593L315.386 241.591C315.367 241.57 315.339 241.538 315.302 241.497C315.227 241.414 315.115 241.291 314.969 241.135C314.677 240.824 314.249 240.379 313.705 239.848C312.617 238.785 311.067 237.379 309.223 236.008C305.515 233.251 300.693 230.689 296.049 231.2C291.421 231.724 284.137 233.168 277.085 235.532C270.017 237.9 263.251 241.171 259.595 245.313C255.953 249.439 254.699 255.203 254.666 260.663C254.633 266.121 255.821 271.21 256.996 273.928C258.14 276.575 260.369 277.973 262.345 278.712C263.332 279.081 264.247 279.282 264.916 279.391C265.25 279.445 265.521 279.476 265.708 279.493C265.801 279.502 265.873 279.507 265.921 279.51C265.945 279.512 265.963 279.513 265.975 279.513L265.987 279.514L265.99 279.514L265.99 279.514L265.99 279.514H265.99L267.174 279.559L266.156 280.164L265.977 279.864L266.156 280.164L266.156 280.165L266.155 280.165L266.153 280.166L266.145 280.171L266.11 280.192C266.078 280.211 266.031 280.24 265.967 280.278C265.838 280.356 265.642 280.475 265.375 280.639C264.841 280.968 264.02 281.478 262.875 282.202C260.585 283.65 256.999 285.954 251.818 289.378L251.814 289.38C241.21 296.215 237.087 301.661 236.825 308.329C236.827 309.176 237.108 310.865 237.618 313.212C238.127 315.552 238.856 318.51 239.733 321.866C241.489 328.576 243.838 336.864 246.213 344.949C248.588 353.033 250.988 360.912 252.843 366.801C253.771 369.746 254.562 372.192 255.146 373.917C255.438 374.78 255.678 375.46 255.855 375.931C255.945 376.167 256.017 376.346 256.071 376.467C256.092 376.513 256.108 376.548 256.121 376.572C256.31 376.681 256.735 376.867 257.386 377.071C258.091 377.292 259.038 377.527 260.184 377.706C262.476 378.063 265.559 378.193 269.103 377.542L269.103 377.542L269.115 377.54C276.186 376.502 280.245 372.12 280.245 367.61C280.245 366.449 279.899 362.867 279.375 358.113C278.852 353.372 278.154 347.494 277.457 341.763C276.759 336.033 276.061 330.45 275.538 326.3C275.277 324.226 275.059 322.509 274.906 321.311C274.83 320.712 274.77 320.242 274.729 319.923L274.682 319.558L274.67 319.465L274.667 319.442L274.666 319.436L274.666 319.434C274.666 319.434 274.666 319.434 275.013 319.389ZM275.013 319.389L274.666 319.434L274.634 319.182L274.863 319.073L275.013 319.389Z" fill="#FFE850" stroke="#171753" stroke-width="0.7"/>
<path d="M280.338 259.487H280.338C299.319 260.01 312.969 256.112 319.563 250.211L319.546 250.058C319.523 249.841 319.489 249.523 319.446 249.115C319.36 248.299 319.239 247.123 319.096 245.688C318.809 242.817 318.435 238.904 318.086 234.735C317.39 226.418 316.787 217.031 317.189 212.905C317.453 208.833 317.586 197.127 316.922 185.615C316.591 179.857 316.06 174.157 315.249 169.491C314.844 167.157 314.37 165.09 313.818 163.406C313.264 161.715 312.643 160.444 311.96 159.675C310.554 158.09 307.777 156.468 304.168 154.91C300.574 153.357 296.204 151.888 291.661 150.589C282.576 147.992 272.836 146.088 267.281 145.563C261.76 145.304 254.703 146.608 248.095 149.131C241.482 151.655 235.367 155.38 231.7 159.923C228.204 164.418 227.855 170.683 228.749 177.314C229.383 182.018 230.632 186.843 231.781 191.285C232.252 193.104 232.707 194.86 233.095 196.516C234.423 202.177 237.811 215.611 241.165 227.927C242.842 234.085 244.511 239.96 245.908 244.441C246.607 246.683 247.237 248.571 247.766 249.971C248.03 250.671 248.267 251.244 248.473 251.675C248.682 252.112 248.84 252.364 248.942 252.468C250.216 253.601 253.21 255.226 258.329 256.634C263.446 258.042 270.66 259.224 280.338 259.487Z" fill="#FFC78F" stroke="#171753" stroke-width="0.7"/>
<path d="M195.28 246.398C194.217 244.29 188.37 244.553 187.838 244.817C187.307 245.08 183.054 245.08 181.725 242.972C180.396 240.864 187.041 239.283 189.433 239.283C191.825 239.283 196.609 242.181 196.609 242.181L195.28 246.398Z" fill="#171753"/>
<path d="M243.652 140.734C247.107 151.274 246.575 158.125 248.701 161.287C250.828 164.449 257.472 165.767 266.509 157.862C275.545 149.957 273.419 147.322 272.356 144.423C271.558 141.525 269.432 135.991 269.964 130.984C270.495 125.978 271.558 117.019 266.774 114.384C261.725 112.012 242.323 124.397 242.323 124.397L243.652 140.734Z" fill="#171753"/>
<path d="M150.629 233.749L167.905 223.999C167.373 224.263 167.639 226.634 166.045 227.688L148.769 237.438C150.364 236.647 150.098 234.012 150.629 233.749Z" fill="#49CE8B"/>
<path d="M141.859 225.844L149.301 221.628C149.566 221.365 149.832 221.365 150.364 221.365C151.958 221.101 162.058 220.047 163.918 220.311L156.477 224.527C154.616 224.263 144.517 225.317 142.922 225.581C142.39 225.581 142.125 225.581 141.859 225.844Z" fill="#49CE8B"/>
<path d="M156.477 224.263C156.477 224.263 156.742 224.263 156.477 224.263C157.54 224.79 162.855 227.689 163.121 227.952L166.045 238.756C166.045 238.756 163.387 238.756 162.058 238.492C161.261 238.492 156.477 234.54 151.958 234.013C151.427 234.013 151.161 234.013 150.629 234.013C149.832 234.013 150.629 238.229 146.909 237.965C146.377 237.965 146.111 237.702 145.58 237.702C145.314 237.702 141.859 236.121 140.53 231.378C139.732 228.479 140.264 226.371 142.656 225.844C144.516 225.054 154.616 224 156.477 224.263Z" fill="#9BE7C4"/>
<path d="M163.121 228.216L170.297 224.79L246.31 232.432L239.134 235.857L163.121 228.216Z" fill="#FFA54B"/>
<path d="M238.868 213.46L256.143 203.71C257.738 202.92 259.333 202.656 261.459 202.92C263.054 203.183 264.648 203.71 266.243 204.501C273.419 208.19 273.153 211.615 280.063 212.406C283.784 212.933 286.176 212.142 288.037 211.088L270.761 220.838C268.901 221.892 266.509 222.419 262.788 222.155C256.143 221.365 256.143 217.939 248.967 214.25C247.373 213.46 245.778 212.933 244.183 212.669C242.057 212.406 240.197 212.669 238.868 213.46Z" fill="#49CE8B"/>
<path d="M339.598 243.762C334.548 225.317 321.525 205.818 305.578 203.973C300.528 203.446 297.339 204.237 294.947 205.554L277.671 215.304C280.063 213.987 283.253 213.196 288.303 213.723C304.249 215.568 317.272 235.33 322.322 253.512C327.638 272.748 324.714 284.869 317.538 288.821L334.548 279.335C341.99 275.119 344.913 262.998 339.598 243.762Z" fill="#49CE8B"/>
<path d="M308.767 290.666C295.479 289.085 289.366 279.598 281.127 275.382C278.469 274.065 276.343 273.274 274.482 273.011C271.027 272.484 268.901 274.065 266.243 276.173C265.18 276.963 263.585 277.227 261.991 277.227C258.004 276.7 253.486 272.747 253.22 266.423C252.423 254.039 251.359 251.931 249.765 250.613L251.094 250.35L264.117 252.194L263.319 249.296L260.927 240.863L260.13 237.965L240.197 235.857H239.134C235.413 228.215 234.615 221.364 235.678 217.412C237.007 213.459 240.197 211.878 243.918 212.405C245.512 212.669 247.107 213.196 248.702 213.986C255.878 217.675 255.612 221.101 262.522 221.891C275.545 223.472 272.356 211.878 288.303 213.723C304.249 215.567 317.272 235.33 322.322 253.512C329.232 279.071 322.056 292.247 308.767 290.666Z" fill="#9BE7C4"/>
<path d="M156.477 224.264L163.918 220.048H164.184C164.982 220.575 170.297 223.473 170.563 223.473C170.563 223.473 170.563 223.473 170.563 223.737C170.563 224 170.829 224.264 170.829 224.527L163.387 228.743C163.387 228.48 163.121 228.216 163.121 227.953C163.121 227.689 163.121 227.689 163.121 227.689C162.855 227.953 157.54 224.791 156.477 224.264C156.742 224.264 156.477 224.264 156.477 224.264Z" fill="#49CE8B"/>
<path d="M263.319 249.297L263.054 248.506L262.788 247.452L261.459 242.709L261.193 241.919L260.13 238.23L241.26 236.385H240.197H239.134L163.121 228.743C163.121 229.007 165.779 238.493 165.779 238.757L249.499 250.614L251.359 250.351L252.688 250.614L264.117 252.195L263.319 249.297Z" fill="#FFC78F" stroke="#FFA54B" stroke-width="0.5"/>
<path d="M288.568 215.304C304.249 217.149 316.209 236.385 320.993 253.512C324.182 265.106 324.448 274.856 321.79 281.18C319.398 286.977 314.614 289.876 308.236 289.085C299.731 288.031 294.415 283.815 289.1 279.599C286.442 277.491 283.784 275.383 280.861 273.802C278.203 272.484 275.811 271.694 273.95 271.43C270.229 270.903 268.103 272.484 265.445 274.592C264.382 275.383 263.053 275.646 261.725 275.646C259.864 275.383 257.738 274.329 256.409 272.484C255.08 270.903 254.549 269.059 254.283 266.687C253.751 256.674 252.688 252.722 251.093 250.35L252.422 250.614C254.283 253.512 254.814 258.255 255.346 267.214C255.346 269.059 255.877 270.64 256.941 271.694C258.004 273.011 259.598 274.065 261.193 274.065C262.522 274.329 263.585 274.065 264.382 273.275C267.04 271.167 269.432 269.586 273.419 270.113C275.545 270.376 277.937 271.167 280.861 272.748C283.784 274.329 286.442 276.437 289.365 278.545C294.415 282.498 299.731 286.714 307.704 287.768C313.817 288.558 318.335 285.923 320.727 280.39C323.385 274.329 322.854 265.106 319.93 253.776C315.412 237.439 303.718 218.993 288.834 217.149C281.126 216.095 278.203 218.73 275.545 221.101C272.887 223.473 269.964 226.108 263.053 225.317C258.535 224.79 256.143 222.946 254.017 221.101C252.688 219.784 251.093 218.73 248.436 217.412C247.107 216.622 245.778 216.358 244.449 216.095C240.994 215.568 238.336 217.149 237.539 220.047C236.476 223.736 237.539 229.797 240.994 236.648H239.931C236.21 229.533 235.413 222.946 236.476 219.257C237.539 216.095 240.462 214.25 244.183 214.777C245.512 215.041 247.107 215.304 248.436 216.095C251.359 217.412 252.688 218.73 254.283 220.047C256.409 221.892 258.269 223.473 262.522 224C269.166 224.79 271.824 222.419 274.482 220.047C277.671 216.885 280.595 214.25 288.568 215.304Z" fill="#49CE8B"/>
<path d="M238.336 234.276L261.99 236.384L265.711 251.404L264.117 252.195L260.13 237.965L237.539 235.594L238.336 234.276Z" fill="#FFA54B"/>
<path d="M149.035 226.899C149.301 226.899 149.566 227.162 149.566 227.426C149.566 227.689 149.832 227.689 149.832 227.953C149.832 228.216 149.832 228.216 149.832 228.48C149.832 228.743 149.566 228.743 149.301 228.743C149.035 228.743 148.503 228.216 148.503 227.689C148.503 227.162 148.769 226.899 149.035 226.899Z" fill="#FFC78F"/>
<path d="M153.553 229.797C153.819 229.797 154.084 230.06 154.084 230.324C154.084 230.587 154.35 230.587 154.35 230.851C154.35 231.114 154.35 231.114 154.35 231.378C154.35 231.641 154.084 231.641 153.819 231.641C153.553 231.641 153.021 231.114 153.021 230.587C153.021 230.06 153.287 229.797 153.553 229.797Z" fill="#FFC78F"/>
<path d="M158.071 232.694C158.337 232.694 158.603 232.958 158.869 233.221C158.869 233.485 159.134 233.485 159.134 233.748C159.134 234.012 159.134 234.012 159.134 234.275C159.134 234.539 158.868 234.539 158.603 234.539C158.337 234.539 157.805 234.012 157.805 233.485C157.54 233.221 157.805 232.694 158.071 232.694Z" fill="#FFC78F"/>
<path d="M162.589 235.856C162.855 235.856 163.121 236.12 163.387 236.383C163.387 236.647 163.653 236.647 163.653 236.91C163.653 237.174 163.653 237.174 163.653 237.437C163.653 237.701 163.387 237.701 163.121 237.701C162.855 237.701 162.324 237.174 162.324 236.647C162.058 236.12 162.324 235.856 162.589 235.856Z" fill="#FFC78F"/>
<path d="M297.339 245.343L297.605 246.134L289.365 245.08H288.302L285.91 244.816L272.356 243.235L269.964 242.972L268.901 242.708L261.193 241.654L163.652 229.796L149.832 228.215C149.832 228.215 149.832 227.952 149.832 227.688C149.832 227.425 149.832 227.425 149.566 227.161L163.387 229.006L260.927 240.864L268.901 241.918L269.964 242.181H272.356L285.645 243.762L288.037 244.026L289.1 244.289L297.339 245.343Z" fill="#FFC78F"/>
<path d="M298.136 247.714L298.402 248.504L290.429 247.45L289.366 247.187L287.239 246.923L272.887 245.079L270.761 244.815L269.698 244.552L262.256 243.761L164.716 231.904L154.882 230.586C154.882 230.586 154.882 230.322 154.882 230.059C154.882 229.795 154.882 229.795 154.616 229.532L164.45 230.849L261.725 243.498L269.166 244.288L270.229 244.552L272.356 244.815L286.708 246.66L288.834 246.923L289.897 247.187L298.136 247.714Z" fill="#FFC78F"/>
<path d="M299.731 253.775L299.465 252.985L291.226 251.931L290.163 251.667L287.771 251.404L274.216 249.823L271.824 249.559L270.761 249.296L263.054 248.242L165.513 236.384L163.387 236.121C163.387 236.384 163.653 236.384 163.653 236.648C163.653 236.911 163.653 236.911 163.653 237.175L165.779 237.438L263.319 249.296L271.293 250.35H272.356L274.748 250.613L287.771 252.194L290.163 252.458L291.226 252.721L299.731 253.775Z" fill="#FFC78F"/>
<path d="M298.934 250.349L299.199 251.14L291.226 250.086L290.163 249.822L288.037 249.559L273.685 247.714L271.558 247.45L270.495 247.187L263.054 246.396L165.513 234.539L159.4 233.748C159.4 233.748 159.4 233.485 159.4 233.221C159.4 232.958 159.4 232.958 159.134 232.694L165.247 233.485L262.788 245.342L270.23 246.133L271.293 246.396L273.419 246.66L287.771 248.504L289.897 248.768L290.96 249.295L298.934 250.349Z" fill="#FFC78F"/>
<path d="M271.293 247.979C271.559 248.506 271.824 249.033 272.09 249.56L271.027 249.297C270.761 248.77 270.495 248.243 270.495 247.716L271.293 247.979Z" fill="#171753"/>
<path d="M270.23 244.552C270.23 244.025 269.964 243.498 269.964 242.971L272.356 243.235C272.356 243.762 272.356 244.289 272.622 244.816L270.23 244.552Z" fill="#FFA54B"/>
<path d="M282.987 257.202C280.063 256.938 276.874 254.303 274.748 250.878L287.771 252.459C287.771 255.621 285.91 257.465 282.987 257.202Z" fill="#49CE8B"/>
<path d="M289.897 250.086C289.897 250.613 290.163 251.14 290.163 251.667L287.771 251.404C287.771 250.877 287.771 250.35 287.771 249.823L289.897 250.086Z" fill="#FFA54B"/>
<path d="M274.216 249.824C273.95 249.297 273.685 248.77 273.419 248.243L287.771 250.087C287.771 250.614 287.771 251.141 287.771 251.668L274.216 249.824Z" fill="#171753"/>
<path d="M289.631 248.505C289.631 248.769 289.897 249.032 289.897 249.296L287.771 249.032C287.771 248.769 287.771 248.505 287.505 248.242C287.505 247.978 287.239 247.715 287.239 247.451L289.365 247.715C289.365 247.978 289.631 248.242 289.631 248.505Z" fill="#FFA54B"/>
<path d="M271.293 247.978L273.419 248.242C273.685 248.769 273.95 249.296 274.216 249.823L271.824 249.559C271.558 249.032 271.558 248.505 271.293 247.978Z" fill="#FFA54B"/>
<path d="M287.239 247.452C287.239 247.715 287.505 247.979 287.505 248.242C287.505 248.506 287.771 248.769 287.771 249.033L273.419 247.188C273.419 246.925 273.153 246.661 273.153 246.398C273.153 246.134 272.887 245.871 272.887 245.607L287.239 247.452Z" fill="#171753"/>
<path d="M286.176 244.816L288.303 245.079C288.568 245.606 288.834 246.133 289.1 246.66L286.974 246.397C286.708 245.87 286.442 245.343 286.176 244.816Z" fill="#FFA54B"/>
<path d="M270.761 246.133C270.761 245.87 270.495 245.606 270.495 245.343L272.622 245.606C272.622 245.87 272.622 246.133 272.887 246.397C272.887 246.66 273.153 246.924 273.153 247.187L271.027 246.924C270.761 246.66 270.761 246.397 270.761 246.133Z" fill="#FFA54B"/>
<path d="M286.176 244.816C286.442 245.343 286.708 245.87 286.974 246.397L272.621 244.552C272.621 244.025 272.621 243.498 272.356 242.971L286.176 244.816Z" fill="#171753"/>
<path d="M290.429 247.715C290.429 247.978 290.695 248.242 290.695 248.505C290.695 248.769 290.96 249.032 290.96 249.296L289.897 249.032C289.897 248.769 289.897 248.505 289.631 248.242C289.631 247.978 289.366 247.715 289.366 247.451L290.429 247.715Z" fill="#171753"/>
<path d="M297.605 246.134L298.136 247.715L290.163 246.661C289.897 246.134 289.631 245.607 289.631 245.08L297.605 246.134Z" fill="#FFA54B"/>
<path d="M269.964 242.973C269.964 243.5 269.964 244.027 270.23 244.554L269.166 244.29C269.166 243.763 268.901 243.236 268.901 242.709L269.964 242.973Z" fill="#171753"/>
<path d="M270.761 246.134C270.761 246.398 271.027 246.661 271.027 246.925L269.964 246.661C269.964 246.398 269.698 246.134 269.698 245.871C269.698 245.607 269.432 245.344 269.432 245.08L270.495 245.344C270.495 245.607 270.495 245.871 270.761 246.134Z" fill="#171753"/>
<path d="M283.784 260.099C288.037 260.626 290.429 257.464 290.429 252.457L291.492 252.721C291.758 258.518 288.834 262.207 284.316 261.68C279.532 261.153 274.482 256.41 271.293 250.349H272.356C275.014 255.619 279.532 259.572 283.784 260.099Z" fill="#49CE8B"/>
<path d="M290.163 251.668C290.163 251.141 290.163 250.614 289.897 250.087L291.226 250.35C291.226 250.877 291.492 251.404 291.492 251.931L290.163 251.668Z" fill="#171753"/>
<path d="M298.934 250.351L290.96 249.297C290.96 249.033 290.96 248.77 290.695 248.506C290.695 248.243 290.429 247.979 290.429 247.716L298.402 248.77L298.934 250.351Z" fill="#FFA54B"/>
<path d="M287.771 252.457C287.505 255.619 285.645 257.727 282.721 257.2C279.798 256.937 276.608 254.302 274.482 250.876L272.356 250.349C275.014 255.619 279.532 259.572 283.784 260.099C288.037 260.626 290.429 257.464 290.429 252.457H287.771Z" fill="#FFA54B"/>
<path d="M277.405 237.438C280.329 237.701 283.518 240.336 285.645 243.762L272.621 242.181C272.621 239.019 274.482 237.174 277.405 237.438Z" fill="#171753"/>
<path d="M276.608 234.276C280.861 234.803 285.379 238.755 288.037 244.025L285.645 243.762C283.519 240.336 280.329 237.701 277.406 237.438C274.482 237.174 272.622 239.019 272.356 242.181L269.964 241.917C269.964 237.174 272.356 234.012 276.608 234.276Z" fill="#FFA54B"/>
<path d="M289.1 246.661C288.834 246.134 288.568 245.607 288.302 245.08L289.365 245.344C289.631 245.871 289.897 246.398 289.897 246.925L289.1 246.661Z" fill="#171753"/>
<path d="M276.608 234.276C272.356 233.749 269.964 236.911 269.964 241.917L268.901 241.654C268.635 235.857 271.558 232.168 276.077 232.695C280.861 233.222 285.911 237.965 289.1 244.025L288.037 243.762C285.379 239.019 280.595 234.803 276.608 234.276Z" fill="#49CE8B"/>
<path d="M299.465 252.984L291.226 251.93C291.226 251.403 291.226 250.876 290.96 250.349L298.934 251.403L299.465 252.984Z" fill="#FFA54B"/>
<path d="M297.605 241.391C298.136 241.391 298.668 242.182 298.933 242.709L302.92 256.938C303.186 257.729 302.92 258.256 302.389 257.992H301.857C301.325 257.992 300.794 257.202 300.528 256.675L299.731 253.776L299.465 252.985L298.933 251.404V250.35L298.402 248.769L298.136 247.979L297.605 246.398L297.339 245.607L296.541 242.709C296.276 241.918 296.541 241.391 297.073 241.655L297.605 241.391Z" fill="#49CE8B"/>
<path d="M149.035 226.899C149.301 226.899 149.566 227.162 149.566 227.426C149.566 227.689 149.832 227.689 149.832 227.953C149.832 228.216 149.832 228.216 149.832 228.48C149.832 228.743 149.566 228.743 149.301 228.743C149.035 228.743 148.503 228.216 148.503 227.689C148.503 227.162 148.769 226.899 149.035 226.899Z" fill="#FFA54B"/>
<path d="M153.553 229.796C153.819 229.796 154.085 230.06 154.085 230.323C154.085 230.587 154.35 230.587 154.35 230.85C154.35 231.114 154.35 231.114 154.35 231.377C154.35 231.641 154.085 231.641 153.819 231.641C153.553 231.641 153.022 231.114 153.022 230.587C153.022 230.06 153.287 229.796 153.553 229.796Z" fill="#FFA54B"/>
<path d="M158.071 232.696C158.337 232.696 158.603 232.96 158.869 233.223C158.869 233.487 159.134 233.487 159.134 233.75C159.134 234.014 159.134 234.014 159.134 234.277C159.134 234.541 158.868 234.541 158.603 234.541C158.337 234.541 157.805 234.014 157.805 233.487C157.54 233.223 157.805 232.696 158.071 232.696Z" fill="#FFA54B"/>
<path d="M162.589 235.858C162.855 235.858 163.121 236.122 163.387 236.385C163.387 236.649 163.653 236.649 163.653 236.912C163.653 237.176 163.653 237.176 163.653 237.439C163.653 237.703 163.387 237.703 163.121 237.703C162.855 237.703 162.324 237.176 162.324 236.649C162.058 236.122 162.324 235.858 162.589 235.858Z" fill="#FFA54B"/>
<path d="M297.339 245.345L297.605 246.135L289.366 245.081H288.302L285.91 244.818L272.356 243.236L269.964 242.973L268.901 242.709L261.193 241.655L163.653 229.798L149.832 228.217C149.832 228.217 149.832 227.953 149.832 227.69C149.832 227.426 149.832 227.426 149.566 227.163L163.387 229.007L260.927 240.865L268.901 241.919L269.964 242.182H272.356L285.645 243.764L288.037 244.027L289.1 244.291L297.339 245.345Z" fill="#49CE8B"/>
<path d="M298.136 247.716L298.402 248.506L290.429 247.452L289.366 247.189L287.239 246.925L272.887 245.081L270.761 244.817L269.698 244.554L262.256 243.763L164.716 231.906L154.882 230.588C154.882 230.588 154.882 230.325 154.882 230.061C154.882 229.798 154.882 229.798 154.616 229.534L164.45 230.852L261.725 243.5L269.166 244.29L270.23 244.554L272.356 244.817L286.708 246.662L288.834 246.925L289.897 247.189L298.136 247.716Z" fill="#49CE8B"/>
<path d="M299.731 253.775L299.465 252.985L291.226 251.931L290.163 251.667L287.771 251.404L274.216 249.823L271.824 249.559L270.761 249.296L263.054 248.242L165.513 236.384L163.387 236.121C163.387 236.384 163.653 236.384 163.653 236.648C163.653 236.911 163.653 236.911 163.653 237.175L165.779 237.438L263.319 249.296L271.293 250.35H272.356L274.748 250.613L287.771 252.194L290.163 252.458L291.226 252.721L299.731 253.775Z" fill="#49CE8B"/>
<path d="M298.934 250.351L299.199 251.141L291.226 250.087L290.163 249.824L288.037 249.56L273.685 247.716L271.558 247.452L270.495 247.189L263.054 246.398L165.513 234.541L159.4 233.75C159.4 233.75 159.4 233.487 159.4 233.223C159.4 232.96 159.4 232.96 159.134 232.696L165.247 233.487L262.788 245.344L270.23 246.135L271.293 246.398L273.419 246.662L287.771 248.506L289.897 248.77L290.96 249.297L298.934 250.351Z" fill="#49CE8B"/>
<path fill-rule="evenodd" clip-rule="evenodd" d="M251.359 250.351L251.23 250.369L252.008 250.479L251.359 250.351Z" stroke="#171753" stroke-width="0.7"/>
<path d="M307.128 161.306C307.12 161.309 307.113 161.312 307.107 161.315C306.949 161.458 306.792 161.536 306.672 161.595L306.664 161.6C306.531 161.666 306.445 161.71 306.356 161.798L306.331 161.823L306.302 161.842C300.825 165.462 296.889 171.676 296.626 181.322L296.626 181.322L296.625 181.33C296.101 191.462 301.869 197.423 303.138 198.429C303.637 198.826 307.62 201.629 312.421 205.007L312.424 205.01C317.238 208.397 322.855 212.35 326.542 214.991L326.999 215.319L326.503 215.584C326.295 215.696 326.104 215.795 325.932 215.88C324.607 216.537 314.712 221.673 305.141 226.648C300.357 229.135 295.656 231.58 292.151 233.404C290.399 234.316 288.946 235.073 287.93 235.601L286.753 236.214L286.444 236.375L286.426 236.384C286.419 236.397 286.411 236.413 286.402 236.43C286.357 236.516 286.294 236.652 286.227 236.837C286.092 237.206 285.942 237.774 285.894 238.546C285.799 240.087 286.112 242.461 287.815 245.707L287.815 245.707L287.82 245.717C290.983 252.251 294.345 253.688 296.01 253.688H296.01C296.01 253.688 296.014 253.688 296.024 253.687C296.035 253.686 296.05 253.684 296.069 253.681C296.107 253.674 296.157 253.664 296.22 253.649C296.346 253.619 296.512 253.574 296.717 253.512C297.126 253.389 297.677 253.207 298.355 252.972C299.71 252.502 301.558 251.823 303.755 250.989C308.15 249.323 313.936 247.043 319.964 244.59C332.03 239.68 345.025 234.091 349.786 231.339C358.956 225.883 359.966 221.003 359.978 219.286C359.95 219.14 359.878 218.905 359.747 218.598L359.719 218.531L359.719 218.459C359.73 216.653 359.684 214.484 358.777 211.613C357.868 208.736 356.089 205.137 352.606 200.495C348.771 195.381 339.687 185.912 331.013 177.345C326.679 173.066 322.455 169.017 319.048 165.858C315.758 162.806 313.253 160.606 312.147 159.816C310.377 160.197 309.11 160.576 308.283 160.86C307.858 161.005 307.549 161.126 307.349 161.21C307.248 161.252 307.175 161.284 307.128 161.306Z" fill="#FFC78F" stroke="#171753" stroke-width="0.7"/>
<path d="M288.568 236.648C284.315 235.857 277.139 233.222 275.811 233.486C274.482 233.749 269.166 237.175 268.635 237.438C268.103 237.702 266.243 238.229 266.243 238.229C266.243 238.229 264.116 238.492 263.585 239.283C263.053 240.337 264.648 241.127 265.179 241.391C265.711 241.654 266.774 241.654 266.774 241.654L264.116 243.499C264.116 243.499 260.661 244.553 260.13 245.87C259.332 246.924 259.864 249.032 260.927 249.559C261.99 250.086 265.179 250.35 265.711 250.35C266.243 250.613 267.306 251.931 268.103 252.194C268.9 252.721 269.963 252.721 269.963 252.721C269.963 252.721 271.292 254.302 272.355 254.829C273.419 255.356 274.216 255.62 274.216 255.62C274.216 255.62 275.811 257.464 278.203 257.201C280.595 256.937 290.96 251.14 292.289 250.613C293.618 250.35 298.136 246.397 297.339 242.972C296.541 239.81 288.568 236.648 288.568 236.648Z" fill="#171753"/>
<path d="M267.572 125.45C266.508 131.774 265.977 136.518 263.585 142.315C261.193 148.112 260.396 148.902 259.598 149.429C258.535 149.956 246.043 156.807 242.854 156.807C239.665 156.807 236.741 156.28 235.412 154.963C234.083 153.645 231.426 137.045 231.691 129.139C231.691 121.234 229.831 106.215 240.462 98.8366C251.093 91.4585 269.432 104.37 270.229 112.275C271.027 119.917 267.572 125.45 267.572 125.45Z" fill="#171753"/>
<path d="M244.98 109.377C244.98 109.377 258.269 112.012 258.004 114.12C257.738 116.228 255.612 119.653 256.675 120.707C257.472 121.761 260.927 126.504 261.193 129.139C261.459 132.038 261.193 134.936 261.193 134.936L263.319 135.727C263.319 135.727 267.04 129.93 268.369 129.666C269.698 129.403 271.558 130.72 271.558 132.301C271.293 133.882 270.495 137.044 270.495 137.044L271.558 140.997L276.077 135.99C276.077 135.99 283.518 121.498 282.721 111.485C281.924 101.472 277.14 98.3095 268.369 95.1475C258.535 86.4519 244.183 90.9314 239.133 96.465C234.084 101.999 231.957 108.059 231.426 111.485C230.894 114.91 231.957 120.18 231.957 120.18C231.957 120.18 233.286 110.958 236.741 108.85C239.665 107.005 244.98 109.377 244.98 109.377Z" fill="#9BE7C4" stroke="#171753" stroke-width="0.7" stroke-miterlimit="10"/>
<path d="M265.977 136.781C266.508 138.362 268.369 139.416 270.495 137.308C272.356 134.936 276.342 130.193 275.013 126.768C273.684 123.342 269.964 126.504 269.432 127.558C268.635 128.349 265.977 136.781 265.977 136.781Z" fill="#171753"/>
<path d="M215.213 247.453C215.745 249.561 214.416 252.196 212.024 252.986C209.632 253.777 203.785 251.405 203.785 251.405L197.672 249.824C197.672 249.824 195.014 249.297 193.951 249.034C193.154 248.507 190.496 241.129 190.496 239.811C190.23 238.757 192.888 233.224 193.419 232.697C194.217 232.17 196.343 230.325 196.875 230.589C197.406 230.852 198.203 231.906 198.203 231.906C198.203 231.906 200.861 229.008 201.659 229.271C202.456 229.535 203.519 231.116 203.519 231.116C203.519 231.116 205.114 230.325 205.911 231.379C206.708 232.433 206.177 233.487 206.177 233.487C206.177 233.487 209.366 233.487 209.366 235.332C209.366 237.176 210.961 244.554 211.227 245.081C211.227 245.345 215.213 245.608 215.213 247.453Z" fill="#171753"/>
</svg>
