<svg width="396" height="393" viewBox="0 0 396 393" fill="none" xmlns="http://www.w3.org/2000/svg">
<path d="M241.043 82.1608C328.919 88.7627 394.584 115.078 394.584 146.535C394.584 182.97 306.5 212.506 197.842 212.506C89.1834 212.506 1.09863 182.97 1.09863 146.535C1.09863 117.86 55.6603 93.4584 131.871 84.3654C208.082 75.2723 143.084 82.9744 143.084 82.9744" stroke="#171753" stroke-width="2"/>
<path d="M35.084 114.817C34.4019 115.07 33.8265 115.285 33.3643 115.46V41.5761C67.5367 28.5897 112.2 21.9421 154.898 18.779V90.4691C127.684 89.8341 97.1593 96.1421 73.3763 102.627C61.3249 105.914 50.9852 109.251 43.6573 111.767C39.993 113.025 37.0811 114.078 35.084 114.817Z" fill="#BEF0ED" stroke="#171753" stroke-width="2"/>
<path d="M42.0845 69.4744C43.2511 66.9744 46.6845 61.6744 51.0845 60.4744C56.5845 58.9744 61.5845 59.9744 64.5845 65.4744C67.5845 70.9744 70.0845 81.9744 78.5845 80.4744C87.0845 78.9744 82.5845 67.4744 91.5845 66.4744C100.584 65.4744 101.584 74.4744 109.084 75.9744C116.584 77.4744 121.084 72.9744 124.084 60.4744C127.084 47.9744 141.084 47.4744 148.584 58.4744" stroke="#171753" stroke-linecap="round"/>
<path d="M41.5845 50.9744V103.974C57.0845 97.8077 98.7845 83.3744 141.584 82.9744" stroke="#171753" stroke-linecap="round"/>
<path d="M43.6518 69.9888C43.6518 71.3445 42.748 72.4744 41.6182 72.4744C40.4883 72.4744 39.5845 71.3445 39.5845 69.9888C39.5845 68.633 40.4883 67.5032 41.6182 67.5032C42.748 67.2772 43.6518 68.407 43.6518 69.9888Z" fill="#171753"/>
<path d="M43.6518 50.9888C43.6518 52.3445 42.748 53.4744 41.6182 53.4744C40.4883 53.4744 39.5845 52.3445 39.5845 50.9888C39.5845 49.633 40.4883 48.5032 41.6182 48.5032C42.748 48.2772 43.6518 49.407 43.6518 50.9888Z" fill="#171753"/>
<path d="M43.6518 85.9888C43.6518 87.3445 42.748 88.4744 41.6182 88.4744C40.4883 88.4744 39.5845 87.3445 39.5845 85.9888C39.5845 84.633 40.4883 83.5032 41.6182 83.5032C42.748 83.2772 43.6518 84.407 43.6518 85.9888Z" fill="#171753"/>
<path d="M43.6518 102.989C43.6518 104.345 42.748 105.474 41.6182 105.474C40.4883 105.474 39.5845 104.345 39.5845 102.989C39.5845 101.633 40.4883 100.503 41.6182 100.503C42.748 100.277 43.6518 101.407 43.6518 102.989Z" fill="#171753"/>
<path d="M123.084 29.6264V37.4423C123.084 38.7341 124.292 39.6887 125.56 39.4443C132.595 38.0886 141.107 37.6016 146.087 37.4972C147.192 37.474 148.084 36.5789 148.084 35.4744V27.0594C148.084 25.9222 147.138 25.0126 146.003 25.0805C137.984 25.5598 129.373 26.8492 124.705 27.6761C123.761 27.8434 123.084 28.6675 123.084 29.6264Z" stroke="#171753" stroke-linecap="round"/>
<path d="M126.084 30.9744C129.418 30.3077 137.784 28.9744 144.584 28.9744" stroke="#171753" stroke-linecap="round"/>
<path d="M126.084 35.4744C129.418 34.8077 137.784 33.4744 144.584 33.4744" stroke="#171753" stroke-linecap="round"/>
<path d="M357.641 114.128C315.126 98.9358 291.664 96.872 248.055 93.0361C245.525 92.8135 242.926 92.585 240.252 92.3475V18.9389C286.174 23.5059 316.051 27.6164 357.641 40.2777V114.128Z" fill="#BEF0ED" stroke="#171753" stroke-width="2"/>
<path d="M308.084 41.4744C317.251 42.4744 338.284 46.0744 349.084 52.4744" stroke="#171753" stroke-linecap="round"/>
<path d="M308.084 49.4744C317.251 50.4744 338.284 54.0744 349.084 60.4744" stroke="#171753" stroke-linecap="round"/>
<path d="M308.084 57.4744C317.251 58.4744 338.284 62.0744 349.084 68.4744" stroke="#171753" stroke-linecap="round"/>
<path d="M308.084 65.4744C317.251 66.4744 338.284 70.0744 349.084 76.4744" stroke="#171753" stroke-linecap="round"/>
<path d="M308.084 73.4744C317.251 74.4744 338.284 78.0744 349.084 84.4744" stroke="#171753" stroke-linecap="round"/>
<path d="M308.084 81.4744C312.096 81.912 318.38 82.8475 325.084 84.2977" stroke="#171753" stroke-linecap="round"/>
<circle cx="275.084" cy="57.9744" r="22.5" fill="#171753"/>
<path d="M277.584 32.4744L275.084 58.4744L293.084 73.9744" stroke="#BEF0ED" stroke-width="2" stroke-linecap="round"/>
<g style="mix-blend-mode:multiply">
<path d="M325.001 349.974C325.001 344.362 321.589 338.922 315.204 333.89C308.825 328.863 299.558 324.31 288.056 320.476C265.057 312.81 233.247 308.058 198.084 308.058C162.922 308.058 131.112 312.81 108.113 320.476C96.6105 324.31 87.3441 328.863 80.9654 333.89C74.5801 338.922 71.1683 344.362 71.1683 349.974C71.1683 355.587 74.5801 361.027 80.9654 366.059C87.3441 371.086 96.6105 375.638 108.113 379.473C131.112 387.139 162.922 391.891 198.084 391.891C233.247 391.891 265.057 387.139 288.056 379.473C299.558 375.638 308.825 371.086 315.204 366.059C321.589 361.027 325.001 355.587 325.001 349.974Z" fill="#ECFFFE"/>
<path d="M325.001 349.974C325.001 344.362 321.589 338.922 315.204 333.89C308.825 328.863 299.558 324.31 288.056 320.476C265.057 312.81 233.247 308.058 198.084 308.058C162.922 308.058 131.112 312.81 108.113 320.476C96.6105 324.31 87.3441 328.863 80.9654 333.89C74.5801 338.922 71.1683 344.362 71.1683 349.974C71.1683 355.587 74.5801 361.027 80.9654 366.059C87.3441 371.086 96.6105 375.638 108.113 379.473C131.112 387.139 162.922 391.891 198.084 391.891C233.247 391.891 265.057 387.139 288.056 379.473C299.558 375.638 308.825 371.086 315.204 366.059C321.589 361.027 325.001 355.587 325.001 349.974Z" stroke="#171753" stroke-width="1.16761"/>
</g>
<path d="M125.211 306.054L125.729 306.355L126.322 306.276L150.335 303.083V321.56C150.237 322.251 149.859 322.952 148.693 323.588L148.673 323.599L148.652 323.611L105.978 348.404L105.978 348.404L105.967 348.411C104.655 349.186 102.769 349.632 100.754 349.632C98.7459 349.632 96.8097 349.189 95.4057 348.398L52.5897 323.61L52.5704 323.598L52.5508 323.588C51.237 322.871 50.9091 322.011 50.9091 321.669V321.519V302.319L91.6097 296.96L92.003 296.908L92.3356 296.692L95.3075 294.76C96.6186 293.995 98.4908 293.556 100.491 293.556C102.498 293.556 104.433 293.999 105.837 294.79L125.211 306.054Z" fill="#6B5FA5" stroke="#171753" stroke-width="3.50284"/>
<path d="M95.2656 274.049L95.2656 274.049L95.2768 274.042C96.5892 273.266 98.4748 272.821 100.49 272.821C102.498 272.821 104.434 273.263 105.838 274.055C105.84 274.056 105.843 274.057 105.845 274.059L148.641 298.835C148.643 298.836 148.645 298.838 148.647 298.839C149.945 299.608 150.259 300.427 150.259 300.915C150.259 301.386 149.965 302.158 148.693 302.852L148.672 302.863L148.652 302.875L105.978 327.668L105.978 327.668L105.966 327.675C104.654 328.45 102.768 328.896 100.753 328.896C98.7453 328.896 96.8091 328.453 95.4052 327.662L52.5892 302.874L52.5813 302.869L52.5734 302.865C51.1536 302.062 50.871 301.268 50.871 300.858C50.871 300.448 51.1536 299.654 52.5734 298.852L52.5825 298.847L52.5915 298.842L95.2656 274.049Z" fill="#8989C7" stroke="#171753" stroke-width="3.50284"/>
<path d="M112.567 334.743L110.613 335.945V333.541L112.567 332.489V334.743Z" fill="#171753"/>
<path d="M116.924 332.339L114.821 333.541V331.137L116.924 329.935V332.339Z" fill="#171753"/>
<path d="M121.132 329.934L119.028 330.986V328.732L121.132 327.53V329.934Z" fill="#171753"/>
<path d="M117.676 336.696L115.572 337.748V335.494L117.676 334.292V336.696Z" fill="#171753"/>
<path d="M121.432 334.443L119.329 335.645V333.24L121.432 332.189V334.443Z" fill="#171753"/>
<path d="M134.655 321.97L132.702 323.173V320.919L134.655 319.717V321.97Z" fill="#171753"/>
<path d="M146.376 315.209L144.423 316.411V314.157L146.376 312.955V315.209Z" fill="#171753"/>
<path d="M125.34 327.38L123.386 328.582V326.328L125.34 325.126V327.38Z" fill="#171753"/>
<path d="M125.212 267.438L125.729 267.739L126.323 267.66L150.336 264.467V282.945C150.226 283.722 149.803 284.463 148.808 284.915L148.728 284.951L148.653 284.995L105.979 309.788L105.979 309.788L105.967 309.794C104.655 310.57 102.769 311.016 100.754 311.016C98.7463 311.016 96.8101 310.573 95.4062 309.782L52.5902 284.994L52.5709 284.982L52.5513 284.972C51.2375 284.255 50.9096 283.395 50.9096 283.053V282.903V263.703L91.6102 258.344L92.0035 258.292L92.3361 258.076L95.308 256.144C96.6191 255.379 98.4913 254.94 100.491 254.94C102.498 254.94 104.434 255.383 105.838 256.174L125.212 267.438Z" fill="#6B5FA5" stroke="#171753" stroke-width="3.50284"/>
<path d="M95.1167 235.583L95.1167 235.583L95.1279 235.576C96.4403 234.8 98.3259 234.355 100.341 234.355C102.349 234.355 104.286 234.798 105.69 235.589C105.692 235.59 105.694 235.592 105.696 235.593L148.642 260.369C148.644 260.371 148.647 260.372 148.649 260.373C149.976 261.159 150.249 261.939 150.242 262.367C150.236 262.798 149.935 263.6 148.521 264.399L148.512 264.404L148.503 264.409L105.829 289.202L105.829 289.202L105.818 289.209C104.505 289.984 102.619 290.43 100.604 290.43C98.5964 290.43 96.6602 289.987 95.2563 289.196L52.4402 264.408L52.4324 264.403L52.4245 264.399C51.0047 263.596 50.7221 262.803 50.7221 262.392C50.7221 261.982 51.0047 261.189 52.4245 260.386L52.4336 260.381L52.4425 260.376L95.1167 235.583Z" fill="#8989C7" stroke="#171753" stroke-width="3.50284"/>
<path opacity="0.6" d="M129.098 260.363L104.155 245.938C102.201 244.736 98.8956 244.736 96.9422 245.938L72.1491 260.363C70.1957 261.565 70.1957 263.369 72.1491 264.571L97.0925 278.996C99.0459 280.198 102.352 280.198 104.305 278.996L129.098 264.571C131.051 263.369 131.051 261.415 129.098 260.363Z" fill="#171753"/>
<path d="M112.57 296.276L110.616 297.328V295.074L112.57 293.872V296.276Z" fill="#171753"/>
<path d="M116.927 293.721L114.824 294.923V292.669L116.927 291.467V293.721Z" fill="#171753"/>
<path d="M121.134 291.317L119.03 292.519V290.115L121.134 288.913V291.317Z" fill="#171753"/>
<path d="M117.679 298.079L115.575 299.281V296.877L117.679 295.675V298.079Z" fill="#171753"/>
<path d="M121.435 295.976L119.331 297.028V294.774L121.435 293.572V295.976Z" fill="#171753"/>
<path d="M134.658 283.504L132.705 284.556V282.302L134.658 281.1V283.504Z" fill="#171753"/>
<path d="M146.378 276.742L144.424 277.944V275.54L146.378 274.338V276.742Z" fill="#171753"/>
<path d="M125.342 288.913L123.389 289.965V287.711L125.342 286.509V288.913Z" fill="#171753"/>
<path d="M120.004 235.077L120.412 235.315L120.881 235.253L139.827 232.734V247.312C139.749 247.854 139.448 248.438 138.474 249.064L104.829 268.611L104.829 268.611L104.82 268.616C103.785 269.228 102.297 269.58 100.707 269.58C99.1226 269.58 97.5949 269.23 96.4872 268.606L62.7049 249.048L62.6897 249.039L62.6743 249.031C61.6376 248.465 61.379 247.786 61.379 247.517V247.398V232.131L93.4921 227.902L93.8024 227.861L94.0648 227.691L96.4097 226.167C97.4441 225.563 98.9213 225.217 100.499 225.217C102.083 225.217 103.61 225.566 104.718 226.19L120.004 235.077Z" fill="#6B5FA5" stroke="#171753" stroke-width="2.76377"/>
<path d="M96.3754 209.826L96.3755 209.826L96.3861 209.82C97.4216 209.208 98.9094 208.856 100.499 208.856C102.084 208.856 103.611 209.206 104.719 209.83C104.721 209.831 104.723 209.832 104.725 209.833L138.491 229.382C138.492 229.383 138.494 229.384 138.496 229.385C139.543 230.005 139.758 230.621 139.753 230.958C139.748 231.299 139.511 231.931 138.395 232.561L138.388 232.565L138.381 232.57L104.711 252.132L104.711 252.132L104.702 252.137C103.666 252.749 102.178 253.1 100.588 253.1C99.0043 253.1 97.4767 252.751 96.369 252.127L62.5866 232.569L62.5804 232.565L62.5742 232.561C61.454 231.928 61.231 231.302 61.231 230.978C61.231 230.655 61.454 230.028 62.5742 229.395L62.5804 229.392L62.5866 229.388L96.3754 209.826Z" fill="#8989C7" stroke="#171753" stroke-width="2.76377"/>
<path d="M96.3754 209.826L96.3755 209.826L96.3861 209.82C97.4216 209.208 98.9094 208.856 100.499 208.856C102.084 208.856 103.611 209.206 104.719 209.83C104.721 209.831 104.723 209.832 104.725 209.833L138.491 229.382C138.492 229.383 138.494 229.384 138.496 229.385C139.543 230.005 139.758 230.621 139.753 230.958C139.748 231.299 139.511 231.931 138.395 232.561L138.388 232.565L138.381 232.57L104.711 252.132L104.711 252.132L104.702 252.137C103.666 252.749 102.178 253.1 100.588 253.1C99.0043 253.1 97.4767 252.751 96.369 252.127L62.5866 232.569L62.5804 232.565L62.5742 232.561C61.454 231.928 61.231 231.302 61.231 230.978C61.231 230.655 61.454 230.028 62.5742 229.395L62.5804 229.392L62.5866 229.388L96.3754 209.826Z" fill="#6B5FA5" stroke="#171753" stroke-width="2.76377"/>
<path opacity="0.6" d="M126.153 229.14L103.745 216.218C101.967 215.151 99.1216 215.151 97.3432 216.218L75.0545 229.14C73.2761 230.208 73.2761 231.867 75.0545 232.816L97.4618 245.739C99.2402 246.806 102.086 246.806 103.864 245.739L126.153 232.816C127.931 231.867 127.931 230.208 126.153 229.14Z" fill="#8989C7"/>
<path d="M110.029 257.713L108.488 258.661V256.765L110.029 255.816V257.713Z" fill="#171753"/>
<path d="M113.467 255.816L111.808 256.646V254.867L113.467 253.919V255.816Z" fill="#171753"/>
<path d="M116.786 253.801L115.126 254.749V252.971L116.786 252.022V253.801Z" fill="#171753"/>
<path d="M114.06 259.136L112.4 260.084V258.187L114.06 257.357V259.136Z" fill="#171753"/>
<path d="M117.024 257.476L115.364 258.424V256.527L117.024 255.579V257.476Z" fill="#171753"/>
<path d="M127.457 247.635L125.916 248.584V246.687L127.457 245.739V247.635Z" fill="#171753"/>
<path d="M136.704 242.3L135.163 243.249V241.352L136.704 240.403V242.3Z" fill="#171753"/>
<path d="M120.107 251.904L118.565 252.852V250.955L120.107 250.007V251.904Z" fill="#171753"/>
<path d="M100.628 252.85L100.628 269.929" stroke="#171753" stroke-width="3.50284"/>
<path d="M100.628 291.692L100.628 312.771" stroke="#171753" stroke-width="3.50284"/>
<path d="M100.628 330.535L100.628 351.614" stroke="#171753" stroke-width="3.50284"/>
<path d="M270.448 340.094C270.448 340.094 270.448 196.093 270.448 194.253C270.448 194.253 270.448 193.793 269.989 193.793L199.325 212.196L219.515 172.17H219.056L152.063 211.275C152.063 211.275 152.063 211.275 151.604 211.275L143.345 208.975C142.886 208.975 142.886 208.975 142.886 209.435C142.886 211.735 142.886 354.356 142.886 354.816C142.886 356.196 147.935 360.084 145.18 358.496L188.312 383.34C191.983 385.64 196.572 385.64 200.243 383.34L268.153 344.234C269.53 342.854 270.448 341.474 270.448 340.094Z" fill="#8989C7"/>
<path d="M194.278 386.56C191.983 386.56 189.689 386.1 187.395 384.72L144.262 359.877C142.427 358.956 141.509 357.116 141.05 354.816C141.05 354.356 141.05 354.356 141.05 249.461C141.05 226.918 141.05 209.895 141.05 209.435C141.05 208.515 141.509 208.055 141.968 207.595C142.427 207.135 143.345 207.135 143.803 207.135L151.145 209.435L217.679 170.79C218.597 170.329 219.056 170.329 219.973 170.79L221.35 171.71L202.078 209.435L269.53 191.953H269.989C270.906 192.413 271.824 193.333 271.824 194.253V340.094C271.824 342.394 270.447 344.234 268.612 345.154L200.701 384.26C198.866 386.1 196.572 386.56 194.278 386.56ZM144.721 211.275C144.721 216.336 144.721 231.518 144.721 249.461C144.721 290.867 144.721 353.436 144.721 354.356C144.721 354.816 145.18 355.736 146.098 356.196L189.23 381.04C192.442 382.88 196.113 382.88 199.325 381.04L267.236 342.394C268.153 341.934 268.612 341.014 268.612 340.094V196.553L199.325 214.496L198.407 214.036L197.031 213.116L215.385 177.23L152.981 212.655C152.522 213.116 151.604 213.116 151.145 212.655L144.721 211.275Z" fill="#171753"/>
<path d="M269.989 193.793L199.326 212.196L193.819 227.838V384.26C196.114 384.26 197.949 383.8 200.243 382.88L268.154 343.775C269.53 342.854 270.448 341.474 270.448 340.094C270.448 340.094 270.448 196.093 269.989 193.793C270.448 194.253 270.448 193.793 269.989 193.793Z" fill="#8989C7"/>
<path d="M194.278 386.561C193.819 386.561 193.819 386.561 194.278 386.561H191.984V227.378L197.949 209.435L199.326 210.355L269.989 191.953H270.448C271.366 192.413 272.284 193.333 272.284 194.253V340.094C272.284 342.394 270.907 344.695 269.072 345.615L201.161 384.72C198.867 386.101 196.572 386.561 194.278 386.561ZM195.655 228.298V382.42C197.031 382.42 197.949 381.96 199.326 381.04L267.236 342.394C268.154 341.934 268.613 341.014 268.613 340.094V196.553L200.702 214.036L195.655 228.298Z" fill="#171753"/>
<path d="M149.309 214.956C149.309 214.956 149.768 213.116 150.685 210.815L143.344 208.975C142.885 208.975 142.885 208.975 142.885 209.435C142.885 211.736 142.885 354.356 142.885 354.816C142.885 356.196 143.802 357.576 145.179 358.497L149.309 360.797V225.538V214.956Z" fill="#171753"/>
<path d="M151.144 363.557L143.802 359.417C141.967 358.497 141.049 356.656 140.59 354.356C140.59 353.896 140.59 353.896 140.59 249.001C140.59 226.458 140.59 209.435 140.59 208.975C140.59 208.055 141.049 207.595 141.508 207.135C141.967 206.675 142.885 206.675 143.343 206.675L152.979 209.435L152.521 211.275C152.062 213.116 151.603 214.496 151.144 214.956V363.557ZM144.72 211.275C144.72 216.336 144.72 231.518 144.72 249.461C144.72 290.867 144.72 353.436 144.72 354.356C144.72 354.816 145.179 355.736 146.097 356.196L147.473 357.116V214.496V214.036C147.473 214.036 147.932 213.116 148.391 212.196L144.72 211.275Z" fill="#171753"/>
<path d="M188.313 237.499L145.18 212.195C141.968 210.355 141.968 206.214 145.18 204.374L213.55 164.809C217.221 162.968 221.35 162.968 225.021 164.809L268.154 190.112C271.366 191.952 271.366 196.093 268.154 197.933L199.784 237.499C196.113 239.799 191.984 239.799 188.313 237.499Z" fill="#ECFFFE"/>
<path d="M194.278 241.18C191.983 241.18 189.689 240.719 187.395 239.339L144.262 214.036C142.427 213.115 141.05 210.815 141.05 208.515C141.05 206.214 142.427 203.914 144.262 202.994L212.632 163.428C216.761 161.128 221.809 161.128 225.939 163.428L269.071 188.732C270.906 190.112 272.283 191.952 272.283 194.253C272.283 196.553 270.906 198.853 269.071 199.774L200.701 239.339C198.866 240.259 196.572 241.18 194.278 241.18ZM219.056 165.269C217.22 165.269 215.844 165.729 214.467 166.649L146.098 206.214C145.18 206.675 144.721 207.595 144.721 208.515C144.721 209.435 145.18 210.355 146.098 210.815L189.23 236.119C191.983 237.959 195.654 237.959 198.866 236.119L267.236 196.553C268.153 196.093 268.612 195.173 268.612 194.253C268.612 193.333 268.153 192.413 267.236 191.952L224.103 166.649C222.727 165.729 220.891 165.269 219.056 165.269Z" fill="#171753"/>
<path d="M203.456 351.595C202.997 351.595 202.079 351.595 201.62 351.135C200.244 350.215 199.785 348.835 199.785 346.995V338.253C199.785 335.033 201.62 331.352 204.373 329.972L258.518 298.688C259.895 297.768 261.271 297.768 262.189 298.688C263.566 299.608 264.024 300.988 264.024 302.828V311.569C264.024 314.79 262.189 318.47 259.436 319.851L205.291 351.135C204.832 351.595 204.373 351.595 203.456 351.595ZM260.812 300.528C260.354 300.528 260.354 300.528 259.895 300.988L205.75 332.272C204.373 333.193 202.538 335.953 202.538 338.253V346.995C202.538 347.915 202.997 348.375 202.997 348.835C203.456 348.835 203.914 348.835 203.914 348.835L258.059 317.55C259.436 316.63 261.271 313.87 261.271 311.569V302.828C261.271 301.448 261.271 300.988 260.812 300.528Z" fill="#171753"/>
<path d="M217.222 337.793C216.763 337.793 216.304 337.793 215.845 337.333C214.928 336.873 214.469 335.493 214.469 334.573C214.469 332.272 215.845 329.972 217.681 328.592C219.057 328.132 219.975 327.672 220.893 328.592C221.81 329.052 222.269 330.432 222.269 331.352C222.269 333.653 220.893 335.953 219.057 337.333C218.14 337.333 217.681 337.793 217.222 337.793ZM219.516 330.892C219.057 330.892 219.516 330.892 219.516 330.892C218.14 331.812 217.222 333.193 217.222 334.573C217.222 335.033 217.222 335.033 217.222 335.033C217.222 335.033 217.222 335.033 217.681 335.033C218.598 334.113 219.516 332.272 219.516 330.892Z" fill="#171753"/>
<path d="M226.399 332.273C225.94 332.273 225.481 332.273 225.023 331.813C224.105 331.353 223.646 329.973 223.646 329.052C223.646 326.752 225.023 324.452 226.858 323.072C228.235 322.611 229.152 322.151 230.07 323.072C230.988 323.532 231.447 324.912 231.447 325.832C231.447 328.132 230.07 330.433 228.235 331.813C227.317 332.273 226.858 332.273 226.399 332.273ZM228.693 325.372C228.235 325.372 228.235 325.832 228.693 325.372C227.317 326.292 226.399 327.672 226.399 329.052C226.399 329.512 226.399 329.512 226.399 329.512C226.399 329.512 226.399 329.512 226.858 329.512C227.776 328.592 228.693 327.212 228.693 325.372C228.693 325.832 228.693 325.832 228.693 325.372Z" fill="#171753"/>
<path d="M239.247 320.771C239.247 322.611 237.87 324.451 236.494 325.372C235.117 326.292 233.741 325.372 233.741 323.991C233.741 322.151 235.117 320.311 236.494 319.391C237.87 318.471 239.247 318.931 239.247 320.771Z" fill="#171753"/>
<path d="M244.294 321.691C243.835 321.691 243.376 321.691 242.917 321.231C241.999 320.77 241.541 319.39 241.541 318.47C241.541 316.17 242.917 313.869 244.753 312.489C246.129 312.029 247.047 311.569 247.965 312.489C248.882 312.949 249.341 314.33 249.341 315.25C249.341 317.55 247.965 319.85 246.129 321.231C245.67 321.691 245.211 321.691 244.294 321.691ZM246.588 314.79C246.588 314.79 246.588 315.25 246.588 314.79C245.211 315.71 244.294 317.09 244.294 318.47C244.294 318.93 244.294 318.93 244.294 318.93C244.294 318.93 244.294 318.93 244.753 318.93C246.129 318.01 247.047 316.63 246.588 314.79C247.047 315.25 246.588 315.25 246.588 314.79Z" fill="#171753"/>
<path d="M253.471 316.63C253.012 316.63 252.553 316.63 252.094 316.17C251.177 315.71 250.718 314.33 250.718 313.41C250.718 311.11 252.094 308.809 253.93 307.429C255.306 306.969 256.224 306.509 257.142 307.429C258.059 307.889 258.518 309.269 258.518 310.189C258.518 312.49 257.142 314.79 255.306 316.17C254.847 316.17 254.389 316.63 253.471 316.63ZM255.765 309.729C254.389 310.65 253.471 312.03 253.471 313.41C253.471 313.87 253.471 313.87 253.471 313.87C253.471 313.87 253.471 313.87 253.93 313.87C255.306 312.95 256.224 311.11 255.765 309.729C256.224 309.729 255.765 309.729 255.765 309.729Z" fill="#171753"/>
<path d="M203.456 319.391C202.997 319.391 202.079 319.391 201.62 318.931C200.244 318.011 199.785 316.63 199.785 314.79V306.049C199.785 302.828 201.62 299.148 204.373 297.768L258.518 266.483C259.895 265.563 261.271 265.563 262.189 266.483C263.566 267.403 264.024 268.784 264.024 270.624V279.365C264.024 282.585 262.189 286.266 259.436 287.646L205.291 318.931C204.832 319.391 204.373 319.391 203.456 319.391ZM260.812 268.323C260.354 268.323 260.354 268.323 259.895 268.784L205.75 300.068C204.373 300.988 202.538 303.749 202.538 306.049V314.79C202.538 315.71 202.997 316.17 202.997 316.63C203.456 316.63 203.914 316.63 203.914 316.63L258.059 285.346C259.436 284.426 261.271 281.665 261.271 279.365V270.624C261.73 269.244 261.271 268.784 260.812 268.323Z" fill="#E3E0EB"/>
<path d="M208.045 310.649C207.586 310.649 207.127 310.649 206.668 310.189C205.75 309.729 205.292 308.349 205.292 307.429C205.292 305.129 206.668 302.828 208.503 301.448C209.88 300.988 210.798 300.528 211.715 301.448C212.633 301.908 213.092 303.288 213.092 304.208C213.092 306.509 211.715 308.809 209.88 310.189C209.421 310.649 208.503 310.649 208.045 310.649ZM210.339 303.748C209.88 303.748 210.339 303.748 210.339 303.748C208.962 304.668 208.045 306.049 208.045 307.429C208.045 307.889 208.045 307.889 208.045 307.889C208.045 307.889 208.045 307.889 208.503 307.889C209.421 306.969 210.339 305.589 210.339 303.748C210.339 304.208 210.339 303.748 210.339 303.748Z" fill="#E3E0EB"/>
<path d="M220.892 299.148C220.892 300.988 219.515 302.828 218.139 303.749C216.762 304.669 215.386 303.749 215.386 302.368C215.386 300.988 216.762 298.688 218.139 297.768C219.515 296.848 220.892 297.308 220.892 299.148Z" fill="#E3E0EB"/>
<path d="M226.399 300.068C225.94 300.068 225.481 300.068 225.023 299.608C224.105 299.148 223.646 297.768 223.646 296.848C223.646 294.547 225.023 292.247 226.858 290.867C228.235 290.407 229.152 289.947 230.07 290.867C230.988 291.327 231.447 292.707 231.447 293.627C231.447 295.928 230.07 298.228 228.235 299.608C227.317 300.068 226.858 300.068 226.399 300.068ZM228.693 293.167C228.235 293.167 228.693 293.167 228.693 293.167C227.317 294.087 226.399 295.467 226.399 296.848C226.399 297.308 226.399 297.308 226.399 297.308C226.399 297.308 226.399 297.308 226.858 297.308C227.776 296.388 228.693 295.007 228.693 293.167C228.693 293.627 228.693 293.167 228.693 293.167Z" fill="#E3E0EB"/>
<path d="M235.576 295.008C235.117 295.008 234.658 295.008 234.199 294.548C233.282 294.088 232.823 292.707 232.823 291.787C232.823 289.487 234.199 287.187 236.035 285.806C236.952 285.346 238.329 284.886 239.247 285.806C240.164 286.266 240.623 287.647 240.623 288.567C240.623 290.867 239.247 293.167 237.411 294.548C236.494 294.548 236.035 295.008 235.576 295.008ZM237.87 288.107C237.411 288.107 237.87 288.107 237.87 288.107C236.494 289.027 235.576 290.407 235.576 291.787C235.576 292.247 235.576 292.247 235.576 292.247C235.576 292.247 235.576 292.247 236.035 292.247C236.952 291.327 237.87 289.487 237.87 288.107Z" fill="#E3E0EB"/>
<path d="M244.753 289.486C244.294 289.486 243.835 289.486 243.376 289.026C242.458 288.566 242 287.186 242 286.266C242 283.965 243.376 281.665 245.212 280.285C246.588 279.825 247.506 279.365 248.423 280.285C249.341 280.745 249.8 282.125 249.8 283.045C249.8 285.346 248.423 287.646 246.588 289.026C245.67 289.486 245.212 289.486 244.753 289.486ZM247.047 282.585C246.588 282.585 246.588 282.585 247.047 282.585C245.67 283.505 244.753 284.886 244.753 286.266C244.753 286.726 244.753 286.726 244.753 286.726C244.753 286.726 244.753 286.726 245.212 286.726C246.129 285.806 247.047 284.425 247.047 282.585C247.047 283.045 247.047 282.585 247.047 282.585Z" fill="#E3E0EB"/>
<path d="M203.456 287.646C202.997 287.646 202.079 287.646 201.62 287.186C200.244 286.266 199.785 284.886 199.785 283.045V274.304C199.785 271.084 201.62 267.403 204.373 266.023L258.518 234.739C259.895 233.818 261.271 233.818 262.189 234.739C263.566 235.659 264.024 237.039 264.024 238.879V247.62C264.024 250.841 262.189 254.521 259.436 255.902L205.291 287.186C204.832 287.186 204.373 287.646 203.456 287.646ZM260.812 236.579C260.354 236.579 260.354 236.579 259.895 237.039L205.75 268.323C204.373 269.243 202.538 272.004 202.538 274.304V283.045C202.538 283.966 202.997 284.426 202.997 284.886C203.456 284.886 203.914 284.886 203.914 284.886L258.059 253.601C259.436 252.681 261.271 249.921 261.271 247.62V238.879C261.73 237.499 261.271 236.579 260.812 236.579Z" fill="#171753"/>
<path d="M208.045 278.905C207.586 278.905 207.127 278.905 206.668 278.445C205.75 277.985 205.292 276.605 205.292 275.684C205.292 273.384 206.668 271.084 208.503 269.704C209.88 269.244 210.798 268.783 211.715 269.704C212.633 270.164 213.092 271.544 213.092 272.464C213.092 274.764 211.715 277.065 209.88 278.445C209.421 278.445 208.503 278.905 208.045 278.905ZM210.339 272.004C209.88 272.004 210.339 272.004 210.339 272.004C208.962 272.924 208.045 274.304 208.045 275.684C208.045 276.145 208.045 276.145 208.045 276.145C208.045 276.145 208.045 276.145 208.503 276.145C209.421 275.224 210.339 273.384 210.339 272.004Z" fill="#171753"/>
<path d="M217.222 273.384C216.763 273.384 216.304 273.384 215.845 272.924C214.928 272.464 214.469 271.084 214.469 270.163C214.469 267.863 215.845 265.563 217.681 264.183C219.057 263.723 219.975 263.262 220.893 264.183C221.81 264.643 222.269 266.023 222.269 266.943C222.269 269.243 220.893 271.544 219.057 272.924C218.14 273.384 217.681 273.384 217.222 273.384ZM219.516 266.483C219.057 266.943 219.516 266.483 219.516 266.483C218.14 267.403 217.222 268.783 217.222 270.163C217.222 270.624 217.222 270.624 217.222 270.624C217.222 270.624 217.222 270.624 217.681 270.624C218.598 269.703 219.516 268.323 219.516 266.483C219.516 266.943 219.516 266.943 219.516 266.483Z" fill="#171753"/>
<path d="M226.399 268.323C225.94 268.323 225.481 268.323 225.023 267.863C224.105 267.403 223.646 266.023 223.646 265.103C223.646 262.802 225.023 260.502 226.858 259.122C228.235 258.662 229.152 258.202 230.07 259.122C230.988 259.582 231.447 260.962 231.447 261.882C231.447 264.183 230.07 266.483 228.235 267.863C227.317 267.863 226.858 268.323 226.399 268.323ZM228.693 261.422C228.235 261.422 228.693 261.422 228.693 261.422C227.317 262.342 226.399 263.722 226.399 265.103C226.399 265.563 226.399 265.563 226.399 265.563C226.399 265.563 226.399 265.563 226.858 265.563C227.776 264.643 228.693 262.802 228.693 261.422Z" fill="#171753"/>
<path d="M239.247 256.362C239.247 258.202 237.87 260.042 236.494 260.962C235.117 261.882 233.741 260.962 233.741 259.582C233.741 258.202 235.117 255.901 236.494 254.981C237.87 254.061 239.247 254.981 239.247 256.362Z" fill="#171753"/>
<path d="M248.423 251.301C248.423 253.141 247.047 254.981 245.67 255.902C244.294 256.822 242.917 255.902 242.917 254.521C242.917 252.681 244.294 250.841 245.67 249.921C247.047 249.001 248.423 249.461 248.423 251.301Z" fill="#171753"/>
<path d="M253.471 252.221C253.012 252.221 252.553 252.221 252.094 251.761C251.177 251.301 250.718 249.921 250.718 249C250.718 246.7 252.094 244.4 253.93 243.02C255.306 242.559 256.224 242.099 257.142 243.02C258.059 243.48 258.518 244.86 258.518 245.78C258.518 248.08 257.142 250.381 255.306 251.761C254.847 252.221 254.389 252.221 253.471 252.221ZM255.765 245.32C254.389 246.24 253.471 247.62 253.471 249C253.471 249.46 253.471 249.46 253.471 249.46C253.471 249.46 253.471 249.46 253.93 249.46C255.306 248.54 256.224 247.16 255.765 245.32C256.224 245.78 255.765 245.32 255.765 245.32Z" fill="#171753"/>
<path d="M173.17 307.429L135.544 285.346C134.626 284.886 133.708 283.506 133.708 282.126V240.72C133.708 239.34 134.626 238.879 135.544 239.34L173.17 261.883C174.088 262.343 175.005 263.723 175.005 265.103V306.509C175.005 307.429 174.088 308.349 173.17 307.429Z" fill="#E3E0EB"/>
<path d="M173.628 309.73C173.169 309.73 172.71 309.73 172.251 309.27L134.625 287.186C132.79 286.726 131.872 284.426 131.872 282.586V241.18C131.872 239.8 132.331 238.879 133.249 238.419C134.166 237.959 135.084 237.959 136.002 238.419L173.628 260.503C175.004 261.423 176.381 263.263 176.381 265.103V306.509C176.381 307.889 175.922 308.809 175.004 309.27C174.546 309.73 174.087 309.73 173.628 309.73ZM135.543 242.56V282.586C135.543 283.046 136.002 283.966 136.002 283.966L172.71 305.129V265.103C172.71 264.643 172.251 263.723 172.251 263.723L135.543 242.56Z" fill="#171753"/>
<path d="M165.827 271.084C165.827 272.464 164.91 272.924 163.533 272.464C162.156 271.544 161.239 270.164 161.239 268.784C161.239 267.403 162.156 266.943 163.533 267.403C164.91 267.864 165.827 269.704 165.827 271.084Z" fill="#171753"/>
<path d="M327.394 327.199L327.911 327.5L328.505 327.421L353.367 324.116V343.266C353.264 343.995 352.857 344.775 351.568 345.603L307.532 371.187L307.532 371.187L307.521 371.194C306.155 372.001 304.197 372.463 302.108 372.463C300.027 372.463 298.018 372.004 296.557 371.181L252.342 345.583L252.323 345.572L252.303 345.561C250.935 344.815 250.578 343.91 250.578 343.53V343.374V323.342L292.658 317.801L293.051 317.749L293.384 317.533L296.454 315.537C297.819 314.741 299.764 314.286 301.837 314.286C303.917 314.286 305.926 314.744 307.386 315.567L327.394 327.199Z" fill="#6B5FA5" stroke="#171753" stroke-width="3.50284"/>
<path d="M296.411 294.15L296.417 294.146L296.424 294.142C297.79 293.335 299.748 292.873 301.837 292.873C303.918 292.873 305.927 293.332 307.388 294.155C307.39 294.156 307.393 294.158 307.395 294.159L351.589 319.745C351.592 319.747 351.594 319.748 351.596 319.749C352.977 320.567 353.277 321.389 353.27 321.858C353.263 322.331 352.934 323.175 351.464 324.006L351.454 324.011L351.445 324.016L307.377 349.619L307.377 349.619L307.366 349.626C306 350.433 304.041 350.895 301.953 350.895C299.872 350.895 297.863 350.436 296.402 349.613L252.187 324.015L252.179 324.01L252.171 324.006C250.695 323.171 250.384 322.336 250.384 321.884C250.384 321.432 250.695 320.597 252.171 319.762L252.179 319.758L252.187 319.753L296.411 294.15Z" fill="#8989C7" stroke="#171753" stroke-width="3.50284"/>
<path d="M296.411 294.15L296.417 294.146L296.424 294.142C297.79 293.335 299.748 292.873 301.837 292.873C303.918 292.873 305.927 293.332 307.388 294.155C307.39 294.156 307.393 294.158 307.395 294.159L351.589 319.745C351.592 319.747 351.594 319.748 351.596 319.749C352.977 320.567 353.277 321.389 353.27 321.858C353.263 322.331 352.934 323.175 351.464 324.006L351.454 324.011L351.445 324.016L307.377 349.619L307.377 349.619L307.366 349.626C306 350.433 304.041 350.895 301.953 350.895C299.872 350.895 297.863 350.436 296.402 349.613L252.187 324.015L252.179 324.01L252.171 324.006C250.695 323.171 250.384 322.336 250.384 321.884C250.384 321.432 250.695 320.597 252.171 319.762L252.179 319.758L252.187 319.753L296.411 294.15Z" fill="#8989C7" stroke="#171753" stroke-width="3.50284"/>
<path opacity="0.6" d="M335.412 319.479L306.084 302.565C303.757 301.169 300.033 301.169 297.705 302.565L268.533 319.479C266.206 320.875 266.206 323.048 268.533 324.289L297.86 341.203C300.188 342.599 303.912 342.599 306.24 341.203L335.412 324.289C337.739 323.048 337.739 320.875 335.412 319.479Z" fill="#171753"/>
<path d="M314.308 356.875L312.291 358.117V355.634L314.308 354.392V356.875Z" fill="#171753"/>
<path d="M318.809 354.392L316.636 355.478V353.15L318.809 351.909V354.392Z" fill="#171753"/>
<path d="M323.153 351.754L320.98 352.996V350.668L323.153 349.427V351.754Z" fill="#171753"/>
<path d="M319.584 358.737L317.412 359.978V357.496L319.584 356.41V358.737Z" fill="#171753"/>
<path d="M323.463 356.565L321.291 357.806V355.323L323.463 354.082V356.565Z" fill="#171753"/>
<path d="M337.118 343.685L335.101 344.927V342.444L337.118 341.203V343.685Z" fill="#171753"/>
<path d="M349.222 336.702L347.205 337.944V335.461L349.222 334.22V336.702Z" fill="#171753"/>
<path d="M327.498 349.272L325.481 350.513V348.03L327.498 346.789V349.272Z" fill="#171753"/>
<path d="M323.303 287.663L323.738 287.916L324.236 287.849L345.114 285.074V301.155C345.027 301.767 344.686 302.421 343.605 303.116L306.629 324.468L306.622 324.472L306.616 324.476C305.469 325.154 303.824 325.542 302.071 325.542C300.323 325.542 298.636 325.156 297.409 324.465L260.281 302.97L260.265 302.96L260.248 302.951C259.1 302.325 258.8 301.565 258.8 301.246V301.115V284.424L294.135 279.771L294.466 279.728L294.745 279.546L297.323 277.87C298.469 277.201 300.102 276.819 301.843 276.819C303.589 276.819 305.276 277.204 306.503 277.895C306.505 277.897 306.508 277.898 306.51 277.899L323.303 287.663Z" fill="#8989C7" stroke="#171753" stroke-width="2.94141"/>
<path d="M344.369 280.137L307.104 258.768C304.107 257.074 299.286 257.074 296.419 258.768L259.414 280.268C256.417 281.962 256.417 284.698 259.414 286.392L296.55 307.891C299.546 309.585 304.368 309.585 307.234 307.891L344.239 286.392C347.236 284.698 347.236 281.831 344.369 280.137Z" fill="#6B5FA5"/>
<path d="M297.158 260.04L297.158 260.04L297.167 260.034C298.315 259.356 299.959 258.969 301.713 258.969C303.461 258.969 305.15 259.354 306.376 260.046C306.378 260.047 306.379 260.048 306.38 260.049L343.629 281.408C344.763 282.08 345.039 282.796 345.033 283.244C345.026 283.694 344.726 284.427 343.516 285.111L343.508 285.116L343.5 285.12L306.495 306.619L306.495 306.619L306.486 306.625C305.338 307.303 303.694 307.691 301.941 307.691C300.193 307.691 298.506 307.306 297.279 306.614L260.151 285.119L260.144 285.115L260.138 285.111C258.898 284.411 258.637 283.709 258.637 283.33C258.637 282.95 258.898 282.249 260.138 281.548L260.145 281.544L260.153 281.539L297.158 260.04Z" fill="#6B5FA5" stroke="#171753" stroke-width="2.94141"/>
<path d="M299.023 298.695L299.001 298.682L298.979 298.668L274.376 284.48C273.576 283.973 273.394 283.465 273.394 283.264C273.394 283.063 273.576 282.554 274.379 282.047L298.713 267.863C299.482 267.433 300.582 267.177 301.762 267.177C302.943 267.177 304.045 267.434 304.813 267.864L329.408 282.048C330.209 282.556 330.39 283.063 330.39 283.264C330.39 283.465 330.209 283.973 329.407 284.481L304.933 298.67L304.912 298.682L304.891 298.695C304.157 299.154 303.153 299.384 302.023 299.384C300.865 299.384 299.742 299.144 299.023 298.695Z" fill="#6B5FA5" stroke="#8989C7" stroke-width="2.94141"/>
<path d="M312.315 312.582L310.622 313.624V311.67L312.315 310.628V312.582Z" fill="#E3E0EB"/>
<path d="M316.095 310.497L314.271 311.54V309.455L316.095 308.412V310.497Z" fill="#E3E0EB"/>
<path d="M319.743 308.412L317.918 309.324V307.369L319.743 306.327V308.412Z" fill="#E3E0EB"/>
<path d="M316.746 314.275L314.922 315.187V313.233L316.746 312.19V314.275Z" fill="#E3E0EB"/>
<path d="M320.003 312.321L318.179 313.364V311.279L320.003 310.367V312.321Z" fill="#E3E0EB"/>
<path d="M331.47 301.506L329.776 302.549V300.594L331.47 299.552V301.506Z" fill="#E3E0EB"/>
<path d="M341.633 295.643L339.939 296.685V294.731L341.633 293.688V295.643Z" fill="#E3E0EB"/>
<path d="M323.391 306.197L321.697 307.24V305.285L323.391 304.243V306.197Z" fill="#E3E0EB"/>
<path d="M364.644 217.332C364.644 224.827 360.151 232.083 351.759 238.789C343.374 245.489 331.195 251.556 316.079 256.665C285.854 266.88 244.051 273.211 197.842 273.211C151.632 273.211 109.829 266.88 79.6042 256.665C64.488 251.556 52.3091 245.489 43.9244 238.789C35.5323 232.083 31.0391 224.827 31.0391 217.332C31.0391 209.837 35.5323 202.581 43.9244 195.875C52.3091 189.175 64.488 183.109 79.6042 178C109.829 167.784 151.632 161.453 197.842 161.453C244.051 161.453 285.854 167.784 316.079 178C331.195 183.109 343.374 189.175 351.759 195.875C360.151 202.581 364.644 209.837 364.644 217.332Z" stroke="#171753" stroke-width="1.5"/>
<path opacity="0.8" d="M370.336 204.548V85.2039C375.274 86.2844 380.197 88.7311 384.199 91.6511C388.606 94.8671 391.688 98.5016 392.571 101.295C393.441 104.238 393.454 107.101 393.224 110.438C392.581 117.978 391.006 136.945 389.591 154.174C388.883 162.793 388.215 170.978 387.724 177.082C387.479 180.133 387.277 182.665 387.137 184.472C387.01 186.122 386.927 187.239 386.917 187.541C386.591 193.742 382.257 198.095 377.737 200.967C375.495 202.391 373.266 203.41 371.594 204.074C371.125 204.26 370.702 204.418 370.336 204.548Z" fill="#5ED9D1" stroke="#171753" stroke-width="2.33523"/>
<path opacity="0.8" d="M339.755 141.294C357.391 136.063 378.456 126.54 393.268 109.271L386.124 196.231C386.091 196.288 386.051 196.356 386.004 196.436C385.839 196.715 385.586 197.131 385.241 197.664C384.552 198.73 383.496 200.264 382.041 202.115C379.131 205.817 374.63 210.781 368.284 215.796C355.775 225.68 336.069 235.784 307.168 236.778V147.531C311.043 147.234 324.113 145.934 339.755 141.294Z" fill="#BEF0ED" stroke="#171753" stroke-width="2.33523"/>
<path d="M392.988 128.86C387.033 137.5 383.647 147.775 383.53 158.284C383.413 161.319 383.647 164.472 382.479 167.274C381.312 170.076 378.276 172.412 375.474 171.594C372.438 170.777 371.037 167.157 368.351 165.523C366.016 164.005 362.747 164.238 360.411 165.64C357.959 167.041 356.325 169.493 355.157 172.061C352.939 177.082 352.822 182.687 351.304 187.824C349.669 193.078 345.816 198.216 340.328 198.45C338.343 198.566 336.359 197.982 334.374 197.982C330.17 198.099 326.551 201.252 324.566 204.988C322.581 208.725 321.997 212.928 321.413 217.131C321.413 217.131 353.172 220.167 388.901 178.016L392.988 128.86Z" fill="#171753"/>
<path d="M343.903 184.109C343.903 185.947 342.985 187.233 341.882 187.233C340.78 187.233 339.861 185.763 339.861 184.109C339.861 182.456 340.78 180.986 341.882 180.986C343.168 180.986 343.903 182.456 343.903 184.109Z" fill="#171753"/>
<path d="M358.903 147.348C358.903 149.157 357.999 150.423 356.913 150.423C355.828 150.423 354.923 148.976 354.923 147.348C354.923 145.719 355.828 144.272 356.913 144.272C357.999 144.272 358.903 145.539 358.903 147.348Z" fill="#171753"/>
<path d="M379.883 159.55C379.883 161.359 378.979 162.625 377.893 162.625C376.808 162.625 375.903 161.178 375.903 159.55C375.903 157.922 376.808 156.474 377.893 156.474C378.979 156.474 379.883 157.741 379.883 159.55Z" fill="#171753"/>
<path d="M329.883 176.55C329.883 178.359 328.979 179.625 327.893 179.625C326.808 179.625 325.903 178.178 325.903 176.55C325.903 174.922 326.808 173.474 327.893 173.474C328.979 173.474 329.883 174.741 329.883 176.55Z" fill="#171753"/>
<path d="M327.903 176.474L341.903 184.474L356.903 146.974L378.403 159.974L385.903 146.974" stroke="#171753" stroke-linecap="round"/>
<path opacity="0.8" d="M25.4037 204.548V85.2039C20.4654 86.2844 15.5425 88.7311 11.5405 91.6511C7.13298 94.8671 4.05174 98.5016 3.16804 101.295C2.29785 104.238 2.28526 107.101 2.51505 110.438C3.15792 117.978 4.73359 136.945 6.14873 154.174C6.85662 162.793 7.52441 170.978 8.01525 177.082C8.26066 180.133 8.4619 182.665 8.60183 184.472C8.72971 186.122 8.81275 187.239 8.82258 187.541C9.1482 193.742 13.4821 198.095 18.0024 200.967C20.2443 202.391 22.473 203.41 24.1451 204.074C24.6138 204.26 25.0374 204.418 25.4037 204.548Z" fill="#5ED9D1" stroke="#171753" stroke-width="2.33523"/>
<path opacity="0.8" d="M55.9838 141.294C38.3483 136.063 17.2832 126.54 2.47126 109.271L9.61559 196.231C9.64844 196.288 9.68832 196.356 9.73531 196.436C9.90041 196.715 10.1533 197.131 10.498 197.664C11.1874 198.73 12.2436 200.264 13.6982 202.115C16.608 205.817 21.1091 210.781 27.4553 215.796C39.9641 225.68 59.6702 235.784 88.5712 236.778V147.531C84.6961 147.234 71.6267 145.934 55.9838 141.294Z" fill="#BEF0ED" stroke="#171753" stroke-width="2.33523"/>
<path d="M2.75147 128.86C8.7063 137.5 12.0924 147.775 12.2091 158.284C12.3259 161.319 12.0924 164.472 13.26 167.274C14.4276 170.076 17.4634 172.412 20.2657 171.594C23.3015 170.777 24.7026 167.157 27.3881 165.523C29.7233 164.005 32.9927 164.238 35.3279 165.64C37.7799 167.041 39.4145 169.493 40.5821 172.061C42.8006 177.082 42.9174 182.687 44.4353 187.824C46.0699 193.078 49.923 198.216 55.4108 198.45C57.3958 198.566 59.3807 197.982 61.3657 197.982C65.5691 198.099 69.1887 201.252 71.1736 204.988C73.1585 208.725 73.7424 212.928 74.3262 217.131C74.3262 217.131 42.5671 220.167 6.83812 178.016L2.75147 128.86Z" fill="#171753"/>
<path d="M51.8359 184.109C51.8359 185.947 52.7546 187.233 53.8569 187.233C54.9593 187.233 55.8779 185.763 55.8779 184.109C55.8779 182.456 54.9593 180.986 53.8569 180.986C52.5709 180.986 51.8359 182.456 51.8359 184.109Z" fill="#171753"/>
<path d="M36.8359 147.348C36.8359 149.157 37.7405 150.423 38.826 150.423C39.9114 150.423 40.8159 148.976 40.8159 147.348C40.8159 145.719 39.9114 144.272 38.826 144.272C37.7405 144.272 36.8359 145.539 36.8359 147.348Z" fill="#171753"/>
<path d="M15.856 159.55C15.856 161.359 16.7605 162.625 17.846 162.625C18.9314 162.625 19.8359 161.178 19.8359 159.55C19.8359 157.922 18.9314 156.474 17.846 156.474C16.7605 156.474 15.856 157.741 15.856 159.55Z" fill="#171753"/>
<path d="M65.856 176.55C65.856 178.359 66.7605 179.625 67.846 179.625C68.9314 179.625 69.8359 178.178 69.8359 176.55C69.8359 174.922 68.9314 173.474 67.846 173.474C66.7605 173.474 65.856 174.741 65.856 176.55Z" fill="#171753"/>
<path d="M67.8359 176.474L53.8359 184.474L38.8359 146.974L17.3359 159.974L9.83594 146.974" stroke="#171753" stroke-linecap="round"/>
<path d="M220.864 151.628C201.239 150.102 178.931 131.736 165.533 103.763C152.135 75.7891 151.822 46.9459 162.89 30.6731L161.081 26.8409L174.484 20.4397C196.42 9.91192 227.972 30.1884 245.025 65.7363C262.078 101.284 258.024 138.563 236.088 149.091L222.686 155.492L220.864 151.628Z" fill="#BEF0ED"/>
<path d="M246.05 65.2388C228.799 29.2139 196.56 8.62598 174.001 19.4486L159.575 26.3477L161.6 30.6119C150.394 47.7234 151.527 77.196 164.525 104.292C177.523 131.389 199.746 150.72 220.124 152.717L222.149 156.981L236.574 150.082C259.038 139.299 263.287 101.232 246.05 65.2388ZM162.598 27.4432L175.028 21.4815C196.373 11.2355 227.481 31.2488 244.054 66.1762C260.627 101.103 256.987 137.764 235.59 147.883L223.147 153.813L221.522 150.426L220.876 150.395C201.117 148.813 179.268 129.847 166.487 103.183C153.705 76.5185 152.61 47.5887 163.761 31.2446L164.138 30.7162L162.598 27.4432Z" fill="#171753"/>
<path d="M222.769 155.421C244.718 144.925 248.661 107.469 231.719 72.0984C214.777 36.7281 183.14 16.3375 161.177 26.8017C139.215 37.2659 135.285 74.7542 152.227 110.125C169.169 145.495 200.737 165.988 222.769 155.421Z" fill="#5ED9D1"/>
<path d="M155.337 108.64C138.333 73.1427 142.334 35.8472 164.273 25.3377C186.212 14.8282 217.782 35.0845 234.786 70.5814C251.79 106.078 247.789 143.374 225.85 153.883C203.911 164.393 172.341 144.137 155.337 108.64Z" fill="#5ED9D1"/>
<path d="M232.774 71.5866C215.524 35.5617 183.297 15.0056 160.725 25.7965C138.153 36.5874 133.999 74.6151 151.154 110.68C168.309 146.744 200.644 167.292 223.203 156.47C245.762 145.647 249.897 107.664 232.774 71.5866ZM153.309 109.676C136.596 74.7699 140.375 38.0886 161.741 27.9829C183.107 17.8772 214.195 37.7502 230.781 72.7093C247.367 107.668 243.714 144.297 222.316 154.416C200.918 164.535 169.882 144.604 153.182 109.729L153.309 109.676Z" fill="#171753"/>
<path d="M160.214 106.303C146.634 77.9534 149.006 48.562 165.512 40.6552C182.017 32.7485 206.407 49.3206 219.987 77.6702C233.567 106.02 231.196 135.411 214.69 143.318C198.184 151.225 173.794 134.653 160.214 106.303Z" fill="#BEF0ED"/>
<path d="M221.031 77.2271C207.175 48.326 182.073 31.4885 165.01 39.6647C147.948 47.8409 145.363 77.9579 159.269 106.801C173.176 135.644 198.106 152.515 215.194 144.403C232.283 136.29 234.842 106.11 221.031 77.2271ZM161.167 105.718C147.906 77.9854 150.041 49.2093 165.953 41.5835C181.865 33.9576 205.626 50.3445 218.919 78.0636C232.212 105.783 230.058 134.604 214.146 142.23C198.234 149.855 174.526 133.596 161.283 105.819L161.167 105.718Z" fill="#171753"/>
<path d="M160.198 106.342C146.611 78.0006 149.006 48.5951 165.562 40.8147C167.04 40.1268 168.6 39.6316 170.203 39.3413C157.508 49.8817 156.607 76.5089 168.957 102.309C181.307 128.109 202.681 144.218 218.816 140.82C217.573 141.875 216.209 142.777 214.751 143.507C198.195 151.287 173.799 134.716 160.198 106.342Z" fill="#BEF0ED"/>
<path d="M220.61 139.035L218.52 139.565C202.722 142.786 181.825 126.481 169.928 101.685C158.031 76.889 158.46 50.3824 170.877 40.0689L172.877 38.4222L169.908 38.0865C168.214 38.3943 166.567 38.9251 165.012 39.6651C147.982 47.8281 145.365 77.9583 159.271 106.801C173.178 135.644 198.108 152.516 215.196 144.403C216.735 143.624 218.176 142.666 219.489 141.547L220.61 139.035ZM161.285 105.819C148.025 78.0868 150.159 49.3106 166.071 41.6848L166.23 41.619C156.058 54.2067 156.52 78.8176 167.946 102.654C179.371 126.49 198.255 142.251 214.442 142.22L214.251 142.299C198.193 150.022 174.528 133.596 161.285 105.819Z" fill="#171753"/>
<path d="M156.79 97.475L165.242 93.4198L161.096 77.8182L160.397 60.8276L164.439 46.3821L170.138 39.1832L162.395 42.1629L155.563 50.7619L152.033 61.9421L151.784 77.7233L155.637 95.0474L156.79 97.475Z" fill="#171753"/>
<path d="M234.835 79.449L248.478 72.9106L253.273 89.361L255.994 106.11L253.602 125.981L246.422 140.943L239.767 147.271L229.005 152.133L239.146 138.479L242.034 119.446L239.52 94.1943L234.835 79.449Z" fill="#171753"/>
<path d="M171.45 74.1866C170.173 89.6422 179.413 109.245 192.07 118.162C204.727 127.08 216.038 121.62 217.322 106.084C218.606 90.5482 209.367 70.9254 196.702 62.1084C184.037 53.2913 172.721 58.8114 171.45 74.1866Z" stroke="#171753" stroke-width="4.50714" stroke-miterlimit="10"/>
<path d="M183.332 81.4697C183.234 84.9229 183.95 88.3506 185.423 91.4756C186.895 94.6007 189.083 97.3352 191.808 99.4581C197.02 103.065 201.654 100.855 202.176 94.545C202.282 91.0906 201.57 87.6599 200.097 84.5335C198.624 81.4071 196.432 78.6737 193.7 76.5567C188.516 72.8652 183.864 75.0307 183.332 81.4697Z" fill="#171753"/>
<path d="M183.012 76.2121C182.97 77.6527 183.268 79.0828 183.881 80.3872C184.494 81.6916 185.405 82.8337 186.54 83.7213C188.729 85.2204 190.663 84.2997 190.881 81.6597C190.925 80.2191 190.626 78.7887 190.009 77.4864C189.391 76.1842 188.473 75.0474 187.329 74.1701C185.164 72.6514 183.23 73.5721 183.012 76.2121Z" fill="#BEF0ED"/>
<path opacity="0.8" d="M265.546 242.901L265.293 242.836L265.04 242.903C220.166 254.815 174.236 253.967 127 243.075V158.094C175.437 167.369 225.105 167.218 268.18 157.047V243.579L265.546 242.901Z" fill="#BEF0ED" stroke="#171753" stroke-width="2"/>
<path d="M246.74 179.974L229.24 181.474V230.974L246.74 228.474V179.974Z" fill="#171753"/>
<path d="M219.24 185.974L201.74 186.474V232.974L219.24 232.474V185.974Z" stroke="#171753"/>
<path d="M164.74 219.474L147.74 219.623V233.474L164.74 233.325V219.474Z" stroke="#171753"/>
<path d="M191.737 233.886H174.339V202.653H191.737V233.886Z" fill="#171753"/>
<path d="M149.74 184.974H172.24" stroke="#171753" stroke-linecap="round"/>
<path d="M149.74 189.474H172.24" stroke="#171753" stroke-linecap="round"/>
<rect x="144.241" y="178.974" width="34" height="16" stroke="#171753"/>
<path d="M67.6518 55.9888C67.6518 57.3445 66.748 58.4744 65.6182 58.4744C64.4883 58.4744 63.5845 57.3445 63.5845 55.9888C63.5845 54.633 64.4883 53.5032 65.6182 53.5032C66.748 53.2772 67.6518 54.407 67.6518 55.9888Z" fill="#171753"/>
<path d="M104.652 51.9888C104.652 53.3445 103.748 54.4744 102.618 54.4744C101.488 54.4744 100.584 53.3445 100.584 51.9888C100.584 50.633 101.488 49.5032 102.618 49.5032C103.748 49.2772 104.652 50.407 104.652 51.9888Z" fill="#171753"/>
</svg>
