<svg width="96" height="97" viewBox="0 0 96 97" fill="none" xmlns="http://www.w3.org/2000/svg">
<path fill-rule="evenodd" clip-rule="evenodd" d="M48.1654 17.3631C30.9558 17.3631 17.0154 31.3034 17.0154 48.5131C17.0154 65.7227 30.9558 79.6631 48.1654 79.6631C65.3751 79.6631 79.3155 65.7227 79.3155 48.5131C79.3155 31.3034 65.3751 17.3631 48.1654 17.3631ZM14.3154 48.5131C14.3154 29.8122 29.4646 14.6631 48.1654 14.6631C66.8663 14.6631 82.0154 29.8122 82.0154 48.5131C82.0154 67.2139 66.8663 82.3631 48.1654 82.3631C29.4646 82.3631 14.3154 67.2139 14.3154 48.5131Z" fill="#171753"/>
<path fill-rule="evenodd" clip-rule="evenodd" d="M54.3151 33.4275C54.8465 33.9505 54.8532 34.8053 54.3301 35.3366L41.9166 47.9466C41.6519 48.2154 41.6519 48.5637 41.9166 48.8325L54.3301 61.4425C54.8532 61.9738 54.8465 62.8286 54.3151 63.3516C53.7838 63.8747 52.9291 63.868 52.406 63.3366L39.9925 50.7267C38.6933 49.4069 38.6933 47.3722 39.9925 46.0524L52.406 33.4425C52.9291 32.9111 53.7838 32.9044 54.3151 33.4275Z" fill="#171753"/>
</svg>
