<svg width="174" height="173" viewBox="0 0 174 173" fill="none" xmlns="http://www.w3.org/2000/svg">
<path fill-rule="evenodd" clip-rule="evenodd" d="M69.384 123.101C64.7685 120.793 61.1274 117.652 58.5393 113.659L58.527 113.64L58.5152 113.621C55.9985 109.549 54.7595 104.943 54.7595 99.8625V97.7542H77.1913V99.8625C77.1913 101.938 77.8798 103.518 79.2317 104.777C80.5482 105.939 82.543 106.659 85.5062 106.659C87.4658 106.659 88.9914 106.306 90.1671 105.7C91.3962 104.999 92.2756 104.125 92.8743 103.085C93.4955 101.938 93.8212 100.643 93.8212 99.1541C93.8212 96.9016 93.1014 95.1586 91.7064 93.7635L91.6923 93.7495L91.6785 93.7351C90.4414 92.4504 88.5053 91.6487 85.5062 91.6487C83.7745 91.6487 82.2922 91.9162 81.0272 92.4087C79.74 92.937 78.6683 93.5942 77.7869 94.3654L75.8906 96.0246L65.1159 78.11L83.6143 66.7545H57.8966V46.3467H113.521V65.7302L97.1978 75.6605C98.7406 76.0726 100.214 76.5782 101.617 77.1795C106.19 79.139 109.798 82.0109 112.344 85.8213C114.979 89.595 116.253 94.0736 116.253 99.1541V100.368C116.253 105.398 114.972 109.95 112.375 113.958C109.845 117.9 106.224 120.976 101.605 123.213L101.592 123.22C96.9976 125.407 91.6138 126.46 85.5062 126.46C79.4516 126.46 74.0657 125.368 69.4078 123.112L69.384 123.101ZM110.603 112.816C112.964 109.173 114.145 105.023 114.145 100.368V99.1541C114.145 94.4316 112.964 90.3838 110.603 87.0106C108.309 83.5699 105.037 80.9388 100.787 79.1173C98.8894 78.3041 96.8373 77.6724 94.6306 77.2223C93.5943 77.0109 92.5239 76.8395 91.4193 76.7082L111.412 64.5451V48.4549H60.0048V64.6463H87.5302L88.4409 66.2654L67.9995 78.8136L76.3986 92.7788C76.9204 92.3221 77.4896 91.905 78.106 91.5272C78.7647 91.1235 79.4774 90.7649 80.244 90.4513C81.7957 89.8441 83.5498 89.5405 85.5062 89.5405C88.8794 89.5405 91.4431 90.4513 93.1971 92.2728C95.0187 94.0943 95.9294 96.3881 95.9294 99.1541C95.9294 100.976 95.5246 102.628 94.7151 104.113C93.9055 105.529 92.7249 106.676 91.1732 107.553C89.6215 108.363 87.7325 108.768 85.5062 108.768C82.2005 108.768 79.6369 107.958 77.8153 106.339C75.9938 104.652 75.083 102.494 75.083 99.8625H56.8678C56.8678 100.577 56.894 101.28 56.9465 101.971C57.241 105.849 58.3616 109.363 60.3084 112.512C62.6697 116.155 66.0091 119.056 70.3268 121.215C74.6445 123.306 79.7043 124.352 85.5062 124.352C91.3756 124.352 96.4354 123.34 100.686 121.316C105.003 119.225 108.309 116.391 110.603 112.816Z" fill="url(#paint0_linear_3165_3704)"/>
<path d="M85.5983 124.597C79.8933 124.597 74.918 123.551 70.6724 121.46C66.4267 119.302 63.143 116.402 60.8212 112.759C58.5657 109.05 57.438 104.834 57.438 100.113H75.3492C75.3492 102.743 76.2447 104.902 78.0358 106.588C79.827 108.207 82.3478 109.016 85.5983 109.016C87.7875 109.016 89.6449 108.611 91.1707 107.802C92.6965 106.925 93.8574 105.778 94.6534 104.362C95.4495 102.878 95.8475 101.226 95.8475 99.4046C95.8475 96.6392 94.9519 94.3459 93.1608 92.5248C91.436 90.7037 88.9152 89.7931 85.5983 89.7931C83.6745 89.7931 81.9498 90.0966 80.424 90.7037C78.9646 91.3107 77.7041 92.0864 76.6427 93.0306L68.3837 79.0688L88.484 66.5233L87.5885 64.9045H60.5227V48.7168H111.072V64.8033L84.9018 80.991L76.5432 77.8547C77.9363 77.45 79.3958 77.1465 80.9215 76.9441C82.5136 76.7418 84.1389 76.6406 85.7973 76.6406C91.5024 76.6406 96.4445 77.5512 100.624 79.3723C104.803 81.1934 108.02 83.8239 110.276 87.2638C112.598 90.6362 113.759 94.6831 113.759 99.4046V100.619C113.759 105.273 112.598 109.421 110.276 113.063C108.02 116.638 104.77 119.471 100.524 121.561C96.345 123.585 91.3697 124.597 85.5983 124.597Z" fill="#4E4E8D"/>
<path d="M85.5983 124.597C79.8933 124.597 74.918 123.551 70.6724 121.46C66.4267 119.302 63.143 116.402 60.8212 112.759C58.5657 109.05 57.438 104.834 57.438 100.113H75.3492C75.3492 102.743 76.2447 104.902 78.0358 106.588C79.827 108.207 82.3478 109.016 85.5983 109.016C87.7875 109.016 89.6449 108.611 91.1707 107.802C92.6965 106.925 93.8574 105.778 94.6534 104.362C95.4495 102.878 95.8475 101.226 95.8475 99.4046C95.8475 96.6392 94.9519 94.3459 93.1608 92.5248C91.436 90.7037 88.9152 89.7931 85.5983 89.7931C83.6745 89.7931 81.9498 90.0966 80.424 90.7037C78.9646 91.3107 77.7041 92.0864 76.6427 93.0306L68.3837 79.0688L88.484 66.5233L87.5885 64.9045H60.5227V48.7168H111.072V64.8033L84.9018 80.991L76.5432 77.8547C77.9363 77.45 79.3958 77.1465 80.9215 76.9441C82.5136 76.7418 84.1389 76.6406 85.7973 76.6406C91.5024 76.6406 96.4445 77.5512 100.624 79.3723C104.803 81.1934 108.02 83.8239 110.276 87.2638C112.598 90.6362 113.759 94.6831 113.759 99.4046V100.619C113.759 105.273 112.598 109.421 110.276 113.063C108.02 116.638 104.77 119.471 100.524 121.561C96.345 123.585 91.3697 124.597 85.5983 124.597Z" fill="black" fill-opacity="0.2"/>
<g style="mix-blend-mode:color-burn">
<circle cx="86.7732" cy="86.4033" r="85.75" stroke="url(#paint1_linear_3165_3704)"/>
</g>
<defs>
<linearGradient id="paint0_linear_3165_3704" x1="88.9499" y1="142.366" x2="71.8291" y2="68.7565" gradientUnits="userSpaceOnUse">
<stop stop-color="white"/>
<stop offset="1" stop-color="white" stop-opacity="0"/>
</linearGradient>
<linearGradient id="paint1_linear_3165_3704" x1="173.024" y1="0.153364" x2="152.962" y2="179.063" gradientUnits="userSpaceOnUse">
<stop offset="0.00310139" stop-color="#090927"/>
<stop offset="1" stop-color="#23ABA2"/>
</linearGradient>
</defs>
</svg>
