<svg width="174" height="173" viewBox="0 0 174 173" fill="none" xmlns="http://www.w3.org/2000/svg">
<path fill-rule="evenodd" clip-rule="evenodd" d="M58.5352 126.561V108.262C58.5352 104.791 59.1136 101.655 60.336 98.9049L60.3467 98.8809C61.6441 96.0571 63.6162 93.6104 66.2077 91.5372L66.2303 91.5191C68.8459 89.4847 72.1578 87.6456 76.1172 85.9785C76.1174 85.9784 76.117 85.9785 76.1172 85.9785L87.3546 81.2203C90.0677 80.0846 91.7899 78.8201 92.7644 77.5379L92.7802 77.5171L92.7966 77.4966C93.7934 76.2505 94.3585 74.6163 94.3585 72.4383C94.3585 70.6167 93.7575 69.1686 92.5473 67.9584L92.5163 67.9274L92.4865 67.8951C91.4524 66.771 89.8039 66.046 87.1567 66.046C84.45 66.046 82.7853 66.7991 81.7533 67.9658L81.7397 67.9812L81.7258 67.9963C80.62 69.1982 79.955 70.932 79.955 73.4502V75.5585H57.5232V73.4502C57.5232 68.281 58.6389 63.604 60.924 59.4761C63.2251 55.3193 66.6017 52.0695 70.9852 49.7317L70.9979 49.7249C75.4907 47.368 80.9079 46.2454 87.1567 46.2454C93.3231 46.2454 98.6628 47.329 103.083 49.6081C107.511 51.7899 110.933 54.8501 113.252 58.8051C115.623 62.6674 116.79 67.0294 116.79 71.8311V73.0454C116.79 79.1783 115.121 84.4079 111.644 88.5654C108.245 92.6301 102.919 96.133 95.8851 99.1671L95.8721 99.1727L84.6282 103.934C83.1738 104.54 82.2451 105.139 81.7004 105.67C81.5869 105.799 81.4822 105.957 81.3964 106.153H116.588V126.561H58.5352ZM79.0611 108.262V107.452C79.0611 106.987 79.1051 106.554 79.1932 106.153C79.3608 105.391 79.6878 104.744 80.1742 104.214C80.9838 103.404 82.1981 102.662 83.8173 101.987L95.05 97.2313C101.931 94.2628 106.924 90.9234 110.027 87.2129C113.13 83.5023 114.682 78.7799 114.682 73.0454V71.8311C114.682 67.3785 113.603 63.3981 111.444 59.89C109.352 56.3144 106.249 53.5146 102.134 51.4907C98.0859 49.3993 93.0936 48.3536 87.1567 48.3536C81.1525 48.3536 76.0927 49.433 71.9774 51.5919C67.9295 53.7507 64.8599 56.7191 62.7685 60.4971C60.9847 63.7194 59.9617 67.3344 59.6993 71.342C59.6541 72.033 59.6314 72.7358 59.6314 73.4502H77.8467C77.8467 70.5493 78.6226 68.2555 80.1742 66.5689C81.7259 64.8148 84.0534 63.9378 87.1567 63.9378C90.1926 63.9378 92.4864 64.7811 94.0381 66.4677C95.6572 68.0868 96.4668 70.077 96.4668 72.4383C96.4668 75.0019 95.7921 77.127 94.4429 78.8136C93.161 80.5002 91.0697 81.9507 88.1687 83.165L76.936 87.9212C73.0905 89.5404 69.9534 91.2944 67.5247 93.1834C65.1635 95.0724 63.4094 97.265 62.2625 99.7612C61.1831 102.19 60.6434 105.023 60.6434 108.262V124.453H114.48V108.262H79.0611Z" fill="url(#paint0_linear_3165_3703)"/>
<path d="M60.7842 124.662V108.486C60.7842 105.251 61.3234 102.42 62.4019 99.9934C63.5477 97.4995 65.3002 95.3089 67.6592 93.4217C70.0857 91.5344 73.2199 89.782 77.0618 88.1643L88.2842 83.4125C91.1825 82.1992 93.272 80.7501 94.5526 79.065C95.9006 77.38 96.5747 75.2568 96.5747 72.6956C96.5747 70.3365 95.7658 68.3481 94.1482 66.7305C92.5979 65.0454 90.3063 64.2029 87.2732 64.2029C84.1727 64.2029 81.8473 65.0791 80.2971 66.8316C78.7468 68.5166 77.9717 70.8083 77.9717 73.7066H59.7732C59.7732 68.8536 60.8179 64.5399 62.9074 60.7654C64.9968 56.9909 68.0636 54.0252 72.1078 51.8684C76.2193 49.7115 81.2744 48.6331 87.2732 48.6331C93.2046 48.6331 98.1923 49.6778 102.236 51.7672C106.348 53.7893 109.448 56.5865 111.538 60.1588C113.695 63.6637 114.773 67.6404 114.773 72.0889V73.3022C114.773 79.0313 113.223 83.7495 110.122 87.4566C107.022 91.1637 102.034 94.5001 95.1592 97.4658L83.9368 102.218C82.3192 102.892 81.1059 103.633 80.2971 104.442C79.5557 105.251 79.185 106.329 79.185 107.677V111.317L74.8375 108.486H114.571V124.662H60.7842Z" fill="#4E4E8D"/>
<path d="M60.7842 124.662V108.486C60.7842 105.251 61.3234 102.42 62.4019 99.9934C63.5477 97.4995 65.3002 95.3089 67.6592 93.4217C70.0857 91.5344 73.2199 89.782 77.0618 88.1643L88.2842 83.4125C91.1825 82.1992 93.272 80.7501 94.5526 79.065C95.9006 77.38 96.5747 75.2568 96.5747 72.6956C96.5747 70.3365 95.7658 68.3481 94.1482 66.7305C92.5979 65.0454 90.3063 64.2029 87.2732 64.2029C84.1727 64.2029 81.8473 65.0791 80.2971 66.8316C78.7468 68.5166 77.9717 70.8083 77.9717 73.7066H59.7732C59.7732 68.8536 60.8179 64.5399 62.9074 60.7654C64.9968 56.9909 68.0636 54.0252 72.1078 51.8684C76.2193 49.7115 81.2744 48.6331 87.2732 48.6331C93.2046 48.6331 98.1923 49.6778 102.236 51.7672C106.348 53.7893 109.448 56.5865 111.538 60.1588C113.695 63.6637 114.773 67.6404 114.773 72.0889V73.3022C114.773 79.0313 113.223 83.7495 110.122 87.4566C107.022 91.1637 102.034 94.5001 95.1592 97.4658L83.9368 102.218C82.3192 102.892 81.1059 103.633 80.2971 104.442C79.5557 105.251 79.185 106.329 79.185 107.677V111.317L74.8375 108.486H114.571V124.662H60.7842Z" fill="black" fill-opacity="0.2"/>
<g style="mix-blend-mode:color-burn">
<circle cx="87.1567" cy="86.4033" r="85.75" stroke="url(#paint1_linear_3165_3703)"/>
</g>
<defs>
<linearGradient id="paint0_linear_3165_3703" x1="90.4757" y1="142.508" x2="72.6967" y2="69.021" gradientUnits="userSpaceOnUse">
<stop stop-color="white"/>
<stop offset="1" stop-color="white" stop-opacity="0"/>
</linearGradient>
<linearGradient id="paint1_linear_3165_3703" x1="173.407" y1="0.153364" x2="153.345" y2="179.063" gradientUnits="userSpaceOnUse">
<stop offset="0.00310139" stop-color="#090927"/>
<stop offset="1" stop-color="#23ABA2"/>
</linearGradient>
</defs>
</svg>
