<svg width="405" height="224" viewBox="0 0 405 224" fill="none" xmlns="http://www.w3.org/2000/svg">
<g opacity="0.95" filter="url(#filter0_d_3176_3698)">
<rect x="20" y="20" width="365" height="184" rx="4" fill="url(#paint0_linear_3176_3698)"/>
</g>
<path d="M54.3457 87.1084L54.5303 86.0977C54.167 86.0859 53.8652 85.9863 53.625 85.7988C53.3906 85.6113 53.2031 85.3711 53.0625 85.0781C52.916 84.791 52.8135 84.4658 52.7549 84.1025C52.6963 83.7451 52.667 83.3848 52.667 83.0215V81.5361C52.6611 80.8389 52.4971 80.2266 52.1748 79.6992C51.8525 79.166 51.3516 78.7646 50.6719 78.4951C51.3516 78.2197 51.8525 77.8184 52.1748 77.291C52.5029 76.7578 52.667 76.1396 52.667 75.4365V73.9424C52.667 73.585 52.6846 73.2246 52.7197 72.8613C52.7549 72.498 52.8369 72.1699 52.9658 71.877C53.0889 71.5898 53.2734 71.3525 53.5195 71.165C53.7715 70.9775 54.1084 70.8779 54.5303 70.8662L54.3457 69.8555C53.7539 69.873 53.25 70.002 52.834 70.2422C52.418 70.4766 52.0811 70.7812 51.8232 71.1562C51.5479 71.5488 51.3457 71.9941 51.2168 72.4922C51.0938 72.9844 51.0322 73.4678 51.0322 73.9424V75.4365C51.0322 76.2861 50.8301 76.9014 50.4258 77.2822C50.0273 77.6572 49.415 77.8447 48.5889 77.8447V79.1191C49.415 79.125 50.0273 79.3184 50.4258 79.6992C50.8301 80.0801 51.0322 80.6924 51.0322 81.5361V83.0215C51.0322 83.4902 51.0996 83.9619 51.2344 84.4365C51.3691 84.917 51.5684 85.3506 51.832 85.7373C52.1074 86.1416 52.4531 86.4668 52.8691 86.7129C53.2852 86.959 53.7773 87.0908 54.3457 87.1084ZM50.1094 106.837C50.1094 107.177 50.2148 107.467 50.4258 107.707C50.6426 107.941 50.9619 108.059 51.3838 108.059C51.7998 108.059 52.1191 107.941 52.3418 107.707C52.5645 107.473 52.6758 107.183 52.6758 106.837C52.6758 106.485 52.5645 106.189 52.3418 105.949C52.125 105.703 51.8057 105.58 51.3838 105.58C50.9561 105.58 50.6367 105.703 50.4258 105.949C50.2148 106.195 50.1094 106.491 50.1094 106.837ZM60.9199 106.837C60.9199 107.177 61.0254 107.467 61.2363 107.707C61.4531 107.941 61.7725 108.059 62.1943 108.059C62.6104 108.059 62.9297 107.941 63.1523 107.707C63.375 107.473 63.4863 107.183 63.4863 106.837C63.4863 106.485 63.375 106.189 63.1523 105.949C62.9355 105.703 62.6162 105.58 62.1943 105.58C61.7666 105.58 61.4473 105.703 61.2363 105.949C61.0254 106.195 60.9199 106.491 60.9199 106.837ZM71.7305 106.837C71.7305 107.177 71.8359 107.467 72.0469 107.707C72.2637 107.941 72.583 108.059 73.0049 108.059C73.4209 108.059 73.7402 107.941 73.9629 107.707C74.1855 107.473 74.2969 107.183 74.2969 106.837C74.2969 106.485 74.1855 106.189 73.9629 105.949C73.7461 105.703 73.4268 105.58 73.0049 105.58C72.5771 105.58 72.2578 105.703 72.0469 105.949C71.8359 106.195 71.7305 106.491 71.7305 106.837ZM96.7705 107.892H98.4668V107.751C98.3613 107.487 98.2793 107.18 98.2207 106.828C98.1621 106.471 98.1328 106.134 98.1328 105.817V101.396C98.1328 100.863 98.0361 100.397 97.8428 99.999C97.6494 99.6006 97.3857 99.2666 97.0518 98.9971C96.7119 98.7334 96.3105 98.5371 95.8477 98.4082C95.3848 98.2734 94.8838 98.2061 94.3447 98.2061C93.7529 98.2061 93.2227 98.2881 92.7539 98.4521C92.291 98.6162 91.8984 98.8301 91.5762 99.0938C91.248 99.3633 90.9961 99.665 90.8203 99.999C90.6504 100.333 90.5625 100.673 90.5566 101.019H92.1914C92.1914 100.819 92.2383 100.629 92.332 100.447C92.4316 100.26 92.5693 100.099 92.7451 99.9639C92.9209 99.8291 93.1348 99.7207 93.3867 99.6387C93.6445 99.5566 93.9346 99.5156 94.2568 99.5156C94.6025 99.5156 94.9131 99.5596 95.1885 99.6475C95.4697 99.7354 95.707 99.8584 95.9004 100.017C96.0938 100.181 96.2432 100.377 96.3486 100.605C96.4541 100.834 96.5068 101.092 96.5068 101.379V102.126H94.7314C94.0693 102.126 93.4688 102.19 92.9297 102.319C92.3965 102.448 91.9395 102.642 91.5586 102.899C91.1777 103.163 90.8818 103.491 90.6709 103.884C90.4658 104.276 90.3633 104.733 90.3633 105.255C90.3633 105.653 90.4395 106.025 90.5918 106.371C90.75 106.711 90.9727 107.004 91.2598 107.25C91.541 107.502 91.8838 107.701 92.2881 107.848C92.6982 107.994 93.1553 108.067 93.6592 108.067C93.9697 108.067 94.2627 108.035 94.5381 107.971C94.8135 107.906 95.0742 107.818 95.3203 107.707C95.5605 107.596 95.7803 107.467 95.9795 107.32C96.1846 107.174 96.3691 107.019 96.5332 106.854C96.5508 107.054 96.5771 107.247 96.6123 107.435C96.6533 107.616 96.7061 107.769 96.7705 107.892ZM93.8965 106.652C93.5801 106.652 93.3018 106.611 93.0615 106.529C92.8213 106.447 92.6221 106.333 92.4639 106.187C92.3057 106.046 92.1855 105.876 92.1035 105.677C92.0273 105.478 91.9893 105.261 91.9893 105.026C91.9893 104.78 92.0332 104.561 92.1211 104.367C92.2148 104.174 92.3496 104.007 92.5254 103.866C92.7715 103.667 93.1025 103.521 93.5186 103.427C93.9404 103.327 94.4326 103.277 94.9951 103.277H96.5068V105.202C96.4131 105.39 96.2842 105.571 96.1201 105.747C95.9561 105.917 95.7627 106.069 95.54 106.204C95.3115 106.339 95.0596 106.447 94.7842 106.529C94.5088 106.611 94.2129 106.652 93.8965 106.652ZM105.182 96.0791H103.547V98.3818H101.051V99.6387H103.547V104.807C103.547 105.393 103.623 105.894 103.775 106.31C103.934 106.72 104.147 107.054 104.417 107.312C104.687 107.575 105.003 107.769 105.366 107.892C105.735 108.009 106.131 108.067 106.553 108.067C106.805 108.067 107.057 108.056 107.309 108.032C107.566 108.009 107.81 107.974 108.038 107.927C108.267 107.886 108.478 107.836 108.671 107.777C108.864 107.713 109.028 107.64 109.163 107.558L108.935 106.406C108.835 106.43 108.706 106.459 108.548 106.494C108.396 106.523 108.231 106.553 108.056 106.582C107.874 106.611 107.689 106.638 107.502 106.661C107.314 106.679 107.133 106.688 106.957 106.688C106.717 106.688 106.488 106.658 106.271 106.6C106.061 106.541 105.873 106.438 105.709 106.292C105.545 106.151 105.416 105.961 105.322 105.721C105.229 105.48 105.182 105.176 105.182 104.807V99.6387H108.803V98.3818H105.182V96.0791ZM115.992 96.0791H114.357V98.3818H111.861V99.6387H114.357V104.807C114.357 105.393 114.434 105.894 114.586 106.31C114.744 106.72 114.958 107.054 115.228 107.312C115.497 107.575 115.813 107.769 116.177 107.892C116.546 108.009 116.941 108.067 117.363 108.067C117.615 108.067 117.867 108.056 118.119 108.032C118.377 108.009 118.62 107.974 118.849 107.927C119.077 107.886 119.288 107.836 119.481 107.777C119.675 107.713 119.839 107.64 119.974 107.558L119.745 106.406C119.646 106.43 119.517 106.459 119.358 106.494C119.206 106.523 119.042 106.553 118.866 106.582C118.685 106.611 118.5 106.638 118.312 106.661C118.125 106.679 117.943 106.688 117.768 106.688C117.527 106.688 117.299 106.658 117.082 106.6C116.871 106.541 116.684 106.438 116.52 106.292C116.355 106.151 116.227 105.961 116.133 105.721C116.039 105.48 115.992 105.176 115.992 104.807V99.6387H119.613V98.3818H115.992V96.0791ZM127.154 108.067C128.08 108.067 128.856 107.883 129.483 107.514C130.116 107.139 130.591 106.711 130.907 106.23L129.914 105.457C129.615 105.844 129.24 106.154 128.789 106.389C128.338 106.623 127.822 106.74 127.242 106.74C126.803 106.74 126.401 106.658 126.038 106.494C125.675 106.33 125.364 106.104 125.106 105.817C124.854 105.548 124.655 105.237 124.509 104.886C124.368 104.534 124.277 104.127 124.236 103.664V103.603H131.03V102.873C131.03 102.211 130.945 101.596 130.775 101.027C130.611 100.459 130.359 99.9639 130.02 99.542C129.68 99.126 129.252 98.8008 128.736 98.5664C128.227 98.3262 127.629 98.2061 126.943 98.2061C126.398 98.2061 125.865 98.3174 125.344 98.54C124.828 98.7627 124.368 99.082 123.964 99.498C123.554 99.9199 123.226 100.436 122.979 101.045C122.733 101.648 122.61 102.334 122.61 103.102V103.471C122.61 104.133 122.722 104.745 122.944 105.308C123.167 105.87 123.478 106.356 123.876 106.767C124.274 107.177 124.752 107.496 125.309 107.725C125.871 107.953 126.486 108.067 127.154 108.067ZM126.943 99.542C127.359 99.542 127.717 99.6182 128.016 99.7705C128.32 99.9229 128.572 100.122 128.771 100.368C128.971 100.614 129.126 100.907 129.237 101.247C129.349 101.581 129.404 101.895 129.404 102.188V102.267H124.289C124.354 101.827 124.465 101.44 124.623 101.106C124.787 100.767 124.986 100.479 125.221 100.245C125.455 100.017 125.719 99.8438 126.012 99.7266C126.305 99.6035 126.615 99.542 126.943 99.542ZM133.764 107.892H135.39V101.071C135.501 100.866 135.63 100.679 135.776 100.509C135.929 100.339 136.093 100.189 136.269 100.061C136.485 99.9141 136.723 99.7998 136.98 99.7178C137.238 99.6299 137.517 99.5859 137.815 99.5859C138.161 99.5859 138.466 99.627 138.729 99.709C138.999 99.791 139.228 99.9229 139.415 100.104C139.597 100.286 139.734 100.523 139.828 100.816C139.922 101.109 139.969 101.467 139.969 101.889V107.892H141.595V101.854C141.595 101.221 141.516 100.676 141.357 100.219C141.205 99.7559 140.985 99.375 140.698 99.0762C140.411 98.7773 140.062 98.5576 139.652 98.417C139.248 98.2764 138.797 98.2061 138.299 98.2061C137.93 98.2119 137.578 98.2676 137.244 98.373C136.916 98.4727 136.611 98.6162 136.33 98.8037C136.143 98.9268 135.964 99.0732 135.794 99.2432C135.63 99.4072 135.478 99.5889 135.337 99.7881L135.223 98.3818H133.764V107.892ZM148.424 96.0791H146.789V98.3818H144.293V99.6387H146.789V104.807C146.789 105.393 146.865 105.894 147.018 106.31C147.176 106.72 147.39 107.054 147.659 107.312C147.929 107.575 148.245 107.769 148.608 107.892C148.978 108.009 149.373 108.067 149.795 108.067C150.047 108.067 150.299 108.056 150.551 108.032C150.809 108.009 151.052 107.974 151.28 107.927C151.509 107.886 151.72 107.836 151.913 107.777C152.106 107.713 152.271 107.64 152.405 107.558L152.177 106.406C152.077 106.43 151.948 106.459 151.79 106.494C151.638 106.523 151.474 106.553 151.298 106.582C151.116 106.611 150.932 106.638 150.744 106.661C150.557 106.679 150.375 106.688 150.199 106.688C149.959 106.688 149.73 106.658 149.514 106.6C149.303 106.541 149.115 106.438 148.951 106.292C148.787 106.151 148.658 105.961 148.564 105.721C148.471 105.48 148.424 105.176 148.424 104.807V99.6387H152.045V98.3818H148.424V96.0791ZM155.64 98.3818V99.7969H158.874V106.485H155.64V107.892H163.603V106.485H160.5V98.3818H155.64ZM158.663 95.8857C158.663 96.1494 158.742 96.3691 158.9 96.5449C159.064 96.7207 159.311 96.8086 159.639 96.8086C159.961 96.8086 160.204 96.7207 160.368 96.5449C160.532 96.3691 160.614 96.1494 160.614 95.8857C160.614 95.7393 160.591 95.6045 160.544 95.4814C160.497 95.3584 160.427 95.2559 160.333 95.1738C160.257 95.0977 160.16 95.0391 160.043 94.998C159.926 94.9512 159.791 94.9277 159.639 94.9277C159.486 94.9277 159.349 94.9512 159.226 94.998C159.108 95.0391 159.012 95.0977 158.936 95.1738C158.842 95.2617 158.771 95.3672 158.725 95.4902C158.684 95.6133 158.663 95.7451 158.663 95.8857ZM165.738 103.049V103.242C165.738 103.928 165.838 104.563 166.037 105.149C166.236 105.735 166.523 106.245 166.898 106.679C167.268 107.112 167.719 107.452 168.252 107.698C168.791 107.944 169.397 108.067 170.071 108.067C170.739 108.067 171.34 107.944 171.873 107.698C172.406 107.452 172.86 107.112 173.235 106.679C173.604 106.245 173.889 105.735 174.088 105.149C174.287 104.563 174.387 103.928 174.387 103.242V103.049C174.387 102.363 174.287 101.728 174.088 101.142C173.889 100.55 173.604 100.037 173.235 99.6035C172.86 99.1699 172.403 98.8301 171.864 98.584C171.331 98.332 170.728 98.2061 170.054 98.2061C169.386 98.2061 168.785 98.332 168.252 98.584C167.719 98.8301 167.268 99.1699 166.898 99.6035C166.523 100.037 166.236 100.55 166.037 101.142C165.838 101.728 165.738 102.363 165.738 103.049ZM167.364 103.242V103.049C167.364 102.586 167.42 102.144 167.531 101.722C167.643 101.294 167.812 100.919 168.041 100.597C168.264 100.274 168.542 100.02 168.876 99.832C169.21 99.6387 169.603 99.542 170.054 99.542C170.505 99.542 170.897 99.6387 171.231 99.832C171.571 100.02 171.855 100.274 172.084 100.597C172.307 100.919 172.474 101.294 172.585 101.722C172.702 102.144 172.761 102.586 172.761 103.049V103.242C172.761 103.711 172.705 104.159 172.594 104.587C172.482 105.009 172.315 105.381 172.093 105.703C171.864 106.025 171.58 106.28 171.24 106.468C170.906 106.655 170.517 106.749 170.071 106.749C169.62 106.749 169.225 106.655 168.885 106.468C168.545 106.28 168.264 106.025 168.041 105.703C167.812 105.381 167.643 105.009 167.531 104.587C167.42 104.159 167.364 103.711 167.364 103.242ZM177.006 107.892H178.632V101.071C178.743 100.866 178.872 100.679 179.019 100.509C179.171 100.339 179.335 100.189 179.511 100.061C179.728 99.9141 179.965 99.7998 180.223 99.7178C180.48 99.6299 180.759 99.5859 181.058 99.5859C181.403 99.5859 181.708 99.627 181.972 99.709C182.241 99.791 182.47 99.9229 182.657 100.104C182.839 100.286 182.977 100.523 183.07 100.816C183.164 101.109 183.211 101.467 183.211 101.889V107.892H184.837V101.854C184.837 101.221 184.758 100.676 184.6 100.219C184.447 99.7559 184.228 99.375 183.94 99.0762C183.653 98.7773 183.305 98.5576 182.895 98.417C182.49 98.2764 182.039 98.2061 181.541 98.2061C181.172 98.2119 180.82 98.2676 180.486 98.373C180.158 98.4727 179.854 98.6162 179.572 98.8037C179.385 98.9268 179.206 99.0732 179.036 99.2432C178.872 99.4072 178.72 99.5889 178.579 99.7881L178.465 98.3818H177.006V107.892ZM202.477 96.0791H200.842V98.3818H198.346V99.6387H200.842V104.807C200.842 105.393 200.918 105.894 201.07 106.31C201.229 106.72 201.442 107.054 201.712 107.312C201.981 107.575 202.298 107.769 202.661 107.892C203.03 108.009 203.426 108.067 203.848 108.067C204.1 108.067 204.352 108.056 204.604 108.032C204.861 108.009 205.104 107.974 205.333 107.927C205.562 107.886 205.772 107.836 205.966 107.777C206.159 107.713 206.323 107.64 206.458 107.558L206.229 106.406C206.13 106.43 206.001 106.459 205.843 106.494C205.69 106.523 205.526 106.553 205.351 106.582C205.169 106.611 204.984 106.638 204.797 106.661C204.609 106.679 204.428 106.688 204.252 106.688C204.012 106.688 203.783 106.658 203.566 106.6C203.355 106.541 203.168 106.438 203.004 106.292C202.84 106.151 202.711 105.961 202.617 105.721C202.523 105.48 202.477 105.176 202.477 104.807V99.6387H206.098V98.3818H202.477V96.0791ZM215.669 98.2061C214.978 98.2061 214.359 98.3584 213.814 98.6631C213.275 98.9619 212.812 99.3721 212.426 99.8936L212.417 99.6562L212.347 98.3818H210.8V107.892H212.435V101.792C212.54 101.499 212.672 101.235 212.83 101.001C212.994 100.761 213.185 100.559 213.401 100.395C213.642 100.207 213.923 100.066 214.245 99.9727C214.567 99.873 214.928 99.8232 215.326 99.8232C215.637 99.8232 215.933 99.8408 216.214 99.876C216.501 99.9053 216.803 99.9551 217.119 100.025L217.339 98.4346C217.175 98.3643 216.929 98.3086 216.601 98.2676C216.278 98.2266 215.968 98.2061 215.669 98.2061ZM226.497 107.892H228.193V107.751C228.088 107.487 228.006 107.18 227.947 106.828C227.889 106.471 227.859 106.134 227.859 105.817V101.396C227.859 100.863 227.763 100.397 227.569 99.999C227.376 99.6006 227.112 99.2666 226.778 98.9971C226.438 98.7334 226.037 98.5371 225.574 98.4082C225.111 98.2734 224.61 98.2061 224.071 98.2061C223.479 98.2061 222.949 98.2881 222.48 98.4521C222.018 98.6162 221.625 98.8301 221.303 99.0938C220.975 99.3633 220.723 99.665 220.547 99.999C220.377 100.333 220.289 100.673 220.283 101.019H221.918C221.918 100.819 221.965 100.629 222.059 100.447C222.158 100.26 222.296 100.099 222.472 99.9639C222.647 99.8291 222.861 99.7207 223.113 99.6387C223.371 99.5566 223.661 99.5156 223.983 99.5156C224.329 99.5156 224.64 99.5596 224.915 99.6475C225.196 99.7354 225.434 99.8584 225.627 100.017C225.82 100.181 225.97 100.377 226.075 100.605C226.181 100.834 226.233 101.092 226.233 101.379V102.126H224.458C223.796 102.126 223.195 102.19 222.656 102.319C222.123 102.448 221.666 102.642 221.285 102.899C220.904 103.163 220.608 103.491 220.397 103.884C220.192 104.276 220.09 104.733 220.09 105.255C220.09 105.653 220.166 106.025 220.318 106.371C220.477 106.711 220.699 107.004 220.986 107.25C221.268 107.502 221.61 107.701 222.015 107.848C222.425 107.994 222.882 108.067 223.386 108.067C223.696 108.067 223.989 108.035 224.265 107.971C224.54 107.906 224.801 107.818 225.047 107.707C225.287 107.596 225.507 107.467 225.706 107.32C225.911 107.174 226.096 107.019 226.26 106.854C226.277 107.054 226.304 107.247 226.339 107.435C226.38 107.616 226.433 107.769 226.497 107.892ZM223.623 106.652C223.307 106.652 223.028 106.611 222.788 106.529C222.548 106.447 222.349 106.333 222.19 106.187C222.032 106.046 221.912 105.876 221.83 105.677C221.754 105.478 221.716 105.261 221.716 105.026C221.716 104.78 221.76 104.561 221.848 104.367C221.941 104.174 222.076 104.007 222.252 103.866C222.498 103.667 222.829 103.521 223.245 103.427C223.667 103.327 224.159 103.277 224.722 103.277H226.233V105.202C226.14 105.39 226.011 105.571 225.847 105.747C225.683 105.917 225.489 106.069 225.267 106.204C225.038 106.339 224.786 106.447 224.511 106.529C224.235 106.611 223.939 106.652 223.623 106.652ZM235.11 106.749C234.601 106.749 234.173 106.649 233.827 106.45C233.487 106.245 233.215 105.979 233.01 105.65C232.799 105.328 232.646 104.965 232.553 104.561C232.465 104.15 232.421 103.737 232.421 103.321V102.952C232.421 102.542 232.465 102.135 232.553 101.73C232.646 101.326 232.799 100.96 233.01 100.632C233.221 100.31 233.496 100.049 233.836 99.8496C234.182 99.6445 234.606 99.542 235.11 99.542C235.438 99.542 235.743 99.5977 236.024 99.709C236.312 99.8203 236.558 99.9727 236.763 100.166C236.968 100.359 237.129 100.585 237.246 100.843C237.369 101.095 237.434 101.364 237.439 101.651H238.978C238.978 101.171 238.881 100.72 238.688 100.298C238.494 99.876 238.228 99.5098 237.888 99.1992C237.542 98.8945 237.132 98.6543 236.657 98.4785C236.188 98.2969 235.673 98.2061 235.11 98.2061C234.39 98.2061 233.76 98.335 233.221 98.5928C232.682 98.8506 232.233 99.1963 231.876 99.6299C231.513 100.069 231.24 100.576 231.059 101.15C230.877 101.725 230.786 102.325 230.786 102.952V103.321C230.786 103.954 230.877 104.558 231.059 105.132C231.24 105.7 231.513 106.201 231.876 106.635C232.233 107.074 232.682 107.423 233.221 107.681C233.76 107.938 234.39 108.067 235.11 108.067C235.614 108.067 236.098 107.982 236.561 107.812C237.023 107.637 237.434 107.402 237.791 107.109C238.148 106.822 238.433 106.488 238.644 106.107C238.86 105.721 238.972 105.316 238.978 104.895H237.439C237.434 105.158 237.363 105.404 237.229 105.633C237.1 105.855 236.927 106.049 236.71 106.213C236.493 106.383 236.244 106.515 235.963 106.608C235.688 106.702 235.403 106.749 235.11 106.749ZM244.717 103.453L248.206 107.892H250.271L245.833 102.346L249.683 98.3818H247.705L244.585 101.511L243.521 102.653V94.3916H241.887V107.892H243.521V104.604L244.717 103.453ZM252.935 98.3818V99.7969H256.169V106.485H252.935V107.892H260.897V106.485H257.795V98.3818H252.935ZM255.958 95.8857C255.958 96.1494 256.037 96.3691 256.195 96.5449C256.359 96.7207 256.605 96.8086 256.934 96.8086C257.256 96.8086 257.499 96.7207 257.663 96.5449C257.827 96.3691 257.909 96.1494 257.909 95.8857C257.909 95.7393 257.886 95.6045 257.839 95.4814C257.792 95.3584 257.722 95.2559 257.628 95.1738C257.552 95.0977 257.455 95.0391 257.338 94.998C257.221 94.9512 257.086 94.9277 256.934 94.9277C256.781 94.9277 256.644 94.9512 256.521 94.998C256.403 95.0391 256.307 95.0977 256.23 95.1738C256.137 95.2617 256.066 95.3672 256.02 95.4902C255.979 95.6133 255.958 95.7451 255.958 95.8857ZM263.49 107.892H265.116V101.071C265.228 100.866 265.356 100.679 265.503 100.509C265.655 100.339 265.819 100.189 265.995 100.061C266.212 99.9141 266.449 99.7998 266.707 99.7178C266.965 99.6299 267.243 99.5859 267.542 99.5859C267.888 99.5859 268.192 99.627 268.456 99.709C268.726 99.791 268.954 99.9229 269.142 100.104C269.323 100.286 269.461 100.523 269.555 100.816C269.648 101.109 269.695 101.467 269.695 101.889V107.892H271.321V101.854C271.321 101.221 271.242 100.676 271.084 100.219C270.932 99.7559 270.712 99.375 270.425 99.0762C270.138 98.7773 269.789 98.5576 269.379 98.417C268.975 98.2764 268.523 98.2061 268.025 98.2061C267.656 98.2119 267.305 98.2676 266.971 98.373C266.643 98.4727 266.338 98.6162 266.057 98.8037C265.869 98.9268 265.69 99.0732 265.521 99.2432C265.356 99.4072 265.204 99.5889 265.063 99.7881L264.949 98.3818H263.49V107.892ZM274.002 103.058V103.242C274.002 103.922 274.09 104.558 274.266 105.149C274.441 105.735 274.693 106.245 275.021 106.679C275.344 107.112 275.739 107.452 276.208 107.698C276.677 107.944 277.201 108.067 277.781 108.067C278.127 108.067 278.449 108.029 278.748 107.953C279.047 107.883 279.319 107.78 279.565 107.646C279.724 107.558 279.87 107.455 280.005 107.338C280.146 107.221 280.277 107.092 280.4 106.951V107.769C280.4 108.179 280.342 108.542 280.225 108.858C280.107 109.175 279.94 109.438 279.724 109.649C279.501 109.866 279.234 110.03 278.924 110.142C278.613 110.253 278.265 110.309 277.878 110.309C277.661 110.309 277.444 110.285 277.228 110.238C277.011 110.197 276.794 110.127 276.577 110.027C276.36 109.928 276.146 109.793 275.936 109.623C275.725 109.459 275.52 109.257 275.32 109.017L274.477 109.992C274.693 110.303 274.951 110.563 275.25 110.774C275.555 110.985 275.871 111.152 276.199 111.275C276.521 111.404 276.841 111.495 277.157 111.548C277.474 111.606 277.755 111.636 278.001 111.636C278.599 111.636 279.144 111.548 279.636 111.372C280.128 111.196 280.553 110.938 280.91 110.599C281.262 110.259 281.534 109.846 281.728 109.359C281.927 108.873 282.026 108.316 282.026 107.689V98.3818H280.55L280.471 99.4189C280.359 99.2783 280.239 99.1494 280.11 99.0322C279.987 98.915 279.855 98.8125 279.715 98.7246C279.457 98.5547 279.167 98.4258 278.845 98.3379C278.528 98.25 278.18 98.2061 277.799 98.2061C277.207 98.2061 276.677 98.3262 276.208 98.5664C275.739 98.8066 275.341 99.1406 275.013 99.5684C274.685 99.9961 274.433 100.509 274.257 101.106C274.087 101.698 274.002 102.349 274.002 103.058ZM275.628 103.242V103.058C275.628 102.595 275.675 102.155 275.769 101.739C275.868 101.317 276.023 100.945 276.234 100.623C276.439 100.307 276.703 100.055 277.025 99.8672C277.354 99.6797 277.746 99.5859 278.203 99.5859C278.473 99.5859 278.719 99.6211 278.941 99.6914C279.164 99.7559 279.366 99.8467 279.548 99.9639C279.729 100.087 279.891 100.23 280.031 100.395C280.172 100.559 280.295 100.74 280.4 100.939V105.299C280.295 105.504 280.172 105.691 280.031 105.861C279.891 106.031 279.732 106.178 279.557 106.301C279.375 106.424 279.17 106.521 278.941 106.591C278.719 106.655 278.467 106.688 278.186 106.688C277.734 106.688 277.348 106.597 277.025 106.415C276.703 106.228 276.439 105.976 276.234 105.659C276.023 105.343 275.868 104.977 275.769 104.561C275.675 104.145 275.628 103.705 275.628 103.242ZM302.241 105.369C302.241 105.521 302.212 105.665 302.153 105.8C302.095 105.935 302.01 106.058 301.898 106.169C301.717 106.351 301.465 106.494 301.143 106.6C300.82 106.699 300.442 106.749 300.009 106.749C299.733 106.749 299.455 106.72 299.174 106.661C298.893 106.603 298.638 106.503 298.409 106.362C298.175 106.222 297.979 106.037 297.82 105.809C297.668 105.58 297.58 105.299 297.557 104.965H295.931C295.931 105.369 296.021 105.759 296.203 106.134C296.391 106.509 296.66 106.837 297.012 107.118C297.357 107.405 297.782 107.637 298.286 107.812C298.79 107.982 299.364 108.067 300.009 108.067C300.571 108.067 301.09 108 301.564 107.865C302.039 107.73 302.446 107.54 302.786 107.294C303.126 107.048 303.39 106.752 303.577 106.406C303.771 106.061 303.867 105.677 303.867 105.255C303.867 104.862 303.782 104.517 303.612 104.218C303.448 103.919 303.208 103.655 302.892 103.427C302.575 103.204 302.186 103.014 301.723 102.855C301.26 102.691 300.735 102.548 300.149 102.425C299.704 102.337 299.335 102.246 299.042 102.152C298.755 102.059 298.526 101.953 298.356 101.836C298.181 101.719 298.058 101.587 297.987 101.44C297.917 101.294 297.882 101.127 297.882 100.939C297.882 100.758 297.926 100.582 298.014 100.412C298.102 100.242 298.233 100.093 298.409 99.9639C298.579 99.835 298.793 99.7324 299.051 99.6562C299.314 99.5801 299.619 99.542 299.965 99.542C300.299 99.542 300.598 99.5889 300.861 99.6826C301.131 99.7764 301.359 99.8994 301.547 100.052C301.734 100.204 301.881 100.38 301.986 100.579C302.092 100.772 302.145 100.972 302.145 101.177H303.771C303.771 100.761 303.68 100.374 303.498 100.017C303.322 99.6533 303.07 99.3369 302.742 99.0674C302.414 98.7979 302.016 98.5869 301.547 98.4346C301.078 98.2822 300.551 98.2061 299.965 98.2061C299.42 98.2061 298.919 98.2793 298.462 98.4258C298.011 98.5723 297.621 98.7715 297.293 99.0234C296.965 99.2754 296.71 99.5713 296.528 99.9111C296.347 100.245 296.256 100.605 296.256 100.992C296.256 101.385 296.344 101.73 296.52 102.029C296.695 102.322 296.944 102.577 297.267 102.794C297.583 103.017 297.964 103.207 298.409 103.365C298.86 103.523 299.358 103.658 299.903 103.77C300.349 103.857 300.721 103.957 301.02 104.068C301.318 104.174 301.559 104.291 301.74 104.42C301.922 104.549 302.051 104.692 302.127 104.851C302.203 105.003 302.241 105.176 302.241 105.369ZM310.784 106.749C310.274 106.749 309.847 106.649 309.501 106.45C309.161 106.245 308.889 105.979 308.684 105.65C308.473 105.328 308.32 104.965 308.227 104.561C308.139 104.15 308.095 103.737 308.095 103.321V102.952C308.095 102.542 308.139 102.135 308.227 101.73C308.32 101.326 308.473 100.96 308.684 100.632C308.895 100.31 309.17 100.049 309.51 99.8496C309.855 99.6445 310.28 99.542 310.784 99.542C311.112 99.542 311.417 99.5977 311.698 99.709C311.985 99.8203 312.231 99.9727 312.437 100.166C312.642 100.359 312.803 100.585 312.92 100.843C313.043 101.095 313.107 101.364 313.113 101.651H314.651C314.651 101.171 314.555 100.72 314.361 100.298C314.168 99.876 313.901 99.5098 313.562 99.1992C313.216 98.8945 312.806 98.6543 312.331 98.4785C311.862 98.2969 311.347 98.2061 310.784 98.2061C310.063 98.2061 309.434 98.335 308.895 98.5928C308.355 98.8506 307.907 99.1963 307.55 99.6299C307.187 100.069 306.914 100.576 306.732 101.15C306.551 101.725 306.46 102.325 306.46 102.952V103.321C306.46 103.954 306.551 104.558 306.732 105.132C306.914 105.7 307.187 106.201 307.55 106.635C307.907 107.074 308.355 107.423 308.895 107.681C309.434 107.938 310.063 108.067 310.784 108.067C311.288 108.067 311.771 107.982 312.234 107.812C312.697 107.637 313.107 107.402 313.465 107.109C313.822 106.822 314.106 106.488 314.317 106.107C314.534 105.721 314.646 105.316 314.651 104.895H313.113C313.107 105.158 313.037 105.404 312.902 105.633C312.773 105.855 312.601 106.049 312.384 106.213C312.167 106.383 311.918 106.515 311.637 106.608C311.361 106.702 311.077 106.749 310.784 106.749ZM323.774 98.2061C323.083 98.2061 322.465 98.3584 321.92 98.6631C321.381 98.9619 320.918 99.3721 320.531 99.8936L320.522 99.6562L320.452 98.3818H318.905V107.892H320.54V101.792C320.646 101.499 320.777 101.235 320.936 101.001C321.1 100.761 321.29 100.559 321.507 100.395C321.747 100.207 322.028 100.066 322.351 99.9727C322.673 99.873 323.033 99.8232 323.432 99.8232C323.742 99.8232 324.038 99.8408 324.319 99.876C324.606 99.9053 324.908 99.9551 325.225 100.025L325.444 98.4346C325.28 98.3643 325.034 98.3086 324.706 98.2676C324.384 98.2266 324.073 98.2061 323.774 98.2061ZM328.608 98.3818V99.7969H331.843V106.485H328.608V107.892H336.571V106.485H333.469V98.3818H328.608ZM331.632 95.8857C331.632 96.1494 331.711 96.3691 331.869 96.5449C332.033 96.7207 332.279 96.8086 332.607 96.8086C332.93 96.8086 333.173 96.7207 333.337 96.5449C333.501 96.3691 333.583 96.1494 333.583 95.8857C333.583 95.7393 333.56 95.6045 333.513 95.4814C333.466 95.3584 333.396 95.2559 333.302 95.1738C333.226 95.0977 333.129 95.0391 333.012 94.998C332.895 94.9512 332.76 94.9277 332.607 94.9277C332.455 94.9277 332.317 94.9512 332.194 94.998C332.077 95.0391 331.98 95.0977 331.904 95.1738C331.811 95.2617 331.74 95.3672 331.693 95.4902C331.652 95.6133 331.632 95.7451 331.632 95.8857ZM339.155 111.548H340.781V106.978C340.898 107.106 341.024 107.227 341.159 107.338C341.294 107.443 341.438 107.54 341.59 107.628C341.842 107.769 342.123 107.877 342.434 107.953C342.75 108.029 343.09 108.067 343.453 108.067C344.051 108.067 344.581 107.944 345.044 107.698C345.513 107.452 345.905 107.112 346.222 106.679C346.538 106.245 346.778 105.735 346.942 105.149C347.106 104.558 347.188 103.922 347.188 103.242V103.058C347.188 102.349 347.106 101.698 346.942 101.106C346.778 100.509 346.538 99.9961 346.222 99.5684C345.905 99.1406 345.513 98.8066 345.044 98.5664C344.575 98.3262 344.036 98.2061 343.427 98.2061C343.081 98.2061 342.756 98.2441 342.451 98.3203C342.152 98.3906 341.88 98.4961 341.634 98.6367C341.458 98.7305 341.294 98.8447 341.142 98.9795C340.989 99.1084 340.849 99.2549 340.72 99.4189L340.641 98.3818H339.155V111.548ZM345.562 103.058V103.242C345.562 103.705 345.51 104.147 345.404 104.569C345.305 104.991 345.149 105.363 344.938 105.686C344.728 106.008 344.458 106.266 344.13 106.459C343.802 106.646 343.412 106.74 342.961 106.74C342.68 106.74 342.422 106.705 342.188 106.635C341.959 106.564 341.751 106.468 341.563 106.345C341.399 106.239 341.253 106.11 341.124 105.958C340.995 105.806 340.881 105.642 340.781 105.466V100.887C340.893 100.688 341.021 100.506 341.168 100.342C341.314 100.178 341.481 100.04 341.669 99.9287C341.839 99.8174 342.029 99.7324 342.24 99.6738C342.457 99.6152 342.691 99.5859 342.943 99.5859C343.4 99.5859 343.793 99.6797 344.121 99.8672C344.449 100.055 344.722 100.307 344.938 100.623C345.149 100.945 345.305 101.317 345.404 101.739C345.51 102.155 345.562 102.595 345.562 103.058ZM353.824 96.0791H352.189V98.3818H349.693V99.6387H352.189V104.807C352.189 105.393 352.266 105.894 352.418 106.31C352.576 106.72 352.79 107.054 353.06 107.312C353.329 107.575 353.646 107.769 354.009 107.892C354.378 108.009 354.773 108.067 355.195 108.067C355.447 108.067 355.699 108.056 355.951 108.032C356.209 108.009 356.452 107.974 356.681 107.927C356.909 107.886 357.12 107.836 357.313 107.777C357.507 107.713 357.671 107.64 357.806 107.558L357.577 106.406C357.478 106.43 357.349 106.459 357.19 106.494C357.038 106.523 356.874 106.553 356.698 106.582C356.517 106.611 356.332 106.638 356.145 106.661C355.957 106.679 355.775 106.688 355.6 106.688C355.359 106.688 355.131 106.658 354.914 106.6C354.703 106.541 354.516 106.438 354.352 106.292C354.188 106.151 354.059 105.961 353.965 105.721C353.871 105.48 353.824 105.176 353.824 104.807V99.6387H357.445V98.3818H353.824V96.0791ZM48.5889 134.098L48.7734 135.108C49.3477 135.097 49.8428 134.965 50.2588 134.713C50.6748 134.461 51.0205 134.139 51.2959 133.746C51.5654 133.354 51.7646 132.917 51.8936 132.437C52.0225 131.962 52.0869 131.49 52.0869 131.021V129.536C52.0869 129.126 52.1338 128.771 52.2275 128.473C52.3213 128.174 52.4648 127.925 52.6582 127.726C52.8574 127.521 53.1123 127.371 53.4229 127.277C53.7393 127.178 54.1084 127.125 54.5303 127.119V125.845C54.0498 125.845 53.6367 125.783 53.291 125.66C52.9512 125.531 52.6846 125.329 52.4912 125.054C52.3564 124.86 52.2539 124.632 52.1836 124.368C52.1191 124.099 52.0869 123.788 52.0869 123.437V121.942C52.0869 121.45 52.0195 120.952 51.8848 120.448C51.7559 119.944 51.542 119.49 51.2432 119.086C50.9795 118.729 50.6426 118.438 50.2324 118.216C49.8281 117.993 49.3418 117.873 48.7734 117.855L48.5977 118.866C49.0195 118.878 49.3535 118.978 49.5996 119.165C49.8457 119.353 50.0332 119.59 50.1621 119.877C50.2852 120.17 50.3643 120.498 50.3994 120.861C50.4404 121.225 50.4609 121.585 50.4609 121.942V123.437C50.4609 123.894 50.5283 124.318 50.6631 124.711C50.7979 125.098 51.0059 125.438 51.2871 125.73C51.4336 125.889 51.6035 126.032 51.7969 126.161C51.9961 126.29 52.2129 126.401 52.4473 126.495C52.2188 126.589 52.0078 126.697 51.8145 126.82C51.627 126.943 51.457 127.081 51.3047 127.233C51.0176 127.521 50.8037 127.86 50.6631 128.253C50.5283 128.646 50.4609 129.073 50.4609 129.536V131.021C50.4609 131.385 50.4287 131.745 50.3643 132.103C50.3057 132.466 50.2061 132.791 50.0654 133.078C49.9189 133.371 49.7256 133.611 49.4854 133.799C49.2451 133.986 48.9463 134.086 48.5889 134.098Z" fill="#F5F5F5"/>
<defs>
<filter id="filter0_d_3176_3698" x="0" y="0" width="405" height="224" filterUnits="userSpaceOnUse" color-interpolation-filters="sRGB">
<feFlood flood-opacity="0" result="BackgroundImageFix"/>
<feColorMatrix in="SourceAlpha" type="matrix" values="0 0 0 0 0 0 0 0 0 0 0 0 0 0 0 0 0 0 127 0" result="hardAlpha"/>
<feMorphology radius="7" operator="dilate" in="SourceAlpha" result="effect1_dropShadow_3176_3698"/>
<feOffset/>
<feGaussianBlur stdDeviation="6.5"/>
<feComposite in2="hardAlpha" operator="out"/>
<feColorMatrix type="matrix" values="0 0 0 0 1 0 0 0 0 1 0 0 0 0 1 0 0 0 0.25 0"/>
<feBlend mode="normal" in2="BackgroundImageFix" result="effect1_dropShadow_3176_3698"/>
<feBlend mode="normal" in="SourceGraphic" in2="effect1_dropShadow_3176_3698" result="shape"/>
</filter>
<linearGradient id="paint0_linear_3176_3698" x1="20" y1="112" x2="385" y2="112" gradientUnits="userSpaceOnUse">
<stop stop-color="#030332"/>
<stop offset="1" stop-color="#171753"/>
</linearGradient>
</defs>
</svg>
