<svg width="408" height="536" viewBox="0 0 408 536" fill="none" xmlns="http://www.w3.org/2000/svg">
<g style="mix-blend-mode:color-dodge" opacity="0.4">
<ellipse rx="155.031" ry="85.7741" transform="matrix(-1 0 0 1 252.043 416.438)" fill="#BEF0ED"/>
</g>
<ellipse opacity="0.4" rx="155.031" ry="85.7741" transform="matrix(-1 0 0 1 155.858 121.576)" fill="#BEF0ED"/>
<path opacity="0.4" d="M268.194 393.012L250.208 403.249C248.573 401.271 246.354 399.41 243.435 397.665C230.354 390.104 209.099 390.104 196.018 397.665C182.938 405.226 182.938 417.44 196.018 425.001C198.938 426.629 202.208 427.909 205.595 428.84L179.084 443.961L245.303 482.115L334.296 431.05L268.194 393.012Z" fill="#03002D"/>
<path d="M226.383 302.281L229.303 317.403L243.551 316.007L241.566 300.536C237.011 299.606 231.872 300.536 226.383 302.281Z" fill="white"/>
<path d="M239.931 404.179C239.931 405.342 240.866 406.273 242.033 406.273C243.201 406.273 244.136 405.342 244.136 404.179C244.136 403.016 243.201 402.085 242.033 402.085C240.982 402.085 239.931 403.016 239.931 404.179Z" fill="#030403"/>
<path d="M244.953 425.35C244.953 426.513 245.887 427.443 247.055 427.443C248.223 427.443 249.157 426.513 249.157 425.35C249.157 424.186 248.223 423.256 247.055 423.256C245.887 423.256 244.953 424.186 244.953 425.35Z" fill="#030403"/>
<path d="M211.084 435.12C211.084 436.283 212.019 437.214 213.186 437.214C214.354 437.214 215.289 436.283 215.289 435.12C215.289 433.957 214.354 433.026 213.186 433.026C212.019 433.026 211.084 433.957 211.084 435.12Z" fill="#171753" stroke="#171753" stroke-width="0.25" stroke-miterlimit="10"/>
<path d="M185.741 419.999C185.741 421.162 186.675 422.092 187.843 422.092C189.011 422.092 189.945 421.162 189.945 419.999C189.945 418.835 189.011 417.905 187.843 417.905C186.675 417.905 185.741 418.835 185.741 419.999Z" fill="#171753" stroke="#171753" stroke-width="0.25" stroke-miterlimit="10"/>
<path d="M201.274 399.643C201.274 400.806 202.208 401.736 203.376 401.736C204.544 401.736 205.478 400.806 205.478 399.643C205.478 398.479 204.544 397.549 203.376 397.549C202.208 397.549 201.274 398.479 201.274 399.643Z" fill="#171753" stroke="#171753" stroke-width="0.25" stroke-miterlimit="10"/>
<path d="M201.157 398.014V395.106L205.011 396.851L219.727 410.46L240.865 400.224L244.019 399.061V401.969L226.033 414.183L249.624 419.65V422.558L247.639 424.768L221.946 418.719L215.289 434.306L210.967 433.841V431.049L213.07 417.905L185.391 419.185L184.69 416.625V413.717L211.668 412.787L201.157 398.014Z" fill="#171753" stroke="#171753" stroke-width="0.25" stroke-miterlimit="10"/>
<path d="M202.091 394.874L204.661 394.176C204.894 394.059 205.128 394.176 205.361 394.292L219.376 407.204C219.609 407.436 219.96 407.436 220.193 407.32L240.631 397.433C240.865 397.316 241.099 397.316 241.332 397.433L243.084 398.48C243.551 398.712 243.551 399.41 243.084 399.759L227.201 410.461C226.734 410.81 226.85 411.508 227.318 411.74L248.573 419.301C249.04 419.417 249.157 420.115 248.923 420.464L247.989 421.628C247.755 421.86 247.522 421.86 247.288 421.86L222.529 416.044C222.179 415.928 221.828 416.16 221.712 416.509L215.522 430.933C215.405 431.166 215.055 431.399 214.821 431.399L211.785 431.166C211.317 431.166 211.084 430.817 211.084 430.352L212.953 416.044C212.953 415.579 212.602 415.23 212.252 415.23L185.974 416.393C185.624 416.393 185.39 416.16 185.274 415.811L184.923 414.648C184.807 414.183 185.04 413.834 185.507 413.718L210.5 410.228C211.084 410.112 211.317 409.53 210.967 409.065L201.741 396.037C201.39 395.571 201.624 394.99 202.091 394.874Z" fill="#FFA6A6" stroke="#171753" stroke-width="0.7" stroke-miterlimit="10"/>
<path d="M215.639 410.228C214.003 411.158 214.003 412.67 215.639 413.485C217.274 414.415 219.843 414.415 221.361 413.485C222.996 412.554 222.996 411.042 221.361 410.228C219.843 409.297 217.274 409.297 215.639 410.228Z" fill="#171753" stroke="#171753" stroke-width="0.25" stroke-miterlimit="10"/>
<path d="M222.646 385.917H214.471V411.973H222.646V385.917Z" fill="#171753" stroke="#171753" stroke-width="0.25" stroke-miterlimit="10"/>
<path d="M218.792 361.489L250.909 379.984C252.427 380.799 253.595 380.101 253.595 378.472C253.595 374.401 250.792 369.632 247.405 367.654L218.792 351.137C217.274 350.322 216.106 351.02 216.106 352.649V356.836C216.106 358.465 217.391 360.559 218.792 361.489Z" fill="#4A4A49"/>
<path d="M223.698 396.851L253.012 379.868L217.041 350.904L187.493 367.887L223.698 396.851Z" fill="#4A4A49"/>
<path d="M224.631 351.369L223.813 346.6L216.572 299.955L215.988 296.349C215.755 294.836 214.704 293.324 213.536 292.859L209.448 291.231C208.981 290.998 208.514 291.114 208.163 291.231L179.2 307.981L194.85 370.097L223.93 353.346C224.514 352.997 224.747 352.299 224.631 351.369Z" fill="#FFA54B" stroke="#171753" stroke-width="0.7" stroke-miterlimit="10"/>
<path d="M189.595 378.239L221.712 396.734C223.23 397.548 224.398 396.851 224.398 395.222C224.398 391.151 221.595 386.382 218.208 384.404L189.595 368.003C188.077 367.189 186.909 367.886 186.909 369.515V373.703C186.909 375.331 188.077 377.425 189.595 378.239Z" fill="#030403"/>
<path d="M195.318 368.235L186.792 313.215C186.559 311.703 185.508 310.191 184.34 309.726L180.252 308.097C178.968 307.632 178.15 308.446 178.384 310.075L186.559 364.164C186.792 365.444 187.727 366.84 188.778 367.538L193.216 370.097C194.5 370.795 195.552 369.98 195.318 368.235Z" fill="#171753" stroke="#171753" stroke-width="0.25" stroke-miterlimit="10"/>
<path d="M246.94 361.605V363.582L247.758 364.048C249.977 365.327 251.845 364.28 251.845 361.721V349.624C251.845 347.065 249.977 343.924 247.758 342.645L227.436 331.012C225.217 329.733 223.349 330.78 223.349 333.339V334.269L225.101 335.2V334.269C225.101 332.757 226.152 332.176 227.436 332.874L247.758 344.506C249.042 345.204 250.093 347.065 250.093 348.577V360.674C250.093 362.187 249.042 362.768 247.758 362.07L246.94 361.605Z" fill="#4A4A49"/>
<path d="M245.654 367.188L250.676 364.28V346.948L248.691 344.156L224.749 330.663L219.61 333.571L242.384 345.552L245.654 350.321V367.188Z" fill="#4A4A49"/>
<path d="M222.53 335.781L223.348 336.247L225.1 337.177V346.367C225.1 347.879 226.151 349.624 227.436 350.438L245.187 360.558V362.535V363.466C245.187 364.978 244.136 365.56 242.852 364.862L222.53 353.346C221.246 352.648 220.195 350.787 220.195 349.275V337.061C220.195 335.665 221.246 334.967 222.53 335.781Z" fill="#4A4A49"/>
<path d="M218.443 336.13V348.344C218.443 350.903 220.312 354.043 222.531 355.323L242.852 366.955C245.071 368.235 246.94 367.188 246.94 364.629V363.698V361.721V352.415C246.94 349.856 245.071 346.715 242.852 345.436L225.1 335.316L223.348 334.385L222.531 333.803C220.312 332.524 218.443 333.571 218.443 336.13ZM220.195 337.06C220.195 335.548 221.246 334.967 222.531 335.665L223.348 336.13L225.1 337.06L242.852 347.297C244.137 347.995 245.188 349.856 245.188 351.368V360.557V362.535V363.465C245.188 364.978 244.137 365.559 242.852 364.861L222.531 353.345C221.246 352.648 220.195 350.786 220.195 349.274V337.06Z" fill="#1D1D1B"/>
<path d="M245.536 440.472C244.719 438.03 242.033 435.122 238.763 433.028C238.062 432.562 237.712 431.748 237.595 430.818C237.478 430.469 237.478 430.12 237.361 429.771C237.128 429.073 236.894 428.375 236.427 427.91L228.485 427.444C228.135 428.026 227.785 428.491 227.434 429.073C227.201 429.538 226.85 430.12 226.617 430.701C226.149 431.748 225.682 432.911 225.449 434.307C225.332 435.005 225.215 435.703 225.098 436.401C225.098 437.215 225.566 437.913 226.617 438.495L237.595 444.195C239.58 445.242 242.617 445.125 244.485 443.962C245.303 443.497 245.653 442.799 245.77 442.217V441.752C245.77 441.403 245.653 440.938 245.536 440.472Z" fill="#171753" stroke="#171753" stroke-width="0.25" stroke-miterlimit="10"/>
<path d="M246.003 442.334C245.886 442.566 246.003 442.334 246.003 442.334C245.886 442.915 245.419 443.613 244.718 444.078C242.85 445.242 239.696 445.358 237.711 444.311L226.499 438.495C224.747 437.564 224.981 436.401 224.981 436.401C224.981 435.703 225.215 434.656 225.565 434.075C225.215 435.005 229.069 436.401 230.704 437.797C233.039 439.774 235.609 441.403 238.412 442.566C239.463 443.031 240.514 443.38 241.682 443.38C242.85 443.38 244.017 443.148 244.835 442.334C245.185 441.985 245.769 441.17 245.536 440.356C245.652 440.821 246.12 441.287 246.003 442.334Z" fill="#171753" stroke="#171753" stroke-width="0.25" stroke-miterlimit="10"/>
<path d="M243.669 387.778L234.092 393.594L226.618 389.29L199.289 373.47C197.07 372.191 195.669 369.981 195.552 367.422L194.501 353.696C203.494 358.465 214.355 362.769 223.581 367.305C228.369 369.748 232.807 372.307 236.194 374.983C240.983 378.821 243.902 382.893 243.669 387.778Z" fill="#FFC78F" stroke="#171753" stroke-width="0.7" stroke-miterlimit="10"/>
<path d="M243.667 387.778C243.2 384.754 240.748 382.427 237.711 381.846C235.259 381.381 232.806 382.66 230.587 384.056C229.069 384.987 227.667 386.848 226.733 388.476C225.915 389.872 225.448 417.324 225.565 429.654C225.565 430.352 225.915 430.934 226.499 431.515C226.85 431.864 227.2 432.097 227.667 432.329C229.886 433.493 233.156 433.609 235.609 432.678C235.843 432.562 236.076 432.446 236.31 432.329C236.543 432.213 236.777 432.097 237.01 431.981C237.244 431.864 237.361 431.748 237.478 431.632C238.178 431.05 238.645 430.468 238.762 429.77C239.463 427.909 244.251 390.803 243.667 387.778Z" fill="#FFC78F" stroke="#171753" stroke-width="0.7" stroke-miterlimit="10"/>
<path d="M263.407 430.002C262.589 427.559 259.903 424.651 256.633 422.558C255.932 422.092 255.582 421.278 255.465 420.347C255.348 419.998 255.348 419.65 255.232 419.301C254.998 418.603 254.764 417.905 254.297 417.439L246.356 416.974C246.005 417.556 245.655 418.021 245.305 418.603C245.071 419.068 244.721 419.65 244.487 420.231C244.02 421.278 243.553 422.441 243.319 423.837C243.202 424.535 243.086 425.233 242.969 425.931C242.969 426.745 243.436 427.443 244.487 428.025L255.465 433.724C257.451 434.771 260.487 434.655 262.356 433.492C263.173 433.027 263.524 432.329 263.64 431.747V431.282C263.64 430.933 263.64 430.467 263.407 430.002Z" fill="#171753" stroke="#171753" stroke-width="0.25" stroke-miterlimit="10"/>
<path d="M263.873 431.863C263.756 432.096 263.873 431.863 263.873 431.863C263.756 432.445 263.289 433.143 262.589 433.608C260.72 434.771 257.567 434.888 255.581 433.841L244.37 428.025C242.618 427.094 242.851 425.931 242.851 425.931C242.968 425.233 243.085 424.186 243.435 423.604C243.085 424.535 246.939 425.931 248.574 427.327C250.91 429.304 253.479 430.933 256.282 432.096C257.333 432.561 258.384 432.91 259.552 432.91C260.72 432.91 261.888 432.678 262.705 431.863C263.056 431.514 263.64 430.7 263.406 429.886C263.523 430.351 263.99 430.816 263.873 431.863Z" fill="#171753" stroke="#171753" stroke-width="0.25" stroke-miterlimit="10"/>
<path d="M261.772 377.541L252.195 383.357L216.574 364.746C214.355 363.466 213.655 359.628 213.538 357.069L214.472 345.553C234.56 356.138 262.939 363.583 261.772 377.541Z" fill="#030403"/>
<path d="M261.771 377.541C261.303 374.517 258.851 372.191 255.814 371.609C253.362 371.144 250.909 372.423 248.69 373.819C247.172 374.75 245.771 376.611 244.836 378.239C244.019 379.635 243.552 407.087 243.668 419.417C243.668 420.464 244.252 421.511 245.654 422.209C248.34 423.605 252.544 423.489 254.997 421.86C255.931 421.278 256.515 420.58 256.749 419.766C257.449 417.905 262.238 380.449 261.771 377.541Z" fill="#FFC78F" stroke="#171753" stroke-width="0.7" stroke-miterlimit="10"/>
<path opacity="0.2" d="M236.312 374.982C232.925 372.19 228.487 369.747 223.698 367.305C226.501 366.025 227.903 364.629 228.603 360.674C228.37 363.233 228.37 365.095 229.421 367.421C230.589 370.562 235.26 371.958 236.312 374.982Z" fill="#1D1D1B"/>
<path d="M243.786 330.431C243.435 322.172 242.735 319.497 241.917 311.238C240.983 301.816 230.589 297.396 228.37 306.934C228.019 313.681 230.005 323.801 231.523 334.037C233.391 338.225 237.245 340.551 240.282 343.227L248.107 335.2C246.589 333.456 245.187 332.06 243.786 330.431Z" fill="#171753" stroke="#171753" stroke-width="0.25" stroke-miterlimit="10"/>
<path d="M232.924 365.444C225.45 371.376 204.661 373.237 197.42 364.164C195.902 362.303 196.953 360.674 197.537 356.37C198.238 351.834 198.939 347.646 199.639 343.924C202.209 329.151 204.428 319.845 205.946 315.076C206.18 314.146 206.18 313.797 206.413 313.215C211.318 309.842 219.377 306.701 225.566 304.724C233.742 303.444 234.209 303.793 238.18 303.444C254.296 302.281 235.26 363.466 232.924 365.444Z" fill="#171753" stroke="#171753" stroke-width="0.25" stroke-miterlimit="10"/>
<path d="M211.55 386.847L216.572 383.939V366.607L214.586 363.699L190.761 350.206L185.506 353.114L208.163 365.095L211.433 369.981L211.55 386.847Z" fill="#FFA6A6" stroke="#171753" stroke-width="0.7" stroke-miterlimit="10"/>
<path d="M188.426 355.324L189.244 355.789L190.995 356.72V365.909C190.995 367.421 192.047 369.166 193.331 369.98L211.083 380.1V382.078V383.008C211.083 384.521 210.032 385.102 208.747 384.404L188.426 372.772C187.141 372.074 186.09 370.213 186.09 368.701V356.72C186.09 355.207 187.141 354.626 188.426 355.324Z" fill="#FFA6A6" stroke="#171753" stroke-width="0.7" stroke-miterlimit="10"/>
<path d="M184.339 355.673V367.887C184.339 370.446 186.208 373.587 188.427 374.866L208.748 386.499C210.967 387.778 212.835 386.731 212.835 384.172V383.242V381.264V372.075C212.835 369.516 210.967 366.375 208.748 365.095L190.996 354.859L189.244 353.929L188.427 353.463C186.208 352.067 184.339 353.114 184.339 355.673ZM186.091 356.72C186.091 355.208 187.142 354.626 188.427 355.324L189.244 355.79L190.996 356.72L208.748 366.957C210.032 367.654 211.084 369.516 211.084 371.028V380.217V382.195V383.125C211.084 384.637 210.032 385.219 208.748 384.521L188.427 372.889C187.142 372.191 186.091 370.33 186.091 368.818V356.72Z" fill="#171753" stroke="#171753" stroke-width="0.25" stroke-miterlimit="10"/>
<path d="M242.967 478.392L193.332 449.894C189.127 447.451 185.857 441.867 185.857 437.098V383.358C185.857 379.635 187.96 377.076 191.113 377.076C192.281 377.076 193.565 377.425 194.85 378.239L244.368 406.738C248.573 409.181 251.843 414.764 251.843 419.534V473.274C251.843 476.997 249.741 479.556 246.587 479.556C245.536 479.439 244.252 479.09 242.967 478.392ZM189.011 383.358V437.098C189.011 440.82 191.697 445.473 194.967 447.334L244.485 475.717C245.303 476.182 246.003 476.415 246.704 476.415C248.69 476.415 248.923 474.205 248.923 473.158V419.417C248.923 415.695 246.237 411.042 242.967 409.181L193.332 380.798C192.514 380.333 191.814 380.101 191.113 380.101C189.244 380.101 189.011 382.311 189.011 383.358Z" fill="#171753" stroke="#171753" stroke-width="0.25" stroke-miterlimit="10"/>
<path d="M326.471 430.468L276.953 401.969C272.749 399.526 269.479 393.943 269.479 389.174V335.433C269.479 331.711 271.581 329.152 274.734 329.152C275.902 329.152 277.187 329.501 278.471 330.315L327.99 358.814C332.194 361.257 335.464 366.84 335.464 371.726V425.466C335.464 429.189 333.362 431.748 330.209 431.748C329.041 431.515 327.756 431.166 326.471 430.468ZM272.515 335.317V389.058C272.515 392.78 275.201 397.433 278.471 399.294L327.99 427.793C328.807 428.258 329.508 428.491 330.209 428.491C332.194 428.491 332.427 426.28 332.427 425.234V371.493C332.427 367.771 329.741 363.118 326.471 361.257L276.953 332.874C276.135 332.409 275.435 332.176 274.734 332.176C272.749 332.176 272.515 334.386 272.515 335.317Z" fill="#171753" stroke="#171753" stroke-width="0.25" stroke-miterlimit="10"/>
<path d="M182.588 380.566L247.172 417.673C247.639 418.022 248.34 418.022 248.807 417.673L336.165 367.654C336.632 367.305 336.982 366.84 336.982 366.142V364.746C336.982 364.165 336.632 363.583 336.048 363.234L271.464 329.384C270.997 329.152 270.413 329.152 269.829 329.384L182.588 376.262C182.004 376.495 181.653 377.076 181.653 377.658V379.054C181.653 379.635 182.004 380.217 182.588 380.566Z" fill="#FFEE81" stroke="#171753" stroke-width="0.7" stroke-miterlimit="10"/>
<path d="M182.47 377.076L247.755 414.648C247.871 414.764 248.105 414.764 248.222 414.648L336.28 364.164C336.631 363.932 336.631 363.583 336.28 363.35L270.995 325.778C270.879 325.662 270.645 325.662 270.528 325.778L182.47 376.262C182.119 376.494 182.119 376.96 182.47 377.076Z" fill="#FFC78F" stroke="#171753" stroke-width="0.7" stroke-miterlimit="10"/>
<path d="M284.661 362.187L283.026 361.954V362.652L262.704 351.02C262.471 350.904 262.121 350.904 261.887 351.02L228.602 369.98V369.282L227.084 369.631V371.027C227.084 371.144 227.084 371.144 227.201 371.26L248.923 383.823C249.157 383.939 249.507 383.939 249.741 383.823L284.427 363.815C284.544 363.699 284.544 363.699 284.544 363.583V362.187H284.661Z" fill="#FFEE81" stroke="#171753" stroke-width="0.25" stroke-miterlimit="10"/>
<path d="M284.427 362.303L249.741 382.31C249.507 382.427 249.157 382.427 248.923 382.31L227.201 369.748C227.084 369.631 227.084 369.631 227.084 369.515C227.084 369.399 227.084 369.399 227.201 369.282L250.091 356.138L251.142 355.556L253.829 354.044L256.631 352.416L261.069 349.857L261.77 349.391C262.004 349.275 262.354 349.275 262.588 349.391L284.427 361.838C284.661 361.954 284.661 362.187 284.427 362.303Z" fill="#171753" stroke="#171753" stroke-width="0.25" stroke-miterlimit="10"/>
<path opacity="0.5" d="M276.953 365.095L278.938 363.932L281.741 362.303L279.405 360.907L276.719 359.395L274.734 358.232L272.398 356.836L269.478 355.207L267.142 353.812L264.106 355.556L259.318 358.348L244.836 366.723L242.383 368.119L239.931 369.515L237.478 370.911L235.026 372.307L237.361 373.703L237.945 374.051L239.697 375.098L244.369 377.774L246.704 379.17L249.624 380.798L254.996 377.657L257.449 376.262L259.901 374.866L262.354 373.47L264.807 372.074L267.259 370.678L269.712 369.282L271.58 368.235L274.033 366.84L274.266 366.723L274.617 366.607L276.953 365.095Z" fill="black"/>
<path d="M243.784 363.234L246.236 364.629C246.47 364.746 246.82 364.746 247.054 364.629L253.828 360.791C254.061 360.675 254.061 360.442 253.828 360.326L251.375 358.93L243.784 363.234Z" fill="#FFEE81" stroke="#171753" stroke-width="0.25" stroke-miterlimit="10"/>
<path d="M251.143 358.813L250.208 358.232C249.975 358.115 249.624 358.115 249.391 358.232L246.121 360.093L247.522 360.907L251.143 358.813Z" fill="white"/>
<path d="M247.289 361.023L245.888 360.209L242.618 362.07C242.384 362.186 242.384 362.419 242.618 362.535L243.552 363.117L247.289 361.023Z" fill="white"/>
<path d="M278.82 363.582L280.922 362.303L278.82 361.14L276.718 362.419L278.82 363.582Z" fill="white"/>
<path d="M276.366 364.978L278.468 363.699L276.483 362.536L274.381 363.815L276.366 364.978Z" fill="#FFEE81" stroke="#171753" stroke-width="0.25" stroke-miterlimit="10"/>
<path d="M274.032 363.932L271.929 365.211L273.915 366.374L276.017 365.095L274.032 363.932Z" fill="#FFEE81" stroke="#171753" stroke-width="0.25" stroke-miterlimit="10"/>
<path d="M271.579 367.77L273.681 366.491L271.579 365.328L269.477 366.607L271.579 367.77Z" fill="#FFEE81" stroke="#171753" stroke-width="0.25" stroke-miterlimit="10"/>
<path d="M269.128 369.166L271.23 367.886L269.128 366.723L267.026 368.003L269.128 369.166Z" fill="#FFEE81" stroke="#171753" stroke-width="0.25" stroke-miterlimit="10"/>
<path d="M266.675 370.561L268.778 369.282L266.792 368.119L264.69 369.398L266.675 370.561Z" fill="#FFEE81" stroke="#171753" stroke-width="0.25" stroke-miterlimit="10"/>
<path d="M264.22 371.957L266.322 370.678L264.337 369.515L262.235 370.678L264.22 371.957Z" fill="#FFEE81" stroke="#171753" stroke-width="0.25" stroke-miterlimit="10"/>
<path d="M261.886 373.237L263.988 372.074L261.886 370.911L259.783 372.074L261.886 373.237Z" fill="#FFEE81" stroke="#171753" stroke-width="0.25" stroke-miterlimit="10"/>
<path d="M259.549 372.307L257.447 373.47L259.432 374.633L261.534 373.47L259.549 372.307Z" fill="#FFEE81" stroke="#171753" stroke-width="0.25" stroke-miterlimit="10"/>
<path d="M257.096 373.703L254.994 374.866L256.98 376.029L259.082 374.866L257.096 373.703Z" fill="#FFEE81" stroke="#171753" stroke-width="0.25" stroke-miterlimit="10"/>
<path d="M254.645 375.098L252.543 376.261L254.645 377.425L256.747 376.261L254.645 375.098Z" fill="#FFEE81" stroke="#171753" stroke-width="0.25" stroke-miterlimit="10"/>
<path d="M254.295 377.657L252.193 376.494L247.755 379.053L249.74 380.216L254.295 377.657Z" fill="white"/>
<path d="M276.483 362.187L278.585 361.024L276.483 359.86L274.381 361.024L276.483 362.187Z" fill="#FFEE81" stroke="#171753" stroke-width="0.25" stroke-miterlimit="10"/>
<path d="M274.032 363.582L276.134 362.419L274.148 361.256L271.929 362.419L274.032 363.582Z" fill="#FFEE81" stroke="#171753" stroke-width="0.25" stroke-miterlimit="10"/>
<path d="M271.695 362.652L269.593 363.815L271.578 364.978L273.68 363.815L271.695 362.652Z" fill="#FFEE81" stroke="#171753" stroke-width="0.25" stroke-miterlimit="10"/>
<path d="M269.127 366.374L271.346 365.211L269.244 364.048L267.141 365.211L269.127 366.374Z" fill="#FFEE81" stroke="#171753" stroke-width="0.25" stroke-miterlimit="10"/>
<path d="M266.792 367.77L268.894 366.607L266.792 365.443L264.69 366.607L266.792 367.77Z" fill="#FFEE81" stroke="#171753" stroke-width="0.25" stroke-miterlimit="10"/>
<path d="M264.339 369.166L266.441 368.003L264.455 366.839L262.353 368.003L264.339 369.166Z" fill="#FFEE81" stroke="#171753" stroke-width="0.25" stroke-miterlimit="10"/>
<path d="M261.886 370.561L263.988 369.398L262.003 368.119L259.901 369.398L261.886 370.561Z" fill="#FFEE81" stroke="#171753" stroke-width="0.25" stroke-miterlimit="10"/>
<path d="M259.549 371.957L261.651 370.678L259.549 369.515L257.447 370.794L259.549 371.957Z" fill="#FFEE81" stroke="#171753" stroke-width="0.25" stroke-miterlimit="10"/>
<path d="M257.213 370.911L255.111 372.19L257.096 373.353L259.199 372.074L257.213 370.911Z" fill="#FFEE81" stroke="#171753" stroke-width="0.25" stroke-miterlimit="10"/>
<path d="M254.761 372.307L252.659 373.586L254.644 374.749L256.746 373.47L254.761 372.307Z" fill="#FFEE81" stroke="#171753" stroke-width="0.25" stroke-miterlimit="10"/>
<path d="M252.308 373.703L250.206 374.982L252.192 376.145L254.411 374.866L252.308 373.703Z" fill="#FFEE81" stroke="#171753" stroke-width="0.25" stroke-miterlimit="10"/>
<path d="M249.857 377.541L251.959 376.261L249.857 375.098L247.755 376.378L249.857 377.541Z" fill="#FFEE81" stroke="#171753" stroke-width="0.25" stroke-miterlimit="10"/>
<path d="M247.521 376.494L245.419 377.774L247.404 378.937L249.507 377.657L247.521 376.494Z" fill="#FFEE81" stroke="#171753" stroke-width="0.25" stroke-miterlimit="10"/>
<path d="M274.147 360.907L276.25 359.628L274.147 358.464L272.045 359.744L274.147 360.907Z" fill="#FFEE81" stroke="#171753" stroke-width="0.25" stroke-miterlimit="10"/>
<path d="M271.695 362.303L273.797 361.024L271.695 359.86L269.593 361.14L271.695 362.303Z" fill="#FFEE81" stroke="#171753" stroke-width="0.25" stroke-miterlimit="10"/>
<path d="M269.359 361.256L267.257 362.419L269.242 363.699L271.345 362.419L269.359 361.256Z" fill="#FFEE81" stroke="#171753" stroke-width="0.25" stroke-miterlimit="10"/>
<path d="M266.79 364.978L268.892 363.815L266.907 362.652L264.805 363.815L266.79 364.978Z" fill="#FFEE81" stroke="#171753" stroke-width="0.25" stroke-miterlimit="10"/>
<path d="M264.455 366.374L266.558 365.211L264.455 364.048L262.353 365.211L264.455 366.374Z" fill="#FFEE81" stroke="#171753" stroke-width="0.25" stroke-miterlimit="10"/>
<path d="M262.003 367.77L264.105 366.607L262.12 365.443L260.018 366.607L262.003 367.77Z" fill="#FFEE81" stroke="#171753" stroke-width="0.25" stroke-miterlimit="10"/>
<path d="M259.55 369.166L261.652 368.003L259.666 366.839L257.564 368.003L259.55 369.166Z" fill="#FFEE81" stroke="#171753" stroke-width="0.25" stroke-miterlimit="10"/>
<path d="M257.213 370.562L259.315 369.399L257.213 368.235L255.111 369.399L257.213 370.562Z" fill="#FFEE81" stroke="#171753" stroke-width="0.25" stroke-miterlimit="10"/>
<path d="M254.878 369.631L252.659 370.795L254.761 371.958L256.863 370.795L254.878 369.631Z" fill="#FFEE81" stroke="#171753" stroke-width="0.25" stroke-miterlimit="10"/>
<path d="M252.425 371.027L250.323 372.19L252.308 373.353L254.41 372.19L252.425 371.027Z" fill="#FFEE81" stroke="#171753" stroke-width="0.25" stroke-miterlimit="10"/>
<path d="M249.973 372.423L247.87 373.586L249.856 374.749L252.075 373.586L249.973 372.423Z" fill="#FFEE81" stroke="#171753" stroke-width="0.25" stroke-miterlimit="10"/>
<path d="M247.521 376.145L249.623 374.982L247.521 373.818L245.419 374.982L247.521 376.145Z" fill="#FFEE81" stroke="#171753" stroke-width="0.25" stroke-miterlimit="10"/>
<path d="M244.834 374.982L247.287 373.586L245.301 372.423C243.082 373.702 240.747 374.982 240.747 374.982C240.747 374.982 240.98 375.098 245.068 377.541L247.17 376.378L244.834 374.982Z" fill="white"/>
<path d="M267.257 359.744L269.359 360.907L273.914 358.348L271.812 357.185L267.257 359.744Z" fill="#FFEE81" stroke="#171753" stroke-width="0.25" stroke-miterlimit="10"/>
<path d="M267.024 359.86L264.921 361.14L266.907 362.303L269.009 361.14L267.024 359.86Z" fill="#FFEE81" stroke="#171753" stroke-width="0.25" stroke-miterlimit="10"/>
<path d="M264.455 363.699L266.558 362.419L264.572 361.256L262.47 362.535L264.455 363.699Z" fill="#FFEE81" stroke="#171753" stroke-width="0.25" stroke-miterlimit="10"/>
<path d="M262.12 365.095L264.222 363.815L262.12 362.652L260.018 363.931L262.12 365.095Z" fill="#FFEE81" stroke="#171753" stroke-width="0.25" stroke-miterlimit="10"/>
<path d="M259.667 366.491L261.769 365.211L259.784 364.048L257.682 365.327L259.667 366.491Z" fill="#FFEE81" stroke="#171753" stroke-width="0.25" stroke-miterlimit="10"/>
<path d="M257.214 367.886L259.316 366.607L257.331 365.443L255.229 366.723L257.214 367.886Z" fill="#FFEE81" stroke="#171753" stroke-width="0.25" stroke-miterlimit="10"/>
<path d="M254.879 369.282L256.981 368.003L254.879 366.839L252.777 368.119L254.879 369.282Z" fill="#FFEE81" stroke="#171753" stroke-width="0.25" stroke-miterlimit="10"/>
<path d="M252.425 368.235L250.323 369.515L252.425 370.678L254.527 369.399L252.425 368.235Z" fill="#FFEE81" stroke="#171753" stroke-width="0.25" stroke-miterlimit="10"/>
<path d="M250.089 369.631L247.987 370.911L249.973 372.074L252.075 370.795L250.089 369.631Z" fill="#FFEE81" stroke="#171753" stroke-width="0.25" stroke-miterlimit="10"/>
<path d="M247.638 371.027L245.536 372.306L247.521 373.47L249.623 372.19L247.638 371.027Z" fill="#FFEE81" stroke="#171753" stroke-width="0.25" stroke-miterlimit="10"/>
<path d="M266.206 357.65L264.921 358.348L267.024 359.511L271.578 356.952L269.476 355.789L267.024 357.185L266.206 357.65Z" fill="white"/>
<path d="M264.69 358.581L262.588 359.744L264.573 360.907L266.675 359.744L264.69 358.581Z" fill="#FFEE81" stroke="#171753" stroke-width="0.25" stroke-miterlimit="10"/>
<path d="M262.119 362.303L264.221 361.14L262.235 359.977L260.133 361.14L262.119 362.303Z" fill="#FFEE81" stroke="#171753" stroke-width="0.25" stroke-miterlimit="10"/>
<path d="M259.784 363.699L261.886 362.535L259.784 361.372L257.682 362.535L259.784 363.699Z" fill="#FFEE81" stroke="#171753" stroke-width="0.25" stroke-miterlimit="10"/>
<path d="M257.331 365.095L259.433 363.931L257.448 362.768L255.229 363.931L257.331 365.095Z" fill="#FFEE81" stroke="#171753" stroke-width="0.25" stroke-miterlimit="10"/>
<path d="M254.878 366.49L256.98 365.327L254.995 364.164L252.893 365.327L254.878 366.49Z" fill="#FFEE81" stroke="#171753" stroke-width="0.25" stroke-miterlimit="10"/>
<path d="M252.427 367.886L254.646 366.723L252.544 365.56L250.441 366.723L252.427 367.886Z" fill="#FFEE81" stroke="#171753" stroke-width="0.25" stroke-miterlimit="10"/>
<path d="M250.089 366.956L247.987 368.119L250.089 369.282L252.192 368.119L250.089 366.956Z" fill="#FFEE81" stroke="#171753" stroke-width="0.25" stroke-miterlimit="10"/>
<path d="M247.756 368.352L245.653 369.515L247.639 370.678L249.741 369.515L247.756 368.352Z" fill="#FFEE81" stroke="#171753" stroke-width="0.25" stroke-miterlimit="10"/>
<path d="M245.301 369.747L243.199 370.91L245.184 372.074L247.287 370.91L245.301 369.747Z" fill="#FFEE81" stroke="#171753" stroke-width="0.25" stroke-miterlimit="10"/>
<path d="M244.95 372.306L242.848 371.143L238.41 373.702L240.395 374.865L244.95 372.306Z" fill="white"/>
<path d="M267.142 354.393L265.04 355.673L267.025 356.836L269.128 355.556L267.142 354.393Z" fill="#FFEE81" stroke="#171753" stroke-width="0.25" stroke-miterlimit="10"/>
<path d="M264.339 358.348L266.791 356.952L264.689 355.789L262.353 357.185L261.536 357.65L260.251 358.464L262.236 359.628L263.521 358.813L264.339 358.348Z" fill="#FFEE81" stroke="#171753" stroke-width="0.25" stroke-miterlimit="10"/>
<path d="M259.902 358.581C256.865 360.325 252.31 362.884 245.653 366.723L247.639 367.886C254.296 364.048 258.85 361.489 261.887 359.744L259.902 358.581Z" fill="white"/>
<path d="M245.419 366.956L243.317 368.119L245.302 369.399L247.404 368.119L245.419 366.956Z" fill="#FFEE81" stroke="#171753" stroke-width="0.25" stroke-miterlimit="10"/>
<path d="M242.966 368.352L240.863 369.515L242.849 370.678L244.951 369.515L242.966 368.352Z" fill="#FFEE81" stroke="#171753" stroke-width="0.25" stroke-miterlimit="10"/>
<path d="M240.512 369.747L238.41 370.91L240.512 372.074L242.614 370.91L240.512 369.747Z" fill="#FFEE81" stroke="#171753" stroke-width="0.25" stroke-miterlimit="10"/>
<path d="M238.178 371.143L235.959 372.306L238.061 373.47L240.163 372.306L238.178 371.143Z" fill="#FFEE81" stroke="#171753" stroke-width="0.25" stroke-miterlimit="10"/>
<g style="mix-blend-mode:multiply" opacity="0.5">
<path d="M265.042 357.301C264.458 354.859 262.239 353.114 260.487 351.369C259.202 350.089 257.917 348.577 256.049 348.112C254.998 347.763 253.713 347.996 252.662 347.53C251.728 347.181 250.91 346.6 250.093 346.134C249.275 345.785 248.341 345.553 247.406 345.204C245.304 344.273 243.903 342.412 242.268 340.784C242.034 340.551 241.684 340.318 241.333 340.318C240.75 338.923 240.399 337.527 240.282 336.014L239.348 314.146C239.348 314.146 238.998 342.994 240.282 343.11C240.633 345.553 241.567 347.181 243.319 348.228C244.72 349.043 247.99 351.253 248.808 351.602C249.625 351.951 250.443 352.3 250.91 352.997C251.494 353.812 251.494 354.742 251.844 355.673C252.312 356.72 253.129 357.65 253.83 358.465C254.18 358.814 254.531 359.279 255.115 359.395C255.582 359.628 256.282 359.511 256.516 359.046C256.983 358.465 256.516 357.65 256.633 356.952C257.217 356.72 257.917 356.952 258.385 357.418C258.852 357.883 259.085 358.465 259.319 359.046C259.669 359.628 260.02 360.093 260.604 360.326C261.188 360.558 262.005 360.209 262.122 359.628C262.239 358.93 261.421 358.348 261.421 357.534C262.005 357.534 262.472 357.999 262.939 358.465C263.406 358.93 264.107 359.163 264.574 358.814C265.158 358.581 265.158 357.883 265.042 357.301Z" fill="#171753"/>
</g>
<path d="M254.18 342.878C251.611 339.388 249.742 337.061 248.107 335.084L243.903 330.431L240.399 343.11C242.735 345.088 243.786 347.414 247.874 350.09C251.728 351.02 256.399 347.065 254.18 342.878Z" fill="#171753" stroke="#171753" stroke-width="0.25" stroke-miterlimit="10"/>
<path d="M249.041 347.53C249.041 347.763 249.275 348.112 249.508 348.345L251.143 349.741L251.61 350.09L255.231 353.23L261.538 347.996L255.815 345.437L253.362 343.925C252.078 343.459 248.691 345.553 249.041 347.53Z" fill="white"/>
<path d="M258.969 349.043L263.641 351.718L264.458 354.743C264.575 355.092 264.809 355.441 265.042 355.673C265.159 355.79 265.392 355.906 265.626 355.906C265.976 355.906 266.21 355.789 266.327 355.441C266.327 355.324 266.327 355.208 266.327 355.092C266.327 354.975 266.327 354.975 266.327 354.859L265.276 350.555C265.276 350.555 261.538 347.996 261.188 347.88C260.955 347.763 259.903 348.461 259.203 348.81C259.086 349.043 259.086 349.043 258.969 349.043Z" fill="white"/>
<path opacity="0.1" d="M260.255 349.159L263.875 351.486L264.693 354.51C264.809 354.859 264.926 355.208 265.16 355.673C265.277 355.79 265.51 355.906 265.744 355.906C266.094 355.906 266.328 355.79 266.444 355.441C266.444 355.324 266.444 355.208 266.444 355.092C265.86 354.51 265.16 352.765 264.809 351.253L260.255 349.159Z" fill="#1D1D1B"/>
<path d="M257.449 350.206L259.084 351.253L262.822 353.696L264.223 356.72C264.573 357.302 265.041 357.651 265.625 357.651C265.858 357.534 265.975 357.534 266.092 357.302C266.208 357.069 266.208 356.836 266.092 356.371L264.223 351.951C264.223 351.951 259.552 348.81 259.201 348.81C258.968 348.694 257.449 350.206 257.449 350.206Z" fill="white"/>
<path opacity="0.1" d="M258.151 350.206L259.086 351.253L262.823 353.696L264.224 356.72C264.575 357.302 265.042 357.651 265.626 357.651C265.859 357.534 265.976 357.534 266.093 357.302C265.159 357.302 263.64 355.092 263.173 353.23L258.151 350.206Z" fill="#1D1D1B"/>
<path d="M255.698 351.253L258.267 353.114L261.771 355.557L263.756 358.232C264.224 358.697 264.691 358.93 265.391 358.93C265.391 358.93 265.508 358.93 265.508 358.814C265.625 358.814 265.625 358.697 265.742 358.581C265.859 358.348 265.859 357.999 265.625 357.534L262.939 353.579C262.939 353.579 258.151 349.857 257.683 349.857C257.333 349.973 255.698 351.253 255.698 351.253Z" fill="white"/>
<path opacity="0.1" d="M256.868 351.485L258.269 352.998L261.773 355.44L263.758 358.116C264.225 358.581 264.693 358.814 265.393 358.814C265.393 358.814 265.51 358.814 265.51 358.697L265.744 358.465C264.926 358.814 262.474 356.604 262.006 354.742L256.868 351.485Z" fill="#1D1D1B"/>
<path d="M254.298 352.765L258.969 356.371L260.721 359.279C261.071 359.86 261.539 360.093 262.239 360.093C262.473 359.977 262.59 359.977 262.706 359.744C262.823 359.512 262.823 359.279 262.706 358.814L260.371 354.742C260.371 354.742 256.4 351.02 256.05 351.02C255.816 351.02 255.115 351.834 254.648 352.416C254.415 352.649 254.298 352.765 254.298 352.765Z" fill="white"/>
<path opacity="0.1" d="M254.298 352.765L258.969 356.371L260.721 359.279C261.071 359.861 261.539 360.093 262.239 360.093C262.473 359.977 262.59 359.977 262.706 359.745C261.772 359.861 259.904 357.651 259.436 355.79L254.648 352.184C254.415 352.649 254.298 352.765 254.298 352.765Z" fill="#1D1D1B"/>
<path d="M251.027 349.043C251.027 349.276 251.027 349.508 251.143 349.741C251.26 351.021 251.26 352.3 251.844 353.463C252.311 354.394 253.012 355.092 253.713 355.79C254.413 356.604 254.997 357.418 255.348 358.465C255.465 358.814 255.698 359.279 256.049 359.396C256.282 359.512 256.399 359.512 256.632 359.396C256.866 359.279 257.1 359.163 257.216 358.814C257.45 358.349 257.45 357.884 257.333 357.418C256.866 355.906 255.581 354.743 255.231 353.114C255.231 352.998 255.114 352.882 255.114 352.765C254.997 352.3 255.114 351.718 254.881 351.253C254.647 350.439 254.063 349.857 253.362 349.508C252.778 349.276 252.194 349.043 251.611 348.927C251.377 349.043 251.143 349.043 251.027 349.043Z" fill="white"/>
<path opacity="0.1" d="M249.04 347.531C249.04 347.763 249.274 348.112 249.507 348.345L251.142 349.741C251.259 351.02 251.259 352.3 251.843 353.463C252.31 354.394 253.011 355.092 253.712 355.79C254.412 356.604 254.996 357.418 255.347 358.465C255.463 358.814 255.697 359.279 256.047 359.396C256.281 359.512 256.398 359.512 256.631 359.396C256.398 359.163 256.164 358.93 256.047 358.698C255.697 358.116 255.463 357.534 255.113 356.953C254.529 356.022 253.712 355.208 253.011 354.394C252.077 353.231 251.609 351.718 251.609 350.09C251.609 349.741 251.609 349.392 251.609 349.043C251.609 348.81 251.726 348.461 251.726 348.229C251.493 348.345 250.558 348.461 250.442 348.461C249.974 348.112 249.507 347.763 249.04 347.531Z" fill="#1D1D1B"/>
<g style="mix-blend-mode:multiply" opacity="0.5">
<path d="M232.223 359.162C231.405 358.115 230.354 357.185 229.537 356.371C227.902 354.742 226.266 353.113 224.515 351.601C222.996 350.205 221.361 348.926 219.726 347.53C219.259 347.181 215.288 344.389 215.405 344.04C217.04 338.341 217.624 330.547 217.741 322.056C217.741 313.099 208.164 311.121 205.945 320.66C204.193 327.174 203.376 337.294 202.091 348.112C201.974 348.693 203.026 349.973 203.376 350.438C203.843 351.252 204.427 351.95 205.011 352.765C206.296 354.277 207.814 355.673 209.332 356.952C213.069 359.976 217.274 362.187 221.595 364.164C222.529 364.629 223.814 364.862 224.631 365.56C225.449 366.142 225.916 366.839 226.85 367.072C227.434 367.305 228.135 367.305 228.836 367.305C230.004 367.305 231.288 367.537 232.456 367.886C233.624 368.352 234.675 369.05 235.259 370.096C235.61 370.678 235.843 371.26 236.194 371.841C236.544 372.423 237.128 372.888 237.829 372.772C237.945 372.772 237.945 372.772 238.062 372.772C238.179 372.656 238.179 372.656 238.296 372.539C238.646 371.609 238.412 370.562 237.829 369.631C237.361 368.817 236.544 368.003 235.96 367.305C235.142 366.258 234.558 365.095 234.091 363.815C233.741 362.768 233.507 361.721 233.157 360.791C232.923 360.209 232.573 359.628 232.223 359.162Z" fill="#171753"/>
</g>
<path d="M230.822 356.138C224.982 349.624 218.792 344.855 214.121 341.133C215.756 335.433 216.34 327.639 216.457 319.148C216.457 310.191 206.88 308.214 204.661 317.752C202.909 323.917 202.092 333.455 200.924 343.692C200.807 344.739 201.04 345.786 201.508 346.6C205.245 353.114 213.186 358.348 223.697 362.536C227.668 363.583 232.106 360.326 230.822 356.138Z" fill="#171753" stroke="#171753" stroke-width="0.25" stroke-miterlimit="10"/>
<path d="M243.319 359.046C243.202 359.511 242.735 359.86 242.151 360.093C240.633 360.675 239.115 361.024 237.48 361.024L236.545 361.256L233.859 361.954L232.808 359.046L232.575 358.464L232.341 357.883L235.027 358.115C237.83 358.464 239.932 358.581 242.385 357.883C243.319 357.883 243.553 358.464 243.319 359.046Z" stroke="#171753" stroke-width="0.7"/>
<path d="M240.633 361.023L235.728 365.676L234.209 367.072L233.859 367.421C230.823 367.421 228.837 365.56 227.436 363.117L224.516 361.023C224.399 360.325 224.633 359.511 225.1 358.697C226.151 356.952 228.253 355.673 229.421 356.138C230.939 357.417 232.808 358.115 234.91 358.464C237.363 359.279 239.582 360.093 240.633 361.023Z" stroke="#171753" stroke-width="0.7"/>
<path d="M246.355 368.7C245.888 369.049 245.07 369.165 244.486 368.468L242.501 365.792L238.764 362.651L238.53 362.535L240.632 361.023L243.903 363.698L246.472 368.119C246.589 368.351 246.472 368.584 246.355 368.7Z" fill="white"/>
<path opacity="0.5" d="M246.355 368.701C245.888 369.05 245.07 369.166 244.486 368.468L242.501 365.793L238.764 362.652L238.997 362.536L242.734 364.629C243.786 366.607 244.837 368.701 246.355 368.701Z" fill="#171753"/>
<path d="M244.72 370.445C244.253 370.794 243.436 370.794 242.969 370.212L240.983 367.537L237.012 364.164L238.764 362.419L242.385 365.327L244.954 369.747C245.071 369.98 244.954 370.212 244.72 370.445Z" fill="white"/>
<path d="M243.319 359.046C243.202 359.511 242.735 359.86 242.151 360.093C240.633 360.675 239.115 361.024 237.48 361.024L236.545 361.256L233.859 361.954L232.808 359.046L232.575 358.464L232.341 357.883L235.027 358.115C237.83 358.464 239.932 358.581 242.385 357.883C243.319 357.883 243.553 358.464 243.319 359.046Z" fill="white"/>
<path opacity="0.5" d="M243.319 359.046C243.202 359.511 242.735 359.86 242.151 360.093C240.632 360.674 239.114 361.023 237.479 361.023L236.545 361.256L232.808 359.046L231.873 358.464C232.107 358.464 232.34 358.464 232.574 358.464C236.778 358.697 240.399 360.326 243.319 359.046Z" fill="#171753"/>
<path d="M240.633 361.023L235.728 365.676L234.209 367.072L233.859 367.421C230.823 367.421 228.837 365.56 227.436 363.117L224.516 361.023C224.399 360.325 224.633 359.511 225.1 358.697C226.151 356.952 228.253 355.673 229.421 356.138C230.939 357.417 232.808 358.115 234.91 358.464C237.363 359.279 239.582 360.093 240.633 361.023Z" fill="white"/>
<path opacity="0.5" d="M244.72 370.445C244.253 370.794 243.436 370.794 242.969 370.213L240.983 367.537L237.012 364.164L237.363 363.815L241.1 366.49C242.034 368.468 243.202 370.329 244.72 370.445C244.72 370.329 244.72 370.329 244.72 370.445Z" fill="#171753"/>
<path d="M242.502 371.609C242.502 371.841 242.385 372.074 242.152 372.19C241.685 372.539 240.867 372.423 240.4 371.841L238.765 368.933L235.495 365.56L235.144 365.211L237.13 363.583L240.4 366.956L242.502 371.609Z" fill="white"/>
<path opacity="0.5" d="M242.151 372.227C241.684 372.576 240.867 372.459 240.4 371.878L238.764 368.97L235.494 365.596L235.611 365.48L238.998 368.272C239.932 370.249 240.633 372.227 242.151 372.227Z" fill="#171753"/>
<path d="M239.464 371.841C239.464 372.074 239.347 372.306 239.23 372.423C238.763 372.772 237.946 372.655 237.595 372.074L235.843 369.398L233.975 367.305L232.924 366.374L232.69 366.025L234.792 364.396L235.843 365.676L237.362 367.537L239.464 371.841Z" fill="white"/>
<path opacity="0.5" d="M239.028 372.554C238.561 372.903 237.743 372.787 237.393 372.205L235.641 369.53L233.772 367.436C230.736 367.436 228.75 365.575 227.349 363.132L224.429 361.038C224.312 360.34 224.546 359.526 225.013 358.712C225.013 360.689 226.064 361.736 227.466 362.085C229.101 364.412 230.853 366.04 232.721 366.273C232.955 366.273 233.188 366.273 233.422 366.273L234.123 366.971L236.108 369.065C237.159 371.275 237.626 372.554 239.028 372.554Z" fill="#171753"/>
<path d="M235.96 322.056C238.879 321.125 239.58 308.679 239.463 307.399C239.463 307.167 239.463 306.934 239.23 306.818C239.113 306.701 239.58 305.422 239.463 305.306C238.412 305.073 237.128 305.073 236.076 304.84C236.076 305.306 235.493 308.563 236.427 312.983C237.011 316.24 235.96 322.056 235.96 322.056Z" fill="#FFC78F" stroke="#171753" stroke-width="0.7" stroke-miterlimit="10"/>
<path d="M224.396 307.865C225.447 311.354 236.075 313.797 235.725 307.748L236.309 298.559L224.98 298.21C224.747 302.514 224.046 304.026 224.396 307.865Z" fill="white"/>
<path opacity="0.1" d="M226.849 301.351C229.302 303.561 229.769 308.33 233.156 309.144C235.608 309.726 235.842 306.352 235.842 306.352C238.061 303.677 236.776 301.118 236.192 299.373L226.849 301.351Z" fill="#1D1D1B"/>
<path d="M242.273 305.831C241.084 306.647 239.284 306.878 236.044 306.129C233.875 305.56 232.053 304.652 230.343 303.291L227.355 300.756L231.331 282.992C233.969 283.164 236.518 283.4 238.75 283.966C241.062 284.552 242.997 285.485 244.333 287.034C246.115 289.257 247.969 293.89 244.978 301.454C244.151 303.512 243.484 305.001 242.273 305.831Z" fill="white" stroke="#171753" stroke-width="0.7"/>
<path d="M247.404 290.068C247.404 287.276 246.353 284.6 244.485 282.739C242.85 281.111 240.514 279.482 237.361 278.901C233.39 277.97 229.419 277.97 226.149 282.158C223.696 285.182 222.412 288.904 221.945 292.627C221.711 294.72 221.361 296.465 220.543 298.443C219.726 300.304 218.674 302.165 217.857 304.026C217.507 304.84 216.222 307.748 216.222 308.097C217.74 307.865 220.193 310.308 220.31 312.867C220.893 320.893 223.112 326.942 225.799 326.593C225.799 326.593 222.996 314.96 225.448 310.424C228.368 304.957 230.237 299.141 230.353 298.326C230.47 297.279 230.587 296.233 231.521 295.535C232.222 295.069 233.039 295.069 233.857 294.837C234.441 294.72 239.696 294.139 240.747 294.139C241.098 294.139 241.448 294.139 241.799 294.022C242.966 293.674 243.55 292.394 244.018 291.347C244.602 291.929 244.134 293.092 244.718 293.441C245.069 293.674 245.536 293.557 245.886 293.325C247.171 292.627 247.404 291.347 247.404 290.068Z" fill="#FFC78F" stroke="#171753" stroke-width="0.7" stroke-miterlimit="10"/>
<path d="M230.296 292.739L230.296 292.739L230.304 292.74C230.6 292.782 230.908 292.98 231.165 293.287C231.421 293.593 231.594 293.97 231.642 294.305L231.645 294.328L231.652 294.352C231.854 295.055 231.656 295.89 231.418 296.718L231.418 296.718L231.415 296.729C231.404 296.775 231.392 296.82 231.381 296.866C231.271 297.314 231.161 297.757 230.891 298.116L230.872 298.141L230.858 298.169C230.776 298.332 230.622 298.492 230.431 298.611C230.238 298.731 230.039 298.791 229.886 298.791C229.554 298.791 229.305 298.632 229.126 298.364C228.907 298.038 228.688 297.6 228.583 297.285C228.345 296.575 228.134 295.933 228.134 295.302C228.134 294.626 228.25 293.913 228.641 293.427C229.038 292.932 229.735 292.646 230.296 292.739Z" fill="white" stroke="#171753" stroke-width="0.7"/>
<path d="M284.545 361.954L284.896 362.07C285.363 362.187 285.83 361.954 286.063 361.489L294.239 338.69C294.355 338.224 294.122 337.759 293.655 337.526L293.304 337.41L284.545 361.954Z" fill="#171753" stroke="#171753" stroke-width="0.25" stroke-miterlimit="10"/>
<path d="M285.713 361.954L250.326 382.427H249.041L257.917 357.999L293.304 337.526L285.713 361.954Z" fill="#171753" stroke="#171753" stroke-width="0.25" stroke-miterlimit="10"/>
<path d="M249.041 382.427L249.392 382.543C249.859 382.659 250.326 382.427 250.559 381.961L258.735 359.162C258.851 358.697 258.618 358.232 258.151 357.999L257.8 357.883L249.041 382.427Z" fill="#FFEE81" stroke="#171753" stroke-width="0.25" stroke-miterlimit="10"/>
<path d="M276.836 358.93C276.603 360.093 275.435 361.373 274.384 361.954C273.333 362.536 272.632 362.071 272.982 360.908C273.216 359.744 274.384 358.465 275.435 357.883C276.486 357.302 277.187 357.767 276.836 358.93Z" fill="#FFEE81" stroke="#171753" stroke-width="0.25" stroke-miterlimit="10"/>
<path d="M159.568 23.2211L156.807 37.5146L143.333 36.1952L145.21 21.5718C149.518 20.6922 154.377 21.5718 159.568 23.2211Z" fill="white"/>
<path d="M146.757 119.538C146.757 120.637 145.874 121.517 144.769 121.517C143.665 121.517 142.781 120.637 142.781 119.538C142.781 118.438 143.665 117.559 144.769 117.559C145.763 117.559 146.757 118.438 146.757 119.538Z" fill="#030403"/>
<path d="M142.007 139.548C142.007 140.648 141.123 141.528 140.019 141.528C138.914 141.528 138.031 140.648 138.031 139.548C138.031 138.449 138.914 137.569 140.019 137.569C141.123 137.569 142.007 138.449 142.007 139.548Z" fill="#030403"/>
<path d="M174.037 148.784C174.037 149.884 173.154 150.763 172.049 150.763C170.945 150.763 170.061 149.884 170.061 148.784C170.061 147.685 170.945 146.805 172.049 146.805C173.154 146.805 174.037 147.685 174.037 148.784Z" fill="#171753" stroke="#171753" stroke-width="0.25" stroke-miterlimit="10"/>
<path d="M198.003 134.491C198.003 135.59 197.12 136.47 196.015 136.47C194.911 136.47 194.027 135.59 194.027 134.491C194.027 133.391 194.911 132.512 196.015 132.512C197.12 132.512 198.003 133.391 198.003 134.491Z" fill="#171753" stroke="#171753" stroke-width="0.25" stroke-miterlimit="10"/>
<path d="M183.314 115.25C183.314 116.349 182.431 117.229 181.326 117.229C180.222 117.229 179.338 116.349 179.338 115.25C179.338 114.15 180.222 113.271 181.326 113.271C182.431 113.271 183.314 114.15 183.314 115.25Z" fill="#171753" stroke="#171753" stroke-width="0.25" stroke-miterlimit="10"/>
<path d="M183.424 113.71V110.961L179.78 112.61L165.863 125.474L145.873 115.799L142.891 114.699V117.448L159.899 128.993L137.589 134.16V136.909L139.467 138.998L163.765 133.281L170.06 148.014L174.147 147.574V144.935L172.159 132.511L198.335 133.721L198.997 131.302V128.553L173.484 127.673L183.424 113.71Z" fill="#171753" stroke="#171753" stroke-width="0.25" stroke-miterlimit="10"/>
<path d="M182.541 110.741L180.112 110.082C179.891 109.972 179.67 110.082 179.449 110.192L166.195 122.396C165.974 122.616 165.643 122.616 165.422 122.506L146.094 113.16C145.873 113.05 145.652 113.05 145.432 113.16L143.775 114.15C143.333 114.37 143.333 115.029 143.775 115.359L158.795 125.475C159.237 125.805 159.127 126.464 158.685 126.684L138.584 133.831C138.142 133.941 138.032 134.601 138.253 134.93L139.136 136.03C139.357 136.25 139.578 136.25 139.799 136.25L163.213 130.752C163.545 130.642 163.876 130.862 163.986 131.192L169.84 144.826C169.951 145.046 170.282 145.266 170.503 145.266L173.374 145.046C173.816 145.046 174.037 144.716 174.037 144.276L172.27 130.752C172.27 130.312 172.601 129.983 172.933 129.983L197.783 131.082C198.114 131.082 198.335 130.862 198.446 130.532L198.777 129.433C198.887 128.993 198.666 128.663 198.225 128.553L174.589 125.255C174.037 125.145 173.816 124.595 174.147 124.155L182.873 111.841C183.204 111.401 182.983 110.851 182.541 110.741Z" fill="#FFA6A6" stroke="#171753" stroke-width="0.7" stroke-miterlimit="10"/>
<path d="M169.729 125.255C171.276 126.135 171.276 127.564 169.729 128.334C168.183 129.213 165.753 129.213 164.318 128.334C162.771 127.454 162.771 126.025 164.318 125.255C165.753 124.375 168.183 124.375 169.729 125.255Z" fill="#171753" stroke="#171753" stroke-width="0.25" stroke-miterlimit="10"/>
<path d="M163.102 102.275H170.833V126.904H163.102V102.275Z" fill="#171753" stroke="#171753" stroke-width="0.25" stroke-miterlimit="10"/>
<path d="M166.747 79.1857L136.374 96.6677C134.938 97.4373 133.834 96.7777 133.834 95.2384C133.834 91.3901 136.485 86.8822 139.688 85.013L166.747 69.4001C168.183 68.6305 169.287 69.2902 169.287 70.8295V74.7877C169.287 76.327 168.072 78.3061 166.747 79.1857Z" fill="#4A4A49"/>
<path d="M162.107 112.61L134.385 96.5577L168.403 69.1802L196.345 85.2329L162.107 112.61Z" fill="#4A4A49"/>
<path d="M161.224 69.62L161.998 65.1121L168.845 21.0221L169.397 17.6137C169.618 16.1843 170.612 14.755 171.717 14.3152L175.582 12.7759C176.024 12.556 176.466 12.6659 176.797 12.7759L204.188 28.6087L189.388 87.322L161.887 71.4892C161.335 71.1593 161.114 70.4996 161.224 69.62Z" fill="#FFA54B" stroke="#171753" stroke-width="0.7" stroke-miterlimit="10"/>
<path d="M194.359 95.0186L163.986 112.501C162.55 113.27 161.446 112.611 161.446 111.071C161.446 107.223 164.097 102.715 167.3 100.846L194.359 85.343C195.795 84.5733 196.899 85.233 196.899 86.7723V90.7305C196.899 92.2698 195.795 94.2489 194.359 95.0186Z" fill="#030403"/>
<path d="M188.946 85.563L197.009 33.5567C197.23 32.1274 198.224 30.698 199.328 30.2582L203.194 28.7189C204.409 28.2791 205.182 29.0488 204.961 30.5881L197.23 81.7148C197.009 82.9243 196.125 84.2437 195.131 84.9034L190.934 87.3222C189.719 87.9819 188.725 87.2123 188.946 85.563Z" fill="#171753" stroke="#171753" stroke-width="0.25" stroke-miterlimit="10"/>
<path d="M140.129 79.2953V81.1645L139.356 81.6043C137.257 82.8137 135.49 81.8242 135.49 79.4053V67.9705C135.49 65.5516 137.257 62.5829 139.356 61.3735L158.573 50.3785C160.672 49.169 162.439 50.1586 162.439 52.5775V53.4571L160.782 54.3367V53.4571C160.782 52.0277 159.788 51.478 158.573 52.1377L139.356 63.1327C138.141 63.7924 137.147 65.5516 137.147 66.9809V78.4157C137.147 79.8451 138.141 80.3948 139.356 79.7351L140.129 79.2953Z" fill="#4A4A49"/>
<path d="M141.344 84.5731L136.595 81.8244V65.4418L138.473 62.803L161.114 50.0488L165.974 52.7976L144.437 64.1224L141.344 68.6304V84.5731Z" fill="#4A4A49"/>
<path d="M163.213 54.8864L162.44 55.3262L160.783 56.2058V64.8918C160.783 66.3212 159.789 67.9704 158.574 68.7401L141.786 78.3057V80.1748V81.0545C141.786 82.4838 142.78 83.0335 143.995 82.3738L163.213 71.4888C164.428 70.8291 165.422 69.0699 165.422 67.6406V56.0958C165.422 54.7764 164.428 54.1167 163.213 54.8864Z" fill="#4A4A49"/>
<path d="M167.078 55.2166V66.7614C167.078 69.1803 165.311 72.1489 163.212 73.3584L143.995 84.3534C141.896 85.5628 140.129 84.5733 140.129 82.1544V81.2748V79.4056V70.6096C140.129 68.1907 141.896 65.2221 143.995 64.0126L160.782 54.447L162.439 53.5674L163.212 53.0176C165.311 51.8082 167.078 52.7978 167.078 55.2166ZM165.421 56.0962C165.421 54.6669 164.427 54.1171 163.212 54.7768L162.439 55.2166L160.782 56.0962L143.995 65.7718C142.78 66.4315 141.786 68.1907 141.786 69.6201V78.3061V80.1753V81.0549C141.786 82.4842 142.78 83.034 143.995 82.3743L163.212 71.4892C164.427 70.8295 165.421 69.0703 165.421 67.641V56.0962Z" fill="#1D1D1B"/>
<path d="M141.454 153.842C142.227 151.533 144.768 148.784 147.86 146.805C148.523 146.365 148.854 145.595 148.965 144.716C149.075 144.386 149.075 144.056 149.186 143.726C149.406 143.067 149.627 142.407 150.069 141.967L157.579 141.527C157.911 142.077 158.242 142.517 158.573 143.067C158.794 143.506 159.126 144.056 159.347 144.606C159.788 145.595 160.23 146.695 160.451 148.014C160.561 148.674 160.672 149.334 160.782 149.993C160.782 150.763 160.341 151.423 159.347 151.973L148.965 157.36C147.087 158.35 144.215 158.24 142.448 157.14C141.675 156.7 141.344 156.041 141.233 155.491V155.051C141.233 154.721 141.344 154.282 141.454 153.842Z" fill="#171753" stroke="#171753" stroke-width="0.25" stroke-miterlimit="10"/>
<path d="M141.013 155.601C141.123 155.821 141.013 155.601 141.013 155.601C141.123 156.151 141.565 156.811 142.228 157.251C143.995 158.35 146.977 158.46 148.854 157.471L159.457 151.973C161.114 151.093 160.893 149.994 160.893 149.994C160.893 149.334 160.672 148.345 160.341 147.795C160.672 148.675 157.027 149.994 155.481 151.313C153.272 153.182 150.842 154.722 148.192 155.821C147.198 156.261 146.204 156.591 145.099 156.591C143.995 156.591 142.89 156.371 142.117 155.601C141.786 155.272 141.234 154.502 141.455 153.732C141.344 154.172 140.902 154.612 141.013 155.601Z" fill="#171753" stroke="#171753" stroke-width="0.25" stroke-miterlimit="10"/>
<path d="M143.221 104.035L152.277 109.532L159.346 105.464L185.19 90.5108C187.289 89.3014 188.614 87.2123 188.724 84.7934L189.719 71.8193C181.214 76.3273 170.943 80.3954 162.217 84.6835C157.689 86.9924 153.492 89.4113 150.289 91.9402C145.761 95.5685 143 99.4168 143.221 104.035Z" fill="#FFC78F" stroke="#171753" stroke-width="0.7" stroke-miterlimit="10"/>
<path d="M143.22 104.034C143.662 101.176 145.981 98.9767 148.853 98.427C151.172 97.9872 153.491 99.1966 155.59 100.516C157.026 101.396 158.351 103.155 159.235 104.694C160.008 106.014 160.449 131.962 160.339 143.616C160.339 144.276 160.008 144.826 159.455 145.376C159.124 145.705 158.793 145.925 158.351 146.145C156.253 147.245 153.16 147.355 150.841 146.475C150.62 146.365 150.399 146.255 150.178 146.145C149.957 146.035 149.736 145.925 149.515 145.815C149.294 145.705 149.184 145.596 149.074 145.486C148.411 144.936 147.969 144.386 147.859 143.726C147.196 141.967 142.668 106.893 143.22 104.034Z" fill="#FFC78F" stroke="#171753" stroke-width="0.7" stroke-miterlimit="10"/>
<path d="M124.557 143.947C125.33 141.638 127.87 138.889 130.963 136.91C131.626 136.47 131.957 135.7 132.067 134.821C132.178 134.491 132.178 134.161 132.288 133.831C132.509 133.172 132.73 132.512 133.172 132.072L140.682 131.632C141.014 132.182 141.345 132.622 141.676 133.172C141.897 133.611 142.228 134.161 142.449 134.711C142.891 135.7 143.333 136.8 143.554 138.119C143.664 138.779 143.775 139.439 143.885 140.098C143.885 140.868 143.443 141.528 142.449 142.078L132.067 147.465C130.19 148.455 127.318 148.345 125.551 147.245C124.778 146.805 124.447 146.146 124.336 145.596V145.156C124.336 144.826 124.336 144.387 124.557 143.947Z" fill="#171753" stroke="#171753" stroke-width="0.25" stroke-miterlimit="10"/>
<path d="M124.116 145.706C124.226 145.926 124.116 145.706 124.116 145.706C124.226 146.256 124.668 146.915 125.33 147.355C127.098 148.455 130.08 148.565 131.957 147.575L142.56 142.078C144.217 141.198 143.996 140.098 143.996 140.098C143.885 139.439 143.775 138.449 143.444 137.899C143.775 138.779 140.13 140.098 138.584 141.418C136.375 143.287 133.945 144.826 131.295 145.926C130.301 146.366 129.307 146.695 128.202 146.695C127.098 146.695 125.993 146.476 125.22 145.706C124.889 145.376 124.336 144.606 124.557 143.837C124.447 144.277 124.005 144.716 124.116 145.706Z" fill="#171753" stroke="#171753" stroke-width="0.25" stroke-miterlimit="10"/>
<path d="M126.103 94.3588L135.16 99.8563L168.846 82.2643C170.944 81.0549 171.607 77.4265 171.717 75.0076L170.834 64.1226C151.837 74.128 124.999 81.1648 126.103 94.3588Z" fill="#030403"/>
<path d="M126.103 94.3591C126.545 91.5004 128.864 89.3014 131.735 88.7517C134.055 88.3119 136.374 89.5213 138.473 90.8407C139.908 91.7203 141.234 93.4795 142.117 95.0188C142.891 96.3382 143.332 122.286 143.222 133.941C143.222 134.931 142.67 135.92 141.344 136.58C138.804 137.899 134.828 137.789 132.509 136.25C131.625 135.7 131.073 135.041 130.852 134.271C130.189 132.512 125.661 97.1079 126.103 94.3591Z" fill="#FFC78F" stroke="#171753" stroke-width="0.7" stroke-miterlimit="10"/>
<path opacity="0.2" d="M150.18 91.9399C153.383 89.3011 157.58 86.9921 162.109 84.6832C159.458 83.4737 158.132 82.1543 157.47 78.416C157.691 80.8349 157.691 82.5941 156.697 84.7931C155.592 87.7618 151.174 89.0812 150.18 91.9399Z" fill="#1D1D1B"/>
<path d="M143.111 49.8292C143.443 42.0227 144.105 39.4939 144.878 31.6874C145.762 22.7815 155.592 18.6034 157.69 27.6193C158.021 33.9964 156.144 43.562 154.708 53.2376C152.941 57.1958 149.296 59.3948 146.425 61.9237L139.025 54.3371C140.461 52.6879 141.786 51.3685 143.111 49.8292Z" fill="#171753" stroke="#171753" stroke-width="0.25" stroke-miterlimit="10"/>
<path d="M153.381 82.9235C160.45 88.531 180.109 90.2902 186.957 81.7141C188.393 79.9549 187.399 78.4156 186.847 74.3474C186.184 70.0594 185.521 66.1012 184.859 62.5828C182.429 48.6191 180.33 39.8231 178.895 35.3152C178.464 33.6027 176.729 32.4589 175.194 31.5857C171.019 29.2103 165.824 27.3044 161.073 25.7655C160.585 25.6073 160.083 25.489 159.576 25.4115C152.575 24.3418 152.039 24.6388 148.411 24.3202C133.17 23.2207 151.173 81.0544 153.381 82.9235Z" fill="#FFEE81" stroke="#171753" stroke-width="0.4" stroke-miterlimit="10"/>
<path d="M173.594 103.154L168.845 100.406V84.023L170.722 81.2742L193.253 68.52L198.224 71.2688L176.797 82.5936L173.705 87.2115L173.594 103.154Z" fill="#FFA6A6" stroke="#171753" stroke-width="0.7" stroke-miterlimit="10"/>
<path d="M195.462 73.358L194.689 73.7978L193.033 74.6774V83.3635C193.033 84.7928 192.039 86.4421 190.824 87.2117L174.036 96.7774V98.6465V99.5261C174.036 100.955 175.03 101.505 176.245 100.846L195.462 89.8505C196.677 89.1908 197.671 87.4316 197.671 86.0023V74.6774C197.671 73.2481 196.677 72.6983 195.462 73.358Z" fill="#FFA6A6" stroke="#171753" stroke-width="0.7" stroke-miterlimit="10"/>
<path d="M199.328 73.6876V85.2324C199.328 87.6513 197.561 90.6199 195.462 91.8294L176.244 102.824C174.146 104.034 172.379 103.044 172.379 100.625V99.7458V97.8766V89.1906C172.379 86.7717 174.146 83.803 176.244 82.5936L193.032 72.918L194.689 72.0384L195.462 71.5986C197.561 70.2792 199.328 71.2687 199.328 73.6876ZM197.671 74.6772C197.671 73.2478 196.677 72.6981 195.462 73.3578L194.689 73.7976L193.032 74.6772L176.244 84.3528C175.03 85.0125 174.036 86.7717 174.036 88.201V96.8871V98.7562V99.6358C174.036 101.065 175.03 101.615 176.244 100.955L195.462 89.9602C196.677 89.3005 197.671 87.5413 197.671 86.112V74.6772Z" fill="#171753" stroke="#171753" stroke-width="0.25" stroke-miterlimit="10"/>
<path d="M134.608 180.119L175.583 156.59C179.007 154.611 181.768 149.993 181.768 145.925V101.615C181.768 98.5363 180.001 96.4473 177.461 96.4473C176.467 96.4473 175.473 96.7771 174.368 97.3269L133.393 120.856C129.969 122.835 127.208 127.453 127.208 131.521V175.831C127.208 178.91 128.975 180.999 131.515 180.999C132.509 180.999 133.503 180.779 134.608 180.119ZM179.228 101.615V145.925C179.228 149.003 177.019 152.852 174.368 154.391L133.393 177.92C132.73 178.25 132.067 178.47 131.515 178.47C129.858 178.47 129.748 176.601 129.748 175.831V131.521C129.748 128.443 131.957 124.594 134.608 123.055L175.583 99.5259C176.246 99.196 176.908 98.9761 177.461 98.9761C179.007 98.9761 179.228 100.845 179.228 101.615Z" fill="#171753" stroke="#171753" stroke-width="0.25" stroke-miterlimit="10"/>
<path d="M65.5782 140.537L106.554 117.008C109.977 115.029 112.739 110.411 112.739 106.343V62.0329C112.739 58.9543 110.972 56.8652 108.431 56.8652C107.437 56.8652 106.443 57.1951 105.339 57.7448L64.3633 81.2741C60.9395 83.2532 58.1783 87.8711 58.1783 91.9393V136.249C58.1783 139.328 59.9455 141.417 62.4857 141.417C63.4797 141.417 64.4738 141.087 65.5782 140.537ZM110.198 62.0329V106.343C110.198 109.421 107.989 113.27 105.339 114.809L64.3633 138.338C63.7006 138.668 63.038 138.888 62.4857 138.888C60.829 138.888 60.7186 137.019 60.7186 136.249V91.9393C60.7186 88.8607 62.9275 85.0124 65.5782 83.4731L106.554 59.9438C107.216 59.614 107.879 59.3941 108.431 59.3941C109.977 59.2841 110.198 61.1533 110.198 62.0329Z" fill="#171753" stroke="#171753" stroke-width="0.25" stroke-miterlimit="10"/>
<path d="M184.529 99.3061L131.184 129.982C130.742 130.202 130.19 130.202 129.748 129.982L57.6267 88.641C57.185 88.4211 56.9641 87.9813 56.9641 87.4315V86.332C56.9641 85.7823 57.2954 85.3425 57.7372 85.1226L110.972 57.0853C111.414 56.8654 111.856 56.8654 112.297 57.0853L184.529 95.7877C184.971 96.0076 185.302 96.4474 185.302 96.9972V98.0967C185.192 98.6464 184.971 99.0862 184.529 99.3061Z" fill="#FFEE81" stroke="#171753" stroke-width="0.7" stroke-miterlimit="10"/>
<path d="M184.639 96.4474L130.631 127.453C130.52 127.563 130.41 127.563 130.189 127.453L57.4051 85.7822C57.1842 85.6723 57.1842 85.2325 57.4051 85.1225L111.413 54.1166C111.524 54.0067 111.634 54.0067 111.855 54.1166L184.639 95.7877C184.86 95.8976 184.86 96.3374 184.639 96.4474Z" fill="#FFC78F" stroke="#171753" stroke-width="0.7" stroke-miterlimit="10"/>
<path d="M104.454 79.8447L106 79.6248V80.2845L125.218 69.2895C125.439 69.1795 125.77 69.1795 125.991 69.2895L157.468 87.2113V86.5516L158.904 86.8815V88.2009C158.904 88.3108 158.904 88.3108 158.794 88.4208L138.251 100.295C138.03 100.405 137.698 100.405 137.478 100.295L104.675 81.384C104.565 81.274 104.565 81.274 104.565 81.1641V79.8447H104.454Z" fill="#FFA54B" stroke="#171753" stroke-width="0.25" stroke-miterlimit="10"/>
<path d="M104.675 79.9549L137.478 98.8663C137.698 98.9762 138.03 98.9762 138.251 98.8663L158.794 86.9917C158.904 86.8817 158.904 86.8817 158.904 86.7718C158.904 86.6618 158.904 86.6618 158.794 86.5519L137.146 74.1275L136.152 73.5778L133.612 72.1484L130.961 70.6091L126.764 68.1902L126.102 67.7504C125.881 67.6405 125.549 67.6405 125.328 67.7504L104.675 79.5151C104.454 79.625 104.454 79.8449 104.675 79.9549Z" fill="#171753" stroke="#171753" stroke-width="0.25" stroke-miterlimit="10"/>
<path opacity="0.5" d="M111.743 82.5934L109.866 81.4939L107.215 79.9546L109.424 78.6352L111.964 77.2058L113.842 76.1063L116.051 74.7869L118.812 73.2476L121.021 71.9282L123.892 73.5775L128.421 76.2163L142.116 84.1327L144.435 85.4521L146.755 86.7715L149.074 88.0909L151.393 89.4103L149.185 90.7297L148.632 91.0595L146.976 92.0491L142.558 94.5779L140.349 95.8973L137.588 97.4366L132.507 94.468L130.188 93.1486L127.868 91.8292L125.549 90.5098L123.23 89.1904L120.91 87.871L118.591 86.5516L116.824 85.562L114.505 84.2426L114.284 84.1327L113.952 84.0227L111.743 82.5934Z" fill="black"/>
<path d="M143.111 80.8343L140.791 82.1537C140.57 82.2636 140.239 82.2636 140.018 82.1537L133.612 78.5253C133.391 78.4154 133.391 78.1955 133.612 78.0855L135.932 76.7661L143.111 80.8343Z" fill="#FFA54B" stroke="#171753" stroke-width="0.25" stroke-miterlimit="10"/>
<path d="M136.152 76.6561L137.035 76.1064C137.256 75.9964 137.587 75.9964 137.808 76.1064L140.901 77.8656L139.575 78.6352L136.152 76.6561Z" fill="white"/>
<path d="M139.797 78.7452L141.123 77.9756L144.215 79.7348C144.436 79.8447 144.436 80.0646 144.215 80.1746L143.332 80.7243L139.797 78.7452Z" fill="white"/>
<path d="M109.976 81.1644L107.988 79.955L109.976 78.8555L111.964 80.0649L109.976 81.1644Z" fill="white"/>
<path d="M112.295 82.4838L110.307 81.2743L112.184 80.1748L114.172 81.3843L112.295 82.4838Z" fill="#FFA54B" stroke="#171753" stroke-width="0.25" stroke-miterlimit="10"/>
<path d="M114.504 81.4946L116.492 82.7041L114.615 83.8036L112.627 82.5941L114.504 81.4946Z" fill="#FFA54B" stroke="#171753" stroke-width="0.25" stroke-miterlimit="10"/>
<path d="M116.823 85.1229L114.834 83.9135L116.823 82.814L118.811 84.0234L116.823 85.1229Z" fill="#FFA54B" stroke="#171753" stroke-width="0.25" stroke-miterlimit="10"/>
<path d="M119.143 86.4423L117.155 85.2328L119.143 84.1333L121.131 85.3427L119.143 86.4423Z" fill="#FFA54B" stroke="#171753" stroke-width="0.25" stroke-miterlimit="10"/>
<path d="M121.461 87.7616L119.473 86.5521L121.351 85.4526L123.339 86.6621L121.461 87.7616Z" fill="#FFA54B" stroke="#171753" stroke-width="0.25" stroke-miterlimit="10"/>
<path d="M123.781 89.0809L121.793 87.8715L123.671 86.772L125.659 87.8715L123.781 89.0809Z" fill="#FFA54B" stroke="#171753" stroke-width="0.25" stroke-miterlimit="10"/>
<path d="M125.989 90.2908L124.001 89.1913L125.989 88.0918L127.977 89.1913L125.989 90.2908Z" fill="#FFA54B" stroke="#171753" stroke-width="0.25" stroke-miterlimit="10"/>
<path d="M128.199 89.4106L130.187 90.5101L128.31 91.6096L126.322 90.5101L128.199 89.4106Z" fill="#FFA54B" stroke="#171753" stroke-width="0.25" stroke-miterlimit="10"/>
<path d="M130.518 90.7305L132.506 91.83L130.628 92.9295L128.64 91.83L130.518 90.7305Z" fill="#FFA54B" stroke="#171753" stroke-width="0.25" stroke-miterlimit="10"/>
<path d="M132.838 92.0498L134.826 93.1493L132.838 94.2488L130.85 93.1493L132.838 92.0498Z" fill="#FFA54B" stroke="#171753" stroke-width="0.25" stroke-miterlimit="10"/>
<path d="M133.169 94.4686L135.157 93.3691L139.354 95.788L137.477 96.8875L133.169 94.4686Z" fill="white"/>
<path d="M112.184 79.845L110.196 78.7455L112.184 77.646L114.172 78.7455L112.184 79.845Z" fill="#FFA54B" stroke="#171753" stroke-width="0.25" stroke-miterlimit="10"/>
<path d="M114.504 81.1648L112.516 80.0653L114.394 78.9658L116.492 80.0653L114.504 81.1648Z" fill="#FFA54B" stroke="#171753" stroke-width="0.25" stroke-miterlimit="10"/>
<path d="M116.713 80.2847L118.701 81.3842L116.823 82.4837L114.835 81.3842L116.713 80.2847Z" fill="#FFA54B" stroke="#171753" stroke-width="0.25" stroke-miterlimit="10"/>
<path d="M119.143 83.8035L117.045 82.704L119.033 81.6045L121.021 82.704L119.143 83.8035Z" fill="#FFA54B" stroke="#171753" stroke-width="0.25" stroke-miterlimit="10"/>
<path d="M121.351 85.1228L119.363 84.0233L121.351 82.9238L123.339 84.0233L121.351 85.1228Z" fill="#FFA54B" stroke="#171753" stroke-width="0.25" stroke-miterlimit="10"/>
<path d="M123.671 86.4422L121.683 85.3427L123.561 84.2432L125.549 85.3427L123.671 86.4422Z" fill="#FFA54B" stroke="#171753" stroke-width="0.25" stroke-miterlimit="10"/>
<path d="M125.99 87.7616L124.002 86.6621L125.879 85.4526L127.867 86.6621L125.99 87.7616Z" fill="#FFA54B" stroke="#171753" stroke-width="0.25" stroke-miterlimit="10"/>
<path d="M128.199 89.0809L126.211 87.8715L128.199 86.772L130.187 87.9814L128.199 89.0809Z" fill="#FFA54B" stroke="#171753" stroke-width="0.25" stroke-miterlimit="10"/>
<path d="M130.408 88.0918L132.396 89.3012L130.518 90.4007L128.53 89.1913L130.408 88.0918Z" fill="#FFA54B" stroke="#171753" stroke-width="0.25" stroke-miterlimit="10"/>
<path d="M132.728 89.4106L134.716 90.6201L132.838 91.7196L130.85 90.5101L132.728 89.4106Z" fill="#FFA54B" stroke="#171753" stroke-width="0.25" stroke-miterlimit="10"/>
<path d="M135.046 90.7305L137.034 91.9399L135.156 93.0394L133.058 91.83L135.046 90.7305Z" fill="#FFA54B" stroke="#171753" stroke-width="0.25" stroke-miterlimit="10"/>
<path d="M137.366 94.3588L135.378 93.1493L137.366 92.0498L139.354 93.2593L137.366 94.3588Z" fill="#FFA54B" stroke="#171753" stroke-width="0.25" stroke-miterlimit="10"/>
<path d="M139.574 93.3691L141.562 94.5786L139.685 95.6781L137.697 94.4686L139.574 93.3691Z" fill="#FFA54B" stroke="#171753" stroke-width="0.25" stroke-miterlimit="10"/>
<path d="M114.392 78.6356L112.404 77.4262L114.392 76.3267L116.38 77.5361L114.392 78.6356Z" fill="#FFA54B" stroke="#171753" stroke-width="0.25" stroke-miterlimit="10"/>
<path d="M116.713 79.9549L114.725 78.7455L116.713 77.646L118.701 78.8554L116.713 79.9549Z" fill="#FFA54B" stroke="#171753" stroke-width="0.25" stroke-miterlimit="10"/>
<path d="M118.921 78.9658L120.909 80.0653L119.031 81.2748L117.043 80.0653L118.921 78.9658Z" fill="#FFA54B" stroke="#171753" stroke-width="0.25" stroke-miterlimit="10"/>
<path d="M121.351 82.4837L119.363 81.3842L121.241 80.2847L123.229 81.3842L121.351 82.4837Z" fill="#FFA54B" stroke="#171753" stroke-width="0.25" stroke-miterlimit="10"/>
<path d="M123.561 83.8035L121.573 82.704L123.561 81.6045L125.549 82.704L123.561 83.8035Z" fill="#FFA54B" stroke="#171753" stroke-width="0.25" stroke-miterlimit="10"/>
<path d="M125.88 85.1228L123.892 84.0233L125.769 82.9238L127.757 84.0233L125.88 85.1228Z" fill="#FFA54B" stroke="#171753" stroke-width="0.25" stroke-miterlimit="10"/>
<path d="M128.2 86.4422L126.212 85.3427L128.089 84.2432L130.077 85.3427L128.2 86.4422Z" fill="#FFA54B" stroke="#171753" stroke-width="0.25" stroke-miterlimit="10"/>
<path d="M130.408 87.762L128.42 86.6625L130.408 85.563L132.396 86.6625L130.408 87.762Z" fill="#FFA54B" stroke="#171753" stroke-width="0.25" stroke-miterlimit="10"/>
<path d="M132.617 86.8818L134.716 87.9813L132.728 89.0808L130.74 87.9813L132.617 86.8818Z" fill="#FFA54B" stroke="#171753" stroke-width="0.25" stroke-miterlimit="10"/>
<path d="M134.936 88.2017L136.924 89.3012L135.046 90.4007L133.058 89.3012L134.936 88.2017Z" fill="#FFA54B" stroke="#171753" stroke-width="0.25" stroke-miterlimit="10"/>
<path d="M137.256 89.521L139.244 90.6205L137.366 91.72L135.268 90.6205L137.256 89.521Z" fill="#FFA54B" stroke="#171753" stroke-width="0.25" stroke-miterlimit="10"/>
<path d="M139.574 93.0393L137.586 91.9398L139.574 90.8403L141.562 91.9398L139.574 93.0393Z" fill="#FFA54B" stroke="#171753" stroke-width="0.25" stroke-miterlimit="10"/>
<path d="M142.115 91.9399L139.796 90.6205L141.673 89.521C143.772 90.7304 145.981 91.9399 145.981 91.9399C145.981 91.9399 145.76 92.0498 141.894 94.3588L139.906 93.2593L142.115 91.9399Z" fill="white"/>
<path d="M120.909 77.5361L118.921 78.6356L114.613 76.2167L116.601 75.1172L120.909 77.5361Z" fill="#FFA54B" stroke="#171753" stroke-width="0.25" stroke-miterlimit="10"/>
<path d="M121.131 77.646L123.119 78.8554L121.241 79.9549L119.253 78.8554L121.131 77.646Z" fill="#FFA54B" stroke="#171753" stroke-width="0.25" stroke-miterlimit="10"/>
<path d="M123.56 81.2748L121.572 80.0653L123.449 78.9658L125.437 80.1753L123.56 81.2748Z" fill="#FFA54B" stroke="#171753" stroke-width="0.25" stroke-miterlimit="10"/>
<path d="M125.769 82.5936L123.781 81.3842L125.769 80.2847L127.757 81.4941L125.769 82.5936Z" fill="#FFA54B" stroke="#171753" stroke-width="0.25" stroke-miterlimit="10"/>
<path d="M128.088 83.9134L126.1 82.704L127.977 81.6045L129.965 82.8139L128.088 83.9134Z" fill="#FFA54B" stroke="#171753" stroke-width="0.25" stroke-miterlimit="10"/>
<path d="M130.408 85.2328L128.42 84.0233L130.297 82.9238L132.286 84.1333L130.408 85.2328Z" fill="#FFA54B" stroke="#171753" stroke-width="0.25" stroke-miterlimit="10"/>
<path d="M132.618 86.5521L130.63 85.3427L132.618 84.2432L134.606 85.4526L132.618 86.5521Z" fill="#FFA54B" stroke="#171753" stroke-width="0.25" stroke-miterlimit="10"/>
<path d="M134.936 85.563L136.924 86.7724L134.936 87.8719L132.948 86.6625L134.936 85.563Z" fill="#FFA54B" stroke="#171753" stroke-width="0.25" stroke-miterlimit="10"/>
<path d="M137.144 86.8818L139.132 88.0913L137.255 89.1908L135.267 87.9813L137.144 86.8818Z" fill="#FFA54B" stroke="#171753" stroke-width="0.25" stroke-miterlimit="10"/>
<path d="M139.464 88.2017L141.452 89.4111L139.575 90.5106L137.587 89.3012L139.464 88.2017Z" fill="#FFA54B" stroke="#171753" stroke-width="0.25" stroke-miterlimit="10"/>
<path d="M121.904 75.557L123.119 76.2167L121.131 77.3162L116.823 74.8974L118.811 73.7979L121.131 75.1172L121.904 75.557Z" fill="white"/>
<path d="M123.339 76.437L125.327 77.5365L123.449 78.636L121.461 77.5365L123.339 76.437Z" fill="#FFA54B" stroke="#171753" stroke-width="0.25" stroke-miterlimit="10"/>
<path d="M125.77 79.9549L123.781 78.8554L125.659 77.7559L127.647 78.8554L125.77 79.9549Z" fill="#FFA54B" stroke="#171753" stroke-width="0.25" stroke-miterlimit="10"/>
<path d="M127.977 81.2747L125.989 80.1752L127.977 79.0757L129.965 80.1752L127.977 81.2747Z" fill="#FFA54B" stroke="#171753" stroke-width="0.25" stroke-miterlimit="10"/>
<path d="M130.297 82.594L128.309 81.4945L130.187 80.395L132.286 81.4945L130.297 82.594Z" fill="#FFA54B" stroke="#171753" stroke-width="0.25" stroke-miterlimit="10"/>
<path d="M132.616 83.9134L130.628 82.8139L132.506 81.7144L134.494 82.8139L132.616 83.9134Z" fill="#FFA54B" stroke="#171753" stroke-width="0.25" stroke-miterlimit="10"/>
<path d="M134.936 85.2332L132.838 84.1337L134.826 83.0342L136.814 84.1337L134.936 85.2332Z" fill="#FFA54B" stroke="#171753" stroke-width="0.25" stroke-miterlimit="10"/>
<path d="M137.144 84.353L139.132 85.4525L137.144 86.552L135.156 85.4525L137.144 84.353Z" fill="#FFA54B" stroke="#171753" stroke-width="0.25" stroke-miterlimit="10"/>
<path d="M139.354 85.6724L141.342 86.7719L139.465 87.8714L137.477 86.7719L139.354 85.6724Z" fill="#FFA54B" stroke="#171753" stroke-width="0.25" stroke-miterlimit="10"/>
<path d="M141.674 86.9917L143.662 88.0912L141.785 89.1907L139.797 88.0912L141.674 86.9917Z" fill="#FFA54B" stroke="#171753" stroke-width="0.25" stroke-miterlimit="10"/>
<path d="M142.004 89.4105L143.992 88.311L148.189 90.7299L146.311 91.8294L142.004 89.4105Z" fill="white"/>
<path d="M121.021 72.4785L123.009 73.688L121.131 74.7875L119.143 73.578L121.021 72.4785Z" fill="#FFA54B" stroke="#171753" stroke-width="0.25" stroke-miterlimit="10"/>
<path d="M123.672 76.2168L121.352 74.8974L123.34 73.7979L125.549 75.1172L126.322 75.5571L127.537 76.3267L125.66 77.4262L124.445 76.6566L123.672 76.2168Z" fill="#FFA54B" stroke="#171753" stroke-width="0.25" stroke-miterlimit="10"/>
<path d="M127.868 76.437C130.739 78.0863 135.047 80.5052 141.342 84.1335L139.465 85.233C133.169 81.6047 128.862 79.1858 125.99 77.5365L127.868 76.437Z" fill="white"/>
<path d="M141.563 84.353L143.551 85.4525L141.673 86.662L139.685 85.4525L141.563 84.353Z" fill="#FFA54B" stroke="#171753" stroke-width="0.25" stroke-miterlimit="10"/>
<path d="M143.883 85.6724L145.871 86.7719L143.993 87.8714L142.005 86.7719L143.883 85.6724Z" fill="#FFA54B" stroke="#171753" stroke-width="0.25" stroke-miterlimit="10"/>
<path d="M146.201 86.9917L148.189 88.0912L146.201 89.1907L144.213 88.0912L146.201 86.9917Z" fill="#FFA54B" stroke="#171753" stroke-width="0.25" stroke-miterlimit="10"/>
<path d="M148.411 88.311L150.509 89.4105L148.521 90.51L146.533 89.4105L148.411 88.311Z" fill="#FFA54B" stroke="#171753" stroke-width="0.25" stroke-miterlimit="10"/>
<path d="M105.934 79.557L105.612 79.6638C105.184 79.7705 104.755 79.557 104.541 79.13L97.0387 58.2084C96.9315 57.7814 97.1459 57.3544 97.5746 57.1409L97.8961 57.0342L105.934 79.557Z" fill="#171753" stroke="#171753" stroke-width="0.25" stroke-miterlimit="10"/>
<path d="M138.515 98.3436L138.193 98.4504C137.764 98.5571 137.336 98.3436 137.121 97.9167L129.619 76.995C129.512 76.568 129.727 76.141 130.155 75.9276L130.477 75.8208L138.515 98.3436Z" fill="#FFA54B" stroke="#171753" stroke-width="0.25" stroke-miterlimit="10"/>
<g style="mix-blend-mode:multiply" opacity="0.5">
<path d="M123.01 75.2275C123.562 72.9185 125.661 71.2693 127.317 69.62C128.532 68.4106 129.747 66.9812 131.514 66.5414C132.508 66.2116 133.723 66.4315 134.717 65.9917C135.601 65.6618 136.374 65.1121 137.147 64.6723C137.92 64.3424 138.804 64.1225 139.687 63.7927C141.675 62.9131 143.001 61.1539 144.547 59.6146C144.768 59.3947 145.099 59.1748 145.431 59.1748C145.983 57.8554 146.314 56.536 146.425 55.1066L147.308 34.436C147.308 34.436 147.639 61.7036 146.425 61.8136C146.093 64.1225 145.21 65.6618 143.553 66.6514C142.228 67.421 139.135 69.5101 138.362 69.8399C137.589 70.1698 136.816 70.4996 136.374 71.1593C135.822 71.929 135.822 72.8086 135.49 73.6882C135.049 74.6777 134.275 75.5573 133.613 76.327C133.281 76.6568 132.95 77.0966 132.398 77.2066C131.956 77.4265 131.293 77.3165 131.073 76.8767C130.631 76.327 131.073 75.5573 130.962 74.8976C130.41 74.6777 129.747 74.8976 129.305 75.3374C128.864 75.7772 128.643 76.327 128.422 76.8767C128.091 77.4265 127.759 77.8663 127.207 78.0862C126.655 78.3061 125.882 77.9762 125.771 77.4265C125.661 76.7668 126.434 76.217 126.434 75.4474C125.882 75.4474 125.44 75.8872 124.998 76.327C124.556 76.7668 123.894 76.9867 123.452 76.6568C122.9 76.4369 122.9 75.7772 123.01 75.2275Z" fill="#171753"/>
</g>
<path d="M133.281 61.5937C135.711 58.2952 137.478 56.0962 139.024 54.2271L143 49.8291L146.314 61.8136C144.105 63.6828 143.111 65.8818 139.245 68.4106C135.601 69.2902 131.183 65.5519 133.281 61.5937Z" fill="#FFE850" stroke="#171753" stroke-width="0.4" stroke-miterlimit="10"/>
<path d="M138.14 65.992C138.14 66.2119 137.919 66.5417 137.698 66.7616L136.152 68.081L135.71 68.4109L132.286 71.3795L126.322 66.4318L131.734 64.0129L134.053 62.5835C135.268 62.1437 138.471 64.1228 138.14 65.992Z" fill="#171753"/>
<path d="M128.753 67.4213L124.335 69.9501L123.562 72.8088C123.451 73.1387 123.23 73.4685 123.009 73.6884C122.899 73.7984 122.678 73.9083 122.457 73.9083C122.126 73.9083 121.905 73.7984 121.794 73.4685C121.794 73.3586 121.794 73.2486 121.794 73.1387C121.794 73.0287 121.794 73.0287 121.794 72.9188L122.788 68.8506C122.788 68.8506 126.323 66.4317 126.654 66.3218C126.875 66.2118 127.869 66.8715 128.532 67.2014C128.642 67.4213 128.642 67.4213 128.753 67.4213Z" fill="#171753"/>
<path opacity="0.9" d="M127.538 67.5312L124.115 69.7302L123.341 72.5889C123.231 72.9188 123.12 73.2486 122.9 73.6884C122.789 73.7984 122.568 73.9083 122.347 73.9083C122.016 73.9083 121.795 73.7984 121.685 73.4685C121.685 73.3586 121.685 73.2486 121.685 73.1387C122.237 72.5889 122.9 70.9397 123.231 69.5103L127.538 67.5312Z" fill="#9BE7C4"/>
<path d="M130.189 68.5207L128.642 69.5103L125.108 71.8192L123.783 74.6779C123.451 75.2277 123.01 75.5575 122.457 75.5575C122.236 75.4476 122.126 75.4476 122.016 75.2277C121.905 75.0078 121.905 74.7879 122.016 74.3481L123.783 70.17C123.783 70.17 128.201 67.2013 128.532 67.2013C128.753 67.0914 130.189 68.5207 130.189 68.5207Z" fill="#171753"/>
<path opacity="0.9" d="M129.526 68.5205L128.643 69.5101L125.109 71.819L123.783 74.6777C123.452 75.2275 123.01 75.5573 122.458 75.5573C122.237 75.4474 122.127 75.4474 122.016 75.2275C122.9 75.2275 124.336 73.1384 124.777 71.3792L129.526 68.5205Z" fill="#9BE7C4"/>
<path d="M131.845 69.5103L129.415 71.2695L126.102 73.5785L124.224 76.1073C123.782 76.5471 123.34 76.767 122.678 76.767C122.678 76.767 122.567 76.767 122.567 76.6571C122.457 76.6571 122.457 76.5471 122.346 76.4372C122.236 76.2173 122.236 75.8874 122.457 75.4476L124.997 71.7093C124.997 71.7093 129.525 68.1909 129.967 68.1909C130.298 68.3009 131.845 69.5103 131.845 69.5103Z" fill="#171753"/>
<path opacity="0.9" d="M130.741 69.73L129.415 71.1593L126.102 73.4683L124.224 75.9971C123.783 76.4369 123.341 76.6568 122.678 76.6568C122.678 76.6568 122.568 76.6568 122.568 76.5469L122.347 76.327C123.12 76.6568 125.439 74.5678 125.881 72.8086L130.741 69.73Z" fill="#9BE7C4"/>
<path d="M133.171 70.9393L128.753 74.3477L127.096 77.0965C126.765 77.6462 126.323 77.8661 125.66 77.8661C125.44 77.7562 125.329 77.7562 125.219 77.5363C125.108 77.3164 125.108 77.0965 125.219 76.6567L127.428 72.8084C127.428 72.8084 131.183 69.29 131.514 69.29C131.735 69.29 132.398 70.0597 132.839 70.6094C133.06 70.8293 133.171 70.9393 133.171 70.9393Z" fill="#171753"/>
<path opacity="0.9" d="M133.171 70.9394L128.753 74.3479L127.096 77.0966C126.765 77.6464 126.323 77.8662 125.66 77.8662C125.44 77.7563 125.329 77.7563 125.219 77.5364C126.102 77.6464 127.869 75.5573 128.311 73.7981L132.839 70.3896C133.06 70.8294 133.171 70.9394 133.171 70.9394Z" fill="#9BE7C4"/>
<path d="M136.263 67.421C136.263 67.6409 136.263 67.8608 136.153 68.0807C136.042 69.2901 136.042 70.4996 135.49 71.5991C135.048 72.4787 134.385 73.1384 133.723 73.7981C133.06 74.5677 132.508 75.3374 132.177 76.3269C132.066 76.6568 131.845 77.0966 131.514 77.2065C131.293 77.3165 131.183 77.3165 130.962 77.2065C130.741 77.0966 130.52 76.9866 130.409 76.6568C130.189 76.217 130.189 75.7772 130.299 75.3374C130.741 73.908 131.956 72.8085 132.287 71.2692C132.287 71.1593 132.397 71.0493 132.397 70.9394C132.508 70.4996 132.397 69.9498 132.618 69.51C132.839 68.7404 133.391 68.1906 134.054 67.8608C134.606 67.6409 135.159 67.421 135.711 67.311C135.932 67.421 136.153 67.421 136.263 67.421Z" fill="#171753"/>
<path opacity="0.9" d="M138.141 65.9917C138.141 66.2116 137.92 66.5414 137.699 66.7613L136.153 68.0807C136.043 69.2902 136.043 70.4996 135.49 71.5991C135.049 72.4787 134.386 73.1384 133.723 73.7981C133.061 74.5678 132.508 75.3374 132.177 76.327C132.067 76.6568 131.846 77.0966 131.514 77.2066C131.293 77.3165 131.183 77.3165 130.962 77.2066C131.183 76.9867 131.404 76.7668 131.514 76.5469C131.846 75.9971 132.067 75.4474 132.398 74.8976C132.95 74.018 133.723 73.2484 134.386 72.4787C135.27 71.3792 135.711 69.9499 135.711 68.4106C135.711 68.0807 135.711 67.7509 135.711 67.421C135.711 67.2011 135.601 66.8713 135.601 66.6514C135.822 66.7614 136.705 66.8713 136.816 66.8713C137.258 66.5414 137.699 66.2116 138.141 65.9917Z" fill="#9BE7C4"/>
<g style="mix-blend-mode:multiply" opacity="0.5">
<path d="M154.045 76.9867C154.819 75.9972 155.813 75.1176 156.586 74.3479C158.132 72.8086 159.678 71.2693 161.335 69.84C162.771 68.5206 164.317 67.3111 165.863 65.9917C166.305 65.6619 170.06 63.0231 169.95 62.6932C168.403 57.3057 167.851 49.939 167.741 41.9127C167.741 33.4465 176.797 31.5774 178.896 40.5933C180.552 46.7505 181.326 56.3161 182.54 66.5415C182.651 67.0912 181.657 68.3007 181.326 68.7405C180.884 69.5101 180.332 70.1698 179.779 70.9395C178.564 72.3688 177.129 73.6882 175.693 74.8977C172.159 77.7564 168.182 79.8454 164.096 81.7146C163.212 82.1544 161.997 82.3743 161.224 83.034C160.451 83.5837 160.009 84.2434 159.126 84.4633C158.574 84.6832 157.911 84.6832 157.248 84.6832C156.144 84.6832 154.929 84.9031 153.824 85.233C152.72 85.6728 151.726 86.3325 151.174 87.322C150.842 87.8717 150.622 88.4215 150.29 88.9712C149.959 89.521 149.407 89.9608 148.744 89.8509C148.634 89.8509 148.634 89.8509 148.523 89.8509C148.413 89.7409 148.413 89.7409 148.302 89.631C147.971 88.7514 148.192 87.7618 148.744 86.8822C149.186 86.1126 149.959 85.3429 150.511 84.6832C151.284 83.6937 151.836 82.5942 152.278 81.3847C152.61 80.3952 152.83 79.4056 153.162 78.526C153.383 77.9762 153.714 77.4265 154.045 76.9867Z" fill="#171753"/>
</g>
<path d="M155.37 74.1277C160.892 67.9705 166.746 63.4626 171.164 59.9442C169.618 54.5566 169.065 47.19 168.955 39.1636C168.955 30.6975 178.011 28.8283 180.11 37.8442C181.767 43.6716 182.54 52.6875 183.644 62.3631C183.755 63.3526 183.534 64.3422 183.092 65.1118C179.558 71.269 172.047 76.2168 162.107 80.175C158.352 81.1645 154.155 78.0859 155.37 74.1277Z" fill="#FFE850" stroke="#171753" stroke-width="0.4" stroke-miterlimit="10"/>
<path d="M140.681 86.0028C141.123 86.3326 141.896 86.4426 142.448 85.7829L144.326 83.254L147.86 80.2854L148.081 80.1754L146.093 78.7461L143.001 81.2749L140.571 85.453C140.46 85.6729 140.571 85.8928 140.681 86.0028Z" fill="#171753"/>
<path opacity="0.7" d="M140.68 86.0026C141.122 86.3325 141.895 86.4424 142.447 85.7827L144.325 83.2539L147.859 80.2852L147.638 80.1753L144.104 82.1544C143.11 84.0235 142.116 86.0026 140.68 86.0026Z" fill="#9BE7C4"/>
<path d="M142.226 87.652C142.668 87.9818 143.441 87.9818 143.883 87.4321L145.76 84.9032L149.515 81.7147L147.859 80.0654L144.435 82.8142L142.005 86.9923C141.895 87.2122 142.005 87.4321 142.226 87.652Z" fill="#171753"/>
<path d="M143.552 76.8768C143.662 77.3166 144.104 77.6465 144.656 77.8664C146.092 78.4161 147.528 78.746 149.074 78.746L149.958 78.9659L152.498 79.6256L153.492 76.8768L153.713 76.3271L153.934 75.7773L151.393 75.9972C148.743 76.3271 146.755 76.437 144.435 75.7773C143.552 75.7773 143.331 76.3271 143.552 76.8768Z" fill="#171753"/>
<path opacity="0.7" d="M143.552 76.8769C143.662 77.3167 144.104 77.6465 144.656 77.8664C146.092 78.4162 147.528 78.746 149.074 78.746L149.958 78.9659L153.492 76.8769L154.376 76.3271C154.155 76.3271 153.934 76.3271 153.713 76.3271C149.737 76.547 146.313 78.0863 143.552 76.8769Z" fill="#9BE7C4"/>
<path d="M146.092 78.7461L150.731 83.1441L152.167 84.4635L152.498 84.7933C155.37 84.7933 157.248 83.0341 158.573 80.7252L161.334 78.7461C161.444 78.0864 161.224 77.3167 160.782 76.5471C159.788 74.8978 157.8 73.6884 156.695 74.1282C155.26 75.3376 153.492 75.9973 151.504 76.3272C149.185 77.0968 147.087 77.8665 146.092 78.7461Z" fill="#171753"/>
<path opacity="0.7" d="M142.226 87.6519C142.668 87.9817 143.441 87.9818 143.883 87.432L145.76 84.9032L149.515 81.7146L149.184 81.3848L145.65 83.9136C144.766 85.7828 143.662 87.5419 142.226 87.6519C142.226 87.5419 142.226 87.5419 142.226 87.6519Z" fill="#9BE7C4"/>
<path d="M144.325 88.7516C144.325 88.9715 144.436 89.1914 144.657 89.3013C145.098 89.6312 145.872 89.5212 146.313 88.9715L147.86 86.2227L150.952 83.0342L151.283 82.7043L149.406 81.165L146.313 84.3536L144.325 88.7516Z" fill="#171753"/>
<path opacity="0.7" d="M144.546 89.3009C144.988 89.6308 145.761 89.5208 146.203 88.9711L147.749 86.2223L150.841 83.0338L150.731 82.9238L147.528 85.5626C146.644 87.4318 145.982 89.3009 144.546 89.3009Z" fill="#9BE7C4"/>
<path d="M147.198 88.9714C147.198 89.1913 147.308 89.4112 147.419 89.5211C147.86 89.851 148.633 89.741 148.965 89.1913L150.621 86.6624L152.389 84.6833L153.383 83.8037L153.604 83.4739L151.615 81.9346L150.621 83.144L149.186 84.9032L147.198 88.9714Z" fill="#171753"/>
<path opacity="0.7" d="M147.528 89.5215C147.97 89.8514 148.743 89.7414 149.075 89.1917L150.731 86.6628L152.498 84.6837C155.37 84.6837 157.248 82.9245 158.573 80.6156L161.334 78.6365C161.444 77.9768 161.224 77.2071 160.782 76.4375C160.782 78.3066 159.788 79.2962 158.462 79.626C156.916 81.825 155.26 83.3643 153.492 83.5842C153.271 83.5842 153.051 83.5842 152.83 83.5842L152.167 84.2439L150.289 86.223C149.295 88.3121 148.854 89.5215 147.528 89.5215Z" fill="#9BE7C4"/>
<path d="M151.081 28.3663L151.082 28.3875L151.081 28.4087C151.005 29.7161 151.513 30.5149 152.303 30.9798C153.124 31.4625 154.294 31.6098 155.554 31.4763C156.807 31.3436 158.101 30.9379 159.136 30.37C160.17 29.8028 160.879 29.1114 161.099 28.4297C161.258 26.6657 161.177 25.4345 161.028 24.1404C160.992 23.8259 160.951 23.5061 160.909 23.1732C160.786 22.2029 160.649 21.121 160.563 19.7329L150.551 20.0411L151.081 28.3663Z" fill="#171753" stroke="#171753" stroke-width="0.7"/>
<path opacity="0.1" d="M159.126 22.3413C156.807 24.4304 156.365 28.9383 153.162 29.708C150.843 30.2577 150.622 27.0692 150.622 27.0692C148.524 24.5403 149.739 22.1214 150.291 20.4722L159.126 22.3413Z" fill="#1D1D1B"/>
<path d="M156.033 24.4302C154.376 25.7496 152.609 26.6292 150.51 27.1789C144.325 28.6083 143.221 26.4093 141.675 22.561C138.803 15.3043 140.57 10.7964 142.337 8.59736C144.988 5.51876 149.958 4.96901 155.149 4.63916L159.015 21.9013L156.033 24.4302Z" fill="#171753" stroke="#9BE7C4" stroke-width="0.7"/>
<path d="M152.389 16.2942C153.162 16.4041 153.935 16.4041 154.597 16.9539C155.481 17.6136 158.021 19.9225 158.905 20.4722C159.457 20.8021 159.678 21.4618 159.899 22.1215C160.12 22.6712 160.562 23.331 161.224 23.4409C161.776 23.5508 162.218 23.221 162.55 22.8912C162.66 22.6713 162.77 22.4514 162.881 22.2315C163.764 20.1424 164.096 17.9434 163.875 15.7444C163.544 11.6763 162.329 7.6081 159.788 4.3096C156.696 0.241456 152.941 0.241456 149.075 1.01111C146.093 1.56086 143.884 3.10016 142.338 4.63945C141.233 5.8489 140.35 7.27825 139.908 8.81755C139.466 10.5768 140.35 12.5559 142.227 13.1056C143.553 13.5454 145.099 13.5454 146.424 13.1056C147.198 12.8857 147.971 12.4459 148.744 12.226C149.517 12.0061 150.511 12.226 150.953 12.8857C151.284 13.3255 151.395 13.8753 151.505 14.425C151.615 14.9748 151.947 16.1842 152.389 16.2942Z" fill="#FFC78F" stroke="#171753" stroke-width="0.7" stroke-miterlimit="10"/>
<path d="M155.87 14.2208L155.87 14.2209L155.862 14.2221C155.588 14.261 155.301 14.4442 155.059 14.7324C154.82 15.0187 154.658 15.3719 154.613 15.6845L154.61 15.7082L154.603 15.7313C154.414 16.3903 154.599 17.1742 154.824 17.9571L154.824 17.9571L154.827 17.9684C154.838 18.0116 154.848 18.0548 154.859 18.098C154.964 18.5218 155.066 18.9366 155.319 19.2724L155.338 19.2977L155.352 19.3259C155.428 19.4764 155.57 19.6244 155.749 19.7356C155.929 19.8475 156.114 19.9027 156.255 19.9027C156.561 19.9027 156.791 19.7572 156.958 19.5082C157.164 19.2006 157.37 18.7887 157.469 18.4923C157.694 17.8208 157.893 17.2167 157.893 16.6243C157.893 15.9867 157.782 15.3185 157.418 14.8645C157.045 14.401 156.393 14.134 155.87 14.2208Z" fill="#171753" stroke="#171753" stroke-width="0.7"/>
<path d="M104.863 79.5572L137.336 98.344H138.515L130.369 75.9279L97.8965 57.1411L104.863 79.5572Z" fill="#171753" stroke="#171753" stroke-width="0.25" stroke-miterlimit="10"/>
<path d="M113.009 76.7823C113.223 77.8497 114.295 79.0239 115.26 79.5576C116.224 80.0913 116.867 79.6643 116.546 78.5969C116.331 77.5295 115.26 76.3553 114.295 75.8216C113.33 75.2879 112.687 75.7148 113.009 76.7823Z" fill="#FFA54B" stroke="#171753" stroke-width="0.25" stroke-miterlimit="10"/>
<path opacity="0.4" d="M297.145 121.671L312.32 112.917L297.145 104.164L281.979 112.917L297.145 121.671Z" fill="#EBA3A3"/>
<path d="M297.145 108.41L312.32 99.6561V82.1484L297.145 90.9023V108.41Z" fill="#FFA6A6" stroke="#171753" stroke-width="0.7" stroke-miterlimit="10" stroke-linejoin="round"/>
<path d="M281.969 99.6561L297.145 108.41V90.9023L281.969 82.1484V99.6561Z" fill="#171753" stroke="#171753" stroke-width="0.7" stroke-miterlimit="10" stroke-linejoin="round"/>
<path d="M297.145 90.9022L312.32 82.1484L297.145 73.3945L281.979 82.1484L297.145 90.9022Z" fill="#FFCBCB" stroke="#171753" stroke-width="0.7" stroke-miterlimit="10" stroke-linejoin="round"/>
<path opacity="0.4" d="M263.896 142.851L279.072 134.098L263.896 125.344L248.731 134.098L263.896 142.851Z" fill="#EBA3A3"/>
<path d="M263.896 129.59L279.072 120.836V103.329L263.896 112.082V129.59Z" fill="#FFA6A6" stroke="#171753" stroke-width="0.7" stroke-miterlimit="10" stroke-linejoin="round"/>
<path d="M248.721 120.836L263.896 129.59V112.082L248.721 103.329V120.836Z" fill="#171753" stroke="#171753" stroke-width="0.7" stroke-miterlimit="10" stroke-linejoin="round"/>
<path d="M263.896 112.082L279.072 103.329L263.896 94.5747L248.731 103.329L263.896 112.082Z" fill="#FFCBCB" stroke="#171753" stroke-width="0.7" stroke-miterlimit="10" stroke-linejoin="round"/>
<g style="mix-blend-mode:multiply" opacity="0.4">
<path d="M263.908 109.056L273.288 103.646L263.908 98.2349L254.534 103.646L263.908 109.056Z" fill="#FFA6A6"/>
</g>
<path d="M263.906 99.138L279.082 90.3841V72.8765L263.906 81.6303V99.138Z" fill="#FFA6A6" stroke="#171753" stroke-width="0.7" stroke-miterlimit="10" stroke-linejoin="round"/>
<path d="M248.731 90.3841L263.906 99.138V81.6303L248.731 72.8765V90.3841Z" fill="#171753" stroke="#171753" stroke-width="0.7" stroke-miterlimit="10" stroke-linejoin="round"/>
<path d="M263.906 81.6302L279.082 72.8764L263.906 64.1226L248.741 72.8764L263.906 81.6302Z" fill="#FFCBCB" stroke="#171753" stroke-width="0.7" stroke-miterlimit="10" stroke-linejoin="round"/>
<path opacity="0.4" d="M122.781 514.577L107.605 505.824L122.781 497.07L137.946 505.824L122.781 514.577Z" fill="#EBA3A3"/>
<path d="M122.781 501.316L107.605 492.562V475.055L122.781 483.809V501.316Z" fill="#FFA6A6" stroke="#171753" stroke-width="0.7" stroke-miterlimit="10" stroke-linejoin="round"/>
<path d="M137.956 492.562L122.781 501.316V483.809L137.956 475.055V492.562Z" fill="#171753" stroke="#171753" stroke-width="0.7" stroke-miterlimit="10" stroke-linejoin="round"/>
<path d="M122.781 483.808L107.605 475.055L122.781 466.301L137.946 475.055L122.781 483.808Z" fill="#FFCBCB" stroke="#171753" stroke-width="0.7" stroke-miterlimit="10" stroke-linejoin="round"/>
<path opacity="0.4" d="M156.029 535.758L140.853 527.004L156.029 518.25L171.194 527.004L156.029 535.758Z" fill="#EBA3A3"/>
<path d="M156.029 522.496L140.853 513.743V496.235L156.029 504.989V522.496Z" fill="#FFA6A6" stroke="#171753" stroke-width="0.7" stroke-miterlimit="10" stroke-linejoin="round"/>
<path d="M171.204 513.743L156.029 522.496V504.989L171.204 496.235V513.743Z" fill="#171753" stroke="#171753" stroke-width="0.7" stroke-miterlimit="10" stroke-linejoin="round"/>
<path d="M156.029 504.989L140.853 496.235L156.029 487.481L171.194 496.235L156.029 504.989Z" fill="#FFCBCB" stroke="#171753" stroke-width="0.7" stroke-miterlimit="10" stroke-linejoin="round"/>
<g style="mix-blend-mode:multiply" opacity="0.4">
<path d="M156.018 501.963L146.638 496.552L156.018 491.141L165.391 496.552L156.018 501.963Z" fill="#FFA6A6"/>
</g>
<path d="M156.019 492.044L140.844 483.29V465.783L156.019 474.537V492.044Z" fill="#FFA6A6" stroke="#171753" stroke-width="0.7" stroke-miterlimit="10" stroke-linejoin="round"/>
<path d="M171.195 483.29L156.019 492.044V474.537L171.195 465.783V483.29Z" fill="#171753" stroke="#171753" stroke-width="0.7" stroke-miterlimit="10" stroke-linejoin="round"/>
<path d="M156.019 474.536L140.843 465.783L156.019 457.029L171.184 465.783L156.019 474.536Z" fill="#FFCBCB" stroke="#171753" stroke-width="0.7" stroke-miterlimit="10" stroke-linejoin="round"/>
</svg>
