<svg width="460" height="266" viewBox="0 0 460 266" fill="none" xmlns="http://www.w3.org/2000/svg">
<g opacity="0.7">
<path opacity="0.5" d="M159.218 201.421C159.139 201.421 159.074 201.395 159.008 201.355L132.723 184.442L111.632 196.77L111.238 196.089L132.539 183.643C132.67 183.564 132.828 183.577 132.946 183.656L159.244 200.569L183.483 186.669L183.876 187.35L159.441 201.369C159.362 201.395 159.296 201.421 159.218 201.421Z" fill="#237B75" stroke="#373765"/>
</g>
<g opacity="0.7">
<path opacity="0.5" d="M212.113 203.838L168.192 229.572L168.59 230.25L212.511 204.516L212.113 203.838Z" fill="#237B75" stroke="#373765"/>
</g>
<g opacity="0.7">
<path opacity="0.5" d="M276.385 229.758L258.967 219.605C258.849 219.539 258.77 219.408 258.77 219.264C258.77 219.12 258.849 218.989 258.967 218.924L269.263 213.094L245.536 199.311L245.929 198.63L270.247 212.766C270.365 212.832 270.444 212.963 270.444 213.107C270.444 213.251 270.365 213.382 270.247 213.447L259.951 219.277L276.779 229.09L276.385 229.758Z" fill="#237B75" stroke="#373765"/>
</g>
<g opacity="0.7">
<path opacity="0.5" d="M261.17 162.326L260.79 161.645L286.917 147.142C287.035 147.077 287.18 147.077 287.298 147.142L307.798 158.278L330.844 144.967L331.237 145.649L308.008 159.064C307.89 159.13 307.746 159.13 307.628 159.064L287.127 147.928L261.17 162.326Z" fill="#237B75" stroke="#373765"/>
</g>
<g opacity="0.7">
<path opacity="0.5" d="M164.447 117.056L164.059 117.74L195.455 135.505L195.843 134.821L164.447 117.056Z" fill="#237B75" stroke="#373765"/>
</g>
<g opacity="0.7">
<path opacity="0.5" d="M148.095 175.074C148.029 175.074 147.963 175.061 147.898 175.021L106.214 150.85L106.608 150.168L148.081 174.222L174.498 158.147C174.629 158.069 174.799 158.068 174.93 158.16L179.77 161.54L179.324 162.182L174.694 158.946L148.291 175.008C148.239 175.048 148.16 175.074 148.095 175.074Z" fill="#237B75" stroke="#373765"/>
</g>
<g opacity="0.7">
<path opacity="0.5" d="M275.292 111.623L256.057 122.496L256.445 123.18L275.68 112.308L275.292 111.623Z" fill="#237B75" stroke="#373765"/>
</g>
<path d="M69.686 184.822C69.568 184.822 69.4499 184.795 69.345 184.73L41.3942 169.506C41.1581 169.375 41.0138 169.139 41.0138 168.877V116.302H42.4566V168.445L69.6729 183.276L149.905 136.347C150.128 136.216 150.417 136.216 150.64 136.347L203.63 168.615L202.882 169.847L150.259 137.801L70.0533 184.717C69.9352 184.795 69.8172 184.822 69.686 184.822Z" fill="#237B75"/>
<path d="M288.806 214.077C288.675 214.077 288.543 214.037 288.425 213.972L255.149 193.429L255.91 192.198L288.819 212.518L312.809 198.709C313.032 198.578 313.32 198.578 313.543 198.722L331.709 209.622L422.736 157.112V123.645H424.179V157.532C424.179 157.794 424.048 158.03 423.825 158.161L332.063 211.09C331.84 211.221 331.552 211.221 331.329 211.09L313.15 200.189L289.147 213.998C289.055 214.037 288.937 214.077 288.806 214.077Z" fill="#237B75"/>
<g opacity="0.6">
<g opacity="0.3">
<g opacity="0.6">
<g opacity="0.6">
<path opacity="0.6" d="M371.427 238.379L338.636 257.415L305.623 238.379L338.426 219.343L371.427 238.379Z" fill="#015A85"/>
</g>
</g>
<g opacity="0.6">
<g opacity="0.6">
<path opacity="0.6" d="M236.171 241.838L203.368 260.874L170.367 241.838L203.158 222.802L236.171 241.838Z" fill="#015A85"/>
</g>
</g>
<g opacity="0.6">
<g opacity="0.6">
<path opacity="0.6" d="M81.5305 211.417L48.7267 230.453L15.7261 211.417L48.5168 192.381L81.5305 211.417Z" fill="#015A85"/>
</g>
</g>
<g opacity="0.6">
<g opacity="0.6">
<path opacity="0.6" d="M435.919 134.028L403.128 153.064L370.114 134.028L402.905 114.992L435.919 134.028Z" fill="#015A85"/>
</g>
</g>
<g opacity="0.3">
<g opacity="0.3">
<path opacity="0.3" d="M71.7837 228.96L52.3978 240.2L32.8939 228.96L52.2667 217.706L71.7837 228.96Z" fill="#015A85"/>
</g>
</g>
<g opacity="0.3">
<g opacity="0.3">
<path opacity="0.3" d="M254.009 235.3L234.636 246.554L215.119 235.3L234.505 224.06L254.009 235.3Z" fill="#015A85"/>
</g>
</g>
<g opacity="0.3">
<g opacity="0.3">
<path opacity="0.3" d="M129.392 83.4834L110.006 94.7243L90.5018 83.4834L109.888 72.2295L129.392 83.4834Z" fill="#015A85"/>
</g>
</g>
<g opacity="0.3">
<g opacity="0.3">
<path opacity="0.3" d="M313.872 52.9444L294.499 64.1852L274.982 52.9444L294.368 41.6904L313.872 52.9444Z" fill="#015A85"/>
</g>
</g>
<g opacity="0.3">
<g opacity="0.3">
<path opacity="0.3" d="M377.644 226.811L358.258 238.065L338.754 226.811L358.126 215.57L377.644 226.811Z" fill="#015A85"/>
</g>
</g>
<g opacity="0.3">
<g opacity="0.3">
<path opacity="0.3" d="M375.02 108.651L355.635 119.905L336.131 108.651L355.503 97.397L375.02 108.651Z" fill="#015A85"/>
</g>
</g>
<g opacity="0.3">
<g opacity="0.3">
<path opacity="0.3" d="M134.822 241.838L115.436 253.079L95.9324 241.838L115.318 230.584L134.822 241.838Z" fill="#015A85"/>
</g>
</g>
<g opacity="0.3">
<path opacity="0.3" d="M110.333 241.838L151.191 218.282L191.773 241.838L150.915 265.394L110.333 241.838Z" fill="#015A85"/>
<g opacity="0.3">
<g opacity="0.3">
<path opacity="0.3" d="M110.333 241.838L151.178 218.282L191.759 241.838L150.915 265.394L110.333 241.838ZM189.058 241.838L151.178 219.854L113.049 241.838L150.928 263.822L189.058 241.838Z" fill="#237B75"/>
</g>
</g>
</g>
<g opacity="0.3">
<path opacity="0.3" d="M53.9467 208.967L94.8039 185.398L135.386 208.967L94.5416 232.523L53.9467 208.967Z" fill="#015A85"/>
<g opacity="0.3">
<g opacity="0.3">
<path opacity="0.3" d="M53.9465 208.969L94.7907 185.413L135.372 208.969L94.5415 232.525L53.9465 208.969ZM132.671 208.969L94.7907 186.985L56.6616 208.969L94.5415 230.952L132.671 208.969Z" fill="#237B75"/>
</g>
</g>
</g>
<g opacity="0.3">
<path opacity="0.3" d="M254.31 241.838L295.168 218.282L335.75 241.838L294.905 265.394L254.31 241.838Z" fill="#015A85"/>
<g opacity="0.3">
<g opacity="0.3">
<path opacity="0.3" d="M254.31 241.838L295.155 218.282L335.736 241.838L294.892 265.394L254.31 241.838ZM333.048 241.838L295.168 219.854L257.039 241.838L294.918 263.822L333.048 241.838Z" fill="#237B75"/>
</g>
</g>
</g>
</g>
<g opacity="0.3">
<path opacity="0.3" d="M254.31 101.157L295.168 77.6006L335.75 101.157L294.905 124.713L254.31 101.157Z" fill="#015A85"/>
<g opacity="0.3">
<g opacity="0.3">
<path opacity="0.3" d="M254.31 101.157L295.155 77.6006L335.736 101.157L294.892 124.713L254.31 101.157ZM333.048 101.157L295.168 79.1727L257.039 101.157L294.918 123.14L333.048 101.157Z" fill="#237B75"/>
</g>
</g>
</g>
<g opacity="0.3">
<path opacity="0.3" d="M310.698 134.028L351.555 110.472L392.137 134.028L351.28 157.584L310.698 134.028Z" fill="#015A85"/>
<g opacity="0.3">
<g opacity="0.3">
<path opacity="0.3" d="M310.698 134.028L351.542 110.472L392.124 134.028L351.28 157.584L310.698 134.028ZM389.422 134.028L351.542 112.044L313.413 134.028L351.293 156.012L389.422 134.028Z" fill="#237B75"/>
</g>
</g>
</g>
<g opacity="0.3">
<path opacity="0.3" d="M103.079 106.961L143.923 83.4048L184.505 106.961L143.66 130.517L103.079 106.961Z" fill="#015A85"/>
<g opacity="0.3">
<g opacity="0.3">
<path opacity="0.3" d="M103.079 106.961L143.923 83.4048L184.505 106.961L143.66 130.517L103.079 106.961ZM181.803 106.961L143.923 84.9769L105.794 106.961L143.674 128.945L181.803 106.961Z" fill="#237B75"/>
</g>
</g>
</g>
<g opacity="0.3">
<path opacity="0.3" d="M46.6797 139.137L87.5369 115.581L128.119 139.137L87.2615 162.693L46.6797 139.137Z" fill="#015A85"/>
<g opacity="0.3">
<g opacity="0.3">
<path opacity="0.3" d="M46.6797 139.137L87.5238 115.581L128.106 139.137L87.2615 162.693L46.6797 139.137ZM125.404 139.137L87.5238 117.153L49.3948 139.137L87.2746 161.121L125.404 139.137Z" fill="#237B75"/>
</g>
</g>
</g>
</g>
<path d="M224.59 91.5029L269.341 117.313L224.89 143.119L180.127 117.31L224.59 91.5029Z" fill="#9BE7C4" stroke="#373765"/>
<path d="M178.998 117.062L178.998 117.063C178.906 117.115 178.854 117.21 178.854 117.311C178.854 117.42 178.902 117.504 178.997 117.559C178.998 117.559 178.998 117.559 178.998 117.559L224.742 143.942C224.791 143.969 224.851 143.983 224.89 143.983C224.922 143.983 224.969 143.973 225.025 143.943C225.026 143.942 225.027 143.942 225.028 143.941L270.481 117.56L270.482 117.559C270.573 117.507 270.625 117.412 270.625 117.311C270.625 117.202 270.577 117.118 270.482 117.063L178.998 117.062ZM178.998 117.062L224.446 90.6767C224.446 90.6766 224.446 90.6765 224.446 90.6764C224.545 90.6196 224.65 90.6267 224.722 90.6706L224.722 90.6707L224.732 90.677L270.482 117.063L178.998 117.062ZM180.451 116.878L179.703 117.312L180.452 117.744L224.627 143.226L224.878 143.37L225.128 143.225L269.015 117.757L269.763 117.323L269.014 116.891L224.839 91.4091L224.588 91.2645L224.338 91.4097L180.451 116.878Z" fill="#9BE7C4" stroke="#373765"/>
<g style="mix-blend-mode:multiply" opacity="0.8">
<path d="M270.339 185.031L224.891 211.417L179.128 185.031L224.589 158.645L270.339 185.031Z" fill="#373765"/>
</g>
<path d="M225.39 143.985L269.837 118.18L269.683 172.191L225.236 197.996L225.39 143.985Z" fill="#9BE7C4" stroke="#373765"/>
<path d="M224.604 143.698V143.697C224.604 143.596 224.656 143.501 224.748 143.448L224.748 143.448L270.209 117.062C270.209 117.062 270.209 117.062 270.209 117.062C270.308 117.005 270.413 117.012 270.485 117.056L270.485 117.056L270.495 117.062C270.586 117.115 270.639 117.21 270.639 117.31C270.639 117.31 270.639 117.311 270.639 117.311L270.482 172.479V172.48C270.482 172.581 270.429 172.676 270.338 172.729L270.337 172.729L224.884 199.11C224.883 199.111 224.882 199.111 224.881 199.112C224.833 199.138 224.773 199.152 224.733 199.152C224.694 199.152 224.635 199.138 224.586 199.112C224.498 199.059 224.447 198.965 224.446 198.866C224.446 198.866 224.446 198.866 224.446 198.866L224.604 143.698ZM225.427 143.71L225.179 143.854L225.178 144.141L225.02 197.489L225.018 198.36L225.771 197.923L269.645 172.454L269.894 172.31L269.894 172.023L270.052 118.675L270.054 117.803L269.301 118.241L225.427 143.71Z" fill="#9BE7C4" stroke="#373765"/>
<path d="M179.625 118.175L224.39 143.985L224.235 198.002L179.471 172.191L179.625 118.175Z" fill="#9BE7C4" stroke="#373765"/>
<path d="M178.854 117.312L178.854 117.312L178.697 172.48C178.697 172.48 178.697 172.48 178.697 172.481C178.697 172.581 178.749 172.675 178.84 172.728L178.854 117.312ZM178.854 117.312V117.311C178.854 117.224 178.908 117.12 179.003 117.059C179.096 117.008 179.192 117.009 179.285 117.062L179.285 117.063L225.034 143.448L178.854 117.312ZM224.583 199.11L178.841 172.729L225.035 143.449C225.125 143.501 225.178 143.596 225.178 143.696C225.178 143.696 225.178 143.696 225.178 143.697L225.021 198.865V198.866C225.021 198.949 224.971 199.049 224.882 199.11C224.809 199.144 224.762 199.152 224.734 199.152C224.694 199.152 224.634 199.138 224.585 199.111C224.585 199.111 224.584 199.111 224.583 199.11ZM179.271 172.033L179.27 172.323L179.521 172.468L223.697 197.95L224.444 198.381L224.447 197.518L224.604 144.157L224.605 143.867L224.354 143.722L180.165 118.24L179.418 117.809L179.415 118.672L179.271 172.033Z" fill="#9BE7C4" stroke="#373765"/>
<path d="M443.101 107.404C443.12 107.5 443.11 107.587 443.091 107.655C443.081 107.674 443.014 107.896 442.849 108.195L451.063 117.134C451.112 117.182 453.943 120.136 454.397 123.707C454.629 125.503 454.803 127.018 454.919 128.099L421.048 108.562C421.173 107.626 421.357 106.313 421.599 104.788C422.072 101.747 424.913 102.066 424.942 102.076L433.002 102.616C432.818 102.066 432.741 101.709 432.731 101.68C432.722 101.632 432.712 101.593 432.712 101.545L424.633 101.004C424.391 100.975 421.318 100.676 420.777 104.161C420.526 105.763 420.333 107.124 420.207 108.07C420.188 108.205 420.168 108.34 420.159 108.456C420.139 108.581 420.178 108.746 420.255 108.89C420.333 109.035 420.449 109.17 420.565 109.238L455.393 129.325C455.509 129.393 455.625 129.402 455.712 129.344C455.789 129.286 455.828 129.171 455.808 129.026C455.789 128.891 455.779 128.736 455.76 128.582C455.634 127.491 455.46 125.908 455.219 124.026C454.697 119.923 451.624 116.68 451.392 116.439L443.101 107.404Z" fill="#373765"/>
<path d="M430.692 86.892C430.286 86.9981 430.296 87.7221 430.334 88.2626C430.537 90.9268 431.175 92.8766 432.122 93.7357C432.18 94.8071 432.267 95.4346 433.272 97.7126C433.378 97.9249 433.465 98.1083 433.552 98.2821C433.717 98.6103 433.871 98.9385 434.026 99.2473C435.031 101.265 436.055 102.983 437.93 104.074C439.805 105.155 440.829 104.614 441.844 103.765C441.998 103.63 442.163 103.495 442.317 103.35C442.404 103.273 442.491 103.195 442.578 103.118C443.612 101.989 443.699 101.467 443.767 100.464C444.714 100.695 445.371 99.4983 445.584 97.0658C445.622 96.5736 445.642 95.8496 445.236 95.2801C445.149 95.1643 445.043 95.0388 444.898 94.9326C444.801 95.338 444.704 95.7531 444.695 95.8786C444.714 95.8979 444.733 95.8882 444.753 95.8786C444.772 95.9944 444.782 96.1971 444.753 96.4963C444.54 98.8902 443.931 99.6528 443.409 99.3535C443.168 99.2087 442.984 99.3053 442.965 99.5466C442.955 99.6528 442.955 99.7493 442.945 99.8458C442.897 100.715 442.878 101.12 441.931 102.162C441.844 102.24 441.757 102.317 441.67 102.394C440.481 103.456 439.698 104.151 437.93 103.137C436.171 102.124 435.388 100.521 434.209 98.0987C434.122 97.9249 434.045 97.7512 433.958 97.5774C433.021 95.4442 433.001 95.0195 432.953 94.0928C432.944 93.9963 432.944 93.8901 432.934 93.7743C432.915 93.5137 432.741 93.2144 432.518 93.089C431.967 92.7704 431.359 91.3032 431.165 88.6777C431.146 88.3881 431.146 88.2144 431.165 88.1082C431.098 87.7607 431.04 87.3649 430.982 86.9402C430.856 86.8727 430.759 86.8727 430.692 86.892Z" fill="#373765"/>
<path d="M433.282 97.751C433.118 99.7008 432.741 101.419 432.741 101.438C432.731 101.477 432.731 101.506 432.731 101.554C432.731 101.593 432.741 101.641 432.75 101.689C432.76 101.718 432.837 102.075 433.021 102.626C433.185 103.137 433.446 103.813 433.804 104.546C434.818 106.622 436.191 108.195 437.776 109.112C439.902 110.338 441.245 109.875 441.989 109.276C442.404 108.938 442.685 108.523 442.868 108.195C443.033 107.896 443.1 107.674 443.11 107.655C443.129 107.587 443.139 107.51 443.12 107.413C443.091 107.259 442.743 105.184 442.598 103.108C442.501 103.185 442.414 103.272 442.327 103.34C442.163 103.485 442.008 103.629 441.854 103.755C441.999 105.251 442.202 106.564 442.279 106.998C442.076 107.529 440.936 109.952 437.785 108.137C434.867 106.458 433.784 102.741 433.591 101.988C433.668 101.641 433.881 100.57 434.036 99.2471C433.881 98.9286 433.717 98.6101 433.562 98.2819C433.456 98.1081 433.369 97.9344 433.282 97.751Z" fill="#373765"/>
<path d="M442.859 108.195C442.685 108.523 442.405 108.938 441.98 109.276C441.236 109.874 439.893 110.338 437.767 109.112C436.182 108.195 434.809 106.622 433.795 104.546C433.437 103.803 433.176 103.127 433.012 102.625L424.972 102.094C424.923 102.085 422.082 101.766 421.609 104.807C421.367 106.332 421.183 107.635 421.058 108.581L454.929 128.118C454.813 127.037 454.63 125.521 454.408 123.726C453.953 120.145 451.112 117.191 451.093 117.172L442.859 108.195Z" fill="#F8FEFD"/>
<path d="M432.336 77.519C433.515 77.0074 435.207 77.268 437.342 78.3105C437.623 78.4456 437.883 78.5904 438.135 78.7352C440.773 80.2603 441.865 82.1812 442.097 82.6349C442.155 82.6928 442.261 82.7893 442.348 82.8665C442.909 83.3685 443.962 84.3048 444.803 86.216C445.527 87.857 445.682 89.7971 445.325 92.9246C445.276 93.3493 445.112 94.0154 444.957 94.6524C444.938 94.7393 444.909 94.8358 444.89 94.9324C444.793 95.3378 444.696 95.7528 444.687 95.9073C444.658 96.5057 444.416 96.4961 444.194 96.3706C443.827 96.1582 443.662 95.7046 443.421 94.276C443.295 93.552 443.17 92.5578 443.17 91.9207C443.17 91.7856 443.16 91.6601 443.15 91.5346C443.102 90.9844 442.957 90.5114 442.725 90.1446C442.512 89.8068 442.242 89.5848 442 89.4497C441.913 89.4014 441.826 89.3531 441.749 89.3242C441.633 89.2759 441.498 89.218 441.333 89.1601C440.444 88.8029 438.831 88.1658 436.936 87.0751C436.849 87.0268 436.753 86.9689 436.666 86.9207C435.023 85.9457 434.269 84.8453 433.902 84.3144C433.873 84.2662 433.834 84.2179 433.805 84.1793C433.699 84.0924 433.622 84.0345 433.554 83.9959C433.448 83.938 433.39 83.938 433.351 83.9476C433.284 83.967 433.226 84.0249 433.168 84.1407C433.081 84.3241 433.003 84.6233 432.945 85.0577C432.897 85.4052 432.868 85.8299 432.839 86.3319C432.82 86.8338 432.704 87.5384 432.549 88.1176C432.308 89.0346 432.095 89.3049 431.747 89.1408C431.737 89.1311 431.718 89.1215 431.699 89.1118C431.544 89.0249 431.283 88.7933 431.167 88.2045C431.158 88.1659 431.158 88.1369 431.148 88.0983C431.08 87.7508 431.022 87.355 430.964 86.9303C430.665 84.6233 430.491 81.5538 430.52 80.8974C430.616 79.1599 431.235 78.0016 432.336 77.519ZM431.805 87.2006C431.911 86.7566 431.998 86.2257 432.027 85.7816C432.124 83.8318 432.356 83.021 432.878 82.8762C433.1 82.8086 433.351 82.8955 433.573 83.0306C433.757 83.1368 433.921 83.272 434.057 83.3878C434.192 83.5036 434.289 83.6484 434.424 83.8415C434.733 84.3048 435.323 85.1542 436.685 85.965C436.772 86.023 436.869 86.0712 436.956 86.1195C438.773 87.1716 440.29 87.7701 441.217 88.1369C441.382 88.2045 441.527 88.2624 441.643 88.3106C441.768 88.3589 441.894 88.4265 442.01 88.494C442.503 88.774 442.947 89.2083 443.286 89.7392C443.769 90.4921 444.01 91.3898 444.02 92.4034C444.02 92.8281 444.088 93.3976 444.165 93.9574C444.31 93.3686 444.474 92.7122 444.513 92.3358C444.841 89.4883 444.725 87.7122 444.126 86.3705C443.459 84.855 442.667 84.1504 442.136 83.6774C441.846 83.4168 441.614 83.214 441.478 82.9148C441.469 82.8955 440.609 81.1291 438.135 79.7005C437.912 79.575 437.671 79.4399 437.42 79.324C435.468 78.3781 433.95 78.1271 432.897 78.5808C431.96 78.9862 431.447 79.9515 431.38 81.438C431.351 81.9302 431.505 84.9322 431.805 87.2006Z" fill="#373765"/>
<path d="M383.92 30.5824C382.372 29.6916 381.113 30.4121 381.113 32.1808L380.942 93.0622C380.942 94.8308 382.188 97.0056 383.736 97.8965L394.701 104.224C394.544 104.133 394.387 103.962 394.282 103.753C394.177 103.543 394.124 103.334 394.151 103.163C394.177 103.006 394.19 102.823 394.216 102.639L383.749 96.5995C382.831 96.0623 382.084 94.7784 382.084 93.7172L382.241 38.3384L381.992 38.1943V36.8972L382.241 37.0413L382.254 32.8359C382.254 31.7747 383.002 31.3554 383.933 31.8795L453.134 71.7858C454.053 72.3229 454.8 73.6069 454.8 74.6681L454.787 78.8735L455.679 79.3845V80.6815L454.787 80.1706L454.63 135.549C454.63 136.611 453.882 137.03 452.951 136.506L442.484 130.466C442.51 130.676 442.523 130.885 442.55 131.069C442.576 131.265 442.523 131.423 442.418 131.501C442.314 131.58 442.156 131.567 441.986 131.475L452.951 137.803C454.499 138.694 455.758 137.973 455.758 136.204L455.928 75.3231C455.928 73.5544 454.682 71.3796 453.134 70.4888L383.92 30.5824Z" fill="#373765"/>
<path d="M453.121 71.7859C454.039 72.323 454.787 73.607 454.787 74.6682L454.774 78.8737L382.24 37.0415L382.254 32.836C382.254 31.7748 383.001 31.3555 383.932 31.8796L453.121 71.7859ZM386.503 38.4433C387.435 38.9804 388.208 38.5481 388.208 37.4738C388.208 36.3995 387.448 35.0894 386.516 34.5522C385.585 34.0151 384.811 34.4474 384.811 35.5217C384.811 36.596 385.572 37.9061 386.503 38.4433ZM394.648 43.1466C395.58 43.6838 396.354 43.2514 396.354 42.1771C396.354 41.1028 395.593 39.7927 394.662 39.2556C393.73 38.7184 392.956 39.1508 392.956 40.2251C392.956 41.2863 393.717 42.5964 394.648 43.1466ZM390.582 40.7884C391.514 41.3256 392.288 40.8932 392.288 39.8189C392.288 38.7446 391.527 37.4345 390.596 36.8973C389.664 36.3602 388.89 36.7925 388.89 37.8668C388.89 38.9411 389.638 40.2513 390.582 40.7884Z" fill="#040434"/>
<path d="M386.517 35.849C386.203 35.6656 385.953 35.8097 385.953 36.1766C385.953 36.5303 386.203 36.9757 386.517 37.1461C386.832 37.3164 387.081 37.1854 387.081 36.8185C387.081 36.4648 386.832 36.0325 386.517 35.849Z" fill="#171753"/>
<path d="M388.209 37.4736C388.209 38.5479 387.436 38.9802 386.504 38.4431C385.573 37.9059 384.812 36.5958 384.812 35.5215C384.812 34.4472 385.573 34.0149 386.517 34.552C387.462 35.0891 388.209 36.3993 388.209 37.4736ZM386.517 37.146C386.832 37.3295 387.081 37.1853 387.081 36.8185C387.081 36.4648 386.832 36.0193 386.517 35.849C386.203 35.6656 385.953 35.8097 385.953 36.1765C385.953 36.5303 386.203 36.9626 386.517 37.146Z" fill="#373765"/>
<path d="M423.544 96.77C422.167 97.9361 420.776 98.6697 418.232 97.1893C415.687 95.722 414.297 93.3899 412.933 90.6387C412.723 92.4335 412.434 93.8878 412.329 94.3594C412.592 95.3813 414.061 100.425 418.022 102.705C422.298 105.168 423.845 101.866 424.121 101.159C424.029 100.583 423.74 98.8007 423.544 96.77Z" fill="#F6FDFD"/>
<path d="M390.583 38.1943C390.268 38.0108 390.019 38.1549 390.019 38.5218C390.019 38.8755 390.268 39.3209 390.583 39.4913C390.898 39.6747 391.147 39.5306 391.147 39.1637C391.147 38.81 390.898 38.3777 390.583 38.1943Z" fill="#040434"/>
<path d="M425.261 101.709C425.288 101.84 425.274 101.958 425.248 102.05C425.235 102.076 425.143 102.377 424.92 102.783L436.069 114.915C436.135 114.981 439.978 118.99 440.594 123.837C440.909 126.274 441.145 128.331 441.303 129.798L395.33 103.281C395.5 102.01 395.75 100.229 396.077 98.1586C396.72 94.0317 400.576 94.464 400.616 94.4771L411.555 95.2108C411.306 94.464 411.201 93.9793 411.187 93.94C411.174 93.8745 411.161 93.8221 411.161 93.7566L400.196 93.0229C399.868 92.9836 395.697 92.5774 394.963 97.307C394.622 99.4818 394.359 101.329 394.189 102.613C394.162 102.796 394.136 102.98 394.123 103.137C394.097 103.307 394.149 103.53 394.254 103.727C394.359 103.923 394.517 104.107 394.674 104.198L441.945 131.462C442.103 131.554 442.26 131.567 442.378 131.488C442.483 131.409 442.536 131.252 442.509 131.056C442.483 130.872 442.47 130.663 442.444 130.453C442.273 128.973 442.037 126.824 441.709 124.269C441.001 118.701 436.83 114.299 436.515 113.972L425.261 101.709Z" fill="#373765"/>
<path d="M408.421 73.8686C407.87 74.0127 407.883 74.9953 407.936 75.729C408.211 79.3449 409.077 81.9913 410.362 83.1573C410.441 84.6116 410.559 85.4632 411.923 88.5551C412.068 88.8433 412.186 89.0922 412.304 89.328C412.527 89.7735 412.736 90.2189 412.946 90.6381C414.31 93.3763 415.701 95.7083 418.245 97.1888C420.79 98.6561 422.18 97.9224 423.557 96.7695C423.767 96.5861 423.99 96.4027 424.2 96.2062C424.318 96.1014 424.436 95.9965 424.554 95.8917C425.958 94.3589 426.076 93.6514 426.168 92.2889C427.453 92.6033 428.345 90.9788 428.633 87.6773C428.686 87.0091 428.712 86.0265 428.161 85.2535C428.043 85.0963 427.899 84.926 427.702 84.7819C427.571 85.3322 427.44 85.8955 427.427 86.0658C427.453 86.092 427.479 86.0789 427.505 86.0658C427.532 86.223 427.545 86.4982 427.505 86.9043C427.217 90.1534 426.391 91.1884 425.682 90.7823C425.354 90.5857 425.105 90.7168 425.079 91.0443C425.066 91.1884 425.066 91.3194 425.053 91.4504C424.987 92.6295 424.961 93.1798 423.675 94.5947C423.557 94.6995 423.439 94.8043 423.321 94.9091C421.708 96.3503 420.646 97.2936 418.245 95.9179C415.858 94.5423 414.796 92.3675 413.196 89.0791C413.077 88.8433 412.973 88.6075 412.854 88.3716C411.582 85.4763 411.556 84.8998 411.49 83.6421C411.477 83.5111 411.477 83.367 411.464 83.2098C411.438 82.856 411.202 82.4499 410.9 82.2796C410.153 81.8472 409.326 79.8558 409.064 76.2923C409.038 75.8993 409.038 75.6635 409.064 75.5193C408.972 75.0477 408.893 74.5106 408.815 73.9341C408.644 73.8424 408.513 73.8424 408.421 73.8686Z" fill="#373765"/>
<path d="M411.936 88.6079C411.713 91.2544 411.202 93.5864 411.202 93.6126C411.189 93.665 411.189 93.7043 411.189 93.7698C411.189 93.8222 411.202 93.8877 411.215 93.9532C411.228 93.9925 411.333 94.4773 411.582 95.224C411.805 95.9184 412.159 96.8355 412.645 97.8312C414.022 100.648 415.884 102.783 418.035 104.028C420.921 105.692 422.744 105.063 423.754 104.251C424.318 103.792 424.698 103.229 424.948 102.783C425.171 102.377 425.262 102.076 425.276 102.05C425.302 101.958 425.315 101.853 425.289 101.722C425.249 101.513 424.777 98.6959 424.58 95.8791C424.449 95.9839 424.331 96.1018 424.213 96.1935C423.99 96.39 423.78 96.5866 423.57 96.7569C423.767 98.7876 424.043 100.569 424.148 101.159C423.872 101.879 422.324 105.168 418.049 102.705C414.087 100.425 412.618 95.3812 412.356 94.3593C412.461 93.8877 412.75 92.4335 412.959 90.6386C412.75 90.2063 412.527 89.7739 412.317 89.3285C412.172 89.0927 412.054 88.8568 411.936 88.6079Z" fill="#373765"/>
<path d="M392.288 39.8188C392.288 40.8931 391.514 41.3254 390.583 40.7883C389.651 40.2511 388.891 38.941 388.891 37.8667C388.891 36.7924 389.651 36.3601 390.596 36.8972C391.54 37.4344 392.288 38.7445 392.288 39.8188ZM390.583 39.4913C390.897 39.6747 391.147 39.5306 391.147 39.1637C391.147 38.81 390.897 38.3646 390.583 38.1942C390.268 38.0108 390.019 38.1549 390.019 38.5218C390.019 38.8755 390.268 39.3078 390.583 39.4913Z" fill="#373765"/>
<path d="M424.935 102.783C424.699 103.229 424.318 103.792 423.741 104.25C422.731 105.063 420.908 105.692 418.022 104.028C415.871 102.783 414.009 100.648 412.632 97.8309C412.146 96.8221 411.792 95.905 411.569 95.2237L400.656 94.5032C400.591 94.4901 396.735 94.0577 396.092 98.1846C395.764 100.255 395.515 102.023 395.344 103.307L441.317 129.824C441.159 128.357 440.91 126.3 440.609 123.863C439.992 119.002 436.136 114.993 436.11 114.967L424.935 102.783Z" fill="#040434"/>
<path d="M411.793 70.0957C411.674 70.3446 411.57 70.7508 411.491 71.3403C411.609 70.8294 411.714 70.4232 411.793 70.0957Z" fill="#373765"/>
<path d="M396.355 42.1767C396.355 43.251 395.581 43.6833 394.65 43.1462C393.719 42.609 392.958 41.2989 392.958 40.2246C392.958 39.1503 393.732 38.718 394.663 39.2551C395.594 39.7792 396.355 41.1024 396.355 42.1767ZM394.65 41.8361C394.965 42.0195 395.214 41.8754 395.214 41.5085C395.214 41.1548 394.965 40.7094 394.65 40.539C394.335 40.3556 394.086 40.4997 394.086 40.8666C394.086 41.2203 394.348 41.6658 394.65 41.8361Z" fill="#373765"/>
<path d="M425.355 80.6797C425.355 80.497 425.342 80.3274 425.329 80.1577C425.342 80.3143 425.355 80.497 425.355 80.6797Z" fill="#373765"/>
<path d="M410.651 61.1478C412.251 60.4534 414.547 60.8071 417.445 62.2221C417.826 62.4055 418.18 62.602 418.521 62.7985C422.102 64.8685 423.584 67.4756 423.899 68.0914C423.977 68.17 424.122 68.301 424.24 68.4058C425 69.0871 426.43 70.3579 427.571 72.952C428.555 75.1792 428.765 77.8125 428.279 82.0573C428.214 82.6338 427.991 83.5377 427.781 84.4024C427.755 84.5203 427.715 84.6513 427.689 84.7824C427.558 85.3326 427.427 85.896 427.414 86.1056C427.374 86.9179 427.046 86.9048 426.745 86.7344C426.246 86.4462 426.023 85.8305 425.695 83.8915C425.525 82.9089 425.354 81.5595 425.354 80.6948C425.354 80.5114 425.341 80.341 425.328 80.1707C425.263 79.424 425.066 78.782 424.751 78.2842C424.463 77.8256 424.095 77.5243 423.767 77.3409C423.649 77.2754 423.531 77.2099 423.426 77.1706C423.269 77.1051 423.085 77.0264 422.862 76.9478C421.656 76.4631 419.465 75.5984 416.894 74.118C416.776 74.0525 416.645 73.9739 416.527 73.9084C414.297 72.5851 413.274 71.0916 412.776 70.371C412.737 70.3055 412.684 70.24 412.645 70.1876C412.501 70.0697 412.396 69.9911 412.304 69.9387C412.159 69.8601 412.081 69.8601 412.028 69.8732C411.937 69.8994 411.858 69.978 411.779 70.1352C411.661 70.3841 411.556 70.7903 411.477 71.3798C411.412 71.8515 411.373 72.4279 411.333 73.1092C411.307 73.7904 411.15 74.7468 410.94 75.5329C410.612 76.7775 410.323 77.1444 409.851 76.9216C409.838 76.9085 409.812 76.8954 409.785 76.8823C409.576 76.7644 409.221 76.45 409.064 75.6508C409.051 75.5984 409.051 75.5591 409.038 75.5067C408.946 75.0351 408.867 74.4979 408.789 73.9214C408.382 70.7903 408.146 66.6241 408.185 65.7332C408.316 63.375 409.156 61.8028 410.651 61.1478ZM409.93 74.2883C410.074 73.6856 410.192 72.9651 410.231 72.3624C410.363 69.716 410.677 68.6155 411.386 68.4189C411.687 68.3272 412.028 68.4451 412.33 68.6286C412.579 68.7727 412.802 68.9561 412.986 69.1133C413.169 69.2705 413.301 69.467 413.484 69.7291C413.904 70.3579 414.704 71.5108 416.553 72.6113C416.671 72.6899 416.803 72.7554 416.921 72.821C419.387 74.249 421.446 75.0613 422.705 75.5591C422.928 75.6508 423.125 75.7294 423.282 75.7949C423.453 75.8604 423.623 75.9521 423.781 76.0438C424.449 76.4238 425.053 77.0133 425.512 77.7339C426.168 78.7558 426.496 79.9742 426.509 81.3498C426.509 81.9263 426.601 82.6993 426.705 83.4591C426.902 82.66 427.125 81.7691 427.178 81.2581C427.624 77.3933 427.466 74.9826 426.653 73.1616C425.748 71.1047 424.672 70.1483 423.951 69.5063C423.558 69.1526 423.243 68.8775 423.059 68.4713C423.046 68.4451 421.879 66.0476 418.521 64.1086C418.219 63.9383 417.891 63.7549 417.55 63.5977C414.901 62.3138 412.842 61.9731 411.412 62.5889C410.14 63.1391 409.444 64.4493 409.353 66.4669C409.313 67.135 409.523 71.2095 409.93 74.2883Z" fill="#373765"/>
<path d="M381.991 36.8975V38.1945L382.227 38.3386L454.774 80.1577L455.652 80.6817L455.666 79.3716L454.774 78.8607L382.241 37.0285L381.991 36.8975Z" fill="#373765"/>
<path d="M59.5076 168.484L59.56 178.219H42.7318L59.5076 168.484Z" fill="#171753"/>
<path d="M410.5 174.956L410.553 165.222H393.725L410.5 174.956Z" fill="#171753"/>
<path d="M104.916 149.527C106.071 148.859 107.933 148.859 109.087 149.527C110.228 150.195 110.228 151.269 109.074 151.938C107.92 152.606 106.058 152.606 104.903 151.938C103.762 151.283 103.762 150.195 104.916 149.527Z" fill="#171753"/>
<path d="M164.641 119.147C166.271 119.142 167.59 118.376 167.587 117.435C167.584 116.494 166.261 115.736 164.631 115.74C163.001 115.745 161.682 116.511 161.685 117.452C161.687 118.392 163.011 119.151 164.641 119.147Z" fill="#171753"/>
<path d="M112.438 197.598C114.068 197.593 115.387 196.827 115.384 195.886C115.382 194.945 114.058 194.187 112.428 194.191C110.799 194.196 109.479 194.962 109.482 195.903C109.485 196.843 110.808 197.602 112.438 197.598Z" fill="#171753"/>
<path d="M169.204 231.424C170.834 231.42 172.153 230.653 172.15 229.713C172.148 228.772 170.824 228.013 169.194 228.018C167.564 228.023 166.245 228.789 166.248 229.73C166.251 230.67 167.574 231.429 169.204 231.424Z" fill="#171753"/>
<path d="M276.68 231.424C278.31 231.42 279.629 230.653 279.626 229.713C279.624 228.772 278.3 228.013 276.67 228.018C275.04 228.023 273.721 228.789 273.724 229.73C273.727 230.67 275.05 231.429 276.68 231.424Z" fill="#171753"/>
<path d="M275.409 114.207C277.038 114.202 278.358 113.436 278.355 112.496C278.352 111.555 277.029 110.796 275.399 110.801C273.769 110.805 272.45 111.572 272.453 112.512C272.455 113.453 273.779 114.212 275.409 114.207Z" fill="#171753"/>
<path d="M331.494 146.829C333.124 146.824 334.443 146.058 334.44 145.118C334.438 144.177 333.114 143.418 331.484 143.423C329.854 143.427 328.535 144.194 328.538 145.134C328.541 146.075 329.864 146.834 331.494 146.829Z" fill="#171753"/>
<g opacity="0.5">
<g opacity="0.5">
<path opacity="0.702" d="M5.78275 190.232C6.58285 189.774 7.86825 189.774 8.65523 190.232C9.44221 190.691 9.44221 191.437 8.64212 191.896C7.84202 192.354 6.55662 192.354 5.76964 191.896C4.98266 191.437 4.98265 190.704 5.78275 190.232Z" fill="#171753"/>
</g>
<g opacity="0.5">
<path opacity="0.4" d="M10.7025 193.101C11.5026 192.643 12.788 192.643 13.575 193.101C14.362 193.56 14.362 194.307 13.5619 194.765C12.7618 195.224 11.4764 195.224 10.6894 194.765C9.90245 194.307 9.91557 193.56 10.7025 193.101Z" fill="#171753"/>
</g>
<g opacity="0.5">
<path opacity="0.5" d="M0.864416 187.376C1.66451 186.918 2.94991 186.918 3.73688 187.376C4.52386 187.835 4.52386 188.581 3.72377 189.04C2.92367 189.499 1.63828 189.499 0.851299 189.04C0.0643211 188.581 0.064322 187.835 0.864416 187.376Z" fill="#171753"/>
</g>
</g>
<g opacity="0.5">
<g opacity="0.5">
<path opacity="0.702" d="M415.3 181.153C416.1 180.694 417.385 180.694 418.172 181.153C418.959 181.612 418.959 182.358 418.159 182.817C417.359 183.275 416.074 183.275 415.287 182.817C414.5 182.358 414.5 181.612 415.3 181.153Z" fill="#171753"/>
</g>
<g opacity="0.5">
<path opacity="0.4" d="M420.232 184.009C421.033 183.55 422.318 183.55 423.105 184.009C423.892 184.467 423.892 185.214 423.092 185.673C422.292 186.131 421.006 186.131 420.219 185.673C419.432 185.214 419.432 184.467 420.232 184.009Z" fill="#171753"/>
</g>
<g opacity="0.5">
<path opacity="0.5" d="M410.381 178.284C411.181 177.825 412.467 177.825 413.254 178.284C414.041 178.742 414.041 179.489 413.241 179.948C412.441 180.406 411.155 180.406 410.368 179.948C409.581 179.489 409.581 178.755 410.381 178.284Z" fill="#171753"/>
</g>
</g>
<g opacity="0.5">
<g opacity="0.5">
<path opacity="0.702" d="M159.966 48.3068C159.166 47.8483 157.88 47.8483 157.093 48.3068C156.306 48.7653 156.306 49.5121 157.106 49.9707C157.906 50.4292 159.192 50.4292 159.979 49.9707C160.766 49.5121 160.766 48.7653 159.966 48.3068Z" fill="#171753"/>
</g>
<g opacity="0.5">
<path opacity="0.4" d="M155.048 51.1632C154.248 50.7047 152.962 50.7047 152.175 51.1632C151.388 51.6218 151.388 52.3685 152.188 52.8271C152.988 53.2856 154.274 53.2856 155.061 52.8271C155.848 52.3685 155.848 51.6349 155.048 51.1632Z" fill="#171753"/>
</g>
<g opacity="0.5">
<path opacity="0.5" d="M164.896 45.4508C164.096 44.9923 162.811 44.9923 162.024 45.4508C161.237 45.9094 161.237 46.6561 162.037 47.1147C162.837 47.5732 164.123 47.5732 164.91 47.1147C165.697 46.6561 165.697 45.9094 164.896 45.4508Z" fill="#171753"/>
</g>
</g>
<g opacity="0.5">
<g opacity="0.5">
<path opacity="0.702" d="M392.609 251.507C391.809 251.048 390.524 251.048 389.737 251.507C388.95 251.965 388.95 252.712 389.75 253.17C390.55 253.629 391.836 253.629 392.622 253.17C393.409 252.712 393.409 251.978 392.609 251.507Z" fill="#171753"/>
</g>
<g opacity="0.5">
<path opacity="0.4" d="M387.69 254.376C386.89 253.917 385.605 253.917 384.818 254.376C384.031 254.834 384.031 255.581 384.831 256.04C385.631 256.498 386.916 256.498 387.703 256.04C388.49 255.581 388.49 254.834 387.69 254.376Z" fill="#171753"/>
</g>
<g opacity="0.5">
<path opacity="0.5" d="M397.54 248.651C396.74 248.192 395.455 248.192 394.668 248.651C393.881 249.109 393.881 249.856 394.681 250.314C395.481 250.773 396.766 250.773 397.553 250.314C398.34 249.856 398.327 249.109 397.54 248.651Z" fill="#171753"/>
</g>
</g>
<g opacity="0.5">
<g opacity="0.5">
<path opacity="0.702" d="M175.457 259.25C176.257 258.791 177.542 258.791 178.329 259.25C179.116 259.708 179.116 260.455 178.316 260.914C177.516 261.372 176.23 261.372 175.443 260.914C174.656 260.455 174.67 259.721 175.457 259.25Z" fill="#171753"/>
</g>
<g opacity="0.5">
<path opacity="0.4" d="M180.388 262.119C181.188 261.66 182.473 261.66 183.26 262.119C184.047 262.577 184.047 263.324 183.247 263.783C182.447 264.241 181.162 264.241 180.375 263.783C179.588 263.324 179.588 262.577 180.388 262.119Z" fill="#171753"/>
</g>
<g opacity="0.5">
<path opacity="0.5" d="M170.536 256.394C171.336 255.935 172.622 255.935 173.409 256.394C174.196 256.852 174.196 257.599 173.396 258.058C172.596 258.516 171.31 258.516 170.523 258.058C169.736 257.599 169.736 256.852 170.536 256.394Z" fill="#171753"/>
</g>
</g>
<g opacity="0.5">
<g opacity="0.5">
<path opacity="0.702" d="M322.595 77.7712C323.395 77.3126 324.68 77.3126 325.467 77.7712C326.254 78.2297 326.254 78.9765 325.454 79.435C324.654 79.8936 323.369 79.8936 322.582 79.435C321.795 78.9765 321.795 78.2428 322.595 77.7712Z" fill="#171753"/>
</g>
<g opacity="0.5">
<path opacity="0.4" d="M327.513 80.6403C328.313 80.1818 329.598 80.1818 330.385 80.6403C331.172 81.0988 331.172 81.8456 330.372 82.3042C329.572 82.7627 328.287 82.7627 327.5 82.3042C326.713 81.8456 326.713 81.0988 327.513 80.6403Z" fill="#171753"/>
</g>
<g opacity="0.5">
<path opacity="0.5" d="M317.662 74.9152C318.462 74.4567 319.747 74.4567 320.534 74.9152C321.321 75.3737 321.321 76.1205 320.521 76.5791C319.721 77.0376 318.436 77.0376 317.649 76.5791C316.862 76.1205 316.875 75.3737 317.662 74.9152Z" fill="#171753"/>
</g>
</g>
<g opacity="0.3">
<g opacity="0.3">
<path opacity="0.3" d="M375.78 191.202C377.013 191.058 378.286 191.058 379.519 191.202L382.312 189.591C384.372 188.398 387.729 188.398 389.776 189.591C391.822 190.783 391.809 192.722 389.749 193.901L386.956 195.512L386.26 195.905L385.539 196.325L383.204 197.674C382.889 197.858 382.535 198.015 382.168 198.133C381.696 198.29 381.197 198.408 380.673 198.473C380.253 198.526 379.833 198.552 379.414 198.552C378.076 198.539 376.751 198.251 375.741 197.661C374.731 197.071 374.22 196.298 374.206 195.525L371.911 196.849C372.278 197.543 372.921 198.185 373.865 198.735C374.81 199.286 375.925 199.652 377.118 199.875C377.42 199.927 377.709 199.967 378.01 200.006C378.338 200.045 378.679 200.059 379.007 200.072C380.765 200.124 382.548 199.849 384.044 199.233C384.398 199.089 384.726 198.932 385.041 198.748L385.762 198.329L386.916 197.661L391.586 194.962C394.681 193.18 394.694 190.272 391.625 188.49C388.556 186.708 383.532 186.708 380.437 188.49L375.78 191.202Z" fill="#171753"/>
</g>
<g opacity="0.3">
<path opacity="0.3" d="M365.511 197.124C362.415 198.905 362.402 201.814 365.471 203.596C368.541 205.377 373.564 205.377 376.66 203.596L381.329 200.897C380.096 201.041 378.824 201.041 377.591 200.897L374.797 202.508C372.738 203.7 369.38 203.7 367.334 202.508C365.288 201.316 365.288 199.377 367.36 198.185L370.154 196.573L370.849 196.18L371.57 195.761L373.905 194.412C374.22 194.228 374.574 194.071 374.941 193.953C375.414 193.796 375.912 193.678 376.437 193.612C376.843 193.56 377.276 193.534 377.696 193.534C379.034 193.547 380.358 193.835 381.368 194.425C382.378 195.014 382.89 195.787 382.903 196.56L385.198 195.237C384.831 194.543 384.188 193.901 383.244 193.35C382.3 192.8 381.185 192.433 379.991 192.211C379.69 192.158 379.401 192.119 379.099 192.08C378.771 192.04 378.43 192.027 378.102 192.014C376.345 191.962 374.561 192.237 373.066 192.853C372.712 192.997 372.384 193.154 372.069 193.337L371.348 193.757L370.193 194.425L365.511 197.124Z" fill="#171753"/>
</g>
</g>
<g opacity="0.3">
<g opacity="0.3">
<path opacity="0.3" d="M108.97 168.523C110.202 168.379 111.475 168.379 112.708 168.523L115.501 166.912C117.561 165.72 120.918 165.72 122.965 166.912C125.011 168.104 124.998 170.043 122.938 171.222L120.145 172.834L119.449 173.227L118.728 173.646L116.393 174.995C116.079 175.179 115.724 175.336 115.357 175.454C114.885 175.611 114.387 175.729 113.862 175.795C113.442 175.847 113.022 175.873 112.603 175.873C111.265 175.86 109.94 175.572 108.93 174.982C107.92 174.393 107.409 173.62 107.396 172.847L105.1 174.17C105.467 174.864 106.11 175.506 107.055 176.057C107.999 176.607 109.114 176.974 110.307 177.196C110.609 177.249 110.898 177.288 111.199 177.327C111.527 177.367 111.868 177.38 112.196 177.393C113.954 177.445 115.738 177.17 117.233 176.554C117.587 176.41 117.915 176.253 118.23 176.07L118.951 175.65L120.105 174.982L124.775 172.283C127.87 170.502 127.883 167.593 124.814 165.811C121.745 164.03 116.721 164.03 113.626 165.811L108.97 168.523Z" fill="#171753"/>
</g>
<g opacity="0.3">
<path opacity="0.3" d="M98.6989 174.445C95.6035 176.227 95.5903 179.135 98.6595 180.917C101.729 182.699 106.752 182.699 109.848 180.917L114.517 178.218C113.284 178.362 112.012 178.362 110.779 178.218L107.985 179.829C105.926 181.022 102.568 181.022 100.522 179.829C98.4759 178.637 98.4759 176.698 100.548 175.506L103.342 173.895L104.037 173.502L104.759 173.082L107.093 171.733C107.408 171.549 107.762 171.392 108.13 171.274C108.602 171.117 109.1 170.999 109.625 170.934C110.031 170.881 110.464 170.855 110.884 170.855C112.222 170.868 113.547 171.156 114.557 171.746C115.566 172.336 116.078 173.109 116.091 173.882L118.386 172.558C118.019 171.864 117.377 171.222 116.432 170.672C115.488 170.121 114.373 169.755 113.179 169.532C112.878 169.479 112.589 169.44 112.287 169.401C111.959 169.362 111.618 169.348 111.291 169.335C109.533 169.283 107.749 169.558 106.254 170.174C105.9 170.318 105.572 170.475 105.257 170.659L104.536 171.078L103.381 171.746L98.6989 174.445Z" fill="#171753"/>
</g>
</g>
<path d="M146.889 99.2441H149.473L149.407 111.743H136.933L136.947 110.249H146.823L146.889 99.2441Z" fill="#237B75"/>
<path d="M90.501 131.421H93.0849L93.0062 143.919H80.5458L80.5589 142.426H90.4354L90.501 131.421Z" fill="#237B75"/>
<path d="M154.155 234.122H156.739L156.66 246.62H144.2L144.213 245.127H154.089L154.155 234.122Z" fill="#237B75"/>
<path d="M97.7671 201.25H100.351L100.285 213.749H87.8119L87.825 212.256H97.7016L97.7671 201.25Z" fill="#237B75"/>
<path d="M298.133 234.122H300.717L300.651 246.62H288.177L288.191 245.127H298.067L298.133 234.122Z" fill="#237B75"/>
<path d="M298.133 93.4404H300.717L300.651 105.952H288.177L288.191 104.445H298.067L298.133 93.4404Z" fill="#237B75"/>
<path d="M354.52 126.325H357.104L357.025 138.823H344.564L344.577 137.33H354.454L354.52 126.325Z" fill="#237B75"/>
<path d="M224.93 42.7229C225.844 41.6363 226.328 40.4236 226.328 39.1879C226.328 37.3209 224.999 35.862 223.825 34.5737C223.222 33.9175 222.917 32.8782 222.917 31.4843V21.5523C222.917 16.8564 219.096 13.0361 214.4 13.0361H210.967C206.271 13.0361 202.451 16.8567 202.451 21.5523V31.4843C202.451 32.5508 201.961 33.9285 201.487 34.646C201.337 34.8729 201.118 35.1536 200.884 35.4511C200.063 36.4983 199.04 37.8013 199.04 39.1881C199.04 40.4241 199.524 41.6369 200.437 42.7231C199.58 43.8574 198.972 45.1173 198.677 46.4561C198.64 46.6244 198.681 46.8 198.789 46.9348C198.896 47.069 199.06 47.1475 199.232 47.1475L226.136 47.1472C226.308 47.1472 226.471 47.0693 226.579 46.9345C226.687 46.8003 226.728 46.6241 226.691 46.4559C226.396 45.1171 225.787 43.8566 224.931 42.7229L224.93 42.7229ZM200.176 39.1879C200.176 38.1934 201.064 37.0622 201.777 36.1526C202.026 35.8358 202.26 35.5369 202.434 35.2719C203.007 34.4067 203.586 32.8277 203.586 31.4843L203.586 21.5523C203.586 17.4833 206.897 14.1732 210.966 14.1732H214.399C218.468 14.1732 221.778 17.4838 221.778 21.5523V31.4843C221.778 33.1716 222.185 34.4696 222.984 35.3407C224.275 36.7579 225.189 37.8632 225.189 39.1879C225.189 40.1099 224.848 40.9998 224.182 41.8406C222.236 39.745 219.386 38.1929 216.093 37.5726V34.999C218.777 33.7203 220.641 30.995 220.64 27.8532L221.038 21.4857C221.057 21.1877 220.842 20.9263 220.546 20.8864C219.787 20.7846 219.086 20.6379 218.445 20.4458C218.085 20.3504 217.76 20.2321 217.491 20.1291C216.835 19.876 216.222 19.5651 215.67 19.2052C215.442 19.0562 215.137 19.0905 214.948 19.2887C214.383 19.8811 213.68 20.3933 212.856 20.8146C212.157 21.1785 211.351 21.4763 210.455 21.7004C208.871 22.1011 207.035 22.2501 205.001 22.1443C204.838 22.1369 204.682 22.1971 204.568 22.312C204.454 22.4275 204.394 22.5854 204.404 22.7476L204.722 27.8176C204.722 30.9848 206.585 33.7171 209.27 34.9979V37.5728C205.976 38.1931 203.126 39.7451 201.181 41.8408C200.515 41 200.174 40.1109 200.174 39.188L200.176 39.1879ZM212.683 34.6397C208.921 34.6397 205.861 31.5792 205.86 27.7823L205.581 23.3051C207.483 23.3569 209.211 23.1886 210.734 22.8031C211.714 22.5582 212.605 22.2282 213.379 21.8252C214.161 21.4254 214.853 20.948 215.441 20.4006C215.952 20.7018 216.503 20.9673 217.085 21.1914C217.366 21.2983 217.741 21.4353 218.136 21.5399C218.669 21.7003 219.252 21.8328 219.872 21.9356L219.505 27.818C219.505 31.5799 216.445 34.6403 212.683 34.6403L212.683 34.6397ZM210.409 38.0508V35.4412C211.131 35.6567 211.893 35.7767 212.683 35.7767C213.474 35.7767 214.236 35.6574 214.957 35.442V38.0508C214.957 38.3305 215.16 38.5688 215.437 38.6125C216.479 38.7785 217.473 39.0475 218.409 39.396C216.905 39.9838 214.866 40.3249 212.683 40.3249C210.501 40.3249 208.462 39.9838 206.957 39.396C207.893 39.0475 208.887 38.778 209.93 38.6125C210.206 38.5688 210.409 38.3305 210.409 38.0508V38.0508ZM199.972 46.0102C200.768 43.5132 202.812 41.3681 205.559 39.999C207.25 40.9155 209.873 41.462 212.683 41.462C215.494 41.462 218.117 40.9155 219.807 39.999C222.554 41.368 224.598 43.513 225.393 46.0102H199.972Z" fill="#373765"/>
<path d="M405.748 96.6657C405.149 95.3059 405.09 92.7448 405.136 91.6343H401.532L394.869 93.3329L392.892 101.6L397.453 104.009C400.218 104.757 405.992 106.076 406.971 105.368C408.195 104.485 407.923 102.241 407.787 100.949C407.651 99.6572 406.496 98.3654 405.748 96.6657Z" fill="#F6FDFD"/>
<path d="M221.088 36.3656L223.746 32.4092L229.372 36.3656L228.63 46.6277H223.746L221.706 42.0531C221.5 41.6821 221.002 40.7054 220.655 39.7657C220.309 38.8261 220.8 37.1075 221.088 36.3656Z" fill="#F0FCFB"/>
<path d="M248.578 42.2501C249.589 41.0474 250.125 39.7052 250.125 38.3374C250.125 36.2709 248.654 34.6561 247.354 33.2301C246.687 32.5039 246.349 31.3535 246.349 29.8106V18.8173C246.349 13.6196 242.12 9.39111 236.923 9.39111H233.123C227.924 9.39111 223.697 13.6199 223.697 18.8173V29.8106C223.697 30.9911 223.155 32.5159 222.629 33.3101C222.464 33.5613 222.221 33.872 221.962 34.2013C221.053 35.3603 219.921 36.8027 219.921 38.3377C219.921 39.7057 220.456 41.0481 221.468 42.2504C220.519 43.5059 219.846 44.9004 219.519 46.3823C219.478 46.5685 219.524 46.7629 219.643 46.9121C219.762 47.0607 219.943 47.1475 220.134 47.1475L249.912 47.1472C250.103 47.1472 250.284 47.061 250.403 46.9118C250.522 46.7632 250.568 46.5682 250.526 46.382C250.2 44.9001 249.526 43.505 248.578 42.2501ZM221.178 38.3374C221.178 37.2367 222.161 35.9846 222.951 34.9778C223.226 34.6272 223.486 34.2962 223.678 34.0029C224.312 33.0453 224.953 31.2976 224.953 29.8106L224.953 18.8173C224.953 14.3135 228.618 10.6497 233.121 10.6497H236.921C241.425 10.6497 245.089 14.3141 245.089 18.8173V29.8106C245.089 31.6783 245.539 33.1149 246.423 34.0791C247.852 35.6477 248.864 36.8712 248.864 38.3374C248.864 39.358 248.487 40.3429 247.75 41.2736C245.596 38.954 242.441 37.2361 238.796 36.5495V33.7009C241.767 32.2856 243.83 29.269 243.829 25.7914L244.27 18.7435C244.291 18.4137 244.053 18.1244 243.725 18.0803C242.885 17.9676 242.109 17.8052 241.399 17.5926C241.001 17.487 240.641 17.356 240.343 17.242C239.617 16.9619 238.939 16.6178 238.328 16.2194C238.076 16.0545 237.738 16.0924 237.529 16.3118C236.904 16.9675 236.126 17.5344 235.214 18.0007C234.44 18.4036 233.547 18.7331 232.556 18.9812C230.803 19.4248 228.771 19.5897 226.519 19.4725C226.339 19.4644 226.166 19.531 226.039 19.6582C225.913 19.786 225.847 19.9608 225.859 20.1403L226.21 25.7521C226.21 29.2578 228.273 32.282 231.244 33.6997V36.5497C227.599 37.2363 224.444 38.9542 222.29 41.2738C221.553 40.3431 221.176 39.359 221.176 38.3375L221.178 38.3374ZM235.022 33.3032C230.858 33.3032 227.471 29.9157 227.469 25.713L227.161 20.7574C229.266 20.8148 231.179 20.6285 232.865 20.2018C233.95 19.9307 234.936 19.5655 235.792 19.1193C236.658 18.6769 237.424 18.1485 238.074 17.5425C238.641 17.8759 239.25 18.1698 239.894 18.4179C240.205 18.5361 240.62 18.6878 241.058 18.8036C241.648 18.9811 242.292 19.1278 242.98 19.2415L242.573 25.7526C242.573 29.9165 239.186 33.3039 235.022 33.3039L235.022 33.3032ZM232.505 37.0788V34.1903C233.304 34.4288 234.147 34.5617 235.022 34.5617C235.897 34.5617 236.741 34.4297 237.539 34.1912V37.0788C237.539 37.3884 237.764 37.6522 238.07 37.7005C239.224 37.8842 240.324 38.182 241.36 38.5677C239.695 39.2184 237.438 39.5959 235.022 39.5959C232.607 39.5959 230.35 39.2184 228.684 38.5677C229.721 38.182 230.821 37.8837 231.975 37.7005C232.28 37.6522 232.505 37.3884 232.505 37.0788ZM220.953 45.8887C221.833 43.1249 224.096 40.7506 227.137 39.2352C229.008 40.2496 231.911 40.8545 235.022 40.8545C238.133 40.8545 241.037 40.2496 242.907 39.2352C245.948 40.7505 248.21 43.1246 249.091 45.8887H220.953Z" fill="#373765"/>
<path d="M407.85 106.783C408.74 106.081 409.211 104.988 409.211 103.588C409.211 101.473 407.917 99.0507 406.774 96.9114C406.187 95.8192 405.89 94.4651 405.89 92.8862V81.6358C405.89 76.3166 402.171 69.7765 397.6 67.0569L394.257 65.0685C389.685 62.3484 385.967 64.464 385.967 69.7829V81.0333C385.967 82.2413 385.49 83.5183 385.028 84.0561C384.883 84.2266 384.669 84.4174 384.442 84.6191C383.642 85.3295 382.646 86.2131 382.646 87.784C382.646 89.1841 383.117 90.838 384.007 92.5976C383.173 93.3862 382.581 94.4612 382.293 95.8067C382.257 95.9759 382.297 96.1986 382.402 96.4137C382.507 96.628 382.666 96.8117 382.833 96.9112L409.024 112.493C409.192 112.592 409.351 112.599 409.455 112.508C409.56 112.419 409.601 112.243 409.564 112.031C409.277 110.343 408.684 108.563 407.851 106.783L407.85 106.783ZM383.752 88.4416C383.752 87.3152 384.617 86.5482 385.311 85.931C385.553 85.7161 385.782 85.5134 385.951 85.3139C386.508 84.6655 387.072 83.2124 387.072 81.6907L387.072 70.4405C387.072 65.8313 390.295 63.9992 394.256 66.3555L397.598 68.3439C401.559 70.7006 404.781 76.3677 404.781 80.9763V92.2266C404.781 94.1379 405.177 95.8436 405.955 97.2933C407.212 99.6464 408.102 101.428 408.102 102.928C408.102 103.973 407.77 104.783 407.122 105.35C405.227 101.849 402.453 98.4405 399.247 95.8306V92.9154C401.86 93.0214 403.674 91.0137 403.674 87.4545L404.061 80.4723C404.079 80.1456 403.87 79.725 403.582 79.5086C402.844 78.9538 402.161 78.3816 401.537 77.7926C401.186 77.476 400.87 77.1537 400.608 76.8812C399.969 76.2146 399.373 75.5074 398.835 74.78C398.613 74.4792 398.317 74.3415 398.132 74.4564C397.583 74.8005 396.899 74.9736 396.096 74.9734C395.416 74.981 394.631 74.851 393.759 74.5862C392.217 74.1228 390.43 73.2283 388.45 71.9304C388.291 71.8276 388.139 71.8052 388.027 71.8693C387.917 71.9342 387.859 72.0785 387.869 72.2681L388.177 78.1948C388.177 81.7825 389.992 85.9568 392.605 88.9624V91.8791C389.399 90.6743 386.625 90.7818 384.73 92.0286C384.082 90.6906 383.75 89.4859 383.75 88.4406L383.752 88.4416ZM395.928 90.5336C392.266 88.3549 389.287 83.1157 389.285 78.814L389.014 73.5812C390.865 74.7413 392.548 75.5515 394.03 75.9969C394.985 76.2872 395.852 76.4294 396.605 76.4209C397.366 76.4211 398.04 76.2811 398.612 76.0013C399.11 76.6389 399.647 77.2588 400.213 77.8494C400.486 78.1332 400.852 78.5057 401.236 78.853C401.755 79.3435 402.322 79.8308 402.926 80.3068L402.569 86.7574C402.569 91.0186 399.59 92.7128 395.928 90.5341L395.928 90.5336ZM393.714 93.0805V90.1244C394.417 90.7864 395.159 91.3638 395.928 91.8216C396.697 92.2793 397.439 92.5857 398.142 92.7595V95.7146C398.142 96.0314 398.339 96.419 398.608 96.6284C399.623 97.4202 400.591 98.3006 401.502 99.2376C400.038 99.0323 398.053 98.2375 395.928 96.9735C393.803 95.7095 391.819 94.1423 390.354 92.6049C391.265 92.7525 392.233 93.0228 393.248 93.4392C393.516 93.5493 393.714 93.3973 393.714 93.0805V93.0805ZM383.554 96.0517C384.328 93.684 386.318 92.4379 388.993 92.4783C390.638 94.4954 393.192 96.6336 395.928 98.2613C398.664 99.8892 401.218 100.79 402.863 100.73C405.537 103.872 407.527 107.485 408.301 110.775L383.554 96.0517Z" fill="#373765"/>
<path d="M91.0124 23.2308C92.0894 22.6109 92.9656 23.1123 92.9656 24.343L93.0842 66.7064C93.0842 67.9371 92.2172 69.4504 91.1402 70.0703L83.5102 74.4735C83.6197 74.4097 83.7293 74.2912 83.8023 74.1453C83.8753 73.9995 83.9118 73.8536 83.8935 73.7351C83.8753 73.6257 83.8662 73.4981 83.8479 73.3704L91.1311 69.1678C91.77 68.7941 92.2902 67.9007 92.2902 67.1622L92.1807 28.6277L92.3541 28.5274V27.6249L92.1807 27.7252L92.1716 24.7988C92.1716 24.0604 91.6513 23.7687 91.0033 24.1333L42.8504 51.9016C42.2116 52.2753 41.6913 53.1687 41.6913 53.9072L41.7005 56.8335L41.0799 57.189V58.0915L41.7005 57.736L41.81 96.2706C41.81 97.009 42.3302 97.3007 42.9782 96.9361L50.2614 92.7334C50.2431 92.8793 50.234 93.0252 50.2157 93.1528C50.1975 93.2895 50.234 93.3989 50.307 93.4536C50.38 93.5083 50.4895 93.4992 50.6082 93.4354L42.9782 97.8386C41.9013 98.4585 41.0251 97.9571 41.0251 96.7264L40.9064 54.363C40.9064 53.1323 41.7735 51.619 42.8504 50.9991L91.0124 23.2308Z" fill="#373765"/>
<path d="M42.8599 51.9015C42.2211 52.2753 41.7008 53.1687 41.7008 53.9071L41.71 56.8335L92.181 27.7251L92.1719 24.7988C92.1719 24.0604 91.6517 23.7687 91.0037 24.1333L42.8599 51.9015ZM89.2148 28.7006C88.5668 29.0744 88.0283 28.7735 88.0283 28.026C88.0283 27.2784 88.5577 26.3668 89.2057 25.993C89.8537 25.6193 90.3922 25.9201 90.3922 26.6677C90.3922 27.4152 89.8628 28.3268 89.2148 28.7006ZM83.5471 31.9733C82.8991 32.3471 82.3606 32.0463 82.3606 31.2987C82.3606 30.5512 82.89 29.6396 83.538 29.2658C84.186 28.892 84.7245 29.1929 84.7245 29.9404C84.7245 30.6788 84.1951 31.5905 83.5471 31.9733ZM86.3764 30.3324C85.7284 30.7062 85.1899 30.4053 85.1899 29.6578C85.1899 28.9103 85.7193 27.9986 86.3673 27.6249C87.0153 27.2511 87.5538 27.5519 87.5538 28.2995C87.5538 29.047 87.0335 29.9586 86.3764 30.3324Z" fill="#040434"/>
<path d="M89.2055 26.8957C89.4245 26.768 89.5979 26.8683 89.5979 27.1236C89.5979 27.3697 89.4245 27.6797 89.2055 27.7982C88.9864 27.9167 88.813 27.8255 88.813 27.5703C88.813 27.3241 88.9864 27.0233 89.2055 26.8957Z" fill="#171753"/>
<path d="M88.0286 28.026C88.0286 28.7735 88.5671 29.0744 89.2151 28.7006C89.8631 28.3268 90.3925 27.4152 90.3925 26.6677C90.3925 25.9201 89.8631 25.6193 89.206 25.9931C88.5488 26.3668 88.0286 27.2785 88.0286 28.026ZM89.206 27.7981C88.9869 27.9257 88.8135 27.8254 88.8135 27.5702C88.8135 27.324 88.9869 27.0141 89.206 26.8956C89.425 26.7679 89.5984 26.8682 89.5984 27.1235C89.5984 27.3696 89.425 27.6705 89.206 27.7981Z" fill="#373765"/>
<path d="M63.4411 69.2864C64.3994 70.0978 65.3669 70.6083 67.1375 69.5782C68.9081 68.5571 69.8755 66.9344 70.8247 65.02C70.9707 66.269 71.1715 67.2809 71.2445 67.609C71.062 68.3201 70.0398 71.8299 67.2835 73.4161C64.3082 75.13 63.2312 72.8327 63.0395 72.3404C63.1034 71.9393 63.3042 70.6995 63.4411 69.2864Z" fill="#EDFBFA"/>
<path d="M86.376 28.5275C86.595 28.3999 86.7684 28.5001 86.7684 28.7554C86.7684 29.0015 86.595 29.3115 86.376 29.43C86.157 29.5576 85.9836 29.4573 85.9836 29.2021C85.9836 28.956 86.157 28.6551 86.376 28.5275Z" fill="#040434"/>
<path d="M62.2457 72.723C62.2274 72.8142 62.2366 72.8962 62.2548 72.96C62.2639 72.9783 62.3278 73.1879 62.483 73.4706L54.7252 81.9122C54.6796 81.9578 52.0054 84.7474 51.5764 88.1204C51.3574 89.8161 51.1931 91.2473 51.0836 92.2683L83.073 73.817C82.9544 72.9327 82.781 71.6929 82.5528 70.2525C82.1056 67.3809 79.4223 67.6817 79.3949 67.6908L71.7832 68.2013C71.9566 67.6817 72.0296 67.3444 72.0387 67.3171C72.0479 67.2715 72.057 67.235 72.057 67.1894L79.687 66.6789C79.9152 66.6516 82.8175 66.369 83.3286 69.6599C83.5659 71.1732 83.7484 72.4586 83.8671 73.352C83.8853 73.4797 83.9036 73.6073 83.9127 73.7167C83.931 73.8352 83.8945 73.9902 83.8214 74.1269C83.7484 74.2637 83.6389 74.3913 83.5294 74.4551L50.6364 93.4261C50.5269 93.4899 50.4173 93.499 50.3352 93.4444C50.2622 93.3897 50.2257 93.2803 50.2439 93.1435C50.2622 93.0159 50.2713 92.87 50.2896 92.7242C50.4082 91.694 50.5725 90.199 50.8007 88.4213C51.2935 84.5468 54.1958 81.4838 54.4149 81.2559L62.2457 72.723Z" fill="#373765"/>
<path d="M73.964 53.3508C74.3473 53.4511 74.3382 54.1348 74.3017 54.6453C74.11 57.1614 73.5077 59.0029 72.6132 59.8143C72.5585 60.8262 72.4763 61.4187 71.5271 63.5702C71.4267 63.7707 71.3446 63.944 71.2625 64.108C71.1073 64.418 70.9613 64.728 70.8153 65.0197C69.8661 66.925 68.8986 68.5477 67.128 69.5778C65.3574 70.5988 64.39 70.0883 63.4317 69.2861C63.2857 69.1585 63.1305 69.0308 62.9845 68.8941C62.9023 68.8212 62.8202 68.7482 62.7381 68.6753C61.7615 67.6087 61.6793 67.1164 61.6155 66.1683C60.721 66.3871 60.1004 65.2567 59.8996 62.9594C59.8631 62.4945 59.8449 61.8107 60.2282 61.2729C60.3103 61.1635 60.4107 61.045 60.5476 60.9447C60.6389 61.3276 60.7302 61.7196 60.7393 61.8381C60.721 61.8563 60.7028 61.8472 60.6845 61.8381C60.6663 61.9475 60.6572 62.1389 60.6845 62.4215C60.8853 64.6824 61.4603 65.4026 61.9531 65.1199C62.1813 64.9832 62.3547 65.0744 62.373 65.3023C62.3821 65.4026 62.3821 65.4937 62.3912 65.5849C62.4369 66.4053 62.4551 66.7882 63.3495 67.7728C63.4317 67.8457 63.5138 67.9187 63.596 67.9916C64.7186 68.9944 65.4578 69.6507 67.128 68.6935C68.7891 67.7363 69.5284 66.223 70.6418 63.9348C70.724 63.7707 70.797 63.6066 70.8791 63.4426C71.7644 61.4279 71.7827 61.0267 71.8283 60.1516C71.8375 60.0604 71.8374 59.9601 71.8466 59.8507C71.8648 59.6046 72.0291 59.322 72.239 59.2035C72.7593 58.9026 73.3342 57.517 73.5168 55.0373C73.535 54.7638 73.535 54.5998 73.5168 54.4995C73.5807 54.1713 73.6354 53.7975 73.6902 53.3964C73.8089 53.3326 73.9001 53.3326 73.964 53.3508Z" fill="#373765"/>
<path d="M71.518 63.6069C71.6731 65.4484 72.0291 67.0711 72.0291 67.0894C72.0382 67.1258 72.0382 67.1532 72.0382 67.1988C72.0382 67.2352 72.0291 67.2808 72.02 67.3264C72.0108 67.3537 71.9378 67.691 71.7644 68.2107C71.6093 68.6938 71.3628 69.332 71.0251 70.0248C70.0668 71.9848 68.7708 73.4708 67.274 74.3368C65.2662 75.4946 63.9975 75.057 63.2948 74.4918C62.9023 74.1727 62.6377 73.7807 62.4642 73.4708C62.3091 73.1882 62.2452 72.9785 62.2361 72.9603C62.2178 72.8964 62.2087 72.8235 62.2269 72.7324C62.2543 72.5865 62.5829 70.6265 62.7198 68.6665C62.811 68.7394 62.8932 68.8215 62.9753 68.8853C63.1305 69.022 63.2765 69.1588 63.4226 69.2773C63.2857 70.6903 63.094 71.9301 63.021 72.3404C63.2126 72.8417 64.2896 75.1299 67.2649 73.4161C70.0212 71.8298 71.0434 68.3201 71.2259 67.609C71.1529 67.2808 70.9521 66.2689 70.8061 65.02C70.9521 64.7191 71.1073 64.4183 71.2533 64.1083C71.3537 63.9442 71.4358 63.7801 71.518 63.6069Z" fill="#373765"/>
<path d="M85.1897 29.6578C85.1897 30.4054 85.7282 30.7062 86.3762 30.3324C87.0242 29.9587 87.5536 29.047 87.5536 28.2995C87.5536 27.552 87.0242 27.2511 86.3671 27.6249C85.7099 27.9987 85.1897 28.9103 85.1897 29.6578ZM86.3762 29.4299C86.1572 29.5575 85.9837 29.4573 85.9837 29.202C85.9837 28.9559 86.1572 28.6459 86.3762 28.5274C86.5953 28.3998 86.7687 28.5001 86.7687 28.7553C86.7687 29.0015 86.5953 29.3023 86.3762 29.4299Z" fill="#373765"/>
<path d="M62.4731 73.4709C62.6373 73.7808 62.902 74.1728 63.3036 74.4919C64.0064 75.0571 65.275 75.4947 67.2829 74.3369C68.7797 73.4709 70.0757 71.9849 71.034 70.0249C71.3717 69.323 71.6181 68.6848 71.7733 68.2108L79.3668 67.7094C79.4124 67.7003 82.0957 67.3994 82.5429 70.271C82.7711 71.7114 82.9445 72.9421 83.0631 73.8355L51.0737 92.2869C51.1832 91.2659 51.3566 89.8346 51.5666 88.139C51.9955 84.7568 54.6788 81.9673 54.697 81.949L62.4731 73.4709Z" fill="#040434"/>
<path d="M71.6186 50.7256C71.7007 50.8988 71.7737 51.1814 71.8285 51.5916C71.7464 51.2361 71.6733 50.9535 71.6186 50.7256Z" fill="#373765"/>
<path d="M82.3607 31.2984C82.3607 32.046 82.8992 32.3468 83.5472 31.9731C84.1951 31.5993 84.7245 30.6877 84.7245 29.9401C84.7245 29.1926 84.186 28.8917 83.538 29.2655C82.89 29.6302 82.3607 30.5509 82.3607 31.2984ZM83.5472 31.0614C83.3281 31.1891 83.1547 31.0888 83.1547 30.8335C83.1547 30.5874 83.3281 30.2774 83.5472 30.1589C83.7662 30.0313 83.9396 30.1316 83.9396 30.3868C83.9396 30.633 83.7571 30.9429 83.5472 31.0614Z" fill="#373765"/>
<path d="M62.1807 58.0903C62.1807 57.9632 62.1898 57.8451 62.1989 57.7271C62.1898 57.836 62.1807 57.9632 62.1807 58.0903Z" fill="#373765"/>
<path d="M72.4122 44.499C71.2987 44.0159 69.7016 44.262 67.6845 45.2466C67.4199 45.3742 67.1734 45.5109 66.9362 45.6477C64.4445 47.088 63.4132 48.9022 63.1942 49.3307C63.1394 49.3854 63.039 49.4765 62.9569 49.5494C62.4275 50.0235 61.4327 50.9078 60.6387 52.7128C59.9542 54.2626 59.8081 56.0949 60.1458 59.0486C60.1915 59.4497 60.3466 60.0788 60.4927 60.6804C60.5109 60.7625 60.5383 60.8536 60.5565 60.9448C60.6478 61.3277 60.7391 61.7197 60.7482 61.8656C60.7756 62.4308 61.0037 62.4217 61.2137 62.3031C61.5605 62.1026 61.7156 61.6741 61.9438 60.3249C62.0624 59.6412 62.1811 58.7022 62.1811 58.1005C62.1811 57.9729 62.1902 57.8544 62.1994 57.7359C62.245 57.2162 62.3819 56.7696 62.6009 56.4231C62.8017 56.1041 63.0573 55.8944 63.2855 55.7668C63.3676 55.7212 63.4497 55.6756 63.5227 55.6482C63.6323 55.6027 63.76 55.548 63.9152 55.4933C64.7549 55.156 66.279 54.5543 68.0679 53.5241C68.15 53.4786 68.2413 53.4239 68.3234 53.3783C69.875 52.4575 70.5868 51.4183 70.9337 50.9169C70.961 50.8713 70.9975 50.8257 71.0249 50.7893C71.1253 50.7072 71.1983 50.6525 71.2622 50.6161C71.3626 50.5614 71.4174 50.5614 71.4539 50.5705C71.5178 50.5887 71.5725 50.6434 71.6273 50.7528C71.7094 50.926 71.7825 51.2086 71.8372 51.6188C71.8829 51.947 71.9102 52.3482 71.9376 52.8222C71.9559 53.2962 72.0654 53.9617 72.2114 54.5087C72.4396 55.3748 72.6404 55.63 72.9689 55.475C72.9781 55.4659 72.9963 55.4568 73.0146 55.4477C73.1606 55.3656 73.407 55.1468 73.5165 54.5908C73.5257 54.5543 73.5257 54.5269 73.5348 54.4905C73.5987 54.1623 73.6534 53.7885 73.7082 53.3874C73.9911 51.2086 74.1554 48.3096 74.128 47.6897C74.0368 46.0488 73.4527 44.9548 72.4122 44.499ZM72.9142 53.6427C72.8138 53.2233 72.7316 52.7219 72.7043 52.3026C72.613 50.4611 72.3939 49.6953 71.9011 49.5586C71.6912 49.4947 71.4539 49.5768 71.244 49.7044C71.0706 49.8047 70.9154 49.9323 70.7876 50.0417C70.6599 50.1511 70.5686 50.2879 70.4408 50.4702C70.1488 50.9078 69.592 51.71 68.3052 52.4758C68.223 52.5305 68.1318 52.5761 68.0496 52.6216C66.3338 53.6153 64.9009 54.1805 64.0247 54.5269C63.8696 54.5908 63.7327 54.6455 63.6231 54.691C63.5045 54.7366 63.3858 54.8004 63.2763 54.8642C62.8109 55.1286 62.391 55.5389 62.0716 56.0402C61.6153 56.7513 61.3871 57.5991 61.3779 58.5563C61.3779 58.9575 61.3141 59.4953 61.241 60.0241C61.1041 59.468 60.949 58.8481 60.9125 58.4925C60.6022 55.8032 60.7117 54.1258 61.2776 52.8587C61.9073 51.4274 62.6557 50.7619 63.1577 50.3152C63.4315 50.0691 63.6505 49.8776 63.7783 49.595C63.7874 49.5768 64.5997 47.9085 66.9362 46.5593C67.1461 46.4408 67.3742 46.3132 67.6115 46.2038C69.4551 45.3104 70.888 45.0733 71.8829 45.5018C72.7681 45.8847 73.2519 46.7963 73.3157 48.2002C73.3431 48.6652 73.1971 51.5003 72.9142 53.6427Z" fill="#373765"/>
<path d="M92.3542 27.625V28.5275L92.19 28.6278L41.7098 57.727L41.0983 58.0916L41.0891 57.18L41.7098 56.8245L92.1808 27.7162L92.3542 27.625Z" fill="#373765"/>
<path d="M75.9226 66.2398L83.0975 65.2485L84.9384 70.4881L83.8055 73.934L74.2704 79.171V75.5389C73.9872 74.5162 73.7229 72.027 74.9313 70.2521C76.1397 68.4773 76.0956 66.8377 75.9226 66.2398Z" fill="#EEFBFA"/>
<path d="M59.2363 76.9735V79.4849L57.7499 81.5337L51.1886 85.0268L50.7638 84.6964L56.9947 76.0581L59.2363 76.9735Z" fill="#EDFBFA"/>
<path d="M74.3608 76.2536C73.7419 75.7653 73.4142 75.0045 73.4142 74.0305C73.4142 72.5589 74.3145 70.8733 75.1098 69.3847C75.518 68.6247 75.7248 67.6825 75.7248 66.5838V58.7554C75.7248 55.0541 78.3128 50.5033 81.4936 48.6109L83.8192 47.2273C87.0006 45.3346 89.5879 46.8067 89.5879 50.5078V58.3361C89.5879 59.1768 89.9196 60.0653 90.2411 60.4396C90.3423 60.5582 90.4911 60.691 90.6492 60.8313C91.2058 61.3256 91.8986 61.9405 91.8986 63.0336C91.8986 64.0078 91.5709 65.1586 90.952 66.3831C91.5324 66.9317 91.9443 67.6798 92.1443 68.616C92.1694 68.7337 92.1415 68.8887 92.0685 69.0384C91.9957 69.1875 91.8849 69.3153 91.7685 69.3846L73.5442 80.2267C73.4274 80.2961 73.3169 80.3005 73.2441 80.2375C73.1709 80.1753 73.1429 80.0531 73.1683 79.9053C73.3683 78.7311 73.7807 77.4923 74.3606 76.2537L74.3608 76.2536ZM91.1292 63.4912C91.1292 62.7073 90.5276 62.1736 90.0443 61.7441C89.876 61.5946 89.717 61.4536 89.5992 61.3148C89.2114 60.8636 88.819 59.8525 88.819 58.7936L88.8189 50.9653C88.8189 47.7581 86.5763 46.4833 83.8203 48.1229L81.4947 49.5065C78.7384 51.1463 76.4962 55.0897 76.4962 58.2965V66.1249C76.4962 67.4548 76.2208 68.6417 75.6794 69.6504C74.8048 71.2878 74.1855 72.5275 74.1855 73.5715C74.1855 74.2983 74.4166 74.8622 74.8676 75.2567C76.1859 72.8206 78.1164 70.4487 80.3471 68.6326V66.6041C78.529 66.6779 77.2666 65.2809 77.267 62.8043L76.9974 57.9458C76.9847 57.7185 77.1303 57.4258 77.3306 57.2753C77.8446 56.8892 78.3195 56.4911 78.7539 56.0812C78.9977 55.8609 79.218 55.6366 79.4002 55.447C79.8447 54.9831 80.2598 54.4911 80.6338 53.9849C80.7881 53.7756 80.9946 53.6798 81.1229 53.7597C81.5052 53.9992 81.9813 54.1197 82.5397 54.1195C83.013 54.1248 83.5595 54.0343 84.1661 53.8501C85.2391 53.5276 86.4826 52.9052 87.8604 52.0021C87.971 51.9305 88.0769 51.9149 88.1542 51.9595C88.2313 52.0047 88.2717 52.1051 88.2648 52.237L88.0499 56.3611C88.0499 58.8575 86.7874 61.7621 84.969 63.8535V65.883C87.1999 65.0447 89.1304 65.1195 90.4486 65.9871C90.8995 65.0561 91.1306 64.2178 91.1306 63.4904L91.1292 63.4912ZM82.6567 64.9468C85.205 63.4308 87.2781 59.7852 87.2789 56.7919L87.4677 53.1507C86.1795 53.958 85.0089 54.5218 83.9771 54.8317C83.3131 55.0337 82.7097 55.1326 82.1857 55.1267C81.6558 55.1269 81.1871 55.0294 80.789 54.8348C80.4424 55.2784 80.0692 55.7097 79.6752 56.1207C79.4849 56.3182 79.2308 56.5774 78.9631 56.8191C78.6019 57.1604 78.2075 57.4995 77.787 57.8307L78.0357 62.3192C78.0357 65.2843 80.1088 66.4632 82.6571 64.9472L82.6567 64.9468ZM84.1972 66.719V64.6621C83.7084 65.1227 83.1921 65.5245 82.6567 65.843C82.1214 66.1616 81.6051 66.3747 81.1163 66.4957V68.552C81.1163 68.7724 80.9788 69.0421 80.7917 69.1878C80.0854 69.7388 79.4122 70.3514 78.7779 71.0034C79.7969 70.8605 81.1784 70.3075 82.6567 69.428C84.1351 68.5484 85.5162 67.4579 86.5355 66.3881C85.9013 66.4908 85.228 66.6789 84.5218 66.9686C84.3351 67.0453 84.1972 66.9395 84.1972 66.719V66.719ZM91.2669 68.7865C90.7281 67.139 89.3436 66.2719 87.4825 66.3C86.3375 67.7036 84.5607 69.1914 82.657 70.324C80.7529 71.4568 78.9757 72.0834 77.8315 72.0418C75.9702 74.2282 74.5857 76.7425 74.0471 79.0313L91.2669 68.7865Z" fill="#373765"/>
<path d="M42.7793 87.0895C42.1603 86.6013 41.8326 85.8404 41.8326 84.8664C41.8326 83.3949 42.733 81.7093 43.5283 80.2207C43.9365 79.4607 44.1433 78.5184 44.1433 77.4198V69.5914C44.1433 65.8901 46.7313 61.3392 49.912 59.4469L52.2377 58.0633C55.4191 56.1705 58.0064 57.6426 58.0064 61.3437V69.1721C58.0064 70.0127 58.338 70.9012 58.6595 71.2755C58.7608 71.3941 58.9095 71.5269 59.0677 71.6673C59.6242 72.1616 60.3171 72.7764 60.3171 73.8695C60.3171 74.8437 59.9894 75.9946 59.3704 77.219C59.9509 77.7677 60.3628 78.5157 60.5627 79.452C60.5878 79.5697 60.56 79.7247 60.4869 79.8744C60.4142 80.0235 60.3033 80.1513 60.1869 80.2205L41.9626 91.0626C41.8459 91.1321 41.7353 91.1364 41.6626 91.0735C41.5894 91.0112 41.5613 90.8891 41.5868 90.7413C41.7867 89.5671 42.1992 88.3282 42.7791 87.0896L42.7793 87.0895ZM59.5476 74.3271C59.5476 73.5433 58.9461 73.0096 58.4628 72.5801C58.2945 72.4306 58.1355 72.2895 58.0177 72.1507C57.6298 71.6995 57.2375 70.6884 57.2375 69.6295L57.2373 61.8012C57.2373 58.594 54.9947 57.3192 52.2388 58.9588L49.9132 60.3424C47.1569 61.9822 44.9147 65.9257 44.9147 69.1324V76.9608C44.9147 78.2908 44.6392 79.4777 44.0978 80.4864C43.2233 82.1238 42.604 83.3634 42.604 84.4075C42.604 85.1342 42.8351 85.6982 43.286 86.0926C44.6043 83.6565 46.5349 81.2847 48.7656 79.4686V77.4401C46.9475 77.5139 45.6851 76.1168 45.6854 73.6402L45.4158 68.7817C45.4031 68.5544 45.5487 68.2618 45.749 68.1112C46.2631 67.7251 46.7379 67.327 47.1724 66.9171C47.4162 66.6968 47.6364 66.4726 47.8187 66.2829C48.2631 65.8191 48.6783 65.327 49.0522 64.8209C49.2066 64.6116 49.4131 64.5157 49.5413 64.5957C49.9237 64.8351 50.3997 64.9556 50.9581 64.9555C51.4314 64.9607 51.978 64.8703 52.5845 64.686C53.6575 64.3636 54.9011 63.7412 56.2789 62.838C56.3894 62.7665 56.4953 62.7509 56.5727 62.7954C56.6497 62.8406 56.6901 62.941 56.6832 63.073L56.4683 67.197C56.4683 69.6934 55.2059 72.5981 53.3874 74.6895V76.719C55.6184 75.8807 57.5489 75.9554 58.867 76.823C59.318 75.892 59.549 75.0537 59.549 74.3264L59.5476 74.3271ZM51.0752 75.7828C53.6234 74.2667 55.6965 70.6211 55.6974 67.6278L55.8862 63.9867C54.5979 64.7939 53.4273 65.3577 52.3956 65.6676C51.7316 65.8696 51.1281 65.9686 50.6041 65.9626C50.0743 65.9628 49.6056 65.8653 49.2074 65.6707C48.8608 66.1144 48.4876 66.5457 48.0937 66.9567C47.9034 67.1541 47.6493 67.4133 47.3816 67.655C47.0204 67.9963 46.626 68.3354 46.2054 68.6666L46.4542 73.1552C46.4542 76.1203 48.5273 77.2991 51.0755 75.7831L51.0752 75.7828ZM52.6156 77.555V75.4981C52.1269 75.9587 51.6106 76.3605 51.0752 76.679C50.5398 76.9975 50.0235 77.2107 49.5348 77.3316V79.3879C49.5348 79.6083 49.3972 79.878 49.2102 80.0237C48.5039 80.5747 47.8306 81.1873 47.1964 81.8393C48.2154 81.6964 49.5968 81.1434 51.0752 80.2639C52.5536 79.3843 53.9346 78.2938 54.954 77.2241C54.3198 77.3267 53.6465 77.5148 52.9402 77.8046C52.7535 77.8812 52.6156 77.7754 52.6156 77.555V77.555ZM59.6854 79.6225C59.1466 77.9749 57.7621 77.1078 55.901 77.1359C54.756 78.5395 52.9791 80.0274 51.0755 81.1599C49.1714 82.2928 47.3942 82.9194 46.2499 82.8777C44.3887 85.0641 43.0042 87.5784 42.4655 89.8672L59.6854 79.6225Z" fill="#373765"/>
<path d="M195.386 0.753418H253.997C255.239 0.753418 256.247 1.76078 256.247 3.00342V44.1474C256.247 45.3901 255.239 46.3974 253.997 46.3974H195.386C194.143 46.3974 193.136 45.3901 193.136 44.1474V3.00341C193.136 1.76078 194.143 0.753418 195.386 0.753418Z" stroke="#373765" stroke-width="1.5"/>
<path d="M256.997 6.83984H192.386" stroke="#373765" stroke-width="1.5"/>
<path d="M199.38 3.73376C199.38 4.133 199.063 4.44945 198.664 4.44945C198.265 4.44945 197.948 4.133 197.948 3.73376C197.948 3.33452 198.265 3.01807 198.664 3.01807C199.046 3.01807 199.38 3.3841 199.38 3.73376Z" stroke="#373765"/>
<path d="M204.31 3.73376C204.31 4.133 203.994 4.44945 203.595 4.44945C203.195 4.44945 202.879 4.133 202.879 3.73376C202.879 3.3418 203.184 3.02964 203.573 3.01838C204.066 3.07298 204.31 3.41247 204.31 3.73376Z" stroke="#373765"/>
<path d="M208.968 3.86852C208.968 4.26776 208.652 4.58421 208.253 4.58421C207.853 4.58421 207.537 4.26776 207.537 3.86852C207.537 3.47727 207.841 3.16554 208.229 3.15321C208.697 3.20996 208.968 3.51644 208.968 3.86852Z" stroke="#373765"/>
<path d="M224.691 91.6593V46.3359" stroke="#373765" stroke-width="1.8"/>
<path d="M404.314 96.2585L454.67 127.116C456.554 128.271 458.095 130.997 458.113 133.206L458.445 173.594C458.463 175.803 456.95 176.658 455.067 175.504L404.711 144.646C402.828 143.492 401.286 140.765 401.268 138.556L400.937 98.1683C400.918 95.9593 402.431 95.1042 404.314 96.2585Z" fill="#BEF0ED" stroke="#373765" stroke-width="2"/>
<path d="M458.984 136.036L400.102 99.9526" stroke="#373765" stroke-width="2"/>
<path d="M406.691 100.826C406.696 101.478 406.256 101.727 405.7 101.386C405.144 101.046 404.695 100.252 404.69 99.6001C404.684 98.9482 405.125 98.6992 405.681 99.0398C406.236 99.3804 406.686 100.24 406.691 100.826Z" fill="#373765"/>
<path d="M410.748 103.313C410.754 103.964 410.313 104.213 409.758 103.873C409.202 103.532 408.753 102.738 408.748 102.086C408.742 101.435 409.183 101.186 409.738 101.526C410.35 101.966 410.744 102.726 410.748 103.313Z" fill="#373765"/>
<path d="M414.583 105.792C414.588 106.444 414.148 106.693 413.592 106.352C413.036 106.012 412.587 105.218 412.582 104.566C412.577 103.914 413.017 103.665 413.573 104.006C414.129 104.411 414.578 105.14 414.583 105.792Z" fill="#373765"/>
<path d="M417.153 115.193L410.15 110.901C409.966 110.788 409.818 110.872 409.82 111.088C409.822 111.304 409.972 111.57 410.156 111.683L417.16 115.975C417.344 116.088 417.492 116.004 417.49 115.788C417.488 115.572 417.337 115.306 417.153 115.193Z" fill="#237B75"/>
<path d="M426.156 120.71L419.153 116.419C418.968 116.306 418.821 116.389 418.822 116.605C418.824 116.821 418.975 117.088 419.159 117.201L426.162 121.492C426.346 121.605 426.494 121.522 426.492 121.306C426.491 121.09 426.34 120.823 426.156 120.71Z" fill="#237B75"/>
<path d="M423.744 123.254L412.517 116.374C412.333 116.261 412.185 116.345 412.186 116.561C412.188 116.777 412.339 117.043 412.523 117.156L423.75 124.036C423.935 124.149 424.082 124.065 424.081 123.849C424.079 123.633 423.928 123.367 423.744 123.254Z" fill="#373765"/>
<path d="M431.803 128.193L426.412 124.889C426.228 124.776 426.08 124.86 426.082 125.076C426.083 125.292 426.234 125.558 426.418 125.671L431.81 128.975C431.994 129.088 432.142 129.004 432.14 128.788C432.138 128.572 431.987 128.306 431.803 128.193Z" fill="#237B75"/>
<path d="M421.276 125.827L416.718 123.034C416.534 122.922 416.386 123.005 416.388 123.221C416.389 123.437 416.54 123.704 416.724 123.817L421.282 126.61C421.466 126.722 421.614 126.639 421.612 126.423C421.61 126.207 421.46 125.94 421.276 125.827Z" fill="#237B75"/>
<path d="M441.619 138.293L424.944 128.075C424.76 127.963 424.612 128.046 424.614 128.262C424.616 128.478 424.767 128.745 424.951 128.858L441.625 139.076C441.809 139.189 441.957 139.105 441.955 138.889C441.954 138.673 441.803 138.406 441.619 138.293Z" fill="#237B75"/>
<path d="M439.986 141.377L420.81 129.627C420.626 129.514 420.478 129.597 420.48 129.813C420.482 130.029 420.633 130.296 420.817 130.409L439.992 142.16C440.176 142.272 440.324 142.189 440.322 141.973C440.321 141.757 440.17 141.49 439.986 141.377Z" fill="#373765"/>
<path d="M421.344 133.975L415.897 130.637C415.712 130.525 415.565 130.608 415.566 130.824C415.568 131.04 415.719 131.307 415.903 131.42L421.35 134.758C421.534 134.87 421.682 134.787 421.68 134.571C421.678 134.355 421.528 134.088 421.344 133.975Z" fill="#237B75"/>
<path d="M430.014 139.288L424.567 135.95C424.383 135.838 424.235 135.921 424.237 136.137C424.239 136.353 424.39 136.62 424.574 136.733L430.021 140.071C430.205 140.183 430.353 140.1 430.351 139.884C430.349 139.668 430.198 139.401 430.014 139.288Z" fill="#373765"/>
<path d="M429.431 155.925L412.757 145.707C412.573 145.594 412.425 145.678 412.427 145.894C412.428 146.11 412.579 146.377 412.763 146.49L429.437 156.707C429.622 156.82 429.77 156.737 429.768 156.521C429.766 156.305 429.615 156.038 429.431 155.925Z" fill="#373765"/>
<path d="M449.496 168.221L432.822 158.003C432.638 157.89 432.49 157.974 432.492 158.19C432.494 158.406 432.644 158.673 432.828 158.785L449.503 169.003C449.687 169.116 449.835 169.033 449.833 168.817C449.831 168.601 449.68 168.334 449.496 168.221Z" fill="#237B75"/>
<path d="M433.454 154.37L416.89 144.22C416.706 144.108 416.558 144.191 416.56 144.407C416.562 144.623 416.713 144.89 416.897 145.003L433.46 155.153C433.644 155.265 433.792 155.182 433.79 154.966C433.788 154.75 433.638 154.483 433.454 154.37Z" fill="#237B75"/>
<path d="M439.68 158.186L435.567 155.665C435.383 155.552 435.235 155.636 435.237 155.852C435.239 156.068 435.389 156.335 435.574 156.448L439.687 158.968C439.871 159.081 440.019 158.997 440.017 158.781C440.015 158.565 439.864 158.299 439.68 158.186Z" fill="#237B75"/>
<path d="M421.527 142.975L415.691 139.399C415.507 139.286 415.359 139.37 415.361 139.586C415.362 139.802 415.513 140.069 415.697 140.181L421.533 143.758C421.717 143.871 421.865 143.787 421.864 143.571C421.862 143.355 421.711 143.088 421.527 142.975Z" fill="#237B75"/>
<path d="M431.478 149.074L425.642 145.497C425.457 145.384 425.31 145.468 425.311 145.684C425.313 145.9 425.464 146.167 425.648 146.28L431.484 149.856C431.668 149.969 431.816 149.885 431.814 149.669C431.812 149.453 431.662 149.186 431.478 149.074Z" fill="#373765"/>
<path d="M442.15 155.613L436.314 152.037C436.13 151.924 435.982 152.008 435.984 152.224C435.986 152.44 436.136 152.706 436.32 152.819L442.156 156.395C442.341 156.508 442.489 156.425 442.487 156.209C442.485 155.993 442.334 155.726 442.15 155.613Z" fill="#237B75"/>
<path d="M431.664 145.102L423.216 139.925C423.032 139.812 422.884 139.895 422.886 140.111C422.888 140.327 423.038 140.594 423.222 140.707L431.671 145.884C431.855 145.997 432.003 145.913 432.001 145.697C431.999 145.481 431.849 145.215 431.664 145.102Z" fill="#237B75"/>
<path d="M419.104 137.404L410.656 132.227C410.472 132.114 410.324 132.198 410.326 132.414C410.327 132.63 410.478 132.897 410.662 133.01L419.111 138.187C419.295 138.299 419.443 138.216 419.441 138C419.439 137.784 419.288 137.517 419.104 137.404Z" fill="#373765"/>
<path d="M404.755 107.37C404.757 107.64 404.946 107.973 405.176 108.115C405.406 108.256 405.591 108.151 405.589 107.881C405.587 107.611 405.398 107.278 405.168 107.137C404.938 106.996 404.753 107.1 404.755 107.37Z" fill="#373765"/>
<path d="M405.872 142.429C405.874 142.699 405.689 142.804 405.459 142.663V142.663C405.229 142.522 405.041 142.189 405.038 141.919L405.03 140.941C405.028 140.671 405.213 140.566 405.443 140.707V140.707C405.673 140.848 405.862 141.182 405.864 141.452L405.872 142.429ZM405.831 137.475C405.834 137.745 405.649 137.85 405.419 137.709V137.709C405.188 137.568 405 137.235 404.998 136.965L404.99 135.987C404.988 135.717 405.172 135.612 405.403 135.753V135.753C405.633 135.894 405.821 136.228 405.823 136.498L405.831 137.475ZM405.791 132.587C405.794 132.857 405.609 132.961 405.379 132.82V132.82C405.148 132.679 404.96 132.346 404.958 132.076L404.95 131.098C404.947 130.828 405.132 130.723 405.362 130.864V130.864C405.593 131.006 405.781 131.339 405.783 131.609L405.791 132.587ZM405.751 127.633C405.753 127.903 405.568 128.007 405.338 127.866V127.866C405.108 127.725 404.919 127.392 404.917 127.122L404.909 126.144C404.907 125.874 405.092 125.769 405.322 125.91V125.91C405.552 126.052 405.741 126.385 405.743 126.655L405.751 127.633ZM405.71 122.679C405.712 122.949 405.527 123.053 405.297 122.912V122.912C405.067 122.771 404.879 122.438 404.876 122.168L404.868 121.19C404.866 120.92 405.051 120.815 405.281 120.956V120.956C405.511 121.098 405.7 121.431 405.702 121.701L405.71 122.679ZM405.669 117.725C405.672 117.995 405.487 118.099 405.257 117.958V117.958C405.026 117.817 404.838 117.484 404.836 117.214L404.828 116.236C404.826 115.966 405.01 115.861 405.241 116.002V116.002C405.471 116.144 405.659 116.477 405.661 116.747L405.669 117.725ZM405.629 112.771C405.631 113.041 405.446 113.145 405.216 113.004V113.004C404.986 112.863 404.797 112.53 404.795 112.26L404.787 111.282C404.785 111.012 404.97 110.907 405.2 111.048V111.048C405.43 111.189 405.619 111.523 405.621 111.793L405.629 112.771Z" fill="#373765"/>
<path d="M66.5907 75.9484L33.108 96.4666C31.2244 97.6209 29.6827 100.347 29.6646 102.556L29.4517 128.506C29.4336 130.715 30.9459 131.57 32.8295 130.415L66.3122 109.897C68.1958 108.743 69.7374 106.016 69.7555 103.807L69.9684 77.8583C69.9865 75.6492 68.4743 74.7941 66.5907 75.9484Z" fill="#BEF0ED" stroke="#373765" stroke-width="2"/>
<path d="M28.8109 103.292L70.8199 77.5483" stroke="#373765" stroke-width="2"/>
<path d="M38.6187 95.0254C38.6149 95.4904 38.9291 95.6681 39.3256 95.4251C39.7221 95.1821 40.0424 94.6156 40.0462 94.1506C40.05 93.6855 39.7359 93.5079 39.3393 93.7509C38.9428 93.9939 38.6221 94.6068 38.6187 95.0254Z" fill="#373765"/>
<path d="M35.7237 96.7993C35.7199 97.2643 36.034 97.442 36.4306 97.199C36.8271 96.956 37.1474 96.3896 37.1512 95.9245C37.155 95.4594 36.8408 95.2818 36.4443 95.5248C36.0077 95.8386 35.7271 96.3807 35.7237 96.7993Z" fill="#373765"/>
<path d="M32.988 98.5678C32.9841 99.0329 33.2983 99.2105 33.6949 98.9676C34.0914 98.7246 34.4117 98.1581 34.4155 97.6931C34.4193 97.228 34.1051 97.0504 33.7086 97.2934C33.3117 97.5829 32.9918 98.1028 32.988 98.5678Z" fill="#373765"/>
<path d="M40.114 123.508L35.0391 126.438C34.9057 126.515 34.8018 126.452 34.8071 126.298C34.8124 126.144 34.9249 125.957 35.0583 125.88L40.1331 122.95C40.2666 122.873 40.3705 122.935 40.3652 123.089C40.3599 123.243 40.2474 123.431 40.114 123.508Z" fill="#237B75"/>
<path d="M46.6395 119.741L41.5647 122.671C41.4312 122.748 41.3273 122.685 41.3326 122.531C41.3379 122.377 41.4504 122.19 41.5838 122.113L46.6587 119.183C46.7921 119.106 46.896 119.168 46.8907 119.322C46.8854 119.476 46.7729 119.664 46.6395 119.741Z" fill="#237B75"/>
<path d="M44.9662 117.882L36.8304 122.579C36.6969 122.656 36.593 122.593 36.5983 122.439C36.6036 122.285 36.7161 122.098 36.8496 122.021L44.9854 117.324C45.1189 117.247 45.2228 117.309 45.2175 117.463C45.2122 117.617 45.0997 117.804 44.9662 117.882Z" fill="#373765"/>
<path d="M50.8059 114.51L46.8991 116.766C46.7657 116.843 46.6618 116.78 46.6671 116.626C46.6724 116.472 46.7849 116.285 46.9183 116.208L50.8251 113.952C50.9586 113.875 51.0625 113.938 51.0572 114.092C51.0519 114.246 50.9394 114.433 50.8059 114.51Z" fill="#237B75"/>
<path d="M43.2534 116L39.9508 117.907C39.8173 117.984 39.7134 117.922 39.7187 117.768C39.724 117.613 39.8365 117.426 39.9699 117.349L43.2726 115.442C43.4061 115.365 43.51 115.428 43.5047 115.582C43.4994 115.736 43.3869 115.923 43.2534 116Z" fill="#237B75"/>
<path d="M57.9938 107.489L45.911 114.465C45.7775 114.543 45.6736 114.48 45.6789 114.326C45.6842 114.172 45.7967 113.985 45.9302 113.908L58.013 106.932C58.1465 106.855 58.2504 106.917 58.2451 107.071C58.2398 107.225 58.1273 107.412 57.9938 107.489Z" fill="#237B75"/>
<path d="M56.8872 105.259L42.9919 113.282C42.8584 113.359 42.7545 113.297 42.7598 113.143C42.7651 112.988 42.8776 112.801 43.0111 112.724L56.9064 104.702C57.0399 104.625 57.1438 104.687 57.1385 104.841C57.1332 104.995 57.0207 105.182 56.8872 105.259Z" fill="#373765"/>
<path d="M43.4541 110.191L39.507 112.469C39.3736 112.546 39.2697 112.484 39.275 112.33C39.2803 112.176 39.3928 111.989 39.5262 111.912L43.4733 109.633C43.6068 109.556 43.7107 109.618 43.7054 109.772C43.7001 109.926 43.5876 110.113 43.4541 110.191Z" fill="#237B75"/>
<path d="M49.7368 106.563L45.7898 108.842C45.6563 108.919 45.5524 108.857 45.5577 108.703C45.563 108.549 45.6755 108.361 45.8089 108.284L49.756 106.005C49.8895 105.928 49.9934 105.991 49.9881 106.145C49.9828 106.299 49.8703 106.486 49.7368 106.563Z" fill="#373765"/>
<path d="M49.632 94.6867L37.5492 101.663C37.4157 101.74 37.3118 101.677 37.3171 101.523C37.3224 101.369 37.4349 101.182 37.5683 101.105L49.6512 94.1289C49.7847 94.0519 49.8886 94.1142 49.8833 94.2683C49.878 94.4223 49.7655 94.6096 49.632 94.6867Z" fill="#373765"/>
<path d="M64.1724 86.2921L52.0896 93.2682C51.9561 93.3452 51.8522 93.2829 51.8575 93.1288C51.8628 92.9748 51.9753 92.7875 52.1087 92.7104L64.1916 85.7344C64.3251 85.6573 64.429 85.7197 64.4237 85.8737C64.4184 86.0278 64.3059 86.2151 64.1724 86.2921Z" fill="#237B75"/>
<path d="M52.472 95.8709L40.4697 102.8C40.3362 102.877 40.2323 102.815 40.2376 102.661C40.2429 102.507 40.3554 102.32 40.4889 102.243L52.4912 95.3131C52.6247 95.2361 52.7286 95.2985 52.7233 95.4525C52.718 95.6065 52.6055 95.7938 52.472 95.8709Z" fill="#237B75"/>
<path d="M56.9842 93.2662L54.0037 94.9869C53.8703 95.064 53.7664 95.0016 53.7717 94.8476C53.777 94.6936 53.8895 94.5062 54.0229 94.4292L57.0034 92.7084C57.1368 92.6314 57.2407 92.6938 57.2354 92.8478C57.2301 93.0018 57.1176 93.1891 56.9842 93.2662Z" fill="#237B75"/>
<path d="M43.7523 103.775L39.5233 106.217C39.3898 106.294 39.2859 106.232 39.2912 106.078C39.2965 105.924 39.409 105.736 39.5425 105.659L43.7715 103.218C43.9049 103.14 44.0088 103.203 44.0035 103.357C43.9982 103.511 43.8857 103.698 43.7523 103.775Z" fill="#237B75"/>
<path d="M50.9637 99.6117L46.7347 102.053C46.6012 102.13 46.4973 102.068 46.5026 101.914C46.5079 101.76 46.6204 101.573 46.7539 101.496L50.9829 99.054C51.1164 98.9769 51.2203 99.0393 51.215 99.1933C51.2097 99.3474 51.0972 99.5347 50.9637 99.6117Z" fill="#373765"/>
<path d="M58.6971 95.1469L54.4681 97.5885C54.3346 97.6656 54.2307 97.6032 54.236 97.4491C54.2413 97.2951 54.3538 97.1078 54.4873 97.0307L58.7163 94.5891C58.8498 94.5121 58.9537 94.5745 58.9484 94.7285C58.9431 94.8825 58.8306 95.0698 58.6971 95.1469Z" fill="#237B75"/>
<path d="M51.0231 102.448L44.9011 105.983C44.7676 106.06 44.6637 105.997 44.669 105.843C44.6743 105.689 44.7868 105.502 44.9203 105.425L51.0423 101.89C51.1757 101.813 51.2796 101.876 51.2743 102.03C51.269 102.184 51.1565 102.371 51.0231 102.448Z" fill="#237B75"/>
<path d="M41.9211 107.703L35.7992 111.237C35.6657 111.314 35.5618 111.252 35.5671 111.098C35.5724 110.944 35.6849 110.757 35.8183 110.68L41.9403 107.145C42.0738 107.068 42.1777 107.13 42.1724 107.285C42.1671 107.439 42.0546 107.626 41.9211 107.703Z" fill="#373765"/>
<path d="M33.3793 103.062C33.3778 103.255 33.2433 103.493 33.0791 103.593C32.9148 103.694 32.783 103.619 32.7845 103.427C32.7861 103.234 32.9206 102.996 33.0848 102.896C33.2491 102.795 33.3809 102.87 33.3793 103.062Z" fill="#373765"/>
<path d="M32.5819 128.075C32.5803 128.267 32.7122 128.342 32.8765 128.241V128.241C33.0407 128.141 33.1751 127.903 33.1767 127.71L33.1824 127.013C33.184 126.82 33.0522 126.745 32.8879 126.846V126.846C32.7237 126.947 32.5892 127.185 32.5876 127.377L32.5819 128.075ZM32.6109 124.54C32.6093 124.733 32.7412 124.808 32.9055 124.707V124.707C33.0697 124.606 33.2041 124.368 33.2057 124.176L33.2114 123.478C33.213 123.286 33.0811 123.211 32.9169 123.312V123.312C32.7526 123.412 32.6182 123.65 32.6166 123.843L32.6109 124.54ZM32.6395 121.052C32.6379 121.245 32.7698 121.32 32.9341 121.219V121.219C33.0983 121.118 33.2327 120.881 33.2343 120.688L33.2401 119.99C33.2416 119.798 33.1098 119.723 32.9455 119.824V119.824C32.7813 119.924 32.6468 120.162 32.6452 120.355L32.6395 121.052ZM32.6685 117.518C32.6669 117.711 32.7988 117.785 32.9631 117.685V117.685C33.1273 117.584 33.2617 117.346 33.2633 117.154L33.269 116.456C33.2706 116.263 33.1388 116.189 32.9745 116.289V116.289C32.8103 116.39 32.6758 116.628 32.6742 116.82L32.6685 117.518ZM32.6975 113.984C32.6959 114.176 32.8278 114.251 32.9921 114.15V114.15C33.1563 114.049 33.2907 113.812 33.2923 113.619L33.298 112.922C33.2996 112.729 33.1677 112.654 33.0035 112.755V112.755C32.8392 112.856 32.7048 113.093 32.7032 113.286L32.6975 113.984ZM32.7265 110.449C32.7249 110.642 32.8568 110.716 33.021 110.616V110.616C33.1853 110.515 33.3197 110.277 33.3213 110.085L33.327 109.387C33.3286 109.194 33.1967 109.12 33.0325 109.221V109.221C32.8682 109.321 32.7338 109.559 32.7322 109.752L32.7265 110.449ZM32.7555 106.915C32.7539 107.107 32.8858 107.182 33.05 107.081V107.081C33.2143 106.981 33.3487 106.743 33.3503 106.55L33.356 105.853C33.3576 105.66 33.2257 105.586 33.0615 105.686V105.686C32.8972 105.787 32.7628 106.025 32.7612 106.217L32.7555 106.915Z" fill="#373765"/>
<path d="M235.749 32.9747H273.089C275.491 32.9747 277.439 34.9223 277.439 37.3247V61.6497C277.439 64.0521 275.491 65.9997 273.089 65.9997H235.749C233.346 65.9997 231.399 64.0521 231.399 61.6497V37.3247C231.399 34.9223 233.346 32.9747 235.749 32.9747Z" fill="#BEF0ED" stroke="#373765" stroke-width="1.3"/>
<path d="M278.089 37.1553H230.749" stroke="#373765" stroke-width="1.3"/>
<path d="M235.877 35.0526C235.877 35.4835 235.532 35.8283 235.101 35.8283C234.67 35.8283 234.325 35.4835 234.325 35.0526C234.325 34.6216 234.67 34.2769 235.101 34.2769C235.532 34.2769 235.877 34.6647 235.877 35.0526Z" fill="#373765"/>
<path d="M239.024 35.0526C239.024 35.4835 238.679 35.8283 238.248 35.8283C237.817 35.8283 237.472 35.4835 237.472 35.0526C237.472 34.6216 237.817 34.2769 238.248 34.2769C238.722 34.32 239.024 34.6647 239.024 35.0526Z" fill="#373765"/>
<path d="M241.997 35.1385C241.997 35.5695 241.652 35.9142 241.221 35.9142C240.79 35.9142 240.445 35.5695 240.445 35.1385C240.445 34.7076 240.79 34.3628 241.221 34.3628C241.652 34.4059 241.997 34.7076 241.997 35.1385Z" fill="#373765"/>
<path d="M243.938 40.3408H238.508C238.365 40.3408 238.249 40.4566 238.249 40.5994C238.249 40.7422 238.365 40.858 238.508 40.858H243.938C244.081 40.858 244.196 40.7422 244.196 40.5994C244.196 40.4566 244.081 40.3408 243.938 40.3408Z" fill="#237B75"/>
<path d="M250.921 40.3408H245.491C245.349 40.3408 245.233 40.4566 245.233 40.5994C245.233 40.7422 245.349 40.858 245.491 40.858H250.921C251.064 40.858 251.18 40.7422 251.18 40.5994C251.18 40.4566 251.064 40.3408 250.921 40.3408Z" fill="#237B75"/>
<path d="M249.022 43.0127H240.317C240.174 43.0127 240.058 43.1285 240.058 43.2713C240.058 43.4141 240.174 43.5299 240.317 43.5299H249.022C249.165 43.5299 249.281 43.4141 249.281 43.2713C249.281 43.1285 249.165 43.0127 249.022 43.0127Z" fill="#373765"/>
<path d="M255.272 43.0127H251.092C250.949 43.0127 250.833 43.1285 250.833 43.2713C250.833 43.4141 250.949 43.5299 251.092 43.5299H255.272C255.415 43.5299 255.53 43.4141 255.53 43.2713C255.53 43.1285 255.415 43.0127 255.272 43.0127Z" fill="#237B75"/>
<path d="M247.084 45.7275H243.55C243.407 45.7275 243.292 45.8433 243.292 45.9861C243.292 46.1289 243.407 46.2447 243.55 46.2447H247.084C247.227 46.2447 247.343 46.1289 247.343 45.9861C247.343 45.8433 247.227 45.7275 247.084 45.7275Z" fill="#237B75"/>
<path d="M262.856 45.7275H249.928C249.785 45.7275 249.669 45.8433 249.669 45.9861C249.669 46.1289 249.785 46.2447 249.928 46.2447H262.856C262.999 46.2447 263.115 46.1289 263.115 45.9861C263.115 45.8433 262.999 45.7275 262.856 45.7275Z" fill="#237B75"/>
<path d="M261.565 48.4424H246.697C246.554 48.4424 246.438 48.5582 246.438 48.701C246.438 48.8438 246.554 48.9595 246.697 48.9595H261.565C261.708 48.9595 261.824 48.8438 261.824 48.701C261.824 48.5582 261.708 48.4424 261.565 48.4424Z" fill="#373765"/>
<path d="M247.085 51.1143H242.861C242.718 51.1143 242.603 51.23 242.603 51.3728C242.603 51.5156 242.718 51.6314 242.861 51.6314H247.085C247.227 51.6314 247.343 51.5156 247.343 51.3728C247.343 51.23 247.227 51.1143 247.085 51.1143Z" fill="#237B75"/>
<path d="M253.808 51.1147H249.585C249.442 51.1147 249.326 51.2305 249.326 51.3733C249.326 51.5161 249.442 51.6319 249.585 51.6319H253.808C253.951 51.6319 254.066 51.5161 254.066 51.3733C254.066 51.2305 253.951 51.1147 253.808 51.1147Z" fill="#373765"/>
<path d="M253.246 62.4062H240.317C240.174 62.4062 240.059 62.522 240.059 62.6648C240.059 62.8076 240.174 62.9234 240.317 62.9234H253.246C253.389 62.9234 253.504 62.8076 253.504 62.6648C253.504 62.522 253.389 62.4062 253.246 62.4062Z" fill="#373765"/>
<path d="M268.804 62.4062H255.875C255.732 62.4062 255.617 62.522 255.617 62.6648C255.617 62.8076 255.732 62.9234 255.875 62.9234H268.804C268.947 62.9234 269.062 62.8076 269.062 62.6648C269.062 62.522 268.947 62.4062 268.804 62.4062Z" fill="#237B75"/>
<path d="M256.391 59.7339H243.548C243.405 59.7339 243.289 59.8497 243.289 59.9925C243.289 60.1353 243.405 60.251 243.548 60.251H256.391C256.533 60.251 256.649 60.1353 256.649 59.9925C256.649 59.8497 256.533 59.7339 256.391 59.7339Z" fill="#237B75"/>
<path d="M261.218 59.7339H258.029C257.886 59.7339 257.771 59.8497 257.771 59.9925C257.771 60.1353 257.886 60.251 258.029 60.251H261.218C261.361 60.251 261.477 60.1353 261.477 59.9925C261.477 59.8497 261.361 59.7339 261.218 59.7339Z" fill="#237B75"/>
<path d="M247.168 57.019H242.643C242.501 57.019 242.385 57.1348 242.385 57.2776C242.385 57.4204 242.501 57.5362 242.643 57.5362H247.168C247.311 57.5362 247.427 57.4204 247.427 57.2776C247.427 57.1348 247.311 57.019 247.168 57.019Z" fill="#237B75"/>
<path d="M254.884 57.019H250.359C250.216 57.019 250.1 57.1348 250.1 57.2776C250.1 57.4204 250.216 57.5362 250.359 57.5362H254.884C255.027 57.5362 255.143 57.4204 255.143 57.2776C255.143 57.1348 255.027 57.019 254.884 57.019Z" fill="#373765"/>
<path d="M263.158 57.019H258.633C258.491 57.019 258.375 57.1348 258.375 57.2776C258.375 57.4204 258.491 57.5362 258.633 57.5362H263.158C263.301 57.5362 263.417 57.4204 263.417 57.2776C263.417 57.1348 263.301 57.019 263.158 57.019Z" fill="#237B75"/>
<path d="M255.056 54.3042H248.505C248.362 54.3042 248.247 54.42 248.247 54.5628C248.247 54.7056 248.362 54.8213 248.505 54.8213H255.056C255.199 54.8213 255.314 54.7056 255.314 54.5628C255.314 54.42 255.199 54.3042 255.056 54.3042Z" fill="#237B75"/>
<path d="M245.316 54.3042H238.765C238.623 54.3042 238.507 54.42 238.507 54.5628C238.507 54.7056 238.623 54.8213 238.765 54.8213H245.316C245.459 54.8213 245.575 54.7056 245.575 54.5628C245.575 54.42 245.459 54.3042 245.316 54.3042Z" fill="#373765"/>
<path d="M234.323 40.1899C234.323 40.3684 234.468 40.5131 234.646 40.5131C234.825 40.5131 234.97 40.3684 234.97 40.1899C234.97 40.0114 234.825 39.8667 234.646 39.8667C234.468 39.8667 234.323 40.0114 234.323 40.1899Z" fill="#373765"/>
<path d="M234.97 63.0304C234.97 63.2089 234.825 63.3536 234.647 63.3536V63.3536C234.468 63.3536 234.323 63.2089 234.323 63.0304V62.384C234.323 62.2055 234.468 62.0608 234.647 62.0608V62.0608C234.825 62.0608 234.97 62.2055 234.97 62.384V63.0304ZM234.97 59.7551C234.97 59.9336 234.825 60.0783 234.647 60.0783V60.0783C234.468 60.0783 234.323 59.9336 234.323 59.7551V59.1087C234.323 58.9302 234.468 58.7855 234.647 58.7855V58.7855C234.825 58.7855 234.97 58.9302 234.97 59.1087V59.7551ZM234.97 56.5229C234.97 56.7015 234.825 56.8462 234.647 56.8462V56.8462C234.468 56.8462 234.323 56.7015 234.323 56.5229V55.8765C234.323 55.698 234.468 55.5533 234.647 55.5533V55.5533C234.825 55.5533 234.97 55.698 234.97 55.8765V56.5229ZM234.97 53.2477C234.97 53.4262 234.825 53.5709 234.647 53.5709V53.5709C234.468 53.5709 234.323 53.4262 234.323 53.2477V52.6012C234.323 52.4227 234.468 52.278 234.647 52.278V52.278C234.825 52.278 234.97 52.4227 234.97 52.6012V53.2477ZM234.97 49.9724C234.97 50.1509 234.825 50.2956 234.647 50.2956V50.2956C234.468 50.2956 234.323 50.1509 234.323 49.9724V49.3259C234.323 49.1474 234.468 49.0027 234.647 49.0027V49.0027C234.825 49.0027 234.97 49.1474 234.97 49.3259V49.9724ZM234.97 46.6971C234.97 46.8756 234.825 47.0203 234.647 47.0203V47.0203C234.468 47.0203 234.323 46.8756 234.323 46.6971V46.0506C234.323 45.8721 234.468 45.7274 234.647 45.7274V45.7274C234.825 45.7274 234.97 45.8721 234.97 46.0506V46.6971ZM234.97 43.4218C234.97 43.6003 234.825 43.745 234.647 43.745V43.745C234.468 43.745 234.323 43.6003 234.323 43.4218V42.7754C234.323 42.5969 234.468 42.4521 234.647 42.4521V42.4521C234.825 42.4521 234.97 42.5969 234.97 42.7754V43.4218Z" fill="#373765"/>
</svg>
